<?xml version="1.0" encoding="UTF-8" standalone="no"?>
<svg
   xmlns:dc="http://purl.org/dc/elements/1.1/"
   xmlns:cc="http://creativecommons.org/ns#"
   xmlns:rdf="http://www.w3.org/1999/02/22-rdf-syntax-ns#"
   xmlns:svg="http://www.w3.org/2000/svg"
   xmlns="http://www.w3.org/2000/svg"
   version="1.1"
   id="svg2"
   xml:space="preserve"
   width="512"
   height="256"
   viewBox="0 0 512 256.00001"><metadata
     id="metadata8"><rdf:RDF><cc:Work
         rdf:about=""><dc:format>image/svg+xml</dc:format><dc:type
           rdf:resource="http://purl.org/dc/dcmitype/StillImage" /><dc:title></dc:title></cc:Work></rdf:RDF></metadata><defs
     id="defs6"><clipPath
       clipPathUnits="userSpaceOnUse"
       id="clipPath18"><path
         d="M 0,512 H 512 V 0 H 0 Z"
         id="path16" /></clipPath><clipPath
       clipPathUnits="userSpaceOnUse"
       id="clipPath26"><path
         d="M 18.5537,418.002 H 493.446 V 128.782 H 18.5537 Z"
         id="path24" /></clipPath><clipPath
       clipPathUnits="userSpaceOnUse"
       id="clipPath46"><path
         d="M 0,512 H 512 V 0 H 0 Z"
         id="path44" /></clipPath></defs><g
     id="g10"
     transform="matrix(1.3333333,0,0,-1.3333333,-102.58186,498.97497)"><g
       id="g36"
       transform="translate(81.8242,342.4951)"><path
         d="M 0,0 V 29.322 H 59.183 V -86.344 H 20.629 V 0 Z"
         style="fill:#faaf40;fill-opacity:1;fill-rule:nonzero;stroke:none"
         id="path38" /></g><g
       id="g40"
       transform="translate(7.3596517,-1.6579822)"><g
         id="g42"
         clip-path="url(#clipPath46)"><g
           id="g48"
           transform="translate(156.2168,256.1509)"><path
             d="m 0,0 v 23.354 l 49.956,47.787 c 0,0 3.256,7.058 0,13.033 0,0 -2.724,6.522 -17.92,2.175 0,0 -9.228,-7.598 -9.228,-9.774 L -7.064,91.239 c 0,0 11.94,21.164 32.584,24.428 0,0 27.692,5.43 35.839,0 0,0 21.179,-4.338 27.696,-22.259 0,0 3.791,-15.204 0,-24.977 0,0 -5.986,-15.209 -21.179,-26.614 L 53.76,30.412 h 36.975 3.208 V 0 Z"
             style="fill:#faaf40;fill-opacity:1;fill-rule:nonzero;stroke:none"
             id="path50" /></g><g
           id="g52"
           transform="translate(311.4033,279.0791)"><path
             d="m 0,0 c -7.138,0 -12.919,5.791 -12.919,12.917 0,7.136 5.781,12.93 12.919,12.93 7.141,0 12.934,-5.794 12.934,-12.93 C 12.934,5.791 7.141,0 0,0 m 20.873,50.827 v 0.033 c -13.364,5.709 -33.792,-5.906 -33.792,-5.906 0,12.487 9.866,16.839 9.866,16.839 20.173,9.234 36.846,-2.176 36.846,-2.176 l 13.033,27.154 c -16.294,14.122 -59.745,5.967 -59.745,5.967 -22.808,-3.801 -35.295,-31.492 -35.295,-31.492 -12.482,-45.616 3.812,-65.168 3.812,-65.168 22.267,-30.415 57.054,-21.446 57.054,-21.446 21.305,0 38.549,17.272 38.549,38.565 0,18.462 -12.989,33.86 -30.328,37.63"
             style="fill:#faaf40;fill-opacity:1;fill-rule:nonzero;stroke:none"
             id="path54" /></g><g
           id="g56"
           transform="translate(368.3262,289.8213)"><path
             d="M 0,0 C 0,0 2.168,4.888 0,11.402 H 33.132 V 0 H 21.729 V -33.67 H 5.436 v 33.128 z"
             style="fill:#faaf40;fill-opacity:1;fill-rule:nonzero;stroke:none"
             id="path58" /></g><g
           id="g60"
           transform="translate(406.8945,301.2236)"><path
             d="M 0,0 V -45.073 H 36.921 V -34.21 H 14.659 v 7.06 h 17.376 v 9.773 H 14.659 v 6.514 H 36.921 V 0 Z"
             style="fill:#faaf40;fill-opacity:1;fill-rule:nonzero;stroke:none"
             id="path62" /></g><g
           id="g64"
           transform="translate(227.8994,241.4863)"><path
             d="m 0,0 v -54.388 h 44.53 v 13.11 H 17.678 v 8.502 h 20.96 v 11.816 h -20.96 v 7.842 H 44.53 V 0 Z"
             style="fill:#faaf40;fill-opacity:1;fill-rule:nonzero;stroke:none"
             id="path66" /></g><g
           id="g68"
           transform="translate(108.8574,200.7402)"><path
             d="m 0,0 c -7.205,0 -13.035,5.833 -13.035,13.034 0,7.209 5.83,13.044 13.035,13.044 7.202,0 13.033,-5.835 13.033,-13.044 C 13.033,5.833 7.202,0 0,0 m -0.971,40.746 c -17.105,0 -30.95,-12.529 -30.95,-27.99 0,-15.449 13.845,-27.949 30.95,-27.949 17.112,0 30.956,12.5 30.956,27.949 0,15.461 -13.844,27.99 -30.956,27.99"
             style="fill:#faaf40;fill-opacity:1;fill-rule:nonzero;stroke:none"
             id="path70" /></g><path
           d="m 219.205,187.099 h -17.78 v 54.388 h 17.78 z"
           style="fill:#faaf40;fill-opacity:1;fill-rule:nonzero;stroke:none"
           id="path72" /><g
           id="g74"
           transform="translate(173.3203,213.4961)"><path
             d="M 0,0 H -10.589 V 13.445 H -0.404 C 4.483,13.038 4.483,6.725 4.483,6.725 4.075,0.813 0,0 0,0 m 4.585,27.99 c -0.51,0 -0.982,-0.13 -1.479,-0.164 -0.355,0.034 -0.726,0.187 -1.068,0.164 -3.259,-0.281 -30.547,0 -30.547,0 v -54.387 h 17.92 v 14.179 h 5.704 l 9.368,-14.179 h 16.699 l -11,17.032 c 0,0 9.373,3.259 11,13.036 v 0.275 c 0.479,1.707 0.813,3.49 0.813,5.351 0,10.313 -7.801,18.693 -17.41,18.693"
             style="fill:#faaf40;fill-opacity:1;fill-rule:nonzero;stroke:none"
             id="path76" /></g><g
           id="g78"
           transform="translate(279.2266,241.4863)"><path
             d="M 0,0 V -54.388 H 18.187 V -29.9 l 20.366,-24.488 h 13.58 V 0 H 35.028 V -25.012 L 15.056,0.124 Z"
             style="fill:#faaf40;fill-opacity:1;fill-rule:nonzero;stroke:none"
             id="path80" /></g><g
           id="g82"
           transform="translate(336.5127,241.4863)"><path
             d="m 0,0 v -14.414 h 15.76 v -39.974 h 18.187 v 39.72 h 15.21 V 0.124 Z"
             style="fill:#faaf40;fill-opacity:1;fill-rule:nonzero;stroke:none"
             id="path84" /></g><g
           id="g86"
           transform="translate(408.7451,209.4248)"><path
             d="M 0,0 3.806,13.313 H 6.518 L 11.671,0 Z M 13.554,32.062 H -3.81 l -23.082,-54.388 h 16.556 l 5.438,9.569 h 20.375 l 3.258,-9.569 h 18.737 z"
             style="fill:#faaf40;fill-opacity:1;fill-rule:nonzero;stroke:none"
             id="path88" /></g></g></g></g></svg>
