<?xml version="1.0" encoding="utf-8"?>
<!-- Generator: Adobe Illustrator 24.0.0, SVG Export Plug-In . SVG Version: 6.00 Build 0)  -->
<svg version="1.1" id="Layer_1" xmlns="http://www.w3.org/2000/svg" xmlns:xlink="http://www.w3.org/1999/xlink" x="0px" y="0px"
	 viewBox="0 0 645.66 126" style="enable-background:new 0 0 645.66 126;" xml:space="preserve">
<style type="text/css">
	.st0{fill:#3C4657;}
	.st1{fill:#313945;}
	.st2{fill:#231F20;}
	.st3{opacity:0.3;}
	.st4{fill:#D1D2D2;}
	.st5{fill:#C9EAFB;}
	.st6{fill:#FFFFFF;}
	
		.st7{fill:none;stroke:#FDF5F9;stroke-width:2.1703;stroke-linecap:round;stroke-linejoin:round;stroke-miterlimit:10;stroke-dasharray:8.6811;}
	.st8{fill:#72256F;}
	.st9{fill:#3C2415;}
	.st10{fill:#B56A57;}
	.st11{opacity:0.4;fill:#B56A57;}
	.st12{fill:#BE1E2D;}
	.st13{fill:#4C3B4B;}
	.st14{fill:#392A38;}
	.st15{fill:#F0645C;}
	.st16{fill:#603913;}
	.st17{fill:#F1F2F2;}
	.st18{fill:#D8792B;}
	.st19{fill:#8AB5CF;}
	.st20{fill:#C6E1F5;}
	.st21{fill:#F79731;}
	.st22{fill:#84A5BA;}
	.st23{fill:#658CA2;}
	.st24{fill:#9CC3DB;}
	.st25{fill:#72A749;}
	.st26{fill:#87C557;}
	.st27{fill:#C1DA73;}
	.st28{fill:#D77A40;}
	.st29{fill:#BFE068;}
	.st30{fill:#F7FAFB;}
	.st31{fill:#FBB040;}
	.st32{fill:#F5F5F6;}
	.st33{fill:url(#SVGID_1_);}
	.st34{fill:none;stroke:#F7FAFB;stroke-width:3.0845;stroke-miterlimit:10;}
	.st35{fill:#D4F0F5;}
	.st36{opacity:0.57;}
	.st37{fill:#92D5E4;}
	.st38{fill:#FFFFFF;stroke:#852170;stroke-width:0.9103;stroke-miterlimit:10;}
	.st39{fill:#852170;}
	.st40{fill:none;stroke:#852170;stroke-width:0.4552;stroke-miterlimit:10;}
	.st41{opacity:0.5;fill:#852170;}
	.st42{opacity:0.4;}
	.st43{clip-path:url(#SVGID_3_);}
	.st44{opacity:0.63;}
	.st45{fill:#B9E5EE;}
	.st46{fill:#FF9F66;}
	.st47{fill:#73ADDB;}
	.st48{fill:#2E214C;}
	.st49{fill:#43305F;}
	.st50{fill:#FF8A31;}
	.st51{fill:#549CCB;}
	.st52{fill:#FF9B3A;}
	.st53{fill:#F2763F;}
	.st54{fill:#4489B4;}
	.st55{fill:#F17D24;}
	.st56{opacity:0.74;}
	.st57{clip-path:url(#SVGID_5_);}
	.st58{fill:#E8505B;}
	.st59{fill:#263238;}
	.st60{opacity:0.2;}
	.st61{fill:#455A64;}
	.st62{fill:#ADD337;}
	.st63{opacity:0.69;fill:#FFFFFF;}
	.st64{fill:#FAFAFA;}
	.st65{fill:#FFBE9D;}
	.st66{fill:#CC8F75;}
	.st67{opacity:0.78;}
	.st68{fill:#7C2639;}
	.st69{fill:#E28088;}
	.st70{fill:#222228;}
	.st71{fill:#F0A2F4;}
	.st72{fill:#684D34;}
	.st73{fill:#604966;}
	.st74{fill:#3F1E47;}
	.st75{fill:#936754;}
	.st76{fill:#EB996E;}
	.st77{fill:#7F584A;}
	.st78{fill:#0A0705;}
	.st79{fill:#60381A;}
	.st80{fill:#7C5142;}
	.st81{opacity:0.6;}
	.st82{fill:#3D3D3D;}
	.st83{fill:#6FB56B;}
	.st84{fill:#97F794;}
	.st85{fill:#754925;}
	.st86{fill:#5E3A1E;}
	.st87{fill:#AFA15B;}
	.st88{fill:#FFEE8D;}
	.st89{fill:#B78876;}
	.st90{fill:#F5F5F5;}
	.st91{fill:#BF594F;}
	.st92{fill:#FF725E;}
	.st93{fill:#C96565;}
	.st94{fill:#B57662;}
	.st95{fill:#EA9898;}
	.st96{fill:#7C4A4A;}
	.st97{fill:#EBEBEB;}
	.st98{fill:#E0E0E0;}
	.st99{opacity:0.5;}
	.st100{fill:#995037;}
	.st101{fill:#773C2C;}
	.st102{fill:none;}
	.st103{fill:#E5BAAB;}
	.st104{fill:#D78776;}
	.st105{fill:#BC93B4;}
	.st106{fill:#B77153;}
	.st107{fill:#724940;}
	.st108{fill:#A56B65;}
	.st109{fill:#492F1B;}
	.st110{fill:#4B6EBC;}
	.st111{fill:#3D5C91;}
	.st112{fill:#A4CC64;}
	.st113{fill:#0086BF;}
	.st114{fill:none;stroke:#4E585D;stroke-miterlimit:10;}
	.st115{fill:#AF5858;}
	.st116{fill:#71A5BC;}
	.st117{fill:#AF7127;}
	.st118{fill:#4C3D2D;}
	.st119{fill:#AA6550;}
	.st120{fill:#93584A;}
</style>
<g>
	<path class="st4" d="M47.02,69.16c-3.42,1.76-7.8,2.18-9.25,2.18c-7.56,0-11.07-5.83-11.07-10.87c0-5.18,3.62-11.66,12.04-11.66
		c3.69,0,6.14,1.17,6.86,1.17c0.32,0,0.59-0.07,0.8-0.24h0.48v5.59H46.2c-0.94-4.31-3.87-5.66-7.08-5.66
		c-6.07,0-9.17,5.04-9.17,10.6c0,7.07,4.97,10.21,8.94,10.21c1.58,0,3.35-0.34,5.28-1.31v-4.34c0-1.96-0.69-2.62-2.76-2.62h-1.28
		v-0.62h9.32v0.62c-1.73,0.11-2.41,0.69-2.41,2.17V69.16z"/>
	<path class="st4" d="M61.79,71.34c-6.76,0-12.46-4.35-12.46-10.8c0-6.87,5.28-11.73,12.63-11.73c6.52,0,12.11,4.45,12.11,10.66
		C74.08,66.44,68.49,71.34,61.79,71.34 M61.07,49.67c-6.07,0-8.49,5.66-8.49,9.8c0,6.46,4.38,11.01,9.94,11.01
		c5.62,0,8.31-4.96,8.31-9.86C70.83,54.19,66.76,49.67,61.07,49.67"/>
	<path class="st4" d="M77.32,52.98c0-1.97-0.24-3-2.65-3h-1.21v-0.65c0.97-0.03,3.35-0.17,4.35-0.21c1.9-0.07,4.52-0.11,5.17-0.11
		c3.04,0,5.7,0.45,6.93,1.35c1.42,1,2.11,2.17,2.11,3.83c0,1.96-1.62,3.8-3.93,4.21v0.07c3.24,0.97,5.14,3.07,5.14,5.76
		c0,2.72-1.9,6.55-7.45,6.55H73.15v-0.65h0.79c2.83,0,3.38-0.66,3.38-2.83V52.98z M80.19,58.29h3.76c3.31,0,4.96-1.31,4.96-4
		c0-2.42-1.45-4.63-5.69-4.63c-0.76,0-2.17,0.07-3.04,0.11V58.29z M80.19,66.3c0,2.62,1.04,3.56,3.93,3.56
		c4.56,0,5.87-2.83,5.87-5.52c0-2.66-2.03-5.38-6.07-5.38h-3.73V66.3z"/>
	<path class="st4" d="M102.24,70.78h-8.39v-0.65c2.14-0.1,2.59-0.66,2.59-2.97v-14.7c0-1.86-0.66-2.38-2.59-2.48v-0.65h8.39v0.65
		c-2.17,0-2.93,0.48-2.93,2.79v14.63c0,2.04,0.55,2.72,2.93,2.72V70.78z"/>
	<path class="st4" d="M119.03,63.02h-0.65c-0.27-2.45-0.93-2.72-2.34-2.72h-5.83v7.35c0,1.58,0.59,1.9,1.86,1.9h5.32
		c2.41,0,3.14-0.93,4-3.9H122l-0.55,5.14h-18.32v-0.65h0.97c2.76,0,3.24-0.76,3.24-2.83V52.74c0-1.93-0.45-2.76-2.76-2.76h-0.76
		v-0.65h16.56l0.28,4.79h-0.62c-0.45-2.93-1.31-3.55-2.55-3.55h-7.28v8.49h6.18c1.24,0,1.83-0.59,2-2.59h0.65V63.02z"/>
	<path class="st4" d="M127.63,67.54c0,2.07,0.83,2.59,2.76,2.59h0.8v0.65h-9.77v-0.65H122c2.03,0,2.76-0.55,2.76-2.86V52.74
		c0-2.14-0.59-2.76-2.59-2.76h-0.76v-0.65c0.83,0,2.93-0.14,4.35-0.21c1.42-0.07,2.11-0.11,4.34-0.11c6.38,0,9.25,2.62,9.25,6.14
		c0,2.59-1.76,4.76-4.59,5.59c1.28,1.01,2.31,1.97,3.93,3.59l2.73,2.72c2.03,2.03,4.14,3.31,6.8,3.49v0.62
		c-6.04,0.28-7.59-1.04-10.66-4.11l-2.28-2.27c-1.52-1.52-2.72-2.52-3.55-3.07c-0.86,0.04-1.42,0.07-2.35,0.07
		c-0.76,0-1.21-0.03-1.76-0.07V67.54z M127.63,61.06c0.83,0.1,1.34,0.07,2.14,0.07c3.83,0,6.35-1.62,6.35-5.76
		c0-3.21-1.45-5.7-6.76-5.7c-0.66,0-1.1,0-1.72,0.07V61.06z"/>
	<path class="st4" d="M167.64,71.38l-17.87-18.7v14.8c0,2.48,0.55,3,3.48,3v0.66h-8v-0.66h0.14c2.14,0,2.83-0.72,2.83-2.31V51.19
		c-0.8-0.55-1.69-0.83-2.9-0.86v-0.65h5.42l16.25,16.94V52.89c0-2.1-0.62-2.48-3.38-2.55v-0.65h8.07v0.65
		c-2.59,0-3.14,0.45-3.14,1.8v19.25H167.64z"/>
	<path class="st4" d="M183.33,71.34c-6.76,0-12.46-4.35-12.46-10.8c0-6.87,5.28-11.73,12.63-11.73c6.52,0,12.11,4.45,12.11,10.66
		C195.61,66.44,190.02,71.34,183.33,71.34 M182.61,49.67c-6.07,0-8.49,5.66-8.49,9.8c0,6.46,4.38,11.01,9.94,11.01
		c5.62,0,8.32-4.96,8.32-9.86C192.37,54.19,188.29,49.67,182.61,49.67"/>
	<path class="st4" d="M207.27,52.77c0-2.24-0.59-2.79-2.62-2.79h-0.69v-0.65c1.28-0.07,2.97-0.14,4.86-0.21
		c1.9-0.07,4-0.11,5.8-0.11c9.1,0,13.14,4.62,13.14,10.32c0,5.21-4.04,11.45-12.76,11.45h-11.04v-0.65h0.59
		c1.86,0,2.72-0.52,2.72-2.52V52.77z M210.14,68.23c0,1.42,0.1,1.9,2.83,1.9c4.62,0,6.56-0.66,8.7-2.79
		c1.27-1.25,2.86-3.9,2.86-7.46c0-2.55-0.72-5.38-2.76-7.42c-1.59-1.59-4.04-2.79-8.87-2.79c-1.41,0-2.34,0.11-2.76,0.14V68.23z"/>
	<path class="st4" d="M242.92,63.02h-0.65c-0.28-2.45-0.93-2.72-2.35-2.72h-5.83v7.35c0,1.58,0.58,1.9,1.86,1.9h5.32
		c2.41,0,3.14-0.93,4-3.9h0.62l-0.55,5.14h-18.32v-0.65h0.96c2.76,0,3.24-0.76,3.24-2.83V52.74c0-1.93-0.45-2.76-2.76-2.76h-0.76
		v-0.65h16.56l0.28,4.79h-0.62c-0.44-2.93-1.31-3.55-2.55-3.55h-7.28v8.49h6.17c1.24,0,1.83-0.59,2.01-2.59h0.65V63.02z"/>
	<path class="st4" d="M420.48,62.38h-0.66c-0.27-2.45-0.93-2.72-2.35-2.72h-5.83v7.35c0,1.58,0.58,1.9,1.86,1.9h5.31
		c2.41,0,3.14-0.94,4-3.91h0.62l-0.55,5.14h-18.32v-0.66h0.96c2.77,0,3.25-0.76,3.25-2.83V52.1c0-1.93-0.45-2.76-2.76-2.76h-0.76
		v-0.65h16.56l0.28,4.79h-0.62c-0.45-2.93-1.31-3.55-2.55-3.55h-7.28v8.49h6.17c1.24,0,1.83-0.59,2-2.59h0.66V62.38z"/>
	<path class="st4" d="M440.04,70.15h-15.42v-0.65h1.14c1.59,0,2.18-0.52,2.18-2.28V51.93c0-1.83-0.55-2.59-2.73-2.59h-0.48v-0.66
		h10.18v0.66h-1.28c-2.24,0-2.83,0.24-2.83,2.38v15.9c0,0.93,0.38,1.28,1.38,1.28h5.08c2.03,0,2.65-0.79,4.82-3.79h0.63
		L440.04,70.15z"/>
	<path class="st4" d="M452.68,64.9c0.72,3.07,3.14,4.87,5.83,4.87c2.32,0,4.76-1.34,4.76-4.07c0-4.97-11.07-6.49-11.07-12.53
		c0-2.87,2.62-5,6.14-5c2.9,0,3.49,0.86,4.69,0.86c0.28,0,0.41-0.07,0.62-0.35h0.55l0.58,4.39h-0.58c-0.97-2.48-3.18-4.07-5.56-4.07
		c-2.27,0-3.86,1.31-3.86,3.25c0,4.9,11.08,6.21,11.08,12.56c0,3.38-3,5.9-7.04,5.9c-1.89,0-4.31-0.93-4.79-0.93
		c-0.31,0-0.56,0.17-0.69,0.38h-0.59l-0.73-5.25H452.68z"/>
	<path class="st4" d="M473.83,60.63l-2,5.41c-0.24,0.65-0.69,1.69-0.69,2.18c0,0.93,0.9,1.27,2.79,1.27h0.55v0.66h-7.97v-0.66
		c2.24-0.04,2.62-0.41,3.72-3.42l6.29-17.14l-0.32-0.76h3l7.21,19.15c0.69,1.83,1.42,2.17,3.14,2.17v0.66h-9.49v-0.66h0.9
		c1.96,0,2.69-0.21,2.69-1.17c0-0.55-0.24-1.07-0.38-1.41l-2.31-6.28H473.83z M477.34,51.07l-2.93,8.04h5.97L477.34,51.07z"/>
	<path class="st4" d="M504.82,70.15h-15.42v-0.65h1.13c1.59,0,2.18-0.52,2.18-2.28V51.93c0-1.83-0.56-2.59-2.73-2.59h-0.48v-0.66
		h10.18v0.66h-1.27c-2.25,0-2.83,0.24-2.83,2.38v15.9c0,0.93,0.38,1.28,1.38,1.28h5.07c2.03,0,2.65-0.79,4.83-3.79h0.62
		L504.82,70.15z"/>
	<path class="st4" d="M512.64,70.7l-7.49-18.66c-0.86-2.18-1.27-2.69-3.38-2.69v-0.66h9.49v0.66c-3.17,0.07-3.93,0.79-3.28,2.38
		l6.21,15.46l5.45-14.26c0.38-0.96,0.59-1.65,0.59-2.14c0-1.04-0.86-1.45-3.21-1.45v-0.66h8v0.66c-1.79,0-2.73,0.83-3.55,2.97
		l-7.11,18.39H512.64z"/>
	<path class="st4" d="M528.35,60.63l-2,5.41c-0.24,0.65-0.69,1.69-0.69,2.18c0,0.93,0.9,1.27,2.8,1.27H529v0.66h-7.97v-0.66
		c2.24-0.04,2.63-0.41,3.73-3.42l6.28-17.14l-0.31-0.76h3l7.21,19.15c0.69,1.83,1.41,2.17,3.14,2.17v0.66h-9.49v-0.66h0.9
		c1.97,0,2.69-0.21,2.69-1.17c0-0.55-0.24-1.07-0.38-1.41l-2.31-6.28H528.35z M531.87,51.07l-2.93,8.04h5.97L531.87,51.07z"/>
	<path class="st4" d="M547.05,52.14c0-2.24-0.59-2.79-2.62-2.79h-0.69v-0.66c1.28-0.07,2.97-0.13,4.87-0.2c1.9-0.07,4-0.1,5.8-0.1
		c9.11,0,13.14,4.62,13.14,10.31c0,5.21-4.04,11.46-12.77,11.46h-11.04v-0.66h0.59c1.86,0,2.73-0.52,2.73-2.52V52.14z M549.92,67.6
		c0,1.41,0.1,1.9,2.83,1.9c4.63,0,6.56-0.65,8.69-2.79c1.28-1.24,2.86-3.9,2.86-7.45c0-2.55-0.73-5.39-2.75-7.42
		c-1.59-1.58-4.04-2.79-8.87-2.79c-1.41,0-2.34,0.11-2.76,0.14V67.6z"/>
	<path class="st4" d="M581.53,70.7c-6.77,0-12.46-4.35-12.46-10.8c0-6.87,5.28-11.73,12.62-11.73c6.52,0,12.11,4.45,12.11,10.66
		C593.81,65.8,588.22,70.7,581.53,70.7 M580.8,49.03c-6.07,0-8.49,5.66-8.49,9.8c0,6.45,4.39,11,9.94,11c5.63,0,8.31-4.97,8.31-9.87
		C590.57,53.55,586.5,49.03,580.8,49.03"/>
	<path class="st4" d="M599.75,66.9c0,2.07,0.83,2.59,2.77,2.59h0.79v0.66h-9.76v-0.66h0.58c2.04,0,2.76-0.55,2.76-2.87V52.1
		c0-2.14-0.59-2.76-2.58-2.76h-0.76v-0.65c0.83,0,2.93-0.14,4.34-0.21c1.42-0.07,2.11-0.11,4.35-0.11c6.38,0,9.25,2.62,9.25,6.15
		c0,2.59-1.76,4.76-4.59,5.59c1.28,0.99,2.31,1.96,3.93,3.59l2.73,2.72c2.04,2.04,4.14,3.31,6.8,3.49v0.62
		c-6.04,0.28-7.59-1.04-10.66-4.11l-2.28-2.28c-1.51-1.52-2.73-2.52-3.55-3.07c-0.86,0.03-1.42,0.07-2.35,0.07
		c-0.76,0-1.21-0.04-1.76-0.07V66.9z M599.75,60.42c0.83,0.11,1.35,0.07,2.14,0.07c3.83,0,6.35-1.62,6.35-5.76
		c0-3.2-1.45-5.69-6.76-5.69c-0.66,0-1.11,0-1.73,0.07V60.42z"/>
	<polygon class="st4" points="327.29,13.09 328.67,15.88 331.76,16.34 329.52,18.51 330.05,21.58 327.29,20.13 324.53,21.58 
		325.06,18.51 322.83,16.34 325.91,15.88 	"/>
	<polygon class="st4" points="347.57,18.27 348.95,21.06 352.03,21.51 349.8,23.69 350.34,26.76 347.57,25.31 344.81,26.76 
		345.34,23.69 343.11,21.51 346.19,21.06 	"/>
	<polygon class="st4" points="363.12,30.86 364.5,33.65 367.59,34.1 365.36,36.28 365.88,39.35 363.12,37.9 360.36,39.35 
		360.89,36.28 358.66,34.1 361.74,33.65 	"/>
	<polygon class="st4" points="372,48.88 373.39,51.67 376.47,52.12 374.24,54.3 374.77,57.36 372,55.91 369.25,57.36 369.77,54.3 
		367.54,52.12 370.63,51.67 	"/>
	<polygon class="st4" points="372.35,69.79 373.72,72.59 376.81,73.03 374.58,75.21 375.11,78.28 372.35,76.83 369.58,78.28 
		370.11,75.21 367.88,73.03 370.97,72.59 	"/>
	<polygon class="st4" points="363.14,87.89 364.52,90.69 367.6,91.14 365.37,93.31 365.9,96.38 363.14,94.93 360.38,96.38 
		360.91,93.31 358.68,91.14 361.76,90.69 	"/>
	<polygon class="st4" points="347.67,100.49 349.05,103.28 352.13,103.74 349.9,105.91 350.43,108.98 347.67,107.53 344.91,108.98 
		345.43,105.91 343.21,103.74 346.29,103.28 	"/>
	<polygon class="st4" points="327.28,104.91 328.66,107.71 331.75,108.16 329.52,110.33 330.04,113.4 327.28,111.95 324.53,113.4 
		325.05,110.33 322.82,108.16 325.9,107.71 	"/>
	<polygon class="st4" points="307.35,100.5 308.73,103.3 311.81,103.75 309.58,105.92 310.11,109 307.35,107.54 304.59,109 
		305.12,105.92 302.88,103.75 305.97,103.3 	"/>
	<polygon class="st4" points="291.87,87.92 293.25,90.71 296.33,91.16 294.1,93.34 294.63,96.4 291.87,94.95 289.11,96.4 
		289.63,93.34 287.41,91.16 290.49,90.71 	"/>
	<polygon class="st4" points="282.65,69.92 284.03,72.72 287.11,73.17 284.88,75.34 285.41,78.42 282.65,76.96 279.89,78.42 
		280.42,75.34 278.19,73.17 281.27,72.72 	"/>
	<polygon class="st4" points="282.65,48.88 284.03,51.67 287.11,52.12 284.88,54.3 285.41,57.36 282.65,55.91 279.89,57.36 
		280.42,54.3 278.19,52.12 281.27,51.67 	"/>
	<polygon class="st4" points="291.4,30.88 292.78,33.68 295.86,34.12 293.63,36.3 294.16,39.37 291.4,37.92 288.64,39.37 
		289.16,36.3 286.94,34.12 290.02,33.68 	"/>
	<polygon class="st4" points="307.32,18.28 308.7,21.07 311.79,21.53 309.56,23.7 310.08,26.77 307.32,25.32 304.57,26.77 
		305.09,23.7 302.86,21.53 305.94,21.07 	"/>
	<path class="st4" d="M350.93,70.5c-0.01,0-0.03-0.01-0.04-0.01c-0.21,0-0.38,0.17-0.38,0.38c0,0.22,0.17,0.39,0.38,0.39
		c0.01,0,0.03-0.01,0.04-0.01c0.02,0.01,0.03,0.01,0.05,0.01c0.2,0,0.39-0.17,0.39-0.39c0-0.21-0.18-0.38-0.39-0.38
		C350.97,70.49,350.95,70.5,350.93,70.5"/>
	<path class="st4" d="M355.19,65.13c0,0-0.65,0.12-0.93,0.35c-0.14,0.11-0.34,0.17-0.54,0.22c0.1-0.19,0.16-0.43,0.14-0.73
		c-0.07-0.71-0.07-1.85-0.07-1.85s-0.24,0.7-0.57,0.87c-0.35,0.17-0.98,0.4-1.1,0.63c-0.12,0.24-0.58,0.24-0.77,0.93
		c-0.17,0.68-0.17,0.64-0.28,0.86c-0.04,0.07-0.09,0.15-0.15,0.24c0.22-1.05,0.38-2.14,0.38-3.07c0-0.17,0-0.32-0.01-0.48
		c0.17-0.14,0.4-0.38,0.4-0.38c0.15-0.25,1.93-0.86,2.18-1.34c0.25-0.47,0.39-0.8,0.5-1.01c0.1-0.21,0.33-0.96,0.28-1.29
		c-0.03-0.33-0.08-1.58-0.2-1.78c0,0-0.55,0.28-0.74,0.56c-0.05,0.08-0.12,0.14-0.2,0.21c0-0.17-0.02-0.34-0.08-0.5
		c-0.25-0.61-0.64-1.43-0.64-1.43s-0.33,0.51-0.51,0.83c-0.3,0.6-0.6,0.65-0.65,0.88c-0.04,0.25-0.4,0.4-0.53,0.88
		c-0.05,0.17-0.08,0.29-0.09,0.39c-0.13-1.03-0.3-1.97-0.5-2.81c0.09-0.27,0.18-0.86,0.42-1.05c0.35-0.3,0.4-0.7,0.4-1.16
		c0-0.46-0.1-0.8-0.17-1.1c-0.05-0.28-0.93-1.5-0.86-1.85c0,0-0.44,0.99-0.6,1.37c-0.43-0.43-1.09-0.94-1.46-1.12
		c-0.22-0.38-0.44-0.77-0.68-1.15c0.01-0.12,0.04-0.35,0.07-0.61c0.07-0.35,0.19-0.93,0.07-1.22c-0.12-0.28-0.35-0.51-0.47-0.86
		c-0.12-0.35-0.17-0.59-0.46-0.87c-0.28-0.3-0.7-0.7-0.7-0.7s-0.11,0.51-0.22,0.93c-0.11-0.06-0.21-0.09-0.3-0.12
		c-0.07-0.03-0.21-0.1-0.38-0.19c-0.2-0.27-0.39-0.53-0.58-0.76c0.1-0.07,0.17-0.18,0.17-0.32c0-0.21-0.16-0.39-0.38-0.39
		c-0.22,0-0.39,0.17-0.39,0.39c0,0.22,0.17,0.38,0.39,0.38c0.08,0,0.15-0.03,0.21-0.07c0.05,0.08,0.2,0.32,0.43,0.67
		c-0.19-0.1-0.37-0.21-0.45-0.26c-0.15-0.1-0.23,1.04,0.12,1.68c-0.05-0.02-0.11-0.03-0.17-0.04c-0.7-0.18-1.33-0.12-1.33-0.12
		c0.17,0,0.59,0.45,0.63,0.68c0.07,0.23,0.47,0.77,0.7,0.87c0.23,0.11,0.63,0.41,0.87,0.65c0.23,0.23,0.95,0.28,1.46,0.29
		c0.21,0.1,0.39,0.16,0.52,0.12c0.21,0.37,0.43,0.75,0.64,1.13c-0.07,0.28-0.17,0.8-0.14,1l0,0h0c-0.28-0.05-1.27-0.28-1.27-0.28
		c0.1,0.57,0.26,1.15,0.51,1.45c-0.06,0.05-0.1,0.12-0.11,0.2c-0.02,0.12,0.01,0.25,0.09,0.35c0.01,0.02,0.22,0.35,0.55,0.46
		l-4.76,3.35c0.38-5.66-0.3-11.09-0.47-12.27c0.58-0.22,0.42-0.48,0.42-0.48l-0.22-0.57c0.06,0.03,0.13,0.04,0.19,0.04
		c0.1,0,0.2-0.04,0.27-0.11c0.14-0.16,0.11-0.42-0.06-0.58c-0.01-0.01-0.16-0.16-0.37-0.26l0.68-0.1l0.39-1.64h-0.01h0.01
		l-1.59,0.55l-0.04,0.68c-0.11-0.2-0.28-0.33-0.29-0.33c-0.18-0.17-0.45-0.17-0.59-0.02c-0.14,0.16-0.11,0.42,0.07,0.58
		c0.01,0.01,0.27,0.25,0.59,0.31c0,0.01,0.01,0.03,0.02,0.04l-7.98,8.8l-5.3-8.86c0.32-2.15-0.83-5.41-0.87-5.54
		c0.06-0.28,0.1-0.58,0.09-0.88c0.37-0.13,0.48-0.41,0.5-0.5c0-0.01,0.01-0.02,0.01-0.02l0,0c0,0,0-0.01,0-0.01
		s-0.38-0.46-0.61-0.68c0.12,0.03,0.23,0.04,0.29,0.04c0.02,0,0.03,0,0.03,0c0.25,0,0.45-0.18,0.45-0.39c0-0.21-0.2-0.39-0.44-0.39
		h0c-0.02,0-0.22-0.02-0.45,0.06l0.43-0.53l-0.81-1.48l0,0h0l-0.81,1.48l0.43,0.53c-0.22-0.07-0.43-0.05-0.43-0.05
		c-0.14,0-0.26,0.05-0.35,0.13c-0.07,0.07-0.11,0.16-0.11,0.25c0,0.1,0.04,0.19,0.11,0.25c0.09,0.09,0.21,0.14,0.33,0.14
		c0,0,0.01,0,0.04,0c0.04,0,0.13-0.01,0.23-0.03c-0.13,0.13-0.31,0.32-0.43,0.46c-0.05,0.04-0.09,0.09-0.12,0.13
		c-0.02,0.02-0.03,0.04-0.03,0.04s0.01,0.03,0.02,0.06c0,0.01,0,0.03,0.01,0.04c0.07,0.14,0.16,0.23,0.24,0.29
		c-0.61,1.13-2.1,4.4-1.23,7.8l-4.58,7.67l-8.02-8.83c0.35-0.04,0.63-0.3,0.64-0.31c0.1-0.09,0.15-0.21,0.16-0.33
		c0-0.1-0.03-0.19-0.09-0.26c-0.06-0.07-0.15-0.11-0.25-0.12c-0.12,0-0.24,0.05-0.34,0.13c0,0.01-0.18,0.14-0.29,0.34l-0.03-0.68
		l-1.6-0.55l0.39,1.64l0.69,0.1c-0.22,0.1-0.36,0.24-0.36,0.25c-0.1,0.09-0.16,0.21-0.16,0.33c0,0.1,0.03,0.19,0.09,0.26
		c0.06,0.07,0.15,0.11,0.25,0.11l0.02,0.01c0.06,0,0.13-0.02,0.19-0.05l-0.22,0.57c0,0-0.16,0.26,0.42,0.48
		c-0.16,1.18-0.85,6.61-0.47,12.27l-4.76-3.35c0.33-0.11,0.54-0.44,0.55-0.45c0.07-0.1,0.1-0.21,0.09-0.32
		c-0.01-0.09-0.05-0.17-0.11-0.23c0.25-0.3,0.41-0.89,0.51-1.46c0,0-0.98,0.23-1.27,0.28l0,0c0.03-0.2-0.07-0.71-0.14-1
		c0.21-0.38,0.42-0.75,0.64-1.13c0.12,0.04,0.31-0.02,0.52-0.12c0.51-0.01,1.23-0.06,1.46-0.29c0.23-0.23,0.63-0.53,0.86-0.65
		c0.24-0.1,0.63-0.63,0.7-0.87c0.05-0.23,0.47-0.68,0.64-0.68c0,0-0.64-0.07-1.33,0.12c-0.05,0.01-0.11,0.02-0.16,0.04
		c0.34-0.63,0.26-1.78,0.11-1.68c-0.08,0.05-0.26,0.16-0.45,0.26c0.22-0.35,0.38-0.59,0.43-0.67c0.06,0.04,0.13,0.07,0.2,0.07
		c0.22,0,0.38-0.17,0.38-0.38c0-0.21-0.17-0.39-0.38-0.39c-0.22,0-0.38,0.17-0.38,0.39c0,0.14,0.06,0.25,0.17,0.32
		c-0.18,0.23-0.38,0.48-0.58,0.76c-0.16,0.09-0.3,0.16-0.38,0.19c-0.08,0.02-0.19,0.06-0.29,0.12c-0.11-0.42-0.22-0.93-0.22-0.93
		s-0.41,0.4-0.7,0.7c-0.3,0.28-0.35,0.52-0.47,0.87c-0.12,0.35-0.35,0.58-0.46,0.86c-0.12,0.29,0,0.87,0.07,1.22
		c0.03,0.26,0.06,0.49,0.07,0.61c-0.23,0.38-0.45,0.77-0.67,1.15c-0.37,0.18-1.04,0.69-1.47,1.12c-0.16-0.38-0.6-1.37-0.6-1.37
		c0.07,0.35-0.81,1.56-0.86,1.85c-0.07,0.3-0.17,0.64-0.17,1.1c0,0.47,0.05,0.87,0.4,1.16c0.24,0.19,0.33,0.78,0.42,1.05
		c-0.19,0.84-0.37,1.78-0.5,2.81c-0.02-0.09-0.04-0.22-0.09-0.39c-0.13-0.48-0.5-0.63-0.53-0.88c-0.05-0.23-0.35-0.28-0.65-0.88
		c-0.18-0.32-0.52-0.83-0.52-0.83s-0.38,0.82-0.63,1.43c-0.06,0.16-0.08,0.33-0.08,0.5c-0.08-0.06-0.15-0.13-0.2-0.21
		c-0.18-0.28-0.73-0.56-0.73-0.56c-0.12,0.2-0.17,1.45-0.2,1.78c-0.05,0.33,0.18,1.08,0.28,1.29c0.12,0.2,0.25,0.54,0.5,1.01
		c0.26,0.48,2.04,1.09,2.18,1.34c0,0,0.23,0.25,0.41,0.38c-0.01,0.16-0.01,0.31-0.01,0.48c0,0.93,0.17,2.01,0.38,3.07
		c-0.06-0.09-0.11-0.17-0.15-0.24c-0.12-0.23-0.12-0.18-0.29-0.86c-0.18-0.7-0.65-0.7-0.76-0.93c-0.12-0.23-0.75-0.46-1.1-0.63
		c-0.34-0.17-0.57-0.87-0.57-0.87s0,1.14-0.06,1.85c-0.02,0.3,0.05,0.54,0.14,0.73c-0.2-0.05-0.4-0.11-0.54-0.22
		c-0.28-0.23-0.93-0.35-0.93-0.35c-0.05,0.23,0.3,1.51,0.35,1.84c0.06,0.35,0.51,1.05,0.7,1.22c0.17,0.18,0.4,0.46,0.8,0.86
		c0.42,0.42,1.46,0.5,2.62,0.88c0.44,0.15,0.69,0.42,0.81,0.61c0.04,0.15,0.08,0.27,0.1,0.37c0.13,0.51,0.3,1.12,0.5,1.79
		c-0.33-0.44-0.88-0.54-1.53-0.64c-0.4-0.06-1.97-0.46-1.97-0.46c0.37,0.27,0.6,1.04,0.83,1.73c-0.9-0.18-1.82,0-1.82,0
		c0.17,0.12,1.38,1.17,1.55,1.75c0.18,0.56,0.82,1.62,0.98,1.73c0.19,0.12,0.7,0.75,1.05,1.09c0.35,0.35,1.73,0.17,2.2,0.17
		c0.29,0,0.77,0.24,1.06,0.34c0.29,0.4,0.8,0.93,1.47,1.53c-0.38-0.13-1.05-0.56-1.27-0.84c-0.23-0.31,0.03,1.03,0.29,1.46
		c-0.38-0.04-0.78-0.12-1.01-0.29c-0.39-0.3-0.05,1.05,0.36,1.43c0.9,0.8,0.81,0.93,0.96,0.98c-0.75,0.15-1.8,0.41-2.12,0.22
		c-0.42-0.24,0.46,0.58,1,0.78c0.77,0.28,0.66,0.78,1.5,1.05c0.88,0.28,1.81,0.63,2.33,0.53c0.4-0.09,0.7-0.27,1.26-0.32
		c0.51-0.06,1.36-0.73,2.34-0.86c0.94,0.58,1.9,1.11,2.83,1.56c0.04,0.02,0.09,0.04,0.15,0.07c-0.1,0.01-0.21,0.02-0.33,0.04
		c-0.35,0.09-1.78,0.4-2.13,0.24c-0.32-0.16,0.36,0.77,0.79,1.12c-0.68,0.13-1.63,0.23-1.96,0.14c-0.46-0.09,0.94,1.25,1.49,1.4
		c0.02,0.01,0.04,0.01,0.06,0.02c-0.45,0.15-0.86,0.25-1.06,0.24c-0.48-0.03,1.53,1.28,2.08,1.2c1.76-0.25,3.43,0.35,4.24,0.02
		c0.73-0.28,1.17-0.48,1.53-0.6c0.37-0.14,0.57-0.46,0.8-0.64c0.18-0.13,0.31-0.42,0.91-0.71c0.01,0.03,0.03,0.05,0.03,0.05
		s1.11,0.06,1.86,0c-0.21,0.08-0.47,0.22-0.76,0.46c-0.91,0.28-1.64,0.53-1.87,0.64c-0.7,0.35-2.48,1.92-2.95,2.43
		c0,0,1.5-0.12,1.73-0.12c0.24,0,0.76-1.03,0.99-1.21c0.06-0.05,0.44-0.24,1-0.5c-1.02,1.64,0.47,3,0.47,3
		c-0.4-0.47,0.05-1.28,0.05-1.28l0.82,0.52c-1.03-1.75,0.56-2.93,1.09-3.25c0.06-0.02,0.11-0.04,0.16-0.06
		c0.17,0.22,0.39,0.36,0.65,0.36c0.24,0,0.46-0.13,0.62-0.33c0.11,0.04,0.21,0.08,0.31,0.12c0.61,0.41,1.91,1.54,0.96,3.17
		l0.82-0.52c0,0,0.45,0.81,0.05,1.28c0,0,1.46-1.32,0.5-2.94c0.49,0.23,0.82,0.4,0.88,0.45c0.23,0.18,0.75,1.21,0.98,1.21
		c0.23,0,1.73,0.12,1.73,0.12c-0.47-0.51-2.25-2.08-2.95-2.43c-0.22-0.11-0.89-0.34-1.74-0.6c-0.31-0.26-0.59-0.41-0.81-0.5
		c0.75,0.06,1.86,0,1.86,0s0.01,0,0.01-0.02c0.54,0.28,0.67,0.55,0.84,0.68c0.23,0.17,0.43,0.5,0.8,0.64
		c0.37,0.12,0.8,0.32,1.53,0.6c0.81,0.33,2.48-0.26,4.25-0.02c0.55,0.08,2.56-1.23,2.08-1.2c-0.2,0.01-0.61-0.09-1.06-0.24
		c0.02-0.01,0.04-0.01,0.07-0.02c0.55-0.15,1.95-1.5,1.49-1.4c-0.33,0.09-1.27-0.01-1.96-0.14c0.43-0.35,1.11-1.28,0.79-1.12
		c-0.35,0.17-1.78-0.15-2.13-0.24c-0.13-0.02-0.23-0.03-0.33-0.04c0.05-0.03,0.11-0.05,0.14-0.07c0.93-0.45,1.89-0.98,2.83-1.56
		c0.97,0.13,1.83,0.8,2.34,0.86c0.57,0.05,0.86,0.23,1.26,0.32c0.52,0.1,1.45-0.25,2.33-0.53c0.83-0.27,0.74-0.77,1.5-1.05
		c0.53-0.2,1.41-1.02,1-0.78c-0.32,0.19-1.37-0.07-2.12-0.22c0.15-0.05,0.06-0.18,0.96-0.98c0.41-0.38,0.75-1.73,0.36-1.43
		c-0.22,0.17-0.63,0.25-1.01,0.29c0.26-0.43,0.52-1.77,0.29-1.46c-0.22,0.28-0.89,0.71-1.28,0.84c0.66-0.6,1.18-1.13,1.47-1.53
		c0.3-0.11,0.76-0.34,1.06-0.34c0.47,0,1.85,0.18,2.2-0.17c0.35-0.35,0.87-0.98,1.05-1.09c0.17-0.12,0.8-1.17,0.98-1.73
		c0.17-0.58,1.38-1.63,1.55-1.75c0,0-0.92-0.18-1.82,0c0.23-0.69,0.46-1.45,0.83-1.73c0,0-1.57,0.4-1.97,0.46
		c-0.65,0.1-1.21,0.2-1.53,0.64c0.2-0.66,0.37-1.28,0.5-1.79c0.02-0.1,0.06-0.22,0.1-0.37c0.13-0.19,0.37-0.47,0.81-0.61
		c1.15-0.38,2.2-0.46,2.61-0.88c0.4-0.4,0.63-0.68,0.8-0.86c0.18-0.17,0.63-0.87,0.7-1.22C354.89,66.64,355.24,65.36,355.19,65.13
		 M351.03,64.02c-0.02,0.47-0.14,1.31-0.36,2.36c-0.02-0.35-0.14-0.7-0.26-0.94c-0.16-0.35-0.4-0.35-0.52-0.7
		c-0.12-0.35-0.52-0.47-0.75-0.75c-0.23-0.28-0.7-0.63-0.7-0.63c-0.17,0.4-0.22,1.96-0.12,2.2c0.04,0.07,0.06,0.2,0.09,0.34
		c-0.17-0.06-0.33-0.12-0.33-0.12c-0.3,0.69,0.05,1.38,0.17,2.02c0.03,0.2,0.28,0.58,0.4,0.82c0.12,0.23,0.07,0.44,0.18,0.63
		c0.11,0.16,0.36,0.18,0.62,0.42c0.04,0.43,0.07,0.8,0.14,0.91c-0.22,0.75-0.47,1.5-0.73,2.26c-0.01-0.24-0.09-0.52-0.27-0.8
		c-0.3-0.46-0.35-0.43-0.52-0.93c-0.23-0.63-0.7-0.63-0.77-1.26c0,0-0.16,0.75-0.22,1.38c-0.07,0.64,0.05,0.87,0.1,1.21
		c0.05,0.23-0.04,0.48-0.1,0.78c-0.02-0.34-0.09-0.81-0.23-1.01c-0.18-0.24-0.12-0.7-0.12-0.7c-0.12,0.22-0.64,0.96-0.89,1.17
		l-0.22-0.36c3.03-5.31,2.33-14.4,2.21-15.65c0.49-0.1,0.4-0.35,0.4-0.35l-0.09-0.59c0.04,0.03,0.1,0.06,0.15,0.08
		c0.03,0.01,0.07,0.01,0.1,0.01c0.07,0,0.14-0.02,0.2-0.07c0.08-0.06,0.14-0.16,0.15-0.27c0-0.01,0-0.01,0-0.02
		c0.22,0.23,0.44,0.45,0.62,0.5c0.41,0.12,0.76,0.3,0.81,0.46V56.4c0.26,1.08,0.45,2.21,0.59,3.31c0,0,0,0,0,0
		c-0.47-0.52-0.59-1.5-1.62-2.04c0,0,0.05,0.42,0,0.7c-0.04,0.18-0.1,0.57-0.1,0.91c-0.36-0.27-0.74-0.62-0.79-0.78
		c0,0-0.16,1.43,0.23,2.2c0.42,0.74,0.42,1.14,0.86,1.31c0.47,0.18,0.53,0.3,0.7,0.41c0.18,0.12,0.47,0.28,0.7,0.28
		c0.05,0,0.11,0.03,0.15,0.09c0.03,0.12,0.06,0.24,0.09,0.35C351.03,63.47,351.03,63.76,351.03,64.02 M310.66,57.76l3.08,2.17
		c-0.02,0.51-0.02,2.03,0.44,3.41l-2.56,4.28C311.2,66.69,310.12,63.7,310.66,57.76 M305.91,55.24c0,0,0.2-0.36,0.53-0.4
		c0.06,0.31-0.2,0.64-0.2,0.64c-0.04,0.06-0.1,0.11-0.16,0.12c-0.06,0.02-0.12,0.01-0.16-0.02c-0.04-0.03-0.07-0.08-0.07-0.14
		C305.84,55.38,305.86,55.31,305.91,55.24 M316.02,48.12l2.44,2.7c-0.05,0.75-0.15,3.07,0.49,4.53l-2.23,3.73
		C316.19,57.99,315.09,54.8,316.02,48.12 M325.58,46.37c1.08-0.19,2.2-0.19,3.28-0.01l0.35,0.58c-1.31-0.29-2.67-0.28-3.98,0.02
		L325.58,46.37z M325.86,45.91l1.36-2.28l1.36,2.27C327.67,45.77,326.76,45.78,325.86,45.91 M324.92,47.47
		c1.49-0.42,3.1-0.43,4.59-0.02l0.38,0.62c-0.85-0.29-1.73-0.44-2.64-0.44c-0.94,0-1.85,0.16-2.71,0.46L324.92,47.47z M324.18,48.72
		c1.92-0.84,4.14-0.85,6.07-0.03l9.42,15.74h-3.45c-0.16-0.1-0.31-0.2-0.46-0.32c-0.05-0.05-0.1-0.09-0.16-0.12
		c-0.24-0.15-0.49-0.2-0.77-0.15c-0.14,0.03-0.27,0.09-0.4,0.15c-0.13,0.07-0.25,0.15-0.36,0.23c-0.01,0.01-0.02,0.02-0.04,0.03
		c-0.06-0.02-0.12-0.04-0.18-0.07c-0.31-0.14-0.58-0.33-0.85-0.55c-0.08-0.07-0.17-0.13-0.27-0.18c-0.16-0.08-0.33-0.12-0.52-0.12
		c-0.12,0-0.25,0.02-0.37,0.06c-0.17,0.05-0.33,0.13-0.48,0.22c-0.1,0.07-0.2,0.14-0.29,0.21c-0.01,0.01-0.02,0.03-0.04,0.03
		c-0.01,0-0.01-0.01-0.02-0.02c-0.18-0.11-0.36-0.21-0.56-0.28c-0.17-0.06-0.34-0.15-0.5-0.25c-0.23-0.13-0.45-0.29-0.64-0.46
		c-0.07-0.06-0.15-0.11-0.23-0.16c-0.17-0.1-0.35-0.16-0.55-0.18c-0.13-0.01-0.26,0-0.4,0.03c-0.18,0.04-0.34,0.1-0.5,0.19
		c-0.09,0.05-0.16,0.11-0.25,0.16v-5.45c0.58-0.04,1.02-0.24,1.02-0.48c0-0.24-0.42-1.88-0.97-2.28c-0.02-0.02-0.51-0.39-1.14-0.03
		c0,0-0.72,0.41-0.35,1c0,0,0.07,0.18,0.39,0.05c0.06-0.03,0.2-0.1,0.26-0.32l-0.01,0.14c-0.01,0.2-0.28,0.32-0.29,0.32
		c-0.18,0.5-0.29,0.99-0.29,1.12c0,0.24,0.44,0.44,1.03,0.48v5.53c-0.02-0.01-0.03-0.02-0.05-0.03c-0.24-0.14-0.47-0.31-0.69-0.48
		c-0.07-0.07-0.16-0.13-0.26-0.17c-0.16-0.1-0.35-0.16-0.55-0.19c-0.16-0.02-0.31,0-0.46,0.03c-0.19,0.04-0.36,0.11-0.53,0.2
		c-0.18,0.09-0.34,0.2-0.5,0.32c-0.01,0.01-0.02,0.02-0.04,0.02c-0.01-0.01-0.03-0.02-0.04-0.02c-0.07-0.04-0.14-0.09-0.21-0.12
		c-0.1-0.06-0.21-0.11-0.32-0.15c-0.14-0.05-0.28-0.11-0.41-0.19c-0.39-0.2-0.74-0.44-1.08-0.73c-0.03-0.02-0.06-0.05-0.1-0.07
		c-0.26-0.2-0.55-0.33-0.88-0.36c-0.01,0-0.02,0-0.02,0h-0.19c-0.02,0-0.03,0-0.05,0c-0.21,0.02-0.41,0.08-0.61,0.15
		c-0.22,0.09-0.44,0.21-0.63,0.35c-0.23,0.16-0.44,0.34-0.64,0.53c-0.26,0.25-0.49,0.51-0.71,0.79c-0.22,0.27-0.42,0.55-0.61,0.84
		c0,0.02-0.01,0.03-0.03,0.04c-0.13,0.17-0.28,0.33-0.43,0.48c-0.09,0.09-0.2,0.18-0.29,0.27h-1.92L324.18,48.72z M337.72,59.07
		l-2.24-3.73c0.64-1.46,0.54-3.78,0.49-4.53l2.45-2.7C339.35,54.79,338.25,57.99,337.72,59.07 M348,54.84
		c0.32,0.04,0.53,0.4,0.54,0.41c0.04,0.06,0.06,0.13,0.05,0.2c-0.01,0.06-0.03,0.1-0.07,0.14c-0.04,0.03-0.1,0.04-0.15,0.02
		c-0.07-0.02-0.12-0.06-0.17-0.12C348.2,55.48,347.94,55.15,348,54.84 M342.82,67.6l-2.56-4.27c0.46-1.38,0.46-2.9,0.44-3.4
		l3.08-2.17C344.32,63.69,343.25,66.68,342.82,67.6 M309.8,72.76l2.4-4.01h29.16c-0.01,0-0.02-0.01-0.03-0.02
		c-0.05-0.03-0.1-0.05-0.15-0.08c-0.18-0.1-0.34-0.23-0.5-0.35c-0.29-0.22-0.56-0.46-0.83-0.71c-0.39-0.36-0.75-0.73-1.12-1.11
		c-0.24-0.25-0.47-0.5-0.7-0.76c-0.1-0.12-0.2-0.22-0.31-0.33c-0.2-0.19-0.41-0.36-0.64-0.51c-0.1-0.06-0.2-0.12-0.31-0.17h3.07
		l4.83,8.06H309.8z M314.62,64.7h1.78c-0.35,0.3-0.7,0.58-1.08,0.84c-0.03,0.02-0.07,0.04-0.1,0.07c-0.2,0.12-0.39,0.25-0.58,0.39
		c-0.31,0.23-0.6,0.48-0.88,0.73c-0.28,0.25-0.56,0.52-0.83,0.78L314.62,64.7z M327.15,63.61c0.07,0.03,0.14,0.06,0.2,0.09
		c0.07,0.03,0.16,0.06,0.23,0.11c0.21,0.11,0.41,0.24,0.59,0.39c0.31,0.24,0.59,0.51,0.85,0.8c0.39,0.44,0.8,0.88,1.21,1.3
		c0.17,0.18,0.34,0.35,0.51,0.52c0.44,0.44,0.89,0.86,1.36,1.26c0.03,0.03,0.06,0.05,0.09,0.08c0.01,0.01,0.01,0.01,0.02,0.02
		c0,0,0,0.01-0.01,0.01c0,0-0.02,0-0.04,0h-2.22c0,0-0.01-0.01-0.01,0c-0.03,0-0.05-0.01-0.07-0.03c-0.05-0.04-0.1-0.07-0.16-0.11
		c-0.32-0.25-0.62-0.51-0.92-0.78c-0.34-0.31-0.68-0.63-1.01-0.95c-0.72-0.7-1.41-1.43-2.09-2.18c-0.12-0.13-0.23-0.26-0.35-0.39
		c-0.26-0.28-0.54-0.54-0.84-0.77c-0.01-0.01-0.02-0.02-0.03-0.03c0-0.01,0.01-0.01,0.01-0.02c0.15-0.1,0.3-0.19,0.47-0.26
		c0.09-0.03,0.19-0.06,0.29-0.07c0.18-0.03,0.35,0,0.5,0.09c0.08,0.04,0.15,0.09,0.22,0.15c0.17,0.14,0.35,0.28,0.54,0.4
		C326.7,63.37,326.92,63.5,327.15,63.61 M336.34,65.12c0.03,0.01,0.07,0.03,0.11,0.05c0.09,0.03,0.17,0.07,0.25,0.12
		c0.22,0.13,0.41,0.29,0.6,0.46c0.12,0.1,0.23,0.21,0.34,0.34c0.21,0.24,0.43,0.48,0.65,0.71c0.2,0.21,0.41,0.42,0.61,0.62
		c0.25,0.25,0.5,0.49,0.76,0.73c0.01,0.01,0.03,0.02,0.03,0.03c-0.01,0.01-0.01,0.01-0.01,0.01c-0.02,0.01-0.03,0.01-0.04,0.01
		c-0.41,0-0.82,0-1.23,0v-0.01c-0.03,0.01-0.06-0.01-0.08-0.03c-0.24-0.19-0.47-0.39-0.7-0.61c-0.22-0.2-0.44-0.41-0.65-0.62
		c-0.47-0.47-0.93-0.95-1.38-1.44c-0.09-0.1-0.19-0.21-0.28-0.31c-0.22-0.23-0.45-0.44-0.72-0.62c-0.01-0.01-0.02-0.02-0.03-0.03
		c0.01,0,0.01-0.01,0.01-0.01c0.12-0.07,0.22-0.12,0.36-0.15c0.12-0.02,0.24-0.01,0.35,0.06c0.04,0.03,0.08,0.06,0.12,0.09
		C335.69,64.76,336,64.97,336.34,65.12 M334.62,65.29c0.17,0.15,0.34,0.31,0.49,0.48c0.33,0.37,0.67,0.73,1.01,1.08
		c0.31,0.32,0.62,0.63,0.95,0.93c0.13,0.12,0.26,0.24,0.39,0.36c0.01,0.01,0.01,0.02,0.03,0.03c-0.01,0.01-0.02,0.01-0.02,0.01
		c-0.01,0.01-0.03,0.01-0.04,0.01c-0.58,0-1.16,0-1.74,0c0,0-0.01-0.01-0.02,0c-0.03,0-0.04-0.01-0.06-0.02
		c-0.12-0.1-0.24-0.19-0.36-0.29c-0.33-0.29-0.66-0.58-0.97-0.89c-0.18-0.18-0.37-0.36-0.55-0.54c-0.47-0.47-0.93-0.96-1.38-1.45
		c-0.1-0.11-0.19-0.22-0.29-0.32c-0.17-0.17-0.34-0.34-0.52-0.49c-0.01-0.01-0.02-0.02-0.03-0.02c0,0,0,0,0-0.01
		c0,0,0.01-0.01,0.01-0.01c0.12-0.09,0.24-0.16,0.38-0.22c0.09-0.03,0.18-0.05,0.27-0.06c0.1-0.01,0.2,0.01,0.29,0.06
		c0.06,0.03,0.12,0.08,0.16,0.11c0.28,0.23,0.58,0.43,0.9,0.59c0.09,0.05,0.18,0.09,0.27,0.12c0.09,0.04,0.17,0.08,0.25,0.13
		C334.26,65,334.45,65.14,334.62,65.29 M331.85,65.27c0.26,0.29,0.52,0.57,0.78,0.85c0.24,0.25,0.48,0.5,0.73,0.75
		c0.42,0.41,0.84,0.83,1.28,1.22c0.03,0.03,0.06,0.06,0.1,0.09c0.01,0.01,0.01,0.01,0.01,0.02c-0.01,0.01-0.01,0.01-0.01,0.01
		c-0.01,0.01-0.03,0.01-0.04,0.01c-0.51,0-1.04,0-1.55,0c0,0-0.01-0.01-0.01,0c-0.03,0-0.05-0.01-0.07-0.03
		c-0.12-0.09-0.23-0.19-0.35-0.28c-0.38-0.32-0.75-0.65-1.11-1c-0.19-0.19-0.39-0.37-0.58-0.57c-0.51-0.51-1-1.03-1.49-1.56
		c-0.11-0.12-0.22-0.25-0.33-0.36c-0.29-0.3-0.6-0.57-0.94-0.81c-0.16-0.11-0.33-0.21-0.51-0.3c-0.01-0.01-0.01-0.01-0.03-0.02
		c0.01,0,0.01-0.01,0.01-0.01c0.15-0.09,0.31-0.16,0.47-0.21c0.09-0.02,0.17-0.03,0.26-0.02c0.11,0.01,0.2,0.04,0.29,0.09
		c0.07,0.04,0.14,0.09,0.2,0.13c0.35,0.29,0.72,0.54,1.13,0.73c0.05,0.03,0.11,0.05,0.18,0.07c0.1,0.04,0.2,0.09,0.29,0.14
		c0.22,0.12,0.41,0.27,0.61,0.43C331.43,64.82,331.65,65.04,331.85,65.27 M324.74,63.94c0.16,0.15,0.31,0.32,0.45,0.48
		c0.16,0.18,0.33,0.36,0.49,0.54c0.3,0.32,0.61,0.63,0.92,0.95c0.54,0.56,1.11,1.11,1.68,1.64c0.22,0.21,0.45,0.41,0.68,0.6
		c0.01,0.01,0.02,0.02,0.04,0.03c-0.01,0-0.02,0-0.02,0c-5.31,0-10.61,0-15.92,0c0-0.01,0-0.02,0.01-0.03
		c0.07-0.07,0.15-0.14,0.22-0.22c0.24-0.24,0.48-0.47,0.73-0.69c0.3-0.27,0.6-0.54,0.93-0.78c0.19-0.15,0.39-0.29,0.6-0.41
		c0.06-0.03,0.11-0.07,0.17-0.12c0.5-0.35,0.99-0.73,1.43-1.16c0.26-0.24,0.5-0.5,0.72-0.77c0.01-0.02,0.03-0.04,0.04-0.06
		c0.18-0.3,0.39-0.58,0.62-0.86c0.18-0.22,0.37-0.43,0.56-0.63c0.21-0.21,0.43-0.4,0.68-0.57c0.16-0.11,0.33-0.2,0.5-0.27
		c0.12-0.05,0.24-0.08,0.37-0.1c0.23-0.03,0.45,0.02,0.64,0.12c0.09,0.05,0.17,0.11,0.25,0.17c0.18,0.15,0.36,0.29,0.55,0.42
		c0.23,0.16,0.46,0.29,0.71,0.41c0.12,0.07,0.25,0.12,0.39,0.18c0.09,0.03,0.18,0.07,0.26,0.12c0.22,0.12,0.43,0.26,0.64,0.42
		C324.31,63.54,324.53,63.74,324.74,63.94 M321.15,73.8c0.88,0.66,1.79,1.04,2.56,1.24c-0.62,0.19-4.63,1.24-8.06-1.24H321.15z
		 M326.61,77.06c0,0,0.38-1.99,0.6-3.25h0c0.22,1.26,0.6,3.25,0.6,3.25c0.24,0.98-0.6,1.85-0.61,1.86
		C327.21,78.91,326.38,78.04,326.61,77.06 M333.29,73.8h5.49c-3.43,2.49-7.44,1.43-8.05,1.24C331.5,74.84,332.41,74.47,333.29,73.8
		 M347.26,54.15c-0.05-0.07-0.07-0.15-0.06-0.22c0.01-0.03,0.03-0.07,0.06-0.1c0.02,0.01,0.03,0.03,0.05,0.04
		c0.21,0.12,0.35,0.3,0.49,0.48c0.01,0.07,0.01,0.14,0,0.21C347.49,54.51,347.26,54.15,347.26,54.15 M342.95,44.54
		c-0.07,0.08-0.23,0.07-0.34-0.02c0,0-0.29-0.25-0.33-0.55c0.01-0.01,0.02-0.02,0.02-0.03c0.32-0.01,0.58,0.27,0.59,0.28
		C343,44.31,343.03,44.46,342.95,44.54 M342.49,42.96l0.61-0.21l-0.15,0.63l-0.48,0.07h0L342.49,42.96z M341.34,43.08
		c0.03-0.04,0.08-0.05,0.13-0.05c0.07,0,0.14,0.03,0.21,0.09c0,0,0.29,0.23,0.32,0.54c-0.04-0.01-0.08,0.01-0.1,0.03
		c-0.27-0.04-0.5-0.26-0.5-0.26C341.29,43.32,341.27,43.17,341.34,43.08 M327.98,35.64c0.05,0,0.06,0,0.06,0
		c0.15,0,0.26,0.09,0.27,0.2c0,0.11-0.12,0.21-0.27,0.21c0,0-0.42,0.02-0.64-0.21C327.57,35.66,327.85,35.64,327.98,35.64
		 M327.22,34.41L327.22,34.41l0.32,0.58l-0.32,0.38l0,0l-0.31-0.38L327.22,34.41z M326.4,36.05L326.4,36.05
		c-0.08,0-0.16-0.03-0.21-0.08c-0.03-0.03-0.06-0.07-0.06-0.13c0-0.06,0.03-0.1,0.05-0.12c0.05-0.05,0.13-0.08,0.22-0.08
		c0,0,0.41-0.04,0.64,0.2C326.83,36.07,326.41,36.05,326.4,36.05 M327.08,39.86c0,0,0.44-0.7,0.64-1.55
		c0.29,1.88-0.07,3.29-0.21,3.71l-0.3-0.49l-0.97,1.62C326.2,42.54,326.22,41.25,327.08,39.86 M312.77,43.11
		c0.06-0.05,0.13-0.09,0.2-0.08c0.04,0,0.09,0.01,0.13,0.05c0.04,0.04,0.04,0.09,0.04,0.13c-0.01,0.07-0.04,0.15-0.11,0.21
		c0,0-0.28,0.27-0.58,0.27c0,0-0.02,0-0.04,0C312.43,43.36,312.75,43.11,312.77,43.11 M311.34,42.76L311.34,42.76l0.62,0.21
		l0.02,0.5l-0.49-0.07L311.34,42.76z M311.62,44.6c-0.03-0.01-0.08-0.01-0.12-0.06c-0.04-0.04-0.05-0.09-0.04-0.13
		c0-0.07,0.04-0.14,0.11-0.2c0,0,0.26-0.28,0.56-0.28c0.01,0,0.03,0,0.04,0c-0.01,0.32-0.33,0.58-0.33,0.59
		C311.77,44.57,311.69,44.61,311.62,44.6 M307.18,54.15c0,0-0.23,0.35-0.54,0.4c-0.01-0.06-0.01-0.13,0-0.19
		c0.14-0.18,0.28-0.37,0.5-0.5c0.02-0.01,0.03-0.02,0.04-0.03c0.03,0.03,0.05,0.07,0.06,0.12
		C307.24,54.02,307.23,54.09,307.18,54.15 M303.42,63.16c0.04-0.12,0.07-0.24,0.09-0.35c0.05-0.05,0.1-0.09,0.16-0.09
		c0.23,0,0.52-0.17,0.7-0.28c0.17-0.12,0.23-0.23,0.7-0.41c0.45-0.17,0.45-0.57,0.86-1.31c0.4-0.77,0.23-2.2,0.23-2.2
		c-0.05,0.16-0.43,0.51-0.79,0.78c0.01-0.34-0.05-0.73-0.1-0.91c-0.05-0.28,0-0.7,0-0.7c-1.03,0.54-1.15,1.52-1.62,2.03
		c0,0,0,0-0.01,0.01c0.13-1.1,0.33-2.23,0.59-3.31v0.01c0.05-0.16,0.4-0.35,0.81-0.46c0.18-0.05,0.4-0.25,0.61-0.49c0,0,0,0,0,0.01
		c0.01,0.11,0.06,0.21,0.15,0.27c0.06,0.05,0.12,0.07,0.2,0.07c0.04,0,0.07,0,0.11-0.01c0.05-0.02,0.11-0.05,0.15-0.08l-0.1,0.59
		c0,0-0.08,0.25,0.41,0.35c-0.11,1.25-0.82,10.35,2.22,15.66l-0.21,0.35c-0.25-0.22-0.78-0.95-0.89-1.17c0,0,0.07,0.46-0.11,0.7
		c-0.15,0.2-0.21,0.67-0.23,1.01c-0.07-0.3-0.15-0.55-0.11-0.78c0.05-0.35,0.17-0.58,0.1-1.21c-0.05-0.63-0.21-1.38-0.21-1.38
		c-0.07,0.63-0.54,0.63-0.77,1.26c-0.17,0.5-0.22,0.47-0.52,0.93c-0.18,0.28-0.26,0.56-0.28,0.8c-0.26-0.75-0.51-1.51-0.73-2.26
		c0.06-0.11,0.11-0.47,0.14-0.91c0.26-0.24,0.52-0.26,0.62-0.42c0.12-0.19,0.07-0.4,0.18-0.63c0.12-0.24,0.37-0.62,0.41-0.82
		c0.11-0.63,0.46-1.33,0.17-2.02c0,0-0.15,0.05-0.32,0.12c0.03-0.15,0.04-0.27,0.08-0.34c0.1-0.23,0.05-1.79-0.12-2.2
		c0,0-0.47,0.35-0.7,0.63c-0.23,0.28-0.64,0.4-0.75,0.75c-0.12,0.35-0.35,0.35-0.52,0.7c-0.13,0.24-0.24,0.59-0.27,0.94
		c-0.21-1.05-0.34-1.89-0.35-2.36C303.41,63.76,303.41,63.47,303.42,63.16 M329.56,87.15c-0.77,0.01-1.3,0.28-1.49,0.38
		c-0.01-0.01-0.02-0.03-0.02-0.04c0.24-0.4,1.31-2.15,2.02-2.96C330.19,84.76,330.59,85.93,329.56,87.15 M326.46,87.52
		c-0.18-0.1-0.73-0.37-1.49-0.38c-1.02-1.22-0.62-2.38-0.52-2.63c0.71,0.81,1.78,2.56,2.03,2.96
		C326.47,87.49,326.47,87.51,326.46,87.52 M344.29,80.22c0.04-0.07,0.07-0.12,0.07-0.17c0.05-0.27,0.3-0.82,0.24-1.1
		c-0.05-0.28-0.17-0.98-0.35-1.38c-0.17-0.42-0.57-1.38-0.98-1.57c0,0-0.33,1.1-0.45,1.5c-0.12,0.42-0.23,0.89-0.41,1.1
		c-0.05,0.07-0.15,0.24-0.26,0.44c-0.03-0.16-0.02-0.16,0.02-0.77c0.07-0.76-1.15-1.96-1.15-1.96c0.12,0.33-0.35,1.67-0.58,1.96
		c-0.24,0.29-0.59,1.15-0.64,1.66c-0.05,0.54-0.28,0.87-0.47,1.1c-0.35,0.47,0.04,2.44,0.09,2.67c-0.77,0.48-1.59,0.95-2.34,1.33
		c-0.23,0.11-0.48,0.23-0.75,0.34c0.05-0.05,0.1-0.09,0.15-0.14c1.07-1.13,1.01-1.51,1.15-1.78c0.36-0.06-0.48-0.15-0.98-0.11
		c0.29-0.43,0.69-1.03,0.96-1.54c0.22-0.42-1.86,0.13-1.86,0.13c-0.23,0.09-0.41,0.16-0.55,0.21c0.17-0.62,0.35-1.31,0.33-1.46
		c-0.01-0.17-0.88,0.11-1.58,0.42c-0.6,0.25-0.95,0.73-1.46,1.04c-0.62,0.41-0.7,1.4-0.98,1.87c-0.19,0.32-0.29,0.57-0.36,0.78
		c-0.06-0.47-0.24-0.68-0.41-0.78v0c-0.01-0.01-0.02-0.01-0.02-0.01c-0.01,0-0.02-0.01-0.04-0.01c-0.03-0.02-0.07-0.02-0.12-0.03
		c-0.13-0.03-0.35-0.07-0.69-0.1c-0.47-0.05-1.22,0-1.57,0.65c-0.33,0.6-0.63,2.1-0.76,2.44c-0.09-0.03-0.18-0.06-0.27-0.06
		c-0.1,0-0.19,0.02-0.27,0.06c-0.13-0.35-0.43-1.84-0.76-2.44c-0.36-0.65-1.1-0.7-1.57-0.65c-0.34,0.03-0.56,0.07-0.69,0.1
		c-0.04,0-0.07,0.01-0.11,0.03c-0.02,0-0.03,0.01-0.03,0.01c-0.01,0-0.02,0.01-0.03,0.01l0,0c-0.21,0.11-0.42,0.39-0.43,1.07
		c-0.03-0.26-0.14-0.58-0.43-1.07c-0.28-0.47-0.37-1.46-0.98-1.87c-0.51-0.31-0.86-0.8-1.46-1.04c-0.7-0.3-1.57-0.58-1.58-0.42
		c-0.02,0.14,0.16,0.83,0.33,1.46c-0.15-0.06-0.33-0.12-0.55-0.21c0,0-2.08-0.55-1.87-0.13c0.28,0.51,0.67,1.11,0.96,1.54
		c-0.49-0.04-1.34,0.05-0.98,0.11c0.14,0.27,0.08,0.65,1.15,1.78c0.05,0.05,0.1,0.1,0.15,0.14c-0.27-0.12-0.52-0.23-0.76-0.34
		c-0.75-0.38-1.56-0.84-2.33-1.33c0.04-0.22,0.43-2.2,0.09-2.67c-0.19-0.24-0.42-0.57-0.47-1.1c-0.05-0.52-0.4-1.38-0.63-1.66
		c-0.23-0.3-0.7-1.63-0.58-1.96c0,0-1.21,1.2-1.15,1.96c0.04,0.61,0.05,0.61,0.02,0.77c-0.11-0.2-0.2-0.36-0.25-0.44
		c-0.19-0.21-0.3-0.68-0.42-1.1c-0.12-0.4-0.45-1.5-0.45-1.5c-0.42,0.18-0.82,1.15-0.98,1.57c-0.18,0.4-0.3,1.1-0.35,1.38
		c-0.06,0.28,0.19,0.83,0.24,1.1c0,0.04,0.03,0.1,0.07,0.17c-0.86-0.65-1.58-1.29-2.28-2.33c0.06-0.28,0.12-0.5,0.24-0.6
		c0.17-0.18,0.75-0.88,0.87-1.33c0.12-0.47,0-0.81,0-1.05c0-0.23,0.16-1.03,0.16-1.03s0-0.03-0.02-0.07h0.97
		c1.73,1.28,7.94,5.19,15.25,2.01c-0.04,0.12-0.08,0.21-0.12,0.26c0,0-1.57,2.13,1.98,2.85h0c3.55-0.72,1.98-2.85,1.98-2.85
		c-0.04-0.05-0.08-0.14-0.12-0.26c7.31,3.2,13.53-0.73,15.26-2h0.98c-0.01,0.04-0.02,0.07-0.02,0.07s0.17,0.8,0.17,1.03
		c0,0.24-0.12,0.58,0,1.05c0.11,0.45,0.7,1.15,0.86,1.33c0.12,0.11,0.18,0.32,0.24,0.6C345.87,78.92,345.15,79.57,344.29,80.22"/>
	<path class="st4" d="M338.63,82.21c-0.2,0-0.35,0.15-0.35,0.33c0,0.2,0.15,0.35,0.35,0.35c0.18,0,0.35-0.15,0.35-0.35
		C338.98,82.36,338.81,82.21,338.63,82.21"/>
	<path class="st4" d="M340.6,84.62c-0.2,0-0.35,0.17-0.35,0.35c0,0.19,0.15,0.35,0.35,0.35c0.18,0,0.35-0.16,0.35-0.35
		C340.95,84.79,340.78,84.62,340.6,84.62"/>
	<path class="st4" d="M345.16,77c-0.18,0-0.35,0.15-0.35,0.35c0,0.18,0.17,0.35,0.35,0.35c0.2,0,0.35-0.17,0.35-0.35
		C345.51,77.15,345.37,77,345.16,77"/>
	<path class="st4" d="M347.61,78.73c0,0.22,0.18,0.38,0.39,0.38c0.22,0,0.38-0.17,0.38-0.38c0-0.2-0.16-0.38-0.38-0.38
		C347.8,78.35,347.61,78.53,347.61,78.73"/>
	<path class="st4" d="M348.51,70.56c0.21,0,0.38-0.16,0.38-0.38c0-0.2-0.17-0.38-0.38-0.38c-0.2,0-0.38,0.18-0.38,0.38
		C348.13,70.39,348.31,70.56,348.51,70.56"/>
	<path class="st4" d="M349.68,62.87c-0.22,0-0.38,0.17-0.38,0.39c0,0.2,0.17,0.38,0.38,0.38s0.39-0.18,0.39-0.38
		C350.06,63.04,349.89,62.87,349.68,62.87"/>
	<path class="st4" d="M351.81,56.62c0.22,0,0.39-0.17,0.39-0.36c0-0.22-0.17-0.38-0.39-0.38c-0.2,0-0.39,0.16-0.39,0.38
		C351.42,56.46,351.61,56.62,351.81,56.62"/>
	<path class="st4" d="M349.09,57.33c0.22,0,0.39-0.17,0.39-0.38c0-0.2-0.17-0.38-0.39-0.38c-0.22,0-0.39,0.18-0.39,0.38
		C348.71,57.16,348.88,57.33,349.09,57.33"/>
	<path class="st4" d="M346.81,51.1c0-0.2-0.16-0.37-0.38-0.37c-0.2,0-0.38,0.17-0.38,0.37c0,0.21,0.18,0.38,0.38,0.38
		C346.65,51.48,346.81,51.32,346.81,51.1"/>
	<path class="st4" d="M348.46,49.87c0.22,0,0.38-0.16,0.38-0.38c0-0.2-0.17-0.39-0.38-0.39c-0.22,0-0.38,0.18-0.38,0.39
		C348.08,49.7,348.24,49.87,348.46,49.87"/>
	<path class="st4" d="M352.29,63.32c0,0.2,0.16,0.36,0.38,0.36c0.2,0,0.37-0.17,0.37-0.36c0-0.2-0.17-0.37-0.37-0.37
		C352.46,62.95,352.29,63.12,352.29,63.32"/>
	<path class="st4" d="M315.82,82.21c-0.18,0-0.35,0.15-0.35,0.33c0,0.2,0.17,0.35,0.35,0.35c0.2,0,0.35-0.15,0.35-0.35
		C316.17,82.36,316.02,82.21,315.82,82.21"/>
	<path class="st4" d="M314.2,84.98c0-0.18-0.15-0.35-0.35-0.35c-0.18,0-0.35,0.17-0.35,0.35c0,0.19,0.17,0.35,0.35,0.35
		C314.05,85.33,314.2,85.17,314.2,84.98"/>
	<path class="st4" d="M309.29,77c-0.19,0-0.35,0.15-0.35,0.35c0,0.18,0.15,0.35,0.35,0.35c0.19,0,0.35-0.17,0.35-0.35
		C309.64,77.15,309.48,77,309.29,77"/>
	<path class="st4" d="M306.46,79.11c0.2,0,0.39-0.17,0.39-0.38c0-0.2-0.19-0.38-0.39-0.38c-0.22,0-0.38,0.18-0.38,0.38
		C306.08,78.95,306.24,79.11,306.46,79.11"/>
	<path class="st4" d="M305.94,69.79c-0.21,0-0.38,0.19-0.38,0.39c0,0.21,0.16,0.38,0.38,0.38c0.2,0,0.38-0.16,0.38-0.38
		C306.33,69.98,306.14,69.79,305.94,69.79"/>
	<path class="st4" d="M303.94,70.87c0-0.21-0.17-0.38-0.38-0.38c-0.2,0-0.38,0.17-0.38,0.38c0,0.22,0.18,0.39,0.38,0.39
		C303.78,71.26,303.94,71.09,303.94,70.87"/>
	<path class="st4" d="M304.77,63.64c0.22,0,0.38-0.18,0.38-0.39c0-0.21-0.16-0.38-0.38-0.38c-0.22,0-0.38,0.17-0.38,0.38
		C304.39,63.45,304.56,63.64,304.77,63.64"/>
	<path class="st4" d="M302.64,56.62c0.2,0,0.39-0.17,0.39-0.36c0-0.22-0.19-0.38-0.39-0.38c-0.22,0-0.39,0.16-0.39,0.38
		C302.26,56.46,302.42,56.62,302.64,56.62"/>
	<path class="st4" d="M305.36,56.56c-0.22,0-0.39,0.18-0.39,0.39c0,0.21,0.16,0.38,0.39,0.38c0.22,0,0.38-0.17,0.38-0.38
		C305.74,56.74,305.58,56.56,305.36,56.56"/>
	<path class="st4" d="M307.64,51.1c0,0.21,0.17,0.38,0.39,0.38c0.2,0,0.39-0.17,0.39-0.38c0-0.2-0.19-0.37-0.39-0.37
		C307.81,50.74,307.64,50.9,307.64,51.1"/>
	<path class="st4" d="M305.99,49.87c0.22,0,0.39-0.16,0.39-0.38c0-0.2-0.17-0.39-0.39-0.39c-0.21,0-0.38,0.18-0.38,0.39
		C305.61,49.7,305.78,49.87,305.99,49.87"/>
	<path class="st4" d="M302.16,63.32c0-0.2-0.16-0.37-0.38-0.37c-0.2,0-0.37,0.17-0.37,0.37c0,0.2,0.17,0.36,0.37,0.36
		C302,63.69,302.16,63.52,302.16,63.32"/>
	<path class="st4" d="M322.72,57.96c0.17-0.03,0.22,0.01,0.28,0.17l0.1-0.03l-0.1-0.23l0.66-0.29l-0.06-0.13l-0.93,0.41
		L322.72,57.96z"/>
	<path class="st4" d="M322.51,56.76l-0.14,0.02l0.12,0.51l0.56-0.05l-0.01-0.1c-0.09-0.03-0.14-0.1-0.15-0.16
		c-0.02-0.12,0.03-0.24,0.17-0.27c0.13-0.04,0.25,0.01,0.28,0.15c0.03,0.12,0,0.21-0.12,0.25l0.03,0.13
		c0.22-0.08,0.23-0.25,0.2-0.39c-0.08-0.31-0.33-0.31-0.43-0.28c-0.22,0.05-0.28,0.23-0.25,0.4c0.02,0.08,0.07,0.15,0.12,0.18
		l-0.28,0.02L322.51,56.76z"/>
	<path class="st4" d="M322.55,55.93c0.18,0.01,0.23-0.13,0.27-0.2l0.07-0.21c0.05-0.17,0.08-0.22,0.2-0.2
		c0.15,0.02,0.16,0.19,0.15,0.29c-0.02,0.13-0.09,0.28-0.27,0.26l-0.02,0.14c0.1,0.02,0.18,0,0.28-0.08c0.03-0.03,0.1-0.11,0.12-0.3
		c0.02-0.18-0.03-0.42-0.28-0.43c-0.15-0.02-0.25,0.06-0.28,0.2l-0.1,0.31c-0.01,0.05-0.05,0.12-0.14,0.12
		c-0.15-0.02-0.17-0.17-0.15-0.27c0-0.12,0.07-0.24,0.23-0.24v-0.13c-0.12,0-0.33,0.02-0.37,0.38
		C322.24,55.8,322.39,55.91,322.55,55.93"/>
	<polygon class="st4" points="323.64,54.33 323.52,54.3 323.32,54.89 322.99,54.78 323.17,54.25 323.05,54.2 322.87,54.75 
		322.57,54.64 322.77,54.06 322.64,54.02 322.41,54.75 323.4,55.06 	"/>
	<path class="st4" d="M323.79,54.1l-0.39-0.24l0.17-0.27c0.12-0.2,0.04-0.36-0.1-0.45c-0.07-0.04-0.14-0.06-0.22-0.03
		c-0.07,0.02-0.16,0.07-0.2,0.15l-0.23,0.4l0.88,0.55L323.79,54.1z M323.01,53.6l0.15-0.24c0.04-0.06,0.09-0.11,0.16-0.1
		c0.03,0,0.05,0.02,0.07,0.04c0.1,0.07,0.11,0.15,0.04,0.25l-0.13,0.22L323.01,53.6z"/>
	<polygon class="st4" points="323.72,52.63 324.39,53.26 324.47,53.16 323.82,52.53 324.07,52.27 323.97,52.18 323.39,52.79 
		323.47,52.89 	"/>
	<polygon class="st4" points="324.94,52.78 324.3,51.95 324.2,52.03 324.82,52.86 	"/>
	<polygon class="st4" points="325.79,52.28 325.74,52.18 325.17,52.46 325.02,52.17 325.52,51.9 325.47,51.78 324.95,52.05 
		324.8,51.77 325.35,51.48 325.3,51.36 324.62,51.72 325.1,52.65 	"/>
	<path class="st4" d="M326.04,52.22l-0.13-0.62c-0.02-0.01-0.05-0.15-0.06-0.25l0.48,0.8l0.14-0.03l0.1-0.91
		c0.03,0.1,0.05,0.22,0.05,0.25l0.13,0.6l0.14-0.01L326.65,51l-0.2,0.05l-0.11,0.94l-0.48-0.8l-0.2,0.03l0.23,1.02L326.04,52.22z"/>
	<path class="st4" d="M327.47,52.04c0.24,0.02,0.37-0.1,0.37-0.27c0.02-0.18-0.11-0.23-0.18-0.26c0.11-0.05,0.14-0.15,0.14-0.21
		c0.02-0.15-0.08-0.27-0.28-0.29l-0.45-0.01l-0.05,1.04L327.47,52.04z M327.24,51.13l0.23,0.03c0.15,0,0.21,0.05,0.21,0.15
		c-0.02,0.11-0.08,0.15-0.22,0.13h-0.24L327.24,51.13z M327.47,51.59c0.1,0,0.22,0.04,0.22,0.17c0,0.1-0.09,0.17-0.22,0.17
		l-0.26-0.02l0.01-0.33L327.47,51.59z"/>
	<path class="st4" d="M328.21,51.71l0.34,0.1c0.16,0.05,0.15,0.15,0.13,0.23c-0.02,0.03-0.07,0.19-0.05,0.25l0.16,0.05v-0.01
		c-0.03-0.04-0.03-0.06-0.01-0.12l0.02-0.18c0.05-0.13,0-0.18-0.05-0.21c0.07-0.03,0.17-0.06,0.2-0.21
		c0.06-0.21-0.09-0.31-0.25-0.36l-0.47-0.15l-0.28,1.02l0.14,0.04L328.21,51.71z M328.38,51.26l0.3,0.11
		c0.06,0.02,0.17,0.04,0.12,0.19c-0.03,0.13-0.13,0.12-0.22,0.11l-0.29-0.09L328.38,51.26z"/>
	<polygon class="st4" points="329.56,52.78 329.62,52.68 329.08,52.36 329.25,52.07 329.75,52.35 329.81,52.25 329.32,51.95 
		329.48,51.69 330.02,52 330.08,51.88 329.42,51.5 328.9,52.4 	"/>
	<path class="st4" d="M330.21,53.44c0.24,0.25,0.52,0.14,0.7-0.01c0.24-0.18,0.29-0.45,0.11-0.67l-0.28-0.31l-0.79,0.66
		L330.21,53.44z M330.88,52.87c0.12,0.13,0.1,0.28-0.08,0.44c-0.18,0.16-0.35,0.15-0.47,0.01l-0.16-0.18l0.56-0.46L330.88,52.87z"/>
	<polygon class="st4" points="330.91,54.58 331.03,54.53 330.74,53.96 331.06,53.81 331.31,54.33 331.43,54.27 331.16,53.76 
		331.47,53.61 331.73,54.16 331.84,54.11 331.5,53.43 330.57,53.9 	"/>
	<path class="st4" d="M331.8,55.24l-0.72,0.1l0.02,0.13l1.02-0.15l-0.02-0.1c-0.17-0.02-0.18-0.07-0.23-0.24l-0.1,0.02L331.8,55.24z
		"/>
	<path class="st4" d="M331.88,55.85c-0.1,0-0.17,0.04-0.2,0.14c-0.03-0.12-0.12-0.19-0.25-0.2c-0.05,0-0.14,0-0.24,0.09
		c-0.06,0.08-0.08,0.19-0.08,0.25c-0.02,0.23,0.14,0.34,0.3,0.34c0.08,0.02,0.19-0.01,0.26-0.14c0.01,0.05,0.07,0.13,0.2,0.13
		c0.13,0.02,0.28-0.07,0.28-0.3C332.16,55.95,331.99,55.85,331.88,55.85 M331.4,56.34c-0.16,0-0.17-0.12-0.17-0.2
		c0-0.15,0.11-0.18,0.2-0.18c0.08,0,0.17,0.07,0.15,0.2C331.58,56.27,331.53,56.34,331.4,56.34 M331.88,56.34
		c-0.08-0.02-0.15-0.09-0.15-0.19c0-0.08,0.07-0.14,0.15-0.14c0.07,0,0.15,0.04,0.14,0.17C332.01,56.31,331.92,56.34,331.88,56.34"
		/>
	<path class="st4" d="M331.73,56.71l-0.01,0.13c0.06,0.02,0.23,0.07,0.18,0.25c-0.03,0.15-0.15,0.18-0.22,0.15
		c-0.13-0.02-0.16-0.12-0.2-0.23l-0.03-0.15c-0.05-0.15-0.14-0.27-0.35-0.33l-0.17,0.68l0.12,0.03l0.14-0.55
		c0.05,0.02,0.12,0.07,0.15,0.22l0.03,0.12c0.05,0.18,0.11,0.32,0.27,0.35c0.19,0.05,0.34-0.07,0.38-0.24
		C332.03,57.04,332.07,56.8,331.73,56.71"/>
	<path class="st4" d="M331.53,57.67l-0.1,0.22l-0.65-0.32l-0.07,0.14l0.93,0.43l0.03-0.1c-0.14-0.1-0.12-0.17-0.05-0.33
		L331.53,57.67z"/>
	<path class="st4" d="M325.96,61.35l0.11,0.02l0.77-3.15c-0.04-0.01-0.08,0-0.11-0.01l-0.75,3.12L325.96,61.35z"/>
	<path class="st4" d="M325.84,60l0.11,0.04l0.64-1.87c-0.03-0.01-0.07-0.02-0.11-0.03l-0.63,1.84L325.84,60z"/>
	<path class="st4" d="M324.76,61.15l0.1,0.05l1.48-3.11c-0.04-0.01-0.07-0.03-0.1-0.04l-1.47,3.08L324.76,61.15z"/>
	<path class="st4" d="M324.52,60.64l1.6-2.65c-0.03-0.02-0.07-0.03-0.1-0.06l-1.6,2.64L324.52,60.64z"/>
	<path class="st4" d="M323.53,60.68l-0.02,0.02l0.09,0.07l2.28-2.91c-0.03-0.02-0.05-0.05-0.08-0.07L323.53,60.68z"/>
	<path class="st4" d="M323.68,59.96l2.01-2.24l0.01-0.01c-0.03-0.03-0.06-0.05-0.09-0.08l-2.02,2.25L323.68,59.96z"/>
	<path class="st4" d="M325.53,57.55c-0.03-0.03-0.05-0.05-0.07-0.09l-2.99,2.63l0.07,0.09l2.98-2.62L325.53,57.55z"/>
	<path class="st4" d="M325.36,57.35L325.36,57.35c-0.03-0.03-0.05-0.06-0.08-0.09l-1.57,1.11l-0.02,0.02l0.07,0.09L325.36,57.35z"/>
	<path class="st4" d="M325.22,57.16c-0.02-0.03-0.03-0.07-0.05-0.1l-1.11,0.62l0.06,0.09L325.22,57.16z"/>
	<path class="st4" d="M323.9,57.36l0.04,0.1l1.17-0.51c-0.02-0.03-0.04-0.06-0.05-0.1L323.9,57.36z"/>
	<polygon class="st4" points="323.77,57.01 323.81,57.12 324.99,56.73 325.02,56.73 324.98,56.62 	"/>
	<path class="st4" d="M324.95,56.49c-0.01-0.03-0.02-0.07-0.03-0.11l-1.25,0.27l0.03,0.12L324.95,56.49z"/>
	<path class="st4" d="M323.61,56.28l0.01,0.11l1.28-0.13c0-0.04,0-0.08-0.01-0.12L323.61,56.28z"/>
	<path class="st4" d="M323.6,56.02l1.28-0.01c0-0.02,0-0.04,0-0.06c0-0.02,0-0.04,0-0.05l-1.28,0.01V56.02z"/>
	<path class="st4" d="M323.61,55.67l1.26,0.11h0.02c0-0.04,0.01-0.07,0.01-0.11l-1.25-0.11l-0.03,0L323.61,55.67z"/>
	<path class="st4" d="M323.65,55.27l1.26,0.27c0.01-0.04,0.02-0.07,0.03-0.11l-1.27-0.28L323.65,55.27z"/>
	<path class="st4" d="M323.75,54.93l1.2,0.39l0.02,0c0.01-0.04,0.02-0.07,0.04-0.11l-1.21-0.4L323.75,54.93z"/>
	<path class="st4" d="M323.91,54.47l-0.05,0.11l1.19,0.5c0.01-0.04,0.03-0.07,0.05-0.1l-1.17-0.49L323.91,54.47z"/>
	<path class="st4" d="M324.02,54.24l1.13,0.61l0.01,0c0.02-0.04,0.03-0.07,0.05-0.1l-1.14-0.61L324.02,54.24z"/>
	<path class="st4" d="M324.23,53.93l1.03,0.73c0.02-0.03,0.05-0.06,0.07-0.09l-1.03-0.74L324.23,53.93z"/>
	<path class="st4" d="M324.56,53.55l-0.07,0.09l0.94,0.81l0.01,0.01c0.02-0.03,0.05-0.06,0.07-0.09l-0.93-0.81L324.56,53.55z"/>
	<path class="st4" d="M324.83,53.29l-0.08,0.08l0.87,0.9c0.03-0.02,0.06-0.04,0.08-0.07l-0.85-0.89L324.83,53.29z"/>
	<path class="st4" d="M325.11,53.06l-0.09,0.07l0.79,0.98c0.03-0.02,0.05-0.05,0.09-0.07l-0.76-0.96L325.11,53.06z"/>
	<path class="st4" d="M325.47,52.85l-0.1,0.06l0.62,1.07l0.01,0.01c0.03-0.02,0.07-0.03,0.1-0.05l-0.61-1.05L325.47,52.85z"/>
	<path class="st4" d="M325.79,52.71l-0.11,0.05l0.52,1.11c0.03-0.02,0.07-0.03,0.1-0.05l-0.5-1.08L325.79,52.71z"/>
	<path class="st4" d="M326.15,52.58l-0.11,0.04l0.41,1.16c0.03-0.01,0.07-0.02,0.11-0.03l-0.4-1.13L326.15,52.58z"/>
	<path class="st4" d="M326.54,52.46l-0.12,0.02l0.25,1.22c0.04-0.01,0.07-0.01,0.11-0.02l-0.24-1.2L326.54,52.46z"/>
	<path class="st4" d="M326.94,53.67c0.04-0.01,0.07-0.01,0.11-0.01l-0.12-1.24l-0.12,0.01L326.94,53.67z"/>
	<path class="st4" d="M327.26,52.4l-0.12,0l0.01,1.24h0.02c0.03,0,0.06,0,0.1,0.01l-0.01-1.22V52.4z"/>
	<path class="st4" d="M327.39,53.65l0,0.01c0.04,0.01,0.08,0.01,0.12,0.01l0.12-1.25l-0.11-0.01L327.39,53.65z"/>
	<path class="st4" d="M327.73,53.72l0.02,0l0.25-1.24l-0.11-0.02l-0.24,1.23C327.67,53.69,327.69,53.71,327.73,53.72"/>
	<path class="st4" d="M328.36,52.61l-0.11-0.03l-0.4,1.16l0,0.03c0.04,0.01,0.07,0.02,0.11,0.03l0.39-1.15L328.36,52.61z"/>
	<path class="st4" d="M328.7,52.75l-0.1-0.05l-0.5,1.12l-0.01,0.02c0.03,0.01,0.06,0.03,0.1,0.05l0.49-1.11L328.7,52.75z"/>
	<polygon class="st4" points="328.9,52.84 328.31,53.9 328.3,53.93 328.4,53.99 329,52.9 	"/>
	<path class="st4" d="M328.49,54.04l-0.01,0.01c0.04,0.02,0.06,0.05,0.09,0.08l0.75-0.98l0.02-0.02l-0.09-0.07L328.49,54.04z"/>
	<polygon class="st4" points="328.68,54.2 328.76,54.28 329.59,53.38 329.62,53.36 329.53,53.28 	"/>
	<polygon class="st4" points="328.85,54.37 328.93,54.46 329.86,53.62 329.79,53.54 	"/>
	<path class="st4" d="M329.04,54.56l-0.02,0.01c0.02,0.03,0.05,0.06,0.07,0.09l0.98-0.73l0.03-0.02l-0.07-0.09L329.04,54.56z"/>
	<path class="st4" d="M329.17,54.74l-0.02,0.01c0.02,0.03,0.03,0.07,0.05,0.1l1.09-0.61l0.02-0.01l-0.06-0.09L329.17,54.74z"/>
	<path class="st4" d="M329.27,54.96l-0.01,0.01c0.01,0.03,0.03,0.07,0.05,0.1l1.12-0.5l0.02-0.01l-0.04-0.1L329.27,54.96z"/>
	<path class="st4" d="M329.35,55.21c0.01,0.04,0.02,0.07,0.03,0.11l1.15-0.39l0.02-0.01l-0.03-0.11L329.35,55.21z"/>
	<path class="st4" d="M329.42,55.42c0.01,0.03,0.02,0.07,0.03,0.11l1.22-0.28l-0.03-0.11L329.42,55.42z"/>
	<path class="st4" d="M329.45,55.65c0.01,0.04,0.01,0.07,0.01,0.11l1.21-0.11l0.03,0l-0.01-0.11L329.45,55.65z"/>
	<path class="st4" d="M329.49,55.95c0,0.01,0,0.03,0,0.04l1.23,0.01l0-0.11l-1.24-0.01C329.48,55.9,329.49,55.92,329.49,55.95"/>
	<path class="st4" d="M329.44,56.37c-0.01,0.03-0.01,0.07-0.03,0.11l1.19,0.27l0.03-0.11L329.44,56.37z"/>
	<path class="st4" d="M330.69,56.37l0.01-0.12l-1.23-0.14c0,0.01,0,0.02,0,0.03c0,0.03,0,0.06-0.01,0.09l1.2,0.13L330.69,56.37z"/>
	<path class="st4" d="M330.51,57.09l0.03-0.11l-1.13-0.38l-0.03-0.01l0,0.01c-0.01,0.03-0.02,0.06-0.03,0.1l1.14,0.38L330.51,57.09z
		"/>
	<path class="st4" d="M329.31,56.84c-0.01,0.03-0.04,0.07-0.05,0.1l1.09,0.49l0.03,0.01l0.05-0.11L329.31,56.84z"/>
	<path class="st4" d="M329.15,57.13l1.03,0.59l0.02,0.01l0.06-0.1l-1.06-0.61C329.19,57.06,329.17,57.1,329.15,57.13"/>
	<path class="st4" d="M329.02,57.33l1.54,1.13l0.06-0.1l-1.53-1.12C329.07,57.27,329.04,57.3,329.02,57.33"/>
	<path class="st4" d="M328.92,57.44c-0.02,0.03-0.04,0.06-0.07,0.09l2.85,2.6l0.02,0.02l0.08-0.08l-2.86-2.61L328.92,57.44z"/>
	<path class="st4" d="M328.68,57.68l1.94,2.24l0.09-0.08l-1.94-2.23h0c-0.02,0.02-0.04,0.03-0.06,0.05
		C328.7,57.67,328.69,57.68,328.68,57.68"/>
	<path class="st4" d="M328.51,57.83l2.19,2.9l0.09-0.07l-2.2-2.91C328.57,57.78,328.54,57.81,328.51,57.83"/>
	<path class="st4" d="M328.28,57.97l1.53,2.61l0.01,0.02l0.1-0.05l-1.54-2.63C328.35,57.93,328.31,57.95,328.28,57.97"/>
	<path class="st4" d="M328.08,58.07l1.4,3.06l0.01,0.02l0.1-0.05l-1.42-3.1C328.14,58.03,328.11,58.06,328.08,58.07"/>
	<path class="st4" d="M327.83,58.15l0.6,1.82l0.01,0.03l0.11-0.03l-0.62-1.85C327.91,58.13,327.87,58.14,327.83,58.15"/>
	<path class="st4" d="M327.6,58.21l0.73,3.12l0.11-0.02l-0.73-3.12C327.68,58.2,327.64,58.21,327.6,58.21"/>
	<path class="st4" d="M316.62,78.97c0,0-0.35,0.41-0.16,0.75c0,0,0.35,0.45,0.88,0C317.34,79.72,316.49,79.74,316.62,78.97"/>
	<path class="st4" d="M337.1,79.72c0.53,0.45,0.88,0,0.88,0c0.19-0.35-0.15-0.75-0.15-0.75C337.95,79.74,337.1,79.72,337.1,79.72"/>
	<path class="st4" d="M319.83,78.53l-0.19-0.11l-0.45,0.77l0.18,0.11c0.23,0.14,0.47,0.09,0.61-0.16
		C320.13,78.89,320.06,78.67,319.83,78.53"/>
	<path class="st4" d="M321.33,79.32c-0.22-0.11-0.49-0.01-0.6,0.22c-0.11,0.24-0.02,0.51,0.2,0.61c0.22,0.1,0.48,0,0.6-0.24
		C321.64,79.68,321.55,79.42,321.33,79.32"/>
	<path class="st4" d="M326.52,80.66c-0.24-0.01-0.45,0.17-0.46,0.43c-0.02,0.27,0.17,0.48,0.41,0.49c0.24,0.01,0.45-0.18,0.46-0.45
		C326.95,80.87,326.76,80.67,326.52,80.66"/>
	<path class="st4" d="M330.75,80.72l-0.25,0.07l0.1,0.39l0.26-0.07c0.12-0.03,0.18-0.13,0.14-0.25
		C330.97,80.75,330.87,80.69,330.75,80.72"/>
	<path class="st4" d="M330.82,80.37c-0.03-0.1-0.1-0.15-0.22-0.12l-0.23,0.07l0.09,0.34l0.24-0.07
		C330.8,80.57,330.85,80.47,330.82,80.37"/>
	<path class="st4" d="M332.46,79.66c-0.03-0.01-0.07,0-0.16,0.03l-0.18,0.07l0.16,0.39l0.22-0.08c0.12-0.05,0.16-0.16,0.11-0.28
		C332.59,79.71,332.53,79.67,332.46,79.66"/>
	<path class="st4" d="M334,79.1l0.06,0.4l0.31-0.18l-0.29-0.27c-0.05-0.04-0.12-0.13-0.12-0.13v0.01
		C333.96,78.92,333.99,79.03,334,79.1"/>
	<path class="st4" d="M337.38,79.18L337,79.04c0.35-0.11,0.65-0.15,0.83-0.07l-0.46-0.42c-1.61-1.45-3.42-0.43-3.42-0.43
		c-1.78,1.02-4.11,1.92-6.73,1.92c-2.62,0-4.95-0.9-6.73-1.92c0,0-1.8-1.02-3.41,0.43l-0.45,0.42c0.17-0.07,0.47-0.04,0.82,0.07
		l-0.37,0.14c0.48,0.19,0.28,0.55,0.28,0.55l0.58-0.52c1.15,0.45,2.56,1.29,2.56,1.29c1.73,1.04,4.11,1.7,6.73,1.7
		c2.62,0,5-0.66,6.73-1.7c0,0,1.41-0.83,2.56-1.29l0.58,0.52C337.1,79.73,336.9,79.37,337.38,79.18 M319.31,79.44l-0.34-0.2
		l0.6-1.02l0.34,0.2c0.31,0.18,0.41,0.49,0.22,0.81C319.94,79.55,319.62,79.62,319.31,79.44 M320.15,79.91l-0.15-0.08l0.56-1.05
		l0.15,0.08L320.15,79.91z M320.87,80.29c-0.31-0.15-0.44-0.51-0.29-0.83c0.15-0.31,0.51-0.43,0.81-0.28
		c0.31,0.15,0.44,0.5,0.3,0.81C321.53,80.31,321.18,80.44,320.87,80.29 M322.52,79.93c0,0-0.06-0.13-0.2-0.19
		c-0.12-0.04-0.23,0-0.26,0.09c-0.09,0.23,0.47,0.37,0.33,0.73c-0.07,0.17-0.25,0.26-0.47,0.18c-0.24-0.09-0.31-0.29-0.31-0.29
		l0.14-0.08c0,0,0.07,0.16,0.23,0.23c0.1,0.04,0.22,0.02,0.26-0.09c0.09-0.24-0.46-0.4-0.33-0.74c0.07-0.18,0.26-0.25,0.47-0.17
		c0.21,0.08,0.27,0.24,0.27,0.24L322.52,79.93z M323.51,81.26c-0.26-0.07-0.41-0.3-0.33-0.55l0.2-0.74l0.16,0.05l-0.2,0.74
		c-0.05,0.17,0.04,0.31,0.21,0.35c0.18,0.05,0.32-0.02,0.37-0.2l0.2-0.74l0.16,0.04l-0.2,0.74
		C324.01,81.22,323.78,81.34,323.51,81.26 M325.2,81.6l-0.16-0.02l-0.39-0.86c-0.03-0.07-0.07-0.19-0.07-0.19l0,0
		c0,0-0.01,0.11-0.02,0.18l-0.14,0.76l-0.16-0.03l0.21-1.17l0.16,0.03l0.39,0.85c0.03,0.07,0.07,0.19,0.07,0.19l0,0
		c0,0,0.01-0.1,0.02-0.17l0.13-0.77l0.16,0.03L325.2,81.6z M325.65,81.65l-0.16-0.02l0.14-1.18l0.16,0.02L325.65,81.65z
		 M326.47,81.74c-0.34-0.02-0.59-0.3-0.58-0.65c0.02-0.34,0.3-0.59,0.64-0.57c0.34,0.01,0.59,0.29,0.58,0.63
		C327.09,81.49,326.81,81.75,326.47,81.74 M328.1,81.71l-0.56-0.75c-0.05-0.06-0.11-0.17-0.11-0.17h-0.01c0,0,0.02,0.11,0.02,0.17
		l0.03,0.77l-0.17,0.01l-0.04-1.18l0.16-0.01l0.56,0.75c0.05,0.06,0.11,0.17,0.11,0.17h0.01c0,0-0.02-0.11-0.03-0.17l-0.03-0.77
		l0.17,0l0.05,1.18L328.1,81.71z M329.2,81.6l-0.19-1.17l0.16-0.03l0.17,1.03l0.53-0.08l0.02,0.14L329.2,81.6z M330.03,81.45
		l-0.24-1.17l0.16-0.03l0.24,1.17L330.03,81.45z M330.88,81.25l-0.41,0.11l-0.31-1.15l0.4-0.1c0.2-0.05,0.36,0.02,0.41,0.2
		c0.03,0.11,0,0.21-0.08,0.28h0c0.13,0,0.23,0.1,0.26,0.23C331.22,81.05,331.09,81.2,330.88,81.25 M331.48,81.09l-0.37-1.13
		l0.66-0.22l0.05,0.14l-0.5,0.17l0.12,0.35l0.41-0.14l0.04,0.14l-0.4,0.13l0.12,0.36l0.53-0.17l0.04,0.14L331.48,81.09z
		 M332.97,80.54l-0.41-0.35l-0.23,0.1l0.18,0.44l-0.16,0.06l-0.44-1.1l0.33-0.14c0.12-0.04,0.17-0.06,0.22-0.06
		c0.13-0.01,0.25,0.08,0.31,0.22c0.05,0.14,0.03,0.29-0.08,0.38l0.01,0c0,0,0.02,0.01,0.05,0.04l0.41,0.33L332.97,80.54z
		 M333.56,80.28l-0.45-0.94l-0.37,0.17l-0.06-0.13l0.89-0.41l0.06,0.13l-0.37,0.18l0.44,0.94L333.56,80.28z M334.75,79.66
		l-0.27-0.24l-0.39,0.21l0.06,0.35L334,80.08l-0.19-1.25l0.15-0.08l0.95,0.84L334.75,79.66z M335.36,79.3l-0.33,0.21l-0.63-1.01
		l0.33-0.21c0.31-0.2,0.63-0.14,0.83,0.18C335.76,78.8,335.67,79.11,335.36,79.3"/>
	<path class="st4" d="M334.79,78.43l-0.18,0.11l0.47,0.76l0.18-0.12c0.23-0.14,0.29-0.37,0.14-0.61
		C335.25,78.32,335.02,78.29,334.79,78.43"/>
</g>
</svg>
