<?xml version="1.0" encoding="utf-8"?>
<!-- Generator: Adobe Illustrator 24.0.0, SVG Export Plug-In . SVG Version: 6.00 Build 0)  -->
<svg version="1.1" id="Layer_1" xmlns="http://www.w3.org/2000/svg" xmlns:xlink="http://www.w3.org/1999/xlink" x="0px" y="0px"
	 viewBox="0 0 500 500" style="enable-background:new 0 0 500 500;" xml:space="preserve">
<style type="text/css">
	.st0{fill:#3C4657;}
	.st1{fill:#313945;}
	.st2{fill:#231F20;}
	.st3{opacity:0.3;}
	.st4{fill:#D1D2D2;}
	.st5{fill:#C9EAFB;}
	.st6{fill:#FFFFFF;}
	
		.st7{fill:none;stroke:#FDF5F9;stroke-width:2.1703;stroke-linecap:round;stroke-linejoin:round;stroke-miterlimit:10;stroke-dasharray:8.6811;}
	.st8{fill:#72256F;}
	.st9{fill:#3C2415;}
	.st10{fill:#B56A57;}
	.st11{opacity:0.4;fill:#B56A57;}
	.st12{fill:#BE1E2D;}
	.st13{fill:#4C3B4B;}
	.st14{fill:#392A38;}
	.st15{fill:#F0645C;}
	.st16{fill:#603913;}
	.st17{fill:#F1F2F2;}
	.st18{fill:#D8792B;}
	.st19{fill:#8AB5CF;}
	.st20{fill:#C6E1F5;}
	.st21{fill:#F79731;}
	.st22{fill:#84A5BA;}
	.st23{fill:#658CA2;}
	.st24{fill:#9CC3DB;}
	.st25{fill:#72A749;}
	.st26{fill:#87C557;}
	.st27{fill:#C1DA73;}
	.st28{fill:#D77A40;}
	.st29{fill:#BFE068;}
	.st30{fill:#F7FAFB;}
	.st31{fill:#FBB040;}
	.st32{fill:#F5F5F6;}
	.st33{fill:url(#SVGID_1_);}
	.st34{fill:none;stroke:#F7FAFB;stroke-width:3.0845;stroke-miterlimit:10;}
	.st35{fill:#D4F0F5;}
	.st36{opacity:0.57;}
	.st37{fill:#92D5E4;}
	.st38{fill:#FFFFFF;stroke:#852170;stroke-width:0.9103;stroke-miterlimit:10;}
	.st39{fill:#852170;}
	.st40{fill:none;stroke:#852170;stroke-width:0.4552;stroke-miterlimit:10;}
	.st41{opacity:0.5;fill:#852170;}
	.st42{opacity:0.4;}
	.st43{clip-path:url(#SVGID_3_);}
	.st44{opacity:0.63;}
	.st45{fill:#B9E5EE;}
	.st46{fill:#FF9F66;}
	.st47{fill:#73ADDB;}
	.st48{fill:#2E214C;}
	.st49{fill:#43305F;}
	.st50{fill:#FF8A31;}
	.st51{fill:#549CCB;}
	.st52{fill:#FF9B3A;}
	.st53{fill:#F2763F;}
	.st54{fill:#4489B4;}
	.st55{fill:#F17D24;}
	.st56{opacity:0.74;}
	.st57{clip-path:url(#SVGID_5_);}
	.st58{fill:#E8505B;}
	.st59{fill:#263238;}
	.st60{opacity:0.2;}
	.st61{fill:#455A64;}
	.st62{fill:#ADD337;}
	.st63{opacity:0.69;fill:#FFFFFF;}
	.st64{fill:#FAFAFA;}
	.st65{fill:#FFBE9D;}
	.st66{fill:#CC8F75;}
	.st67{opacity:0.78;}
	.st68{fill:#7C2639;}
	.st69{fill:#E28088;}
	.st70{fill:#222228;}
	.st71{fill:#F0A2F4;}
	.st72{fill:#684D34;}
	.st73{fill:#604966;}
	.st74{fill:#3F1E47;}
	.st75{fill:#936754;}
	.st76{fill:#EB996E;}
	.st77{fill:#7F584A;}
	.st78{fill:#0A0705;}
	.st79{fill:#60381A;}
	.st80{fill:#7C5142;}
	.st81{opacity:0.6;}
	.st82{fill:#3D3D3D;}
	.st83{fill:#6FB56B;}
	.st84{fill:#97F794;}
	.st85{fill:#754925;}
	.st86{fill:#5E3A1E;}
	.st87{fill:#AFA15B;}
	.st88{fill:#FFEE8D;}
	.st89{fill:#B78876;}
	.st90{fill:#F5F5F5;}
	.st91{fill:#BF594F;}
	.st92{fill:#FF725E;}
	.st93{fill:#C96565;}
	.st94{fill:#B57662;}
	.st95{fill:#EA9898;}
	.st96{fill:#7C4A4A;}
	.st97{fill:#EBEBEB;}
	.st98{fill:#E0E0E0;}
	.st99{opacity:0.5;}
	.st100{fill:#995037;}
	.st101{fill:#773C2C;}
	.st102{fill:none;}
	.st103{fill:#E5BAAB;}
	.st104{fill:#D78776;}
	.st105{fill:#BC93B4;}
	.st106{fill:#B77153;}
	.st107{fill:#724940;}
	.st108{fill:#A56B65;}
	.st109{fill:#492F1B;}
	.st110{fill:#4B6EBC;}
	.st111{fill:#3D5C91;}
	.st112{fill:#A4CC64;}
	.st113{fill:#0086BF;}
	.st114{fill:none;stroke:#4E585D;stroke-miterlimit:10;}
	.st115{fill:#AF5858;}
	.st116{fill:#71A5BC;}
	.st117{fill:#AF7127;}
	.st118{fill:#4C3D2D;}
	.st119{fill:#AA6550;}
	.st120{fill:#93584A;}
</style>
<g>
	
		<ellipse transform="matrix(0.7071 -0.7071 0.7071 0.7071 -98.5871 256.4172)" class="st63" cx="260.23" cy="247.21" rx="167.11" ry="167.11"/>
	<g>
		<path class="st29" d="M488.93,190.78c0,0-11.12-6.99-23.86,19.52c-12.74,26.5-17.45,41.72-17.45,41.72s-3.4,5.57-7.25,2.07
			c-3.85-3.5-9.25-13.55-15.62-11.57c-6.6,2.05-8.62,9.52-7.1,20.39c1.52,10.87,3.98,34.8,4.19,36.97c0.21,2.13-0.94,5.29-3.94,3.33
			c-3.01-1.96-20.47-20.53-28.78-11.71c-8.31,8.81,0.9,38.4,1.84,41.65c0.94,3.25,0.34,4.67-1.2,5.51c-1.54,0.85-6.82-5.95-12-11.02
			c-5.18-5.08-12.08-10.05-16.45-4.57c-4.37,5.49-5.29,27.86,16.82,63.66l11.33,15.92l19.56-1.54c41.67-5.85,58.3-20.85,59.73-27.72
			c1.43-6.87-6.81-9-14.02-9.74c-7.22-0.75-15.82-0.47-16.15-2.2c-0.33-1.72,0.37-3.09,3.48-4.44c3.11-1.35,31.75-13.16,33.22-25.18
			c1.47-12.03-23.97-13.61-27.4-14.67c-3.43-1.06-1.73-3.96,0.04-5.16c1.8-1.22,21.79-14.61,31.12-20.38
			c9.33-5.77,13.79-12.09,11.16-18.48c-2.54-6.16-13.73-3.9-18.88-4.63c-5.15-0.73-3.04-6.9-3.04-6.9s8.71-13.34,20.96-40.07
			c12.26-26.73-0.55-30.86-0.55-30.86"/>
		<g>
			<path class="st25" d="M477.48,214.5c0.01,0.01-0.06,0.2-0.22,0.58c-0.18,0.41-0.42,0.96-0.72,1.66c-0.67,1.5-1.62,3.63-2.83,6.35
				c-2.47,5.51-6.1,13.46-10.64,23.26c-9.06,19.6-21.82,46.57-36.01,76.3c-14.14,29.74-26.95,56.67-36.24,76.2
				c-4.58,9.74-8.29,17.63-10.88,23.14c-1.27,2.7-2.27,4.8-2.97,6.29c-0.33,0.68-0.6,1.22-0.79,1.63c-0.18,0.36-0.28,0.55-0.3,0.54
				c-0.01-0.01,0.06-0.2,0.22-0.58c0.18-0.41,0.41-0.96,0.72-1.66c0.67-1.5,1.62-3.63,2.83-6.35c2.47-5.51,6.1-13.46,10.64-23.26
				c9.06-19.6,21.82-46.57,36.02-76.32c14.14-29.73,26.94-56.66,36.23-76.19c4.58-9.74,8.29-17.64,10.88-23.14
				c1.27-2.7,2.27-4.81,2.97-6.29c0.33-0.68,0.6-1.22,0.79-1.63C477.37,214.67,477.47,214.49,477.48,214.5z"/>
		</g>
		<g>
			<path class="st25" d="M431.74,256.89c0.11-0.03,0.81,1.85,1.79,4.95c0.98,3.1,2.2,7.41,3.46,12.2c1.19,4.67,2.27,8.9,3.13,12.28
				c0.79,3.14,1.32,5.07,1.21,5.11c-0.11,0.04-0.84-1.84-1.78-4.95c-0.95-3.11-2.12-7.44-3.37-12.23
				c-1.22-4.66-2.33-8.88-3.21-12.25C432.13,258.87,431.63,256.93,431.74,256.89z"/>
		</g>
		<g>
			<path class="st25" d="M443.13,291.74c-0.07-0.22,8.71-3.16,19.6-6.57c10.9-3.41,19.79-5.99,19.85-5.77
				c0.07,0.22-8.71,3.16-19.6,6.57C452.08,289.37,443.2,291.96,443.13,291.74z"/>
		</g>
		<g>
			<path class="st25" d="M419.26,336.42c0-0.12,2.05-0.18,5.36-0.26c3.31-0.09,7.87-0.22,12.91-0.53c5.04-0.3,9.59-0.72,12.88-1.04
				c3.29-0.32,5.33-0.51,5.35-0.39c0.02,0.11-2,0.51-5.28,0.98c-3.28,0.47-7.84,0.98-12.9,1.29c-5.05,0.31-9.64,0.35-12.96,0.29
				C421.31,336.68,419.26,336.53,419.26,336.42z"/>
		</g>
		<g>
			<path class="st25" d="M402.03,307.16c0.1-0.06,1.17,1.5,2.82,4.08c1.65,2.58,3.88,6.17,6.31,10.16c2.42,3.99,4.57,7.63,6.1,10.29
				c1.52,2.66,2.41,4.33,2.31,4.39c-0.1,0.06-1.17-1.5-2.82-4.08c-1.65-2.58-3.88-6.17-6.31-10.16c-2.42-3.99-4.57-7.63-6.1-10.29
				C402.82,308.9,401.93,307.22,402.03,307.16z"/>
		</g>
	</g>
	<g>
		<g>
			<path class="st25" d="M62,258.45c0,0,0.18-0.08,0.56-0.12c0.38-0.04,0.96-0.02,1.67,0.25c0.7,0.26,1.5,0.78,2.27,1.58
				c0.77,0.8,1.45,1.89,2.11,3.17c1.28,2.6,2.13,6.06,3.11,10.08c0.96,4.04,2.01,8.68,2.72,13.97l-0.01-0.04
				c0.32,0.76,0.91,1.63,1.76,1.67c0.42,0.01,0.81-0.21,1.2-0.48c0.38-0.27,0.75-0.57,1.13-0.87c0.75-0.61,1.52-1.24,2.38-1.77
				c0.85-0.5,1.91-0.99,3.02-0.7c1.06,0.33,1.9,1.13,2.39,2.12c0.48,1,0.6,2.14,0.53,3.24c-0.12,2.24-1,4.36-1.64,6.55
				c-0.68,2.19-1.38,4.44-2.1,6.73c-0.36,1.15-0.72,2.31-1.08,3.48c-0.18,0.59-0.37,1.18-0.55,1.77c-0.09,0.31-0.2,0.58-0.21,0.86
				c-0.03,0.28,0.01,0.57,0.12,0.8c0.21,0.5,0.84,0.39,1.36,0.09c0.55-0.31,1.11-0.61,1.67-0.92c1.13-0.62,2.28-1.21,3.51-1.71
				c1.22-0.49,2.51-0.91,3.88-0.99c0.68-0.04,1.4,0.04,2.06,0.32c0.66,0.27,1.24,0.77,1.6,1.39c0.75,1.26,0.79,2.74,0.66,4.11
				c-0.14,1.39-0.44,2.76-0.86,4.1c-0.83,2.69-1.97,5.3-3.26,7.87c-0.31,0.65-0.71,1.27-0.9,1.91c-0.09,0.32-0.1,0.64,0.02,0.89
				c0.06,0.13,0.16,0.25,0.27,0.35c0.06,0.04,0.1,0.05,0.28,0c0.61-0.21,1.23-0.65,1.82-1.05c0.6-0.42,1.2-0.84,1.8-1.26
				c1.21-0.84,2.45-1.69,3.84-2.31c0.69-0.31,1.43-0.57,2.22-0.65c0.78-0.1,1.66,0.06,2.3,0.62c0.64,0.53,1,1.33,1.11,2.12
				c0.09,0.39,0.07,0.78,0.11,1.17c-0.02,0.39-0.02,0.78-0.06,1.17c-0.15,1.55-0.56,3.06-1.09,4.52c-1.05,2.93-2.58,5.69-4.33,8.31
				c-1.75,2.63-3.76,5.1-5.91,7.48c-1.04,1.24-2.26,2.27-3.42,3.39c-1.17,1.1-2.35,2.21-3.54,3.32l-0.11,0.1l-0.14-0.04
				c-0.21-0.06-0.43-0.13-0.66-0.2c-1.57-0.47-3.12-0.95-4.68-1.42l-2.33-0.71c-0.77-0.26-1.51-0.59-2.27-0.88
				c-3-1.22-5.9-2.57-8.66-4.16c-2.75-1.59-5.36-3.4-7.64-5.55c-1.13-1.08-2.2-2.24-3.04-3.56c-0.4-0.67-0.8-1.36-1.01-2.14
				c-0.23-0.77-0.24-1.65,0.17-2.41c0.42-0.76,1.22-1.18,1.96-1.39c0.77-0.21,1.54-0.26,2.31-0.26c1.53,0,3.02,0.24,4.49,0.48
				c0.73,0.12,1.46,0.24,2.19,0.35c0.36,0.05,0.72,0.1,1.08,0.12c0.34,0.02,0.75,0.04,0.96-0.05c0.07-0.04,0.02,0.01,0.06-0.05
				c0.03-0.07,0.05-0.15,0.06-0.22c0.03-0.15,0.02-0.29-0.02-0.43c-0.08-0.28-0.3-0.54-0.55-0.77c-0.51-0.45-1.15-0.85-1.72-1.28
				c-2.33-1.72-4.55-3.54-6.53-5.57c-0.98-1.01-1.91-2.08-2.68-3.26c-0.74-1.17-1.43-2.5-1.32-3.98c0.05-0.72,0.36-1.44,0.85-1.97
				c0.49-0.54,1.13-0.88,1.77-1.13c1.29-0.49,2.65-0.65,3.97-0.72c1.33-0.07,2.64-0.02,3.93,0.05c0.64,0.03,1.29,0.09,1.91,0.1
				c0.29,0.01,0.6-0.04,0.79-0.18c0.19-0.13,0.25-0.36,0.2-0.63c-0.1-0.56-0.53-0.98-0.98-1.42c-0.44-0.44-0.88-0.89-1.31-1.32
				c-0.87-0.88-1.73-1.75-2.58-2.61c-1.7-1.72-3.37-3.4-5-5.04c-1.59-1.66-3.35-3.14-4.53-5.06c-0.59-0.94-1.05-1.99-1.12-3.11
				c-0.05-1.11,0.3-2.24,1.11-3.02c0.88-0.75,2.05-0.75,3.04-0.67c1.02,0.11,1.99,0.34,2.93,0.56c0.47,0.11,0.94,0.22,1.4,0.3
				c0.46,0.07,0.92,0.12,1.3-0.05c0.79-0.36,0.9-1.44,0.82-2.26l0.01,0.04c-1.85-4.97-3.12-9.53-4.18-13.52
				c-1.03-3.98-1.93-7.41-2.05-10.29c-0.17-2.86,0.49-5.12,1.52-6.24c0.49-0.57,1.01-0.85,1.36-0.98c0.36-0.13,0.55-0.14,0.55-0.14
				s-0.19,0.03-0.54,0.18c-0.34,0.14-0.84,0.43-1.32,0.99c-0.98,1.11-1.61,3.34-1.42,6.17c0.15,2.85,1.06,6.26,2.12,10.24
				c1.08,3.97,2.37,8.53,4.23,13.46l0.01,0.02l0,0.02c0.05,0.48,0.03,0.95-0.09,1.42c-0.13,0.46-0.41,0.96-0.91,1.17
				c-0.49,0.22-1.02,0.16-1.49,0.08c-0.48-0.08-0.95-0.19-1.43-0.29c-0.95-0.22-1.91-0.44-2.89-0.54c-0.96-0.08-2.04-0.05-2.77,0.6
				c-0.69,0.66-1.05,1.72-0.98,2.73c0.07,1.03,0.5,2.02,1.08,2.93c1.14,1.85,2.88,3.31,4.48,4.97c1.63,1.64,3.3,3.32,5.01,5.03
				c0.86,0.86,1.72,1.73,2.59,2.6c0.44,0.44,0.88,0.88,1.32,1.32c0.43,0.42,0.97,0.92,1.1,1.64c0.08,0.34-0.01,0.83-0.37,1.06
				c-0.33,0.23-0.7,0.26-1.04,0.26c-0.66-0.01-1.29-0.07-1.93-0.1c-1.28-0.07-2.58-0.11-3.88-0.05c-1.29,0.07-2.61,0.23-3.82,0.7
				c-0.6,0.24-1.17,0.55-1.6,1.02c-0.42,0.46-0.68,1.06-0.73,1.69c-0.09,1.29,0.53,2.56,1.26,3.69c0.74,1.14,1.65,2.19,2.63,3.19
				c1.95,1.99,4.16,3.8,6.48,5.51c0.58,0.44,1.18,0.8,1.77,1.32c0.28,0.26,0.56,0.57,0.69,0.99c0.06,0.21,0.07,0.44,0.03,0.66
				c-0.02,0.11-0.05,0.21-0.09,0.31c-0.03,0.1-0.2,0.31-0.31,0.32c-0.47,0.18-0.83,0.11-1.21,0.1c-0.38-0.03-0.75-0.08-1.11-0.13
				c-0.73-0.12-1.46-0.23-2.2-0.35c-1.46-0.24-2.93-0.47-4.41-0.47c-0.74,0-1.48,0.06-2.17,0.25c-0.68,0.2-1.33,0.56-1.66,1.15
				c-0.66,1.26,0.06,2.79,0.83,4.03c0.81,1.27,1.86,2.4,2.97,3.46c2.24,2.11,4.82,3.91,7.55,5.48c2.73,1.57,5.63,2.92,8.59,4.12
				c0.75,0.29,1.48,0.61,2.24,0.87l2.32,0.7c1.55,0.47,3.11,0.94,4.67,1.41c0.23,0.07,0.45,0.14,0.66,0.2l-0.25,0.06
				c1.18-1.11,2.36-2.21,3.53-3.31c1.16-1.11,2.39-2.16,3.41-3.37c2.13-2.35,4.13-4.82,5.86-7.42c1.73-2.6,3.25-5.32,4.28-8.2
				c0.52-1.43,0.92-2.91,1.07-4.4c0.04-0.37,0.04-0.74,0.06-1.11c-0.03-0.36-0.02-0.74-0.1-1.09c-0.1-0.71-0.41-1.38-0.94-1.82
				c-0.51-0.44-1.22-0.59-1.93-0.5c-0.71,0.08-1.4,0.31-2.07,0.61c-1.33,0.6-2.56,1.43-3.76,2.26c-0.6,0.42-1.21,0.84-1.81,1.26
				c-0.62,0.41-1.2,0.84-1.96,1.11c-0.11,0.03-0.2,0.06-0.35,0.05c-0.1,0.03-0.35-0.1-0.4-0.16c-0.15-0.14-0.29-0.3-0.38-0.5
				c-0.2-0.41-0.16-0.86-0.05-1.23c0.23-0.76,0.63-1.35,0.93-2c1.29-2.55,2.43-5.14,3.24-7.79c0.42-1.32,0.71-2.66,0.85-4.01
				c0.13-1.33,0.07-2.73-0.59-3.83c-0.64-1.13-1.97-1.59-3.25-1.5c-1.29,0.07-2.54,0.47-3.74,0.95c-1.2,0.49-2.34,1.07-3.46,1.68
				c-0.56,0.31-1.12,0.62-1.68,0.92c-0.28,0.15-0.62,0.29-1,0.3c-0.39,0.03-0.8-0.24-0.95-0.59c-0.32-0.67-0.14-1.43,0.07-1.98
				c0.19-0.59,0.37-1.18,0.56-1.77c0.37-1.17,0.73-2.33,1.09-3.48c0.72-2.3,1.43-4.54,2.12-6.73c0.65-2.2,1.53-4.29,1.64-6.44
				c0.07-1.06-0.04-2.14-0.48-3.06c-0.43-0.9-1.25-1.66-2.15-1.94c-0.94-0.25-1.92,0.17-2.74,0.65c-0.84,0.51-1.6,1.13-2.35,1.74
				c-0.38,0.3-0.76,0.6-1.15,0.88c-0.39,0.27-0.86,0.54-1.39,0.53c-0.53-0.01-0.99-0.33-1.31-0.68c-0.32-0.37-0.56-0.77-0.73-1.21
				l-0.01-0.01l0-0.02c-0.69-5.25-1.72-9.91-2.65-13.94c-0.95-4.03-1.78-7.48-3.02-10.07c-0.64-1.27-1.3-2.37-2.05-3.16
				c-0.74-0.8-1.52-1.32-2.2-1.59C62.79,258.12,61.98,258.5,62,258.45z"/>
		</g>
		<g>
			<path class="st25" d="M64.72,269.3c0.01,0,0.04,0.08,0.09,0.25c0.06,0.19,0.13,0.44,0.22,0.74c0.19,0.69,0.46,1.64,0.79,2.85
				c0.68,2.47,1.63,6.06,2.78,10.5c2.3,8.88,5.36,21.17,8.68,34.76c3.33,13.57,6.34,25.86,8.54,34.79c1.1,4.42,1.99,8.01,2.62,10.54
				c0.29,1.22,0.53,2.17,0.7,2.87c0.07,0.3,0.12,0.55,0.17,0.75c0.04,0.17,0.05,0.26,0.04,0.26c-0.01,0-0.04-0.08-0.09-0.25
				c-0.06-0.19-0.13-0.44-0.22-0.74c-0.19-0.69-0.46-1.64-0.79-2.84c-0.68-2.47-1.63-6.06-2.78-10.5
				c-2.3-8.88-5.36-21.17-8.69-34.76c-3.33-13.57-6.34-25.85-8.54-34.79c-1.1-4.42-1.99-8.01-2.62-10.54
				c-0.29-1.22-0.53-2.17-0.7-2.87c-0.07-0.3-0.12-0.55-0.17-0.75C64.72,269.39,64.71,269.31,64.72,269.3z"/>
		</g>
		<g>
			<path class="st25" d="M61.21,295.25c0.04-0.06,0.78,0.37,1.93,1.14c1.15,0.77,2.7,1.89,4.38,3.17c1.68,1.28,3.18,2.46,4.26,3.31
				c1.08,0.86,1.76,1.38,1.71,1.44c-0.04,0.06-0.79-0.36-1.93-1.15c-1.14-0.78-2.68-1.92-4.36-3.19c-1.59-1.22-3.03-2.32-4.28-3.28
				C61.83,295.84,61.17,295.31,61.21,295.25z"/>
		</g>
		<g>
			<path class="st25" d="M74.16,303.95c-0.12-0.08,1.91-3.34,4.52-7.29c2.62-3.95,4.83-7.08,4.95-7c0.12,0.08-1.91,3.34-4.52,7.29
				C76.5,300.89,74.28,304.03,74.16,303.95z"/>
		</g>
		<g>
			<path class="st25" d="M78.34,325.02c-0.09-0.12,2.56-2.23,5.64-5.03c3.09-2.79,5.46-5.22,5.57-5.12c0.05,0.05-0.48,0.71-1.4,1.73
				c-0.93,1.01-2.26,2.37-3.82,3.77c-1.55,1.41-3.03,2.6-4.13,3.42C79.09,324.61,78.38,325.07,78.34,325.02z"/>
		</g>
		<g>
			<path class="st25" d="M64.98,319.69c0.03-0.07,0.8,0.16,2.02,0.58c1.23,0.42,2.91,1.04,4.75,1.74c1.85,0.71,3.51,1.38,4.7,1.89
				c1.19,0.51,1.92,0.86,1.89,0.92c-0.03,0.07-0.8-0.16-2.02-0.58c-1.23-0.42-2.91-1.04-4.75-1.75c-1.85-0.71-3.51-1.38-4.7-1.89
				C65.68,320.11,64.95,319.76,64.98,319.69z"/>
		</g>
		<g>
			<path class="st25" d="M66.33,338.69c0.03-0.07,1.01,0.23,2.58,0.77c1.57,0.54,3.73,1.31,6.1,2.2c2.37,0.89,4.51,1.72,6.05,2.34
				c1.54,0.62,2.48,1.04,2.45,1.11c-0.03,0.07-1.01-0.23-2.58-0.77c-1.57-0.54-3.73-1.31-6.1-2.2c-2.37-0.89-4.51-1.72-6.05-2.34
				C67.24,339.18,66.31,338.76,66.33,338.69z"/>
		</g>
		<g>
			<path class="st25" d="M83.15,344.84c-0.05-0.06,0.74-0.79,2.02-1.97c1.28-1.18,3.04-2.8,4.95-4.63c1.91-1.83,3.61-3.52,4.84-4.75
				c1.23-1.23,2-1.98,2.05-1.93c0.05,0.05-0.62,0.89-1.79,2.18c-1.16,1.29-2.83,3.03-4.75,4.87c-1.92,1.84-3.73,3.42-5.07,4.53
				C84.06,344.26,83.19,344.9,83.15,344.84z"/>
		</g>
	</g>
	<g>
		<g>
			<g>
				<path class="st62" d="M91.88,430.6c14.5-14.07,14.77-35.88,11.04-54.83c-0.62-3.16-0.82-6.57-2.78-9.12
					c-1.97-2.55-5.81-3.88-8.44-2.08c-2.18,1.5-2.77,4.41-3.72,6.9c-1.27,3.31-3.48,6.24-6.31,8.34c-1.86,1.38-4.26,2.43-6.44,1.65
					c-2.99-1.07-3.93-4.81-4.42-7.98c-0.92-5.9-1.84-11.81-2.76-17.71c-0.49-3.17-1.01-6.4-2.48-9.24c-1.47-2.84-4.1-5.28-7.24-5.64
					c-3.15-0.35-6.59,1.98-6.72,5.18c-0.06,1.33,0.42,2.63,0.55,3.95c0.13,1.33-0.25,2.88-1.44,3.45c-1.2,0.58-2.61-0.12-3.71-0.89
					c-3.78-2.67-6.67-6.42-9.4-10.18s-5.42-7.62-8.95-10.63c-3.53-3-8.08-5.1-12.65-4.62c-4.57,0.48-8.95,4.06-9.37,8.69
					c-0.43,4.65,2.91,8.75,6.33,11.9c5.07,4.68,10.81,8.61,16.98,11.63c1.11,0.55,2.32,1.14,2.89,2.25c1.03,2-0.63,4.42-2.6,5.45
					c-2.23,1.17-4.83,1.34-7.25,2.03c-2.42,0.69-4.92,2.21-5.47,4.7c-0.77,3.44,2.48,6.4,5.5,8.18c6.05,3.58,12.71,6.11,19.58,7.43
					c2.47,0.47,5.04,0.82,7.18,2.16c2.14,1.33,3.74,3.99,2.96,6.4c-0.77,2.42-3.57,3.6-6.08,3.54c-2.51-0.06-4.91-1.03-7.37-1.53
					c-4.61-0.94-10.18,0.27-12.36,4.48c-1.43,2.77-1.03,6.23,0.37,9.03c1.4,2.79,3.69,5.03,6.06,7.04
					c8.29,7.05,18.28,12.18,28.94,14.05C72.94,436.46,82.45,435.89,91.88,430.6L91.88,430.6z"/>
			</g>
		</g>
		<g>
			<g>
				<g>
					<path class="st25" d="M91.43,434.91c-1.71-4.88-3.84-10.08-6.41-15.46c-4.36-9.16-9.98-18.81-16.2-28.7
						c-1.56-2.47-3.11-4.9-4.63-7.31c-1.53-2.39-3.04-4.77-4.66-7c-3.23-4.48-6.67-8.54-10.07-12.28c-3.39-3.75-6.75-7.19-9.9-10.38
						c-3.17-3.19-6.18-6.1-9.03-8.64c-5.7-5.1-10.77-8.66-14.35-10.97c-1.79-1.16-3.21-2.01-4.18-2.57
						c-0.47-0.27-0.83-0.48-1.11-0.64c-0.25-0.14-0.38-0.21-0.39-0.2c-0.01,0.01,0.11,0.09,0.36,0.25c0.27,0.17,0.62,0.4,1.08,0.69
						c0.95,0.6,2.34,1.48,4.11,2.67c3.54,2.36,8.55,5.96,14.2,11.09c2.83,2.55,5.81,5.48,8.96,8.67c3.14,3.2,6.48,6.65,9.85,10.4
						c3.37,3.75,6.79,7.8,10,12.26c1.61,2.22,3.11,4.58,4.64,6.98c1.52,2.4,3.07,4.84,4.63,7.3c6.22,9.88,11.83,19.5,16.21,28.62
						c2.56,5.3,4.68,10.42,6.4,15.24C91.1,434.91,91.26,434.9,91.43,434.91z"/>
				</g>
			</g>
		</g>
		<g>
			<g>
				<g>
					<path class="st25" d="M59.35,376.44c0.04,0,0.07-0.5,0.09-1.4c0.02-0.9,0.02-2.21-0.02-3.82c-0.06-3.22-0.3-7.67-0.58-12.57
						c-0.28-4.91-0.46-9.34-0.47-12.56c-0.01-1.61-0.01-2.91,0.01-3.81c0.01-0.9-0.01-1.4-0.05-1.4c-0.04,0-0.1,0.49-0.18,1.39
						c-0.08,0.9-0.15,2.2-0.19,3.81c-0.09,3.23,0.02,7.69,0.3,12.6c0.29,4.84,0.55,9.21,0.76,12.56c0.08,1.51,0.15,2.78,0.2,3.81
						C59.26,375.95,59.31,376.44,59.35,376.44z"/>
				</g>
			</g>
		</g>
		<g>
			<g>
				<g>
					<path class="st25" d="M17.43,375.43c0.01,0.04,0.6,0.01,1.65-0.07c1.06-0.08,2.59-0.19,4.49-0.28c3.79-0.2,9.04-0.3,14.83-0.15
						c5.8,0.16,11.03,0.53,14.81,0.9c1.89,0.17,3.42,0.36,4.48,0.48c1.06,0.12,1.64,0.17,1.65,0.13c0.01-0.04-0.57-0.17-1.62-0.36
						c-1.05-0.19-2.57-0.44-4.47-0.66c-3.78-0.48-9.03-0.92-14.85-1.08c-5.81-0.15-11.08,0.01-14.87,0.33
						c-1.9,0.14-3.43,0.32-4.48,0.47C18.01,375.29,17.43,375.39,17.43,375.43z"/>
				</g>
			</g>
		</g>
		<g>
			<g>
				<g>
					<path class="st25" d="M84.4,418.78c0.02,0.01,0.09-0.18,0.2-0.54c0.12-0.43,0.27-0.95,0.46-1.58c0.39-1.38,0.9-3.39,1.51-5.88
						c1.21-4.98,2.66-11.91,4.16-19.58c1.5-7.67,2.88-14.61,3.99-19.6c0.54-2.43,0.99-4.43,1.32-5.91c0.14-0.64,0.26-1.18,0.35-1.61
						c0.07-0.37,0.1-0.57,0.08-0.57c-0.02,0-0.09,0.18-0.2,0.54c-0.12,0.43-0.27,0.95-0.46,1.58c-0.39,1.38-0.9,3.39-1.51,5.88
						c-1.21,4.98-2.66,11.91-4.16,19.58c-1.5,7.67-2.88,14.6-3.99,19.6c-0.54,2.43-0.99,4.43-1.32,5.91
						c-0.14,0.64-0.26,1.18-0.35,1.61C84.41,418.58,84.38,418.77,84.4,418.78z"/>
				</g>
			</g>
		</g>
		<g>
			<g>
				<g>
					<path class="st25" d="M27.51,410.12c0,0.02,0.2,0.07,0.57,0.13c0.45,0.07,0.99,0.16,1.66,0.27c1.53,0.24,3.59,0.55,6.09,0.94
						c5.14,0.79,12.24,1.97,20.07,3.28c7.84,1.31,14.95,2.42,20.11,3.11c2.58,0.34,4.67,0.6,6.12,0.75
						c0.67,0.06,1.22,0.12,1.67,0.16c0.38,0.03,0.58,0.04,0.59,0.02c0-0.02-0.2-0.07-0.57-0.14c-0.44-0.07-0.99-0.16-1.66-0.27
						c-1.53-0.24-3.59-0.55-6.09-0.94c-5.14-0.79-12.24-1.97-20.08-3.28c-7.84-1.31-14.95-2.42-20.11-3.11
						c-2.58-0.34-4.67-0.6-6.12-0.75c-0.67-0.06-1.22-0.12-1.67-0.16C27.72,410.1,27.52,410.1,27.51,410.12z"/>
				</g>
			</g>
		</g>
	</g>
	<g>
		<g>
			<g id="freepik--character-4--inject-11_1_">
				<path class="st79" d="M389.35,112.08c-6.77-2.91-14.64,1.25-17.67,5.85c-3.04,4.6-4.35,10.12-5.22,15.59
					c-1.78,11.24-2.06,22.66-0.83,33.97c0.36,3.33,1.01,6.95,3.56,9.13c2.55,2.18,5.94,2.25,9.08,1.7c2.83-0.49,5.71-1.57,7.55-3.77
					c2.83-3.39,2.46-8.31,2.16-12.72c-1.04-15.2,0.55-30.46,4.72-45.11"/>
				<path class="st79" d="M374.6,118.23c3.1-6.17,12.54-9.5,20.16-7.44c6.44,1.74,13.31,8.34,13.79,15.1
					c0.67,9.85-4.65,19.91-1.5,29.25c3.67,10.89,17.18,16.16,20.64,27.12c1.44,4.58,0.9,9.55-1.48,13.72
					c-1.22,2.1-3.08,4.05-5.48,4.44c-2.99,0.48-5.76-1.53-8.11-3.43c-6.39-5.13-12.88-10.38-17.33-17.27
					c-5.24-8.11-7.26-17.93-7.34-27.61c-0.08-9.68,1.64-19.22,3.36-28.71"/>
				<path class="st75" d="M401.53,130.19c1-7.97-4.64-15.24-12.61-16.25c-0.15-0.02-0.31-0.04-0.46-0.05
					c-7.75-0.74-14.64,5.04-15.81,12.74c-1.02,6.75-1.89,13.57-1.89,16.04c0.09,7.46,4.46,10.38,6.23,11.24
					c0.64,0.23,1.29,0.39,1.96,0.49l0,0c0.01,0.02,0.01,0.04,0,0.06l-1.66,8.57c-0.75,5.61,2.39,10.62,7.98,11.44
					s10.02-3.49,10.88-9.11L401.53,130.19z"/>
				<path class="st80" d="M379.04,154.47c0,0,4.82,1.1,11.46-1.67c0,0-2.83,6.17-11.91,3.97L379.04,154.47z"/>
				<path class="st79" d="M378.45,114.84c0.93,5.78,5.06,10.53,10.65,12.27l-0.42-2.11c2.48,4.84,6.68,8.57,11.78,10.46
					c4.19-7.1,1.82-16.25-5.28-20.44c-5.24-3.09-11.83-2.69-16.66,1.01"/>
				<path class="st79" d="M426.78,188.05c0.57-0.7,1.05-1.46,1.45-2.27c1-2.25,1.26-4.76,0.75-7.17c-0.33-1.66-0.95-3.26-1.82-4.72
					c-1.01-1.66-2.21-3.2-3.57-4.59c-2.83-3-6.61-5.66-9.97-9.04c-1.7-1.62-3.1-3.54-4.11-5.66c-0.9-2-1.49-4.12-1.76-6.29
					c-0.37-3.66-0.37-7.36,0-11.02c0.24-3.12,0.48-5.66,0.64-7.39c0.08-0.84,0.14-1.5,0.19-2.01c0.02-0.24,0.05-0.47,0.1-0.7
					c0.02,0.24,0.02,0.47,0,0.71c0,0.51-0.06,1.18-0.1,2.01c-0.11,1.8-0.28,4.32-0.49,7.4c-0.3,3.65-0.25,7.31,0.15,10.95
					c0.28,2.13,0.86,4.2,1.75,6.15c1,2.08,2.36,3.96,4.03,5.55c3.36,3.35,7.1,6.01,9.95,9.06c1.38,1.42,2.58,3.01,3.59,4.72
					c0.88,1.49,1.5,3.13,1.82,4.83c0.49,2.48,0.16,5.04-0.94,7.31c-0.31,0.6-0.68,1.17-1.12,1.69
					C427.13,187.73,426.96,187.9,426.78,188.05z"/>
				<path class="st72" d="M434.02,419.71l4.47,21.93l8.54,16.32c0.59,1.12,0.16,2.51-0.96,3.1c-0.05,0.03-0.1,0.05-0.15,0.07l0,0
					c-0.68,0.29-1.46,0.24-2.09-0.13c-4.06-2.43-18.94-11.46-19.17-13.09c-0.28-1.89-6.26-22.82-6.26-22.82L434.02,419.71z"/>
				<g class="st81">
					<path class="st82" d="M445.93,461.14l-21.61-14.69l0.21,0.94c0.18,0.8,0.64,1.51,1.3,2c1.76,1.31,6.68,4.83,17.93,11.65
						c0.66,0.39,1.47,0.44,2.16,0.11L445.93,461.14z"/>
				</g>
				<g class="st81">
					<path class="st82" d="M427.2,438.38c0.65,0.28,0.98,1.01,0.76,1.68c-0.25,0.67-0.99,1.01-1.66,0.78
						c-0.68-0.3-1.03-1.07-0.8-1.78c0.34-0.66,1.14-0.94,1.81-0.62"/>
				</g>
				<path class="st59" d="M438.77,452.73c0.37-0.8,0.89-1.53,1.53-2.13c0.73-0.5,1.54-0.86,2.4-1.06c0-0.06-0.3-0.16-0.83-0.11
					c-1.41,0.15-2.6,1.12-3.04,2.46C438.67,452.39,438.71,452.72,438.77,452.73z"/>
				<path class="st59" d="M440.99,455.29c0.13,0.07,0.67-0.8,1.72-1.38c0.68-0.29,1.37-0.55,2.08-0.76
					c-0.78-0.27-1.64-0.14-2.31,0.34C441.27,454.15,440.86,455.26,440.99,455.29z"/>
				<path class="st59" d="M435.02,449.64c0.77-0.84,1.61-1.61,2.51-2.31c0.99-0.57,2.01-1.07,3.07-1.49
					c-2.43,0.07-4.61,1.54-5.58,3.77V449.64z"/>
				<path class="st59" d="M433.11,443.09c0.08,0.11,1.18-0.66,2.74-1.08c1.56-0.42,2.88-0.32,2.9-0.47
					c-2.03-0.58-4.21,0.02-5.66,1.55H433.11z"/>
				<path class="st59" d="M431.63,436.69c0.89-0.52,1.84-0.92,2.83-1.19c1.02-0.12,2.05-0.1,3.06,0.07c0-0.06-0.27-0.27-0.84-0.45
					c-1.52-0.44-3.16-0.12-4.42,0.85C431.79,436.33,431.59,436.65,431.63,436.69z"/>
				<path class="st59" d="M434.13,434.28c0.01-0.28-0.04-0.57-0.15-0.83c-0.25-0.74-0.64-1.42-1.15-2.01
					c-0.34-0.46-0.82-0.79-1.37-0.94c-0.37-0.06-0.74,0.11-0.94,0.42c-0.18,0.33-0.22,0.71-0.12,1.07c0.45,1.49,1.89,2.45,3.43,2.29
					c1.51-0.19,2.75-1.27,3.16-2.74c0.1-0.37,0.03-0.76-0.18-1.08c-0.26-0.29-0.67-0.39-1.03-0.25c-0.51,0.24-0.95,0.61-1.26,1.08
					c-0.49,0.61-0.86,1.3-1.1,2.04c-0.11,0.26-0.17,0.54-0.17,0.83c0.38-0.95,0.9-1.85,1.54-2.65c0.29-0.4,0.68-0.73,1.12-0.94
					c0.2-0.09,0.43-0.03,0.57,0.14c0.13,0.21,0.15,0.47,0.08,0.71c-0.38,1.27-1.47,2.19-2.78,2.36c-1.3,0.12-2.51-0.65-2.94-1.89
					c-0.07-0.25-0.05-0.51,0.05-0.75c0.1-0.19,0.32-0.29,0.53-0.25c0.47,0.14,0.88,0.42,1.18,0.8
					C433.24,432.46,433.77,433.33,434.13,434.28z"/>
				<path class="st72" d="M374.81,422.01l1.04,17.81c0,0-17.75,7.04-17.88,10.38l34.6-0.77l-0.47-27.82L374.81,422.01z"/>
				<g class="st81">
					<path class="st82" d="M386.52,438.08c0.69,0.19,1.13,0.88,1.01,1.59c-0.16,0.7-0.86,1.15-1.57,1.02
						c-0.74-0.2-1.2-0.94-1.07-1.69c0.25-0.72,1.03-1.1,1.76-0.88"/>
				</g>
				<g class="st81">
					<path class="st82" d="M392.57,449.4l-0.15-2.83l-33.12,1.78c0,0-1.53,0.71-1.33,1.79L392.57,449.4z"/>
				</g>
				<path class="st59" d="M375.29,439.66c0,0.17,0.85,0.23,1.7,0.75c0.85,0.52,1.3,1.23,1.45,1.16c0.15-0.07-0.12-1.05-1.15-1.66
					C376.27,439.29,375.25,439.5,375.29,439.66z"/>
				<path class="st59" d="M371.69,441.23c0,0.17,0.71,0.44,1.29,1.14s0.77,1.45,0.94,1.44c0.17-0.01,0.25-0.94-0.49-1.83
					C372.69,441.1,371.69,441.07,371.69,441.23z"/>
				<path class="st59" d="M369.73,445.63c0.16,0,0.38-0.82-0.08-1.74c-0.46-0.92-1.25-1.26-1.32-1.12s0.43,0.62,0.79,1.39
					C369.47,444.92,369.56,445.61,369.73,445.63z"/>
				<path class="st59" d="M375.5,435.57c0.08,0.15,0.85-0.1,1.8-0.06c0.95,0.05,1.71,0.33,1.79,0.18c0.08-0.15-0.64-0.74-1.77-0.76
					C376.19,434.9,375.42,435.44,375.5,435.57z"/>
				<g class="st3">
					<polygon points="375.03,425.53 375.21,428.71 392.21,428.18 392.16,425.32 					"/>
				</g>
				<path class="st59" d="M375.36,431.98c0.57,0.14,1.17,0.12,1.74-0.05c0.62-0.13,1.23-0.33,1.8-0.6c0.33-0.16,0.64-0.34,0.94-0.55
					c0.19-0.11,0.36-0.25,0.51-0.42c0.25-0.26,0.27-0.66,0.06-0.94c-0.18-0.23-0.45-0.37-0.75-0.37c-0.22,0.01-0.44,0.04-0.65,0.1
					c-0.37,0.1-0.72,0.23-1.07,0.4c-0.58,0.28-1.11,0.64-1.58,1.09c-0.78,0.75-1.05,1.4-0.99,1.42c0.06,0.03,0.46-0.48,1.26-1.11
					c0.47-0.38,0.98-0.7,1.53-0.94c0.3-0.14,0.62-0.25,0.94-0.33c0.37-0.1,0.68-0.11,0.77,0.05c0.09,0.16,0.05,0.08,0,0.2
					c-0.11,0.12-0.24,0.22-0.38,0.3c-0.3,0.2-0.62,0.38-0.94,0.55c-0.53,0.28-1.09,0.5-1.66,0.68
					C376.38,431.58,375.86,431.76,375.36,431.98z"/>
				<path class="st59" d="M375.59,432.21c0.31-0.51,0.46-1.1,0.42-1.69c0.02-0.64-0.07-1.28-0.27-1.89
					c-0.12-0.36-0.27-0.71-0.46-1.05c-0.21-0.46-0.63-0.78-1.13-0.85c-0.31,0.02-0.59,0.21-0.71,0.5c-0.09,0.2-0.14,0.42-0.17,0.64
					c-0.13,1.05,0.16,2.11,0.81,2.94c0.7,0.88,1.41,1.07,1.42,1.01c0.01-0.06-0.54-0.41-1.08-1.25c-0.31-0.49-0.51-1.04-0.59-1.61
					c-0.05-0.33-0.05-0.67,0-1c0.05-0.37,0.18-0.67,0.31-0.63c0.13,0.04,0.47,0.25,0.62,0.55c0.17,0.3,0.33,0.62,0.45,0.94
					c0.2,0.55,0.33,1.13,0.37,1.72C375.66,431.55,375.49,432.19,375.59,432.21z"/>
				<path class="st83" d="M401.71,231.45c0,0,10.17,22.09,11.71,28.53s29.94,176.73,29.94,176.73l-26.1,1.59l-35.44-166.58
					l14.26,165.37l-25.68,2.14c0,0-19.41-174.75-18.59-179.68c1.25-7.44,7.55-28.86,7.55-28.86L401.71,231.45z"/>
				<path class="st61" d="M381.62,270.65c0,0,0,0.14-0.22,0.28c-0.32,0.16-0.71,0.13-1-0.09c-0.38-0.4-0.6-0.92-0.61-1.47
					l-0.34-2.03c-0.5-3.01-1.15-7.18-1.83-11.78c-0.68-4.6-1.29-8.78-1.7-11.79c-0.18-1.44-0.33-2.65-0.45-3.59
					c-0.08-0.44-0.11-0.88-0.1-1.32c0.14,0.42,0.24,0.85,0.29,1.29c0.16,0.94,0.36,2.12,0.6,3.56c0.5,3.01,1.15,7.17,1.89,11.78
					c0.74,4.6,1.28,8.78,1.69,11.79c0.09,0.75,0.19,1.42,0.26,2.04c0,0.5,0.16,0.98,0.47,1.37c0.23,0.21,0.55,0.27,0.84,0.16
					C381.55,270.75,381.59,270.63,381.62,270.65z"/>
				<path class="st61" d="M378.95,242.22c0,0,0-0.15,0.25-0.29c0.31-0.18,0.68-0.23,1.03-0.15c0.56,0.11,1,0.56,1.09,1.12
					c0.13,0.7-0.21,1.4-0.84,1.74c-0.64,0.29-1.38,0.16-1.89-0.32c-0.4-0.39-0.57-0.96-0.44-1.5c0.23-0.94,0.87-1.11,0.86-1.06
					c-0.26,0.33-0.44,0.71-0.52,1.11c-0.06,0.42,0.09,0.84,0.41,1.11c0.38,0.33,0.92,0.42,1.38,0.22c0.44-0.25,0.68-0.73,0.61-1.23
					c-0.05-0.41-0.34-0.75-0.74-0.87C379.74,242.01,379.32,242.05,378.95,242.22z"/>
				<path class="st75" d="M334.01,133.89l-15.99-24.71l0,0l-4.87-8.13c0,0-1.44-8.15-2.13-10.45c-1.43-4.72-1.89-4.6-2.38-4.33
					c-1.4,0.7,2.2,8.4,0.46,7.19s-3.3-9.93-4.72-9.14c-1.89,1.04,2.05,9.02,2.33,9.73c0.28,0.71-0.73,1.12-0.94,0.48
					c-0.32-0.94-3.88-10.61-5.73-9.61c-1.02,0.55,0.14,2.29,0.14,2.29s4,8.8,3.11,9.25c-0.89,0.44-3.43-4.65-4.15-6.43
					s-1.89-2.12-2.36-1.16c-0.35,0.66,1.76,6.15,2.52,7.9s2.93,6.47,0,5.01s-5.8-1.46-6.61-0.94c-0.43,0.38-0.48,1.03-0.1,1.46
					c0.21,0.24,0.51,0.37,0.83,0.36c1.11,0.14,2.19,0.44,3.22,0.88c0.84,0.32,1.62,0.78,2.3,1.37c0.8,0.68,1.44,1.29,1.98,1.82
					l3.97,8.26l0,0l17.54,34.43l36.73,30.42l9.27-16.7L334.01,133.89z"/>
				<path class="st75" d="M428.89,271.82c0.23,0.73,0.47,1.58,0.71,2.59c0.21,0.88,0.26,1.78,0.16,2.68
					c-0.08,1.11-0.31,2.21-0.69,3.26c-0.45,0.94,0.46,1.89,1.28,1.47s2.12-2.96,2.18-6.27c0.06-3.31,3.27,0.79,4.47,2.27
					c1.2,1.48,5.12,5.86,5.87,5.85c1.09,0,1.27-1.19,0.05-2.63c-1.23-1.44-4.61-6.04-3.77-6.61c0.84-0.57,6.78,7,6.78,7
					s1.02,1.83,1.98,1.18c1.73-1.19-5.24-8.78-5.93-9.49c-0.47-0.49,0.39-1.17,0.87-0.61s5.8,7.71,7.55,6.52
					c1.36-0.94-5.66-6.3-5.95-8.4c-0.29-2.09,4.92,4.63,6.18,3.71c0.46-0.35,0.77-0.67-2.77-4.1c-1.72-1.67-8.3-6.69-8.3-6.69
					l-13.96-45.88l-17.32,0.28L428.89,271.82z"/>
				<path class="st84" d="M375.29,163.1L375.29,163.1c-2.82-1.08-5.58-2.31-8.27-3.69l-27.48-20.82l-12.27,16.38
					c0,0,31.36,28.31,31.87,28.16C359.68,182.98,375.29,163.1,375.29,163.1z"/>
				<path class="st84" d="M377.37,163.03l-2.08,0.07c-6,0.2-11.25,4.12-13.14,9.82c-2.09,6.3-1.97,8.36-3.43,13.07
					c-3.47,11.25,2.76,24.9,2.76,24.9l-2.15,19.82l42.38,0.76l2.13-23.85l7.92-35.72c0,0-1.76-7.66-8.49-8.28
					C399.78,163.28,377.37,163.03,377.37,163.03z"/>
				<path class="st84" d="M404.52,164.22c0,0,10.04-0.05,13.1,11.53s9.16,42.03,9.16,42.03l-19.02,5.72l-10.23-41.79
					c-0.71-2.37-0.99-4.85-0.82-7.31C397.02,170.21,398.58,164.79,404.52,164.22z"/>
				<polygon class="st84" points="374.36,163.6 377.71,157.19 383.37,160.4 383.37,163.18 385.16,160.4 398.52,157.19 
					398.52,165.11 382.93,166.81 				"/>
				<path class="st59" d="M363.9,173.34c-0.2,0.47-0.44,0.93-0.71,1.36c-0.25,0.42-0.54,0.94-0.83,1.58s-0.68,1.32-1,2.14
					c-0.32,0.82-0.72,1.69-1.03,2.67s-0.64,2.03-0.94,3.13c-1.26,4.87-1.58,9.93-0.94,14.92c0.17,1.14,0.3,2.24,0.55,3.24
					c0.18,0.94,0.41,1.86,0.68,2.77c0.21,0.86,0.5,1.59,0.72,2.26c0.18,0.57,0.38,1.13,0.62,1.67c0.21,0.47,0.38,0.95,0.52,1.44
					c-0.27-0.44-0.5-0.9-0.7-1.37c-0.27-0.54-0.5-1.09-0.71-1.65c-0.24-0.66-0.56-1.4-0.78-2.25c-0.3-0.93-0.55-1.87-0.75-2.83
					c-0.25-1.01-0.41-2.1-0.59-3.26c-0.32-2.5-0.41-5.03-0.26-7.55c0.18-2.53,0.6-5.04,1.24-7.5c0.33-1.12,0.62-2.19,1.01-3.16
					c0.32-0.91,0.69-1.8,1.1-2.67c0.32-0.73,0.67-1.43,1.07-2.12c0.28-0.54,0.6-1.06,0.94-1.56
					C363.33,174.15,363.6,173.73,363.9,173.34z"/>
				<path class="st59" d="M382.37,159.9c-0.09,0.66-0.25,1.31-0.5,1.93c-0.37,1.18-0.94,2.83-1.53,4.57
					c-0.1,0.27-0.2,0.55-0.29,0.81l-0.1,0.28l-0.25-0.15c-1.22-0.74-2.35-1.61-3.38-2.59c-0.44-0.38-0.82-0.82-1.11-1.32
					c1.5,1.26,3.07,2.43,4.72,3.49l-0.36,0.13l0.29-0.82c0.62-1.77,1.22-3.37,1.66-4.51C381.72,161.08,382.01,160.47,382.37,159.9z"
					/>
				<path class="st59" d="M393.34,165.79c-0.64,0.36-1.32,0.65-2.02,0.86c-1.26,0.48-3.02,1.1-4.99,1.77l-0.28,0.1v-0.29v-0.25
					c-0.31-2.11-0.56-4.03-0.72-5.42c-0.13-0.75-0.19-1.51-0.16-2.26c0.25,0.72,0.41,1.46,0.5,2.22c0.25,1.37,0.56,3.28,0.87,5.39
					v0.25l-0.32-0.2c1.97-0.66,3.77-1.24,5.05-1.63C391.93,166.07,392.62,165.89,393.34,165.79z"/>
				<path class="st59" d="M400.36,223c1.89,2.02,2.38,4.97,1.24,7.49c0.14-1.28,0.14-2.57,0-3.85
					C401.31,225.39,400.89,224.17,400.36,223z"/>
				<path class="st64" d="M425.16,211.08c-0.88,0.37-1.79,0.65-2.72,0.83c-1.7,0.44-4.06,0.94-6.69,1.48
					c-2.63,0.54-5.04,0.84-6.78,1.05c-0.94,0.16-1.88,0.22-2.83,0.21c0.93-0.26,1.87-0.45,2.83-0.56c1.72-0.29,4.1-0.69,6.73-1.18
					s4.99-0.94,6.71-1.33C423.32,211.34,424.24,211.18,425.16,211.08z"/>
				<path class="st64" d="M423,199.49c-0.91,0.44-1.85,0.79-2.83,1.04c-1.76,0.55-4.21,1.21-6.93,1.89
					c-2.72,0.68-5.18,1.27-6.95,1.74c-0.95,0.29-1.91,0.53-2.89,0.7c0.91-0.44,1.85-0.78,2.83-1.03c1.76-0.56,4.21-1.22,6.93-1.89
					c2.72-0.67,5.18-1.26,6.95-1.74C421.06,199.9,422.02,199.67,423,199.49z"/>
				<path class="st59" d="M407.73,223.5c-0.15-0.36-0.27-0.73-0.35-1.1c-0.2-0.81-0.46-1.83-0.76-3.05
					c-0.62-2.58-1.45-6.14-2.35-10.09c-0.9-3.94-1.66-7.55-2.21-10.12c-0.25-1.22-0.44-2.25-0.61-3.08
					c-0.09-0.37-0.14-0.76-0.16-1.14c0.16,0.35,0.28,0.72,0.35,1.09l0.76,3.05c0.63,2.58,1.46,6.14,2.35,10.1s1.67,7.55,2.21,10.12
					c0.25,1.23,0.45,2.26,0.61,3.09C407.68,222.73,407.73,223.11,407.73,223.5z"/>
				<path class="st64" d="M421.98,190.61c0,0.13-14.22-0.14-31.75-0.61c-17.53-0.47-31.74-0.94-31.74-1.09
					c0-0.15,14.22,0.13,31.75,0.6S421.98,190.46,421.98,190.61z"/>
				<path class="st64" d="M417.11,174.44c-0.18,0.05-0.36,0.08-0.55,0.08l-1.58,0.13c-1.38,0.11-3.36,0.25-5.82,0.4
					c-4.92,0.29-11.71,0.61-19.22,0.82c-7.51,0.21-14.31,0.25-19.23,0.22c-2.46,0-4.45,0-5.83-0.08l-1.59-0.06
					c-0.19,0-0.37-0.02-0.56-0.05c0.18-0.03,0.37-0.03,0.56,0l1.59-0.05l5.82-0.08c4.93-0.06,11.72-0.16,19.23-0.36
					s14.3-0.47,19.21-0.68l5.83-0.24h1.59C416.75,174.47,416.93,174.45,417.11,174.44z"/>
				<path class="st64" d="M349.17,175.17c-0.1-0.09,3.14-4,7.24-8.73s7.55-8.49,7.61-8.41c0.07,0.08-3.14,3.99-7.24,8.73
					C352.68,171.5,349.27,175.23,349.17,175.17z"/>
				<path class="st64" d="M402.38,208.25c0,0.14-9.7-0.72-21.64-1.89c-11.94-1.17-21.61-2.26-21.6-2.41
					c0.01-0.14,9.7,0.73,21.65,1.89C392.74,207.01,402.39,208.16,402.38,208.25z"/>
				<path class="st64" d="M402.87,221.35c0,0.14-9.44,0-21-0.23s-21-0.59-21-0.72c0-0.13,9.44,0,21,0.23
					C393.44,220.86,402.87,221.22,402.87,221.35z"/>
				<path class="st59" d="M374.36,230.56c-0.02-0.23-0.02-0.47,0-0.7c0-0.45,0-1.13,0-1.99c0-1.74,0.13-4.25,0.34-7.34
					c0.1-1.55,0.24-3.24,0.42-5.05s0.46-3.77,0.72-5.77c0.51-4.07,0.94-8.55,1.42-13.21c0.65-8.06,1.8-16.06,3.44-23.98
					c0.69-3.02,1.4-5.44,1.89-7.09c0.26-0.78,0.48-1.42,0.65-1.89c0.06-0.23,0.15-0.44,0.25-0.65c-0.03,0.23-0.08,0.46-0.16,0.68
					c-0.15,0.48-0.33,1.12-0.57,1.89c-0.47,1.66-1.12,4.09-1.76,7.11c-1.54,7.91-2.64,15.9-3.29,23.94
					c-0.47,4.72-0.94,9.19-1.45,13.21c-0.27,2.03-0.56,3.95-0.76,5.76c-0.21,1.8-0.36,3.5-0.49,5.04c-0.25,3.09-0.39,5.59-0.48,7.31
					l-0.11,1.99C374.42,230.06,374.4,230.31,374.36,230.56z"/>
				<g class="st3">
					<path d="M401.58,197.01c-4.61,7.22-4.32,16.53,0.72,23.46c0.63-4.4,1.26-8.81,1.89-13.21"/>
				</g>
				<path class="st79" d="M395.64,131.09c1.21,2.48,0.61,5.45-0.26,8.08c-0.88,2.62-2,5.27-1.77,8.03c0.21,2.56,1.59,4.91,1.83,7.46
					c0.42,4.3-2.33,8.21-3.46,12.39c-1.43,5.47-0.06,11.3,3.67,15.56c0.33,0.47,0.85,0.77,1.42,0.84c0.67-0.09,1.19-0.62,1.29-1.28
					c0.08-0.65,0.06-1.31-0.05-1.95c-0.52-6.17,5.42-11.12,6.27-17.25c0.57-3.99-1.09-7.94-1.33-11.96
					c-0.31-5.06,1.59-9.96,2.22-14.99c0.29-1.71,0.19-3.47-0.29-5.14c-0.5-1.69-1.8-3.03-3.47-3.58c-1.73-0.48-3.55,0.42-4.22,2.09"
					/>
			</g>
			<g id="freepik--character-1--inject-11_1_">
				<path class="st85" d="M130.07,111.3c-8.49,0-15.8,5.99-17.48,14.31c-0.73,4.19,0.07,8.75-1.89,12.53
					c-2.56,5.02-9.27,7.33-10.77,12.77c-1.26,4.54,1.72,9.44,0.44,13.99c-0.94,3.28-3.86,5.6-5.29,8.68
					c-1.4,3.05-1.16,6.61,0.65,9.44c1.88,2.79,5.15,4.29,8.49,3.9c2.07-0.3,3.93-1.35,5.93-2c4.29-1.41,8.95-0.94,13.43-0.27
					c4.47,0.67,9.07,1.35,13.47,0.31c4.4-1.04,8.62-4.29,9.28-8.77c0.42-2.9-0.67-5.77-1.57-8.57c-5.86-18.45-3.15-38.57-7.31-57.47
					"/>
				<path class="st85" d="M113.69,128.29c-1.12-1.47-2.45-2.76-3.93-3.85c-1.51-1.09-3.37-1.58-5.22-1.36
					c-1.87,0.27-3.4,1.64-3.86,3.47c-0.34,1.85,0.88,3.63,2.73,3.97c0.03,0.01,0.06,0.01,0.1,0.02c-1.38-0.52-2.92,0.19-3.43,1.57
					c-0.05,0.14-0.09,0.29-0.12,0.44c-0.17,1.62,0.75,3.15,2.25,3.77c1.49,0.57,3.15,0.53,4.61-0.12c1.44-0.65,2.79-1.49,4-2.5
					l4.28-3.24"/>
				<path class="st86" d="M98.89,181.91c-0.26-0.07-0.51-0.18-0.74-0.33c-0.65-0.45-1.15-1.1-1.42-1.84
					c-0.46-1.18-0.49-2.47-0.08-3.67c0.58-1.54,1.48-2.94,2.65-4.1c1.41-1.35,2.68-2.84,3.77-4.45c1.05-1.96,1.31-4.25,0.71-6.4
					c-0.42-2.31-1.37-4.72-1.35-7.37c0.01-1.37,0.41-2.71,1.16-3.86c0.8-1.14,1.84-2.11,3.03-2.83c2.36-1.5,4.95-2.31,7.04-3.77
					c1.02-0.67,1.9-1.55,2.56-2.58c0.6-1.05,1.01-2.2,1.2-3.4c0.27-2.23,0.41-4.47,0.43-6.71c0.09-1.97,0.42-3.93,1-5.82
					c0.79-2.79,2.52-5.22,4.9-6.89c0.64-0.44,1.35-0.79,2.09-1.04c0.19-0.07,0.38-0.12,0.58-0.16c0.13,0,0.21,0,0.21,0
					c-0.99,0.33-1.92,0.79-2.78,1.37c-2.3,1.68-3.96,4.09-4.72,6.83c-0.55,1.87-0.86,3.8-0.94,5.75c0,2.26-0.14,4.51-0.4,6.76
					c-0.19,1.24-0.6,2.43-1.23,3.51c-0.68,1.13-1.6,2.1-2.7,2.83c-2.16,1.53-4.77,2.35-7.05,3.77c-1.11,0.68-2.07,1.57-2.82,2.63
					c-0.7,1.07-1.08,2.32-1.09,3.6c0,2.54,0.89,4.93,1.31,7.28c0.25,1.16,0.33,2.34,0.24,3.52c-0.1,1.12-0.45,2.21-1.04,3.17
					c-1.12,1.63-2.41,3.13-3.85,4.48c-1.15,1.11-2.05,2.46-2.65,3.94c-0.4,1.14-0.4,2.38,0,3.52c0.25,0.72,0.7,1.36,1.3,1.82
					C98.64,181.79,98.91,181.88,98.89,181.91z"/>
				<path class="st86" d="M112.12,134.1c0.42-1.18,0.7-2.41,0.83-3.65c-0.02-1.25-0.19-2.5-0.51-3.71
					C113.89,129.02,113.77,131.96,112.12,134.1z"/>
				<path class="st86" d="M117.04,164.75c0,0-0.12-0.11-0.34-0.36c-0.3-0.38-0.54-0.81-0.72-1.26c-0.57-1.71-0.54-3.56,0.08-5.25
					c0.64-2.2,2.33-4.34,4-6.73c0.89-1.23,1.61-2.57,2.15-3.98c0.51-1.55,0.77-3.16,0.77-4.79c0.06-3.36-0.59-6.55-0.78-9.49
					c-0.29-2.63,0.04-5.29,0.94-7.78c0.62-1.68,1.7-3.14,3.1-4.25c0.39-0.29,0.81-0.53,1.25-0.74c0.15-0.08,0.31-0.13,0.47-0.17
					c-0.55,0.32-1.08,0.67-1.59,1.06c-1.33,1.13-2.33,2.59-2.91,4.23c-0.82,2.45-1.09,5.05-0.77,7.61c0.22,2.91,0.88,6.1,0.82,9.53
					c0,1.68-0.28,3.35-0.81,4.94c-0.56,1.45-1.31,2.82-2.24,4.08c-1.71,2.4-3.38,4.47-4.04,6.61c-0.63,1.62-0.71,3.41-0.23,5.08
					C116.41,163.68,116.69,164.23,117.04,164.75z"/>
				<path class="st86" d="M92.12,166.71c0,0,0.09,0.15,0.27,0.43c0.28,0.39,0.65,0.72,1.08,0.94c0.68,0.36,1.44,0.52,2.21,0.45
					c1.01-0.08,1.95-0.55,2.62-1.31c0.81-0.93,1.32-2.09,1.47-3.31c0.16-1.41,0.05-2.85-0.34-4.22c-0.37-1.47-0.94-2.97-1.36-4.6
					c-0.52-1.68-0.66-3.46-0.39-5.2c0.37-1.73,1.21-3.33,2.43-4.62c1.1-1.19,2.32-2.25,3.65-3.18c1.24-0.94,2.47-1.68,3.57-2.48
					c1-0.73,1.95-1.54,2.83-2.42c1.34-1.23,2.34-2.77,2.91-4.49c0.17-0.65,0.29-1.3,0.37-1.96c0.06,0.68,0,1.36-0.18,2.01
					c-0.51,1.8-1.49,3.42-2.83,4.72c-0.88,0.91-1.82,1.74-2.83,2.5c-1.09,0.82-2.32,1.6-3.54,2.52c-1.31,0.91-2.53,1.96-3.62,3.12
					c-1.15,1.23-1.94,2.75-2.3,4.4c-0.25,1.67-0.12,3.38,0.37,4.99c0.42,1.59,0.94,3.1,1.33,4.61c0.4,1.43,0.5,2.92,0.3,4.39
					c-0.17,1.29-0.72,2.51-1.59,3.48c-0.73,0.8-1.75,1.28-2.83,1.35c-0.81,0.04-1.62-0.15-2.32-0.57c-0.45-0.25-0.82-0.62-1.06-1.08
					c-0.07-0.11-0.13-0.23-0.16-0.36C92.13,166.75,92.11,166.71,92.12,166.71z"/>
				<path class="st85" d="M151.9,120.3c0.72,4.87,2.04,9.68,4.14,12.7c1.69,2.42,4.98,3.77,5.48,6.74c0.42,2.45-1.05,4.9-0.81,7.37
					c0.38,3.92,4.72,6.29,5.91,10.02c1.02,3.1-0.39,6.61-2.76,8.87c-2.37,2.26-5.54,3.44-8.69,4.29c-4.5,1.22-9.96,1.59-13.21-1.77
					c-2.22-2.31-2.71-5.73-2.99-8.91c-0.75-8.49-0.73-17.09-0.69-25.64"/>
				<path class="st65" d="M122.47,128.49c-1.01-8.03,4.68-15.35,12.71-16.35c0.17-0.02,0.34-0.04,0.5-0.05
					c7.81-0.75,14.76,5.07,15.93,12.83c1.03,6.8,1.89,13.67,1.89,16.16c-0.09,7.55-4.5,10.46-6.28,11.32
					c-0.64,0.23-1.3,0.39-1.97,0.49l0,0c-0.03,0-0.05,0.03-0.05,0.06l1.67,8.63c0.75,5.66-2.4,10.7-8.05,11.53
					s-10.1-3.52-10.96-9.18L122.47,128.49z"/>
				<path class="st76" d="M145.13,152.91c0,0-4.86,1.11-11.54-1.68c0,0,2.83,6.21,11.99,4L145.13,152.91z"/>
				<path class="st65" d="M123.29,164.22l28.61-5.58l-0.81,15.95c0,0-12.73,3.95-13.21,4.19c-0.48,0.24-8.79,0-8.79,0L123.29,164.22
					z"/>
				<path class="st65" d="M91.58,272.53c-0.22,0.73-0.44,1.58-0.67,2.6c-0.19,0.88-0.23,1.79-0.11,2.68
					c0.09,1.11,0.34,2.2,0.75,3.25c0.46,0.94-0.43,1.89-1.26,1.5s-2.17-2.93-2.28-6.24s-3.26,0.85-4.43,2.34
					c-1.17,1.49-5.02,5.94-5.77,5.95c-1.09,0-1.3-1.17-0.09-2.63c1.21-1.46,4.52-6.11,3.7-6.7c-0.82-0.59-6.68,7.11-6.68,7.11
					s-0.94,1.89-1.95,1.21c-1.75-1.15,5.1-8.87,5.77-9.59c0.46-0.5-0.41-1.16-0.88-0.59c-0.47,0.57-5.66,7.8-7.46,6.61
					c-1.38-0.9,5.57-6.4,5.81-8.49c0.25-2.09-4.84,4.72-6.11,3.77c-0.48-0.34-0.78-0.65,2.7-4.14c1.69-1.69,8.19-6.82,8.19-6.82
					l13.21-46.09h17.32L91.58,272.53z"/>
				<path class="st65" d="M175.72,151.94c0,0,24.68-9.81,28.59-12.84c3.92-3.03,28.54-25.18,28.54-25.18l3.27-2.76
					c0.41-0.63,0.86-1.4,1.36-2.32c0.42-0.79,0.71-1.65,0.84-2.54c0.21-1.1,0.27-2.22,0.18-3.34c-0.14-0.55,0.19-1.12,0.74-1.27
					c0.3-0.08,0.63-0.02,0.88,0.17c0.68,0.64,1.28,3.41,0.49,6.61s3.37,0.08,4.91-1.04c1.54-1.12,6.45-4.34,7.17-4.13
					c1.06,0.29,0.94,1.47-0.63,2.55s-6.02,4.64-5.39,5.43c0.63,0.78,8.37-5.01,8.37-5.01s1.45-1.5,2.21-0.62
					c1.37,1.59-7.32,7.13-8.16,7.64c-0.59,0.35,0.07,1.23,0.67,0.81s7.6-5.94,9-4.34c1.08,1.23-7.11,4.62-7.92,6.61
					s5.94-3.21,6.93-1.99c0.37,0.45,0.58,0.84-3.73,3.25c-2.09,1.16-9.76,4.31-9.76,4.31l-0.81,0.84l-32.81,33.98l-30.12,12.05
					L175.72,151.94z"/>
				<path class="st72" d="M83.45,410.78l-4.81,21.84l-8.8,16.18c-0.61,1.11-0.19,2.5,0.92,3.11c0.05,0.02,0.09,0.05,0.14,0.07l0,0
					c0.67,0.31,1.45,0.27,2.09-0.09c4.1-2.37,19.12-11.15,19.38-12.77c0.31-1.89,6.61-22.71,6.61-22.71L83.45,410.78z"/>
				<g class="st81">
					<path class="st82" d="M70.89,451.98l21.84-14.33l-0.23,0.94c-0.2,0.79-0.67,1.49-1.33,1.97c-1.77,1.28-6.77,4.72-18.13,11.32
						C72.39,452.27,71.58,452.31,70.89,451.98L70.89,451.98z"/>
				</g>
				<g class="st81">
					<path class="st82" d="M89.99,429.55c-0.65,0.27-1,0.99-0.8,1.67c0.25,0.67,0.97,1.02,1.65,0.81c0.69-0.29,1.05-1.06,0.84-1.77
						c-0.33-0.67-1.13-0.96-1.81-0.65"/>
				</g>
				<path class="st59" d="M78.18,443.71c-0.36-0.81-0.86-1.54-1.49-2.16c-0.72-0.51-1.53-0.88-2.39-1.09c0-0.06,0.31-0.16,0.84-0.1
					c0.7,0.08,1.35,0.37,1.89,0.82c0.54,0.44,0.93,1.03,1.14,1.69C78.29,443.37,78.24,443.7,78.18,443.71z"/>
				<path class="st59" d="M75.9,446.24c-0.12,0.07-0.65-0.81-1.7-1.41c-1.05-0.59-2.05-0.65-2.05-0.8c0.78-0.25,1.64-0.11,2.3,0.38
					C75.66,445.1,76.05,446.2,75.9,446.24z"/>
				<path class="st59" d="M81.98,440.68c-0.76-0.85-1.59-1.63-2.47-2.35c-0.97-0.59-1.99-1.11-3.04-1.54
					c1.21-0.02,2.39,0.38,3.32,1.15C80.82,438.56,81.6,439.53,81.98,440.68z"/>
				<path class="st59" d="M84,434.17c-0.09,0.12-1.17-0.68-2.72-1.11c-1.55-0.43-2.88-0.37-2.9-0.52c0.98-0.34,2.06-0.32,3.03,0.05
					C82.44,432.79,83.36,433.35,84,434.17z"/>
				<path class="st59" d="M85.58,427.78c-0.88-0.54-1.84-0.96-2.83-1.24c-1.01-0.14-2.04-0.14-3.06,0c0-0.06,0.27-0.27,0.85-0.43
					c0.75-0.21,1.55-0.23,2.31-0.07c0.76,0.15,1.47,0.47,2.09,0.94C85.44,427.42,85.63,427.74,85.58,427.78z"/>
				<path class="st59" d="M83.13,425.34c-0.01-0.29,0.05-0.57,0.17-0.83c0.26-0.73,0.66-1.41,1.18-1.99
					c0.35-0.46,0.84-0.79,1.39-0.94c0.38-0.05,0.75,0.13,0.94,0.45c0.16,0.33,0.2,0.71,0.1,1.07c-0.47,1.48-1.92,2.41-3.46,2.23
					c-1.5-0.22-2.73-1.31-3.11-2.78c-0.1-0.37-0.03-0.76,0.2-1.07c0.26-0.28,0.67-0.38,1.03-0.25c0.51,0.25,0.94,0.63,1.25,1.09
					c0.47,0.62,0.83,1.32,1.07,2.06c0.11,0.26,0.16,0.55,0.15,0.83c-0.38-0.96-0.9-1.86-1.53-2.67c-0.29-0.4-0.67-0.72-1.11-0.94
					c-0.2-0.09-0.43-0.03-0.57,0.13c-0.12,0.22-0.15,0.47-0.08,0.71c0.36,1.26,1.43,2.19,2.73,2.39c1.31,0.14,2.55-0.64,2.98-1.89
					c0.09-0.24,0.09-0.5,0-0.75c-0.1-0.19-0.31-0.29-0.52-0.25c-0.47,0.13-0.88,0.4-1.19,0.77
					C84.05,423.48,83.5,424.37,83.13,425.34z"/>
				<path class="st72" d="M151.58,418.83l-0.66,17.49c0,0,17.56,6.55,17.75,9.79l-33.97-0.07l-0.08-27.31L151.58,418.83z"/>
				<g class="st81">
					<path class="st82" d="M140.41,434.83c-0.67,0.21-1.08,0.89-0.94,1.58c0.19,0.67,0.87,1.08,1.56,0.94
						c0.72-0.22,1.15-0.94,1.01-1.68c-0.26-0.69-1.02-1.06-1.73-0.83"/>
				</g>
				<g class="st81">
					<path class="st82" d="M134.69,446.05l0.1-2.76l32.53,1.09c0,0,1.51,0.66,1.34,1.73L134.69,446.05z"/>
				</g>
				<path class="st59" d="M151.46,436.15c0,0.16-0.83,0.24-1.65,0.76c-0.82,0.53-1.25,1.23-1.41,1.17
					c-0.15-0.06,0.09-1.03,1.09-1.65S151.5,436,151.46,436.15z"/>
				<path class="st59" d="M155.02,437.63c0,0.16-0.68,0.43-1.25,1.14s-0.73,1.43-0.89,1.43c-0.16,0-0.27-0.94,0.44-1.81
					C154.05,437.53,155.02,437.47,155.02,437.63z"/>
				<path class="st59" d="M157.05,441.9c-0.15,0-0.38-0.79,0-1.7c0.38-0.91,1.21-1.27,1.27-1.13c0.07,0.14-0.42,0.62-0.75,1.37
					C157.23,441.18,157.2,441.88,157.05,441.9z"/>
				<path class="st59" d="M151.17,432.14c-0.07,0.15-0.83-0.08-1.76,0c-0.93,0.08-1.67,0.36-1.76,0.22s0.61-0.74,1.73-0.79
					C150.49,431.51,151.26,432.02,151.17,432.14z"/>
				<g class="st3">
					<polygon class="st82" points="151.44,422.29 151.33,425.4 134.63,425.22 134.62,422.41 					"/>
				</g>
				<path class="st59" d="M151.25,428.61c-0.56,0.15-1.15,0.15-1.71,0c-0.98-0.19-1.91-0.55-2.76-1.08c-0.19-0.1-0.36-0.24-0.51-0.4
					c-0.22-0.25-0.25-0.61-0.08-0.89c0.17-0.23,0.44-0.37,0.73-0.38c0.22,0,0.43,0.03,0.64,0.09c0.98,0.23,1.88,0.71,2.62,1.4
					c0.78,0.73,1.06,1.35,1,1.38c-0.06,0.03-0.46-0.46-1.26-1.07c-0.46-0.35-0.97-0.64-1.51-0.86c-0.31-0.13-0.62-0.23-0.94-0.3
					c-0.36-0.09-0.66-0.09-0.75,0.07c-0.09,0.16,0,0.08,0,0.19c0.11,0.11,0.24,0.21,0.38,0.29c0.3,0.19,0.62,0.36,0.94,0.51
					c0.53,0.26,1.08,0.48,1.64,0.64C150.21,428.31,150.73,428.44,151.25,428.61z"/>
				<path class="st59" d="M151.03,428.85c-0.07,0-0.39-0.57-0.45-1.64c-0.02-0.64,0.06-1.27,0.24-1.89
					c0.12-0.36,0.27-0.71,0.44-1.04c0.19-0.45,0.6-0.78,1.09-0.86c0.31,0.01,0.58,0.2,0.71,0.48c0.09,0.2,0.15,0.41,0.17,0.62
					c0.06,0.38,0.06,0.76,0,1.14c-0.09,0.64-0.34,1.25-0.73,1.76c-0.67,0.88-1.36,1.08-1.38,1.02c-0.02-0.06,0.53-0.41,1.04-1.25
					c0.3-0.49,0.48-1.03,0.54-1.59c0.04-0.31,0.04-0.63,0-0.94c0-0.36-0.19-0.65-0.32-0.61c-0.13,0.04-0.45,0.26-0.59,0.56
					c-0.17,0.3-0.31,0.62-0.42,0.94c-0.19,0.55-0.31,1.12-0.33,1.7C150.94,428.21,151.11,428.83,151.03,428.85z"/>
				<path class="st87" d="M118.43,226.75c0,0-10.74,16.98-12.27,23.46c-1.39,5.82-24.88,132.34-29.74,158.52
					c-0.5,2.69,1.11,5.32,3.73,6.11l21.23,6.4c2.84,0.84,5.83-0.78,6.68-3.62c0.04-0.14,0.08-0.29,0.11-0.43l26.24-122.54
					l-7.67,121.44c-0.22,3.42,2.37,6.37,5.8,6.6c0.2,0.01,0.4,0.02,0.6,0.01l20.82-0.64c3.17-0.14,5.73-2.64,5.94-5.81
					c1.81-29.25,9.95-162.3,8.31-166.46c-1.84-4.72-6.66-21-6.66-21L118.43,226.75z"/>
				<path class="st61" d="M109.93,411.23c-0.44-0.01-0.87-0.06-1.3-0.16c-0.84-0.13-2.04-0.36-3.51-0.66
					c-2.95-0.6-7-1.56-11.43-2.83c-4.43-1.27-8.36-2.66-11.19-3.75c-1.41-0.54-2.54-0.99-3.31-1.33c-0.41-0.15-0.81-0.34-1.19-0.56
					c0.43,0.09,0.85,0.22,1.25,0.39l3.37,1.17c2.83,0.99,6.78,2.3,11.18,3.59c4.41,1.28,8.44,2.29,11.32,2.98l3.47,0.81
					C109.06,410.96,109.5,411.08,109.93,411.23z"/>
				<path class="st61" d="M83.59,403.47c-0.74-0.57-1.22-1.41-1.35-2.33c-0.28-0.88-0.22-1.83,0.17-2.67c0.15,0,0,1.2,0.31,2.57
					C83.03,402.41,83.7,403.39,83.59,403.47z"/>
				<path class="st61" d="M86.2,398.96c0.16,0.84,0.07,1.71-0.25,2.51c-0.16,0.84-0.57,1.61-1.17,2.23c0.16-0.81,0.39-1.6,0.7-2.37
					C85.64,400.52,85.88,399.73,86.2,398.96z"/>
				<path class="st61" d="M152.88,405.36c0.36,0.68,0.56,1.44,0.6,2.21c0.21,0.75,0.25,1.53,0.12,2.29
					C153.05,408.43,152.8,406.9,152.88,405.36z"/>
				<path class="st61" d="M155.42,404.17c0.3,1.56,0.27,3.17-0.07,4.72c-0.24-0.77-0.31-1.58-0.22-2.38
					C155.07,405.72,155.16,404.92,155.42,404.17z"/>
				<path class="st61" d="M143.71,232.66c0.03,0.22,0.03,0.45,0,0.67c0,0.48,0,1.12-0.07,1.89c-0.07,1.66-0.22,4.06-0.42,7.02
					c-0.43,5.93-1.25,14.11-2.57,23.07c-1.32,8.96-2.83,17.04-4.08,22.85c-0.6,2.91-1.11,5.26-1.49,6.88
					c-0.18,0.76-0.33,1.39-0.43,1.89c-0.04,0.22-0.11,0.43-0.19,0.64c0-0.22,0.03-0.44,0.08-0.66c0.09-0.48,0.21-1.1,0.35-1.89
					c0.33-1.68,0.78-4.03,1.34-6.9c1.12-5.83,2.61-13.9,3.93-22.85c1.32-8.95,2.18-17.12,2.7-23.03c0.24-2.92,0.43-5.29,0.59-7
					c0.07-0.78,0.11-1.42,0.16-1.89C143.62,233.12,143.66,232.89,143.71,232.66z"/>
				<path class="st61" d="M162.71,232.64c-0.15,0.04-0.31,0.06-0.47,0.06l-1.37,0.07c-1.18,0.05-2.9,0.09-5.02,0.13
					c-4.24,0.07-10.1,0.07-16.57-0.11c-6.47-0.18-12.32-0.51-16.55-0.81c-2.12-0.16-3.83-0.29-5.01-0.42l-1.36-0.14
					c-0.16,0-0.32-0.03-0.47-0.08c0.16-0.02,0.32-0.02,0.48,0l1.37,0.06l5.01,0.25c4.23,0.22,10.08,0.48,16.54,0.67
					c6.46,0.19,12.32,0.24,16.56,0.25h5.02h1.37C162.4,232.57,162.56,232.59,162.71,232.64z"/>
				<path class="st61" d="M147.32,232.44c0.04,0.53,0.04,1.07,0,1.6c0,1.11-0.08,2.59-0.14,4.37c-0.14,3.69-0.37,8.78-0.66,14.4
					c-0.15,2.83-0.25,5.49-0.44,7.94c-0.1,2.19-0.66,4.34-1.65,6.3c-0.7,1.31-1.75,2.41-3.02,3.18c-0.35,0.2-0.71,0.37-1.09,0.49
					c-0.14,0.04-0.27,0.07-0.42,0.08c0-0.06,0.56-0.18,1.41-0.74c1.2-0.81,2.17-1.9,2.83-3.19c0.92-1.93,1.43-4.03,1.5-6.17
					c0.16-2.43,0.25-5.11,0.41-7.92c0.29-5.66,0.58-10.72,0.8-14.4c0.12-1.77,0.23-3.25,0.3-4.36
					C147.16,233.5,147.22,232.96,147.32,232.44z"/>
				<path class="st61" d="M123.08,242.91c0.06,0.36,0.06,0.73,0,1.09c-0.08,0.99-0.26,1.98-0.53,2.93
					c-1.77,6.54-7.09,11.51-13.74,12.83c-0.98,0.2-1.97,0.31-2.96,0.32c-0.37,0.03-0.74,0.01-1.09-0.08
					c1.34-0.12,2.67-0.32,3.98-0.59c6.43-1.47,11.58-6.28,13.48-12.6C122.57,245.54,122.86,244.23,123.08,242.91z"/>
				<path class="st61" d="M168.09,260.67c0,0-0.27,0-0.75-0.19c-0.65-0.22-1.28-0.5-1.89-0.83c-0.91-0.49-1.78-1.07-2.58-1.73
					c-0.98-0.81-1.86-1.73-2.65-2.73c-0.77-1.02-1.43-2.11-1.96-3.26c-0.43-0.94-0.76-1.93-1-2.93c-0.17-0.67-0.27-1.36-0.32-2.06
					c-0.04-0.26-0.04-0.52,0-0.77c0.09,0,0.17,1.08,0.64,2.75c0.28,0.97,0.64,1.92,1.09,2.83c0.54,1.11,1.19,2.17,1.94,3.15
					c0.76,0.98,1.61,1.88,2.55,2.69c0.77,0.65,1.59,1.24,2.45,1.76C167.09,260.23,168.12,260.55,168.09,260.67z"/>
				<path class="st61" d="M130.31,246c0,0,0,0.15,0,0.42s-0.09,0.72-0.16,1.25c-0.15,1.1-0.37,2.7-0.65,4.72
					c-0.57,4.12-1.46,10.09-2.62,17.45c-2.31,14.71-5.85,34.99-10.38,57.25s-9.45,42.32-13.13,56.76
					c-1.84,7.21-3.38,13.04-4.49,17.05c-0.55,1.99-0.94,3.55-1.27,4.62l-0.35,1.2c-0.04,0.14-0.08,0.27-0.13,0.41
					c0,0,0-0.14,0.08-0.42c0.08-0.27,0.17-0.7,0.3-1.22c0.27-1.09,0.67-2.64,1.19-4.64c1.05-4.03,2.54-9.87,4.33-17.09
					c3.6-14.46,8.31-34.48,12.91-56.74c4.6-22.26,8.16-42.52,10.57-57.21c1.21-7.35,2.14-13.3,2.77-17.42
					c0.32-2.04,0.57-3.63,0.75-4.72l0.2-1.23C130.27,246.14,130.31,246,130.31,246z"/>
				<path class="st61" d="M147.61,411.11c-0.01-0.13-0.01-0.26,0-0.4c0-0.29,0.06-0.68,0.08-1.17c0.09-1.06,0.22-2.57,0.39-4.51
					c0.35-3.93,0.86-9.58,1.48-16.54c1.25-13.97,3.2-33.26,4.67-54.61c0.73-10.68,1.22-20.86,1.42-30.14s0.15-17.62,0-24.63
					c-0.15-7.01-0.54-12.67-0.81-16.59c-0.14-1.93-0.25-3.44-0.33-4.5c0-0.5-0.05-0.89-0.07-1.17c-0.01-0.13-0.01-0.27,0-0.41
					c0.03,0.13,0.05,0.26,0.06,0.4c0,0.28,0.07,0.67,0.12,1.17c0.09,1.06,0.24,2.57,0.42,4.5c0.34,3.91,0.71,9.58,0.94,16.59
					c0.24,7.01,0.33,15.37,0.13,24.65c-0.2,9.28-0.66,19.48-1.39,30.2c-1.47,21.36-3.48,40.64-4.81,54.61
					c-0.7,6.96-1.25,12.61-1.64,16.53c-0.21,1.93-0.36,3.44-0.47,4.5c-0.06,0.49-0.1,0.88-0.13,1.16
					C147.67,410.87,147.64,410.99,147.61,411.11z"/>
				<path class="st61" d="M160.46,408.91c0,0.14-7.45,1.08-16.69,2.09c-9.24,1.01-16.74,1.74-16.76,1.6s7.46-1.08,16.7-2.09
					C152.94,409.5,160.45,408.78,160.46,408.91z"/>
				<path class="st85" d="M132.4,115.68c-2.83,3.4-3.61,8.06-2.05,12.19c1.07,2.72,3.15,5.21,2.97,8.12
					c-0.22,3.61-3.91,6.44-3.7,10.05c0.23,4.08,5.44,6.61,5.44,10.72c0,4.11-2.51,5.72-7.35,6.61c-3.1,0.57-4.83-3.27-6.37-6.03
					c-1.54-2.76-2.04-5.96-2.36-9.08c-0.52-5.21-0.6-10.45-0.24-15.67c0.28-4.22,0.94-8.55,3.1-12.16c2.3-3.75,6.06-6.37,10.38-7.22
					"/>
				<path class="st85" d="M153.04,123.23c-1.56,2.38-6.49,0.94-9.44-0.73c-3.24,2.06-7.53,1.18-9.69-2
					c-1.71,2.17-5.17,1.45-6.44-0.94c-1.26-2.4-0.56-5.82,1.18-7.97c1.75-2,4.16-3.3,6.78-3.69c6.17-1.19,12.45,1.41,15.98,6.61
					c1.64,2.48,2.63,5.82,1.65,8.79"/>
				<path class="st86" d="M153.09,122.78c-0.08,0.06-0.94-1.48-2.83-3.58c-2.38-2.76-5.49-4.79-8.96-5.87
					c-3.5-1.01-7.25-0.72-10.56,0.81c-1.34,0.69-2.54,1.6-3.57,2.71c0,0,0-0.1,0.16-0.27c0.17-0.25,0.36-0.49,0.58-0.71
					c0.76-0.83,1.67-1.52,2.67-2.03c3.37-1.67,7.24-2,10.85-0.94c1.96,0.58,3.81,1.5,5.46,2.71c1.34,0.99,2.56,2.13,3.63,3.41
					c0.72,0.85,1.37,1.76,1.94,2.72C152.71,122.06,152.92,122.41,153.09,122.78z"/>
				<path class="st86" d="M138.43,123.73c-0.08,0-0.26-0.84-0.85-2.09c-0.73-1.65-1.91-3.06-3.39-4.1c-1.5-0.99-3.31-1.41-5.1-1.19
					c-0.74,0.14-1.46,0.34-2.16,0.59c0,0,0.15-0.17,0.5-0.37c0.5-0.27,1.04-0.47,1.6-0.58c1.89-0.34,3.83,0.06,5.43,1.12
					c1.56,1.08,2.75,2.6,3.43,4.37C138.22,122.19,138.41,122.95,138.43,123.73z"/>
				<path class="st88" d="M123.29,164.22c0,0-12.74,3.63-17.5,11.48c-4.77,7.85-19.5,63.15-19.5,63.15l16.85,1.89l14.02-36.8
					l3.46,11.5l-2.21,11.32l43.14,2.02l3.05-49.59l46.08-22.44l5.19-5.38l-13.4-14.15l-5.11,4.77l-46.24,16.94
					c0,0,1.72,13.66-10.75,15.64C127.9,176.56,123.29,164.22,123.29,164.22z"/>
				<rect x="147.93" y="182.74" class="st88" width="10.27" height="2.67"/>
				<path class="st59" d="M112.39,187.6c0.13,0,2.06,6.02,4.31,13.54s3.96,13.63,3.83,13.68c-0.13,0.05-2.06-6.03-4.3-13.54
					C113.98,193.77,112.26,187.64,112.39,187.6z"/>
				<path class="st59" d="M172.84,168.35c-1.92,1.49-3.66,3.19-5.19,5.07c-1.39,1.99-2.55,4.13-3.44,6.39
					c0.06-0.72,0.24-1.43,0.54-2.09c1.23-3.3,3.39-6.17,6.23-8.27C171.53,168.98,172.17,168.61,172.84,168.35z"/>
				<g class="st60">
					<path d="M113.2,190.2c-0.99,4.65-1.48,9.4-1.46,14.15c-0.04,1.18,0.1,2.35,0.41,3.49c0.31,1.15,1.07,2.12,2.1,2.71
						c1.27-1.83,2.59-3.77,2.83-6c0.04-1.56-0.21-3.11-0.73-4.59c-0.97-3.42-1.94-6.83-2.93-10.25"/>
				</g>
				<path class="st85" d="M124.49,161.54c2.28,1.59,3.05,4.66,2.94,7.44c-0.1,2.77-0.94,5.49-1.05,8.28
					c-0.1,2.78,0.58,5.84,2.83,7.49l10.96-3.72c-2.16-1.24-2.61-4.2-2.14-6.61s1.61-4.72,1.74-7.23c0.35-6.52-4.34-12.09-6.53-14.74
					"/>
			</g>
			<g id="freepik--character-2--inject-11_1_">
				<polygon class="st72" points="169.51,422.2 165.27,446.49 186.27,446.49 188.59,423.52 				"/>
				<path class="st59" d="M186.7,444.55c-1.01,0.17-2.03,0.23-3.06,0.18c-1.89,0-4.5,0-7.38-0.14l-7.37-0.31
					c-1.02,0.01-2.05-0.07-3.06-0.25c1.01-0.16,2.04-0.21,3.07-0.16c1.89,0,4.5,0,7.38,0.14l7.37,0.3
					C184.67,444.3,185.69,444.38,186.7,444.55z"/>
				<g class="st81">
					<polyline class="st82" points="165.27,446.49 186.27,446.49 186.47,444.5 165.64,443.98 165.27,446.26 					"/>
				</g>
				<path class="st59" d="M175.52,444.49c0.21-3.11,0.6-6.2,1.15-9.27c0.38-3.09,0.93-6.15,1.63-9.18c-0.22,3.1-0.6,6.19-1.15,9.26
					C176.77,438.39,176.22,441.46,175.52,444.49z"/>
				<path class="st59" d="M185.54,444.45c0.21-1.48,0.09-2.98-0.36-4.41c-0.51-1.52-1.42-2.88-2.65-3.92
					c-1.53-1.24-3.44-1.9-5.41-1.89c-1.97-0.03-3.89,0.59-5.46,1.77c-1.27,0.99-2.28,2.29-2.93,3.77c-0.58,1.38-0.9,2.85-0.94,4.35
					c0,0,0-0.1-0.07-0.31c-0.02-0.31-0.02-0.63,0-0.94c0.03-1.12,0.27-2.23,0.7-3.26c0.63-1.55,1.66-2.92,2.97-3.96
					c1.65-1.26,3.67-1.92,5.75-1.89c3.87-0.05,7.3,2.5,8.38,6.22c0.33,1.07,0.44,2.2,0.31,3.32c-0.03,0.3-0.09,0.6-0.17,0.9
					C185.59,444.36,185.55,444.46,185.54,444.45z"/>
				<path class="st72" d="M259.84,415.42l5.1,16.74c0,0,18.74,0.43,19.99,3.43l-32.08,11.07l-9.03-25.76L259.84,415.42z"/>
				<g class="st81">
					<path class="st82" d="M254.54,434.17c-0.57,0.42-0.73,1.19-0.39,1.8c0.39,0.59,1.18,0.77,1.78,0.41
						c0.59-0.44,0.77-1.25,0.41-1.89c-0.47-0.56-1.3-0.66-1.89-0.22"/>
				</g>
				<g class="st81">
					<path class="st82" d="M252.82,446.66l-0.81-2.63l31.09-9.62c0,0,1.64,0.13,1.83,1.19L252.82,446.66z"/>
				</g>
				<path class="st59" d="M265.42,431.82c0.05,0.16-0.72,0.5-1.31,1.27c-0.59,0.77-0.78,1.57-0.94,1.56c-0.16-0.01-0.25-1,0.49-1.89
					C264.39,431.88,265.4,431.66,265.42,431.82z"/>
				<path class="st59" d="M269.26,432.05c0.09,0.14-0.49,0.64-0.8,1.49c-0.31,0.85-0.22,1.6-0.37,1.65
					c-0.15,0.05-0.57-0.81-0.17-1.89C268.32,432.22,269.21,431.9,269.26,432.05z"/>
				<path class="st59" d="M272.56,435.42c-0.12,0.08-0.61-0.62-0.51-1.62c0.1-1,0.73-1.59,0.83-1.49c0.1,0.1-0.18,0.73-0.25,1.55
					S272.71,435.35,272.56,435.42z"/>
				<path class="st59" d="M263.83,428.13c0,0.17-0.81,0.2-1.67,0.57s-1.46,0.88-1.59,0.77c-0.13-0.1,0.35-0.9,1.37-1.31
					S263.86,427.98,263.83,428.13z"/>
				<g class="st3">
					<polygon class="st82" points="260.85,418.73 261.77,421.71 245.94,427.02 245,424.36 					"/>
				</g>
				<path class="st59" d="M262.73,424.73c-0.48,0.32-1.04,0.51-1.61,0.55c-0.62,0.1-1.26,0.12-1.89,0.07
					c-0.37-0.03-0.73-0.09-1.09-0.17c-0.22-0.04-0.43-0.12-0.62-0.22c-0.29-0.16-0.44-0.49-0.36-0.81c0.09-0.27,0.3-0.49,0.57-0.59
					c0.2-0.07,0.42-0.11,0.63-0.12c0.37-0.03,0.75-0.03,1.12,0c0.63,0.05,1.24,0.21,1.81,0.46c0.94,0.43,1.44,0.94,1.4,0.94
					s-0.59-0.29-1.54-0.6c-0.55-0.17-1.13-0.28-1.71-0.31c-0.34-0.03-0.69-0.03-1.03,0c-0.37,0-0.66,0.12-0.69,0.3
					c-0.03,0.18,0,0.09,0.09,0.17c0.14,0.07,0.29,0.13,0.45,0.15c0.35,0.08,0.69,0.15,1.02,0.2c0.58,0.07,1.17,0.09,1.76,0.06
					C261.6,424.74,262.17,424.72,262.73,424.73z"/>
				<path class="st59" d="M262.61,425.06c-0.05,0-0.55-0.41-0.94-1.41c-0.23-0.58-0.36-1.2-0.39-1.83
					c-0.01-0.38,0.01-0.75,0.08-1.12c0.02-0.49,0.31-0.93,0.75-1.16c0.3-0.1,0.62-0.01,0.83,0.22c0.15,0.16,0.27,0.34,0.37,0.53
					c0.47,0.92,0.56,1.99,0.25,2.98c-0.34,1.05-0.94,1.46-0.94,1.42c0.22-0.49,0.41-1,0.57-1.52c0.12-0.56,0.12-1.13,0-1.69
					c-0.07-0.33-0.18-0.65-0.35-0.94c-0.17-0.32-0.39-0.56-0.51-0.48c-0.12,0.08-0.34,0.41-0.38,0.73c-0.06,0.33-0.1,0.67-0.09,1.01
					c0,0.58,0.08,1.15,0.24,1.71C262.32,424.49,262.73,425.02,262.61,425.06z"/>
				<path class="st89" d="M165.67,203.75l-6.05,12.45c-2.74,5.64-1.75,12.37,2.49,16.98l0,0c3.3,3.58,8.1,5.37,12.94,4.82
					l23.51-2.68v-13.98l-23.14,0.67l5.78-10.18L165.67,203.75z"/>
				<path class="st59" d="M195.46,159.49c-3.88-6.55-4.99-15.28-5.97-22.83c-0.46-3.56-1.27-8.62,1.23-10.84
					c2.68-2.38,2.93-6.05,6.01-7.89c3.08-1.84,7.25-1.99,10.15,0.11"/>
				<path class="st89" d="M206.2,182.7L206.2,182.7c5.79,0.45,10.85-3.87,11.3-9.66c0.01-0.13,0.02-0.26,0.02-0.39
					c0.24-5.72,0.44-11.5,0.44-11.5s8.68-0.79,9.33-9.37c0.65-8.58,0.42-28.4,0.42-28.4l0,0c-9.66-4.88-21.21-4.16-30.2,1.89
					l0.45,30.2l-0.06,16.26C197.95,177.14,200.77,182.23,206.2,182.7z"/>
				<path class="st59" d="M218.8,141.28c-1.48-1.84-3.88-2.59-5.86-1.3c-2.01,1.39-2.72,4.03-1.68,6.24c0.9,1.6,2.42,2.76,4.2,3.19
					c1.63,0.36,2.74,1.89,2.57,3.56c-0.25,2.16-3.84,2.95-5.46,4.72c-2.52,2.76-8.05,3.93-11.77,4.35
					c-3.72,0.42-3.22,0.45-5.33-2.56c-1.43-2.04-2.15-4.49-2.07-6.97l-0.34-18.99c-0.13-2.28,0.02-4.57,0.45-6.81
					c0.44-2.27,1.73-4.3,3.6-5.66c2.09-1.37,4.72-1.47,7.12-2.24c2.97-0.94,5.5-2.92,8.28-4.33c2.78-1.42,6.2-2.26,8.99-0.85
					c2,1.01,3.34,3.02,5.28,4.13c2.76,1.59,6.55,1.24,7.88,5.32c0.45,1.42,0.43,2.96-0.06,4.37c-1.89,5.55-8.78,7.77-13.73,5.35
					c-0.09,0.94,0.82,3.04-0.18,6c-0.32,0.94-0.43,2.4-1.89,2.43"/>
				<path class="st80" d="M217.24,146.63c0,0,0,0.16-0.11,0.37c-0.23,0.29-0.57,0.46-0.94,0.48c-1.25-0.08-2.23-1.12-2.22-2.38
					c-0.04-0.67,0.19-1.32,0.64-1.81c0.36-0.39,0.82-0.66,1.34-0.77c0.89-0.18,1.4,0.14,1.36,0.2c-0.04,0.06-0.53,0-1.24,0.22
					c-0.92,0.3-1.53,1.17-1.49,2.14c0,0.96,0.68,1.78,1.61,1.97C216.89,147.08,217.18,146.57,217.24,146.63z"/>
				<path class="st59" d="M196.12,126.95c5.09-2.21,7.42-8.13,5.21-13.22c-2.21-5.09-8.13-7.42-13.22-5.21
					c-4.5,1.96-6.93,6.88-5.75,11.64c0.22,0.57,0.22,1.2,0,1.77c-0.37,0.63-1.23,0.72-1.89,0.94c-2.43,0.94-2.76,4.61-0.94,6.51
					c1.81,1.9,4.72,2.16,7.25,1.49c-0.61,2.2,1.37,4.56,3.64,4.82c2.34,0.12,4.55-1.05,5.76-3.06c1.16-1.99,1.83-4.22,1.95-6.52"/>
				<path class="st90" d="M201.95,116.52c0.05,0.29,0.05,0.58,0,0.87c-0.04,0.8-0.15,1.6-0.34,2.38c-1.24,5.27-5.33,9.4-10.59,10.69
					c-0.78,0.19-1.57,0.3-2.37,0.34c-0.29,0.05-0.59,0.05-0.88,0c0-0.08,1.25-0.1,3.16-0.64c5.06-1.41,9-5.38,10.38-10.45
					C201.84,117.76,201.85,116.51,201.95,116.52z"/>
				<path class="st59" d="M192.43,108.56c0,0,0.08-0.06,0.25-0.09c0.26-0.07,0.52-0.09,0.78-0.08c0.99,0.04,1.94,0.41,2.71,1.03
					c0.53,0.42,0.99,0.93,1.35,1.51c0.4,0.67,0.68,1.4,0.83,2.17c0.3,1.74,0.23,3.53-0.21,5.24c-0.69,3.1-2.07,6-4.03,8.49
					c-0.57,0.75-1.2,1.46-1.89,2.11c-0.24,0.26-0.52,0.48-0.82,0.66c-0.07-0.07,1.07-1.06,2.48-2.98c1.84-2.52,3.14-5.39,3.82-8.44
					c0.42-1.65,0.51-3.36,0.25-5.04c-0.13-0.72-0.38-1.42-0.74-2.06c-0.32-0.55-0.73-1.03-1.22-1.44c-0.73-0.58-1.62-0.94-2.55-1.01
					C192.81,108.51,192.43,108.63,192.43,108.56z"/>
				<path class="st61" d="M181.98,122.25c0,0,0.08-0.25,0.31-0.64c0.34-0.55,0.74-1.06,1.2-1.52c3.11-3.17,7.92-3.94,11.86-1.89
					c0.57,0.29,1.12,0.65,1.61,1.06c0.35,0.29,0.51,0.48,0.49,0.51c-0.02,0.03-0.8-0.6-2.26-1.25c-3.85-1.77-8.39-1.03-11.47,1.89
					C182.53,121.42,182.05,122.3,181.98,122.25z"/>
				<path class="st61" d="M198.87,125.61c0.05-0.06,1.13,0.82,3,2.08c2.43,1.64,5,3.05,7.69,4.21c1.47,0.65,2.98,1.21,4.52,1.69
					c1.22,0.44,2.49,0.72,3.77,0.82c0.87,0.04,1.73-0.18,2.48-0.62c0.52-0.32,0.73-0.61,0.76-0.59c0.04,0.03-0.14,0.35-0.66,0.75
					c-0.75,0.54-1.66,0.82-2.59,0.81c-1.34-0.05-2.67-0.3-3.94-0.75c-4.4-1.3-8.55-3.34-12.27-6.03c-0.94-0.67-1.62-1.25-2.1-1.67
					C199.29,126.11,199.06,125.87,198.87,125.61z"/>
				<path class="st59" d="M196.28,114.76c-0.1-0.39-0.13-0.8-0.09-1.2c0.01-1.1,0.21-2.19,0.59-3.22c0.57-1.57,1.73-2.87,3.23-3.6
					c0.89-0.45,1.9-0.63,2.9-0.52c1.07,0.14,2.07,0.63,2.83,1.4c0.76,0.75,1.31,1.68,1.6,2.71c0.25,0.95,0.32,1.93,0.21,2.91
					c-0.22,1.62-0.78,3.18-1.64,4.58c-0.57,0.93-1.2,1.82-1.89,2.67c-0.23,0.34-0.49,0.66-0.79,0.94c0.18-0.36,0.4-0.7,0.64-1.02
					c0.42-0.63,1.07-1.54,1.73-2.73c0.79-1.37,1.3-2.88,1.5-4.45c0.1-0.92,0.02-1.84-0.23-2.73c-0.28-0.94-0.79-1.79-1.48-2.49
					c-0.69-0.69-1.58-1.14-2.55-1.27c-0.9-0.1-1.82,0.06-2.63,0.45c-1.42,0.68-2.53,1.87-3.1,3.33c-0.4,0.99-0.64,2.04-0.73,3.1
					C196.37,114,196.33,114.38,196.28,114.76z"/>
				<path class="st89" d="M294.21,94.9c-1.4-0.71-5.43,6.78-5.49,4.72c-0.07-2.07,5.98-8.58,4.49-9.26
					c-1.94-0.89-6.01,7.03-6.4,7.67c-0.39,0.64-1.34,0.1-0.94-0.46c0.56-0.81,6.18-9.44,4.28-10.38c-1.06-0.49-1.76,1.48-1.76,1.48
					s-4.67,8.49-5.56,8.02c-0.89-0.47,1.68-5.52,2.67-7.16c0.99-1.64,0.59-2.76-0.48-2.59c-0.74,0.11-3.89,5.09-4.82,6.74
					c-0.93,1.65-3.43,6.23-4.04,2.97c-0.6-3.26-2.3-5.53-3.18-5.83c-0.57-0.12-1.12,0.25-1.24,0.81c-0.06,0.3,0.01,0.61,0.2,0.86
					c0.55,0.97,0.96,2.02,1.23,3.1c0.24,0.87,0.34,1.77,0.28,2.67c-0.08,1.04-0.18,1.89-0.28,2.67l-1.84,3.86
					c0,0-13.32,30.34-15.6,34.71c-2.27,4.38-20.76,23.51-20.76,23.51l3.9,22.39l29.96-32.43l15.82-44.54l0.39-1.1
					c0,0,5.66-6.03,7.1-7.95C295.08,95.42,294.73,95.16,294.21,94.9z"/>
				<path class="st91" d="M183.57,245.09c0,0-9.44,21.33-11.46,42.46l-9.97,135.57l33.28,3.5l9.75-140.53
					c0,0,30.53,141.79,31.73,141.79c1.2,0,26.79-9.53,26.79-9.53l-30.1-172.57L183.57,245.09z"/>
				<path class="st59" d="M219.33,289.54c0,0.16-6.78-1.35-15.1-3.37c-8.31-2.02-14.97-3.77-14.92-3.95
					c0.05-0.18,6.78,1.34,15.1,3.36C212.73,287.6,219.33,289.37,219.33,289.54z"/>
				<path class="st64" d="M197.37,397.27c0,0-0.11,0-0.35,0.07c-0.33,0.05-0.67,0.08-1.01,0.09c-1.24,0.04-2.49-0.03-3.72-0.23
					c-1.82-0.3-3.61-0.73-5.37-1.3c-1.98-0.62-4.12-1.41-6.38-2.15c-2.12-0.71-4.29-1.23-6.5-1.56c-1.8-0.25-3.63-0.25-5.43,0
					c-1.66,0.27-3.27,0.78-4.77,1.52c0.08-0.08,0.18-0.15,0.28-0.21c0.28-0.19,0.57-0.36,0.88-0.51c1.12-0.56,2.32-0.94,3.56-1.14
					c1.83-0.29,3.7-0.31,5.54-0.07c2.25,0.3,4.46,0.82,6.61,1.55l6.37,2.18c1.73,0.59,3.49,1.05,5.28,1.39
					C194.02,397.16,195.69,397.28,197.37,397.27z"/>
				<path class="st64" d="M197.5,385.84c-0.45,0.03-0.91,0.03-1.36,0c-1.23-0.04-2.46-0.01-3.69,0.1c-3.11,0.23-7.31,1.24-12,2.21
					c-2.21,0.46-4.46,0.74-6.72,0.86c-1.85,0.1-3.7-0.03-5.52-0.37c-1.23-0.24-2.42-0.62-3.56-1.13c-0.31-0.14-0.61-0.3-0.9-0.47
					c-0.11-0.05-0.21-0.12-0.29-0.2c1.55,0.65,3.16,1.13,4.81,1.45c3.06,0.58,7.41,0.34,12.08-0.62s8.92-1.93,12.08-2.07
					c1.24-0.09,2.48-0.07,3.72,0.05C196.61,385.66,197.06,385.72,197.5,385.84z"/>
				<path class="st64" d="M256.84,372.6c-0.04,0.11-0.1,0.21-0.18,0.3c-0.2,0.28-0.42,0.54-0.66,0.77
					c-0.91,0.86-2.01,1.51-3.21,1.89c-1.77,0.56-3.63,0.75-5.48,0.58c-2.08-0.15-4.3-0.65-6.61-1.04c-2.18-0.39-4.41-0.45-6.61-0.18
					c-1.79,0.24-3.55,0.7-5.22,1.39c-1.53,0.67-3.01,1.45-4.43,2.34c0,0,0.08-0.09,0.25-0.25c0.17-0.15,0.44-0.36,0.8-0.6
					c1.01-0.71,2.1-1.32,3.24-1.81c1.69-0.75,3.47-1.25,5.3-1.51c2.24-0.31,4.51-0.26,6.74,0.14c2.36,0.39,4.56,0.9,6.61,1.07
					c1.79,0.19,3.61,0.04,5.34-0.45c1.17-0.34,2.25-0.91,3.18-1.69C256.52,372.97,256.81,372.57,256.84,372.6z"/>
				<path class="st64" d="M261.87,397.59c-0.25,0.38-0.55,0.73-0.88,1.04c-0.85,0.9-1.77,1.73-2.76,2.47
					c-3.29,2.48-7.11,4.15-11.16,4.88c-4.05,0.71-8.21,0.48-12.16-0.66c-1.19-0.34-2.36-0.78-3.48-1.3
					c-0.42-0.17-0.82-0.4-1.19-0.66c0.43,0.13,0.85,0.29,1.26,0.48c1.14,0.46,2.3,0.84,3.49,1.15c3.92,1.03,8.01,1.2,11.99,0.5
					c3.98-0.72,7.75-2.31,11.04-4.66C260.54,399,261.79,397.51,261.87,397.59z"/>
				<path class="st64" d="M253.62,362.19c0,0-0.47,0-1.31,0c-1.19,0.06-2.36,0.33-3.45,0.8c-1.62,0.72-3.12,1.65-4.48,2.78
					c-1.57,1.25-3.19,2.78-5.11,4.14c-1.8,1.33-3.89,2.19-6.11,2.51c-1.79,0.24-3.6,0.24-5.39,0c-1.52-0.19-2.74-0.44-3.57-0.62
					c-0.44-0.07-0.87-0.18-1.29-0.33c0.44,0,0.89,0.05,1.32,0.15c0.85,0.11,2.07,0.31,3.58,0.45c1.76,0.2,3.53,0.17,5.28-0.08
					c2.14-0.34,4.16-1.19,5.9-2.47c1.89-1.33,3.51-2.83,5.1-4.09c1.4-1.14,2.97-2.07,4.64-2.76c1.14-0.46,2.35-0.69,3.58-0.67
					c0.32,0.01,0.63,0.05,0.94,0.11C253.37,362.13,253.5,362.15,253.62,362.19z"/>
				<path class="st64" d="M200.33,356.79c0,0-0.09,0.08-0.3,0.21c-0.3,0.18-0.62,0.34-0.94,0.47c-1.18,0.51-2.44,0.82-3.72,0.94
					c-1.89,0.18-3.8,0.09-5.66-0.25c-2.28-0.42-4.52-0.99-6.73-1.71c-2.18-0.71-4.4-1.29-6.65-1.75c-1.83-0.37-3.7-0.5-5.57-0.39
					c-1.71,0.16-3.39,0.59-4.98,1.25c0.09-0.08,0.2-0.15,0.31-0.2c0.3-0.18,0.62-0.34,0.94-0.47c1.18-0.5,2.44-0.82,3.72-0.94
					c1.89-0.17,3.8-0.07,5.66,0.28c2.28,0.43,4.52,1.01,6.73,1.72c2.17,0.71,4.37,1.29,6.61,1.74c1.83,0.36,3.7,0.48,5.57,0.36
					C197.04,357.9,198.73,357.48,200.33,356.79z"/>
				<path class="st64" d="M249.16,333.59c0,0,0,0.13-0.09,0.36c-0.11,0.32-0.25,0.64-0.41,0.94c-0.6,1.15-1.41,2.18-2.38,3.04
					c-1.44,1.27-3.09,2.28-4.89,2.96c-2.2,0.8-4.48,1.33-6.8,1.59c-2.45,0.32-4.79,0.53-6.9,0.85c-1.87,0.21-3.72,0.54-5.55,0.99
					c-1.21,0.35-2.35,0.94-3.33,1.73c-0.34,0.33-0.69,0.65-1.07,0.94c0.06-0.11,0.13-0.21,0.22-0.29c0.23-0.27,0.47-0.52,0.73-0.75
					c0.97-0.86,2.1-1.51,3.34-1.89c1.84-0.51,3.71-0.87,5.6-1.1c2.11-0.36,4.46-0.57,6.9-0.94c2.29-0.26,4.54-0.77,6.71-1.53
					c1.76-0.66,3.39-1.62,4.82-2.83C247.36,336.53,248.41,335.14,249.16,333.59z"/>
				<path class="st64" d="M167.84,330.86c1.46,0.95,3.05,1.69,4.72,2.21c1.82,0.52,3.72,0.69,5.6,0.49c2.3-0.31,4.51-1.07,6.51-2.24
					c2.18-1.17,4.19-2.45,6.19-3.34c1.76-0.83,3.66-1.3,5.6-1.41c1.31-0.07,2.63,0.15,3.84,0.67c0.33,0.15,0.65,0.32,0.94,0.53
					c0.11,0.06,0.21,0.14,0.29,0.23c0,0.05-0.44-0.25-1.28-0.58c-1.21-0.44-2.49-0.61-3.77-0.51c-1.88,0.15-3.72,0.65-5.43,1.47
					c-1.94,0.94-3.94,2.19-6.15,3.37c-2.06,1.2-4.34,1.97-6.7,2.25c-1.93,0.19-3.88-0.01-5.74-0.59c-1.25-0.38-2.43-0.94-3.52-1.66
					c-0.3-0.19-0.58-0.4-0.85-0.63C167.92,330.96,167.83,330.87,167.84,330.86z"/>
				<path class="st64" d="M243.8,306.06c-0.2,0.42-0.45,0.82-0.74,1.19c-0.76,1.02-1.61,1.97-2.55,2.83
					c-3.14,2.86-7.04,4.75-11.24,5.42c-2.3,0.3-4.63,0.3-6.93,0c-1.85-0.21-3.72-0.19-5.57,0.06c-1.24,0.19-2.43,0.61-3.5,1.25
					c-0.75,0.47-1.1,0.83-1.13,0.8c-0.03-0.03,0.07-0.11,0.23-0.28c0.25-0.25,0.52-0.47,0.8-0.68c1.07-0.72,2.27-1.2,3.54-1.42
					c1.87-0.31,3.78-0.37,5.66-0.17c2.27,0.25,4.56,0.23,6.82-0.08c4.11-0.66,7.95-2.46,11.09-5.19
					C241.55,308.62,242.73,307.38,243.8,306.06z"/>
				<path class="st64" d="M201.7,303.69c-1.55-0.52-3.15-0.84-4.78-0.94c-1.76-0.04-3.51,0.24-5.17,0.84
					c-0.94,0.33-1.89,0.86-2.88,1.27c-0.54,0.23-1.1,0.38-1.68,0.44c-0.61,0.05-1.22-0.03-1.79-0.24c-1.05-0.46-2.05-1.03-2.98-1.71
					c-0.89-0.55-1.84-0.99-2.83-1.31c-1.67-0.56-3.43-0.79-5.19-0.69c-1.61,0.14-3.2,0.49-4.72,1.05c0,0,0.09-0.08,0.29-0.18
					c0.3-0.16,0.62-0.29,0.94-0.41c1.14-0.43,2.33-0.71,3.54-0.81c1.81-0.15,3.62,0.05,5.35,0.6c1.02,0.32,2,0.77,2.92,1.34
					c0.9,0.65,1.87,1.2,2.89,1.65c1.03,0.34,2.15,0.27,3.13-0.19c0.99-0.4,1.89-0.94,2.91-1.25c1.71-0.6,3.52-0.86,5.33-0.76
					c1.22,0.06,2.42,0.3,3.57,0.7c0.32,0.11,0.64,0.23,0.94,0.38C201.61,303.61,201.71,303.67,201.7,303.69z"/>
				<path class="st64" d="M243.8,300.3c-0.31,0.37-0.65,0.72-1.02,1.03c-0.96,0.91-1.97,1.75-3.04,2.53
					c-0.68,0.48-1.42,1.04-2.26,1.53c-0.42,0.25-0.85,0.54-1.3,0.79l-1.43,0.75c-2.16,1.07-4.43,1.89-6.77,2.46
					c-2.35,0.54-4.75,0.81-7.15,0.81l-1.61-0.05c-0.53,0-1.03-0.09-1.52-0.13c-0.99-0.07-1.89-0.26-2.71-0.4
					c-1.3-0.23-2.58-0.54-3.83-0.94c-0.47-0.13-0.92-0.3-1.36-0.51c0-0.1,1.98,0.59,5.25,1.15c0.82,0.11,1.72,0.28,2.69,0.33
					c0.48,0,0.94,0.09,1.5,0.1h1.59c2.37-0.03,4.73-0.3,7.04-0.83c2.3-0.57,4.54-1.37,6.67-2.4l1.42-0.72
					c0.46-0.25,0.89-0.52,1.31-0.76c0.85-0.46,1.58-1.01,2.27-1.46c1.35-0.94,2.42-1.77,3.11-2.39
					C243.02,300.87,243.4,300.57,243.8,300.3z"/>
				<path class="st64" d="M238.08,273.29c-0.19,0.15-0.4,0.27-0.61,0.38l-1.81,0.94c-1.59,0.82-3.88,2.02-6.83,3.26
					c-3.45,1.51-7.09,2.52-10.82,3c-2.22,0.25-4.46,0.21-6.66-0.11c-2.35-0.41-4.66-1.04-6.9-1.89c-4.6-1.67-8.8-3.66-12.88-4.72
					c-3.6-0.95-7.34-1.25-11.04-0.87c-2.5,0.25-4.96,0.8-7.33,1.62c-0.84,0.3-1.48,0.55-1.89,0.73c-0.22,0.1-0.45,0.19-0.68,0.25
					c0.19-0.1,0.38-0.18,0.59-0.25c0.42-0.22,1.06-0.49,1.89-0.82c2.37-0.91,4.84-1.51,7.36-1.79c3.75-0.43,7.55-0.17,11.2,0.77
					c4.12,1.05,8.36,3.03,12.92,4.72c2.21,0.82,4.49,1.44,6.81,1.84c2.16,0.33,4.36,0.38,6.54,0.15c3.69-0.46,7.31-1.43,10.74-2.88
					c2.95-1.2,5.27-2.34,6.88-3.11l1.89-0.9C237.63,273.5,237.85,273.39,238.08,273.29z"/>
				<path class="st64" d="M236.11,259.23c-0.52-0.62-1.12-1.18-1.77-1.65c-1.9-1.16-4.1-1.74-6.32-1.66c-1.52,0-3.04,0.27-4.47,0.78
					c-1.56,0.56-3.18,1.26-4.88,2.04c-3.64,1.84-7.46,3.29-11.41,4.32c-9.46,2.34-19.43,1.44-28.31-2.58
					c-0.73-0.34-1.26-0.62-1.64-0.81c-0.19-0.09-0.38-0.19-0.55-0.32c0.21,0.05,0.4,0.13,0.59,0.23l1.67,0.74
					c2.06,0.85,4.18,1.56,6.33,2.12c3.2,0.82,6.48,1.28,9.79,1.38c4.04,0.14,8.08-0.27,12.01-1.23c3.91-1.03,7.7-2.45,11.32-4.25
					c1.71-0.76,3.35-1.47,4.94-2.01c1.48-0.53,3.04-0.78,4.6-0.75c2.28-0.03,4.52,0.62,6.43,1.89c0.5,0.36,0.94,0.79,1.32,1.27
					C235.89,258.89,236.01,259.05,236.11,259.23z"/>
				<path class="st92" d="M255.12,171.62l-13.27-17.44l-0.59,0.42l-21.16,13.32l-22.59,0.78c0,0-15.84,0-21.79,12.48
					c-0.65,1.37-13.66,27.36-13.66,27.36l20.09,7.37l3.26-9.28l4.15,21.06l-5.98,17.36l50.35,2.7l-4.22-25.21l3.77-30.2
					L255.12,171.62z"/>
				<path class="st59" d="M220.06,212.28c0.07,0.48,0.07,0.97,0,1.45c-0.13,1.32-0.45,2.62-0.94,3.85
					c-1.73,4.09-4.85,7.43-8.81,9.44c-3.96,1.91-8.33,2.78-12.72,2.55c-1.32-0.04-2.63-0.18-3.93-0.41
					c-0.48-0.05-0.95-0.16-1.41-0.33c0-0.11,2.05,0.27,5.35,0.3c4.29,0.11,8.55-0.81,12.43-2.66c3.84-1.94,6.91-5.12,8.7-9.03
					C219.37,215.78,219.82,214.05,220.06,212.28z"/>
				<path class="st59" d="M189.75,228.68c-0.17,0-2.59-10.9-5.4-24.41c-2.81-13.51-4.96-24.53-4.79-24.53s2.58,10.9,5.4,24.41
					C187.78,217.66,189.92,228.64,189.75,228.68z"/>
				<g class="st60">
					<path d="M195.96,229.55c-0.55-1.98,1-4.01,2.83-4.9c1.83-0.89,3.97-1,5.97-1.47c3.91-0.92,7.35-3.22,9.71-6.46
						c0.31-0.44,0.69-0.94,1.23-0.94c0.54,0.02,1,0.41,1.1,0.94c0.19,0.61,0.22,1.26,0.09,1.89c-0.94,4.83-4.84,6.85-8.83,8.99
						s-7.19,2.35-12.13,1.95"/>
				</g>
			</g>
			<g>
				<path class="st80" d="M380.07,137.38c-0.26,0.61-0.65,1.1-1.11,1.54c-0.47,0.43-1.03,0.79-1.67,0.99l0.26-0.76
					c0.4,0.74,0.74,1.52,0.88,2.43c-0.74-0.53-1.28-1.19-1.76-1.88l-0.34-0.49l0.61-0.26c0.5-0.22,0.99-0.47,1.49-0.75
					C378.93,137.91,379.45,137.61,380.07,137.38z"/>
			</g>
			<path class="st70" d="M375.14,132.77c-0.11,1.18,0.33,2.18,0.98,2.24c0.65,0.06,1.26-0.85,1.37-2.03
				c0.11-1.18-0.33-2.18-0.98-2.24C375.86,130.68,375.24,131.59,375.14,132.77z"/>
			<path class="st70" d="M384.58,134.16c-0.11,1.18,0.33,2.18,0.98,2.24c0.65,0.06,1.26-0.85,1.37-2.03
				c0.11-1.18-0.33-2.18-0.98-2.24C385.3,132.07,384.69,132.98,384.58,134.16z"/>
			<path class="st79" d="M389.22,130.77c-0.97-1.97-3.41-3.21-5.31-1.53"/>
			<path class="st79" d="M379.25,128.07c-1.08-1.86-3.91-2.08-5.32-0.23"/>
			<g>
				<path class="st93" d="M382.59,146.26c0,0-4.85-2.78-6.94-1L382.59,146.26z"/>
				<path class="st93" d="M382.59,146.26c0,0-2.19,3.1-4.79,2.52c-3.04-0.68-2.15-3.52-2.15-3.52L382.59,146.26z"/>
				<path class="st6" d="M382.59,146.26l-6.94-1C375.65,145.25,376.51,150.07,382.59,146.26z"/>
			</g>
			<g>
				<path class="st94" d="M145.29,135.43c0.91,0.5,1.61,1.11,2.41,1.51l0.39,0.19l-0.23,0.33c-0.39,0.57-0.84,1.1-1.41,1.55
					c0.16-0.71,0.45-1.34,0.8-1.94l0.16,0.52c-0.5-0.2-0.93-0.52-1.28-0.89C145.77,136.33,145.49,135.91,145.29,135.43z"/>
			</g>
			<path class="st70" d="M150.42,131.6c0.05,1.06-0.35,1.94-0.9,1.96c-0.55,0.02-1.03-0.82-1.09-1.88c-0.05-1.06,0.35-1.94,0.9-1.96
				C149.88,129.7,150.37,130.54,150.42,131.6z"/>
			<path class="st70" d="M140.7,132.83c0.06,1.18-0.39,2.17-1,2.19c-0.61,0.03-1.16-0.91-1.21-2.1c-0.06-1.18,0.39-2.17,1-2.19
				C140.09,130.7,140.64,131.64,140.7,132.83z"/>
			<g>
				<path class="st86" d="M135.06,130.27c0.17-1.25,1.12-2.38,2.42-2.83c0.65-0.21,1.4-0.21,2.03,0.06
					c0.64,0.26,1.13,0.75,1.38,1.32c-0.58-0.26-1.1-0.45-1.61-0.52c-0.51-0.05-1-0.01-1.47,0.15
					C136.84,128.78,135.98,129.43,135.06,130.27z"/>
			</g>
			<g>
				<path class="st86" d="M146,127.76c0.11-0.61,0.5-1.17,1.03-1.55c0.53-0.39,1.21-0.57,1.87-0.57c0.66,0.02,1.33,0.23,1.84,0.63
					c0.52,0.39,0.9,0.94,1.03,1.54c-0.99-0.72-1.91-1.08-2.9-1.09C147.9,126.69,146.96,127,146,127.76z"/>
			</g>
			<g>
				<path class="st93" d="M142.47,144.39c0,0,4.94-3.03,7.21-1.55L142.47,144.39z"/>
				<path class="st93" d="M142.47,144.39c0,0,2.43,2.7,5.13,1.92c3.14-0.91,2.08-3.47,2.08-3.47L142.47,144.39z"/>
				<path class="st95" d="M142.47,144.39l7.21-1.55C149.68,142.84,149,147.4,142.47,144.39z"/>
				<path class="st96" d="M144.95,144.23c-0.55,0.12-1.07,0.31-1.53,0.55c-0.3-0.12-0.62-0.24-0.95-0.4l7.21-1.55
					c0,0-0.23,1.54-1.7,2.24C147.18,144.38,146.09,143.99,144.95,144.23z"/>
			</g>
		</g>
	</g>
</g>
</svg>
