<?xml version="1.0" encoding="utf-8"?>
<!-- Generator: Adobe Illustrator 24.0.0, SVG Export Plug-In . SVG Version: 6.00 Build 0)  -->
<svg version="1.1" id="Layer_1" xmlns="http://www.w3.org/2000/svg" xmlns:xlink="http://www.w3.org/1999/xlink" x="0px" y="0px"
	 viewBox="0 0 256.36 178.91" style="enable-background:new 0 0 256.36 178.91;" xml:space="preserve">
<style type="text/css">
	.st0{fill:#3C4657;}
	.st1{fill:#313945;}
	.st2{fill:#231F20;}
	.st3{opacity:0.3;}
	.st4{fill:#D1D2D2;}
	.st5{fill:#C9EAFB;}
	.st6{fill:#FFFFFF;}
	
		.st7{fill:none;stroke:#FDF5F9;stroke-width:2.1703;stroke-linecap:round;stroke-linejoin:round;stroke-miterlimit:10;stroke-dasharray:8.6811;}
	.st8{fill:#72256F;}
	.st9{fill:#3C2415;}
	.st10{fill:#B56A57;}
	.st11{opacity:0.4;fill:#B56A57;}
	.st12{fill:#BE1E2D;}
	.st13{fill:#4C3B4B;}
	.st14{fill:#392A38;}
	.st15{fill:#F0645C;}
	.st16{fill:#603913;}
	.st17{fill:#F1F2F2;}
	.st18{fill:#D8792B;}
	.st19{fill:#8AB5CF;}
	.st20{fill:#C6E1F5;}
	.st21{fill:#F79731;}
	.st22{fill:#84A5BA;}
	.st23{fill:#658CA2;}
	.st24{fill:#9CC3DB;}
	.st25{fill:#72A749;}
	.st26{fill:#87C557;}
	.st27{fill:#C1DA73;}
	.st28{fill:#D77A40;}
	.st29{fill:#BFE068;}
	.st30{fill:#F7FAFB;}
	.st31{fill:#FBB040;}
	.st32{fill:#F5F5F6;}
	.st33{fill:url(#SVGID_1_);}
	.st34{fill:none;stroke:#F7FAFB;stroke-width:3.0845;stroke-miterlimit:10;}
	.st35{fill:#D4F0F5;}
	.st36{opacity:0.57;}
	.st37{fill:#92D5E4;}
	.st38{fill:#FFFFFF;stroke:#852170;stroke-width:0.9103;stroke-miterlimit:10;}
	.st39{fill:#852170;}
	.st40{fill:none;stroke:#852170;stroke-width:0.4552;stroke-miterlimit:10;}
	.st41{opacity:0.5;fill:#852170;}
	.st42{opacity:0.4;}
	.st43{clip-path:url(#SVGID_3_);}
	.st44{opacity:0.63;}
	.st45{fill:#B9E5EE;}
	.st46{fill:#FF9F66;}
	.st47{fill:#73ADDB;}
	.st48{fill:#2E214C;}
	.st49{fill:#43305F;}
	.st50{fill:#FF8A31;}
	.st51{fill:#549CCB;}
	.st52{fill:#FF9B3A;}
	.st53{fill:#F2763F;}
	.st54{fill:#4489B4;}
	.st55{fill:#F17D24;}
	.st56{opacity:0.74;}
	.st57{clip-path:url(#SVGID_5_);}
	.st58{fill:#E8505B;}
	.st59{fill:#263238;}
	.st60{opacity:0.2;}
	.st61{fill:#455A64;}
	.st62{fill:#ADD337;}
	.st63{opacity:0.69;fill:#FFFFFF;}
	.st64{fill:#FAFAFA;}
	.st65{fill:#FFBE9D;}
	.st66{fill:#CC8F75;}
	.st67{opacity:0.78;}
	.st68{fill:#7C2639;}
	.st69{fill:#E28088;}
	.st70{fill:#222228;}
	.st71{fill:#F0A2F4;}
	.st72{fill:#684D34;}
	.st73{fill:#604966;}
	.st74{fill:#3F1E47;}
	.st75{fill:#936754;}
	.st76{fill:#EB996E;}
	.st77{fill:#7F584A;}
	.st78{fill:#0A0705;}
	.st79{fill:#60381A;}
	.st80{fill:#7C5142;}
	.st81{opacity:0.6;}
	.st82{fill:#3D3D3D;}
	.st83{fill:#6FB56B;}
	.st84{fill:#97F794;}
	.st85{fill:#754925;}
	.st86{fill:#5E3A1E;}
	.st87{fill:#AFA15B;}
	.st88{fill:#FFEE8D;}
	.st89{fill:#B78876;}
	.st90{fill:#F5F5F5;}
	.st91{fill:#BF594F;}
	.st92{fill:#FF725E;}
	.st93{fill:#C96565;}
	.st94{fill:#B57662;}
	.st95{fill:#EA9898;}
	.st96{fill:#7C4A4A;}
	.st97{fill:#EBEBEB;}
	.st98{fill:#E0E0E0;}
	.st99{opacity:0.5;}
	.st100{fill:#995037;}
	.st101{fill:#773C2C;}
	.st102{fill:none;}
	.st103{fill:#E5BAAB;}
	.st104{fill:#D78776;}
	.st105{fill:#BC93B4;}
	.st106{fill:#B77153;}
	.st107{fill:#724940;}
	.st108{fill:#A56B65;}
	.st109{fill:#492F1B;}
	.st110{fill:#4B6EBC;}
	.st111{fill:#3D5C91;}
	.st112{fill:#A4CC64;}
	.st113{fill:#0086BF;}
	.st114{fill:none;stroke:#4E585D;stroke-miterlimit:10;}
	.st115{fill:#AF5858;}
	.st116{fill:#71A5BC;}
	.st117{fill:#AF7127;}
	.st118{fill:#4C3D2D;}
	.st119{fill:#AA6550;}
	.st120{fill:#93584A;}
</style>
<g>
	<g>
		<path class="st4" d="M19.79,49.94C16.6,38.03,25.24,24.4,44.51,22.83c24.79-2.01,43.4,16.06,47.53,21.31
			c8.3,10.54,3.53,33.12-14.05,39.17c-3.05,1.05,18.76-10.43,9.36-30.16c-5.21-10.95-14.18-18.44-22.99-22.94
			c-9.19-4.7-13.58-5.9-23.67-2.33C21.71,34.6,21.67,45.95,22.35,53.18"/>
		<path class="st4" d="M79.83,76.07c-17.25,15.35-38.8,12.44-44.51,11.35c-11.5-2.2-20.61-21.85-12.85-34.89
			c1.35-2.26-7.15,20.22,10.42,27.57c9.75,4.08,16.23,8.22,27.46,4.14C69.03,81.08,75.37,79.08,79.83,76.07"/>
	</g>
	<g>
		<path class="st4" d="M97.96,73.73c-12.15,19.38-37.09,11.81-40.39,8.86c-6.62-5.93-17.54-15.45-6.68-29.61
			c1.31-1.71-3.7,7.07,5.76,20.27c5.25,7.32,18.33,8.52,23.67,9.25c5.58,0.76,13.99-5.17,16.52-10.21"/>
		<path class="st4" d="M46.34,54.1c-1.12-4.33-1.43-10.46,6.15-19.44c9.75-11.55,29.27-2.46,32.43,0.7
			c6.35,6.34,13.27,29.19,9.9,40.1c-0.77,2.49,0.78-15.57-8.55-29.84c-5.17-7.91-17.13-8.86-22.03-9.5
			c-5.11-0.67-11.07,2.13-13.6,6.3C48.11,46.58,46.34,54.1,46.34,54.1z"/>
	</g>
	<g>
		<path class="st4" d="M40.1,75.85c-5.45-9.79-4.12-16.44-1.35-25.41c2.65-8.6,7.12-24.87,17.14-31.47
			c18.07-11.91,36.9-4.6,33.76-5.84c-14.33-5.66-31.49-4.25-40.42,5.01c-4.45,4.6-24.3,33.53-16.77,55.03
			c5.86,16.72,22.11,13.78,26.89,13.25C59.35,86.42,45.55,85.64,40.1,75.85z"/>
		<path class="st4" d="M83.76,18.39c4.4,0.44,25.28,9.19,27.56,25.06c2.93,20.4-20.17,42.13-24.99,45.35
			c-9.72,6.47-27.29,8.01-39.19,0.29c-2.61-1.69,14.9,4.78,33.33-2.29c10.22-3.92,17.17-17.42,21.1-24.5
			c4.11-7.39,6.42-17,3.11-22.81c-12.59-22.06-3.23-4.32-32.03-24.13"/>
	</g>
	<g>
		<path class="st4" d="M83.3,131.69c-0.07-1.81-0.15-3.66-0.24-5.54c0.37,0.06,0.73,0.11,1.07,0.15c0.34,0.04,0.68,0.06,1.02,0.06
			c0.34,0,0.69-0.02,1.03-0.06c0.34-0.04,0.7-0.1,1.07-0.15c-0.09,1.88-0.16,3.73-0.24,5.54c-0.07,1.81-0.11,3.66-0.11,5.54v7.36
			c0,1.88,0.03,3.74,0.11,5.56c0.07,1.83,0.15,3.62,0.24,5.39c-0.65-0.06-1.35-0.08-2.1-0.08c-0.74,0-1.44,0.03-2.09,0.08
			c0.08-1.77,0.16-3.56,0.24-5.39c0.07-1.82,0.11-3.68,0.11-5.56v-7.36C83.4,135.35,83.37,133.5,83.3,131.69z"/>
		<path class="st4" d="M95.28,151.54c0.39,0.53,0.86,1,1.41,1.43c0.56,0.42,1.2,0.77,1.95,1.04c0.74,0.27,1.57,0.41,2.48,0.41
			c0.94,0,1.79-0.16,2.54-0.49c0.76-0.33,1.4-0.77,1.93-1.33c0.53-0.56,0.93-1.21,1.22-1.97c0.29-0.76,0.43-1.56,0.43-2.42
			c0-1.31-0.33-2.36-1-3.13c-0.67-0.77-1.51-1.41-2.5-1.92c-1-0.51-2.07-0.98-3.23-1.41c-1.16-0.43-2.23-0.96-3.23-1.6
			c-1-0.64-1.83-1.46-2.5-2.46c-0.67-1-1.01-2.34-1.01-4.02c0-1.2,0.21-2.29,0.64-3.27c0.43-0.98,1.05-1.83,1.86-2.55
			c0.81-0.71,1.79-1.27,2.93-1.67c1.14-0.4,2.42-0.6,3.85-0.6c1.37,0,2.55,0.16,3.55,0.49c1,0.33,1.93,0.83,2.78,1.52
			c-0.26,0.49-0.47,1-0.64,1.54c-0.17,0.54-0.34,1.23-0.51,2.05h-0.51c-0.14-0.4-0.34-0.83-0.58-1.3c-0.24-0.47-0.57-0.9-0.98-1.31
			c-0.41-0.4-0.91-0.73-1.47-1.01c-0.57-0.27-1.26-0.41-2.06-0.41c-0.8,0-1.53,0.13-2.2,0.38c-0.67,0.26-1.26,0.62-1.76,1.09
			c-0.5,0.47-0.88,1.03-1.15,1.69c-0.27,0.65-0.41,1.37-0.41,2.14c0,1.34,0.33,2.4,1,3.16c0.67,0.77,1.5,1.42,2.5,1.95
			c1,0.53,2.07,1,3.23,1.41c1.16,0.41,2.23,0.92,3.23,1.52c1,0.6,1.83,1.37,2.5,2.31c0.67,0.94,1.01,2.2,1.01,3.76
			c0,1.31-0.24,2.55-0.71,3.72c-0.47,1.17-1.16,2.19-2.05,3.06c-0.9,0.87-2,1.54-3.29,2.01c-1.3,0.47-2.77,0.71-4.42,0.71
			c-1.77,0-3.2-0.24-4.3-0.71c-1.1-0.47-2.02-1-2.76-1.6c0.26-0.66,0.43-1.25,0.53-1.78c0.1-0.53,0.19-1.2,0.28-2.03h0.51
			C94.58,150.49,94.89,151.01,95.28,151.54z"/>
		<path class="st4" d="M116.58,131.69c-0.07-1.81-0.15-3.66-0.24-5.54c1.08,0.06,2.16,0.11,3.23,0.15c1.07,0.04,2.14,0.06,3.23,0.06
			c1.08,0,2.16-0.03,3.23-0.11c1.07-0.07,2.14-0.11,3.23-0.11c2.51,0,4.65,0.33,6.44,0.99c1.78,0.65,3.24,1.59,4.38,2.8
			c1.14,1.21,1.97,2.69,2.5,4.45c0.53,1.76,0.79,3.73,0.79,5.92c0,2.86-0.49,5.25-1.48,7.21c-0.98,1.95-2.24,3.53-3.76,4.73
			c-1.52,1.2-3.21,2.05-5.05,2.55c-1.84,0.5-3.6,0.75-5.28,0.75c-0.97,0-1.93-0.02-2.87-0.04c-0.94-0.03-1.9-0.04-2.87-0.04
			c-0.97,0-1.92,0-2.87,0s-1.9,0.03-2.87,0.08c0.08-1.77,0.16-3.56,0.24-5.39c0.07-1.82,0.11-3.68,0.11-5.56v-7.36
			C116.68,135.35,116.65,133.5,116.58,131.69z M120.45,153.66c0.6,0.14,1.41,0.25,2.44,0.32c1.03,0.07,2.08,0.11,3.17,0.11
			c1.57,0,3.14-0.18,4.71-0.56c1.57-0.37,2.97-1.07,4.21-2.1c1.24-1.03,2.25-2.43,3.04-4.21c0.78-1.78,1.18-4.09,1.18-6.91
			c0-2.48-0.31-4.52-0.92-6.12c-0.61-1.6-1.45-2.86-2.52-3.79c-1.07-0.92-2.35-1.57-3.83-1.93c-1.48-0.36-3.11-0.53-4.88-0.53
			c-1.28,0-2.48,0.04-3.59,0.13c-1.11,0.09-2.11,0.19-2.99,0.3c-0.09,1.37-0.15,2.8-0.19,4.3c-0.04,1.49-0.06,3.01-0.06,4.55v7.36
			C120.19,147.67,120.28,150.69,120.45,153.66z"/>
		<path class="st4" d="M149.86,131.63c-0.07-1.83-0.15-3.65-0.24-5.48c1.28,0.06,2.56,0.11,3.83,0.15c1.27,0.04,2.54,0.06,3.83,0.06
			c1.28,0,2.55-0.02,3.8-0.06c1.26-0.04,2.53-0.1,3.81-0.15c-0.09,0.43-0.13,0.86-0.13,1.28c0,0.43,0.04,0.86,0.13,1.28
			c-0.91-0.06-1.75-0.11-2.5-0.17c-0.76-0.06-1.56-0.12-2.4-0.18c-0.84-0.06-1.76-0.1-2.76-0.15c-1-0.04-2.2-0.06-3.59-0.06
			c-0.03,0.91-0.06,1.78-0.11,2.61c-0.04,0.83-0.07,1.77-0.07,2.82c0,1.11,0,2.19,0.02,3.25c0.01,1.06,0.02,1.86,0.02,2.4
			c1.26,0,2.38-0.02,3.38-0.04c1-0.03,1.91-0.07,2.74-0.11c0.82-0.04,1.59-0.08,2.29-0.13c0.7-0.04,1.36-0.09,1.99-0.15
			c-0.09,0.43-0.13,0.87-0.13,1.32c0,0.43,0.04,0.86,0.13,1.28c-0.74-0.09-1.6-0.15-2.59-0.21c-0.98-0.06-1.97-0.09-2.95-0.11
			c-0.98-0.01-1.91-0.02-2.78-0.04c-0.87-0.01-1.56-0.02-2.08-0.02c0,0.26,0,0.54-0.02,0.84c-0.02,0.3-0.02,0.68-0.02,1.13v1.67
			v2.57c0,1.62,0,2.97,0.02,4.02c0.01,1.05,0.04,1.85,0.06,2.39c0.94,0,1.94,0,2.99,0c1.08,0,2.15-0.02,3.19-0.06
			c1.04-0.04,2.02-0.1,2.95-0.17c0.93-0.07,1.74-0.18,2.42-0.32c-0.06,0.2-0.09,0.42-0.11,0.66c-0.01,0.24-0.02,0.46-0.02,0.67
			c0,0.46,0.04,0.82,0.13,1.11c-1.28-0.06-2.56-0.08-3.83-0.08c-1.27,0-2.56,0-3.87,0c-1.31,0-2.61,0-3.89,0
			c-1.28,0-2.58,0.03-3.89,0.08c0.09-1.82,0.16-3.64,0.24-5.45c0.07-1.81,0.11-3.66,0.11-5.54v-7.36
			C149.96,135.31,149.92,133.45,149.86,131.63z"/>
		<path class="st4" d="M180.05,137.4c2.01,3.82,4.11,7.74,6.31,11.76c0.29-0.54,0.7-1.32,1.24-2.33c0.54-1.01,1.17-2.18,1.88-3.49
			c0.71-1.31,1.47-2.73,2.29-4.26c0.81-1.53,1.64-3.07,2.48-4.64c0.84-1.57,1.67-3.11,2.5-4.62c0.83-1.51,1.6-2.92,2.31-4.23h0.56
			c0.31,2.74,0.61,5.38,0.87,7.93c0.27,2.55,0.55,5.06,0.84,7.53c0.29,2.46,0.57,4.91,0.86,7.31c0.28,2.41,0.6,4.8,0.94,7.17
			c-0.34-0.06-0.68-0.08-1-0.08c-0.33,0-0.66,0-1.01,0c-0.34,0-0.68,0-1.01,0c-0.33,0-0.66,0.03-1,0.08
			c-0.32-3.79-0.63-7.47-0.94-11.03c-0.31-3.56-0.7-7.2-1.15-10.91h-0.08c-1.97,3.59-3.9,7.16-5.8,10.72
			c-1.9,3.55-3.7,7.26-5.41,11.14h-0.38c-1.71-3.59-3.5-7.19-5.37-10.8c-1.87-3.61-3.74-7.29-5.63-11.06h-0.09
			c-0.2,1.77-0.42,3.69-0.66,5.75c-0.24,2.07-0.46,4.1-0.66,6.12c-0.2,2.01-0.37,3.91-0.51,5.69c-0.14,1.79-0.21,3.25-0.21,4.38
			c-0.46-0.06-0.96-0.08-1.5-0.08c-0.54,0-1.04,0.03-1.5,0.08c0.37-2.31,0.75-4.75,1.15-7.31c0.4-2.57,0.79-5.15,1.16-7.74
			c0.37-2.6,0.71-5.16,1.03-7.68c0.31-2.52,0.58-4.93,0.81-7.21h0.73C176.06,129.65,178.04,133.58,180.05,137.4z"/>
		<path class="st4" d="M231.62,130.69c-0.03-2.2-0.1-3.71-0.22-4.54c0.32,0.06,0.62,0.11,0.9,0.15c0.29,0.04,0.57,0.06,0.86,0.06
			c0.37,0,0.8-0.07,1.28-0.21c-0.09,1-0.17,2.19-0.26,3.57c-0.08,1.38-0.15,2.86-0.21,4.45c-0.06,1.58-0.11,3.21-0.17,4.88
			c-0.06,1.67-0.1,3.29-0.13,4.86c-0.03,1.91-0.32,3.62-0.88,5.13c-0.56,1.51-1.35,2.8-2.37,3.85c-1.03,1.06-2.29,1.85-3.79,2.4
			c-1.5,0.54-3.21,0.81-5.15,0.81c-4.28,0-7.39-0.97-9.33-2.91c-1.94-1.94-2.91-5-2.91-9.2c0-1.34,0.04-2.53,0.11-3.57
			c0.07-1.04,0.11-2.11,0.11-3.19c0-2.4-0.03-4.52-0.09-6.37c-0.06-1.85-0.11-3.42-0.17-4.71c0.34,0.06,0.71,0.11,1.11,0.15
			c0.4,0.04,0.77,0.06,1.11,0.06c0.31,0,0.62-0.02,0.92-0.06c0.3-0.04,0.61-0.1,0.92-0.15c-0.06,0.63-0.11,1.45-0.17,2.46
			c-0.06,1.02-0.11,2.16-0.17,3.44c-0.06,1.28-0.1,2.67-0.13,4.15c-0.03,1.48-0.04,3.02-0.04,4.62c0,0.97,0.01,1.97,0.04,3.02
			c0.03,1.04,0.13,2.06,0.3,3.04c0.17,0.99,0.45,1.93,0.83,2.82c0.38,0.9,0.94,1.68,1.65,2.35c0.71,0.67,1.61,1.2,2.69,1.58
			c1.08,0.38,2.42,0.58,4.02,0.58c1.57,0,2.89-0.23,3.96-0.69c1.07-0.46,1.95-1.05,2.63-1.8c0.68-0.74,1.22-1.6,1.6-2.57
			c0.39-0.97,0.66-1.98,0.84-3.04c0.17-1.05,0.27-2.11,0.3-3.17c0.03-1.05,0.04-2.02,0.04-2.91
			C231.66,136.01,231.65,132.88,231.62,130.69z"/>
	</g>
	<g>
		<path class="st4" d="M95.74,94.06v10.93h-1.19V94.06H95.74z"/>
		<path class="st4" d="M97.94,97.11h1.04v0.86c0.52-0.53,1.29-1.02,1.8-1.02c1.1,0,1.74,0.6,1.74,2.06v5.96h-1.1v-5.81
			c0-0.91-0.27-1.3-0.87-1.3c-0.54,0-1.02,0.36-1.51,0.97v6.14h-1.1V97.11z"/>
		<path class="st4" d="M107.81,99.11c-0.2-0.68-0.49-1.24-1.37-1.24c-0.52,0-0.89,0.41-0.89,0.94c0,1.61,3.36,1.7,3.36,4.15
			c0,1.24-0.92,2.18-2.17,2.18c-1.44,0-2.16-0.77-2.54-2.09l1.01-0.21c0.23,0.7,0.64,1.39,1.45,1.39c0.6,0,1.15-0.54,1.15-1.19
			c0-1.82-3.36-1.85-3.36-4.16c0-1.03,0.86-1.91,2.06-1.91c1.22,0,1.96,0.7,2.22,1.88L107.81,99.11z"/>
		<path class="st4" d="M109.69,97.11h1.07v-2.63h1.1v2.63h1.47v0.91h-1.47v5.51c0,0.45,0.25,0.79,0.8,0.79
			c0.22,0,0.49-0.09,0.67-0.15v0.82c-0.3,0.09-0.58,0.15-1.04,0.15c-1.04,0-1.53-0.49-1.53-1.69v-5.42h-1.07V97.11z"/>
		<path class="st4" d="M114.96,94.06h1.1v1.27h-1.1V94.06z M114.96,97.11h1.1v7.87h-1.1V97.11z"/>
		<path class="st4" d="M117.33,97.11h1.07v-2.63h1.1v2.63h1.47v0.91h-1.47v5.51c0,0.45,0.24,0.79,0.79,0.79
			c0.22,0,0.49-0.09,0.67-0.15v0.82c-0.31,0.09-0.58,0.15-1.04,0.15c-1.04,0-1.53-0.49-1.53-1.69v-5.42h-1.07V97.11z"/>
		<path class="st4" d="M127.15,104.98h-1.04v-0.86c-0.52,0.53-1.29,1.01-1.81,1.01c-1.1,0-1.74-0.6-1.74-2.06v-5.96h1.1v5.81
			c0,0.91,0.27,1.3,0.87,1.3c0.53,0,1.02-0.36,1.51-0.96v-6.15h1.1V104.98z"/>
		<path class="st4" d="M128.37,97.11h1.07v-2.63h1.1v2.63h1.47v0.91h-1.47v5.51c0,0.45,0.25,0.79,0.79,0.79
			c0.21,0,0.49-0.09,0.67-0.15v0.82c-0.3,0.09-0.58,0.15-1.04,0.15c-1.04,0-1.53-0.49-1.53-1.69v-5.42h-1.07V97.11z"/>
		<path class="st4" d="M135.46,96.96c1.67,0,2.43,1.24,2.43,4.09c0,2.84-0.76,4.09-2.43,4.09c-1.67,0-2.43-1.24-2.43-4.09
			C133.03,98.2,133.8,96.96,135.46,96.96z M135.46,104.22c0.93,0,1.33-0.57,1.33-3.18c0-2.6-0.4-3.18-1.33-3.18
			c-0.93,0-1.33,0.57-1.33,3.18C134.13,103.65,134.53,104.22,135.46,104.22z"/>
		<path class="st4" d="M146.79,96.87c-0.09-1.12-0.55-1.97-1.7-1.97c-0.92,0-1.51,0.61-1.51,1.44c0,2.46,4.43,2.5,4.43,6.01
			c0,1.74-1.01,2.78-2.83,2.78c-1.73,0-2.77-1.26-2.8-3.08h1.1c0.03,1.28,0.64,2.09,1.82,2.09c0.99,0,1.63-0.64,1.63-1.8
			c0-2.48-4.43-2.77-4.43-5.89c0-1.54,1.07-2.55,2.66-2.55c1.59,0,2.63,1.06,2.72,2.97H146.79z"/>
		<path class="st4" d="M149.57,99.26c0.21-1.24,0.95-2.3,2.35-2.3c1.47,0,2.28,0.85,2.28,2.24v4.39c0,0.7,0.08,1.21,0.2,1.39h-1.15
			l-0.14-0.66c-0.43,0.42-1.19,0.82-1.7,0.82c-1.24,0-2.06-0.79-2.06-2.03c0-1.93,2.16-2.92,3.75-3.27v-0.56
			c0-0.86-0.44-1.41-1.15-1.41c-0.84,0-1.25,0.83-1.38,1.54L149.57,99.26z M153.1,100.75c-1.01,0.3-2.65,1.03-2.65,2.27
			c0,0.74,0.34,1.21,1.13,1.21c0.6,0,1.11-0.41,1.51-0.81V100.75z"/>
		<path class="st4" d="M156.55,94.06h1.1v10.93h-1.1V94.06z"/>
		<path class="st4" d="M160.18,97.11l1.59,6.78h0.03l1.56-6.78h1.1l-1.96,7.87h-1.47l-1.96-7.87H160.18z"/>
		<path class="st4" d="M165.7,99.26c0.21-1.24,0.95-2.3,2.35-2.3c1.47,0,2.28,0.85,2.28,2.24v4.39c0,0.7,0.08,1.21,0.2,1.39h-1.15
			l-0.14-0.66c-0.43,0.42-1.19,0.82-1.7,0.82c-1.24,0-2.06-0.79-2.06-2.03c0-1.93,2.16-2.92,3.74-3.27v-0.56
			c0-0.86-0.44-1.41-1.15-1.41c-0.84,0-1.25,0.83-1.38,1.54L165.7,99.26z M169.23,100.75c-1.01,0.3-2.64,1.03-2.64,2.27
			c0,0.74,0.34,1.21,1.13,1.21c0.6,0,1.12-0.41,1.51-0.81V100.75z"/>
		<path class="st4" d="M176.23,104.22h-0.03c-0.38,0.56-0.93,0.91-1.63,0.91c-1.25,0-2.29-1.06-2.29-4.09
			c0-3.03,1.04-4.09,2.29-4.09c0.6,0,1.1,0.36,1.47,0.73v-3.63h1.1v8.81c0,1.03,0.06,1.67,0.18,2.12h-1.04L176.23,104.22z
			 M176.03,98.56c-0.32-0.32-0.7-0.69-1.19-0.69c-0.93,0-1.47,0.75-1.47,3.18c0,2.42,0.58,3.18,1.5,3.18c0.34,0,0.82-0.3,1.16-0.76
			V98.56z"/>
		<path class="st4" d="M181.28,96.96c1.67,0,2.43,1.24,2.43,4.09c0,2.84-0.76,4.09-2.43,4.09c-1.66,0-2.43-1.24-2.43-4.09
			C178.86,98.2,179.62,96.96,181.28,96.96z M181.28,104.22c0.93,0,1.33-0.57,1.33-3.18c0-2.6-0.4-3.18-1.33-3.18
			c-0.93,0-1.33,0.57-1.33,3.18C179.96,103.65,180.35,104.22,181.28,104.22z"/>
		<path class="st4" d="M185.28,97.11h1.1v0.95h0.03c0.66-0.95,1.14-1.1,2.02-1.1v1.03c-0.83,0-1.45,0.27-2.05,1.39v5.6h-1.1V97.11z"
			/>
		<path class="st4" d="M190.15,101.23v0.44c0,1.92,0.45,2.55,1.48,2.55c0.84,0,1.19-0.77,1.33-1.48l1.04,0.12
			c-0.17,1.18-1.07,2.27-2.53,2.27c-1.66,0-2.43-1.24-2.43-4.09c0-2.84,0.76-4.09,2.43-4.09c1.68,0,2.43,1.48,2.43,3.75v0.51H190.15
			z M192.81,100.32c-0.03-1.7-0.34-2.45-1.33-2.45c-0.79,0-1.31,0.57-1.33,2.45H192.81z"/>
		<path class="st4" d="M195.56,97.11h1.04v0.86c0.52-0.53,1.28-1.02,1.81-1.02c1.1,0,1.74,0.6,1.74,2.06v5.96h-1.1v-5.81
			c0-0.91-0.28-1.3-0.87-1.3c-0.54,0-1.03,0.36-1.51,0.97v6.14h-1.1V97.11z M195.7,96.08c0.02-0.65,0.46-1.48,1.18-1.48
			c0.38,0,0.75,0.17,1.09,0.33c0.34,0.17,0.66,0.33,0.92,0.33c0.44,0,0.54-0.38,0.58-0.76h0.55c-0.05,0.74-0.33,1.49-1.19,1.49
			c-0.32,0-0.67-0.17-1.01-0.33c-0.34-0.17-0.67-0.33-0.95-0.33c-0.43,0-0.58,0.38-0.61,0.76H195.7z"/>
		<path class="st4" d="M204.21,96.96c1.66,0,2.43,1.24,2.43,4.09c0,2.84-0.77,4.09-2.43,4.09c-1.67,0-2.43-1.24-2.43-4.09
			C201.78,98.2,202.55,96.96,204.21,96.96z M204.21,104.22c0.93,0,1.33-0.57,1.33-3.18c0-2.6-0.4-3.18-1.33-3.18
			c-0.93,0-1.33,0.57-1.33,3.18C202.88,103.65,203.28,104.22,204.21,104.22z"/>
		<path class="st4" d="M212.7,97.87h0.03c0.37-0.56,0.92-0.91,1.62-0.91c1.25,0,2.29,1.06,2.29,4.09c0,3.03-1.04,4.09-2.29,4.09
			c-0.6,0-1.1-0.36-1.47-0.73v3.15h-1.1V97.11h0.92V97.87z M212.88,103.53c0.32,0.32,0.7,0.69,1.19,0.69c0.93,0,1.47-0.76,1.47-3.18
			c0-2.42-0.58-3.18-1.5-3.18c-0.34,0-0.82,0.3-1.16,0.75V103.53z"/>
		<path class="st4" d="M218.32,99.26c0.21-1.24,0.95-2.3,2.35-2.3c1.47,0,2.28,0.85,2.28,2.24v4.39c0,0.7,0.07,1.21,0.2,1.39H222
			l-0.14-0.66c-0.43,0.42-1.19,0.82-1.7,0.82c-1.24,0-2.06-0.79-2.06-2.03c0-1.93,2.15-2.92,3.74-3.27v-0.56
			c0-0.86-0.45-1.41-1.15-1.41c-0.84,0-1.25,0.83-1.37,1.54L218.32,99.26z M221.85,100.75c-1.01,0.3-2.65,1.03-2.65,2.27
			c0,0.74,0.34,1.21,1.13,1.21c0.6,0,1.12-0.41,1.52-0.81V100.75z"/>
		<path class="st4" d="M225.17,97.11h1.1v0.95h0.03c0.66-0.95,1.15-1.1,2.02-1.1v1.03c-0.83,0-1.45,0.27-2.05,1.39v5.6h-1.1V97.11z"
			/>
		<path class="st4" d="M229.36,99.26c0.21-1.24,0.95-2.3,2.36-2.3c1.47,0,2.28,0.85,2.28,2.24v4.39c0,0.7,0.08,1.21,0.2,1.39h-1.15
			l-0.14-0.66c-0.43,0.42-1.19,0.82-1.7,0.82c-1.24,0-2.06-0.79-2.06-2.03c0-1.93,2.15-2.92,3.74-3.27v-0.56
			c0-0.86-0.44-1.41-1.15-1.41c-0.84,0-1.25,0.83-1.37,1.54L229.36,99.26z M232.89,100.75c-1.01,0.3-2.64,1.03-2.64,2.27
			c0,0.74,0.34,1.21,1.13,1.21c0.6,0,1.12-0.41,1.51-0.81V100.75z"/>
		<path class="st4" d="M95.08,116.37v0.44c0,1.92,0.45,2.56,1.48,2.56c0.84,0,1.19-0.77,1.33-1.48l1.04,0.12
			c-0.17,1.18-1.07,2.27-2.52,2.27c-1.66,0-2.43-1.24-2.43-4.09c0-2.85,0.77-4.09,2.43-4.09c1.68,0,2.43,1.48,2.43,3.75v0.52H95.08z
			 M97.74,115.45c-0.03-1.69-0.33-2.45-1.33-2.45c-0.79,0-1.31,0.58-1.33,2.45H97.74z"/>
		<path class="st4" d="M100.53,109.19h1.1v10.93h-1.1V109.19z"/>
		<path class="st4" d="M107.18,109.19h2.05c2.32,0,3.73,1.27,3.73,5.46c0,4.19-1.41,5.46-3.73,5.46h-2.05V109.19z M108.38,119.12
			h0.64c1.74,0,2.75-0.73,2.75-4.46c0-3.74-1.01-4.46-2.75-4.46h-0.64V119.12z"/>
		<path class="st4" d="M115.45,116.37v0.44c0,1.92,0.44,2.56,1.48,2.56c0.84,0,1.19-0.77,1.33-1.48l1.04,0.12
			c-0.17,1.18-1.07,2.27-2.52,2.27c-1.67,0-2.43-1.24-2.43-4.09c0-2.85,0.76-4.09,2.43-4.09c1.68,0,2.43,1.48,2.43,3.75v0.52H115.45
			z M118.11,115.45c-0.03-1.69-0.33-2.45-1.33-2.45c-0.79,0-1.31,0.58-1.33,2.45H118.11z"/>
		<path class="st4" d="M123.95,114.24c-0.2-0.68-0.49-1.24-1.38-1.24c-0.52,0-0.89,0.41-0.89,0.94c0,1.61,3.36,1.7,3.36,4.15
			c0,1.24-0.92,2.18-2.17,2.18c-1.44,0-2.15-0.77-2.54-2.09l1.01-0.21c0.23,0.69,0.64,1.39,1.45,1.39c0.6,0,1.15-0.55,1.15-1.19
			c0-1.82-3.36-1.85-3.36-4.16c0-1.03,0.86-1.91,2.06-1.91c1.22,0,1.96,0.7,2.22,1.88L123.95,114.24z"/>
		<path class="st4" d="M126.66,114.4c0.22-1.24,0.95-2.3,2.35-2.3c1.47,0,2.28,0.85,2.28,2.24v4.39c0,0.69,0.08,1.21,0.2,1.39h-1.15
			l-0.14-0.67c-0.42,0.43-1.19,0.82-1.69,0.82c-1.24,0-2.06-0.79-2.06-2.03c0-1.94,2.15-2.92,3.74-3.27v-0.56
			c0-0.86-0.44-1.41-1.15-1.41c-0.84,0-1.25,0.83-1.37,1.54L126.66,114.4z M130.19,115.88c-1.01,0.3-2.64,1.03-2.64,2.27
			c0,0.74,0.33,1.21,1.13,1.21c0.6,0,1.11-0.41,1.51-0.82V115.88z"/>
		<path class="st4" d="M133.5,112.25h1.1v0.95h0.03c0.66-0.95,1.14-1.1,2.02-1.1v1.03c-0.83,0-1.45,0.27-2.05,1.39v5.6h-1.1V112.25z
			"/>
		<path class="st4" d="M137.76,112.25h1.1v0.95h0.03c0.66-0.95,1.14-1.1,2.01-1.1v1.03c-0.82,0-1.45,0.27-2.05,1.39v5.6h-1.1V112.25
			z"/>
		<path class="st4" d="M143.96,112.1c1.67,0,2.43,1.24,2.43,4.09c0,2.85-0.77,4.09-2.43,4.09c-1.67,0-2.43-1.24-2.43-4.09
			C141.53,113.34,142.29,112.1,143.96,112.1z M143.96,119.36c0.93,0,1.33-0.57,1.33-3.18c0-2.6-0.4-3.18-1.33-3.18
			c-0.93,0-1.33,0.58-1.33,3.18C142.63,118.79,143.03,119.36,143.96,119.36z"/>
		<path class="st4" d="M148.09,109.19h1.1v10.93h-1.1V109.19z"/>
		<path class="st4" d="M151.48,109.19h1.1v10.93h-1.1V109.19z"/>
		<path class="st4" d="M156.69,112.1c1.67,0,2.43,1.24,2.43,4.09c0,2.85-0.76,4.09-2.43,4.09c-1.67,0-2.43-1.24-2.43-4.09
			C154.26,113.34,155.03,112.1,156.69,112.1z M156.69,119.36c0.93,0,1.33-0.57,1.33-3.18c0-2.6-0.4-3.18-1.33-3.18
			c-0.93,0-1.33,0.58-1.33,3.18C155.36,118.79,155.76,119.36,156.69,119.36z"/>
		<path class="st4" d="M167.76,119.36h-0.03c-0.38,0.56-0.93,0.91-1.63,0.91c-1.25,0-2.29-1.06-2.29-4.09
			c0-3.03,1.04-4.09,2.29-4.09c0.6,0,1.1,0.36,1.47,0.73v-3.63h1.1v8.8c0,1.03,0.06,1.67,0.18,2.12h-1.04L167.76,119.36z
			 M167.56,113.7c-0.32-0.32-0.7-0.7-1.19-0.7c-0.93,0-1.47,0.76-1.47,3.18c0,2.42,0.58,3.18,1.5,3.18c0.34,0,0.82-0.3,1.16-0.76
			V113.7z"/>
		<path class="st4" d="M171.49,116.37v0.44c0,1.92,0.44,2.56,1.48,2.56c0.84,0,1.19-0.77,1.33-1.48l1.04,0.12
			c-0.17,1.18-1.07,2.27-2.52,2.27c-1.67,0-2.43-1.24-2.43-4.09c0-2.85,0.76-4.09,2.43-4.09c1.68,0,2.43,1.48,2.43,3.75v0.52H171.49
			z M174.15,115.45c-0.03-1.69-0.34-2.45-1.33-2.45c-0.8,0-1.31,0.58-1.33,2.45H174.15z"/>
		<path class="st4" d="M180.34,109.19h1.1v10.93h-1.1V109.19z"/>
		<path class="st4" d="M183.53,114.4c0.22-1.24,0.95-2.3,2.35-2.3c1.47,0,2.28,0.85,2.28,2.24v4.39c0,0.69,0.08,1.21,0.2,1.39h-1.15
			l-0.14-0.67c-0.43,0.43-1.19,0.82-1.7,0.82c-1.24,0-2.06-0.79-2.06-2.03c0-1.94,2.15-2.92,3.75-3.27v-0.56
			c0-0.86-0.44-1.41-1.15-1.41c-0.84,0-1.25,0.83-1.38,1.54L183.53,114.4z M187.06,115.88c-1.01,0.3-2.65,1.03-2.65,2.27
			c0,0.74,0.34,1.21,1.13,1.21c0.6,0,1.12-0.41,1.52-0.82V115.88z"/>
		<path class="st4" d="M195.52,109.19l1.93,8.26h0.03l1.88-8.26h1.9v10.93h-1.1V110.1h-0.03l-2.29,10.02h-0.78l-2.29-10.02h-0.03
			v10.02h-1.1v-10.93H195.52z"/>
		<path class="st4" d="M207.79,120.12h-1.04v-0.86c-0.52,0.53-1.29,1.01-1.8,1.01c-1.1,0-1.74-0.6-1.74-2.06v-5.96h1.1v5.81
			c0,0.91,0.28,1.3,0.87,1.3c0.53,0,1.02-0.36,1.51-0.97v-6.14h1.1V120.12z"/>
		<path class="st4" d="M208.95,121.72c0.14,0.03,0.26,0.06,0.37,0.06c0.49,0,0.76-0.27,0.76-0.97v-8.57h1.1v8.66
			c0,1.3-0.52,1.79-1.62,1.79c-0.2,0-0.4-0.03-0.61-0.06V121.72z M210.08,109.19h1.1v1.27h-1.1V109.19z"/>
		<path class="st4" d="M213.92,116.37v0.44c0,1.92,0.44,2.56,1.48,2.56c0.84,0,1.19-0.77,1.33-1.48l1.04,0.12
			c-0.17,1.18-1.07,2.27-2.52,2.27c-1.67,0-2.43-1.24-2.43-4.09c0-2.85,0.76-4.09,2.43-4.09c1.68,0,2.43,1.48,2.43,3.75v0.52H213.92
			z M216.58,115.45c-0.03-1.69-0.34-2.45-1.33-2.45c-0.79,0-1.31,0.58-1.33,2.45H216.58z"/>
		<path class="st4" d="M219.24,112.25h1.1v0.95h0.03c0.66-0.95,1.14-1.1,2.02-1.1v1.03c-0.82,0-1.45,0.27-2.05,1.39v5.6h-1.1V112.25
			z"/>
	</g>
	<path class="st4" d="M58.71,155.21c-3.25,3.25-6.61-5.51-14.32-8.81c-4.15-1.78,2.79-12.87,3.55-19.04
		c-6.31,2.06-9.93,0.45-18.66,5.45c-1.96,1.12-4.56-18.04-3.44-19.39c6.41-7.73,24.05-0.57,25.21-7.17
		c0.61-3.47,1.04-5.94,1.04-5.94c-10.91-0.83-25.09,11.23-34.11-22.36c-3.3-12.3,2.95-26.35,3.33-28.4l3.17-6.64
		c4.11,8.22-3.52,16.1-0.01,25c1.75,4.41,5.22,19.88,6.05,20.92c4.14,5.17,23.65,5.58,29.73,4.86c36.28-4.3,38.97-13.53,42.43-26.22
		c1.39-5.11,4.6,11.93,1.54,14.62c-20.71,18.28-24.88,13.86-33.42,16.34c-2.34,0.68-2.01,1.33-2.78,6.73
		c7.27-1.8,15.79-5.77,17.64,0.06c7.48,23.55-3.48,10.66-18.96,19.14C64.79,133.35,61.46,152.46,58.71,155.21z"/>
	<g>
		<path class="st4" d="M48.04,127.36c-6.32,2.06-9.93,0.45-18.67,5.45c-1.96,1.12-4.56-18.04-3.44-19.39
			c6.41-7.73,24.05-0.57,25.2-7.17C51.4,104.75,49.65,124.57,48.04,127.36"/>
		<path class="st4" d="M68.11,105.16c7.27-1.8,15.79-5.77,17.64,0.06c7.48,23.55-3.48,10.66-18.96,19.14c0,0,0.77-2.29,1.28-9.56
			C68.36,110.5,68.11,105.16,68.11,105.16z"/>
	</g>
</g>
</svg>
