<?xml version="1.0" encoding="utf-8"?>
<!-- Generator: Adobe Illustrator 24.0.0, SVG Export Plug-In . SVG Version: 6.00 Build 0)  -->
<svg version="1.1" id="Layer_1" xmlns="http://www.w3.org/2000/svg" xmlns:xlink="http://www.w3.org/1999/xlink" x="0px" y="0px"
	 viewBox="0 0 500 500" style="enable-background:new 0 0 500 500;" xml:space="preserve">
<style type="text/css">
	.st0{fill:#3C4657;}
	.st1{fill:#313945;}
	.st2{fill:#231F20;}
	.st3{opacity:0.3;}
	.st4{fill:#D1D2D2;}
	.st5{fill:#C9EAFB;}
	.st6{fill:#FFFFFF;}
	
		.st7{fill:none;stroke:#FDF5F9;stroke-width:2.1703;stroke-linecap:round;stroke-linejoin:round;stroke-miterlimit:10;stroke-dasharray:8.6811;}
	.st8{fill:#72256F;}
	.st9{fill:#3C2415;}
	.st10{fill:#B56A57;}
	.st11{opacity:0.4;fill:#B56A57;}
	.st12{fill:#BE1E2D;}
	.st13{fill:#4C3B4B;}
	.st14{fill:#392A38;}
	.st15{fill:#F0645C;}
	.st16{fill:#603913;}
	.st17{fill:#F1F2F2;}
	.st18{fill:#D8792B;}
	.st19{fill:#8AB5CF;}
	.st20{fill:#C6E1F5;}
	.st21{fill:#F79731;}
	.st22{fill:#84A5BA;}
	.st23{fill:#658CA2;}
	.st24{fill:#9CC3DB;}
	.st25{fill:#72A749;}
	.st26{fill:#87C557;}
	.st27{fill:#C1DA73;}
	.st28{fill:#D77A40;}
	.st29{fill:#BFE068;}
	.st30{fill:#F7FAFB;}
	.st31{fill:#FBB040;}
	.st32{fill:#F5F5F6;}
	.st33{fill:url(#SVGID_1_);}
	.st34{fill:none;stroke:#F7FAFB;stroke-width:3.0845;stroke-miterlimit:10;}
	.st35{fill:#D4F0F5;}
	.st36{opacity:0.57;}
	.st37{fill:#92D5E4;}
	.st38{fill:#FFFFFF;stroke:#852170;stroke-width:0.9103;stroke-miterlimit:10;}
	.st39{fill:#852170;}
	.st40{fill:none;stroke:#852170;stroke-width:0.4552;stroke-miterlimit:10;}
	.st41{opacity:0.5;fill:#852170;}
	.st42{opacity:0.4;}
	.st43{clip-path:url(#SVGID_3_);}
	.st44{opacity:0.63;}
	.st45{fill:#B9E5EE;}
	.st46{fill:#FF9F66;}
	.st47{fill:#73ADDB;}
	.st48{fill:#2E214C;}
	.st49{fill:#43305F;}
	.st50{fill:#FF8A31;}
	.st51{fill:#549CCB;}
	.st52{fill:#FF9B3A;}
	.st53{fill:#F2763F;}
	.st54{fill:#4489B4;}
	.st55{fill:#F17D24;}
	.st56{opacity:0.74;}
	.st57{clip-path:url(#SVGID_5_);}
	.st58{fill:#E8505B;}
	.st59{fill:#263238;}
	.st60{opacity:0.2;}
	.st61{fill:#455A64;}
	.st62{fill:#ADD337;}
	.st63{opacity:0.69;fill:#FFFFFF;}
	.st64{fill:#FAFAFA;}
	.st65{fill:#FFBE9D;}
	.st66{fill:#CC8F75;}
	.st67{opacity:0.78;}
	.st68{fill:#7C2639;}
	.st69{fill:#E28088;}
	.st70{fill:#222228;}
	.st71{fill:#F0A2F4;}
	.st72{fill:#684D34;}
	.st73{fill:#604966;}
	.st74{fill:#3F1E47;}
	.st75{fill:#936754;}
	.st76{fill:#EB996E;}
	.st77{fill:#7F584A;}
	.st78{fill:#0A0705;}
	.st79{fill:none;}
	.st80{font-family:'Montserrat-Medium';}
	.st81{font-size:8.3811px;}
	.st82{fill:#60381A;}
	.st83{fill:#7C5142;}
	.st84{opacity:0.6;}
	.st85{fill:#3D3D3D;}
	.st86{fill:#6FB56B;}
	.st87{fill:#97F794;}
	.st88{fill:#754925;}
	.st89{fill:#5E3A1E;}
	.st90{fill:#AFA15B;}
	.st91{fill:#FFEE8D;}
	.st92{fill:#B78876;}
	.st93{fill:#F5F5F5;}
	.st94{fill:#BF594F;}
	.st95{fill:#FF725E;}
	.st96{fill:#C96565;}
	.st97{fill:#B57662;}
	.st98{fill:#EA9898;}
	.st99{fill:#7C4A4A;}
	.st100{fill:#EBEBEB;}
	.st101{fill:#E0E0E0;}
	.st102{opacity:0.5;}
	.st103{fill:#995037;}
	.st104{fill:#773C2C;}
	.st105{fill:#E5BAAB;}
	.st106{fill:#D78776;}
	.st107{fill:#BC93B4;}
	.st108{fill:#B77153;}
	.st109{fill:#724940;}
	.st110{fill:#A56B65;}
	.st111{fill:#492F1B;}
	.st112{fill:#4B6EBC;}
	.st113{fill:#3D5C91;}
	.st114{fill:#A4CC64;}
	.st115{fill:#0086BF;}
	.st116{fill:none;stroke:#4E585D;stroke-miterlimit:10;}
	.st117{fill:#AF5858;}
	.st118{fill:#71A5BC;}
	.st119{fill:#AF7127;}
	.st120{fill:#4C3D2D;}
	.st121{fill:#AA6550;}
	.st122{fill:#93584A;}
</style>
<g>
	
		<ellipse transform="matrix(0.7071 -0.7071 0.7071 0.7071 -104.856 236.2041)" class="st63" cx="232.7" cy="244.67" rx="192.66" ry="192.66"/>
	<g>
		<g>
			<path class="st25" d="M345.11,207.75c0,0,0.24,0.05,0.65,0.29c0.42,0.23,1.01,0.66,1.58,1.4c0.57,0.73,1.09,1.75,1.4,3
				c0.32,1.25,0.36,2.7,0.28,4.3c-0.23,3.21-1.44,6.89-2.85,11.15c-1.44,4.26-3.15,9.13-5.59,14.33l0.01-0.04
				c-0.13,0.9-0.04,2.09,0.82,2.73c0.43,0.3,0.97,0.39,1.53,0.42c0.56,0.03,1.12,0.03,1.7,0.02c1.14-0.01,2.32-0.03,3.54,0.1
				c1.19,0.15,2.58,0.47,3.55,1.5c0.9,1.04,1.29,2.34,1.2,3.57c-0.11,1.23-0.67,2.32-1.41,3.25c-1.47,1.9-3.67,3.16-5.65,4.66
				c-2.03,1.47-4.11,2.97-6.23,4.5c-1.06,0.77-2.14,1.54-3.22,2.33c-0.54,0.39-1.09,0.79-1.64,1.18c-0.28,0.21-0.56,0.38-0.74,0.62
				c-0.2,0.23-0.33,0.52-0.36,0.8c-0.08,0.59,0.64,0.93,1.36,1.04c0.76,0.12,1.52,0.24,2.29,0.36c1.54,0.24,3.1,0.53,4.67,0.95
				c1.56,0.42,3.15,0.96,4.63,1.86c0.73,0.45,1.43,1.02,1.95,1.74c0.52,0.71,0.82,1.56,0.82,2.37c0.02,1.64-0.83,2.99-1.79,4.12
				c-0.98,1.13-2.12,2.14-3.37,3.04c-2.48,1.81-5.24,3.32-8.13,4.69c-0.71,0.36-1.51,0.63-2.08,1.06c-0.28,0.22-0.49,0.49-0.51,0.81
				c-0.01,0.16,0.01,0.33,0.07,0.51c0.03,0.08,0.08,0.11,0.29,0.2c0.76,0.24,1.67,0.29,2.53,0.35c0.87,0.05,1.75,0.1,2.63,0.15
				c1.76,0.1,3.57,0.23,5.39,0.65c0.91,0.22,1.83,0.5,2.7,0.98c0.87,0.46,1.69,1.23,2.02,2.17c0.34,0.92,0.23,1.89-0.13,2.66
				c-0.14,0.41-0.39,0.75-0.6,1.12c-0.26,0.33-0.49,0.68-0.77,0.99c-1.09,1.27-2.43,2.32-3.86,3.24c-2.85,1.87-6.11,3.24-9.51,4.34
				c-3.4,1.11-6.98,1.89-10.65,2.49c-1.82,0.37-3.72,0.43-5.6,0.6c-1.88,0.15-3.78,0.31-5.67,0.46l-0.17,0.01l-0.12-0.14
				c-0.18-0.2-0.37-0.42-0.56-0.64c-1.34-1.52-2.67-3.04-4-4.56l-1.99-2.27c-0.64-0.77-1.22-1.59-1.83-2.38
				c-2.38-3.19-4.58-6.44-6.49-9.8c-1.9-3.35-3.51-6.8-4.59-10.32c-0.52-1.76-0.93-3.54-1.01-5.31c-0.01-0.88-0.01-1.77,0.24-2.61
				c0.23-0.85,0.75-1.63,1.63-2.02c0.89-0.38,1.97-0.19,2.88,0.15c0.92,0.36,1.76,0.85,2.55,1.39c1.59,1.08,3,2.35,4.37,3.59
				c0.69,0.62,1.37,1.24,2.06,1.85c0.35,0.3,0.69,0.6,1.05,0.87c0.34,0.26,0.75,0.56,1.03,0.63c0.1,0.01,0.02,0.02,0.1,0
				c0.07-0.05,0.14-0.1,0.2-0.15c0.12-0.11,0.2-0.24,0.24-0.4c0.08-0.31,0.02-0.69-0.11-1.08c-0.26-0.76-0.68-1.56-1.01-2.35
				c-1.38-3.17-2.59-6.36-3.43-9.55c-0.41-1.59-0.73-3.2-0.82-4.79c-0.06-1.56,0.03-3.23,1.02-4.47c0.49-0.6,1.24-1.03,2.07-1.15
				c0.83-0.13,1.7,0.02,2.52,0.24c1.64,0.47,3.14,1.29,4.55,2.15c1.42,0.88,2.75,1.84,4.04,2.81c0.65,0.48,1.29,0.99,1.92,1.44
				c0.3,0.21,0.64,0.39,0.92,0.39c0.28,0.02,0.48-0.15,0.59-0.42c0.23-0.57,0.04-1.24-0.16-1.96c-0.19-0.7-0.38-1.41-0.57-2.1
				c-0.37-1.39-0.75-2.77-1.11-4.14c-0.73-2.73-1.45-5.4-2.15-8c-0.65-2.59-1.59-5.15-1.65-7.68c-0.05-1.25,0.11-2.51,0.71-3.55
				c0.61-1.03,1.66-1.77,2.97-1.9c1.37-0.05,2.58,0.77,3.56,1.54c0.99,0.81,1.86,1.7,2.71,2.56c0.42,0.43,0.84,0.86,1.28,1.25
				c0.44,0.39,0.88,0.75,1.38,0.87c1.03,0.23,1.8-0.64,2.21-1.43l-0.01,0.04c1.07-5.72,2.5-10.66,3.81-14.95
				c1.33-4.27,2.47-7.94,4.07-10.59c1.54-2.66,3.6-4.21,5.33-4.47c0.85-0.15,1.56-0.04,2,0.09c0.45,0.13,0.66,0.27,0.66,0.27
				s-0.22-0.11-0.66-0.22c-0.44-0.12-1.13-0.21-1.96-0.05c-1.69,0.29-3.69,1.83-5.19,4.49c-1.56,2.63-2.67,6.31-3.97,10.59
				c-1.27,4.29-2.68,9.25-3.72,14.94l0,0.02l-0.01,0.01c-0.23,0.46-0.54,0.87-0.95,1.2c-0.41,0.32-1,0.57-1.65,0.4
				c-0.64-0.15-1.15-0.58-1.6-0.97c-0.45-0.41-0.87-0.84-1.3-1.27c-0.85-0.86-1.71-1.74-2.67-2.51c-0.95-0.75-2.09-1.48-3.24-1.42
				c-1.11,0.1-2.12,0.79-2.66,1.73c-0.54,0.96-0.7,2.15-0.65,3.36c0.07,2.44,1,4.97,1.66,7.58c0.71,2.6,1.43,5.27,2.17,8
				c0.37,1.36,0.75,2.75,1.12,4.14c0.19,0.7,0.38,1.4,0.57,2.1c0.19,0.67,0.45,1.5,0.16,2.23c-0.12,0.36-0.51,0.73-1.03,0.68
				c-0.49-0.03-0.89-0.26-1.24-0.5c-0.68-0.47-1.3-0.97-1.95-1.45c-1.29-0.97-2.61-1.92-4-2.77c-1.39-0.85-2.85-1.63-4.39-2.07
				c-0.76-0.21-1.55-0.34-2.27-0.22c-0.72,0.11-1.34,0.46-1.78,0.99c-0.87,1.08-0.99,2.65-0.92,4.16c0.08,1.54,0.4,3.11,0.81,4.68
				c0.83,3.15,2.03,6.31,3.41,9.46c0.33,0.8,0.74,1.55,1.04,2.41c0.13,0.43,0.24,0.9,0.12,1.37c-0.06,0.23-0.19,0.44-0.36,0.6
				c-0.08,0.08-0.18,0.15-0.27,0.21c-0.09,0.07-0.39,0.13-0.51,0.07c-0.6-0.17-0.93-0.49-1.32-0.77c-0.38-0.29-0.73-0.59-1.08-0.9
				c-0.69-0.62-1.38-1.24-2.07-1.86c-1.38-1.24-2.76-2.48-4.3-3.52c-0.77-0.52-1.57-0.99-2.4-1.31c-0.83-0.31-1.72-0.44-2.42-0.15
				c-1.45,0.66-1.62,2.52-1.57,4.17c0.08,1.7,0.48,3.44,0.99,5.17c1.06,3.45,2.65,6.86,4.54,10.18c1.89,3.32,4.09,6.56,6.44,9.72
				c0.6,0.78,1.17,1.59,1.81,2.35l1.99,2.26c1.33,1.51,2.66,3.03,4,4.55c0.19,0.22,0.39,0.44,0.56,0.64l-0.3-0.12
				c1.89-0.15,3.78-0.31,5.66-0.46c1.87-0.17,3.78-0.23,5.57-0.6c3.63-0.59,7.19-1.37,10.56-2.46c3.37-1.08,6.58-2.44,9.38-4.27
				c1.4-0.9,2.71-1.93,3.76-3.15c0.27-0.3,0.49-0.63,0.73-0.95c0.19-0.35,0.43-0.67,0.55-1.04c0.33-0.7,0.41-1.52,0.13-2.28
				c-0.27-0.76-0.91-1.39-1.7-1.8c-0.78-0.43-1.64-0.71-2.51-0.91c-1.75-0.41-3.52-0.54-5.27-0.64c-0.88-0.05-1.76-0.1-2.64-0.15
				c-0.89-0.08-1.75-0.09-2.71-0.39c-0.13-0.05-0.25-0.09-0.39-0.2c-0.12-0.04-0.3-0.33-0.32-0.42c-0.07-0.23-0.12-0.47-0.1-0.72
				c0.04-0.5,0.36-0.87,0.69-1.13c0.69-0.51,1.47-0.76,2.17-1.12c2.87-1.36,5.62-2.86,8.06-4.64c1.23-0.88,2.34-1.87,3.3-2.96
				c0.94-1.09,1.72-2.37,1.7-3.82c0.01-1.46-1.09-2.8-2.47-3.62c-1.38-0.84-2.92-1.37-4.45-1.79c-1.53-0.41-3.08-0.7-4.61-0.94
				c-0.77-0.12-1.54-0.24-2.3-0.36c-0.38-0.07-0.82-0.18-1.22-0.43c-0.42-0.25-0.69-0.78-0.63-1.19c0.07-0.82,0.72-1.36,1.26-1.71
				c0.55-0.4,1.1-0.79,1.64-1.18c1.09-0.78,2.17-1.56,3.24-2.32c2.13-1.53,4.22-3.03,6.26-4.49c2-1.5,4.17-2.73,5.59-4.57
				c0.72-0.89,1.24-1.93,1.34-3.06c0.09-1.11-0.29-2.35-1.07-3.24c-0.82-0.89-2.09-1.2-3.24-1.35c-1.18-0.14-2.34-0.12-3.49-0.11
				c-0.57,0-1.15,0-1.73-0.03c-0.57-0.04-1.22-0.13-1.76-0.51c-0.55-0.39-0.83-0.99-0.95-1.53c-0.11-0.55-0.11-1.08-0.03-1.59
				l0-0.02l0.01-0.02c2.45-5.15,4.19-10.01,5.66-14.25c1.44-4.25,2.67-7.9,2.93-11.07c0.1-1.58,0.08-3.02-0.22-4.25
				c-0.29-1.23-0.78-2.24-1.33-2.96C346.14,208.02,345.07,207.78,345.11,207.75z"/>
		</g>
		<g>
			<path class="st25" d="M341.4,219.31c0.01,0-0.01,0.1-0.05,0.28c-0.06,0.21-0.13,0.48-0.22,0.81c-0.22,0.75-0.52,1.78-0.89,3.08
				c-0.79,2.67-1.96,6.53-3.45,11.28c-2.96,9.51-7.19,22.58-11.93,37c-4.72,14.4-8.99,27.44-12.1,36.93
				c-1.52,4.7-2.76,8.52-3.63,11.2c-0.43,1.29-0.76,2.3-1.01,3.04c-0.11,0.32-0.2,0.58-0.28,0.78c-0.07,0.18-0.1,0.26-0.11,0.26
				c-0.01,0,0.01-0.1,0.05-0.28c0.06-0.21,0.13-0.48,0.22-0.81c0.22-0.75,0.52-1.78,0.89-3.08c0.79-2.67,1.96-6.53,3.45-11.28
				c2.96-9.51,7.19-22.59,11.93-37c4.72-14.4,8.99-27.44,12.1-36.92c1.52-4.7,2.76-8.52,3.63-11.21c0.43-1.29,0.76-2.3,1.01-3.04
				c0.11-0.32,0.2-0.58,0.28-0.78C341.35,219.39,341.39,219.3,341.4,219.31z"/>
		</g>
		<g>
			<path class="st25" d="M322.11,239.89c0.07-0.02,0.59,0.88,1.32,2.38c0.73,1.49,1.67,3.58,2.64,5.9c0.97,2.32,1.82,4.42,2.43,5.95
				c0.61,1.52,0.99,2.46,0.91,2.49c-0.07,0.02-0.6-0.88-1.31-2.38c-0.72-1.5-1.63-3.59-2.6-5.91c-0.92-2.2-1.75-4.19-2.47-5.93
				C322.41,240.86,322.03,239.91,322.11,239.89z"/>
		</g>
		<g>
			<path class="st25" d="M330.32,256.74c-0.08-0.15,3.99-1.63,9.09-3.29c5.1-1.66,9.29-2.89,9.36-2.73
				c0.08,0.15-3.99,1.63-9.09,3.29C334.59,255.67,330.4,256.9,330.32,256.74z"/>
		</g>
		<g>
			<path class="st25" d="M321.96,278.41c-0.02-0.17,4-0.18,8.89-0.5c4.9-0.3,8.81-0.8,8.87-0.63c0.02,0.08-0.93,0.3-2.5,0.55
				c-1.57,0.25-3.77,0.51-6.24,0.67c-2.46,0.16-4.72,0.17-6.35,0.13C322.99,278.58,321.97,278.48,321.96,278.41z"/>
		</g>
		<g>
			<path class="st25" d="M311.3,264.26c0.07-0.04,0.73,0.7,1.75,1.94c1.02,1.24,2.39,2.97,3.88,4.9c1.49,1.93,2.81,3.69,3.74,4.99
				c0.93,1.29,1.48,2.11,1.41,2.15c-0.07,0.04-0.73-0.7-1.75-1.94c-1.02-1.24-2.4-2.97-3.88-4.9c-1.49-1.93-2.81-3.69-3.74-4.99
				C311.77,265.12,311.23,264.3,311.3,264.26z"/>
		</g>
		<g>
			<path class="st25" d="M301.25,282.1c0.07-0.04,0.91,0.92,2.22,2.5c1.31,1.58,3.08,3.79,5.01,6.25c1.93,2.46,3.65,4.7,4.87,6.34
				c1.22,1.64,1.94,2.67,1.88,2.72c-0.07,0.04-0.91-0.92-2.22-2.5c-1.31-1.58-3.08-3.79-5.01-6.25c-1.93-2.46-3.65-4.7-4.87-6.34
				C301.9,283.17,301.18,282.14,301.25,282.1z"/>
		</g>
		<g>
			<path class="st25" d="M315.01,299.41c-0.02-0.08,1.24-0.19,3.28-0.33c2.04-0.15,4.85-0.34,7.93-0.62
				c3.09-0.28,5.87-0.59,7.89-0.81c2.02-0.22,3.27-0.35,3.29-0.27c0.02,0.08-1.18,0.35-3.17,0.68c-1.99,0.33-4.76,0.71-7.87,0.98
				c-3.1,0.28-5.94,0.41-8,0.45C316.31,299.53,315.02,299.48,315.01,299.41z"/>
		</g>
	</g>
	<g>
		<g>
			<path class="st25" d="M104.35,193.37c0,0,0.17-0.05,0.52-0.05c0.35,0,0.88,0.06,1.5,0.32c0.62,0.26,1.32,0.72,1.96,1.4
				c0.65,0.68,1.2,1.58,1.71,2.63c1,2.12,1.55,4.88,2.18,8.08c0.61,3.21,1.27,6.91,1.58,11.07l-0.01-0.03
				c0.24,0.62,0.72,1.34,1.49,1.43c0.38,0.04,0.75-0.1,1.12-0.28c0.36-0.18,0.72-0.38,1.08-0.59c0.72-0.42,1.46-0.85,2.28-1.2
				c0.81-0.33,1.8-0.62,2.79-0.32c0.94,0.34,1.65,1.02,2.04,1.83c0.37,0.82,0.41,1.71,0.27,2.56c-0.25,1.73-1.19,3.31-1.92,4.97
				c-0.76,1.65-1.54,3.35-2.34,5.08c-0.4,0.87-0.8,1.74-1.21,2.63c-0.2,0.44-0.41,0.89-0.62,1.33c-0.11,0.23-0.22,0.44-0.25,0.65
				c-0.04,0.22-0.02,0.45,0.06,0.64c0.16,0.4,0.74,0.36,1.23,0.17c0.52-0.2,1.05-0.39,1.58-0.59c1.06-0.4,2.16-0.77,3.3-1.07
				c1.14-0.29,2.34-0.52,3.59-0.48c0.62,0.02,1.27,0.14,1.85,0.4c0.58,0.26,1.08,0.7,1.37,1.2c0.6,1.03,0.54,2.19,0.33,3.25
				c-0.22,1.07-0.58,2.12-1.05,3.13c-0.92,2.03-2.13,3.98-3.48,5.88c-0.32,0.48-0.73,0.94-0.94,1.42c-0.1,0.24-0.13,0.49-0.04,0.69
				c0.05,0.1,0.13,0.2,0.23,0.3c0.05,0.04,0.09,0.04,0.25,0.02c0.57-0.12,1.16-0.42,1.73-0.68c0.57-0.28,1.14-0.56,1.72-0.85
				c1.15-0.56,2.34-1.13,3.65-1.51c0.65-0.19,1.34-0.33,2.06-0.34c0.71-0.02,1.51,0.17,2.06,0.65c0.55,0.46,0.82,1.11,0.87,1.73
				c0.06,0.31,0.02,0.61,0.02,0.92c-0.04,0.3-0.07,0.61-0.13,0.9c-0.24,1.2-0.71,2.34-1.29,3.43c-1.14,2.2-2.71,4.23-4.47,6.14
				c-1.76,1.92-3.74,3.69-5.86,5.38c-1.02,0.88-2.2,1.6-3.33,2.38c-1.14,0.77-2.28,1.54-3.43,2.32l-0.11,0.07l-0.13-0.04
				c-0.19-0.06-0.39-0.13-0.59-0.21c-1.39-0.49-2.78-0.97-4.16-1.46l-2.07-0.72c-0.68-0.26-1.34-0.57-2.01-0.85
				c-2.65-1.17-5.2-2.44-7.61-3.89c-2.4-1.44-4.66-3.05-6.59-4.9c-0.96-0.93-1.85-1.91-2.54-3c-0.32-0.56-0.64-1.12-0.78-1.74
				c-0.16-0.62-0.11-1.3,0.31-1.86c0.43-0.56,1.18-0.82,1.88-0.93c0.71-0.1,1.42-0.09,2.12-0.03c1.39,0.12,2.74,0.42,4.05,0.71
				c0.66,0.15,1.31,0.29,1.97,0.44c0.33,0.07,0.65,0.13,0.97,0.18c0.31,0.04,0.68,0.09,0.88,0.03c0.07-0.03,0.02,0.01,0.06-0.04
				c0.03-0.06,0.06-0.11,0.07-0.17c0.03-0.11,0.04-0.22,0.01-0.34c-0.06-0.22-0.24-0.45-0.45-0.64c-0.43-0.39-0.99-0.75-1.48-1.13
				c-2.01-1.52-3.91-3.1-5.59-4.82c-0.83-0.86-1.61-1.76-2.23-2.74c-0.6-0.97-1.14-2.05-0.95-3.2c0.09-0.56,0.42-1.09,0.9-1.47
				c0.48-0.38,1.08-0.6,1.68-0.75c1.21-0.29,2.45-0.3,3.65-0.26c1.21,0.05,2.4,0.18,3.57,0.34c0.58,0.07,1.17,0.17,1.73,0.22
				c0.26,0.03,0.55,0.02,0.73-0.08c0.18-0.09,0.25-0.26,0.22-0.48c-0.05-0.44-0.42-0.8-0.8-1.18c-0.37-0.38-0.74-0.76-1.11-1.13
				c-0.74-0.75-1.46-1.49-2.18-2.22c-1.44-1.47-2.85-2.9-4.22-4.3c-1.34-1.41-2.85-2.7-3.79-4.28c-0.48-0.78-0.82-1.63-0.82-2.5
				c0.02-0.87,0.42-1.72,1.21-2.26c0.85-0.52,1.91-0.43,2.81-0.29c0.92,0.16,1.79,0.41,2.63,0.66c0.42,0.12,0.84,0.24,1.26,0.34
				c0.42,0.09,0.83,0.16,1.19,0.06c0.74-0.22,0.91-1.05,0.89-1.69l0.01,0.03c-1.37-4-2.22-7.65-2.93-10.83
				c-0.68-3.18-1.27-5.92-1.2-8.16c0.02-2.24,0.78-3.95,1.78-4.74c0.49-0.4,0.97-0.58,1.3-0.66c0.33-0.08,0.51-0.06,0.51-0.06
				s-0.18,0.01-0.5,0.1c-0.32,0.08-0.79,0.27-1.26,0.67c-0.97,0.79-1.68,2.47-1.68,4.7c-0.05,2.23,0.56,4.95,1.27,8.12
				c0.73,3.17,1.61,6.82,2.99,10.79l0.01,0.02l0,0.01c0.02,0.37-0.03,0.74-0.17,1.1c-0.15,0.35-0.43,0.72-0.9,0.84
				c-0.46,0.13-0.94,0.04-1.36-0.05c-0.43-0.1-0.85-0.22-1.28-0.34c-0.85-0.24-1.7-0.49-2.59-0.64c-0.87-0.13-1.85-0.19-2.56,0.25
				c-0.67,0.46-1.06,1.26-1.07,2.05c0,0.8,0.33,1.61,0.79,2.36c0.92,1.53,2.41,2.79,3.76,4.21c1.38,1.4,2.79,2.83,4.24,4.29
				c0.72,0.73,1.45,1.47,2.19,2.22c0.37,0.37,0.74,0.75,1.11,1.13c0.36,0.36,0.82,0.79,0.9,1.36c0.05,0.27-0.07,0.65-0.41,0.8
				c-0.32,0.16-0.66,0.15-0.96,0.13c-0.6-0.06-1.17-0.15-1.75-0.22c-1.16-0.15-2.34-0.28-3.52-0.33c-1.18-0.04-2.39-0.02-3.52,0.25
				c-0.56,0.14-1.1,0.34-1.52,0.67c-0.42,0.33-0.69,0.77-0.77,1.26c-0.17,0.99,0.32,2.03,0.91,2.96c0.6,0.94,1.36,1.83,2.18,2.68
				c1.65,1.7,3.54,3.27,5.54,4.77c0.5,0.39,1.02,0.72,1.52,1.16c0.24,0.22,0.47,0.49,0.56,0.83c0.04,0.17,0.04,0.35-0.01,0.51
				c-0.02,0.08-0.06,0.16-0.1,0.23c-0.03,0.08-0.2,0.22-0.3,0.23c-0.44,0.11-0.76,0.02-1.11-0.01c-0.34-0.05-0.67-0.12-1.01-0.18
				c-0.66-0.15-1.31-0.29-1.98-0.44c-1.31-0.29-2.64-0.58-3.98-0.7c-0.67-0.05-1.35-0.07-1.99,0.03c-0.63,0.1-1.25,0.33-1.58,0.77
				c-0.68,0.93-0.13,2.18,0.5,3.2c0.66,1.05,1.54,2.01,2.48,2.92c1.9,1.81,4.13,3.4,6.51,4.83c2.38,1.43,4.93,2.69,7.55,3.85
				c0.66,0.28,1.31,0.59,1.99,0.84l2.07,0.72c1.38,0.48,2.77,0.97,4.16,1.45c0.2,0.07,0.4,0.14,0.59,0.2l-0.23,0.03
				c1.15-0.77,2.29-1.55,3.42-2.31c1.12-0.78,2.31-1.5,3.32-2.37c2.09-1.67,4.07-3.44,5.81-5.33c1.75-1.89,3.3-3.9,4.42-6.06
				c0.57-1.07,1.03-2.19,1.26-3.34c0.06-0.29,0.08-0.58,0.12-0.86c-0.01-0.29,0.03-0.58-0.02-0.86c-0.04-0.56-0.28-1.11-0.73-1.49
				c-0.44-0.38-1.08-0.55-1.72-0.54c-0.65,0.01-1.29,0.14-1.92,0.32c-1.25,0.36-2.42,0.92-3.57,1.48c-0.58,0.28-1.15,0.57-1.73,0.85
				c-0.59,0.27-1.14,0.57-1.86,0.72c-0.1,0.01-0.19,0.03-0.32,0.01c-0.09,0.02-0.31-0.1-0.35-0.15c-0.13-0.12-0.24-0.26-0.32-0.42
				c-0.15-0.33-0.09-0.68,0.03-0.96c0.25-0.57,0.66-1.01,0.98-1.48c1.34-1.89,2.54-3.82,3.45-5.82c0.46-1,0.82-2.02,1.03-3.05
				c0.21-1.02,0.24-2.12-0.29-3.02c-0.51-0.93-1.69-1.39-2.86-1.41c-1.17-0.04-2.34,0.18-3.46,0.46c-1.12,0.29-2.2,0.66-3.26,1.05
				c-0.53,0.2-1.06,0.39-1.59,0.59c-0.27,0.09-0.58,0.18-0.93,0.16c-0.35-0.01-0.71-0.25-0.83-0.53c-0.24-0.54-0.03-1.12,0.19-1.53
				c0.21-0.45,0.41-0.89,0.62-1.34c0.41-0.89,0.82-1.76,1.22-2.63c0.8-1.73,1.59-3.43,2.36-5.08c0.73-1.66,1.66-3.22,1.91-4.89
				c0.14-0.82,0.1-1.67-0.24-2.42c-0.34-0.73-1.03-1.38-1.83-1.67c-0.84-0.27-1.75-0.02-2.54,0.3c-0.8,0.33-1.53,0.76-2.25,1.17
				c-0.36,0.21-0.73,0.41-1.1,0.6c-0.37,0.18-0.82,0.36-1.3,0.31c-0.48-0.05-0.88-0.33-1.15-0.63c-0.27-0.31-0.46-0.64-0.59-1
				l0-0.01l0-0.02c-0.29-4.14-0.92-7.84-1.51-11.05c-0.61-3.21-1.13-5.96-2.1-8.06c-0.5-1.04-1.03-1.94-1.66-2.61
				c-0.62-0.68-1.3-1.14-1.9-1.4C105.09,193.18,104.33,193.41,104.35,193.37z"/>
		</g>
		<g>
			<path class="st25" d="M106.12,202.02c0.01,0,0.03,0.07,0.07,0.2c0.04,0.16,0.09,0.35,0.15,0.59c0.13,0.55,0.31,1.31,0.54,2.27
				c0.46,1.98,1.09,4.84,1.85,8.38c1.52,7.08,3.52,16.88,5.66,27.7c2.16,10.81,4.11,20.6,5.53,27.72c0.71,3.52,1.29,6.38,1.7,8.4
				c0.19,0.97,0.34,1.73,0.45,2.29c0.04,0.24,0.08,0.44,0.1,0.6c0.02,0.13,0.03,0.2,0.02,0.21c-0.01,0-0.03-0.07-0.07-0.2
				c-0.04-0.16-0.09-0.35-0.15-0.59c-0.13-0.55-0.31-1.31-0.54-2.27c-0.46-1.98-1.09-4.84-1.85-8.38
				c-1.52-7.08-3.52-16.88-5.66-27.71c-2.15-10.81-4.11-20.59-5.53-27.72c-0.71-3.52-1.29-6.38-1.7-8.4
				c-0.19-0.97-0.34-1.73-0.45-2.29c-0.04-0.24-0.08-0.44-0.1-0.6C106.12,202.09,106.11,202.02,106.12,202.02z"/>
		</g>
		<g>
			<path class="st25" d="M101.26,221.95c0.04-0.04,0.69,0.35,1.68,1.04c1,0.69,2.34,1.67,3.78,2.79c1.45,1.12,2.73,2.15,3.66,2.9
				c0.93,0.75,1.51,1.21,1.47,1.25c-0.04,0.04-0.69-0.34-1.68-1.04c-0.99-0.69-2.31-1.7-3.76-2.81c-1.37-1.07-2.6-2.03-3.68-2.88
				C101.79,222.46,101.22,221.99,101.26,221.95z"/>
		</g>
		<g>
			<path class="st25" d="M112.48,229.69c-0.1-0.07,1.95-2.46,4.58-5.33c2.63-2.87,4.85-5.15,4.96-5.08c0.1,0.07-1.95,2.46-4.58,5.33
				C114.81,227.49,112.59,229.77,112.48,229.69z"/>
		</g>
		<g>
			<path class="st25" d="M114.92,246.41c-0.08-0.1,2.47-1.55,5.46-3.49c2.99-1.94,5.3-3.65,5.39-3.56c0.04,0.04-0.48,0.52-1.39,1.24
				c-0.91,0.72-2.21,1.67-3.71,2.65c-1.5,0.98-2.93,1.79-3.98,2.35C115.64,246.15,114.96,246.45,114.92,246.41z"/>
		</g>
		<g>
			<path class="st25" d="M103.12,241.26c0.03-0.05,0.71,0.18,1.8,0.6c1.09,0.42,2.58,1.02,4.21,1.72c1.63,0.69,3.1,1.34,4.15,1.82
				c1.05,0.49,1.69,0.81,1.66,0.86c-0.03,0.05-0.71-0.18-1.8-0.6c-1.09-0.42-2.58-1.02-4.21-1.72c-1.63-0.69-3.1-1.34-4.15-1.82
				C103.73,241.63,103.09,241.31,103.12,241.26z"/>
		</g>
		<g>
			<path class="st25" d="M103.12,256.14c0.03-0.05,0.9,0.26,2.3,0.79c1.39,0.54,3.31,1.3,5.41,2.17c2.1,0.87,3.99,1.67,5.35,2.28
				c1.36,0.6,2.19,1,2.16,1.05c-0.03,0.05-0.9-0.26-2.3-0.79c-1.39-0.54-3.31-1.3-5.41-2.17c-2.1-0.87-3.99-1.67-5.35-2.28
				C103.92,256.59,103.1,256.19,103.12,256.14z"/>
		</g>
		<g>
			<path class="st25" d="M118.02,262.19c-0.04-0.05,0.72-0.56,1.96-1.38c1.24-0.82,2.95-1.95,4.8-3.23
				c1.86-1.28,3.51-2.47,4.71-3.33c1.2-0.86,1.95-1.39,1.99-1.35c0.04,0.04-0.62,0.64-1.77,1.56c-1.14,0.92-2.77,2.15-4.63,3.43
				c-1.86,1.29-3.61,2.38-4.9,3.15C118.89,261.81,118.06,262.24,118.02,262.19z"/>
		</g>
	</g>
	<g>
		<g>
			<g>
				<path class="st62" d="M150.07,406.52c23.34-22.65,23.78-57.75,17.76-88.26c-1-5.09-1.32-10.58-4.48-14.68
					c-3.17-4.1-9.35-6.25-13.58-3.35c-3.51,2.41-4.45,7.1-5.99,11.1c-2.04,5.33-5.61,10.04-10.15,13.42
					c-2.99,2.22-6.85,3.91-10.36,2.66c-4.81-1.72-6.32-7.74-7.12-12.84c-1.48-9.5-2.96-19.01-4.44-28.51
					c-0.79-5.1-1.62-10.3-3.99-14.88c-2.37-4.58-6.6-8.5-11.66-9.07c-5.07-0.57-10.6,3.19-10.82,8.34
					c-0.09,2.14,0.68,4.23,0.88,6.37c0.2,2.14-0.4,4.64-2.32,5.55c-1.94,0.93-4.21-0.19-5.97-1.43
					c-6.09-4.29-10.73-10.34-15.13-16.38s-8.73-12.27-14.41-17.1c-5.68-4.84-13-8.21-20.36-7.44c-7.36,0.77-14.4,6.53-15.09,13.99
					c-0.68,7.48,4.69,14.09,10.19,19.16c8.16,7.53,17.4,13.86,27.33,18.73c1.79,0.88,3.73,1.83,4.65,3.62
					c1.66,3.22-1.01,7.11-4.19,8.77c-3.59,1.88-7.77,2.15-11.67,3.26c-3.9,1.11-7.91,3.56-8.81,7.56c-1.24,5.54,4,10.29,8.86,13.17
					c9.74,5.77,20.45,9.83,31.52,11.97c3.97,0.76,8.11,1.33,11.55,3.47c3.45,2.14,6.01,6.43,4.77,10.31
					c-1.24,3.89-5.74,5.8-9.79,5.7c-4.04-0.09-7.9-1.65-11.87-2.46c-7.43-1.51-16.39,0.44-19.89,7.22
					c-2.3,4.45-1.66,10.03,0.59,14.53c2.26,4.5,5.94,8.09,9.76,11.34c13.35,11.34,29.43,19.61,46.58,22.61
					C119.6,415.95,134.89,415.03,150.07,406.52L150.07,406.52z"/>
			</g>
		</g>
		<g>
			<g>
				<g>
					<path class="st25" d="M149.35,413.45c-2.75-7.86-6.18-16.23-10.32-24.88c-7.02-14.75-16.07-30.28-26.08-46.2
						c-2.52-3.97-5.01-7.89-7.46-11.76c-2.46-3.85-4.89-7.68-7.51-11.27c-5.2-7.21-10.74-13.74-16.2-19.77
						c-5.46-6.04-10.86-11.57-15.94-16.71c-5.1-5.13-9.94-9.82-14.54-13.9c-9.17-8.21-17.34-13.94-23.1-17.65
						c-2.88-1.86-5.16-3.24-6.72-4.14c-0.75-0.43-1.34-0.77-1.78-1.02c-0.4-0.22-0.61-0.33-0.62-0.32c-0.01,0.01,0.19,0.15,0.57,0.4
						c0.43,0.27,1,0.64,1.73,1.1c1.53,0.96,3.77,2.38,6.62,4.29c5.7,3.8,13.77,9.6,22.86,17.84c4.56,4.11,9.36,8.81,14.43,13.96
						c5.06,5.16,10.43,10.7,15.86,16.74c5.43,6.04,10.94,12.56,16.09,19.73c2.59,3.57,5,7.37,7.46,11.23
						c2.45,3.86,4.93,7.79,7.45,11.75c10.01,15.91,19.05,31.38,26.09,46.07c4.11,8.53,7.53,16.78,10.3,24.53
						C148.81,413.45,149.08,413.44,149.35,413.45z"/>
				</g>
			</g>
		</g>
		<g>
			<g>
				<g>
					<path class="st25" d="M97.71,319.35c0.06,0,0.11-0.8,0.15-2.25c0.04-1.45,0.03-3.55-0.03-6.15c-0.1-5.19-0.49-12.35-0.94-20.24
						c-0.46-7.9-0.74-15.04-0.76-20.22c-0.02-2.59-0.01-4.68,0.01-6.13c0.01-1.45-0.01-2.25-0.07-2.26c-0.07,0-0.17,0.79-0.29,2.24
						c-0.14,1.45-0.25,3.54-0.31,6.14c-0.15,5.19,0.03,12.37,0.48,20.27c0.47,7.79,0.89,14.83,1.22,20.21
						c0.13,2.43,0.24,4.48,0.33,6.13C97.57,318.55,97.65,319.35,97.71,319.35z"/>
				</g>
			</g>
		</g>
		<g>
			<g>
				<g>
					<path class="st25" d="M30.25,317.73c0.01,0.07,0.96,0.02,2.66-0.11c1.7-0.12,4.17-0.31,7.22-0.45
						c6.1-0.32,14.55-0.48,23.87-0.24c9.33,0.26,17.76,0.85,23.84,1.45c3.05,0.28,5.51,0.57,7.21,0.76c1.7,0.2,2.65,0.28,2.66,0.21
						c0.01-0.07-0.92-0.27-2.61-0.58c-1.69-0.31-4.14-0.7-7.19-1.07c-6.08-0.78-14.54-1.48-23.89-1.73
						c-9.35-0.24-17.83,0.02-23.94,0.52c-3.06,0.23-5.52,0.52-7.22,0.76C31.17,317.49,30.24,317.66,30.25,317.73z"/>
				</g>
			</g>
		</g>
		<g>
			<g>
				<g>
					<path class="st25" d="M138.03,387.49c0.03,0.01,0.14-0.29,0.32-0.87c0.2-0.69,0.44-1.53,0.74-2.55
						c0.63-2.22,1.46-5.45,2.42-9.46c1.94-8.01,4.28-19.17,6.69-31.51c2.41-12.35,4.64-23.51,6.42-31.55
						c0.87-3.91,1.59-7.13,2.13-9.52c0.23-1.04,0.41-1.89,0.56-2.59c0.12-0.59,0.17-0.91,0.13-0.92c-0.03-0.01-0.14,0.29-0.32,0.87
						c-0.2,0.69-0.44,1.53-0.74,2.55c-0.63,2.22-1.46,5.45-2.42,9.46c-1.94,8.01-4.28,19.17-6.69,31.52
						c-2.41,12.34-4.64,23.5-6.41,31.55c-0.88,3.91-1.59,7.13-2.13,9.52c-0.23,1.04-0.41,1.89-0.56,2.59
						C138.05,387.17,138,387.48,138.03,387.49z"/>
				</g>
			</g>
		</g>
		<g>
			<g>
				<g>
					<path class="st25" d="M46.47,373.55c0,0.03,0.31,0.11,0.92,0.22c0.72,0.12,1.6,0.26,2.66,0.44c2.46,0.38,5.77,0.89,9.81,1.51
						c8.28,1.28,19.7,3.17,32.31,5.28c12.62,2.11,24.06,3.9,32.37,5.01c4.15,0.55,7.52,0.97,9.85,1.21c1.08,0.1,1.96,0.19,2.69,0.26
						c0.62,0.05,0.94,0.06,0.94,0.02c0-0.03-0.31-0.11-0.92-0.22c-0.72-0.12-1.6-0.26-2.66-0.44c-2.46-0.38-5.77-0.89-9.81-1.51
						c-8.28-1.28-19.7-3.17-32.32-5.28c-12.61-2.11-24.06-3.9-32.37-5.01c-4.16-0.55-7.52-0.97-9.85-1.21
						c-1.08-0.1-1.96-0.19-2.69-0.26C46.8,373.53,46.48,373.52,46.47,373.55z"/>
				</g>
			</g>
		</g>
	</g>
	<path class="st29" d="M466.47,225.04c0,0-11.22-11.66-34.34,16.24c-23.12,27.9-33.27,44.71-33.27,44.71s-5.72,5.65-9.29,0.32
		c-3.57-5.33-7.03-18.96-15.23-18.49c-8.5,0.49-13.14,8.82-14.55,22.27c-1.41,13.45-5.59,42.8-5.98,45.45
		c-0.38,2.6-2.69,6.05-5.7,2.81c-3.01-3.24-18.38-30.64-30.94-22.57c-12.56,8.07-10.35,46.18-10.18,50.36
		c0.16,4.17-0.98,5.68-3.07,6.24c-2.09,0.56-6.39-9.14-11.08-16.75c-4.69-7.61-11.46-15.62-18.32-10.35
		c-6.86,5.26-14.61,31.75,1.18,81.14l8.82,22.4l23.85,3.97c51.57,5.39,75.92-7.6,79.67-15.38c3.75-7.79-5.46-12.78-13.87-15.82
		c-8.41-3.04-18.78-5.27-18.66-7.43c0.12-2.16,1.36-3.59,5.48-4.28c4.12-0.69,41.88-6.29,47.22-20.23
		c5.34-13.94-24.61-23.4-28.4-25.69c-3.79-2.29-0.89-5.25,1.58-6.16c2.52-0.92,30.4-11,43.28-15.12
		c12.88-4.13,20.09-10.36,18.84-18.79c-1.21-8.13-15.26-8.74-21.2-11.15c-5.95-2.41-1.58-9.16-1.58-9.16s14.38-13.37,36.99-41.69
		c22.61-28.32,8.52-37.07,8.52-37.07"/>
	<g>
		<path class="st25" d="M442.95,256.04c-0.33,0.4-0.78,0.93-1.34,1.6c-1.2,1.46-2.9,3.54-5.08,6.21
			c-4.43,5.44-10.78,13.24-18.61,22.87c-15.83,19.27-37.64,45.83-61.73,75.17c-24.16,29.32-45.94,55.95-61.53,75.36
			c-2.31,2.87-4.48,5.57-6.5,8.11c0.22,0.04,0.45,0.1,0.67,0.14c1.99-2.45,4.12-5.06,6.37-7.82c15.83-19.27,37.64-45.83,61.75-75.18
			c24.15-29.31,45.93-55.94,61.52-75.35c7.8-9.7,14.08-17.58,18.37-23.06c2.12-2.71,3.77-4.83,4.93-6.32
			c0.53-0.7,0.95-1.25,1.26-1.66c0.28-0.38,0.42-0.58,0.4-0.59C443.42,255.5,443.26,255.68,442.95,256.04z"/>
	</g>
	<g>
		<path class="st25" d="M372.83,303.59c0.13-0.01,0.39,2.3,0.62,6.03c0.23,3.74,0.4,8.91,0.47,14.61
			c0.03,5.56,0.06,10.59,0.08,14.61c0.02,3.74,0.07,6.05-0.07,6.06c-0.13,0.01-0.42-2.29-0.61-6.04c-0.2-3.74-0.3-8.91-0.37-14.62
			c-0.07-5.56-0.14-10.58-0.19-14.6C372.71,305.91,372.69,303.59,372.83,303.59z"/>
	</g>
	<g>
		<path class="st25" d="M390.19,332.37c-0.02-0.27,10.62-1.12,23.76-1.9c13.14-0.78,23.8-1.2,23.82-0.93
			c0.02,0.27-10.62,1.12-23.76,1.9C400.87,332.22,390.21,332.64,390.19,332.37z"/>
	</g>
	<g>
		<path class="st25" d="M351.06,383.36c0.04-0.14,2.34,0.37,6.07,1.2c3.73,0.82,8.87,1.94,14.59,2.99
			c5.72,1.06,10.93,1.86,14.7,2.42c3.77,0.56,6.11,0.91,6.1,1.05c-0.01,0.13-2.38,0.02-6.18-0.37c-3.8-0.39-9.05-1.08-14.79-2.15
			c-5.74-1.05-10.88-2.29-14.58-3.28C353.28,384.23,351.03,383.49,351.06,383.36z"/>
	</g>
	<g>
		<path class="st25" d="M325.6,351.57c0.13-0.04,0.89,2.01,2.02,5.35c1.13,3.34,2.63,7.98,4.23,13.12c1.6,5.14,2.99,9.81,3.96,13.21
			c0.96,3.4,1.5,5.51,1.37,5.55c-0.13,0.04-0.89-2.01-2.02-5.35c-1.13-3.34-2.63-7.98-4.23-13.12c-1.6-5.14-2.99-9.81-3.96-13.21
			C326,353.73,325.47,351.61,325.6,351.57z"/>
	</g>
	<g>
		<path class="st25" d="M286.19,385.45c0.06-0.02,0.34,0.63,0.78,1.81s1.05,2.91,1.79,5.05c1.47,4.28,3.43,10.21,5.54,16.78
			c2.11,6.57,3.97,12.53,5.27,16.87c0.65,2.17,1.16,3.92,1.49,5.15c0.33,1.22,0.49,1.91,0.42,1.93c-0.06,0.02-0.34-0.63-0.78-1.81
			c-0.44-1.19-1.05-2.91-1.78-5.05c-1.47-4.28-3.43-10.21-5.54-16.78c-2.11-6.57-3.97-12.53-5.27-16.86
			c-0.65-2.17-1.16-3.92-1.49-5.15C286.28,386.16,286.12,385.47,286.19,385.45z"/>
	</g>
	<g>
		<path class="st25" d="M322.44,428.92c0.01-0.07,0.76,0.03,2.1,0.26c1.54,0.28,3.42,0.62,5.64,1.03
			c4.76,0.88,11.34,2.08,18.63,3.21c7.29,1.15,13.92,2.03,18.72,2.65c2.24,0.3,4.14,0.55,5.69,0.75c1.34,0.19,2.08,0.32,2.08,0.39
			c-0.01,0.07-0.76,0.06-2.11-0.02c-1.35-0.07-3.31-0.22-5.72-0.44c-4.83-0.44-11.49-1.22-18.8-2.37
			c-7.31-1.14-13.88-2.45-18.62-3.5c-2.37-0.53-4.27-0.98-5.59-1.33C323.15,429.21,322.43,428.99,322.44,428.92z"/>
	</g>
	<g>
		<g id="freepik--Character--inject-2_1_">
			<path class="st71" d="M264.98,226.61c0,0,19.13,4.73,22.33,44.16c1.88,23.06,4.11,46.57,4.11,46.57l42.06,9.93l7.4,22.99
				l-55.1,10.84c-15.25,0-32-13.16-31.61-28.41l-0.65-53.06L264.98,226.61z"/>
			<path class="st71" d="M163.96,226.94l-8.54,59.23c-1.23,8.57-0.62,17.3,1.8,25.61l10.53,36.1c0,0-14.3,18.32-2.5,25.41
				c2.33,1.44,65.56,4.31,65.56,4.31l30.65-2.11l4.1-87.73l-0.57-61.1c0,0-21.28-7.75-29.62-8.62c-15.48-1.01-31.01-0.88-46.47,0.39
				L163.96,226.94z"/>
			<path class="st6" d="M261.91,287.16c-0.74-0.17-1.51-0.2-2.26-0.09c-3.05,0.01-5.8-1.82-6.96-4.64
				c-0.38,1.48-1.05,2.87-1.98,4.08c-0.97,1.23-2.58,1.75-4.08,1.34c-1.54-0.59-2.26-2.3-3.38-3.48c-2.54-2.26-6.42-2.03-8.68,0.5
				c-0.44,0.49-0.8,1.06-1.06,1.67c-0.57,1.71-0.93,4.2-2.74,4.17c-2.07,0-2.04-3.36-3.65-4.66s-4.07,0-5.48,1.62s-2.87,3.55-5,3.51
				c-2.13-0.04-3.43-1.91-4.01-3.79c-0.57-1.88-0.57-3.91-1.26-5.75c-0.69-1.84-2.41-3.56-4.31-3.26c-2.41,0.37-3.31,3.28-3.94,5.62
				s-2.39,5.13-4.74,4.53c-3.38-0.86-2.01-6.84-4.99-8.62c-2.1-1.26-4.84,0.55-5.96,2.73s-1.44,4.77-2.74,6.83
				c-1.31,2.05-4.68,3.1-6.12,1.24c-0.53-0.65-0.75-1.54-1.32-2.14c-1.25-0.98-2.99-1.05-4.31-0.17c-1.44,0.75-2.53,1.93-3.97,2.54
				s-4.67,0-5.39-1.44l-4.31,7.63c-0.7,1.6-2.6,3.58-1.44,4.24c1.07,0.55,2.37,0.13,2.92-0.94c0.05-0.1,0.09-0.19,0.13-0.3
				c1.71,0.99,3.86,0.81,5.37-0.46c1.03-0.98,2.01-2.6,3.38-2.23c0.7,0.19,1.15,0.86,1.64,1.44c1.86,1.9,4.83,2.16,7,0.62
				c1.03-0.95,1.99-1.97,2.87-3.06c0.91-1.09,2.38-1.55,3.75-1.16c1.52,0.65,1.84,2.67,1.7,4.31c-0.14,1.64-0.49,3.48,0.42,4.86
				c1.19,1.81,3.95,1.84,5.85,0.78c1.76-1.23,3.34-2.68,4.73-4.31c1.55-1.51,3.64-2.87,5.75-2.39c2.47,0.5,4.31,3.26,6.85,2.96
				c1.74-0.22,3.06-1.85,4.81-1.95c1.75-0.1,3.41,1.71,5.26,2.28c4.18,1.31,7.98-3.92,12.34-3.52c3.99,0.37,7.19,5.37,10.98,3.98
				c3.32-1.22,3.35-6.27,6.27-8.26c1.75-1.22,4.1-1.01,6.22-0.75c2.13,0.26,4.47,0.46,6.22-0.76
				C264.04,291.27,263.99,287.88,261.91,287.16z"/>
			<path class="st6" d="M265.19,283.69c-0.56-1.19-0.04-2.61,1.15-3.17c0.82-0.38,1.79-0.27,2.5,0.3c0.86,0.86,1.32,2.04,1.26,3.25
				c-0.07,1.2,0.13,2.39,0.57,3.51c0.49,1.08,1.76,1.56,2.83,1.07c0.05-0.02,0.11-0.05,0.16-0.08c0.75-0.59,0.78-1.67,0.88-2.62
				c0.1-0.95,0.57-2.05,1.52-2.1c0.95-0.04,1.54,1.02,1.71,1.95c0.17,0.93,0.23,2.01,0.98,2.6c1.05-0.32,1.28-1.65,1.51-2.73
				c0.23-1.08,1.25-2.3,2.2-1.77c0.47,0.26,0.65,0.85,0.89,1.34s0.76,0.96,1.26,0.76c0.85-0.32,0.4-1.94,1.25-2.27
				c0.56-0.2,1.08,0.39,1.44,0.91c0.65,0.89,1.06,1.94,1.18,3.03c0.09,1.13-0.69,2.15-1.81,2.36c-0.64-0.07-1.28-0.23-1.88-0.46
				c-1.4-0.15-2.76,0.54-3.46,1.75c-0.67,1.19-1.1,2.51-1.26,3.87c-1.78-1.59-4.5-1.43-6.09,0.34c-0.02,0.02-0.04,0.05-0.06,0.07
				c-1.21,1.58-1.52,4.21-3.48,4.61c-1.35,0.1-2.59-0.75-2.97-2.04c-0.31-1.28-0.31-2.61,0-3.89l-2.67,2.2l-0.6-3.51"/>
			<g class="st3">
				<path d="M160.66,366.06l33.78-10.43l21.48-1.97c0,0,6.14,10.71,11.6,10.2c3.23-0.3,6.36-1.28,9.18-2.87
					c0,0,2.07,11.27,7.53,10.43s2.66-34.49,2.66-34.49l-56.99-11.5l-33.81,8.81L160.66,366.06z"/>
			</g>
			<path class="st71" d="M163.96,226.94c0,0-17.59,6.16-24.2,16.07c-8.72,13.12-33.37,50.83-44.92,80.35
				c-3.62,9.24-0.6,23.44,4.74,31.79l0,0c7.16,11.17,20.79,16.31,33.54,12.66l61.63-17.39l5.75-34.65L146.82,318l15.05-24.67
				L163.96,226.94z"/>
			<path class="st6" d="M115.93,281.69c1.24-1.43,3.4-1.58,4.82-0.34c0.2,0.17,0.38,0.37,0.54,0.59c0.95,1.44,0.95,3.99,2.69,4.31
				c1.26,0.24,2.27-0.98,3.12-1.97c0.85-0.99,2.37-1.88,3.32-0.99c0.95,0.89,0.42,2.59,1.44,3.25c1.02,0.66,2.08-0.33,2.72-1.24
				c0.63-0.91,1.44-2.01,2.47-1.91c2.24,0.2,1.77,4.83,4.02,4.87c1.15,0,1.84-1.31,2.87-1.74c1.44-0.57,2.87,0.49,3.98,1.44
				c0.77,0.6,1.42,1.34,1.91,2.18c0.49,0.88,0.4,1.97-0.22,2.76c-0.99,1.08-2.77,0.63-4.05-0.09c-1.28-0.72-2.66-1.64-4.08-1.28
				c-2.4,0.6-3.28,4.56-5.75,4.31c-2.24-0.26-2.87-3.91-5.09-4.15c-2.21-0.24-4.04,3.49-6.21,2.6c-1.01-0.4-1.44-1.67-2.36-2.23
				c-0.96-0.44-2.08-0.38-2.99,0.16c-0.89,0.55-1.81,1.03-2.77,1.44c-1,0.42-2.16,0.15-2.87-0.68c-0.59-0.86,0.11-2.37,1.14-2.14
				l-2.46-0.4v-1.95"/>
			<path class="st59" d="M264.78,261.25c0.13,0.91,0.19,1.84,0.19,2.76c0,1.78,0.11,4.31,0.13,7.54c0,6.38-0.07,15.18-0.52,24.89
				c-0.45,9.71-1.24,18.51-1.83,24.86c-0.32,3.16-0.6,5.75-0.83,7.5c0.56,24.86-0.37,2.73-0.43,2.73c-0.04-0.93,0-1.85,0.1-2.77
				c0.14-1.91,0.33-4.45,0.56-7.52c0.47-6.35,1.08-15.12,1.52-24.82c0.45-9.7,0.66-18.49,0.76-24.86c0-3.08,0.1-5.62,0.14-7.54
				C264.57,263.1,264.64,262.17,264.78,261.25z"/>
			<path class="st59" d="M268.19,228.5c0.22,0.16-2.23,3.35-3.92,7.92s-2.03,8.62-2.3,8.55c-0.21-3.03,0.31-6.06,1.51-8.85
				C264.41,233.24,266.03,230.63,268.19,228.5z"/>
			<path class="st59" d="M170.48,259.16c-0.13,0-0.26-1.6-0.85-4.1c-0.79-3.24-2.05-6.35-3.75-9.23c-1.72-2.86-3.84-5.46-6.31-7.7
				c-1.91-1.71-3.26-2.59-3.19-2.7c0.37,0.11,0.71,0.29,1.02,0.52c0.88,0.53,1.73,1.13,2.51,1.8c5.31,4.39,8.92,10.48,10.23,17.24
				c0.19,1.01,0.32,2.03,0.37,3.06C170.57,258.42,170.56,258.79,170.48,259.16z"/>
			<path class="st59" d="M146.11,318.31c-3.36,1.12-6.64,2.47-9.82,4.05c-3.04,1.81-5.96,3.83-8.72,6.05
				c0.59-0.87,1.32-1.65,2.14-2.31c1.91-1.7,4-3.17,6.24-4.4c2.23-1.23,4.6-2.2,7.06-2.87C144.01,318.47,145.06,318.3,146.11,318.31
				z"/>
			<path class="st59" d="M171.68,272.74c-0.2,0.65-0.46,1.27-0.78,1.87c-0.53,1.19-1.35,2.87-2.39,4.96
				c-2.07,4.15-5.04,9.84-8.52,16.01c-3.48,6.16-6.81,11.67-9.3,15.58c-1.25,1.97-2.28,3.54-3.02,4.61
				c-0.34,0.58-0.74,1.12-1.19,1.62c0.26-0.62,0.58-1.22,0.95-1.78l2.87-4.73c2.37-3.98,5.63-9.5,9.11-15.66
				c3.48-6.16,6.51-11.8,8.69-15.89c1.05-1.94,1.93-3.56,2.6-4.84C170.98,273.87,171.31,273.29,171.68,272.74z"/>
			<path class="st59" d="M127.57,368.83l0.33-0.13l0.99-0.3l3.81-1.12l14.17-3.99l47.78-13.24l-0.26,0.3
				c0.53-3.31,1.11-6.78,1.68-10.32c1.44-8.55,2.79-16.77,4.04-24.33l0.33,0.42c-13.26-0.26-26.53,0.22-39.73,1.44l-11.5,0.96
				l-3.06,0.24h-0.79h-0.27h0.27l0.78-0.11l3.06-0.34c2.66-0.3,6.54-0.7,11.5-1.18c13.22-1.38,26.51-1.95,39.81-1.72h0.4l-0.07,0.4
				c-1.24,7.56-2.59,15.81-3.98,24.33c-0.59,3.54-1.16,7.01-1.71,10.32v0.24h-0.23l-47.85,12.93l-14.23,3.79l-3.85,0.98l-0.99,0.24
				C127.86,368.73,127.72,368.79,127.57,368.83z"/>
			<path class="st72" d="M228.54,430.14c0,0,62.61,17.33,65.13,18.22c3.77,1.32,3.13,15.15-2.73,14.93
				c-2.77-0.1-48.1,1.68-53.83,1.32c-5.73-0.36-22.99-7.19-22.99-7.19L228.54,430.14z"/>
			<path class="st59" d="M254.62,454.03c0.32,0,0.73-3.28,2.76-6.73c2.03-3.45,4.63-5.52,4.43-5.75c-0.2-0.23-3.22,1.52-5.33,5.25
				C254.36,450.53,254.36,454.06,254.62,454.03z"/>
			<path class="st59" d="M248.1,451.07c0.3,0,0.93-2.87,2.6-6.18s3.64-5.56,3.41-5.75s-2.62,1.84-4.31,5.3
				C248.1,447.91,247.83,451.06,248.1,451.07z"/>
			<path class="st59" d="M241.96,449.44c0.32,0,0.09-3.15,1.44-6.62s3.64-5.62,3.42-5.85c-0.22-0.23-2.87,1.7-4.4,5.48
				C240.9,446.22,241.79,449.52,241.96,449.44z"/>
			<path class="st59" d="M243.08,441.35c0.55-1.49,0.78-3.07,0.68-4.66c-0.01-1.72-0.23-3.44-0.65-5.12
				c-0.24-0.98-0.55-1.94-0.92-2.87c-0.21-0.59-0.55-1.11-1.01-1.54c-0.65-0.49-1.56-0.45-2.16,0.11c-0.48,0.47-0.77,1.1-0.83,1.77
				c-0.06,0.55-0.09,1.1-0.09,1.65c0.01,1.03,0.14,2.06,0.39,3.06c0.42,1.68,1.07,3.29,1.93,4.8c0.72,1.42,1.69,2.7,2.87,3.77
				c0.14-0.1-0.91-1.57-2.16-4.11c-0.73-1.48-1.28-3.04-1.64-4.66c-0.21-0.94-0.31-1.91-0.3-2.87c0-0.96,0-2.17,0.57-2.63
				c0.23-0.22,0.6-0.22,0.83,0c0.31,0.3,0.54,0.68,0.68,1.09c0.37,0.9,0.69,1.82,0.95,2.76c0.44,1.6,0.72,3.24,0.83,4.9
				C243.23,439.55,242.91,441.32,243.08,441.35z"/>
			<path class="st59" d="M243,440.71c-1.28-0.53-2.66-0.76-4.04-0.66c-1.5,0-2.99,0.18-4.44,0.55c-0.89,0.19-1.75,0.51-2.56,0.95
				c-1.08,0.52-1.67,1.7-1.44,2.87c0.28,1.1,1.15,1.96,2.26,2.23c0.92,0.24,1.88,0.24,2.8,0c1.48-0.37,2.87-1.05,4.07-2
				c1.13-0.77,2.1-1.75,2.87-2.87c-1.16,0.67-2.28,1.43-3.33,2.26c-1.17,0.79-2.47,1.36-3.85,1.67c-0.76,0.18-1.55,0.18-2.31,0
				c-0.73-0.18-1.31-0.72-1.52-1.44c-0.12-0.72,0.25-1.44,0.92-1.74c0.72-0.39,1.49-0.69,2.28-0.89c1.37-0.39,2.79-0.64,4.21-0.73
				C241.45,440.58,242.98,440.87,243,440.71z"/>
			<path class="st59" d="M264.24,454.71c0.32,0,0-2.72,1.24-5.65c1.24-2.93,3.26-4.67,3.08-4.91s-2.73,1.24-4.04,4.51
				C263.2,451.94,263.99,454.81,264.24,454.71z"/>
			<path class="st59" d="M220.55,457.6c0.77,0.45,1.59,0.83,2.43,1.14c2.27,0.88,4.6,1.6,6.97,2.16c7.84,1.72,15.87,2.48,23.9,2.27
				c9.38-0.1,17.83-0.53,23.97-0.78l7.26-0.39c0.89,0,1.78-0.1,2.66-0.29c-0.89-0.12-1.78-0.16-2.67-0.11h-7.26l-23.96,0.47
				c-7.96,0.2-15.92-0.45-23.74-1.94C224.11,458.93,220.62,457.4,220.55,457.6z"/>
			<path class="st59" d="M218.7,459.02c0.09,0.14,1.8-0.86,4.7-2.13c3.68-1.75,7.79-2.43,11.84-1.97c4.73,0.72,8.06,3.89,10.25,6.09
				c1.12,1.31,2.32,2.55,3.61,3.69c-0.82-1.53-1.85-2.94-3.06-4.2c-1.23-1.45-2.63-2.75-4.15-3.88c-1.91-1.42-4.12-2.36-6.47-2.74
				c-4.25-0.51-8.56,0.3-12.33,2.33C221.49,456.92,220.01,457.87,218.7,459.02z"/>
			<path class="st73" d="M165.25,373.29l-12.69,26.08c0,0-67.87-20.58-84.97-19.69s-31.1,7.8-34.49,21.68
				c-3.39,13.88-3.78,33.05,16.17,46.36c19.95,13.31,119.23,20.64,119.23,20.64h39.23l64.14-84.54l-10.33-8.38L165.25,373.29z"/>
			<path class="st74" d="M186.61,430.52c-0.43,0.03-0.86,0.03-1.29,0c-0.85-0.07-2.1,0-3.68-0.29c-4.51-0.51-8.96-1.43-13.31-2.74
				c-6.41-1.95-12.66-4.4-18.68-7.33c-6.87-3.23-14.18-7.19-21.87-11.35c-7.19-3.94-14.59-7.49-22.16-10.63
				c-6.18-2.56-12.6-4.48-19.17-5.75c-4.43-0.84-8.93-1.24-13.44-1.18c-1.6,0-2.87,0.13-3.66,0.14c-0.43,0.04-0.86,0.04-1.29,0
				c0.42-0.1,0.85-0.16,1.28-0.19c0.83,0,2.07-0.29,3.68-0.3c4.54-0.18,9.08,0.12,13.55,0.91c6.6,1.21,13.06,3.1,19.27,5.66
				c7.62,3.11,15.06,6.65,22.27,10.61c7.69,4.12,14.99,8.12,21.8,11.38c6,2.95,12.22,5.45,18.6,7.47c4.3,1.35,8.71,2.35,13.18,2.99
				c1.57,0.27,2.87,0.33,3.65,0.45C185.76,430.38,186.19,430.43,186.61,430.52z"/>
			<path class="st73" d="M232.98,461.46c12.6-4.94,81.91-27,106.46-55.37c20.43-23.61-12.07-44.75-12.07-44.75s-22.79-0.72-30.39,0
				c-7.6,0.72-116.4,74.25-116.4,74.25s19,37.05,18.52,38.47L232.98,461.46z"/>
			<path class="st74" d="M267.11,379.25c0,0-0.09,0.09-0.29,0.23l-0.92,0.62l-3.55,2.33l-13.18,8.38l-43.6,27.42L181.88,433
				l0.16-0.49l12.42,29.88c1.44,3.62,2.66,6.52,3.49,8.62l0.91,2.3c0.12,0.26,0.2,0.53,0.26,0.8c-0.15-0.24-0.28-0.5-0.39-0.76
				c-0.26-0.56-0.59-1.31-1.01-2.24l-3.71-8.49c-3.13-7.36-7.54-17.68-12.7-29.76l-0.13-0.3l0.29-0.19l23.65-14.83l43.74-27.25
				l13.31-8.16l3.65-2.18l0.96-0.55L267.11,379.25z"/>
			<path class="st74" d="M171.38,411.94c-1.13-0.23-2.22-0.64-3.22-1.21c-2.5-1.21-4.88-2.65-7.11-4.31
				c-2.24-1.63-4.32-3.47-6.22-5.49c-0.85-0.79-1.57-1.7-2.13-2.72c0.2-0.17,3.66,3.75,8.85,7.52S171.45,411.7,171.38,411.94z"/>
			<path class="st74" d="M209.08,381.2c0.18,1.43,0.23,2.87,0.17,4.31c0,2.67,0.14,6.37,0.5,10.42c0.36,4.05,0.93,7.72,1.44,10.35
				c0.32,1.42,0.53,2.86,0.62,4.31c-0.57-1.34-0.98-2.74-1.21-4.18c-0.77-3.42-1.32-6.88-1.64-10.38c-0.31-3.49-0.39-7-0.26-10.5
				C208.68,384.08,208.8,382.63,209.08,381.2z"/>
			<path class="st74" d="M217.2,380.31c0,0,0.32-0.09,0.85,0.11c0.74,0.3,1.37,0.83,1.8,1.51c0.69,1.03,0.88,2.31,0.52,3.49
				c-0.54,1.48-1.94,2.47-3.52,2.49c-1.57,0.15-3.07-0.73-3.71-2.17c-0.41-1.18-0.24-2.48,0.47-3.51c0.44-0.69,1.11-1.2,1.9-1.44
				c0.56-0.13,0.88,0,0.88,0c-0.94,0.29-1.74,0.9-2.26,1.74c-0.53,0.87-0.63,1.92-0.27,2.87c0.55,1.1,1.73,1.75,2.96,1.62
				c1.26,0.02,2.4-0.73,2.87-1.9c0.3-0.96,0.19-2-0.3-2.87C218.86,381.42,218.1,380.74,217.2,380.31z"/>
			<path class="st74" d="M183.66,377.57c0.28,0.38,0.48,0.82,0.59,1.28c0.4,1.24,0.59,2.54,0.57,3.84
				c-0.02,1.95-0.45,3.87-1.26,5.63c-1.97,4.5-6.36,7.46-11.27,7.59c-1.96,0.1-3.92-0.23-5.75-0.96c-1.21-0.46-2.34-1.13-3.33-1.97
				c-0.38-0.29-0.71-0.64-0.98-1.03c1.4,0.99,2.92,1.81,4.51,2.44c1.75,0.6,3.6,0.85,5.45,0.73c4.61-0.2,8.71-2.98,10.61-7.19
				c0.8-1.67,1.26-3.47,1.37-5.32C184.21,380.92,184.04,379.22,183.66,377.57z"/>
			<path class="st74" d="M248.34,390.47c-0.87,0.15-1.77,0.02-2.57-0.36c-4.18-1.46-6.85-5.55-6.51-9.96
				c-0.01-0.88,0.23-1.75,0.7-2.5c0.01,0.84-0.02,1.68-0.1,2.51c0,4.07,2.4,7.75,6.12,9.38C247.4,390.2,248.36,390.29,248.34,390.47
				z"/>
			<path class="st75" d="M333.86,328.98c0,0,14.95-11.11,17.55-11.58s22.46,2.03,23.65,3.22c1.19,1.19,19.63,15.09,16.07,16.28
				c-3.56,1.19-16.31-8.69-16.31-8.69h-2.39c0,0,11.18,8.23,12.93,11.05c1.65,2.57-0.65,5.04-2.76,3.66
				c-2.11-1.38-11.64-8.9-12.49-8.79c-0.85,0.1,10.06,8.81,10.94,10.26c1.22,1.94-0.22,5.16-2.36,3.87
				c-1.26-0.78-11.18-9.64-11.18-9.64s7.27,8.19,7.7,9.41c0.69,2.01-1.44,3.42-3.16,1.97c-1.19-0.99-6.02-7.36-7.63-8.69
				c0,0-1.93-0.42-5.23,2.21c-3.31,2.63-18.81,5.59-18.81,5.59L333.86,328.98z"/>
			<path class="st65" d="M338.37,331.57c0.89,1.73,2.78,2.7,4.7,2.43c1.9-0.13,3.69-0.88,5.56-1.14c5.6-0.78,11.18,2.97,16.74,1.93
				c0.78-0.14,1.7-0.56,1.71-1.35c0.01-0.79-0.73-1.21-1.44-1.52l-16.86-8.21"/>
			<path class="st76" d="M348.84,323.71c0.67,0.14,1.31,0.37,1.91,0.69c1.21,0.52,2.87,1.29,5.04,2.27l7.43,3.49l2.14,1.02
				c0.65,0.37,1.67,0.57,2.18,1.77c0.18,0.62-0.03,1.29-0.53,1.7c-0.42,0.32-0.91,0.55-1.44,0.65c-0.91,0.17-1.83,0.23-2.76,0.2
				c-3.72-0.16-6.93-1.44-9.9-1.98c-1.39-0.28-2.81-0.35-4.22-0.22c-1.31,0.16-2.53,0.55-3.69,0.78c-1.87,0.58-3.89,0.3-5.53-0.76
				c-1.12-0.88-1.18-1.75-1.14-1.74c0.04,0.01,0.3,0.72,1.44,1.44c1.58,0.84,3.44,0.97,5.13,0.37c1.12-0.27,2.33-0.7,3.75-0.92
				c1.5-0.2,3.01-0.16,4.5,0.11c3.12,0.47,6.34,1.75,9.77,1.9c0.83,0.02,1.65-0.06,2.46-0.23c0.76-0.14,1.32-0.6,1.15-0.98
				c-0.17-0.37-0.91-0.82-1.62-1.16l-2.13-1.06l-7.33-3.69c-2.07-1.06-3.75-1.94-4.9-2.57
				C349.93,324.49,349.36,324.13,348.84,323.71z"/>
			<path class="st77" d="M391.06,336.93c-1.45,0.01-2.88-0.29-4.21-0.88c-1.49-0.53-2.94-1.19-4.31-1.98
				c-1.44-0.98-3.02-2.08-4.67-3.25l-3.48-2.5l0.23,0.1c-5.91-0.8-10.16-1.54-10.13-1.78c0.03-0.24,4.31,0.1,10.26,0.76h0.13
				l0.11,0.09l3.48,2.44l4.58,3.28c1.28,0.82,2.63,1.53,4.02,2.13C389.52,336.37,391.1,336.77,391.06,336.93z"/>
			<path class="st72" d="M184.4,440.58c0,0-62.61,17.33-65.13,18.21c-3.78,1.34-3.13,15.15,2.73,14.93c2.77-0.1,48.1,1.7,53.82,1.34
				c5.72-0.36,21.14-6.45,21.14-6.45L184.4,440.58z"/>
			<path class="st59" d="M158.31,464.47c-0.32,0-0.73-3.26-2.76-6.73c-2.03-3.46-4.63-5.5-4.43-5.75s3.22,1.52,5.33,5.25
				C158.57,460.96,158.57,464.5,158.31,464.47z"/>
			<path class="st59" d="M164.84,461.51c-0.3,0-0.93-2.87-2.6-6.18s-3.64-5.56-3.42-5.75s2.63,1.85,4.31,5.3
				C164.81,458.33,165.11,461.49,164.84,461.51z"/>
			<path class="st59" d="M170.96,459.87c-0.32,0-0.07-3.15-1.44-6.61s-3.62-5.63-3.41-5.86c0.22-0.23,2.87,1.7,4.38,5.48
				C172.01,456.65,171.22,459.95,170.96,459.87z"/>
			<path class="st59" d="M169.85,451.78c-0.55-1.49-0.79-3.07-0.68-4.66c0.02-1.72,0.23-3.43,0.63-5.1
				c0.25-0.98,0.56-1.94,0.93-2.87c0.19-0.59,0.54-1.12,1.01-1.52c0.65-0.5,1.56-0.46,2.16,0.1c0.48,0.47,0.77,1.1,0.83,1.77
				c0.03,0.55,0.03,1.1,0,1.65c-0.01,1.04-0.14,2.07-0.37,3.08c-0.43,1.68-1.08,3.29-1.94,4.79c-0.69,1.42-1.64,2.7-2.8,3.77
				c-0.14-0.1,0.91-1.55,2.16-4.11c0.73-1.48,1.28-3.04,1.64-4.66c0.2-0.95,0.3-1.91,0.3-2.87c0-0.96,0-2.17-0.57-2.63
				c-0.24-0.21-0.59-0.21-0.83,0c-0.31,0.31-0.55,0.68-0.69,1.09c-0.38,0.9-0.69,1.83-0.95,2.77c-0.43,1.6-0.71,3.23-0.82,4.89
				C169.74,449.98,170.02,451.75,169.85,451.78z"/>
			<path class="st59" d="M169.94,451.15c1.28-0.53,2.66-0.75,4.04-0.65c1.5-0.01,3,0.17,4.45,0.53c0.89,0.2,1.75,0.52,2.56,0.95
				c1.07,0.52,1.66,1.7,1.44,2.87c-0.29,1.1-1.15,1.96-2.26,2.24c-0.94,0.24-1.93,0.24-2.87,0c-1.48-0.36-2.87-1.04-4.07-2
				c-1.12-0.78-2.1-1.75-2.87-2.87c1.17,0.66,2.28,1.42,3.33,2.26c1.16,0.79,2.47,1.35,3.84,1.65c0.76,0.19,1.56,0.19,2.33,0
				c0.73-0.18,1.31-0.72,1.52-1.44c0.13-0.73-0.26-1.45-0.93-1.75c-0.71-0.4-1.48-0.7-2.27-0.89c-1.38-0.38-2.79-0.63-4.21-0.73
				C171.49,451.06,169.94,451.32,169.94,451.15z"/>
			<path class="st59" d="M148.68,465.14c-0.3,0,0-2.72-1.24-5.65s-3.26-4.66-3.06-4.9s2.73,1.22,4.04,4.5
				C149.73,462.37,148.94,465.26,148.68,465.14z"/>
			<path class="st59" d="M192.39,468.03c-0.76,0.47-1.58,0.85-2.43,1.14c-2.27,0.88-4.6,1.61-6.97,2.17
				c-7.84,1.73-15.87,2.5-23.9,2.3c-9.38-0.1-17.85-0.53-23.97-0.78l-7.19-0.39c-0.89,0-1.78-0.09-2.66-0.27
				c0.88-0.13,1.78-0.18,2.67-0.13h7.19l23.96,0.46c7.97,0.21,15.95-0.44,23.78-1.93C188.81,469.32,192.31,467.89,192.39,468.03z"/>
			<path class="st59" d="M194.24,469.45c-1.6-0.63-3.17-1.34-4.7-2.13c-3.69-1.75-7.79-2.43-11.84-1.97
				c-4.73,0.73-8.06,3.89-10.25,6.09c-1.12,1.31-2.32,2.55-3.61,3.69c0.83-1.53,1.86-2.94,3.06-4.2c1.24-1.44,2.63-2.74,4.15-3.88
				c1.91-1.42,4.12-2.36,6.47-2.74c4.25-0.51,8.56,0.31,12.33,2.34C191.45,467.36,192.93,468.3,194.24,469.45z"/>
			<path class="st59" d="M131.41,472.2c-0.1-0.09,0.43-0.91,0.92-2.37c1.35-3.84,0.56-8.11-2.07-11.22
				c-0.98-1.18-1.78-1.77-1.7-1.88c0.83,0.28,1.57,0.78,2.14,1.44c1.49,1.54,2.49,3.48,2.87,5.59c0.39,2.11,0.13,4.29-0.73,6.25
				C132.22,471.51,131.5,472.2,131.41,472.2z"/>
			<path class="st75" d="M249.22,333.37c-5.26-1.61-2.87-7.43-12.56-10.65c-7.19-2.4-14.95-6.88-36.2-4.47l-4.83,29.32l20.42-5.43
				l5.89,13.16c1.19,2.66,4.31,3.85,6.97,2.66c0.04-0.02,0.09-0.04,0.13-0.06l10.36-4.96c0,0,2.87,14.24,3.79,14.8
				c1.42,0.91,3.3,0.49,4.21-0.93c0.37-0.58,0.53-1.26,0.46-1.95c-0.4-1.91-1.44-26.64-1.44-26.64s7.85,2.23,7.36-0.91
				C253.73,337.38,254.48,334.98,249.22,333.37z"/>
			<path class="st77" d="M227.16,359.16c0.2-0.55,0.42-1.09,0.68-1.61c0.47-1.3,0.65-2.7,0.52-4.08c-0.14-1.38-0.59-2.7-1.32-3.88
				c-0.56-0.91-1.05-1.44-0.98-1.44c0.53,0.29,0.98,0.71,1.31,1.22c0.87,1.19,1.4,2.6,1.54,4.07c0.17,1.47-0.08,2.97-0.7,4.31
				C227.71,358.67,227.2,359.2,227.16,359.16z"/>
			<path class="st77" d="M233.66,355.63c0.79-3.28,0.15-6.75-1.78-9.53c0,0,0.5,0.32,1.06,1.09c0.71,1.01,1.2,2.16,1.44,3.38
				c0.22,1.21,0.19,2.46-0.09,3.66C234.19,354.74,233.97,355.22,233.66,355.63z"/>
			<path class="st77" d="M238.21,344.3c0,0,0.39,0.33,0.73,1.03c0.89,1.88,0.96,4.04,0.2,5.98c-0.3,0.73-0.6,1.11-0.66,1.08
				c0.37-1.33,0.57-2.69,0.62-4.07C238.98,346.95,238.68,345.6,238.21,344.3z"/>
			<path class="st61" d="M305.91,375.66l-105.44-2.62c-1.09-0.02-1.97-0.92-1.97-2.01l0,0c-0.01-1.11,0.89-2.02,2-2.03c0,0,0,0,0,0
				l58.16-0.73l22.99-71.19c0.77-2.4,3.03-4,5.55-3.92l88.23,2.44c3.17,0.15,5.62,2.84,5.47,6.01c-0.03,0.57-0.14,1.13-0.33,1.66
				l-27.73,73.56l-46.95-1.18"/>
			<path class="st6" d="M328.93,332.96c-1.03-1.91-5.4-2.54-7.5-0.96c-1.34,0.76-2.33,2.03-2.74,3.52c-0.6,2.44,0.71,4.95,3.05,5.86
				c2.35,0.54,4.8-0.39,6.21-2.34C329.42,337.38,329.81,335.01,328.93,332.96z"/>
			<path class="st59" d="M243.62,117.52c1.12-1.52,3.62-0.13,4.43,1.6c0.8,1.72,1.18,3.91,2.87,4.73c2.24,1.08,5.68-0.86,7.07,1.21
				c1.06,1.58-0.5,3.74,0,5.59c0.8,3.32,6.52,2.51,8.15,5.52c0.98,1.8,0,3.95-0.8,5.83s-1.06,4.5,0.66,5.56
				c1.72,1.06,4.31-0.16,5.75,1.22c1.9,1.87-0.95,5.04-0.36,7.63c0.43,1.91,2.56,2.87,4.47,3.26c1.91,0.39,4.04,0.72,5.3,2.21
				c2.79,3.29-1.29,8.36-0.16,12.53c0.69,2.51,3.31,4.64,2.69,7.19c-0.78,3.23-6.05,3.68-6.8,6.93c-0.65,2.76,2.5,5.92,0.76,8.16
				c-1.74,2.24-5.45,0.14-7.85,1.44c-2.76,1.57-2.24,6.74-5.33,7.5c-1.44,0.33-2.87-0.49-4.22-0.29c-3.41,0.5-4.31,6.39-7.76,6.16
				c-2.01-0.13-3.59-2.51-5.55-2.03s-2.21,3.22-3.87,4.31c-2.59,1.65-5.59-1.78-8.62-1.91c-1.91-0.09-3.77,1.15-5.65,0.8
				c-1.8-0.51-3.14-2.03-3.43-3.88c-0.25-1.82-0.21-3.66,0.13-5.46c1.11-10.05-0.63-20.22-5.02-29.33"/>
			<path class="st75" d="M233.87,225.03l-0.29-15.74c0,0,15.64-2.31,19.23-22.6c1.78-10.06,1.6-26.69,0.96-40.24
				c-0.7-14.99-16.96-30.72-29.13-29.66l-36.11,12.93v6.57l1.09,89.47c0.14,12.11,10,21.86,22.12,21.86l0,0
				c12.22,0,22.13-9.9,22.14-22.13C233.88,225.34,233.88,225.18,233.87,225.03z"/>
			<path class="st77" d="M233.59,209.31c-9.58-0.03-18.97-2.72-27.12-7.76c0,0,6.81,14.21,27.2,12.67L233.59,209.31z"/>
			<path class="st59" d="M242.67,120.65c0,0.23-0.69,0.43-1.55,0.43c-0.86,0-1.57-0.2-1.57-0.43c0-0.23,0.69-0.43,1.57-0.43
				C241.99,120.22,242.67,120.42,242.67,120.65z"/>
			<path class="st59" d="M241.35,124.58c5.25-10.4-6.68-19.11-12.36-21.96c-5.75-2.98-12.61-2.9-18.29,0.2
				c-2.5,1.44-4.68,3.64-7.49,4.31c-6.5,1.65-13.49-5-19.53-2.1c-4.97,2.37-5.75,9.82-10.79,12.14c-2.4,1.14-5.2,0.78-7.83,1.05
				s-5.62,1.72-5.95,4.31c-0.39,2.87,2.7,6.01,1.15,8.52c-1.91,3.09-7.59,0.22-10.06,2.87c-2.47,2.66,0.4,7.57-2.39,9.5
				c-2.05,1.44-5.5-0.29-7.01,1.68c-1.51,1.97,1.44,4.76,1.7,7.4c0.26,2.64-2.24,4.79-4.43,6.44c-2.18,1.65-4.47,4.31-3.42,6.78
				c1.22,2.87,5.99,3.16,6.81,6.21c0.82,3.05-3.36,6.58-1.44,9.23c1.26,1.75,4.17,1.25,5.75,2.7c2.67,2.4-0.57,7.03,0.75,10.38
				c1.81,4.63,9.74,2.6,12.79,6.52c1.68,2.18,1.44,5.75,3.84,7.19c2.4,1.44,5.52-0.79,8.33-0.46c4.58,0.53,7.42,7.5,11.83,6.14
				c2.26-0.69,3.92-3.54,6.22-2.97c1.98,0.49,2.76,3.32,4.77,3.64c2.73,0.43,3.49-3.55,5.12-5.75c2.18-2.97,6.94-3.13,8.95-6.21
				c1.81-2.77,0.5-6.47-1.09-9.37s-3.49-6.08-2.72-9.3c0.89-3.66,5.1-6.84,3.62-10.3c-1.61-3.78-8.69-3.39-9.18-7.49
				c-0.47-3.87,6.01-6.05,5.27-9.87c-0.49-2.57-4.01-3.58-4.67-6.11c-0.78-2.87,2.79-5.45,2.74-8.49c0-1.94-1.51-3.49-2.57-5.13
				c-1.06-1.64-1.64-4.07-0.16-5.32c2.37-2.01,5.92,1.65,8.88,0.76c2.08-0.62,2.87-3.08,3.56-5.12c0,0,5.49-8.32,15.3-7.19
				C237.18,120.55,241.35,124.58,241.35,124.58z"/>
			<path class="st59" d="M241.49,120.83c1.58,1.78,1.41,4.51-0.37,6.09c-0.36,0.32-0.77,0.57-1.21,0.75
				c-2.44,0.86-5.03-0.68-7.19-2.11s-4.84-2.87-7.19-1.87c-4.31,1.87-3.13,9.79-7.57,11.5c-1.83,0.7-3.84,0-5.75-0.42
				s-4.31-0.34-5.35,1.29c-1.44,2.2,0.5,5.75-1.44,7.5c-0.79,0.75-2.04,0.89-2.76,1.71c-1.16,1.31-0.24,3.43,1.03,4.64
				c1.28,1.21,2.96,2.14,3.59,3.78c1.01,2.62-1.19,5.33-3.43,7.03c-2.24,1.7-4.93,3.38-5.42,6.15c-0.78,4.44,4.74,8.74,2.87,12.85
				c-1.33,2.28-4.14,3.23-6.58,2.23c-2.34-1.06-4.23-2.92-5.33-5.25c-5.1-9.15-3.66-20.33-1.97-30.64
				c1.11-6.75,2.4-13.74,6.35-19.33c3.95-5.59,10.62-9.44,17.33-11.78c5.08-1.98,10.55-2.76,15.98-2.28
				c5.48,0.52,10.46,3.42,13.61,7.93"/>
			<path class="st61" d="M183.06,213.09c-0.1,0.1-0.23,0.17-0.36,0.22c-0.4,0.14-0.84,0.09-1.21-0.13
				c-0.58-0.34-1.03-0.88-1.25-1.52c-0.16-0.41-0.21-0.86-0.14-1.29c0.1-0.49,0.3-0.94,0.6-1.34c0.71-0.89,1.6-1.62,2.62-2.14
				c1.16-0.58,2.2-1.38,3.08-2.34c0.45-0.53,0.71-1.2,0.75-1.9c-0.03-0.74-0.31-1.44-0.79-2c-0.54-0.61-1.13-1.19-1.75-1.72
				c-0.7-0.58-1.28-1.29-1.7-2.1c-0.43-0.94-0.33-2.02,0.24-2.87c0.63-0.79,1.41-1.44,2.31-1.9c0.85-0.49,1.75-0.92,2.56-1.44
				c0.84-0.49,1.45-1.28,1.71-2.21c0.16-0.98-0.2-1.98-0.95-2.63c-0.79-0.76-1.62-1.48-2.49-2.14c-0.96-0.71-1.74-1.63-2.3-2.69
				c-0.5-1.19-0.42-2.55,0.22-3.68c0.61-1.11,1.44-2.09,2.43-2.87c0.96-0.8,2-1.44,2.87-2.26c0.94-0.74,1.68-1.7,2.14-2.8
				c0.37-1.13,0.21-2.38-0.45-3.38c-0.7-1.07-1.51-2.06-2.4-2.97c-1-0.96-1.74-2.16-2.16-3.49c-0.14-0.73-0.09-1.48,0.16-2.18
				c0.28-0.68,0.71-1.29,1.25-1.78c1.08-0.87,2.24-1.63,3.46-2.28c1.19-0.56,2.19-1.45,2.87-2.57c0.49-1.15,0.38-2.47-0.32-3.51
				c-0.7-1.1-1.49-2.13-2.37-3.09c-0.91-1.03-1.55-2.26-1.87-3.59c-0.14-0.7-0.09-1.43,0.16-2.1c0.28-0.66,0.75-1.22,1.35-1.61
				c1.17-0.6,2.47-0.91,3.79-0.91c1.2-0.01,2.4-0.15,3.56-0.43c1.08-0.27,1.95-1.08,2.28-2.14c0.33-1.06,0.3-2.26,0.6-3.43
				c0.28-1.24,1.09-2.29,2.21-2.87c2.16-1.15,4.53-0.82,6.57-0.76c1.01,0.05,2.01-0.05,2.99-0.3c0.92-0.28,1.78-0.73,2.53-1.34
				c1.4-1.24,2.7-2.57,3.91-3.99c1.13-1.33,2.55-2.39,4.14-3.12c1.45-0.59,3.02-0.82,4.57-0.66c2.51,0.23,4.81,1.51,6.32,3.52
				c0.97,1.26,1.59,2.74,1.81,4.31c0.07,0.54,0.07,1.08,0,1.62c0,0,0-0.56-0.2-1.6c-0.29-1.5-0.94-2.92-1.9-4.11
				c-1.49-1.9-3.71-3.09-6.12-3.28c-1.47-0.12-2.95,0.12-4.31,0.69c-1.51,0.72-2.85,1.75-3.92,3.03c-1.21,1.45-2.53,2.82-3.94,4.08
				c-0.8,0.65-1.73,1.14-2.72,1.44c-1.04,0.27-2.11,0.39-3.18,0.34c-2.1,0-4.31-0.32-6.25,0.72c-0.95,0.49-1.63,1.37-1.85,2.41
				c-0.27,1.06-0.24,2.26-0.62,3.46c-0.39,1.28-1.42,2.27-2.72,2.6c-1.22,0.31-2.47,0.47-3.72,0.49c-1.2-0.01-2.38,0.26-3.46,0.79
				c-0.47,0.31-0.83,0.76-1.05,1.28c-0.21,0.54-0.26,1.13-0.13,1.7c0.31,1.21,0.9,2.32,1.72,3.26c0.91,0.98,1.73,2.05,2.44,3.19
				c0.36,0.62,0.59,1.3,0.7,2.01c0.08,0.74-0.04,1.49-0.36,2.17c-0.73,1.24-1.8,2.24-3.09,2.87c-1.19,0.64-2.31,1.38-3.36,2.23
				c-0.46,0.39-0.82,0.88-1.06,1.44c-0.2,0.57-0.25,1.18-0.14,1.77c0.4,1.2,1.08,2.28,1.98,3.16c0.92,0.95,1.76,1.98,2.49,3.09
				c0.76,1.18,0.95,2.65,0.5,3.98c-0.51,1.22-1.32,2.3-2.36,3.12c-0.96,0.83-2.03,1.44-2.87,2.24c-0.91,0.71-1.68,1.6-2.26,2.6
				c-0.55,0.93-0.63,2.07-0.22,3.08c0.51,0.97,1.22,1.81,2.1,2.46c0.89,0.69,1.74,1.42,2.54,2.2c0.87,0.82,1.27,2.01,1.08,3.19
				c-0.29,1.09-1,2.03-1.97,2.6c-0.88,0.59-1.78,1.02-2.62,1.44c-0.83,0.4-1.56,0.98-2.14,1.7c-0.48,0.69-0.56,1.58-0.23,2.36
				c0.72,1.54,2.33,2.43,3.35,3.75c0.55,0.64,0.85,1.46,0.86,2.3c-0.05,0.79-0.35,1.54-0.86,2.14c-0.92,0.99-2.01,1.8-3.23,2.39
				c-0.98,0.49-1.85,1.17-2.56,2.01c-0.58,0.65-0.76,1.56-0.47,2.39c0.19,0.59,0.58,1.1,1.11,1.44c0.33,0.21,0.73,0.28,1.11,0.19
				C182.87,213.16,183.04,213.07,183.06,213.09z"/>
			<path class="st61" d="M148.68,195.29c0,0,0.16,0,0.45-0.11c0.4-0.2,0.69-0.57,0.78-1.01c0.17-0.71,0.1-1.45-0.2-2.11
				c-0.53-0.85-1.13-1.66-1.78-2.43c-0.38-0.5-0.63-1.1-0.72-1.72c-0.07-0.71,0.15-1.43,0.62-1.97c0.91-1.15,2.39-1.78,3.31-3.05
				c0.46-0.64,0.6-1.45,0.39-2.21c-0.27-0.82-0.71-1.58-1.29-2.23c-0.56-0.7-1.21-1.44-1.77-2.23c-0.66-0.84-1-1.88-0.99-2.95
				c0.11-1.14,0.75-2.16,1.72-2.76c0.96-0.6,2.03-1.01,3.15-1.21c1.14-0.2,2.26-0.29,3.36-0.55c1.08-0.19,2.08-0.69,2.87-1.44
				c0.73-0.89,1.04-2.04,0.86-3.18c-0.2-1.23-0.5-2.44-0.92-3.61c-0.47-1.26-0.7-2.59-0.66-3.94c0.09-1.48,0.98-2.8,2.33-3.43
				c2.59-1.32,5.62-0.72,7.89-2.24c0.54-0.35,0.97-0.85,1.24-1.44c0.22-0.61,0.26-1.28,0.1-1.91c-0.44-1.36-1.02-2.68-1.72-3.92
				c-0.35-0.71-0.56-1.47-0.62-2.26c-0.04-0.85,0.26-1.68,0.85-2.3c1.24-0.97,2.74-1.56,4.31-1.71c1.44-0.29,3.02-0.76,3.35-2.11
				c0.33-1.35-0.56-2.87-0.46-4.51c0.15-3.32,2.3-6.22,5.43-7.33c3.15-1.02,6.21,0.43,8.94-0.24c1.35-0.2,2.51-1.08,3.06-2.33
				c0.28-1.37,0.38-2.77,0.3-4.17c0.03-0.77,0.25-1.51,0.65-2.17c0.43-0.66,1.05-1.16,1.78-1.44c1.4-0.45,2.91-0.45,4.31,0
				c1.34,0.34,2.57,0.86,3.82,1.09c1.21,0.28,2.49,0.15,3.62-0.36c2.24-1.03,3.85-3.03,5.75-4.54c3.67-2.83,8.41-3.89,12.93-2.87
				c3.7,0.71,7.02,2.75,9.31,5.75c1.72,2.23,2.88,4.84,3.39,7.62c0.33,1.74,0.39,3.52,0.19,5.27c-0.06,0.61-0.18,1.22-0.36,1.81
				c0,0,0.11-0.63,0.2-1.83c0.14-1.74,0.04-3.49-0.32-5.2c-0.55-2.71-1.73-5.25-3.43-7.42c-5.25-6.56-14.77-7.74-21.46-2.64
				c-1.84,1.44-3.43,3.51-5.89,4.66c-1.25,0.57-2.65,0.73-3.99,0.45c-1.35-0.26-2.6-0.78-3.88-1.11c-1.24-0.4-2.58-0.4-3.82,0
				c-0.59,0.21-1.09,0.6-1.44,1.12c-0.32,0.56-0.5,1.19-0.52,1.84c0.08,1.45-0.03,2.9-0.34,4.31c-0.63,1.48-1.98,2.53-3.56,2.79
				c-3.08,0.72-6.11-0.72-8.88,0.24c-2.84,1.01-4.78,3.64-4.91,6.65c-0.01,0.75,0.09,1.49,0.29,2.21c0.25,0.79,0.3,1.64,0.14,2.46
				c-0.24,0.85-0.84,1.56-1.64,1.94c-0.73,0.33-1.49,0.57-2.27,0.72c-1.43,0.1-2.8,0.6-3.97,1.44c-0.44,0.48-0.68,1.12-0.65,1.77
				c0.06,0.69,0.25,1.36,0.56,1.98c0.72,1.3,1.31,2.66,1.77,4.07c0.18,0.78,0.12,1.59-0.16,2.34c-0.29,0.71-0.79,1.32-1.44,1.75
				c-1.26,0.73-2.66,1.18-4.11,1.29c-1.33,0.1-2.63,0.42-3.85,0.95c-1.13,0.53-1.88,1.63-1.97,2.87c-0.03,1.26,0.18,2.51,0.62,3.69
				c0.42,1.21,0.73,2.46,0.93,3.72c0.18,1.31-0.2,2.65-1.05,3.66c-0.89,0.88-2.04,1.46-3.28,1.67c-1.15,0.26-2.31,0.34-3.38,0.53
				c-1.04,0.17-2.05,0.54-2.95,1.09c-0.85,0.5-1.42,1.36-1.52,2.34c0,0.94,0.31,1.86,0.88,2.62c0.55,0.79,1.18,1.44,1.74,2.23
				c0.61,0.7,1.07,1.51,1.35,2.4c0.23,0.89,0.06,1.83-0.47,2.57c-1.05,1.37-2.54,1.97-3.38,3.02c-0.41,0.47-0.62,1.1-0.57,1.72
				c0.08,0.58,0.3,1.13,0.65,1.6c0.65,0.79,1.23,1.62,1.74,2.5c0.3,0.71,0.35,1.5,0.14,2.24c-0.11,0.48-0.45,0.87-0.91,1.03
				C149.08,195.28,148.88,195.33,148.68,195.29z"/>
			<path class="st61" d="M268.25,196.29c0.25,0.19,0.55,0.31,0.86,0.34c0.92-0.05,1.75-0.6,2.14-1.44c0.6-1.02,0.26-2.54,0.09-4.31
				c-0.07-0.95,0.06-1.9,0.37-2.8c0.37-0.94,0.68-1.9,0.93-2.87c0.28-1.04-0.04-2.15-0.83-2.87c-0.96-0.69-2.06-1.18-3.22-1.44
				c-1.36-0.26-2.63-0.88-3.68-1.8c-0.51-0.61-0.73-1.41-0.59-2.2c0.17-0.76,0.56-1.46,1.11-2.01c0.96-1.09,2.26-1.97,2.73-3.25
				c0.35-1.38-0.41-2.81-1.75-3.29c-1.28-0.73-2.87-0.86-4.47-1.57c-0.82-0.34-1.53-0.9-2.04-1.62c-0.5-0.75-0.76-1.64-0.73-2.54
				c0.1-1.7,0.59-3.36,1.44-4.84c0.76-1.34,1.3-2.8,1.6-4.31c0.16-1.45-0.37-2.89-1.44-3.89c-0.99-1.05-2.24-1.87-3.31-2.87
				c-1.1-0.97-1.89-2.25-2.26-3.68c-0.3-1.32-0.42-2.67-0.36-4.02c0.24-2.33,0.07-4.69-0.5-6.97c-0.62-1.82-1.71-3.44-3.15-4.71
				c-1.08-0.98-2.33-1.75-3.69-2.27c-1.18-0.41-2.41-0.67-3.66-0.75c0.33-0.03,0.66-0.03,0.99,0c0.94,0.05,1.87,0.23,2.76,0.53
				c3.36,1.15,6.03,3.76,7.26,7.1c0.63,2.34,0.84,4.77,0.62,7.19c-0.05,1.29,0.08,2.59,0.37,3.85c0.35,1.3,1.08,2.47,2.1,3.35
				c1.02,0.96,2.27,1.77,3.35,2.87c1.2,1.16,1.79,2.81,1.6,4.47c-0.42,3.33-3,5.88-2.97,9.1c-0.02,0.76,0.19,1.5,0.6,2.14
				c0.43,0.61,1.03,1.08,1.72,1.37c1.44,0.65,3.06,0.78,4.53,1.61c0.75,0.38,1.38,0.96,1.83,1.67c0.46,0.75,0.55,1.67,0.24,2.5
				c-0.74,1.32-1.71,2.5-2.87,3.46c-0.46,0.46-0.79,1.04-0.95,1.67c-0.11,0.59,0.05,1.2,0.43,1.67c0.96,0.81,2.11,1.37,3.35,1.62
				c1.25,0.29,2.42,0.85,3.43,1.64c0.47,0.43,0.8,0.98,0.96,1.6c0.14,0.59,0.14,1.2,0,1.78c-0.27,1.01-0.6,2-0.99,2.96
				c-0.32,0.84-0.46,1.73-0.4,2.63c0.1,1.67,0.45,3.29-0.27,4.45c-0.46,0.9-1.39,1.46-2.4,1.44
				C268.72,196.9,268.4,196.64,268.25,196.29z"/>
			<g class="st3">
				<polygon points="168.86,278.33 168.86,316.68 158.93,317.46 155.29,303.71 				"/>
			</g>
		</g>
		<g>
			<path class="st77" d="M236.06,167.54c0.96,4.03,1.8,8.09,3.8,11.6l0.3,0.52l-0.56,0.18c-2.74,0.89-5.51,1.69-8.34,2.31
				c2.63-1.23,5.31-2.27,8.03-3.23l-0.26,0.7c-1.1-1.82-1.82-3.84-2.29-5.88c-0.23-1.02-0.4-2.06-0.51-3.09
				C236.13,169.61,236.06,168.58,236.06,167.54z"/>
		</g>
		<g>
			<path class="st78" d="M210.3,151.97c0.88-1.33,2.12-2.42,3.54-3.21c1.42-0.8,3.04-1.29,4.71-1.36c1.66-0.05,3.38,0.35,4.79,1.26
				c1.41,0.89,2.47,2.23,3.04,3.71c-1.07-1.17-2.24-2.14-3.57-2.76c-1.32-0.61-2.76-0.88-4.21-0.82c-1.45,0.04-2.9,0.4-4.29,0.94
				C212.92,150.3,211.59,151.05,210.3,151.97z"/>
		</g>
		<g>
			<path class="st78" d="M240.33,153.18c0.93-1.24,2.34-2.14,3.89-2.57c1.55-0.45,3.23-0.42,4.79-0.01
				c1.56,0.43,3.02,1.26,4.14,2.42c1.12,1.15,1.9,2.61,2.15,4.13c-0.8-1.32-1.75-2.44-2.88-3.33c-1.13-0.87-2.41-1.52-3.77-1.88
				c-1.35-0.38-2.79-0.47-4.2-0.28C243.03,151.87,241.65,152.38,240.33,153.18z"/>
		</g>
		<g>
			<path class="st70" d="M240.75,166.26c0.33-1.25,1.04-2.45,2.11-3.31c1.05-0.89,2.51-1.33,3.9-1.22c0.69,0.08,1.36,0.21,2.01,0.48
				c0.64,0.25,1.28,0.69,1.7,1.3c0.44,0.61,0.57,1.38,0.49,2.06c-0.1,0.68-0.34,1.31-0.72,1.84c0.34-1.23,0.27-2.58-0.47-3.36
				c-0.38-0.37-0.83-0.69-1.4-0.85c-0.54-0.2-1.13-0.3-1.71-0.36c-1.15-0.1-2.3,0.19-3.31,0.81
				C242.36,164.29,241.47,165.19,240.75,166.26z"/>
		</g>
		<g>
			<path class="st70" d="M213.77,163.17c0.12-1.27,0.67-2.56,1.68-3.52c0.51-0.47,1.13-0.82,1.79-1.06
				c0.67-0.19,1.38-0.28,2.06-0.22c0.34,0.03,0.68,0.06,1.01,0.15c0.33,0.06,0.66,0.15,0.98,0.29c0.64,0.25,1.28,0.63,1.72,1.2
				c0.46,0.55,0.71,1.26,0.75,1.94c0.02,0.68-0.1,1.34-0.39,1.92c0.14-1.27-0.2-2.53-1-3.27c-0.4-0.37-0.89-0.64-1.45-0.8
				l-0.41-0.13l-0.43-0.08c-0.29-0.07-0.58-0.09-0.86-0.11c-1.16-0.12-2.28,0.17-3.23,0.83
				C215.08,161.01,214.31,162.01,213.77,163.17z"/>
		</g>
		<g>
			<path class="st68" d="M223.22,186.7c0.14,0.46,0.3,0.91,0.45,1.34c0.43,1.18,0.89,2.23,1.39,3.17c2.09,3.96,4.73,5.87,7.16,5.91
				c0.42,0.01,0.8-0.06,1.16-0.18c0,0,0,0,0,0c2.4-0.83,3.52-4.31,3.8-6.43c-0.44,0.05-0.88,0.07-1.33,0.07
				C230.61,190.64,224.85,188.08,223.22,186.7z"/>
			<path class="st69" d="M225.05,191.21c2.09,3.96,4.73,5.87,7.16,5.91c0.42,0.01,0.8-0.06,1.16-0.18c0,0,0,0,0,0
				C234,195.76,231.17,193.04,225.05,191.21z"/>
			<path class="st6" d="M223.22,186.7c0.14,0.46,0.3,0.91,0.45,1.34c2.49,2.39,8,5.2,12.18,2.54
				C230.61,190.64,224.85,188.08,223.22,186.7z"/>
		</g>
	</g>
	<g>
		<g>
			<path class="st38" d="M475.11,185.65H316.25c-7.7,0-13.95-6.24-13.95-13.95V67.74c0-7.7,6.24-13.94,13.94-13.94h158.86
				c7.7,0,13.95,6.24,13.95,13.95v103.96C489.06,179.41,482.81,185.65,475.11,185.65z"/>
			<path class="st39" d="M477.1,53.8H314.27c-6.61,0-11.96,5.23-11.96,11.67v5.25h186.75v-5.25C489.06,59.02,483.7,53.8,477.1,53.8z
				"/>
			<g>
				<path class="st6" d="M471.22,62c0,1.09-0.88,1.97-1.97,1.97c-1.09,0-1.98-0.88-1.98-1.97c0-1.09,0.88-1.98,1.98-1.98
					C470.34,60.02,471.22,60.9,471.22,62z"/>
				<path class="st6" d="M480.04,62c0,1.09-0.88,1.97-1.98,1.97s-1.98-0.88-1.98-1.97c0-1.09,0.89-1.98,1.98-1.98
					S480.04,60.9,480.04,62z"/>
				<path class="st6" d="M463.02,62c0,1.09-0.89,1.97-1.98,1.97c-1.09,0-1.98-0.88-1.98-1.97c0-1.09,0.88-1.98,1.98-1.98
					C462.13,60.02,463.02,60.9,463.02,62z"/>
			</g>
			<rect x="376.68" y="59.05" class="st79" width="46.69" height="8.95"/>
			<text transform="matrix(1 0 0 1 376.6818 64.9972)" class="st6 st80 st81">Calendar</text>
			<rect x="311.26" y="81.81" class="st40" width="169.24" height="93.38"/>
			<line class="st40" x1="311.26" y1="104.37" x2="480.11" y2="104.37"/>
			<line class="st40" x1="311.26" y1="127.72" x2="480.11" y2="127.72"/>
			<line class="st40" x1="311.26" y1="152.24" x2="480.11" y2="152.24"/>
			<line class="st40" x1="333.98" y1="81.81" x2="333.98" y2="174.79"/>
			<line class="st40" x1="359.24" y1="81.81" x2="359.24" y2="174.79"/>
			<line class="st40" x1="383.36" y1="81.81" x2="383.36" y2="174.79"/>
			<line class="st40" x1="407.89" y1="81.81" x2="407.89" y2="174.79"/>
			<line class="st40" x1="432.43" y1="81.81" x2="432.43" y2="174.79"/>
			<line class="st40" x1="456.6" y1="81.81" x2="456.6" y2="174.79"/>
			<rect x="383.23" y="103.98" class="st41" width="24.9" height="23.73"/>
			<path class="st39" d="M316.24,85.19h1.69v5.92h-1.12v-4.86h-1.22L316.24,85.19z"/>
			<path class="st39" d="M338.97,87.47h-1.1c0.03-0.64,0.23-1.14,0.6-1.51c0.37-0.37,0.85-0.55,1.43-0.55
				c0.36,0,0.68,0.08,0.95,0.23c0.27,0.15,0.49,0.37,0.66,0.66c0.17,0.29,0.25,0.58,0.25,0.87c0,0.35-0.1,0.73-0.3,1.13
				c-0.2,0.4-0.56,0.88-1.1,1.44l-0.66,0.7h2.11v1.04h-4.1v-0.54l1.83-1.87c0.44-0.45,0.74-0.81,0.88-1.08
				c0.15-0.27,0.22-0.52,0.22-0.74c0-0.23-0.08-0.42-0.23-0.57c-0.15-0.15-0.35-0.22-0.59-0.22c-0.24,0-0.44,0.09-0.6,0.27
				C339.07,86.91,338.98,87.16,338.97,87.47z"/>
			<path class="st39" d="M365.52,86.85h-1.08c0.06-0.44,0.21-0.79,0.47-1.06c0.36-0.37,0.81-0.56,1.36-0.56
				c0.49,0,0.89,0.16,1.22,0.46c0.33,0.31,0.49,0.68,0.49,1.1c0,0.26-0.07,0.5-0.21,0.72c-0.14,0.22-0.35,0.39-0.63,0.53
				c0.36,0.11,0.64,0.3,0.84,0.56c0.2,0.27,0.3,0.58,0.3,0.94c0,0.53-0.2,0.98-0.59,1.35c-0.39,0.37-0.89,0.55-1.5,0.55
				c-0.57,0-1.04-0.17-1.41-0.52c-0.36-0.35-0.56-0.82-0.6-1.42h1.11c0.05,0.31,0.16,0.53,0.32,0.68c0.17,0.15,0.37,0.22,0.63,0.22
				c0.26,0,0.48-0.09,0.65-0.25c0.17-0.17,0.26-0.38,0.26-0.62c0-0.27-0.12-0.5-0.35-0.68c-0.23-0.19-0.57-0.28-1.01-0.29v-0.97
				c0.27-0.02,0.47-0.06,0.61-0.13c0.13-0.06,0.24-0.15,0.31-0.26c0.07-0.11,0.11-0.23,0.11-0.35c0-0.16-0.06-0.3-0.17-0.4
				c-0.11-0.11-0.26-0.16-0.44-0.16c-0.16,0-0.31,0.05-0.44,0.15C365.66,86.57,365.57,86.69,365.52,86.85z"/>
			<path class="st39" d="M390.18,85.4h1.12v3.81h0.53v1.04h-0.53v1.22h-1.1v-1.22h-2.58v-1.04L390.18,85.4z M390.2,89.22v-1.98
				l-1.35,1.98H390.2z"/>
			<path class="st39" d="M413.43,85.59h2.77v1.04h-1.93l-0.24,1.07c0.07-0.02,0.13-0.03,0.2-0.04c0.06-0.01,0.13-0.01,0.19-0.01
				c0.54,0,0.98,0.18,1.34,0.55c0.36,0.37,0.53,0.83,0.53,1.41c0,0.58-0.2,1.06-0.59,1.46c-0.39,0.4-0.87,0.59-1.43,0.59
				c-0.5,0-0.94-0.14-1.3-0.43c-0.36-0.29-0.6-0.68-0.71-1.18h1.18c0.09,0.19,0.21,0.32,0.36,0.42c0.15,0.1,0.31,0.14,0.49,0.14
				c0.25,0,0.46-0.09,0.64-0.27c0.17-0.18,0.26-0.41,0.26-0.69c0-0.27-0.08-0.5-0.24-0.67c-0.16-0.17-0.36-0.26-0.59-0.26
				c-0.13,0-0.25,0.03-0.37,0.09c-0.12,0.06-0.24,0.15-0.35,0.28l-0.92-0.21L413.43,85.59z"/>
			<path class="st39" d="M439.59,85.62l0.96,0.48l-1.04,2.01c0.5,0,0.93,0.18,1.28,0.54c0.35,0.36,0.53,0.81,0.53,1.34
				c0,0.51-0.18,0.95-0.54,1.31c-0.36,0.36-0.8,0.54-1.31,0.54c-0.53,0-0.98-0.19-1.33-0.56c-0.36-0.37-0.53-0.8-0.53-1.28
				c0-0.18,0.03-0.37,0.08-0.55c0.05-0.18,0.18-0.47,0.38-0.85L439.59,85.62z M439.44,89.18c-0.21,0-0.39,0.08-0.53,0.23
				c-0.14,0.15-0.21,0.34-0.21,0.57c0,0.23,0.07,0.42,0.22,0.57c0.15,0.16,0.32,0.23,0.52,0.23c0.21,0,0.39-0.08,0.54-0.23
				c0.15-0.15,0.22-0.35,0.22-0.58c0-0.23-0.07-0.42-0.22-0.57C439.85,89.26,439.66,89.18,439.44,89.18z"/>
			<path class="st39" d="M460.8,85.51h3.88v0.59l-2.67,5.48l-0.95-0.46l2.22-4.55h-2.48V85.51z"/>
			<path class="st39" d="M318.95,110.33c0.27,0.17,0.48,0.39,0.62,0.66c0.15,0.27,0.22,0.56,0.22,0.88c0,0.34-0.09,0.66-0.26,0.95
				c-0.17,0.29-0.4,0.51-0.69,0.65c-0.29,0.15-0.65,0.22-1.1,0.22c-0.48,0-0.86-0.07-1.14-0.21c-0.28-0.14-0.51-0.35-0.68-0.64
				c-0.17-0.29-0.25-0.61-0.25-0.97c0-0.31,0.07-0.6,0.2-0.85c0.14-0.26,0.34-0.49,0.61-0.69c-0.18-0.18-0.31-0.37-0.4-0.57
				c-0.09-0.2-0.14-0.41-0.14-0.64c0-0.31,0.08-0.59,0.22-0.84c0.15-0.25,0.36-0.45,0.63-0.59c0.27-0.14,0.58-0.21,0.93-0.21
				c0.34,0,0.65,0.07,0.91,0.21c0.26,0.14,0.47,0.34,0.62,0.6c0.15,0.26,0.23,0.54,0.23,0.84c0,0.21-0.04,0.41-0.12,0.59
				C319.3,109.9,319.16,110.11,318.95,110.33z M317.74,110.93c-0.27,0-0.5,0.08-0.68,0.25c-0.18,0.17-0.28,0.36-0.28,0.59
				c0,0.24,0.09,0.44,0.26,0.61c0.17,0.17,0.4,0.25,0.69,0.25c0.29,0,0.52-0.08,0.69-0.23c0.17-0.15,0.26-0.35,0.26-0.6
				s-0.09-0.45-0.27-0.61C318.23,111.02,318.01,110.93,317.74,110.93z M317.7,108.56c-0.19,0-0.34,0.06-0.46,0.18
				c-0.12,0.12-0.18,0.28-0.18,0.47c0,0.19,0.06,0.35,0.19,0.48c0.13,0.13,0.28,0.19,0.47,0.19c0.19,0,0.35-0.06,0.47-0.19
				c0.12-0.13,0.18-0.29,0.18-0.49c0-0.19-0.06-0.34-0.19-0.46C318.06,108.62,317.9,108.56,317.7,108.56z"/>
			<path class="st39" d="M339.89,113.83l-0.96-0.48l1.04-2.01c-0.5,0-0.93-0.18-1.28-0.54c-0.35-0.36-0.53-0.81-0.53-1.34
				c0-0.52,0.18-0.95,0.54-1.31c0.36-0.36,0.8-0.54,1.31-0.54c0.54,0,0.98,0.19,1.33,0.56c0.35,0.37,0.53,0.8,0.53,1.28
				c0,0.18-0.03,0.36-0.08,0.55c-0.06,0.18-0.18,0.47-0.38,0.85L339.89,113.83z M340.03,110.27c0.21,0,0.39-0.08,0.53-0.23
				c0.14-0.15,0.21-0.34,0.21-0.56c0-0.23-0.07-0.42-0.22-0.58c-0.15-0.16-0.32-0.23-0.52-0.23c-0.21,0-0.39,0.08-0.54,0.23
				c-0.15,0.15-0.23,0.34-0.23,0.58c0,0.23,0.07,0.42,0.22,0.57C339.63,110.2,339.81,110.27,340.03,110.27z"/>
			<rect x="333.82" y="152.23" class="st41" width="122.55" height="22.57"/>
			<g>
				<path class="st39" d="M364.99,107.8h1.69v5.92h-1.12v-4.86h-1.22L364.99,107.8z"/>
				<path class="st39" d="M370.54,107.65c0.43,0,0.8,0.11,1.12,0.32c0.31,0.21,0.55,0.54,0.72,0.97c0.17,0.44,0.26,1.04,0.26,1.82
					c0,0.79-0.09,1.4-0.26,1.83c-0.17,0.44-0.41,0.76-0.7,0.96s-0.66,0.31-1.11,0.31c-0.45,0-0.82-0.1-1.12-0.31
					c-0.3-0.21-0.54-0.52-0.71-0.94c-0.17-0.42-0.26-1.02-0.26-1.8c0-1.09,0.17-1.87,0.5-2.36
					C369.36,107.92,369.88,107.65,370.54,107.65z M370.57,108.72c-0.19,0-0.36,0.06-0.51,0.18c-0.15,0.12-0.26,0.33-0.34,0.63
					c-0.08,0.3-0.12,0.73-0.12,1.31c0,0.75,0.09,1.27,0.27,1.55c0.18,0.29,0.41,0.43,0.69,0.43c0.27,0,0.49-0.14,0.65-0.41
					c0.2-0.33,0.29-0.88,0.29-1.64c0-0.78-0.09-1.32-0.26-1.61C371.07,108.87,370.85,108.72,370.57,108.72z"/>
			</g>
			<g>
				<g>
					<path class="st6" d="M388.09,107.38h1.69v5.92h-1.12v-4.86h-1.22L388.09,107.38z"/>
					<path class="st6" d="M392.71,107.38h1.69v5.92h-1.12v-4.86h-1.22L392.71,107.38z"/>
				</g>
			</g>
			<g>
				<path class="st39" d="M412.42,107.54h1.69v5.92h-1.12v-4.86h-1.22L412.42,107.54z"/>
				<path class="st39" d="M417.12,109.45h-1.1c0.03-0.64,0.23-1.14,0.6-1.51c0.37-0.37,0.85-0.55,1.43-0.55
					c0.36,0,0.68,0.08,0.95,0.23c0.27,0.15,0.49,0.37,0.66,0.66c0.17,0.29,0.25,0.58,0.25,0.87c0,0.35-0.1,0.73-0.3,1.14
					c-0.2,0.41-0.57,0.88-1.1,1.44l-0.66,0.7h2.11v1.04h-4.1v-0.54l1.83-1.87c0.44-0.45,0.74-0.81,0.88-1.08
					c0.15-0.27,0.22-0.52,0.22-0.74c0-0.23-0.08-0.42-0.23-0.56c-0.15-0.15-0.35-0.22-0.59-0.22c-0.24,0-0.44,0.09-0.6,0.27
					C417.22,108.9,417.13,109.14,417.12,109.45z"/>
			</g>
			<g>
				<path class="st39" d="M437.84,107.55h1.69v5.92h-1.12v-4.86h-1.22L437.84,107.55z"/>
				<path class="st39" d="M442.66,109.01h-1.08c0.06-0.44,0.21-0.79,0.47-1.06c0.36-0.37,0.81-0.55,1.36-0.55
					c0.49,0,0.89,0.15,1.22,0.46c0.33,0.31,0.49,0.67,0.49,1.1c0,0.26-0.07,0.5-0.21,0.72c-0.14,0.22-0.35,0.39-0.63,0.53
					c0.36,0.11,0.64,0.29,0.84,0.56c0.2,0.27,0.3,0.58,0.3,0.94c0,0.53-0.2,0.98-0.59,1.35c-0.39,0.37-0.89,0.55-1.5,0.55
					c-0.58,0-1.04-0.17-1.4-0.52c-0.36-0.35-0.56-0.82-0.6-1.42h1.12c0.05,0.31,0.15,0.53,0.32,0.68c0.16,0.15,0.37,0.22,0.63,0.22
					c0.26,0,0.48-0.08,0.65-0.25c0.17-0.17,0.26-0.38,0.26-0.62c0-0.27-0.12-0.49-0.35-0.68c-0.23-0.18-0.57-0.28-1.01-0.29v-0.97
					c0.27-0.02,0.47-0.06,0.6-0.13c0.13-0.06,0.24-0.15,0.31-0.26c0.07-0.11,0.11-0.23,0.11-0.35c0-0.16-0.06-0.29-0.17-0.4
					c-0.11-0.11-0.26-0.16-0.44-0.16c-0.16,0-0.31,0.05-0.44,0.15C442.8,108.73,442.71,108.85,442.66,109.01z"/>
			</g>
			<g>
				<path class="st39" d="M461.61,107.75h1.69v5.92h-1.12v-4.86h-1.22L461.61,107.75z"/>
				<path class="st39" d="M467.61,107.6h1.12v3.81h0.53v1.04h-0.53v1.22h-1.1v-1.22h-2.58v-1.04L467.61,107.6z M467.63,111.41v-1.98
					l-1.35,1.98H467.63z"/>
			</g>
			<g>
				<path class="st39" d="M316.12,130.95h1.69v5.92h-1.12v-4.86h-1.22L316.12,130.95z"/>
				<path class="st39" d="M320.75,130.95h2.77v1.04h-1.93l-0.24,1.07c0.07-0.02,0.13-0.03,0.2-0.04c0.06-0.01,0.13-0.01,0.19-0.01
					c0.54,0,0.98,0.18,1.34,0.55c0.36,0.37,0.53,0.84,0.53,1.41c0,0.58-0.2,1.06-0.59,1.46c-0.39,0.4-0.87,0.59-1.43,0.59
					c-0.5,0-0.94-0.14-1.3-0.43c-0.36-0.29-0.6-0.68-0.71-1.18h1.18c0.09,0.18,0.21,0.33,0.36,0.42c0.15,0.09,0.31,0.14,0.49,0.14
					c0.25,0,0.46-0.09,0.64-0.27c0.17-0.18,0.26-0.41,0.26-0.69c0-0.27-0.08-0.5-0.24-0.67c-0.16-0.17-0.36-0.26-0.59-0.26
					c-0.12,0-0.24,0.03-0.36,0.09c-0.12,0.06-0.24,0.16-0.35,0.28l-0.92-0.21L320.75,130.95z"/>
			</g>
			<g>
				<path class="st39" d="M338.06,131.1h1.69v5.92h-1.12v-4.86h-1.22L338.06,131.1z"/>
				<path class="st39" d="M343.71,130.95l0.96,0.48l-1.04,2.01c0.5,0,0.93,0.18,1.28,0.54c0.35,0.36,0.53,0.81,0.53,1.34
					c0,0.51-0.18,0.95-0.54,1.31c-0.36,0.36-0.8,0.54-1.31,0.54c-0.53,0-0.98-0.19-1.33-0.56c-0.36-0.37-0.53-0.8-0.53-1.28
					c0-0.18,0.03-0.37,0.08-0.55c0.05-0.18,0.18-0.47,0.38-0.85L343.71,130.95z M343.57,134.51c-0.21,0-0.39,0.08-0.53,0.23
					c-0.14,0.15-0.21,0.34-0.21,0.57c0,0.23,0.07,0.42,0.22,0.57c0.15,0.16,0.32,0.23,0.52,0.23c0.21,0,0.39-0.08,0.54-0.23
					c0.15-0.15,0.22-0.35,0.22-0.58c0-0.23-0.07-0.42-0.22-0.57C343.98,134.59,343.79,134.51,343.57,134.51z"/>
			</g>
			<g>
				<path class="st39" d="M364.51,131h1.69v5.92h-1.12v-4.86h-1.22L364.51,131z"/>
				<path class="st39" d="M368.27,131h3.88v0.59l-2.67,5.48l-0.95-0.46l2.22-4.55h-2.48V131z"/>
			</g>
			<g>
				<path class="st39" d="M387.99,130.94h1.69v5.92h-1.12v-4.86h-1.22L387.99,130.94z"/>
				<path class="st39" d="M394.77,133.65c0.27,0.17,0.48,0.39,0.62,0.66c0.15,0.27,0.22,0.56,0.22,0.88c0,0.34-0.08,0.66-0.26,0.95
					c-0.17,0.29-0.4,0.51-0.69,0.66c-0.29,0.15-0.65,0.22-1.1,0.22c-0.48,0-0.86-0.07-1.14-0.21c-0.28-0.14-0.51-0.35-0.68-0.64
					c-0.17-0.29-0.25-0.61-0.25-0.97c0-0.31,0.07-0.6,0.2-0.85c0.14-0.26,0.34-0.48,0.61-0.69c-0.18-0.18-0.31-0.37-0.4-0.57
					c-0.09-0.2-0.13-0.42-0.13-0.64c0-0.31,0.07-0.59,0.22-0.84c0.15-0.25,0.36-0.45,0.63-0.59c0.27-0.14,0.58-0.21,0.93-0.21
					c0.35,0,0.65,0.07,0.91,0.21c0.26,0.14,0.47,0.35,0.62,0.61c0.15,0.26,0.23,0.54,0.23,0.84c0,0.21-0.04,0.41-0.12,0.59
					C395.12,133.22,394.98,133.42,394.77,133.65z M393.57,134.25c-0.27,0-0.5,0.08-0.68,0.25c-0.18,0.16-0.28,0.36-0.28,0.59
					c0,0.24,0.09,0.44,0.26,0.61c0.17,0.17,0.4,0.25,0.69,0.25c0.29,0,0.52-0.08,0.69-0.23c0.17-0.16,0.25-0.35,0.25-0.6
					c0-0.25-0.09-0.45-0.26-0.61C394.05,134.33,393.83,134.25,393.57,134.25z M393.52,131.87c-0.18,0-0.34,0.06-0.46,0.18
					c-0.12,0.12-0.18,0.28-0.18,0.47c0,0.19,0.06,0.35,0.19,0.48c0.13,0.13,0.28,0.19,0.47,0.19c0.19,0,0.35-0.06,0.47-0.19
					c0.12-0.13,0.18-0.29,0.18-0.49c0-0.19-0.06-0.34-0.18-0.46C393.89,131.93,393.73,131.87,393.52,131.87z"/>
			</g>
			<g>
				<path class="st39" d="M412.25,131.06h1.69v5.92h-1.12v-4.86h-1.22L412.25,131.06z"/>
				<path class="st39" d="M417.74,137.13l-0.96-0.48l1.04-2.01c-0.5,0-0.93-0.18-1.28-0.54c-0.35-0.36-0.53-0.81-0.53-1.34
					c0-0.52,0.18-0.95,0.54-1.31c0.36-0.36,0.8-0.54,1.31-0.54c0.53,0,0.98,0.19,1.33,0.56c0.36,0.37,0.53,0.8,0.53,1.28
					c0,0.18-0.03,0.36-0.08,0.55c-0.06,0.18-0.18,0.47-0.38,0.85L417.74,137.13z M417.88,133.57c0.21,0,0.39-0.08,0.53-0.23
					c0.14-0.15,0.21-0.34,0.21-0.57c0-0.23-0.07-0.42-0.22-0.58c-0.15-0.15-0.32-0.23-0.52-0.23c-0.21,0-0.39,0.08-0.54,0.23
					c-0.15,0.15-0.23,0.34-0.23,0.58c0,0.23,0.07,0.42,0.22,0.57C417.48,133.49,417.66,133.57,417.88,133.57z"/>
			</g>
			<g>
				<path class="st39" d="M438.05,133.07h-1.1c0.03-0.64,0.23-1.14,0.6-1.51c0.37-0.37,0.85-0.55,1.43-0.55
					c0.36,0,0.68,0.08,0.95,0.23c0.27,0.15,0.5,0.37,0.66,0.65c0.17,0.29,0.25,0.58,0.25,0.87c0,0.35-0.1,0.73-0.3,1.14
					c-0.2,0.4-0.57,0.88-1.1,1.44l-0.66,0.7h2.11v1.04h-4.1v-0.54l1.83-1.87c0.44-0.45,0.74-0.81,0.88-1.08
					c0.15-0.27,0.22-0.52,0.22-0.74c0-0.23-0.08-0.42-0.23-0.57c-0.15-0.15-0.35-0.22-0.59-0.22c-0.24,0-0.44,0.09-0.6,0.27
					C438.15,132.52,438.06,132.76,438.05,133.07z"/>
				<path class="st39" d="M443.52,131.01c0.43,0,0.8,0.11,1.12,0.32c0.31,0.21,0.55,0.54,0.72,0.97c0.17,0.44,0.26,1.04,0.26,1.82
					c0,0.79-0.09,1.4-0.26,1.84c-0.17,0.44-0.41,0.76-0.7,0.96c-0.29,0.21-0.66,0.31-1.11,0.31c-0.45,0-0.82-0.1-1.12-0.31
					c-0.3-0.21-0.54-0.52-0.71-0.94c-0.17-0.42-0.26-1.02-0.26-1.8c0-1.09,0.17-1.87,0.5-2.36
					C442.34,131.28,442.86,131.01,443.52,131.01z M443.55,132.08c-0.19,0-0.36,0.06-0.51,0.18c-0.15,0.12-0.26,0.33-0.34,0.63
					c-0.08,0.3-0.12,0.73-0.12,1.31c0,0.75,0.09,1.27,0.27,1.55c0.18,0.29,0.41,0.43,0.69,0.43c0.27,0,0.49-0.14,0.65-0.41
					c0.2-0.33,0.29-0.87,0.29-1.64c0-0.78-0.09-1.32-0.26-1.61C444.05,132.23,443.83,132.08,443.55,132.08z"/>
			</g>
			<g>
				<path class="st39" d="M461.83,132.86h-1.1c0.03-0.64,0.23-1.14,0.6-1.51c0.37-0.37,0.85-0.55,1.43-0.55
					c0.36,0,0.68,0.08,0.95,0.23c0.27,0.15,0.49,0.37,0.66,0.66c0.17,0.29,0.25,0.58,0.25,0.87c0,0.35-0.1,0.73-0.3,1.14
					c-0.2,0.4-0.57,0.88-1.1,1.44l-0.66,0.7h2.11v1.04h-4.1v-0.54l1.83-1.87c0.44-0.45,0.74-0.81,0.88-1.08
					c0.15-0.27,0.22-0.52,0.22-0.74c0-0.23-0.08-0.42-0.23-0.57c-0.15-0.15-0.35-0.22-0.59-0.22c-0.24,0-0.44,0.09-0.6,0.27
					C461.93,132.31,461.84,132.55,461.83,132.86z"/>
				<path class="st39" d="M466.37,130.95h1.69v5.92h-1.12v-4.86h-1.22L466.37,130.95z"/>
			</g>
			<g>
				<path class="st39" d="M316.67,157.13h-1.1c0.03-0.64,0.23-1.14,0.6-1.51c0.37-0.37,0.85-0.55,1.43-0.55
					c0.36,0,0.68,0.08,0.95,0.23c0.27,0.15,0.5,0.37,0.66,0.66c0.17,0.29,0.25,0.58,0.25,0.87c0,0.35-0.1,0.73-0.3,1.13
					c-0.2,0.4-0.57,0.88-1.1,1.44l-0.66,0.7h2.11v1.04h-4.1v-0.54l1.83-1.87c0.44-0.45,0.74-0.81,0.88-1.08s0.22-0.52,0.22-0.74
					c0-0.23-0.08-0.42-0.23-0.57c-0.15-0.15-0.35-0.22-0.59-0.22c-0.24,0-0.44,0.09-0.6,0.27
					C316.76,156.58,316.68,156.82,316.67,157.13z"/>
				<path class="st39" d="M321.28,157.13h-1.1c0.03-0.64,0.23-1.14,0.6-1.51c0.37-0.37,0.85-0.55,1.43-0.55
					c0.36,0,0.68,0.08,0.95,0.23c0.27,0.15,0.49,0.37,0.66,0.66c0.17,0.29,0.25,0.58,0.25,0.87c0,0.35-0.1,0.73-0.3,1.13
					c-0.2,0.4-0.57,0.88-1.1,1.44l-0.66,0.7h2.11v1.04h-4.1v-0.54l1.83-1.87c0.44-0.45,0.74-0.81,0.88-1.08
					c0.15-0.27,0.22-0.52,0.22-0.74c0-0.23-0.08-0.42-0.23-0.57c-0.15-0.15-0.35-0.22-0.59-0.22c-0.24,0-0.44,0.09-0.6,0.27
					C321.38,156.58,321.3,156.82,321.28,157.13z"/>
			</g>
			<g>
				<g>
					<path class="st6" d="M365.11,157.22h-1.1c0.03-0.64,0.23-1.14,0.6-1.51c0.37-0.37,0.85-0.55,1.43-0.55
						c0.36,0,0.68,0.08,0.95,0.23c0.28,0.15,0.5,0.37,0.66,0.66c0.17,0.29,0.25,0.58,0.25,0.87c0,0.35-0.1,0.73-0.3,1.13
						c-0.2,0.41-0.57,0.89-1.1,1.44l-0.67,0.7h2.11v1.04h-4.1v-0.54l1.83-1.87c0.44-0.45,0.74-0.81,0.88-1.08
						c0.15-0.27,0.22-0.52,0.22-0.74c0-0.23-0.08-0.42-0.23-0.57c-0.15-0.15-0.35-0.22-0.59-0.22c-0.24,0-0.44,0.09-0.6,0.27
						C365.2,156.66,365.12,156.91,365.11,157.22z"/>
					<path class="st6" d="M371.02,155.16h1.12v3.81h0.53v1.04h-0.53v1.22h-1.1v-1.22h-2.58v-1.04L371.02,155.16z M371.04,158.97
						v-1.98l-1.35,1.98H371.04z"/>
				</g>
			</g>
			<g>
				<g>
					<path class="st6" d="M388.86,157.21h-1.1c0.03-0.64,0.23-1.14,0.6-1.51c0.37-0.37,0.85-0.55,1.43-0.55
						c0.36,0,0.68,0.08,0.95,0.23c0.27,0.15,0.49,0.37,0.66,0.66c0.17,0.29,0.25,0.58,0.25,0.87c0,0.35-0.1,0.73-0.3,1.14
						c-0.2,0.41-0.56,0.88-1.1,1.44l-0.66,0.7h2.11v1.04h-4.1v-0.54l1.83-1.87c0.44-0.45,0.74-0.81,0.88-1.08
						c0.15-0.27,0.22-0.52,0.22-0.74c0-0.23-0.08-0.42-0.23-0.57c-0.15-0.15-0.35-0.22-0.59-0.22c-0.24,0-0.44,0.09-0.6,0.27
						C388.95,156.66,388.87,156.9,388.86,157.21z"/>
					<path class="st6" d="M393.41,155.3h2.77v1.04h-1.93l-0.24,1.07c0.07-0.02,0.13-0.03,0.2-0.04c0.06-0.01,0.13-0.01,0.18-0.01
						c0.54,0,0.98,0.18,1.34,0.55c0.35,0.37,0.53,0.84,0.53,1.41c0,0.58-0.2,1.06-0.59,1.46c-0.39,0.39-0.87,0.59-1.44,0.59
						c-0.5,0-0.94-0.14-1.3-0.43c-0.36-0.29-0.6-0.68-0.71-1.18h1.18c0.09,0.18,0.21,0.32,0.36,0.42c0.15,0.1,0.31,0.14,0.49,0.14
						c0.25,0,0.46-0.09,0.64-0.27c0.17-0.18,0.26-0.41,0.26-0.69c0-0.27-0.08-0.5-0.24-0.67c-0.16-0.18-0.36-0.26-0.59-0.26
						c-0.12,0-0.24,0.03-0.36,0.09c-0.12,0.06-0.24,0.16-0.35,0.28l-0.92-0.21L393.41,155.3z"/>
				</g>
			</g>
			<g>
				<g>
					<path class="st6" d="M413.73,157.08h-1.1c0.03-0.64,0.23-1.14,0.6-1.51c0.37-0.37,0.85-0.55,1.43-0.55
						c0.36,0,0.68,0.08,0.95,0.23c0.27,0.15,0.5,0.37,0.66,0.66c0.17,0.29,0.25,0.58,0.25,0.87c0,0.35-0.1,0.73-0.3,1.13
						c-0.2,0.41-0.57,0.89-1.1,1.44l-0.66,0.7h2.11v1.04h-4.1v-0.54l1.83-1.87c0.44-0.45,0.74-0.81,0.88-1.08
						c0.15-0.27,0.22-0.52,0.22-0.74c0-0.23-0.08-0.42-0.23-0.56c-0.15-0.15-0.35-0.22-0.59-0.22c-0.24,0-0.44,0.09-0.6,0.27
						C413.82,156.53,413.74,156.77,413.73,157.08z"/>
					<path class="st6" d="M419.3,155.02l0.96,0.48l-1.04,2.01c0.5,0,0.93,0.18,1.28,0.54c0.35,0.36,0.53,0.81,0.53,1.34
						c0,0.52-0.18,0.95-0.54,1.31c-0.36,0.36-0.8,0.54-1.31,0.54c-0.53,0-0.98-0.19-1.33-0.56c-0.35-0.37-0.53-0.8-0.53-1.28
						c0-0.18,0.03-0.37,0.08-0.55c0.06-0.18,0.18-0.47,0.38-0.85L419.3,155.02z M419.15,158.58c-0.21,0-0.39,0.08-0.53,0.23
						c-0.14,0.15-0.21,0.34-0.21,0.57c0,0.23,0.08,0.42,0.22,0.58c0.15,0.16,0.32,0.23,0.52,0.23c0.21,0,0.39-0.08,0.54-0.23
						c0.15-0.15,0.22-0.35,0.22-0.58c0-0.23-0.07-0.42-0.22-0.57C419.56,158.66,419.38,158.58,419.15,158.58z"/>
				</g>
			</g>
			<g>
				<g>
					<path class="st6" d="M438.51,157.16h-1.1c0.03-0.64,0.23-1.14,0.6-1.51c0.37-0.37,0.85-0.55,1.43-0.55
						c0.36,0,0.68,0.08,0.95,0.23c0.27,0.15,0.49,0.37,0.66,0.66c0.17,0.29,0.25,0.58,0.25,0.87c0,0.35-0.1,0.73-0.3,1.14
						c-0.2,0.41-0.56,0.88-1.1,1.44l-0.66,0.7h2.11v1.04h-4.1v-0.54l1.83-1.87c0.44-0.45,0.74-0.81,0.88-1.08
						c0.15-0.27,0.22-0.52,0.22-0.74c0-0.23-0.08-0.42-0.23-0.57c-0.15-0.15-0.35-0.22-0.59-0.22c-0.24,0-0.44,0.09-0.6,0.27
						C438.61,156.61,438.52,156.85,438.51,157.16z"/>
					<path class="st6" d="M442.19,155.25h3.88v0.59l-2.67,5.48l-0.95-0.46l2.22-4.55h-2.48V155.25z"/>
				</g>
			</g>
			<g>
				<path class="st39" d="M462.14,157.35h-1.1c0.03-0.64,0.23-1.14,0.6-1.51c0.37-0.37,0.85-0.55,1.43-0.55
					c0.36,0,0.68,0.08,0.95,0.23c0.27,0.15,0.49,0.37,0.66,0.66c0.17,0.29,0.25,0.58,0.25,0.87c0,0.35-0.1,0.73-0.3,1.13
					c-0.2,0.41-0.57,0.89-1.1,1.44l-0.66,0.7h2.11v1.04h-4.1v-0.54l1.83-1.87c0.44-0.45,0.74-0.81,0.88-1.08
					c0.15-0.27,0.22-0.52,0.22-0.74c0-0.23-0.08-0.42-0.23-0.57c-0.15-0.15-0.35-0.22-0.59-0.22c-0.24,0-0.44,0.09-0.6,0.27
					C462.23,156.8,462.15,157.04,462.14,157.35z"/>
				<path class="st39" d="M468.84,158.16c0.27,0.17,0.48,0.39,0.62,0.66c0.15,0.27,0.22,0.56,0.22,0.88c0,0.34-0.08,0.66-0.26,0.95
					c-0.17,0.29-0.4,0.51-0.69,0.66c-0.29,0.15-0.65,0.22-1.1,0.22c-0.48,0-0.86-0.07-1.14-0.21c-0.28-0.14-0.51-0.35-0.68-0.64
					c-0.17-0.29-0.25-0.61-0.25-0.97c0-0.31,0.07-0.6,0.2-0.85c0.14-0.26,0.34-0.49,0.61-0.69c-0.18-0.18-0.31-0.37-0.4-0.57
					c-0.09-0.2-0.14-0.42-0.14-0.64c0-0.31,0.08-0.59,0.22-0.84c0.15-0.25,0.36-0.45,0.63-0.59c0.27-0.14,0.58-0.21,0.93-0.21
					c0.35,0,0.65,0.07,0.91,0.21c0.26,0.14,0.47,0.34,0.62,0.6c0.15,0.26,0.23,0.54,0.23,0.84c0,0.21-0.04,0.41-0.12,0.59
					C469.19,157.73,469.05,157.93,468.84,158.16z M467.64,158.76c-0.27,0-0.5,0.08-0.68,0.25c-0.18,0.17-0.28,0.36-0.28,0.59
					c0,0.24,0.09,0.44,0.26,0.6c0.17,0.17,0.4,0.25,0.69,0.25c0.29,0,0.52-0.08,0.69-0.23c0.17-0.15,0.26-0.35,0.26-0.6
					c0-0.24-0.09-0.45-0.26-0.61C468.12,158.84,467.9,158.76,467.64,158.76z M467.59,156.38c-0.19,0-0.34,0.06-0.46,0.18
					c-0.12,0.12-0.18,0.28-0.18,0.47c0,0.19,0.06,0.35,0.19,0.48c0.13,0.13,0.28,0.19,0.47,0.19c0.19,0,0.35-0.06,0.47-0.19
					c0.12-0.13,0.18-0.29,0.18-0.49c0-0.19-0.06-0.34-0.19-0.46C467.95,156.44,467.79,156.38,467.59,156.38z"/>
			</g>
			<g class="st42">
				<g>
					<line class="st39" x1="359.11" y1="127.53" x2="382.45" y2="104.75"/>
					<path class="st39" d="M359.11,127.53c1.55-2.3,3.29-4.41,5.09-6.45c1.79-2.05,3.68-4.01,5.62-5.91
						c1.95-1.9,3.95-3.74,6.05-5.48c2.08-1.75,4.24-3.44,6.58-4.93c-1.55,2.3-3.29,4.42-5.09,6.46c-1.79,2.05-3.68,4.01-5.63,5.91
						c-1.95,1.89-3.95,3.73-6.05,5.48C363.6,124.35,361.45,126.04,359.11,127.53z"/>
				</g>
				<g>
					<line class="st39" x1="359.3" y1="104.57" x2="382.26" y2="127.72"/>
					<path class="st39" d="M359.3,104.57c2.32,1.53,4.44,3.25,6.5,5.04c2.07,1.78,4.04,3.65,5.96,5.57c1.91,1.93,3.77,3.92,5.53,6
						c1.77,2.07,3.47,4.21,4.99,6.54c-2.32-1.53-4.44-3.25-6.5-5.04c-2.07-1.78-4.04-3.65-5.95-5.58c-1.91-1.93-3.77-3.92-5.53-6
						C362.51,109.03,360.81,106.89,359.3,104.57z"/>
				</g>
			</g>
			<g class="st42">
				<g>
					<line class="st39" x1="456.76" y1="152.03" x2="479.72" y2="128.11"/>
					<path class="st39" d="M456.76,152.03c1.51-2.38,3.2-4.58,4.97-6.72c1.76-2.14,3.61-4.19,5.52-6.19
						c1.91-1.99,3.89-3.93,5.95-5.77c2.06-1.85,4.18-3.64,6.51-5.24c-1.5,2.39-3.2,4.59-4.97,6.72c-1.76,2.14-3.61,4.19-5.52,6.19
						c-1.92,1.99-3.89,3.93-5.96,5.77C461.21,148.64,459.08,150.43,456.76,152.03z"/>
				</g>
				<g>
					<line class="st39" x1="456.95" y1="127.91" x2="479.53" y2="152.23"/>
					<path class="st39" d="M456.95,127.91c2.3,1.64,4.39,3.47,6.42,5.36c2.04,1.88,3.98,3.85,5.87,5.87
						c1.88,2.03,3.7,4.11,5.43,6.28c1.74,2.16,3.4,4.39,4.87,6.8c-2.3-1.64-4.4-3.46-6.43-5.35c-2.04-1.88-3.98-3.85-5.87-5.88
						c-1.88-2.03-3.7-4.11-5.42-6.29C460.08,132.55,458.42,130.32,456.95,127.91z"/>
				</g>
			</g>
		</g>
		<g>
			<path class="st38" d="M302.61,13.64c-21.95-3.75-42.8,10.92-46.57,32.77c-2.36,13.69,2.55,26.95,11.94,35.87
				c0.15,0.4,0.44,0.69,0.93,0.85c0.01,0.01,0.03,0.03,0.04,0.04l-8.42,20.26c-0.45,1.1,0.94,2.08,1.93,1.37l19.29-13.96
				c2.3,0.85,4.71,1.51,7.21,1.93c21.95,3.75,42.8-10.92,46.57-32.77C339.3,38.15,324.56,17.4,302.61,13.64z"/>
			<g class="st56">
				<path class="st39" d="M321.59,53.09c0,14.18-11.5,25.68-25.68,25.68c-14.18,0-25.68-11.5-25.68-25.68
					c0-14.18,11.5-25.68,25.68-25.68C310.09,27.42,321.59,38.91,321.59,53.09z"/>
				<path class="st6" d="M319.47,53.09c0,13.01-10.55,23.56-23.55,23.56c-13.01,0-23.56-10.55-23.56-23.56
					c0-13.01,10.55-23.55,23.56-23.55C308.92,29.54,319.47,40.09,319.47,53.09z"/>
				<g>
					<path class="st39" d="M298.35,37.99c0.21,2.82,0.29,5.63,0.38,8.45c0.05,2.82,0.09,5.63,0.06,8.45l0,0.45l-0.44,0
						c-2.11-0.01-4.22-0.05-6.33-0.13c-2.11-0.06-4.22-0.16-6.33-0.31c2.11-0.16,4.22-0.25,6.33-0.31c2.11-0.08,4.22-0.12,6.33-0.13
						l-0.44,0.44c-0.03-2.82,0.01-5.63,0.06-8.45C298.06,43.62,298.14,40.8,298.35,37.99z"/>
				</g>
			</g>
		</g>
	</g>
	<path class="st39" d="M403.17,167.43c-11.61,0.06-20.97,10.23-20.91,22.71c0.06,12.49,21.24,45.52,21.24,45.52
		s20.85-33.24,20.79-45.72C424.24,177.45,414.78,167.37,403.17,167.43z M403.34,200.54c-6.24,0.03-11.33-5.1-11.36-11.45
		c-0.03-6.35,5-11.53,11.25-11.56c6.24-0.03,11.33,5.1,11.36,11.45C414.61,195.33,409.58,200.51,403.34,200.54z"/>
</g>
</svg>
