<?xml version="1.0" encoding="utf-8"?>
<!-- Generator: Adobe Illustrator 24.0.0, SVG Export Plug-In . SVG Version: 6.00 Build 0)  -->
<svg version="1.1" id="Layer_1" xmlns="http://www.w3.org/2000/svg" xmlns:xlink="http://www.w3.org/1999/xlink" x="0px" y="0px"
	 viewBox="0 0 500 500" style="enable-background:new 0 0 500 500;" xml:space="preserve">
<style type="text/css">
	.st0{fill:#3C4657;}
	.st1{fill:#313945;}
	.st2{fill:#231F20;}
	.st3{opacity:0.3;}
	.st4{fill:#D1D2D2;}
	.st5{fill:#C9EAFB;}
	.st6{fill:#FFFFFF;}
	
		.st7{fill:none;stroke:#FDF5F9;stroke-width:2.1703;stroke-linecap:round;stroke-linejoin:round;stroke-miterlimit:10;stroke-dasharray:8.6811;}
	.st8{fill:#72256F;}
	.st9{fill:#3C2415;}
	.st10{fill:#B56A57;}
	.st11{opacity:0.4;fill:#B56A57;}
	.st12{fill:#BE1E2D;}
	.st13{fill:#4C3B4B;}
	.st14{fill:#392A38;}
	.st15{fill:#F0645C;}
	.st16{fill:#603913;}
	.st17{fill:#F1F2F2;}
	.st18{fill:#D8792B;}
	.st19{fill:#8AB5CF;}
	.st20{fill:#C6E1F5;}
	.st21{fill:#F79731;}
	.st22{fill:#84A5BA;}
	.st23{fill:#658CA2;}
	.st24{fill:#9CC3DB;}
	.st25{fill:#72A749;}
	.st26{fill:#87C557;}
	.st27{fill:#C1DA73;}
	.st28{fill:#D77A40;}
	.st29{fill:#BFE068;}
	.st30{fill:#F7FAFB;}
	.st31{fill:#FBB040;}
	.st32{fill:#F5F5F6;}
	.st33{fill:url(#SVGID_1_);}
	.st34{fill:none;stroke:#F7FAFB;stroke-width:3.0845;stroke-miterlimit:10;}
	.st35{fill:#D4F0F5;}
	.st36{opacity:0.57;}
	.st37{fill:#92D5E4;}
	.st38{fill:#FFFFFF;stroke:#852170;stroke-width:0.9103;stroke-miterlimit:10;}
	.st39{fill:#852170;}
	.st40{fill:none;stroke:#852170;stroke-width:0.4552;stroke-miterlimit:10;}
	.st41{opacity:0.5;fill:#852170;}
	.st42{opacity:0.4;}
	.st43{clip-path:url(#SVGID_3_);}
	.st44{opacity:0.63;}
	.st45{fill:#B9E5EE;}
	.st46{fill:#FF9F66;}
	.st47{fill:#73ADDB;}
	.st48{fill:#2E214C;}
	.st49{fill:#43305F;}
	.st50{fill:#FF8A31;}
	.st51{fill:#549CCB;}
	.st52{fill:#FF9B3A;}
	.st53{fill:#F2763F;}
	.st54{fill:#4489B4;}
	.st55{fill:#F17D24;}
	.st56{opacity:0.74;}
	.st57{clip-path:url(#SVGID_5_);}
	.st58{fill:#E8505B;}
	.st59{fill:#263238;}
	.st60{opacity:0.2;}
	.st61{fill:#455A64;}
	.st62{fill:#ADD337;}
	.st63{opacity:0.69;fill:#FFFFFF;}
	.st64{fill:#FAFAFA;}
	.st65{fill:#FFBE9D;}
	.st66{fill:#CC8F75;}
	.st67{opacity:0.78;}
	.st68{fill:#7C2639;}
	.st69{fill:#E28088;}
	.st70{fill:#222228;}
	.st71{fill:#F0A2F4;}
	.st72{fill:#684D34;}
	.st73{fill:#604966;}
	.st74{fill:#3F1E47;}
	.st75{fill:#936754;}
	.st76{fill:#EB996E;}
	.st77{fill:#7F584A;}
	.st78{fill:#0A0705;}
	.st79{fill:#60381A;}
	.st80{fill:#7C5142;}
	.st81{opacity:0.6;}
	.st82{fill:#3D3D3D;}
	.st83{fill:#6FB56B;}
	.st84{fill:#97F794;}
	.st85{fill:#754925;}
	.st86{fill:#5E3A1E;}
	.st87{fill:#AFA15B;}
	.st88{fill:#FFEE8D;}
	.st89{fill:#B78876;}
	.st90{fill:#F5F5F5;}
	.st91{fill:#BF594F;}
	.st92{fill:#FF725E;}
	.st93{fill:#C96565;}
	.st94{fill:#B57662;}
	.st95{fill:#EA9898;}
	.st96{fill:#7C4A4A;}
	.st97{fill:#EBEBEB;}
	.st98{fill:#E0E0E0;}
	.st99{opacity:0.5;}
	.st100{fill:#995037;}
	.st101{fill:#773C2C;}
	.st102{fill:none;}
	.st103{fill:#E5BAAB;}
	.st104{fill:#D78776;}
	.st105{fill:#BC93B4;}
	.st106{fill:#B77153;}
	.st107{fill:#724940;}
	.st108{fill:#A56B65;}
	.st109{fill:#492F1B;}
	.st110{fill:#4B6EBC;}
	.st111{fill:#3D5C91;}
	.st112{fill:#A4CC64;}
	.st113{fill:#0086BF;}
	.st114{fill:none;stroke:#4E585D;stroke-miterlimit:10;}
	.st115{fill:#AF5858;}
	.st116{fill:#71A5BC;}
	.st117{fill:#AF7127;}
	.st118{fill:#4C3D2D;}
	.st119{fill:#AA6550;}
	.st120{fill:#93584A;}
</style>
<g>
	<g>
		<g>
			<path class="st25" d="M461.58,297.24c0,0,0.14,0.01,0.38,0.11c0.24,0.1,0.6,0.31,0.94,0.71c0.34,0.4,0.66,0.98,0.86,1.73
				c0.21,0.75,0.25,1.65,0.22,2.65c-0.09,2.02-0.74,4.43-1.49,7.22c-0.77,2.79-1.69,5.99-3.04,9.47l0.01-0.03
				c-0.06,0.57,0.01,1.31,0.51,1.62c0.25,0.14,0.57,0.15,0.89,0.11c0.32-0.04,0.65-0.09,0.98-0.15c0.66-0.12,1.35-0.25,2.06-0.28
				c0.69-0.02,1.5,0.04,2.08,0.59c0.54,0.56,0.78,1.33,0.75,2.11c-0.04,0.77-0.35,1.51-0.77,2.16c-0.82,1.33-2.08,2.33-3.21,3.45
				c-1.16,1.11-2.34,2.25-3.55,3.42c-0.61,0.58-1.22,1.17-1.84,1.77c-0.31,0.3-0.62,0.6-0.93,0.9c-0.16,0.16-0.32,0.29-0.42,0.46
				c-0.11,0.16-0.18,0.36-0.2,0.53c-0.04,0.37,0.38,0.52,0.8,0.51c0.44,0,0.89,0,1.33,0c0.9,0,1.81,0.03,2.72,0.13
				c0.91,0.11,1.84,0.29,2.71,0.7c0.43,0.21,0.84,0.5,1.15,0.89c0.31,0.39,0.5,0.89,0.51,1.39c0.03,1.02-0.44,1.94-0.98,2.74
				c-0.55,0.8-1.2,1.54-1.91,2.22c-1.41,1.37-2.99,2.58-4.65,3.72c-0.41,0.29-0.87,0.54-1.19,0.87c-0.16,0.17-0.28,0.35-0.29,0.55
				c-0.01,0.1,0.01,0.2,0.05,0.31c0.02,0.05,0.05,0.06,0.17,0.09c0.44,0.07,0.97,0.01,1.47-0.03c0.51-0.06,1.02-0.11,1.53-0.17
				c1.02-0.11,2.07-0.21,3.13-0.12c0.53,0.05,1.07,0.13,1.58,0.35c0.51,0.2,1,0.6,1.2,1.15c0.21,0.54,0.16,1.15-0.03,1.67
				c-0.08,0.27-0.22,0.5-0.33,0.76c-0.14,0.23-0.27,0.47-0.43,0.69c-0.61,0.9-1.37,1.68-2.19,2.4c-1.63,1.44-3.5,2.62-5.45,3.63
				c-1.96,1.02-4.02,1.86-6.14,2.59c-1.05,0.41-2.15,0.63-3.24,0.92c-1.09,0.28-2.19,0.56-3.28,0.84l-0.1,0.03l-0.07-0.07
				c-0.11-0.11-0.22-0.23-0.34-0.34c-0.8-0.82-1.59-1.63-2.39-2.44l-1.19-1.22c-0.38-0.42-0.73-0.87-1.09-1.3
				c-1.42-1.75-2.75-3.56-3.9-5.46c-1.15-1.9-2.14-3.89-2.81-5.97c-0.33-1.04-0.59-2.11-0.66-3.21c-0.02-0.55-0.03-1.1,0.1-1.65
				c0.12-0.55,0.41-1.09,0.91-1.42c0.51-0.32,1.14-0.31,1.67-0.19c0.54,0.13,1.03,0.36,1.5,0.61c0.94,0.52,1.77,1.17,2.59,1.81
				c0.41,0.32,0.81,0.64,1.22,0.95c0.2,0.15,0.41,0.31,0.62,0.44c0.2,0.13,0.44,0.28,0.61,0.29c0.06,0,0.01,0.01,0.06-0.01
				c0.04-0.04,0.08-0.07,0.11-0.11c0.07-0.08,0.11-0.17,0.13-0.27c0.04-0.2,0-0.43-0.08-0.66c-0.16-0.45-0.42-0.91-0.62-1.37
				c-0.85-1.84-1.6-3.7-2.13-5.61c-0.26-0.95-0.47-1.92-0.54-2.9c-0.06-0.97-0.03-2.01,0.53-2.88c0.28-0.42,0.7-0.76,1.18-0.92
				c0.48-0.16,0.99-0.16,1.46-0.1c0.96,0.13,1.84,0.5,2.67,0.89c0.83,0.41,1.62,0.87,2.39,1.35c0.38,0.24,0.76,0.49,1.13,0.71
				c0.18,0.1,0.38,0.18,0.54,0.15c0.16-0.01,0.28-0.14,0.33-0.32c0.13-0.38,0.01-0.78-0.12-1.2c-0.12-0.42-0.24-0.84-0.36-1.25
				c-0.24-0.83-0.47-1.65-0.71-2.47c-0.46-1.63-0.92-3.22-1.36-4.77c-0.41-1.55-1-3.05-1.07-4.62c-0.05-0.78,0.03-1.57,0.36-2.28
				c0.34-0.7,0.94-1.27,1.7-1.47c0.79-0.16,1.51,0.23,2.09,0.61c0.59,0.41,1.1,0.88,1.61,1.33c0.25,0.23,0.5,0.45,0.76,0.65
				c0.26,0.2,0.52,0.38,0.82,0.41c0.6,0.04,1.04-0.58,1.26-1.11l-0.01,0.03c0.54-3.67,1.3-6.89,1.99-9.68
				c0.71-2.79,1.32-5.19,2.21-6.99c0.86-1.81,2.03-2.97,3.03-3.31c0.49-0.18,0.9-0.18,1.16-0.14c0.26,0.04,0.38,0.1,0.38,0.1
				s-0.13-0.04-0.39-0.07c-0.26-0.03-0.66-0.02-1.14,0.16c-0.97,0.35-2.11,1.5-2.94,3.3c-0.87,1.79-1.46,4.19-2.15,6.98
				c-0.67,2.8-1.42,6.02-1.94,9.67l0,0.02l0,0.01c-0.13,0.31-0.3,0.59-0.53,0.84c-0.23,0.24-0.57,0.45-0.95,0.41
				c-0.37-0.03-0.68-0.25-0.94-0.45c-0.27-0.21-0.52-0.43-0.77-0.66c-0.51-0.45-1.02-0.91-1.59-1.3c-0.56-0.37-1.23-0.71-1.9-0.57
				c-0.64,0.17-1.22,0.7-1.52,1.34c-0.3,0.65-0.37,1.41-0.33,2.16c0.07,1.52,0.65,3,1.07,4.56c0.45,1.55,0.91,3.14,1.38,4.77
				c0.23,0.81,0.47,1.64,0.71,2.47c0.12,0.42,0.24,0.83,0.36,1.25c0.12,0.4,0.29,0.89,0.12,1.38c-0.06,0.24-0.29,0.5-0.58,0.53
				c-0.28,0.03-0.52-0.08-0.73-0.19c-0.4-0.23-0.77-0.48-1.15-0.71c-0.76-0.48-1.54-0.94-2.36-1.33c-0.82-0.39-1.68-0.74-2.58-0.86
				c-0.45-0.06-0.91-0.06-1.32,0.09c-0.42,0.14-0.77,0.42-1.02,0.79c-0.49,0.76-0.53,1.75-0.47,2.68c0.07,0.95,0.28,1.9,0.54,2.83
				c0.53,1.88,1.27,3.73,2.12,5.55c0.2,0.46,0.45,0.89,0.64,1.4c0.08,0.25,0.15,0.54,0.09,0.84c-0.03,0.15-0.1,0.3-0.2,0.41
				c-0.05,0.06-0.1,0.11-0.16,0.16c-0.05,0.05-0.23,0.12-0.3,0.09c-0.35-0.05-0.54-0.21-0.78-0.35c-0.22-0.14-0.43-0.3-0.64-0.45
				c-0.41-0.32-0.82-0.64-1.23-0.95c-0.82-0.64-1.64-1.27-2.54-1.77c-0.45-0.25-0.92-0.46-1.41-0.58c-0.49-0.11-1-0.11-1.4,0.15
				c-0.83,0.55-0.91,1.73-0.85,2.75c0.07,1.05,0.33,2.1,0.65,3.12c0.66,2.05,1.64,4.01,2.78,5.89c1.14,1.88,2.46,3.68,3.88,5.42
				c0.36,0.43,0.7,0.87,1.08,1.29l1.18,1.21c0.79,0.81,1.59,1.62,2.38,2.44c0.12,0.12,0.23,0.24,0.34,0.34l-0.17-0.05
				c1.1-0.28,2.19-0.56,3.28-0.84c1.08-0.29,2.19-0.52,3.22-0.92c2.1-0.72,4.15-1.56,6.09-2.57c1.94-1.01,3.78-2.16,5.38-3.58
				c0.8-0.7,1.54-1.47,2.14-2.33c0.15-0.21,0.27-0.44,0.41-0.66c0.1-0.23,0.24-0.46,0.31-0.7c0.18-0.47,0.21-0.98,0.04-1.43
				c-0.16-0.45-0.55-0.77-1.01-0.96c-0.46-0.19-0.96-0.28-1.47-0.32c-1.02-0.08-2.05,0.01-3.07,0.12c-0.51,0.06-1.02,0.11-1.53,0.17
				c-0.52,0.04-1.02,0.11-1.58,0.02c-0.07-0.02-0.14-0.03-0.23-0.09c-0.07-0.01-0.18-0.18-0.19-0.23c-0.05-0.13-0.07-0.28-0.07-0.44
				c0.02-0.32,0.19-0.58,0.38-0.77c0.39-0.39,0.84-0.62,1.24-0.91c1.65-1.13,3.22-2.33,4.61-3.68c0.7-0.67,1.33-1.39,1.87-2.17
				c0.53-0.77,0.96-1.65,0.93-2.54c-0.01-0.91-0.67-1.64-1.48-2.01c-0.81-0.39-1.72-0.57-2.61-0.68c-0.9-0.11-1.79-0.13-2.69-0.14
				c-0.45,0-0.89,0-1.34,0c-0.22,0-0.48-0.03-0.71-0.15c-0.25-0.11-0.41-0.42-0.38-0.68c0.03-0.51,0.4-0.92,0.71-1.19
				c0.31-0.3,0.63-0.6,0.94-0.9c0.62-0.59,1.24-1.18,1.84-1.76c1.22-1.16,2.4-2.3,3.56-3.41c1.14-1.13,2.38-2.11,3.17-3.39
				c0.4-0.63,0.69-1.32,0.74-2.03c0.04-0.7-0.2-1.43-0.67-1.91c-0.49-0.47-1.23-0.54-1.9-0.52c-0.69,0.03-1.36,0.15-2.02,0.27
				c-0.33,0.06-0.67,0.12-1,0.15c-0.33,0.03-0.71,0.04-1.03-0.15c-0.32-0.19-0.5-0.53-0.57-0.86c-0.07-0.33-0.08-0.66-0.04-0.99
				l0-0.01l0.01-0.01c1.35-3.45,2.29-6.65,3.07-9.43c0.77-2.79,1.43-5.18,1.54-7.18c0.04-1,0-1.89-0.19-2.62
				c-0.19-0.74-0.49-1.32-0.82-1.71C462.18,297.3,461.56,297.26,461.58,297.24z"/>
		</g>
		<g>
			<path class="st25" d="M459.59,304.79c0.01,0,0,0.06-0.03,0.18c-0.03,0.14-0.07,0.31-0.11,0.52c-0.11,0.49-0.27,1.16-0.47,2.01
				c-0.42,1.74-1.04,4.26-1.84,7.36c-1.58,6.21-3.84,14.77-6.38,24.21c-2.53,9.43-4.82,17.97-6.49,24.18
				c-0.82,3.07-1.48,5.57-1.95,7.33c-0.23,0.84-0.41,1.51-0.54,1.99c-0.06,0.21-0.11,0.38-0.15,0.52c-0.04,0.12-0.06,0.17-0.06,0.17
				c-0.01,0,0-0.06,0.03-0.18c0.03-0.14,0.07-0.31,0.11-0.52c0.11-0.49,0.27-1.16,0.47-2.01c0.42-1.74,1.04-4.26,1.84-7.36
				c1.58-6.21,3.84-14.77,6.38-24.21c2.53-9.43,4.82-17.96,6.49-24.18c0.82-3.08,1.48-5.57,1.95-7.33c0.23-0.84,0.41-1.51,0.54-1.99
				c0.06-0.21,0.11-0.38,0.15-0.52C459.57,304.85,459.59,304.79,459.59,304.79z"/>
		</g>
		<g>
			<path class="st25" d="M448.71,319.5c0.04-0.02,0.35,0.49,0.8,1.35c0.45,0.86,1.02,2.07,1.62,3.41c0.6,1.35,1.12,2.58,1.49,3.46
				c0.37,0.89,0.61,1.44,0.56,1.46c-0.04,0.02-0.36-0.49-0.8-1.35c-0.44-0.86-0.99-2.08-1.59-3.42c-0.56-1.28-1.07-2.44-1.52-3.45
				C448.89,320.08,448.66,319.52,448.71,319.5z"/>
		</g>
		<g>
			<path class="st25" d="M453.71,329.19c-0.05-0.09,2.29-1.4,5.22-2.94c2.93-1.54,5.34-2.71,5.39-2.62c0.05,0.09-2.29,1.4-5.22,2.94
				C456.17,328.1,453.76,329.28,453.71,329.19z"/>
		</g>
		<g>
			<path class="st25" d="M449.17,343.5c-0.02-0.11,2.32-0.51,5.15-1.18c2.84-0.67,5.1-1.36,5.13-1.26c0.02,0.05-0.53,0.28-1.44,0.58
				c-0.91,0.31-2.18,0.69-3.61,1.03c-1.43,0.34-2.73,0.57-3.68,0.7C449.77,343.5,449.18,343.54,449.17,343.5z"/>
		</g>
		<g>
			<path class="st25" d="M442.79,335.74c0.04-0.03,0.43,0.37,1.04,1.04c0.61,0.67,1.43,1.61,2.32,2.67
				c0.89,1.06,1.68,2.02,2.24,2.74c0.56,0.71,0.89,1.17,0.85,1.2c-0.04,0.03-0.43-0.37-1.04-1.04c-0.61-0.67-1.43-1.61-2.32-2.67
				c-0.89-1.06-1.68-2.02-2.24-2.74C443.08,336.23,442.75,335.77,442.79,335.74z"/>
		</g>
		<g>
			<path class="st25" d="M437.22,347.83c0.04-0.03,0.54,0.48,1.32,1.34c0.78,0.86,1.84,2.06,3,3.4c1.16,1.34,2.19,2.57,2.92,3.47
				c0.73,0.9,1.17,1.47,1.13,1.51c-0.04,0.03-0.54-0.48-1.32-1.34c-0.78-0.86-1.84-2.06-3-3.4c-1.15-1.34-2.18-2.57-2.92-3.47
				C437.61,348.43,437.18,347.86,437.22,347.83z"/>
		</g>
		<g>
			<path class="st25" d="M445.45,357.25c-0.01-0.05,0.72-0.24,1.9-0.53c1.18-0.29,2.81-0.69,4.59-1.17c1.79-0.48,3.4-0.94,4.56-1.28
				c1.17-0.34,1.89-0.54,1.91-0.49c0.02,0.05-0.68,0.33-1.83,0.73c-1.15,0.4-2.75,0.91-4.55,1.38c-1.79,0.48-3.44,0.84-4.63,1.07
				C446.2,357.2,445.46,357.3,445.45,357.25z"/>
		</g>
	</g>
	<g>
		<g>
			<g>
				<path class="st62" d="M125.98,431.6c0.76-0.38,1.51-0.78,2.26-1.2c21.03-20.41,21.43-52.04,16.01-79.53
					c-0.9-4.59-1.19-9.54-4.04-13.23c-2.85-3.69-8.42-5.63-12.24-3.02c-3.17,2.17-4.01,6.4-5.4,10c-1.84,4.8-5.05,9.05-9.15,12.09
					c-2.69,2-6.18,3.52-9.34,2.39c-4.34-1.55-5.7-6.97-6.41-11.57c-1.33-8.56-2.67-17.13-4-25.69c-0.72-4.59-1.46-9.28-3.59-13.41
					c-2.13-4.12-5.94-7.66-10.51-8.18c-4.57-0.51-9.56,2.88-9.75,7.52c-0.08,1.93,0.61,3.81,0.8,5.74c0.18,1.93-0.36,4.18-2.09,5
					c-1.74,0.84-3.79-0.17-5.38-1.29c-5.49-3.87-9.67-9.31-13.64-14.76s-7.87-11.06-12.99-15.41c-5.12-4.36-11.71-7.4-18.35-6.71
					c-6.63,0.69-12.98,5.89-13.59,12.61c-0.62,6.74,4.22,12.69,9.18,17.27c7.35,6.78,15.68,12.49,24.63,16.88
					c1.61,0.79,3.36,1.65,4.19,3.26c1.49,2.9-0.91,6.41-3.77,7.9c-3.24,1.69-7.01,1.94-10.52,2.94c-3.51,1-7.13,3.21-7.94,6.81
					c-1.12,5,3.6,9.28,7.98,11.87c8.78,5.2,18.43,8.86,28.4,10.78c3.58,0.69,7.31,1.2,10.41,3.13c3.11,1.93,5.42,5.79,4.3,9.29
					c-1.12,3.5-5.18,5.22-8.82,5.14c-3.64-0.08-7.12-1.49-10.7-2.21c-6.69-1.36-14.77,0.4-17.92,6.5c-2.07,4.01-1.5,9.04,0.54,13.09
					c2.03,4.05,5.35,7.29,8.8,10.22c12.03,10.22,26.52,17.67,41.98,20.37c14.38,2.51,27.3,1.97,40.05-4.3
					C125.56,431.78,125.77,431.69,125.98,431.6z"/>
			</g>
		</g>
		<g>
			<g>
				<g>
					<path class="st25" d="M125.79,431.69c-2.13-5.61-4.61-11.46-7.49-17.46c-6.33-13.29-14.48-27.29-23.5-41.63
						c-2.27-3.58-4.51-7.11-6.72-10.6c-2.21-3.47-4.41-6.92-6.76-10.15c-4.68-6.49-9.68-12.38-14.6-17.82
						c-4.92-5.44-9.78-10.43-14.37-15.06c-4.6-4.62-8.96-8.85-13.1-12.53c-8.26-7.4-15.62-12.56-20.82-15.9
						c-2.6-1.68-4.65-2.92-6.06-3.73c-0.68-0.39-1.2-0.69-1.6-0.92c-0.36-0.2-0.55-0.3-0.56-0.29c-0.01,0.01,0.17,0.14,0.52,0.36
						c0.39,0.25,0.9,0.58,1.56,0.99c1.37,0.87,3.4,2.15,5.97,3.87c5.13,3.42,12.41,8.65,20.6,16.08c4.1,3.7,8.43,7.94,13,12.58
						c4.56,4.65,9.4,9.64,14.29,15.09c4.89,5.44,9.85,11.32,14.5,17.78c2.34,3.22,4.51,6.64,6.73,10.12
						c2.21,3.48,4.45,7.02,6.71,10.59c9.02,14.33,17.16,28.28,23.52,41.52c2.9,6.02,5.42,11.89,7.57,17.51
						C125.36,431.93,125.57,431.8,125.79,431.69z"/>
				</g>
			</g>
		</g>
		<g>
			<g>
				<g>
					<path class="st25" d="M81.06,351.85c0.06,0,0.1-0.72,0.13-2.03c0.04-1.31,0.02-3.2-0.02-5.54c-0.09-4.67-0.44-11.13-0.85-18.24
						c-0.41-7.12-0.66-13.55-0.68-18.22c-0.02-2.33-0.01-4.22,0.01-5.52c0.01-1.31-0.01-2.03-0.07-2.03c-0.06,0-0.15,0.71-0.27,2.02
						c-0.12,1.3-0.22,3.19-0.28,5.53c-0.14,4.68,0.02,11.15,0.43,18.27c0.42,7.02,0.8,13.36,1.1,18.21c0.12,2.19,0.22,4.04,0.3,5.52
						C80.94,351.13,81,351.86,81.06,351.85z"/>
				</g>
			</g>
		</g>
		<g>
			<g>
				<g>
					<path class="st25" d="M20.27,350.39c0.01,0.06,0.86,0.02,2.4-0.1c1.54-0.11,3.76-0.28,6.51-0.41
						c5.5-0.29,13.11-0.43,21.51-0.22c8.41,0.23,16,0.76,21.49,1.31c2.75,0.25,4.96,0.52,6.49,0.69c1.53,0.18,2.38,0.25,2.39,0.19
						c0.01-0.06-0.83-0.24-2.35-0.53c-1.52-0.27-3.73-0.63-6.48-0.96c-5.48-0.7-13.1-1.33-21.53-1.56
						c-8.43-0.21-16.07,0.02-21.57,0.47c-2.76,0.2-4.98,0.47-6.51,0.68C21.1,350.18,20.26,350.33,20.27,350.39z"/>
				</g>
			</g>
		</g>
		<g>
			<g>
				<g>
					<path class="st25" d="M117.4,413.26c0.03,0.01,0.13-0.26,0.29-0.79c0.18-0.62,0.4-1.38,0.66-2.3c0.57-2,1.31-4.91,2.18-8.52
						c1.75-7.22,3.86-17.27,6.03-28.4c2.18-11.13,4.18-21.18,5.78-28.43c0.79-3.52,1.44-6.42,1.92-8.58c0.2-0.93,0.37-1.7,0.51-2.34
						c0.11-0.54,0.15-0.82,0.12-0.83c-0.03-0.01-0.13,0.26-0.29,0.79c-0.18,0.62-0.4,1.38-0.66,2.3c-0.57,2-1.31,4.91-2.19,8.52
						c-1.75,7.22-3.86,17.27-6.03,28.4c-2.17,11.12-4.18,21.18-5.78,28.43c-0.79,3.52-1.44,6.42-1.92,8.58
						c-0.2,0.93-0.37,1.71-0.51,2.34C117.41,412.97,117.37,413.25,117.4,413.26z"/>
				</g>
			</g>
		</g>
		<g>
			<g>
				<g>
					<path class="st25" d="M34.89,400.7c0,0.03,0.28,0.1,0.83,0.19c0.65,0.11,1.44,0.24,2.4,0.39c2.21,0.34,5.2,0.8,8.84,1.36
						c7.46,1.15,17.75,2.86,29.12,4.76c11.37,1.9,21.68,3.52,29.17,4.51c3.74,0.5,6.78,0.87,8.88,1.09
						c0.97,0.09,1.77,0.17,2.42,0.23c0.55,0.04,0.85,0.05,0.85,0.02c0-0.03-0.28-0.1-0.83-0.2c-0.64-0.1-1.44-0.23-2.4-0.39
						c-2.21-0.34-5.2-0.8-8.84-1.36c-7.46-1.15-17.75-2.86-29.12-4.76c-11.37-1.9-21.68-3.52-29.17-4.51
						c-3.74-0.5-6.78-0.87-8.88-1.09c-0.97-0.09-1.77-0.17-2.42-0.23C35.18,400.68,34.89,400.67,34.89,400.7z"/>
				</g>
			</g>
		</g>
	</g>
	<g>
		<path class="st29" d="M489.63,306.28c0,0-6.02-3.78-12.91,10.56c-6.9,14.35-9.44,22.58-9.44,22.58s-1.84,3.01-3.93,1.12
			c-2.09-1.89-5.01-7.34-8.45-6.26c-3.57,1.11-4.66,5.15-3.84,11.04c0.82,5.88,2.15,18.84,2.27,20.01c0.11,1.15-0.51,2.86-2.13,1.8
			s-11.08-11.11-15.58-6.34c-4.5,4.77,0.49,20.78,1,22.54s0.18,2.53-0.65,2.98c-0.83,0.46-3.69-3.22-6.5-5.97
			c-2.81-2.75-6.54-5.44-8.91-2.47c-2.37,2.97-2.86,15.08,9.1,34.46l6.13,8.62l10.59-0.83c22.55-3.17,31.56-11.29,32.33-15
			c0.77-3.72-3.68-4.87-7.59-5.27c-3.91-0.4-8.56-0.26-8.74-1.19c-0.18-0.93,0.2-1.67,1.88-2.4c1.68-0.73,17.19-7.12,17.98-13.63
			c0.8-6.51-12.97-7.37-14.83-7.94c-1.86-0.57-0.94-2.15,0.02-2.79c0.98-0.66,11.79-7.91,16.85-11.03c5.05-3.12,7.47-6.54,6.04-10
			c-1.38-3.34-7.43-2.11-10.22-2.5c-2.79-0.4-1.65-3.74-1.65-3.74s4.71-7.22,11.35-21.69c6.63-14.47-0.3-16.71-0.3-16.71"/>
		<g>
			<path class="st25" d="M483.27,319.41c-0.11,0.22-0.25,0.51-0.43,0.88c-0.38,0.8-0.92,1.94-1.61,3.4
				c-1.4,2.98-3.41,7.26-5.89,12.53c-5.03,10.58-11.96,25.15-19.61,41.24c-7.69,16.1-14.59,30.7-19.5,41.31
				c-0.32,0.69-0.63,1.37-0.93,2.02c0.1,0.04,0.19,0.08,0.28,0.13c0.31-0.65,0.62-1.32,0.95-2.01
				c5.03-10.58,11.96-25.15,19.61-41.25c7.68-16.09,14.59-30.69,19.49-41.3c2.45-5.3,4.42-9.61,5.76-12.59
				c0.66-1.47,1.17-2.63,1.53-3.44c0.16-0.38,0.29-0.68,0.39-0.9c0.09-0.2,0.13-0.31,0.12-0.31
				C483.42,319.11,483.37,319.21,483.27,319.41z"/>
		</g>
		<g>
			<path class="st25" d="M458.67,342.06c0.06-0.02,0.44,1,0.97,2.68c0.53,1.68,1.19,4.01,1.87,6.61c0.64,2.53,1.23,4.82,1.69,6.65
				c0.43,1.7,0.72,2.75,0.65,2.77c-0.06,0.02-0.45-1-0.96-2.68c-0.51-1.68-1.15-4.03-1.82-6.62c-0.66-2.52-1.26-4.81-1.74-6.63
				C458.88,343.13,458.61,342.08,458.67,342.06z"/>
		</g>
		<g>
			<path class="st25" d="M464.84,360.93c-0.04-0.12,4.71-1.71,10.61-3.56c5.9-1.85,10.71-3.24,10.75-3.12
				c0.04,0.12-4.71,1.71-10.61,3.56C469.69,359.65,464.87,361.05,464.84,360.93z"/>
		</g>
		<g>
			<path class="st25" d="M451.92,385.11c0-0.07,1.11-0.1,2.9-0.14c1.79-0.05,4.26-0.12,6.99-0.29c2.73-0.16,5.19-0.39,6.97-0.56
				c1.78-0.17,2.89-0.28,2.9-0.21c0.01,0.06-1.08,0.28-2.86,0.53c-1.78,0.25-4.24,0.53-6.98,0.7c-2.74,0.17-5.22,0.19-7.01,0.16
				C453.03,385.26,451.92,385.17,451.92,385.11z"/>
		</g>
		<g>
			<path class="st25" d="M442.59,369.28c0.05-0.03,0.63,0.81,1.53,2.21c0.89,1.4,2.1,3.34,3.41,5.5c1.31,2.16,2.48,4.13,3.3,5.57
				c0.82,1.44,1.31,2.34,1.25,2.38c-0.05,0.03-0.63-0.81-1.53-2.21c-0.89-1.4-2.1-3.34-3.41-5.5c-1.31-2.16-2.48-4.13-3.3-5.57
				C443.02,370.21,442.54,369.31,442.59,369.28z"/>
		</g>
	</g>
	
		<ellipse transform="matrix(0.7071 -0.7071 0.7071 0.7071 -42.7722 250.7635)" class="st63" cx="281.31" cy="177.01" rx="119.41" ry="119.41"/>
	<g id="freepik--Character--inject-2_2_">
		<g>
			<path class="st112" d="M324.59,202.37c0,0,2.19-4.79,2.6-5.83c1.11-2.87,8.3-22.08,6.56-24.98
				c-7.95-13.46-14.12-22.98-29.81-22.98l-27.72-0.18c0,0-26.26-5.16-44.77,52.39L324.59,202.37z"/>
			<path class="st59" d="M252.01,201.02c-0.38-1.3-0.6-2.64-0.66-4c-0.07-3.24,1.24-6.36,3.63-8.63c1.35-1.37,2.8-2.55,3.97-3.79
				c1.07-1.08,1.92-2.35,2.49-3.74c0.39-0.95,0.55-1.98,0.46-3c-0.02-0.37-0.12-0.74-0.29-1.07c0.19,1.32,0,2.67-0.53,3.9
				c-0.61,1.32-1.45,2.52-2.5,3.55c-1.16,1.19-2.61,2.35-3.99,3.75c-1.35,1.3-2.37,2.88-3,4.62c-0.5,1.41-0.71,2.91-0.63,4.4
				c0.05,1,0.25,1.99,0.59,2.94C251.64,200.33,251.8,200.69,252.01,201.02z"/>
			<path class="st59" d="M327.01,153.67c0,0-0.28-0.14-0.81-0.37c-0.53-0.23-1.35-0.52-2.41-0.84c-1.3-0.38-2.63-0.65-3.98-0.78
				c-1.81-0.19-3.63-0.03-5.37,0.48c-2.11,0.65-4,1.82-5.49,3.4c-1.69,1.85-2.84,4.09-3.34,6.5c-0.63,2.62-0.81,5.32-0.53,7.99
				c0.33,2.87,1.4,5.62,3.11,7.99c1.81,2.3,4.07,4.23,6.65,5.68c2.44,1.48,4.88,2.68,7.21,3.86l12.35,6.25l8.3,4.17l2.28,1.11
				c0.26,0.14,0.53,0.26,0.82,0.35c-0.25-0.17-0.5-0.32-0.77-0.45l-2.23-1.2l-8.3-4.32l-12.28-6.34c-2.31-1.19-4.77-2.41-7.17-3.88
				c-2.52-1.43-4.72-3.31-6.49-5.54c-1.65-2.31-2.68-4.99-2.99-7.78c-0.27-2.61-0.11-5.24,0.49-7.79c0.45-2.32,1.53-4.48,3.11-6.28
				c1.42-1.54,3.24-2.7,5.27-3.34c1.67-0.51,3.44-0.69,5.18-0.55c1.34,0.11,2.66,0.34,3.95,0.69c1.04,0.29,1.88,0.55,2.43,0.74
				C326.33,153.54,326.66,153.62,327.01,153.67z"/>
			<path class="st100" d="M258.35,132.96c1.18-1.39,2.03-3.01,2.48-4.75c0.19-0.56,0.21-1.16,0.06-1.73c-0.15-0.59-0.71-1-1.34-1
				c-0.62,0-1.04,0.61-1.38,1.12c-1.01,1.47-1.87,3.04-2.55,4.68c-0.2,0.45-0.3,0.93-0.3,1.42c0,0.5,0.28,0.95,0.72,1.21
				c0.52,0.22,1.12,0.14,1.57-0.2c0.42-0.34,0.77-0.75,1.04-1.21"/>
			<path class="st100" d="M255.68,131.85l2.74-5.53c0.31-0.53,0.5-1.11,0.57-1.72c0.05-0.62-0.3-1.21-0.88-1.48
				c-0.54-0.15-1.12,0-1.51,0.38c-0.39,0.37-0.7,0.81-0.92,1.3l-1.3,2.43c-0.38,0.64-0.67,1.34-0.85,2.06
				c-0.18,0.74-0.02,1.51,0.43,2.13c0.49,0.61,1.35,0.81,2.07,0.47"/>
			<path class="st106" d="M267.87,148.96c0,0,3.82-4.77,4.15-7.27c0.33-2.51-2.85-6.99-9.71-7.99c-2.5-0.25-4.91-1.05-7.05-2.32
				c-0.87-0.57-1.2-1.64-0.8-2.58c0.9-2.11,2.52-5.99,2.4-6.54c-0.32-1.35-1.23-1.32-3.6,2c-2.36,3.32-5.11,6.73-4.58,8.27
				c0.53,1.54,8.89,6.3,8.89,6.3l-2.28,3.55L267.87,148.96z"/>
			<path class="st112" d="M245.2,197.96l26.31-49.66l-16.94-9.14l-35.59,54.35c0,0-1.88,3.48-4.5,7.54h29.83"/>
			<path class="st59" d="M254.8,139.15c0,0,0.09,0.08,0.29,0.2l0.89,0.52l3.4,1.91l12.24,6.71l-0.09-0.3
				c-2.56,5-5.89,10.84-9.24,17.16c-4.99,9.34-9.33,17.9-12.34,24.14c-1.51,3.12-2.72,5.65-3.54,7.4c-0.38,0.85-0.69,1.52-0.92,2
				c-0.12,0.23-0.22,0.47-0.29,0.72c0.16-0.21,0.29-0.44,0.39-0.68c0.25-0.5,0.59-1.16,1.04-2l3.69-7.33
				c3.11-6.18,7.49-14.72,12.44-24.06c3.35-6.31,6.66-12.14,9.18-17.19l0.09-0.2l-0.2-0.11l-12.33-6.54l-3.47-1.81l-0.92-0.46
				C255.01,139.19,254.91,139.16,254.8,139.15z"/>
			<path class="st59" d="M324.59,202.37c2.27-3.56,3.76-7.53,4.39-11.67c-0.17,0-0.88,2.66-2.07,5.86S324.44,202.3,324.59,202.37z"
				/>
			<path class="st59" d="M266.64,129.16c-5.31,2.07-11.35-0.39-13.51-5.5c-1.35-3.21-0.88-6.86,1.24-9.65
				c-5.94-1.45-9.64-8.05-8.44-13.85c1.2-5.79,6.56-10.31,12.56-11.56c2.29-0.53,4.69-0.47,6.95,0.17c2.27,0.67,4.15,2.22,5.18,4.29
				"/>
			<path class="st113" d="M267.48,116.21c0,0.06,0.77,0.2,2.02,0.83c1.76,0.9,3.16,2.35,3.97,4.12c1.21,2.62,0.96,5.65-0.66,8.05
				c-0.46,0.68-1.01,1.3-1.66,1.82c-0.66,0.55-1.41,1-2.22,1.33c-3.49,1.46-7.56,0.56-10.05-2.21c-0.58-0.64-1.05-1.35-1.4-2.13
				c-0.34-0.74-0.57-1.52-0.67-2.33c-0.6-4.69,2.86-8.96,7.72-9.53c0.24-0.03,0.49-0.05,0.74-0.06
				C266.7,116.05,267.47,116.27,267.48,116.21c-0.18-0.08-0.37-0.13-0.56-0.16c-0.54-0.11-1.09-0.17-1.65-0.16
				c-3.59,0.01-6.84,2.05-8.3,5.22c-0.67,1.45-0.92,3.06-0.72,4.64c0.09,0.85,0.33,1.69,0.69,2.47c0.36,0.83,0.86,1.59,1.47,2.27
				c2.64,2.96,6.96,3.91,10.67,2.35c0.85-0.35,1.65-0.84,2.34-1.43c0.68-0.55,1.27-1.2,1.74-1.93c0.88-1.34,1.38-2.89,1.44-4.48
				c0.12-3.44-1.87-6.62-5.07-8.14c-0.5-0.24-1.02-0.43-1.57-0.55C267.83,116.25,267.66,116.22,267.48,116.21z"/>
			<path class="st59" d="M262.98,100.47c-5.62-0.31-9.92-4.95-9.6-10.36c0.19-3.2,1.98-6.1,4.81-7.79
				c-2.35-6.35,1.09-13.32,7.67-15.59c3.75-1.29,7.91-0.8,11.23,1.31c4.56-7.79,14.8-10.54,22.88-6.15
				c4.27,2.32,7.27,6.31,8.22,10.94c8.29-3.3,17.78,0.5,21.21,8.48c1.76,4.11,1.63,8.74-0.37,12.75
				c6.92,0.57,12.06,6.44,11.47,13.11c-0.59,6.67-6.68,11.62-13.61,11.05c1.79,5.65-1.5,11.62-7.36,13.35
				c-3.2,0.95-6.68,0.44-9.46-1.36c-3.54,5.5-11.03,7.19-16.73,3.78c-2.4-1.43-4.2-3.62-5.1-6.19"/>
			<path class="st106" d="M275.47,147.34c-0.22-4.87-0.49-9.27-0.49-9.27s-11.29-1.37-11.78-12.47s0.66-36.66,0.66-36.66l20.74-9.61
				l22.36,17.34l-3.5,50.95c-0.51,7.34-7.02,12.95-14.65,12.61l0,0C281.57,159.91,275.79,154.32,275.47,147.34z"/>
			<path class="st100" d="M274.98,138.08c5.35-0.13,10.55-1.77,14.94-4.72c0,0-3.52,8.08-14.75,7.44L274.98,138.08z"/>
			<path class="st59" d="M291.01,79.96c3.69,5.13,3.6,11.94-0.21,16.98c-1.68,2.12-4.21,3.85-6.98,3.75
				c-2.77-0.1-5.44-2.62-4.85-5.23c0.96,2.9-0.71,6-3.73,6.92c-3.01,0.92-6.23-0.69-7.19-3.59c-0.34-1.02-0.36-2.11-0.06-3.14
				c-0.22,1.2-0.65,2.35-1.3,3.4c-0.67,1.07-1.89,1.69-3.18,1.62c-1.73-0.22-2.74-2-3.11-3.67c-1.09-5.04,0.57-10.28,4.41-13.87
				c3.87-3.5,9.1-5.26,14.39-4.87c5.27,0.45,10.23,2.55,14.13,5.99"/>
			<path class="st59" d="M289.55,83.87c-1.46,3.15-2.25,6.54-2.32,9.99c-0.06,3.47,1.28,6.82,3.73,9.35c2.54,2.52,6.35,3.4,9.8,2.27
				c-0.92,3.01-0.4,6.26,1.43,8.86c1.93,2.47,5.72,3.65,8.53,2.16c2.55-1.34,3.65-4.32,4-7.09c1.56-12.46-7.65-23.78-20.58-25.28
				c-1.68-0.2-3.38-0.22-5.07-0.06"/>
			<path class="st106" d="M303.8,110.32c1.53-0.92,3.63-0.17,4.85,1.12c2.46,2.61,2.27,6.64-0.44,9.02
				c-1.66,1.46-3.98,2.01-6.16,1.45"/>
			<path class="st100" d="M304.15,118.58c0,0.06,0.51,0.13,1.31-0.08c1.07-0.27,1.95-1.01,2.36-2c0.21-0.58,0.19-1.21-0.06-1.78
				c-0.21-0.44-0.54-0.82-0.95-1.09c-0.72-0.45-1.25-0.44-1.27-0.38c-0.01,0.06,0.47,0.21,1.04,0.68c0.74,0.57,1.04,1.53,0.74,2.4
				c-0.37,0.85-1.08,1.52-1.98,1.85C304.58,118.43,304.14,118.5,304.15,118.58z"/>
			<path class="st113" d="M296.15,128.47c0.07,0,0-0.78,0.39-2.1c0.52-1.86,1.68-3.49,3.28-4.64c1.09-0.79,2.36-1.32,3.7-1.56
				c1.54-0.26,3.12-0.13,4.59,0.38c0.79,0.28,1.54,0.67,2.21,1.16c0.71,0.5,1.33,1.1,1.84,1.79c2.25,2.95,2.25,6.97,0,9.92
				c-0.51,0.69-1.13,1.29-1.84,1.79c-0.67,0.49-1.42,0.88-2.21,1.16c-4.6,1.61-9.68-0.68-11.34-5.11c-0.09-0.23-0.16-0.46-0.23-0.7
				C296.18,129.24,296.22,128.46,296.15,128.47c-0.02,0.18-0.02,0.37,0,0.55c0,0.54,0.07,1.07,0.2,1.59
				c0.46,1.94,1.62,3.67,3.26,4.89c1.13,0.85,2.45,1.43,3.86,1.7c1.62,0.3,3.3,0.18,4.85-0.36c0.84-0.28,1.63-0.69,2.34-1.21
				c0.76-0.52,1.42-1.16,1.96-1.89c2.42-3.13,2.42-7.41,0-10.54c-0.54-0.73-1.2-1.37-1.96-1.89c-0.71-0.52-1.5-0.92-2.34-1.21
				c-2.95-1.03-6.24-0.52-8.71,1.34c-1.64,1.22-2.79,2.94-3.26,4.89c-0.13,0.52-0.2,1.05-0.2,1.59
				C296.13,128.1,296.13,128.29,296.15,128.47z"/>
			<path class="st61" d="M264.47,78.8c-0.1,0.01-0.2,0.03-0.29,0.07c-0.27,0.1-0.52,0.26-0.73,0.45c-0.8,0.76-1.14,1.86-0.92,2.92
				c0.45,1.62,1.86,2.83,3.59,3.06c2.13,0.25,4.29-0.25,6.08-1.4l2.14-1.19l-2.34,0.74c-0.82,0.28-1.43,0.94-1.63,1.76
				c-0.23,0.81-0.11,1.67,0.33,2.39c0.47,0.72,1.22,1.23,2.07,1.44c0.86,0.21,1.77,0.19,2.62-0.06c1.91-0.72,3.5-2.04,4.52-3.76
				l1.58-2.08l-1.91,1.79c-1,1-1.4,2.43-1.04,3.78c0.28,1.23,1.13,2.26,2.3,2.81c1.94,0.89,4.24,0.62,5.9-0.69
				c1.08-0.84,1.87-1.97,2.28-3.25c0.11-0.33,0.19-0.66,0.25-1c0.01-0.12,0.01-0.24,0-0.36c-0.05,0-0.11,0.48-0.45,1.31
				c-0.46,1.18-1.24,2.22-2.27,3c-1.57,1.17-3.7,1.38-5.49,0.55c-1.04-0.5-1.78-1.43-2.02-2.52c-0.31-1.18,0.03-2.42,0.9-3.3
				l-0.4-0.33c-0.95,1.6-2.44,2.85-4.22,3.54c-1.49,0.53-3.17,0.07-4.15-1.14c-0.75-1.18-0.3-3,0.96-3.41l-0.21-0.45
				c-1.67,1.11-3.7,1.61-5.72,1.43c-1.6-0.18-2.93-1.27-3.38-2.76c-0.22-0.98,0.05-2,0.74-2.75
				C263.83,79.15,264.14,78.95,264.47,78.8z"/>
			<path class="st61" d="M292.13,96.65c0,0,0,0.07,0.13,0.19c0.15,0.18,0.31,0.34,0.49,0.5c0.67,0.59,1.46,1.04,2.31,1.33
				c1.34,0.45,2.79,0.47,4.15,0.06c1.81-0.55,3.31-1.79,4.15-3.43l-0.44-0.06c0.59,3.53,4.03,5.93,7.69,5.36s6.15-3.88,5.56-7.4
				c-0.23-1.38-0.92-2.66-1.97-3.63l-0.36,0.37c1.22,0.98,2.76,1.52,4.36,1.53c1.44,0.03,2.87-0.35,4.1-1.08
				c1.1-0.66,1.96-1.63,2.46-2.78c0.41-0.98,0.58-2.03,0.51-3.09c-0.09-1.5-0.69-2.92-1.7-4.06c-0.35-0.4-0.78-0.74-1.27-1
				c0,0,0.47,0.34,1.12,1.13c0.93,1.15,1.46,2.54,1.51,4c0.04,1-0.14,2-0.55,2.92c-0.48,1.06-1.3,1.95-2.32,2.55
				c-1.16,0.68-2.49,1.03-3.85,1c-1.47-0.02-2.89-0.52-4.02-1.42l-0.35,0.37c1.8,1.78,2.32,4.43,1.32,6.72
				c-1.24,2.52-4.09,3.91-6.93,3.39c-2.47-0.56-4.37-2.46-4.85-4.87l-0.11-0.7l-0.32,0.64c-0.76,1.54-2.14,2.72-3.82,3.28
				c-1.3,0.42-2.7,0.42-3.99,0c-0.84-0.25-1.62-0.65-2.3-1.18C292.33,96.87,292.13,96.63,292.13,96.65z"/>
			<path class="st61" d="M312.65,114.42c0.26,0.23,0.57,0.41,0.9,0.52c0.91,0.36,1.89,0.51,2.87,0.43c1.52-0.11,2.93-0.77,3.95-1.86
				c1.3-1.39,1.88-3.28,1.57-5.13l-0.48,0.2c1.02,1.31,2.36,2.36,3.89,3.07c1.18,0.54,2.48,0.8,3.78,0.77
				c1.22-0.03,2.41-0.35,3.47-0.92c1.87-0.93,3.12-2.71,3.31-4.73c0.12-1.33-0.24-2.65-1.04-3.75c-0.22-0.28-0.49-0.54-0.78-0.76
				c-0.1-0.09-0.21-0.15-0.33-0.2c0,0,0.4,0.34,0.93,1.08c0.69,1.07,0.99,2.34,0.85,3.6c-0.22,1.89-1.42,3.53-3.19,4.37
				c-2.11,1.08-4.63,1.11-6.77,0.09c-1.45-0.67-2.72-1.66-3.7-2.89l-0.67-0.84l0.2,1c0.3,1.7-0.21,3.43-1.38,4.74
				c-0.94,1.03-2.24,1.69-3.65,1.84c-0.93,0.11-1.88,0.01-2.77-0.27C313,114.57,312.67,114.39,312.65,114.42z"/>
			<path class="st61" d="M253.93,92.78c-0.25,0.58-0.33,1.22-0.23,1.85c0.25,3.17,2.79,5.72,6.07,6.1c0.64,0.13,1.31,0.08,1.92-0.14
				c0-0.09-0.74,0-1.86-0.23c-3-0.54-5.31-2.87-5.73-5.78C253.91,93.48,254.02,92.79,253.93,92.78z"/>
			<path class="st61" d="M247.54,103.24c-0.14,0.23-0.23,0.49-0.26,0.76c-0.12,0.74-0.05,1.49,0.22,2.19
				c0.39,1.11,1.33,1.95,2.51,2.23c0.69,0.14,1.42,0.07,2.07-0.18c0.75-0.27,1.34-0.83,1.65-1.54l-0.52-0.17
				c-0.09,0.33-0.14,0.66-0.13,1c0.06,1.58,1.08,2.97,2.6,3.56c0.67,0.23,1.39,0.27,2.07,0.09c0.58-0.16,1.11-0.44,1.56-0.83
				c0.66-0.54,1.1-1.28,1.25-2.1c0.09-0.57,0-0.89,0-0.88c0,0.01,0,0.31-0.18,0.84c-0.23,0.73-0.68,1.37-1.3,1.85
				c-0.88,0.73-2.1,0.95-3.19,0.57c-1.3-0.53-2.17-1.74-2.23-3.11c-0.01-0.28,0.03-0.55,0.11-0.82l-0.53-0.17
				c-0.57,1.11-1.85,1.7-3.11,1.44c-1.03-0.23-1.88-0.94-2.26-1.89c-0.27-0.63-0.4-1.31-0.36-2
				C247.54,103.52,247.64,103.25,247.54,103.24z"/>
			<g>
				<path class="st100" d="M274.32,114.3c0.38,1.01,0.5,2.06,0.46,3.12c-0.05,1.06-0.31,2.15-0.84,3.14l-0.49-1.16
					c0.74,0.25,1.46,0.55,2.17,0.9c0.71,0.35,1.4,0.74,2.06,1.26c-0.83,0.06-1.63-0.01-2.41-0.11c-0.78-0.11-1.55-0.27-2.3-0.47
					l-0.92-0.25l0.42-0.91c0.38-0.81,0.66-1.69,0.93-2.62C273.69,116.27,273.92,115.3,274.32,114.3z"/>
			</g>
			<path class="st70" d="M267.16,109.06c0.08,1.49,0.8,2.67,1.62,2.64c0.82-0.04,1.42-1.28,1.34-2.77c-0.08-1.49-0.8-2.67-1.62-2.64
				C267.68,106.32,267.08,107.56,267.16,109.06z"/>
			<path class="st70" d="M283.11,108.95c0.08,1.49,0.8,2.67,1.62,2.64c0.82-0.04,1.42-1.28,1.34-2.77c-0.08-1.49-0.8-2.67-1.62-2.64
				C283.64,106.22,283.04,107.46,283.11,108.95z"/>
			<g>
				<path class="st115" d="M280.86,128.65c0,0-7.44-3.04-10.05-0.04L280.86,128.65z"/>
				<path class="st115" d="M280.86,128.65c0,0-2.48,4.92-6.3,4.61c-4.45-0.37-3.76-4.65-3.76-4.65L280.86,128.65z"/>
				<path class="st6" d="M280.86,128.65l-10.05-0.04C270.81,128.61,273,135.39,280.86,128.65z"/>
			</g>
			<g>
				<path class="st101" d="M289.76,106.82c-0.77-0.63-1.55-1.16-2.37-1.58c-0.83-0.41-1.69-0.72-2.57-0.87
					c-0.88-0.16-1.78-0.15-2.66,0.05c-0.88,0.2-1.72,0.6-2.56,1.14c0.51-0.86,1.33-1.56,2.3-1.95c0.97-0.4,2.07-0.48,3.1-0.31
					C287.05,103.68,288.91,105.01,289.76,106.82z"/>
			</g>
			<g>
				<path class="st101" d="M273.87,106.15c-0.79-0.56-1.62-0.92-2.47-1.14c-0.86-0.21-1.73-0.28-2.6-0.19
					c-1.74,0.15-3.39,0.86-4.75,2.22c0.31-0.92,0.98-1.74,1.81-2.3c0.83-0.58,1.83-0.9,2.84-1c1.01-0.08,2.05,0.06,2.97,0.48
					C272.59,104.61,273.41,105.29,273.87,106.15z"/>
			</g>
		</g>
	</g>
	<g>
		<g>
			<path class="st38" d="M426.14,426.92H135.82c-7.7,0-13.95-6.24-13.95-13.95V216.19c0-7.7,6.24-13.94,13.94-13.94h290.33
				c7.7,0,13.95,6.24,13.95,13.95v196.79C440.09,420.68,433.85,426.92,426.14,426.92z"/>
			<path class="st39" d="M419.71,202.24H142.25c-11.25,0-20.38,8.9-20.38,19.89v8.95h318.22v-8.95
				C440.09,211.15,430.97,202.24,419.71,202.24z"/>
			<g>
				<path class="st6" d="M409.7,216.22c0,1.86-1.51,3.36-3.36,3.36c-1.86,0-3.37-1.51-3.37-3.36c0-1.86,1.51-3.37,3.37-3.37
					C408.19,212.85,409.7,214.36,409.7,216.22z"/>
				<path class="st6" d="M424.72,216.22c0,1.86-1.51,3.36-3.37,3.36c-1.86,0-3.37-1.51-3.37-3.36c0-1.86,1.51-3.37,3.37-3.37
					C423.21,212.85,424.72,214.36,424.72,216.22z"/>
				<path class="st6" d="M395.72,216.22c0,1.86-1.51,3.36-3.37,3.36c-1.86,0-3.37-1.51-3.37-3.36c0-1.86,1.51-3.37,3.37-3.37
					C394.21,212.85,395.72,214.36,395.72,216.22z"/>
			</g>
			<rect x="137.12" y="249.97" class="st40" width="288.39" height="159.11"/>
			<line class="st40" x1="137.12" y1="288.43" x2="424.84" y2="288.43"/>
			<line class="st40" x1="137.12" y1="328.2" x2="424.84" y2="328.2"/>
			<line class="st40" x1="137.12" y1="370" x2="424.84" y2="370"/>
			<line class="st40" x1="175.85" y1="249.97" x2="175.85" y2="408.42"/>
			<line class="st40" x1="218.88" y1="249.97" x2="218.88" y2="408.42"/>
			<line class="st40" x1="259.99" y1="249.97" x2="259.99" y2="408.42"/>
			<line class="st40" x1="301.78" y1="249.97" x2="301.78" y2="408.42"/>
			<line class="st40" x1="343.6" y1="249.97" x2="343.6" y2="408.42"/>
			<line class="st40" x1="384.79" y1="249.97" x2="384.79" y2="408.42"/>
			<rect x="259.76" y="287.76" class="st41" width="42.43" height="40.44"/>
			<path class="st39" d="M145.62,255.74h2.87v10.09h-1.91v-8.28h-2.08L145.62,255.74z"/>
			<path class="st39" d="M184.35,259.62h-1.87c0.05-1.09,0.39-1.94,1.03-2.57s1.45-0.94,2.44-0.94c0.61,0,1.15,0.13,1.62,0.39
				c0.47,0.26,0.84,0.63,1.12,1.12c0.28,0.49,0.42,0.98,0.42,1.49c0,0.6-0.17,1.24-0.51,1.93c-0.34,0.69-0.96,1.51-1.87,2.45
				l-1.13,1.19h3.59v1.78h-6.99v-0.92l3.12-3.18c0.75-0.76,1.26-1.38,1.5-1.84c0.25-0.46,0.37-0.88,0.37-1.26
				c0-0.39-0.13-0.71-0.39-0.96c-0.26-0.25-0.59-0.38-1-0.38c-0.41,0-0.75,0.15-1.03,0.46
				C184.51,258.67,184.37,259.09,184.35,259.62z"/>
			<path class="st39" d="M229.59,258.57h-1.85c0.1-0.75,0.36-1.35,0.8-1.8c0.61-0.63,1.38-0.95,2.31-0.95
				c0.83,0,1.52,0.26,2.08,0.79c0.56,0.53,0.84,1.15,0.84,1.87c0,0.45-0.12,0.86-0.37,1.23c-0.25,0.37-0.6,0.67-1.07,0.9
				c0.61,0.18,1.09,0.5,1.44,0.96c0.34,0.46,0.52,0.99,0.52,1.61c0,0.9-0.33,1.67-1,2.3c-0.67,0.63-1.52,0.94-2.55,0.94
				c-0.98,0-1.78-0.3-2.39-0.89c-0.62-0.59-0.95-1.4-1.01-2.42h1.9c0.08,0.52,0.26,0.91,0.55,1.16c0.28,0.25,0.64,0.38,1.07,0.38
				c0.45,0,0.82-0.14,1.11-0.43c0.3-0.29,0.44-0.64,0.44-1.06c0-0.46-0.2-0.84-0.6-1.16c-0.4-0.32-0.97-0.48-1.72-0.49v-1.65
				c0.46-0.04,0.81-0.11,1.03-0.22c0.23-0.11,0.4-0.25,0.53-0.44c0.12-0.19,0.19-0.39,0.19-0.59c0-0.28-0.09-0.5-0.29-0.68
				c-0.19-0.18-0.44-0.27-0.75-0.27c-0.27,0-0.52,0.08-0.75,0.25C229.82,258.08,229.67,258.3,229.59,258.57z"/>
			<path class="st39" d="M271.61,256.1h1.91v6.5h0.9v1.78h-0.9v2.07h-1.88v-2.07h-4.4v-1.78L271.61,256.1z M271.64,262.6v-3.38
				l-2.3,3.38H271.64z"/>
			<path class="st39" d="M311.23,256.42h4.72v1.78h-3.29l-0.41,1.83c0.12-0.03,0.23-0.06,0.34-0.07c0.11-0.02,0.21-0.02,0.32-0.02
				c0.91,0,1.67,0.31,2.28,0.94c0.61,0.62,0.91,1.42,0.91,2.4c0,0.98-0.33,1.81-1,2.48c-0.67,0.67-1.48,1.01-2.44,1.01
				c-0.86,0-1.6-0.24-2.22-0.73c-0.62-0.49-1.02-1.16-1.21-2.01h2.02c0.16,0.32,0.36,0.55,0.61,0.72c0.26,0.16,0.53,0.24,0.84,0.24
				c0.42,0,0.79-0.15,1.08-0.46c0.3-0.31,0.45-0.7,0.45-1.18c0-0.47-0.14-0.85-0.42-1.15c-0.28-0.3-0.61-0.45-1-0.45
				c-0.21,0-0.42,0.05-0.62,0.16c-0.2,0.1-0.4,0.26-0.6,0.47l-1.56-0.35L311.23,256.42z"/>
			<path class="st39" d="M355.79,256.48l1.64,0.82l-1.77,3.43c0.86,0,1.58,0.31,2.18,0.92c0.6,0.61,0.9,1.37,0.9,2.28
				c0,0.88-0.31,1.62-0.92,2.23c-0.62,0.61-1.36,0.92-2.23,0.92c-0.91,0-1.67-0.32-2.27-0.95c-0.61-0.63-0.91-1.36-0.91-2.18
				c0-0.31,0.05-0.62,0.14-0.94c0.09-0.31,0.31-0.8,0.65-1.45L355.79,256.48z M355.55,262.54c-0.36,0-0.66,0.13-0.9,0.39
				c-0.24,0.26-0.36,0.58-0.36,0.97c0,0.39,0.13,0.72,0.38,0.98c0.25,0.27,0.55,0.4,0.89,0.4c0.36,0,0.66-0.13,0.92-0.39
				c0.26-0.26,0.38-0.59,0.38-0.99c0-0.39-0.12-0.71-0.37-0.97C356.24,262.67,355.93,262.54,355.55,262.54z"/>
			<path class="st39" d="M391.93,256.29h6.62v1.01l-4.55,9.33l-1.62-0.79l3.79-7.75h-4.23V256.29z"/>
			<path class="st39" d="M150.22,298.58c0.46,0.29,0.81,0.67,1.06,1.13c0.25,0.46,0.37,0.96,0.37,1.49c0,0.58-0.14,1.12-0.43,1.61
				c-0.29,0.49-0.68,0.87-1.17,1.12c-0.49,0.25-1.11,0.37-1.87,0.37c-0.81,0-1.46-0.12-1.94-0.36c-0.48-0.24-0.86-0.6-1.15-1.09
				c-0.29-0.49-0.43-1.04-0.43-1.65c0-0.53,0.11-1.01,0.34-1.45c0.23-0.44,0.58-0.83,1.04-1.17c-0.3-0.31-0.53-0.63-0.68-0.98
				c-0.15-0.34-0.23-0.71-0.23-1.09c0-0.52,0.13-1,0.38-1.44c0.25-0.43,0.61-0.76,1.07-1.01c0.46-0.24,0.99-0.36,1.58-0.36
				c0.59,0,1.11,0.12,1.56,0.36c0.45,0.24,0.8,0.58,1.06,1.03c0.26,0.45,0.39,0.92,0.39,1.44c0,0.36-0.07,0.7-0.2,1
				C150.83,297.85,150.58,298.2,150.22,298.58z M148.17,299.6c-0.46,0-0.85,0.14-1.17,0.42c-0.31,0.28-0.47,0.62-0.47,1.01
				c0,0.41,0.15,0.75,0.44,1.03c0.3,0.28,0.69,0.42,1.17,0.42c0.49,0,0.88-0.13,1.17-0.4c0.29-0.26,0.44-0.6,0.44-1.02
				s-0.15-0.77-0.45-1.05C149,299.75,148.63,299.6,148.17,299.6z M148.1,295.56c-0.32,0-0.57,0.1-0.78,0.31
				c-0.2,0.21-0.31,0.47-0.31,0.8c0,0.32,0.11,0.6,0.32,0.81c0.22,0.22,0.48,0.33,0.8,0.33c0.32,0,0.59-0.11,0.8-0.32
				c0.21-0.21,0.31-0.49,0.31-0.83c0-0.32-0.1-0.59-0.32-0.79C148.72,295.66,148.44,295.56,148.1,295.56z"/>
			<path class="st39" d="M185.91,304.54l-1.63-0.81l1.77-3.43c-0.86,0-1.58-0.31-2.18-0.92c-0.6-0.61-0.9-1.37-0.9-2.28
				c0-0.88,0.31-1.63,0.92-2.24c0.62-0.61,1.36-0.91,2.23-0.91c0.91,0,1.67,0.32,2.27,0.95c0.6,0.63,0.91,1.36,0.91,2.18
				c0,0.31-0.05,0.62-0.14,0.93c-0.09,0.31-0.31,0.8-0.65,1.45L185.91,304.54z M186.15,298.48c0.36,0,0.66-0.13,0.9-0.39
				c0.24-0.26,0.36-0.58,0.36-0.96c0-0.39-0.13-0.72-0.38-0.99c-0.25-0.26-0.55-0.4-0.89-0.4c-0.36,0-0.66,0.13-0.92,0.39
				c-0.26,0.26-0.38,0.59-0.38,0.98c0,0.39,0.13,0.71,0.37,0.97C185.47,298.35,185.78,298.48,186.15,298.48z"/>
			<rect x="175.57" y="369.97" class="st41" width="208.83" height="38.45"/>
			<g>
				<path class="st39" d="M228.68,294.27h2.87v10.09h-1.91v-8.29h-2.08L228.68,294.27z"/>
				<path class="st39" d="M238.14,294.01c0.74,0,1.37,0.18,1.9,0.54c0.53,0.36,0.95,0.91,1.24,1.65c0.29,0.74,0.44,1.78,0.44,3.1
					c0,1.34-0.15,2.38-0.44,3.13c-0.3,0.75-0.69,1.29-1.19,1.64c-0.5,0.35-1.13,0.52-1.89,0.52c-0.76,0-1.4-0.18-1.91-0.53
					c-0.52-0.35-0.92-0.89-1.21-1.6c-0.29-0.72-0.44-1.74-0.44-3.07c0-1.85,0.29-3.19,0.86-4.03
					C236.12,294.47,237.01,294.01,238.14,294.01z M238.19,295.84c-0.32,0-0.61,0.1-0.86,0.31c-0.25,0.21-0.44,0.57-0.58,1.07
					c-0.13,0.51-0.2,1.25-0.2,2.23c0,1.28,0.15,2.16,0.45,2.64c0.3,0.49,0.7,0.73,1.18,0.73c0.47,0,0.84-0.23,1.11-0.69
					c0.33-0.56,0.5-1.49,0.5-2.8c0-1.33-0.15-2.24-0.45-2.74C239.05,296.09,238.66,295.84,238.19,295.84z"/>
			</g>
			<g>
				<g>
					<path class="st6" d="M268.05,293.54h2.87v10.09h-1.91v-8.28h-2.08L268.05,293.54z"/>
					<path class="st6" d="M275.91,293.54h2.87v10.09h-1.91v-8.28h-2.08L275.91,293.54z"/>
				</g>
			</g>
			<g>
				<path class="st39" d="M309.51,293.82h2.87v10.09h-1.91v-8.28h-2.08L309.51,293.82z"/>
				<path class="st39" d="M317.51,297.07h-1.87c0.05-1.09,0.39-1.94,1.02-2.57c0.63-0.62,1.45-0.93,2.44-0.93
					c0.61,0,1.15,0.13,1.62,0.39c0.47,0.26,0.84,0.63,1.12,1.12c0.28,0.49,0.42,0.98,0.42,1.48c0,0.6-0.17,1.24-0.51,1.93
					c-0.34,0.69-0.96,1.51-1.87,2.45l-1.13,1.19h3.59v1.78h-6.99v-0.92l3.12-3.18c0.76-0.77,1.26-1.38,1.51-1.84
					c0.25-0.46,0.37-0.88,0.37-1.26c0-0.39-0.13-0.71-0.39-0.96c-0.26-0.25-0.59-0.38-1-0.38c-0.41,0-0.75,0.15-1.03,0.46
					C317.68,296.13,317.53,296.55,317.51,297.07z"/>
			</g>
			<g>
				<path class="st39" d="M352.81,293.84h2.87v10.09h-1.9v-8.28h-2.08L352.81,293.84z"/>
				<path class="st39" d="M361.04,296.33h-1.84c0.1-0.75,0.36-1.35,0.8-1.8c0.61-0.63,1.38-0.95,2.31-0.95
					c0.83,0,1.52,0.26,2.08,0.79c0.56,0.53,0.84,1.15,0.84,1.87c0,0.45-0.12,0.86-0.37,1.23c-0.25,0.37-0.6,0.67-1.07,0.9
					c0.61,0.18,1.09,0.5,1.44,0.96c0.34,0.46,0.52,0.99,0.52,1.61c0,0.91-0.33,1.67-1,2.3c-0.67,0.63-1.52,0.94-2.55,0.94
					c-0.98,0-1.78-0.29-2.39-0.89c-0.62-0.59-0.95-1.4-1.02-2.42h1.9c0.08,0.52,0.26,0.91,0.54,1.16c0.28,0.25,0.64,0.38,1.07,0.38
					c0.45,0,0.82-0.14,1.12-0.43c0.29-0.29,0.44-0.64,0.44-1.06c0-0.46-0.2-0.84-0.6-1.16c-0.4-0.31-0.97-0.48-1.72-0.49v-1.65
					c0.46-0.03,0.81-0.11,1.03-0.21c0.23-0.11,0.4-0.25,0.53-0.44c0.13-0.19,0.19-0.39,0.19-0.6c0-0.27-0.1-0.5-0.29-0.68
					c-0.19-0.18-0.44-0.27-0.75-0.27c-0.27,0-0.52,0.08-0.75,0.25C361.27,295.85,361.12,296.06,361.04,296.33z"/>
			</g>
			<g>
				<path class="st39" d="M393.33,294.18h2.87v10.09h-1.91v-8.29h-2.08L393.33,294.18z"/>
				<path class="st39" d="M403.54,293.93h1.91v6.49h0.9v1.78h-0.9v2.07h-1.88v-2.07h-4.4v-1.78L403.54,293.93z M403.57,300.42v-3.38
					l-2.3,3.38H403.57z"/>
			</g>
			<g>
				<path class="st39" d="M145.4,333.71h2.87v10.09h-1.91v-8.28h-2.08L145.4,333.71z"/>
				<path class="st39" d="M153.31,333.71h4.73v1.78h-3.29l-0.41,1.83c0.11-0.03,0.23-0.06,0.34-0.07c0.11-0.02,0.21-0.03,0.32-0.03
					c0.91,0,1.67,0.31,2.28,0.94c0.61,0.62,0.91,1.42,0.91,2.4c0,0.98-0.33,1.81-1,2.49c-0.67,0.67-1.48,1.01-2.44,1.01
					c-0.86,0-1.6-0.24-2.22-0.73c-0.62-0.49-1.02-1.16-1.21-2.01h2.02c0.16,0.31,0.36,0.55,0.61,0.72c0.25,0.16,0.53,0.24,0.84,0.24
					c0.42,0,0.79-0.15,1.08-0.46c0.3-0.3,0.45-0.7,0.45-1.18c0-0.47-0.14-0.85-0.42-1.15c-0.28-0.3-0.61-0.45-1-0.45
					c-0.21,0-0.42,0.05-0.62,0.16c-0.2,0.11-0.4,0.26-0.6,0.47l-1.56-0.35L153.31,333.71z"/>
			</g>
			<g>
				<path class="st39" d="M182.8,333.97h2.87v10.09h-1.91v-8.29h-2.08L182.8,333.97z"/>
				<path class="st39" d="M192.43,333.72l1.64,0.82l-1.77,3.43c0.86,0,1.58,0.31,2.18,0.92c0.6,0.61,0.9,1.37,0.9,2.28
					c0,0.88-0.31,1.62-0.92,2.23c-0.61,0.61-1.36,0.92-2.23,0.92c-0.91,0-1.67-0.32-2.27-0.95c-0.61-0.63-0.91-1.36-0.91-2.18
					c0-0.31,0.05-0.63,0.14-0.94c0.09-0.31,0.31-0.8,0.65-1.45L192.43,333.72z M192.18,339.78c-0.36,0-0.66,0.13-0.9,0.39
					c-0.24,0.26-0.36,0.58-0.36,0.97c0,0.39,0.13,0.71,0.38,0.98c0.25,0.27,0.55,0.4,0.89,0.4c0.36,0,0.66-0.13,0.92-0.39
					c0.25-0.26,0.38-0.59,0.38-0.99c0-0.39-0.13-0.71-0.37-0.97C192.87,339.91,192.56,339.78,192.18,339.78z"/>
			</g>
			<g>
				<path class="st39" d="M227.86,333.8h2.87v10.09h-1.91v-8.29h-2.08L227.86,333.8z"/>
				<path class="st39" d="M234.26,333.8h6.62v1.01l-4.55,9.33l-1.62-0.79l3.79-7.75h-4.23V333.8z"/>
			</g>
			<g>
				<path class="st39" d="M267.87,333.69h2.87v10.09h-1.91v-8.28h-2.08L267.87,333.69z"/>
				<path class="st39" d="M279.43,338.31c0.46,0.29,0.81,0.67,1.06,1.13c0.25,0.46,0.37,0.96,0.37,1.49c0,0.58-0.14,1.12-0.44,1.61
					c-0.29,0.5-0.68,0.86-1.17,1.12c-0.49,0.25-1.11,0.37-1.87,0.37c-0.81,0-1.46-0.12-1.94-0.36c-0.48-0.24-0.86-0.6-1.15-1.09
					c-0.29-0.49-0.43-1.04-0.43-1.65c0-0.53,0.11-1.01,0.35-1.45c0.23-0.44,0.58-0.83,1.04-1.17c-0.3-0.31-0.53-0.63-0.68-0.98
					c-0.15-0.34-0.23-0.71-0.23-1.09c0-0.53,0.13-1,0.38-1.43c0.26-0.43,0.61-0.77,1.07-1.01c0.46-0.24,0.98-0.36,1.58-0.36
					c0.59,0,1.11,0.12,1.56,0.36c0.45,0.24,0.8,0.59,1.06,1.03c0.26,0.44,0.39,0.92,0.39,1.43c0,0.36-0.07,0.7-0.2,1
					C280.03,337.58,279.79,337.92,279.43,338.31z M277.38,339.33c-0.46,0-0.85,0.14-1.17,0.42c-0.31,0.28-0.47,0.62-0.47,1
					c0,0.41,0.15,0.75,0.45,1.03c0.3,0.28,0.69,0.42,1.17,0.42c0.49,0,0.88-0.13,1.17-0.39c0.29-0.26,0.43-0.6,0.43-1.02
					c0-0.42-0.15-0.76-0.45-1.04C278.21,339.47,277.83,339.33,277.38,339.33z M277.3,335.29c-0.31,0-0.57,0.1-0.78,0.31
					c-0.2,0.21-0.3,0.47-0.3,0.8c0,0.32,0.11,0.59,0.32,0.81c0.21,0.22,0.48,0.33,0.8,0.33c0.32,0,0.59-0.11,0.8-0.32
					c0.21-0.21,0.31-0.49,0.31-0.83c0-0.32-0.11-0.59-0.31-0.79C277.92,335.39,277.65,335.29,277.3,335.29z"/>
			</g>
			<g>
				<path class="st39" d="M309.22,333.9h2.87v10.09h-1.91v-8.28h-2.08L309.22,333.9z"/>
				<path class="st39" d="M318.56,344.24l-1.63-0.81l1.77-3.43c-0.86,0-1.58-0.31-2.18-0.92c-0.6-0.61-0.9-1.37-0.9-2.28
					c0-0.88,0.31-1.63,0.92-2.24c0.62-0.61,1.36-0.92,2.23-0.92c0.91,0,1.67,0.32,2.27,0.95c0.61,0.63,0.91,1.36,0.91,2.18
					c0,0.31-0.05,0.62-0.14,0.93c-0.09,0.31-0.31,0.8-0.65,1.45L318.56,344.24z M318.8,338.18c0.36,0,0.66-0.13,0.9-0.39
					c0.24-0.26,0.36-0.58,0.36-0.96c0-0.39-0.13-0.72-0.38-0.99c-0.25-0.26-0.55-0.4-0.89-0.4c-0.36,0-0.66,0.13-0.92,0.39
					c-0.25,0.26-0.38,0.59-0.38,0.98c0,0.39,0.13,0.71,0.37,0.97C318.12,338.04,318.43,338.18,318.8,338.18z"/>
			</g>
			<g>
				<path class="st39" d="M353.18,337.32h-1.87c0.05-1.09,0.39-1.94,1.03-2.57c0.63-0.62,1.45-0.93,2.44-0.93
					c0.61,0,1.15,0.13,1.62,0.39c0.47,0.26,0.84,0.63,1.13,1.12c0.28,0.49,0.42,0.98,0.42,1.49c0,0.6-0.17,1.25-0.51,1.93
					c-0.34,0.69-0.96,1.51-1.87,2.45l-1.13,1.19h3.6v1.78h-6.99v-0.92l3.12-3.18c0.75-0.76,1.25-1.38,1.51-1.84
					c0.25-0.46,0.37-0.88,0.37-1.26c0-0.39-0.13-0.71-0.39-0.96c-0.26-0.25-0.59-0.38-1-0.38c-0.41,0-0.75,0.15-1.03,0.46
					C353.34,336.38,353.2,336.8,353.18,337.32z"/>
				<path class="st39" d="M362.5,333.82c0.74,0,1.37,0.18,1.9,0.54c0.53,0.36,0.94,0.91,1.23,1.66c0.29,0.74,0.44,1.77,0.44,3.1
					c0,1.34-0.15,2.38-0.44,3.13c-0.3,0.74-0.69,1.29-1.19,1.64c-0.5,0.35-1.13,0.52-1.89,0.52c-0.76,0-1.4-0.18-1.91-0.53
					c-0.52-0.35-0.92-0.89-1.21-1.61c-0.29-0.72-0.44-1.74-0.44-3.06c0-1.85,0.29-3.19,0.86-4.02
					C360.48,334.28,361.37,333.82,362.5,333.82z M362.55,335.64c-0.32,0-0.61,0.1-0.86,0.31c-0.25,0.21-0.44,0.57-0.57,1.07
					c-0.13,0.51-0.2,1.25-0.2,2.23c0,1.28,0.15,2.16,0.45,2.64c0.3,0.49,0.7,0.73,1.18,0.73c0.46,0,0.83-0.23,1.11-0.69
					c0.33-0.56,0.5-1.49,0.5-2.8c0-1.33-0.15-2.24-0.45-2.74C363.41,335.9,363.02,335.64,362.55,335.64z"/>
			</g>
			<g>
				<path class="st39" d="M393.7,336.97h-1.87c0.05-1.09,0.39-1.94,1.02-2.57c0.63-0.62,1.44-0.94,2.44-0.94
					c0.61,0,1.15,0.13,1.62,0.39c0.47,0.26,0.84,0.63,1.12,1.12c0.28,0.49,0.42,0.98,0.42,1.48c0,0.6-0.17,1.25-0.51,1.93
					c-0.34,0.69-0.96,1.51-1.87,2.45l-1.13,1.19h3.59v1.78h-6.99v-0.92l3.12-3.18c0.75-0.76,1.26-1.38,1.51-1.84
					c0.25-0.46,0.37-0.88,0.37-1.26c0-0.39-0.13-0.71-0.39-0.96c-0.26-0.25-0.59-0.38-1-0.38c-0.41,0-0.75,0.15-1.03,0.46
					C393.87,336.02,393.72,336.44,393.7,336.97z"/>
				<path class="st39" d="M401.43,333.72h2.87v10.09h-1.91v-8.28h-2.08L401.43,333.72z"/>
			</g>
			<g>
				<path class="st39" d="M146.34,378.33h-1.87c0.05-1.09,0.39-1.94,1.03-2.57c0.64-0.62,1.45-0.94,2.44-0.94
					c0.61,0,1.15,0.13,1.62,0.39c0.47,0.26,0.84,0.63,1.13,1.12c0.28,0.49,0.42,0.98,0.42,1.49c0,0.6-0.17,1.24-0.51,1.93
					c-0.34,0.69-0.96,1.51-1.87,2.45l-1.13,1.19h3.59v1.78h-6.99v-0.92l3.12-3.18c0.76-0.76,1.26-1.38,1.51-1.84
					c0.25-0.46,0.37-0.88,0.37-1.26c0-0.39-0.13-0.71-0.39-0.96c-0.26-0.25-0.59-0.38-1-0.38c-0.41,0-0.75,0.15-1.03,0.46
					C146.51,377.39,146.36,377.8,146.34,378.33z"/>
				<path class="st39" d="M154.21,378.33h-1.87c0.05-1.09,0.39-1.94,1.03-2.57c0.63-0.62,1.44-0.94,2.44-0.94
					c0.61,0,1.15,0.13,1.62,0.39c0.47,0.26,0.84,0.63,1.12,1.12c0.28,0.49,0.42,0.98,0.42,1.49c0,0.6-0.17,1.24-0.51,1.93
					c-0.34,0.69-0.96,1.51-1.87,2.45l-1.13,1.19h3.6v1.78h-6.99v-0.92l3.12-3.18c0.75-0.76,1.26-1.38,1.5-1.84
					c0.25-0.46,0.37-0.88,0.37-1.26c0-0.39-0.13-0.71-0.39-0.96c-0.26-0.25-0.59-0.38-1-0.38c-0.41,0-0.75,0.15-1.03,0.46
					C154.37,377.39,154.23,377.8,154.21,378.33z"/>
			</g>
			<g>
				<g>
					<path class="st6" d="M228.88,378.47h-1.87c0.05-1.09,0.39-1.94,1.02-2.57c0.63-0.62,1.45-0.94,2.44-0.94
						c0.61,0,1.15,0.13,1.62,0.39c0.47,0.26,0.85,0.63,1.13,1.12c0.28,0.49,0.42,0.98,0.42,1.49c0,0.6-0.17,1.24-0.51,1.93
						c-0.34,0.69-0.96,1.51-1.87,2.45l-1.13,1.19h3.6v1.78h-6.99v-0.92l3.12-3.18c0.75-0.76,1.26-1.38,1.51-1.84
						c0.25-0.47,0.37-0.88,0.37-1.26c0-0.39-0.13-0.71-0.39-0.96c-0.26-0.25-0.59-0.38-1-0.38c-0.41,0-0.75,0.15-1.03,0.46
						C229.05,377.53,228.9,377.94,228.88,378.47z"/>
					<path class="st6" d="M238.96,374.97h1.91v6.49h0.9v1.78h-0.9v2.07h-1.88v-2.07h-4.4v-1.78L238.96,374.97z M238.99,381.46v-3.38
						l-2.3,3.38H238.99z"/>
				</g>
			</g>
			<g>
				<g>
					<path class="st6" d="M269.35,378.46h-1.87c0.05-1.09,0.39-1.94,1.03-2.57c0.63-0.62,1.44-0.94,2.44-0.94
						c0.61,0,1.15,0.13,1.62,0.39c0.47,0.26,0.84,0.63,1.12,1.12c0.28,0.49,0.42,0.98,0.42,1.48c0,0.6-0.17,1.25-0.51,1.94
						c-0.34,0.69-0.96,1.51-1.87,2.45l-1.13,1.19h3.59v1.78h-6.99v-0.92l3.12-3.18c0.75-0.76,1.26-1.38,1.5-1.84
						c0.25-0.46,0.37-0.88,0.37-1.26c0-0.39-0.13-0.71-0.39-0.96c-0.26-0.25-0.59-0.38-1-0.38c-0.41,0-0.75,0.15-1.03,0.46
						C269.51,377.51,269.37,377.93,269.35,378.46z"/>
					<path class="st6" d="M277.11,375.2h4.73v1.78h-3.29l-0.41,1.83c0.11-0.03,0.23-0.06,0.34-0.07c0.11-0.02,0.21-0.02,0.31-0.02
						c0.91,0,1.68,0.31,2.28,0.94c0.6,0.62,0.91,1.42,0.91,2.4c0,0.98-0.34,1.81-1.01,2.49c-0.67,0.67-1.48,1.01-2.45,1.01
						c-0.86,0-1.6-0.25-2.21-0.74c-0.62-0.49-1.02-1.16-1.21-2.01h2.02c0.16,0.31,0.36,0.55,0.61,0.72
						c0.25,0.16,0.53,0.24,0.84,0.24c0.43,0,0.79-0.15,1.08-0.46c0.3-0.31,0.45-0.7,0.45-1.18c0-0.47-0.14-0.85-0.42-1.15
						c-0.28-0.3-0.61-0.45-1-0.45c-0.21,0-0.42,0.05-0.62,0.16c-0.2,0.11-0.4,0.26-0.6,0.48l-1.56-0.35L277.11,375.2z"/>
				</g>
			</g>
			<g>
				<g>
					<path class="st6" d="M311.73,378.24h-1.87c0.05-1.09,0.39-1.94,1.03-2.57c0.63-0.62,1.44-0.94,2.44-0.94
						c0.61,0,1.15,0.13,1.62,0.39c0.47,0.26,0.84,0.63,1.13,1.12c0.28,0.49,0.42,0.98,0.42,1.48c0,0.6-0.17,1.24-0.51,1.93
						c-0.34,0.69-0.96,1.51-1.87,2.45l-1.13,1.19h3.6v1.78h-6.99v-0.92l3.12-3.18c0.75-0.76,1.25-1.38,1.5-1.84
						c0.25-0.47,0.37-0.88,0.37-1.26c0-0.39-0.13-0.71-0.39-0.96c-0.26-0.25-0.59-0.38-1-0.38c-0.41,0-0.75,0.15-1.03,0.46
						C311.89,377.3,311.75,377.71,311.73,378.24z"/>
					<path class="st6" d="M321.22,374.74l1.64,0.82l-1.77,3.43c0.86,0,1.58,0.31,2.18,0.92c0.6,0.61,0.9,1.37,0.9,2.28
						c0,0.88-0.31,1.62-0.92,2.23c-0.62,0.61-1.36,0.92-2.23,0.92c-0.91,0-1.67-0.32-2.27-0.95c-0.6-0.63-0.91-1.36-0.91-2.18
						c0-0.31,0.05-0.63,0.14-0.94c0.09-0.31,0.31-0.8,0.65-1.45L321.22,374.74z M320.98,380.8c-0.36,0-0.66,0.13-0.9,0.39
						c-0.24,0.26-0.36,0.58-0.36,0.97c0,0.39,0.13,0.72,0.38,0.98c0.25,0.26,0.55,0.4,0.89,0.4c0.36,0,0.67-0.13,0.92-0.39
						c0.25-0.26,0.38-0.59,0.38-0.99c0-0.39-0.13-0.71-0.37-0.97C321.67,380.93,321.35,380.8,320.98,380.8z"/>
				</g>
			</g>
			<g>
				<g>
					<path class="st6" d="M353.96,378.38h-1.87c0.05-1.09,0.39-1.95,1.02-2.57c0.63-0.62,1.45-0.93,2.44-0.93
						c0.61,0,1.15,0.13,1.62,0.39c0.47,0.26,0.84,0.63,1.12,1.12c0.28,0.49,0.42,0.98,0.42,1.48c0,0.6-0.17,1.24-0.51,1.93
						c-0.34,0.69-0.96,1.51-1.87,2.45l-1.13,1.2h3.59v1.77h-6.99v-0.92l3.12-3.18c0.75-0.76,1.26-1.38,1.5-1.84
						c0.25-0.47,0.37-0.88,0.37-1.26c0-0.39-0.13-0.71-0.39-0.96c-0.26-0.25-0.59-0.38-1-0.38c-0.41,0-0.75,0.15-1.03,0.46
						C354.13,377.44,353.98,377.85,353.96,378.38z"/>
					<path class="st6" d="M360.23,375.13h6.62v1.01l-4.55,9.33l-1.62-0.79l3.79-7.75h-4.23V375.13z"/>
				</g>
			</g>
			<g>
				<path class="st39" d="M394.22,378.71h-1.87c0.05-1.09,0.39-1.95,1.03-2.57c0.63-0.62,1.45-0.94,2.44-0.94
					c0.61,0,1.15,0.13,1.62,0.39c0.47,0.26,0.84,0.63,1.13,1.12c0.28,0.49,0.42,0.98,0.42,1.48c0,0.6-0.17,1.24-0.51,1.93
					c-0.34,0.69-0.96,1.51-1.87,2.45l-1.13,1.19h3.59v1.77h-6.99v-0.92l3.12-3.18c0.75-0.76,1.26-1.38,1.51-1.84
					c0.25-0.47,0.37-0.88,0.37-1.26c0-0.39-0.13-0.71-0.39-0.96c-0.26-0.25-0.59-0.38-1-0.38c-0.41,0-0.75,0.15-1.03,0.46
					C394.39,377.76,394.24,378.18,394.22,378.71z"/>
				<path class="st39" d="M405.64,380.07c0.46,0.29,0.81,0.67,1.06,1.13c0.25,0.46,0.37,0.96,0.37,1.49c0,0.58-0.14,1.12-0.44,1.61
					c-0.29,0.5-0.68,0.86-1.17,1.12c-0.49,0.25-1.11,0.37-1.87,0.37c-0.81,0-1.46-0.12-1.94-0.36c-0.48-0.24-0.86-0.6-1.15-1.09
					c-0.29-0.49-0.43-1.04-0.43-1.65c0-0.53,0.11-1.02,0.35-1.45c0.23-0.44,0.58-0.83,1.04-1.17c-0.3-0.31-0.53-0.63-0.68-0.98
					c-0.15-0.34-0.23-0.71-0.23-1.09c0-0.53,0.13-1,0.38-1.44c0.25-0.43,0.61-0.77,1.07-1.01c0.46-0.24,0.99-0.36,1.58-0.36
					c0.59,0,1.11,0.12,1.56,0.36c0.45,0.24,0.8,0.58,1.06,1.03c0.26,0.44,0.39,0.92,0.39,1.44c0,0.36-0.07,0.69-0.2,1
					C406.24,379.34,406,379.69,405.64,380.07z M403.59,381.1c-0.46,0-0.85,0.14-1.17,0.42c-0.31,0.28-0.47,0.62-0.47,1
					c0,0.41,0.15,0.75,0.45,1.03c0.3,0.28,0.69,0.42,1.17,0.42c0.49,0,0.88-0.13,1.17-0.4c0.29-0.26,0.43-0.6,0.43-1.02
					c0-0.42-0.15-0.76-0.45-1.04C404.42,381.24,404.04,381.1,403.59,381.1z M403.51,377.05c-0.32,0-0.58,0.1-0.78,0.31
					c-0.2,0.21-0.3,0.48-0.3,0.8c0,0.32,0.11,0.59,0.32,0.81c0.21,0.22,0.48,0.33,0.8,0.33c0.32,0,0.59-0.11,0.8-0.32
					c0.21-0.21,0.31-0.49,0.31-0.84c0-0.32-0.11-0.59-0.32-0.79C404.13,377.15,403.86,377.05,403.51,377.05z"/>
			</g>
		</g>
		<g>
			<path class="st38" d="M122.38,133.82c-37.4-6.39-72.93,18.61-79.35,55.85C39,213,47.37,235.6,63.37,250.79
				c0.25,0.68,0.76,1.18,1.59,1.44c0.02,0.02,0.05,0.04,0.08,0.07l-14.35,34.53c-0.77,1.87,1.61,3.55,3.29,2.33l32.87-23.79
				c3.92,1.44,8.02,2.57,12.29,3.3c37.4,6.39,72.93-18.61,79.35-55.85C184.9,175.58,159.79,140.22,122.38,133.82z"/>
			<g class="st56">
				<path class="st39" d="M154.73,201.05c0,24.17-19.59,43.76-43.75,43.76c-24.17,0-43.76-19.59-43.76-43.76
					c0-24.16,19.59-43.75,43.76-43.75C135.14,157.29,154.73,176.88,154.73,201.05z"/>
				<path class="st6" d="M151.11,201.05c0,22.17-17.97,40.14-40.14,40.14c-22.17,0-40.14-17.97-40.14-40.14
					c0-22.17,17.97-40.13,40.14-40.13C133.14,160.91,151.11,178.88,151.11,201.05z"/>
				<g>
					<path class="st39" d="M115.13,175.3c0.21,4.8,0.29,9.59,0.38,14.39c0.01,4.8,0.11,9.59,0.05,14.39l-0.01,0.44l-0.43,0
						c-3.6-0.03-7.2-0.02-10.79-0.12c-3.6-0.06-7.2-0.16-10.79-0.31c3.6-0.16,7.2-0.25,10.79-0.31c3.6-0.09,7.2-0.09,10.79-0.12
						l-0.43,0.43c-0.06-4.8,0.04-9.59,0.05-14.39C114.84,184.9,114.92,180.1,115.13,175.3z"/>
				</g>
			</g>
		</g>
	</g>
	<path class="st112" d="M383.05,207.19l-36.29-7.53l-42.66-21.61l-0.16-29.5c6.4-1.7,18.67,2.58,40.7,13.4l32.76,16.29
		c9.52,4.73,13.26,15.99,8.35,25.17c-0.73,1.37-1.64,2.65-2.7,3.81L383.05,207.19z"/>
	<path class="st106" d="M301.38,264.29c0.53-1.66,0.17-2.73-2.34-1.91c-5.54,1.79-10.48,1.2-11.69,0.17s-0.1-3,1.7-2.85
		c1.97-0.01,3.93-0.27,5.83-0.78c1.54-0.35,3.01-0.95,4.34-1.77c1.16-0.71,2.16-1.38,3.04-2c0,0,5.11-3.56,6.71-6.41l17.51,7.22
		l-2.82,8.45c-0.68,3.01-2.92,5.48-5.92,6.53c-5.01,1.57-12.97,1-12.97,1c-1.46-0.92-7.09,6.93-8.8,9.7
		c-1.71,2.77-3.73,3.12-4.4,1.43c-0.45-1.16,4.56-9.76,6.3-12.47c1.41-1.98,2.58-4.11,3.5-6.34"/>
	<path class="st100" d="M313.25,271.96c0,0.06,0.44,0,1.04-0.24c0.78-0.38,1.42-0.98,1.84-1.72c0.43-0.73,0.63-1.57,0.57-2.41
		c-0.06-0.64-0.27-1-0.33-1c0.16,2.22-1.06,4.31-3.11,5.33L313.25,271.96z"/>
	<path class="st100" d="M307.69,272.21c0,0.06,0.41,0,0.97-0.27c0.73-0.39,1.32-0.98,1.71-1.69c0.4-0.71,0.59-1.51,0.54-2.31
		c-0.06-0.61-0.24-1-0.31-0.93c-0.03,1.03-0.28,2.05-0.72,3C309.3,270.87,308.56,271.61,307.69,272.21z"/>
	<path class="st112" d="M384.09,206.02c0,0-55.6,61.56-55.53,60.54c0.07-1.02-24.89-18.98-24.89-18.98l54.47-62.54L384.09,206.02z"
		/>
	<path class="st59" d="M350.37,193.95c0,0-0.15,0.11-0.39,0.36l-1.04,1.12l-3.73,4.16c-3.11,3.52-7.44,8.41-12.16,13.84
		c-4.73,5.42-8.99,10.36-12.05,13.99l-3.6,4.27l-0.96,1.18c-0.21,0.27-0.32,0.42-0.3,0.43c0.14-0.1,0.27-0.22,0.38-0.36l1.04-1.12
		c0.94-1,2.2-2.45,3.73-4.16c3.11-3.52,7.45-8.41,12.17-13.84c4.73-5.42,8.98-10.36,12.05-13.99l3.6-4.27
		c0.38-0.47,0.71-0.86,0.95-1.18C350.18,194.25,350.28,194.1,350.37,193.95z"/>
	<path class="st59" d="M344.25,199.59c0.19,0.05,0.64-3.54,3.11-7.14s5.62-5.5,5.5-5.64c-0.76,0.29-1.46,0.7-2.07,1.22
		c-3.08,2.35-5.26,5.6-6.22,9.27C344.32,198.04,344.22,198.82,344.25,199.59z"/>
</g>
</svg>
