<?xml version="1.0" encoding="utf-8"?>
<!-- Generator: Adobe Illustrator 24.0.0, SVG Export Plug-In . SVG Version: 6.00 Build 0)  -->
<svg version="1.1" id="Layer_1" xmlns="http://www.w3.org/2000/svg" xmlns:xlink="http://www.w3.org/1999/xlink" x="0px" y="0px"
	 viewBox="0 0 500 500" style="enable-background:new 0 0 500 500;" xml:space="preserve">
<style type="text/css">
	.st0{fill:#3C4657;}
	.st1{fill:#313945;}
	.st2{fill:#231F20;}
	.st3{opacity:0.3;}
	.st4{fill:#D1D2D2;}
	.st5{fill:#C9EAFB;}
	.st6{fill:#FFFFFF;}
	
		.st7{fill:none;stroke:#FDF5F9;stroke-width:2.1703;stroke-linecap:round;stroke-linejoin:round;stroke-miterlimit:10;stroke-dasharray:8.6811;}
	.st8{fill:#72256F;}
	.st9{fill:#3C2415;}
	.st10{fill:#B56A57;}
	.st11{opacity:0.4;fill:#B56A57;}
	.st12{fill:#BE1E2D;}
	.st13{fill:#4C3B4B;}
	.st14{fill:#392A38;}
	.st15{fill:#F0645C;}
	.st16{fill:#603913;}
	.st17{fill:#F1F2F2;}
	.st18{fill:#D8792B;}
	.st19{fill:#8AB5CF;}
	.st20{fill:#C6E1F5;}
	.st21{fill:#F79731;}
	.st22{fill:#84A5BA;}
	.st23{fill:#658CA2;}
	.st24{fill:#9CC3DB;}
	.st25{fill:#72A749;}
	.st26{fill:#87C557;}
	.st27{fill:#C1DA73;}
	.st28{fill:#D77A40;}
	.st29{fill:#BFE068;}
	.st30{fill:#F7FAFB;}
	.st31{fill:#FBB040;}
	.st32{fill:#F5F5F6;}
	.st33{fill:url(#SVGID_1_);}
	.st34{fill:none;stroke:#F7FAFB;stroke-width:3.0845;stroke-miterlimit:10;}
	.st35{fill:#D4F0F5;}
	.st36{opacity:0.57;}
	.st37{fill:#92D5E4;}
	.st38{fill:#FFFFFF;stroke:#852170;stroke-width:0.9103;stroke-miterlimit:10;}
	.st39{fill:#852170;}
	.st40{fill:none;stroke:#852170;stroke-width:0.4552;stroke-miterlimit:10;}
	.st41{opacity:0.5;fill:#852170;}
	.st42{opacity:0.4;}
	.st43{clip-path:url(#SVGID_3_);}
	.st44{opacity:0.63;}
	.st45{fill:#B9E5EE;}
	.st46{fill:#FF9F66;}
	.st47{fill:#73ADDB;}
	.st48{fill:#2E214C;}
	.st49{fill:#43305F;}
	.st50{fill:#FF8A31;}
	.st51{fill:#549CCB;}
	.st52{fill:#FF9B3A;}
	.st53{fill:#F2763F;}
	.st54{fill:#4489B4;}
	.st55{fill:#F17D24;}
	.st56{opacity:0.74;}
	.st57{clip-path:url(#SVGID_5_);}
	.st58{fill:#E8505B;}
	.st59{fill:#263238;}
	.st60{opacity:0.2;}
	.st61{fill:#455A64;}
	.st62{fill:#ADD337;}
	.st63{opacity:0.69;fill:#FFFFFF;}
	.st64{fill:#FAFAFA;}
	.st65{fill:#FFBE9D;}
	.st66{fill:#CC8F75;}
	.st67{opacity:0.78;}
	.st68{fill:#7C2639;}
	.st69{fill:#E28088;}
	.st70{fill:#222228;}
	.st71{fill:#F0A2F4;}
	.st72{fill:#684D34;}
	.st73{fill:#604966;}
	.st74{fill:#3F1E47;}
	.st75{fill:#936754;}
	.st76{fill:#EB996E;}
	.st77{fill:#7F584A;}
	.st78{fill:#0A0705;}
	.st79{fill:#60381A;}
	.st80{fill:#7C5142;}
	.st81{opacity:0.6;}
	.st82{fill:#3D3D3D;}
	.st83{fill:#6FB56B;}
	.st84{fill:#97F794;}
	.st85{fill:#754925;}
	.st86{fill:#5E3A1E;}
	.st87{fill:#AFA15B;}
	.st88{fill:#FFEE8D;}
	.st89{fill:#B78876;}
	.st90{fill:#F5F5F5;}
	.st91{fill:#BF594F;}
	.st92{fill:#FF725E;}
	.st93{fill:#C96565;}
	.st94{fill:#B57662;}
	.st95{fill:#EA9898;}
	.st96{fill:#7C4A4A;}
	.st97{fill:#EBEBEB;}
	.st98{fill:#E0E0E0;}
	.st99{opacity:0.5;}
	.st100{fill:#995037;}
	.st101{fill:#773C2C;}
	.st102{fill:none;}
	.st103{fill:#E5BAAB;}
	.st104{fill:#D78776;}
	.st105{fill:#BC93B4;}
	.st106{fill:#B77153;}
	.st107{fill:#724940;}
	.st108{fill:#A56B65;}
	.st109{fill:#492F1B;}
	.st110{fill:#4B6EBC;}
	.st111{fill:#3D5C91;}
	.st112{fill:#A4CC64;}
	.st113{fill:#0086BF;}
	.st114{fill:none;stroke:#4E585D;stroke-miterlimit:10;}
	.st115{fill:#AF5858;}
	.st116{fill:#71A5BC;}
	.st117{fill:#AF7127;}
	.st118{fill:#4C3D2D;}
	.st119{fill:#AA6550;}
	.st120{fill:#93584A;}
</style>
<g>
	
		<ellipse transform="matrix(0.7071 -0.7071 0.7071 0.7071 -100.2922 260.9825)" class="st63" cx="264.89" cy="251.55" rx="190.52" ry="190.52"/>
	<path class="st29" d="M485.52,193.31c0,0-12.68-7.96-27.2,22.25c-14.52,30.21-19.89,47.57-19.89,47.57s-3.88,6.35-8.27,2.36
		c-4.39-3.99-10.55-15.45-17.8-13.2c-7.53,2.34-9.82,10.86-8.09,23.25c1.73,12.39,4.53,39.68,4.78,42.15
		c0.24,2.42-1.07,6.03-4.5,3.79s-23.34-23.4-32.82-13.35c-9.48,10.05,1.02,43.78,2.1,47.48c1.08,3.71,0.38,5.32-1.37,6.28
		c-1.75,0.96-7.77-6.78-13.68-12.57s-13.78-11.46-18.76-5.21c-4.98,6.26-6.03,31.77,19.18,72.58l12.92,18.15l22.3-1.76
		c47.5-6.67,66.47-23.77,68.1-31.6c1.63-7.83-7.76-10.26-15.99-11.11c-8.23-0.85-18.03-0.54-18.41-2.5
		c-0.38-1.96,0.42-3.53,3.96-5.07s36.2-15,37.88-28.71c1.68-13.71-27.32-15.52-31.24-16.72c-3.91-1.21-1.97-4.52,0.05-5.88
		c2.06-1.39,24.84-16.66,35.48-23.24c10.64-6.58,15.72-13.79,12.72-21.07c-2.9-7.03-15.65-4.44-21.53-5.27
		c-5.88-0.83-3.47-7.87-3.47-7.87s9.93-15.21,23.9-45.69c13.97-30.47-0.63-35.19-0.63-35.19"/>
	<g>
		<path class="st25" d="M472.47,220.35c0.02,0.01-0.07,0.23-0.25,0.66c-0.2,0.47-0.47,1.1-0.82,1.89c-0.76,1.71-1.84,4.14-3.23,7.24
			c-2.81,6.28-6.96,15.34-12.13,26.52c-10.33,22.35-24.87,53.1-41.06,86.99c-16.13,33.91-30.72,64.61-41.31,86.88
			c-5.22,11.1-9.45,20.11-12.4,26.38c-1.45,3.07-2.59,5.48-3.39,7.17c-0.38,0.78-0.68,1.39-0.9,1.85c-0.21,0.42-0.32,0.62-0.34,0.62
			c-0.01-0.01,0.07-0.23,0.25-0.66c0.2-0.47,0.47-1.1,0.82-1.89c0.76-1.71,1.84-4.14,3.23-7.24c2.81-6.28,6.96-15.34,12.13-26.52
			c10.33-22.35,24.87-53.1,41.06-87.01c16.12-33.9,30.72-64.59,41.31-86.87c5.22-11.1,9.45-20.11,12.4-26.39
			c1.45-3.07,2.59-5.48,3.39-7.17c0.38-0.78,0.68-1.39,0.9-1.85C472.34,220.55,472.45,220.34,472.47,220.35z"/>
	</g>
	<g>
		<path class="st25" d="M420.32,268.68c0.12-0.04,0.92,2.11,2.04,5.64c1.11,3.53,2.51,8.45,3.94,13.91c1.36,5.33,2.58,10.15,3.57,14
			c0.91,3.58,1.51,5.79,1.38,5.83c-0.12,0.04-0.95-2.1-2.03-5.65c-1.08-3.54-2.41-8.48-3.84-13.94c-1.39-5.32-2.66-10.12-3.66-13.97
			C420.77,270.94,420.19,268.72,420.32,268.68z"/>
	</g>
	<g>
		<path class="st25" d="M433.3,308.41c-0.08-0.25,9.93-3.61,22.35-7.49c12.42-3.89,22.56-6.83,22.64-6.58
			c0.08,0.25-9.93,3.61-22.35,7.49C443.52,305.72,433.38,308.67,433.3,308.41z"/>
	</g>
	<g>
		<path class="st25" d="M406.09,359.36c0-0.14,2.34-0.2,6.11-0.3c3.77-0.1,8.98-0.25,14.72-0.61c5.74-0.34,10.93-0.82,14.68-1.18
			c3.75-0.36,6.08-0.59,6.1-0.45c0.02,0.12-2.28,0.59-6.02,1.12c-3.74,0.54-8.94,1.12-14.71,1.47c-5.76,0.36-10.99,0.4-14.77,0.33
			C408.43,359.66,406.09,359.48,406.09,359.36z"/>
	</g>
	<g>
		<path class="st25" d="M386.45,326c0.11-0.07,1.33,1.71,3.22,4.65c1.88,2.94,4.43,7.03,7.19,11.58c2.76,4.55,5.22,8.7,6.95,11.73
			c1.74,3.03,2.75,4.94,2.64,5c-0.11,0.07-1.33-1.71-3.22-4.65c-1.88-2.94-4.43-7.03-7.19-11.59c-2.76-4.55-5.21-8.7-6.95-11.73
			C387.35,327.98,386.33,326.07,386.45,326z"/>
	</g>
	<g>
		<path class="st25" d="M356.71,367.92c0.06-0.03,0.47,0.52,1.18,1.55c0.71,1.03,1.7,2.54,2.92,4.42c2.43,3.76,5.73,8.98,9.32,14.78
			c3.59,5.8,6.8,11.08,9.09,14.93c1.14,1.92,2.05,3.49,2.66,4.58c0.61,1.09,0.92,1.71,0.86,1.75c-0.06,0.03-0.47-0.52-1.18-1.55
			c-0.71-1.03-1.7-2.54-2.92-4.42c-2.43-3.76-5.73-8.98-9.32-14.78c-3.59-5.8-6.8-11.08-9.08-14.93c-1.14-1.92-2.05-3.49-2.66-4.58
			C356.97,368.58,356.66,367.96,356.71,367.92z"/>
	</g>
	<g>
		<path class="st25" d="M382.4,408.76c0-0.07,0.74-0.15,2.07-0.25c1.54-0.1,3.43-0.22,5.66-0.36c4.78-0.3,11.38-0.71,18.65-1.36
			c7.27-0.64,13.85-1.37,18.6-1.93c2.22-0.25,4.1-0.46,5.64-0.64c1.33-0.14,2.07-0.19,2.08-0.12c0.01,0.07-0.71,0.24-2.03,0.49
			c-1.32,0.25-3.23,0.58-5.6,0.94c-4.74,0.73-11.31,1.57-18.61,2.21c-7.29,0.65-13.91,0.96-18.7,1.08c-2.4,0.06-4.34,0.08-5.68,0.05
			C383.15,408.86,382.41,408.82,382.4,408.76z"/>
	</g>
	<g>
		<g>
			<path class="st25" d="M83.72,119.64c0,0,0.33-0.15,1.04-0.23c0.7-0.08,1.78-0.03,3.09,0.46c1.3,0.48,2.78,1.44,4.2,2.92
				c1.43,1.47,2.68,3.5,3.9,5.87c2.37,4.81,3.94,11.22,5.75,18.66c1.77,7.47,3.71,16.07,5.04,25.85l-0.02-0.07
				c0.58,1.41,1.68,3.02,3.26,3.1c0.77,0.01,1.5-0.39,2.21-0.88c0.7-0.5,1.39-1.05,2.09-1.61c1.39-1.12,2.8-2.29,4.41-3.28
				c1.58-0.93,3.53-1.83,5.58-1.3c1.96,0.61,3.51,2.1,4.43,3.93c0.88,1.85,1.11,3.96,0.97,6c-0.22,4.14-1.86,8.06-3.04,12.11
				c-1.26,4.06-2.56,8.21-3.88,12.46c-0.66,2.12-1.33,4.27-2.01,6.44c-0.34,1.09-0.68,2.18-1.02,3.27
				c-0.17,0.57-0.37,1.08-0.39,1.59c-0.05,0.52,0.02,1.06,0.22,1.49c0.38,0.92,1.55,0.72,2.51,0.17c1.02-0.56,2.05-1.13,3.09-1.7
				c2.08-1.14,4.23-2.24,6.49-3.16c2.26-0.91,4.64-1.69,7.18-1.83c1.26-0.07,2.59,0.08,3.81,0.59c1.22,0.51,2.29,1.43,2.97,2.58
				c1.38,2.33,1.46,5.07,1.22,7.61c-0.26,2.57-0.82,5.11-1.59,7.59c-1.53,4.97-3.65,9.81-6.04,14.57c-0.57,1.2-1.32,2.36-1.66,3.53
				c-0.16,0.59-0.19,1.18,0.04,1.65c0.11,0.24,0.29,0.46,0.51,0.65c0.1,0.08,0.19,0.08,0.52,0c1.12-0.39,2.27-1.21,3.37-1.94
				c1.11-0.78,2.22-1.56,3.33-2.34c2.24-1.56,4.54-3.13,7.11-4.28c1.29-0.57,2.65-1.05,4.11-1.21c1.44-0.19,3.08,0.12,4.26,1.14
				c1.19,0.99,1.85,2.47,2.05,3.92c0.16,0.72,0.14,1.45,0.2,2.17c-0.04,0.72-0.03,1.45-0.11,2.16c-0.28,2.87-1.04,5.66-2.02,8.36
				c-1.93,5.43-4.78,10.53-8.02,15.39c-3.24,4.87-6.95,9.45-10.94,13.85c-1.92,2.29-4.19,4.21-6.34,6.28
				c-2.17,2.04-4.35,4.09-6.54,6.15l-0.2,0.19l-0.26-0.08c-0.38-0.12-0.8-0.24-1.22-0.37c-2.9-0.88-5.78-1.75-8.66-2.62l-4.31-1.31
				c-1.42-0.48-2.8-1.09-4.2-1.62c-5.54-2.25-10.93-4.76-16.03-7.69c-5.1-2.94-9.92-6.3-14.14-10.27c-2.09-2.01-4.07-4.14-5.63-6.59
				c-0.74-1.25-1.48-2.51-1.87-3.96c-0.42-1.42-0.44-3.06,0.31-4.46c0.78-1.4,2.25-2.18,3.63-2.57c1.42-0.38,2.85-0.49,4.27-0.49
				c2.84,0.01,5.6,0.45,8.31,0.89c1.35,0.22,2.7,0.44,4.05,0.65c0.67,0.09,1.34,0.19,2,0.23c0.63,0.04,1.39,0.08,1.78-0.09
				c0.13-0.07,0.04,0.01,0.12-0.1c0.05-0.14,0.09-0.28,0.12-0.41c0.05-0.27,0.04-0.54-0.04-0.79c-0.15-0.52-0.56-1.01-1.02-1.43
				c-0.94-0.83-2.13-1.57-3.19-2.38c-4.32-3.19-8.43-6.56-12.09-10.3c-1.82-1.88-3.54-3.85-4.96-6.04
				c-1.37-2.17-2.64-4.63-2.45-7.36c0.1-1.34,0.66-2.66,1.58-3.64c0.91-0.99,2.09-1.62,3.27-2.09c2.4-0.91,4.9-1.2,7.34-1.33
				c2.45-0.12,4.88-0.04,7.27,0.1c1.19,0.06,2.39,0.17,3.53,0.19c0.54,0.01,1.1-0.07,1.45-0.33c0.36-0.24,0.46-0.67,0.37-1.17
				c-0.19-1.04-0.98-1.81-1.82-2.63c-0.81-0.82-1.62-1.64-2.43-2.45c-1.61-1.63-3.21-3.23-4.78-4.82c-3.15-3.18-6.24-6.29-9.25-9.33
				c-2.94-3.07-6.21-5.81-8.38-9.36c-1.1-1.74-1.93-3.68-2.08-5.75c-0.1-2.06,0.56-4.14,2.06-5.58c1.63-1.39,3.79-1.39,5.63-1.24
				c1.88,0.19,3.68,0.63,5.43,1.03c0.87,0.2,1.74,0.41,2.6,0.55c0.86,0.14,1.7,0.22,2.41-0.1c1.45-0.66,1.67-2.66,1.52-4.18
				l0.02,0.07c-3.43-9.19-5.77-17.64-7.74-25.01c-1.91-7.37-3.56-13.72-3.8-19.04c-0.32-5.29,0.91-9.48,2.81-11.54
				c0.92-1.05,1.87-1.56,2.53-1.81c0.66-0.25,1.02-0.25,1.02-0.25s-0.35,0.06-0.99,0.33c-0.63,0.26-1.56,0.79-2.44,1.84
				c-1.82,2.05-2.99,6.17-2.62,11.42c0.28,5.27,1.96,11.58,3.92,18.94c2,7.35,4.39,15.79,7.84,24.91l0.02,0.04l0,0.03
				c0.1,0.88,0.06,1.75-0.16,2.63c-0.24,0.85-0.75,1.78-1.68,2.17c-0.9,0.41-1.89,0.29-2.76,0.16c-0.89-0.14-1.76-0.35-2.64-0.55
				c-1.75-0.4-3.53-0.82-5.35-1c-1.78-0.15-3.77-0.09-5.13,1.1c-1.28,1.22-1.93,3.18-1.82,5.04c0.14,1.9,0.93,3.74,1.99,5.42
				c2.1,3.42,5.33,6.12,8.3,9.2c3.02,3.03,6.11,6.14,9.28,9.31c1.58,1.59,3.18,3.19,4.8,4.82c0.81,0.81,1.62,1.63,2.44,2.45
				c0.79,0.77,1.8,1.7,2.04,3.04c0.15,0.63-0.03,1.54-0.69,1.97c-0.62,0.43-1.3,0.48-1.92,0.49c-1.22-0.02-2.39-0.12-3.58-0.18
				c-2.37-0.13-4.77-0.21-7.18-0.08c-2.39,0.14-4.84,0.43-7.08,1.29c-1.11,0.44-2.17,1.03-2.96,1.89c-0.79,0.85-1.26,1.95-1.35,3.13
				c-0.18,2.38,0.99,4.74,2.33,6.82c1.37,2.11,3.06,4.05,4.86,5.9c3.62,3.69,7.7,7.03,12,10.19c1.07,0.82,2.18,1.49,3.27,2.44
				c0.52,0.48,1.03,1.05,1.28,1.84c0.12,0.39,0.13,0.82,0.06,1.21c-0.03,0.2-0.09,0.39-0.16,0.56c-0.05,0.19-0.37,0.57-0.57,0.6
				c-0.88,0.34-1.53,0.2-2.25,0.19c-0.7-0.05-1.38-0.14-2.06-0.24c-1.35-0.22-2.71-0.43-4.06-0.65c-2.71-0.44-5.43-0.87-8.16-0.87
				c-1.36,0-2.73,0.11-4.02,0.46c-1.27,0.37-2.47,1.03-3.07,2.13c-1.22,2.34,0.11,5.17,1.54,7.46c1.5,2.35,3.44,4.45,5.49,6.41
				c4.15,3.9,8.92,7.23,13.97,10.13c5.06,2.91,10.41,5.4,15.91,7.63c1.38,0.53,2.74,1.13,4.15,1.6l4.3,1.3
				c2.87,0.87,5.75,1.74,8.64,2.62c0.42,0.13,0.83,0.25,1.22,0.37l-0.47,0.11c2.18-2.05,4.36-4.1,6.53-6.13
				c2.14-2.06,4.42-3.99,6.31-6.24c3.94-4.35,7.65-8.91,10.85-13.73c3.21-4.8,6.02-9.85,7.92-15.17c0.97-2.65,1.71-5.38,1.98-8.14
				c0.08-0.69,0.07-1.37,0.11-2.06c-0.06-0.67-0.03-1.37-0.18-2.02c-0.18-1.32-0.76-2.56-1.73-3.37c-0.95-0.82-2.27-1.1-3.57-0.93
				c-1.3,0.14-2.59,0.58-3.82,1.13c-2.47,1.11-4.74,2.64-6.97,4.19c-1.12,0.78-2.23,1.56-3.34,2.34c-1.15,0.75-2.22,1.56-3.64,2.06
				c-0.2,0.05-0.38,0.11-0.64,0.1c-0.18,0.06-0.65-0.18-0.74-0.3c-0.28-0.25-0.54-0.56-0.71-0.93c-0.37-0.75-0.29-1.59-0.1-2.28
				c0.42-1.4,1.16-2.5,1.73-3.7c2.38-4.72,4.49-9.52,6-14.42c0.77-2.44,1.31-4.93,1.57-7.41c0.24-2.46,0.14-5.05-1.09-7.09
				c-1.19-2.09-3.65-2.95-6.01-2.78c-2.38,0.13-4.7,0.87-6.91,1.76c-2.21,0.9-4.34,1.98-6.41,3.11c-1.04,0.57-2.08,1.14-3.11,1.71
				c-0.53,0.27-1.15,0.55-1.84,0.56c-0.71,0.05-1.48-0.45-1.76-1.09c-0.58-1.23-0.25-2.64,0.13-3.66c0.34-1.1,0.69-2.19,1.03-3.27
				c0.68-2.17,1.36-4.32,2.03-6.45c1.34-4.25,2.64-8.4,3.92-12.46c1.21-4.07,2.82-7.93,3.04-11.92c0.14-1.97-0.08-3.95-0.89-5.66
				c-0.8-1.67-2.31-3.07-3.98-3.59c-1.74-0.47-3.55,0.31-5.08,1.21c-1.55,0.95-2.96,2.09-4.35,3.21c-0.7,0.56-1.4,1.12-2.13,1.63
				c-0.72,0.5-1.59,1-2.58,0.98c-0.99-0.02-1.83-0.61-2.43-1.26c-0.59-0.68-1.03-1.43-1.36-2.24l-0.01-0.03l-0.01-0.04
				c-1.27-9.72-3.18-18.34-4.9-25.81c-1.77-7.46-3.29-13.85-5.59-18.63c-1.18-2.36-2.4-4.38-3.79-5.85
				c-1.37-1.47-2.81-2.44-4.08-2.94C85.19,119.03,83.69,119.72,83.72,119.64z"/>
		</g>
		<g>
			<path class="st25" d="M88.75,139.72c0.02,0,0.07,0.15,0.17,0.46c0.11,0.36,0.24,0.81,0.4,1.36c0.35,1.28,0.84,3.04,1.46,5.27
				c1.26,4.58,3.01,11.22,5.14,19.43c4.26,16.43,9.92,39.17,16.07,64.32c6.16,25.12,11.74,47.85,15.8,64.39
				c2.03,8.18,3.68,14.82,4.84,19.5c0.55,2.25,0.98,4.02,1.29,5.31c0.13,0.56,0.23,1.02,0.31,1.39c0.07,0.31,0.09,0.48,0.07,0.48
				c-0.02,0-0.07-0.15-0.17-0.46c-0.11-0.36-0.24-0.81-0.4-1.36c-0.35-1.28-0.84-3.03-1.46-5.26c-1.25-4.58-3.01-11.21-5.14-19.43
				c-4.26-16.43-9.93-39.18-16.08-64.33c-6.16-25.11-11.74-47.84-15.8-64.38c-2.03-8.18-3.68-14.82-4.84-19.5
				c-0.55-2.25-0.98-4.02-1.29-5.31c-0.13-0.56-0.23-1.02-0.31-1.39C88.76,139.89,88.74,139.73,88.75,139.72z"/>
		</g>
		<g>
			<path class="st25" d="M82.26,187.74c0.07-0.11,1.45,0.69,3.58,2.12c2.13,1.43,5,3.5,8.11,5.86c3.11,2.36,5.88,4.55,7.89,6.13
				c2,1.58,3.25,2.56,3.17,2.67c-0.07,0.11-1.46-0.67-3.57-2.12c-2.12-1.45-4.96-3.55-8.07-5.91c-2.94-2.25-5.6-4.29-7.93-6.07
				C83.42,188.84,82.18,187.85,82.26,187.74z"/>
		</g>
		<g>
			<path class="st25" d="M106.24,203.84c-0.22-0.15,3.53-6.19,8.37-13.49c4.84-7.31,8.95-13.11,9.17-12.96
				c0.22,0.15-3.53,6.18-8.37,13.49C110.56,198.18,106.46,203.99,106.24,203.84z"/>
		</g>
		<g>
			<path class="st25" d="M113.96,242.83c-0.17-0.23,4.73-4.13,10.45-9.31c5.73-5.17,10.1-9.67,10.3-9.47
				c0.09,0.09-0.88,1.32-2.6,3.2c-1.71,1.88-4.18,4.38-7.06,6.98c-2.87,2.61-5.62,4.81-7.65,6.33
				C115.36,242.08,114.04,242.93,113.96,242.83z"/>
		</g>
		<g>
			<path class="st25" d="M89.24,232.98c0.05-0.12,1.47,0.3,3.74,1.08c2.27,0.78,5.38,1.92,8.8,3.23c3.42,1.31,6.49,2.55,8.7,3.49
				c2.21,0.94,3.55,1.58,3.5,1.71c-0.05,0.12-1.47-0.3-3.74-1.08c-2.27-0.78-5.38-1.92-8.8-3.23c-3.42-1.31-6.49-2.55-8.7-3.49
				C90.53,233.74,89.19,233.1,89.24,232.98z"/>
		</g>
		<g>
			<path class="st25" d="M91.74,268.14c0.05-0.12,1.87,0.43,4.78,1.42c2.91,0.99,6.9,2.43,11.3,4.07c4.39,1.64,8.35,3.18,11.2,4.33
				c2.85,1.16,4.59,1.93,4.54,2.06c-0.05,0.12-1.87-0.43-4.78-1.42c-2.91-0.99-6.9-2.43-11.3-4.07c-4.39-1.64-8.35-3.17-11.2-4.33
				C93.43,269.04,91.69,268.26,91.74,268.14z"/>
		</g>
		<g>
			<path class="st25" d="M122.86,279.52c-0.09-0.1,1.36-1.47,3.73-3.64c2.36-2.18,5.63-5.18,9.17-8.57
				c3.54-3.39,6.68-6.52,8.96-8.79c2.28-2.27,3.7-3.66,3.8-3.57c0.09,0.09-1.15,1.64-3.31,4.04c-2.15,2.39-5.23,5.62-8.79,9.02
				c-3.55,3.4-6.9,6.33-9.39,8.39C124.55,278.44,122.95,279.62,122.86,279.52z"/>
		</g>
	</g>
	<g>
		<g>
			<g>
				<path class="st62" d="M165.85,451.02c26.83-26.05,27.34-66.4,20.42-101.48c-1.15-5.86-1.51-12.17-5.15-16.88
					c-3.64-4.71-10.75-7.18-15.62-3.85c-4.04,2.77-5.12,8.16-6.88,12.76c-2.35,6.12-6.45,11.54-11.67,15.43
					c-3.43,2.55-7.88,4.49-11.91,3.05c-5.53-1.98-7.27-8.9-8.18-14.76c-1.7-10.93-3.4-21.85-5.1-32.78
					c-0.91-5.86-1.86-11.84-4.59-17.11c-2.72-5.26-7.58-9.77-13.41-10.43c-5.82-0.66-12.19,3.67-12.44,9.59
					c-0.1,2.46,0.78,4.86,1.02,7.32c0.23,2.46-0.47,5.33-2.66,6.38c-2.23,1.07-4.84-0.22-6.87-1.65c-7-4.93-12.34-11.89-17.4-18.84
					c-5.06-6.95-10.04-14.11-16.57-19.67c-6.53-5.56-14.94-9.44-23.41-8.56c-8.46,0.89-16.56,7.51-17.35,16.09
					c-0.79,8.6,5.39,16.2,11.71,22.03c9.38,8.65,20,15.93,31.42,21.53c2.06,1.01,4.29,2.1,5.35,4.16c1.9,3.7-1.17,8.18-4.81,10.08
					c-4.13,2.16-8.94,2.48-13.42,3.75c-4.48,1.28-9.1,4.09-10.13,8.69c-1.43,6.37,4.59,11.84,10.19,15.15
					c11.2,6.63,23.51,11.3,36.24,13.76c4.56,0.88,9.32,1.53,13.29,3.99c3.96,2.47,6.91,7.39,5.48,11.85
					c-1.43,4.47-6.6,6.66-11.25,6.56c-4.65-0.1-9.08-1.9-13.65-2.83c-8.54-1.73-18.84,0.51-22.87,8.3
					c-2.65,5.12-1.91,11.54,0.68,16.71c2.6,5.17,6.83,9.3,11.22,13.03c15.35,13.04,33.84,22.55,53.56,26
					C130.81,461.87,148.4,460.81,165.85,451.02L165.85,451.02z"/>
			</g>
		</g>
		<g>
			<g>
				<g>
					<path class="st25" d="M165.02,459c-3.16-9.04-7.1-18.66-11.86-28.61c-8.08-16.96-18.47-34.82-29.99-53.12
						c-2.9-4.56-5.76-9.08-8.58-13.52c-2.82-4.43-5.63-8.83-8.63-12.95c-5.98-8.29-12.35-15.8-18.63-22.73
						c-6.27-6.95-12.48-13.31-18.33-19.21c-5.86-5.9-11.43-11.29-16.72-15.99c-10.54-9.44-19.93-16.03-26.56-20.29
						c-3.31-2.14-5.93-3.72-7.73-4.77c-0.86-0.49-1.54-0.88-2.05-1.18c-0.46-0.26-0.71-0.38-0.72-0.37
						c-0.01,0.02,0.21,0.17,0.66,0.46c0.49,0.32,1.15,0.73,1.99,1.27c1.75,1.11,4.34,2.74,7.61,4.93
						c6.55,4.37,15.83,11.03,26.28,20.52c5.24,4.72,10.76,10.13,16.59,16.05c5.82,5.93,11.99,12.3,18.23,19.25
						c6.24,6.94,12.57,14.44,18.5,22.69c2.98,4.11,5.75,8.47,8.58,12.91c2.82,4.44,5.67,8.95,8.57,13.52
						c11.5,18.29,21.9,36.09,30,52.97c4.73,9.81,8.66,19.29,11.84,28.21C164.4,458.99,164.71,458.98,165.02,459z"/>
				</g>
			</g>
		</g>
		<g>
			<g>
				<g>
					<path class="st25" d="M105.65,350.8c0.07,0,0.13-0.92,0.17-2.59c0.05-1.67,0.03-4.08-0.03-7.07
						c-0.12-5.96-0.56-14.2-1.08-23.27c-0.52-9.08-0.85-17.29-0.87-23.24c-0.02-2.97-0.01-5.38,0.01-7.05
						c0.02-1.67-0.01-2.59-0.09-2.6c-0.08,0-0.19,0.91-0.34,2.57c-0.16,1.66-0.28,4.07-0.36,7.06c-0.17,5.97,0.03,14.22,0.56,23.31
						c0.54,8.95,1.03,17.05,1.4,23.24c0.15,2.8,0.28,5.15,0.38,7.05C105.49,349.88,105.58,350.8,105.65,350.8z"/>
				</g>
			</g>
		</g>
		<g>
			<g>
				<g>
					<path class="st25" d="M28.08,348.93c0.01,0.07,1.1,0.03,3.06-0.13c1.96-0.14,4.79-0.36,8.3-0.52
						c7.02-0.37,16.73-0.55,27.45-0.28c10.73,0.29,20.42,0.97,27.42,1.67c3.5,0.32,6.33,0.66,8.29,0.88
						c1.96,0.23,3.04,0.32,3.05,0.24c0.01-0.08-1.06-0.31-3-0.67c-1.94-0.35-4.76-0.81-8.26-1.23c-7-0.89-16.72-1.7-27.47-1.99
						c-10.75-0.27-20.5,0.03-27.52,0.6c-3.52,0.26-6.35,0.6-8.3,0.87C29.14,348.66,28.07,348.86,28.08,348.93z"/>
				</g>
			</g>
		</g>
		<g>
			<g>
				<g>
					<path class="st25" d="M152.01,429.15c0.04,0.01,0.16-0.33,0.37-1c0.23-0.79,0.51-1.76,0.85-2.93
						c0.72-2.55,1.67-6.27,2.79-10.87c2.23-9.21,4.92-22.04,7.69-36.23c2.78-14.2,5.34-27.03,7.38-36.28c1-4.5,1.83-8.2,2.45-10.95
						c0.26-1.19,0.47-2.18,0.65-2.98c0.14-0.68,0.19-1.05,0.15-1.06c-0.04-0.01-0.16,0.34-0.37,1c-0.23,0.79-0.51,1.76-0.85,2.93
						c-0.72,2.55-1.67,6.27-2.79,10.87c-2.23,9.21-4.92,22.04-7.69,36.24c-2.77,14.19-5.34,27.02-7.38,36.27
						c-1.01,4.5-1.83,8.2-2.45,10.94c-0.26,1.19-0.47,2.18-0.65,2.98C152.03,428.78,151.97,429.14,152.01,429.15z"/>
				</g>
			</g>
		</g>
		<g>
			<g>
				<g>
					<path class="st25" d="M46.73,413.12c0,0.04,0.36,0.12,1.06,0.25c0.82,0.14,1.84,0.3,3.06,0.5c2.82,0.44,6.64,1.02,11.28,1.74
						c9.52,1.47,22.65,3.65,37.15,6.07c14.51,2.43,27.67,4.49,37.22,5.76c4.78,0.64,8.65,1.11,11.33,1.39
						c1.24,0.12,2.26,0.22,3.09,0.3c0.71,0.06,1.08,0.07,1.09,0.03c0-0.04-0.36-0.12-1.06-0.25c-0.82-0.13-1.83-0.3-3.06-0.5
						c-2.82-0.44-6.64-1.02-11.27-1.74c-9.52-1.47-22.65-3.65-37.16-6.07c-14.5-2.43-27.66-4.49-37.22-5.76
						c-4.78-0.64-8.65-1.11-11.33-1.39c-1.24-0.12-2.26-0.22-3.09-0.3C47.11,413.09,46.74,413.08,46.73,413.12z"/>
				</g>
			</g>
		</g>
	</g>
	<g>
		<g>
			<g>
				<g>
					<path class="st64" d="M245.05,299.84l13.7,52.25l52.75-69.71l-14.16,184.07l-74.27-0.77l-21.67,0.82c0,0,3.51-29,5-45.38
						c0.28-3.12,1.55-21.37,7-38.53C224.86,346.54,245.05,299.84,245.05,299.84z"/>
				</g>
			</g>
			<g>
				<g>
					<g>
						<path class="st59" d="M260.97,381.53c0.18,0.24-8.28,6.91-18.89,14.91c-10.62,8-19.37,14.28-19.55,14.04
							c-0.18-0.24,8.28-6.91,18.9-14.91C252.04,387.57,260.79,381.29,260.97,381.53z"/>
					</g>
				</g>
			</g>
		</g>
		<g>
			<g>
				<g>
					<polygon class="st31" points="391.38,275.96 351.13,256.07 335.46,237.05 312.78,260.15 251.14,465.46 353.17,466.52 
						366.63,431.33 391.18,295.12 					"/>
				</g>
			</g>
			<g>
				<g>
					<path class="st31" d="M207.33,467.99l-2.28-43.73l123.48-19.6c0,0,22.12-101.5,35.26-118.03c12.13-15.26,27.69-9.76,27.69-9.76
						s13.97,9.78,10.22,46.64c-1.96,19.3-9.72,86.21-12.53,110.38c-0.67,5.79-2.65,11.35-5.78,16.27l0,0
						c-7.17,11.26-19.64,18.02-32.99,17.89L207.33,467.99z"/>
				</g>
			</g>
			<g>
				<g>
					<g>
						<path class="st59" d="M348.4,430.26c-0.18,0.02-0.33-1.94-1.2-4.94c-0.85-2.99-2.57-7.02-5.59-10.67
							c-3.02-3.66-6.65-6.11-9.42-7.51c-2.78-1.42-4.68-1.94-4.63-2.11c0.02-0.12,2.01,0.14,4.96,1.42c2.93,1.26,6.79,3.7,9.93,7.51
							c3.15,3.81,4.82,8.06,5.5,11.17C348.64,428.26,348.52,430.26,348.4,430.26z"/>
					</g>
				</g>
			</g>
			<g class="st60">
				<g>
					<g>
						<path d="M347.93,259.01c-1.3,12.85-3.9,25.57-7.74,37.9c-3.08-0.94-6.16-1.88-9.24-2.82c3.75,5.49,4.14,12.73,2.57,19.19
							c-1.57,6.46-4.91,12.33-8.2,18.1c-15.62,27.39-31.24,54.78-46.87,82.16l47.47-104.81l-1.01-19.48l8.95-1.82L347.93,259.01z"/>
					</g>
				</g>
			</g>
			<g class="st60">
				<g>
					<g>
						<path d="M328.14,403.43c5.61-0.27,11.3,1.45,15.81,4.79c4.52,3.34,7.83,8.27,9.21,13.72c0.33,1.3,0.55,2.72,0.03,3.96
							c-0.51,1.24-2.01,2.16-3.24,1.61c-0.93-0.42-1.38-1.47-1.78-2.41c-3.93-9.24-11.8-16.72-21.22-20.19"/>
					</g>
				</g>
			</g>
			<g>
				<g>
					<g>
						<path class="st59" d="M278.8,412.55c-0.03-0.02,0.19-0.59,0.64-1.68c0.5-1.17,1.18-2.75,2.04-4.74
							c1.86-4.19,4.47-10.09,7.68-17.35c6.62-14.69,15.7-34.82,25.72-57.06c3.68-8.08,7.23-15.88,10.56-23.2l-0.05,0.24
							c-0.34-6.92-0.66-13.45-0.95-19.48l-0.02-0.4l0.39-0.08c3.15-0.63,6.13-1.22,8.96-1.78l-0.3,0.23
							c4.72-9.31,8.6-16.95,11.35-22.37c1.34-2.58,2.4-4.63,3.18-6.12c0.35-0.64,0.63-1.16,0.86-1.59c0.2-0.35,0.31-0.53,0.33-0.52
							c0.02,0.01-0.05,0.21-0.22,0.58c-0.2,0.44-0.45,0.98-0.75,1.64c-0.72,1.52-1.72,3.6-2.97,6.22
							c-2.67,5.46-6.43,13.16-11.02,22.54l-0.09,0.19l-0.21,0.04c-2.82,0.59-5.8,1.2-8.94,1.85l0.37-0.48
							c0.33,6.03,0.68,12.55,1.06,19.47l0.01,0.13l-0.05,0.12c-3.32,7.33-6.85,15.14-10.52,23.22
							c-10.14,22.19-19.32,42.28-26.01,56.93c-3.34,7.19-6.07,13.05-8,17.2c-0.93,1.95-1.67,3.5-2.22,4.66
							C279.12,412.02,278.83,412.57,278.8,412.55z"/>
					</g>
				</g>
			</g>
			<g>
				<g>
					<g>
						<path class="st59" d="M207.25,466.55c-0.02,0-0.05-0.25-0.09-0.73c-0.04-0.54-0.09-1.25-0.16-2.14
							c-0.12-1.95-0.29-4.71-0.52-8.22c-0.4-7.22-0.98-17.53-1.68-30.25l-0.02-0.35l0.35-0.06c23.19-4.01,54.68-9.46,89.34-15.45
							c11.45-1.96,22.56-3.85,32.94-5.62l-0.42,0.38c7.51-27.38,14.03-51.15,18.7-68.15c2.35-8.4,4.23-15.13,5.54-19.83
							c0.65-2.26,1.16-4.03,1.53-5.3c0.17-0.56,0.31-1.01,0.42-1.36c0.1-0.3,0.16-0.46,0.17-0.45c0.02,0-0.01,0.17-0.08,0.48
							c-0.09,0.36-0.19,0.82-0.33,1.39c-0.33,1.28-0.78,3.07-1.36,5.34c-1.24,4.72-3.02,11.47-5.24,19.91
							c-4.57,17.02-10.96,40.82-18.33,68.25l-0.09,0.32l-0.33,0.06c-10.38,1.78-21.48,3.69-32.93,5.66
							c-34.68,5.88-66.18,11.22-89.39,15.16l0.33-0.41c0.56,12.72,1.01,23.05,1.33,30.27c0.13,3.52,0.23,6.28,0.31,8.24
							c0.02,0.89,0.04,1.6,0.05,2.14C207.28,466.3,207.27,466.55,207.25,466.55z"/>
					</g>
				</g>
			</g>
		</g>
		<g>
			<g>
				<g>
					<path class="st59" d="M385.2,272.48c0.03,0.2-2.07,0.48-5.23,1.62c-3.16,1.12-7.33,3.3-11.11,6.75
						c-3.77,3.47-6.3,7.44-7.69,10.49c-1.41,3.05-1.87,5.12-2.07,5.07c-0.07-0.02-0.01-0.54,0.17-1.48
						c0.16-0.95,0.56-2.29,1.19-3.89c1.24-3.21,3.76-7.4,7.66-10.99c3.91-3.57,8.3-5.72,11.6-6.68c1.65-0.49,3.02-0.77,3.98-0.85
						C384.66,272.42,385.19,272.4,385.2,272.48z"/>
				</g>
			</g>
		</g>
		<g>
			<g>
				<g>
					<g>
						<g>
							<g>
								<path class="st65" d="M152.65,223.72c3.72-6.69,2.39-33.9,8.01-32.88c7.16,1.3,0.24,29.81-0.24,32.41
									c-0.47,2.52,3.28,3.28,3.58,0.92c0.44-3.4,4.97-36.61,12.02-34.66c3.91,1.08,2.03,8.21,2.03,8.21s-6.41,32.17-3.05,32.97
									c3.41,0.82,6.13-17.75,7.7-24.5c1.51-6.47,5.76-9.21,7.32-5.78c2.3,5.04-2.38,21.22-3.79,27.72
									c-1.41,6.5-4.97,25.32,4.25,18.05c9.22-7.27,18.99-9.48,22.01-8.27c3.02,1.21,2.31,5.86-1.21,6.75
									c-2.85,0.72-7.25,3.36-10.49,5.48c-2.66,1.75-4.78,4.13-6.98,6.43c-1.57,1.64-4.33,5-6.65,10.11
									c-2.68,5.92-7.82,10.37-14.03,12.29l0,0l-5.6,25.34l-34.49-7.77l7.99-26.79c2.99-17.62,1.68-41.36,1.82-52.16
									c0.22-17.21,2.46-17.32,4.44-16.84C151.65,201.81,149.01,230.25,152.65,223.72z"/>
							</g>
						</g>
					</g>
				</g>
			</g>
			<g>
				<g>
					<g>
						<g>
							<path class="st66" d="M151.44,246.81c-0.05,0.16,1.91,0.53,4.58,2.19c2.64,1.62,5.94,4.76,7.71,9.3
								c0.48,1.21,0.78,2.45,1,3.64l0.11,0.59l0.49-0.28c3.35-1.93,6.63-2.86,8.99-3.29c2.37-0.44,3.83-0.47,3.82-0.59
								c0-0.08-1.47-0.24-3.9,0.05c-2.42,0.29-5.83,1.14-9.31,3.09l0.6,0.31c-0.22-1.26-0.53-2.56-1.03-3.83
								c-0.92-2.36-2.28-4.38-3.74-5.97c-1.47-1.59-3.05-2.74-4.45-3.53c-1.4-0.81-2.65-1.19-3.5-1.45
								C151.93,246.82,151.45,246.75,151.44,246.81z"/>
						</g>
					</g>
				</g>
			</g>
			<g>
				<g>
					<g>
						<g>
							<path class="st66" d="M146.59,270.94c-0.12,0.17,3.27,2.46,8.03,3.98c4.75,1.55,8.83,1.68,8.84,1.47
								c0.03-0.25-3.93-0.75-8.58-2.26C150.22,272.64,146.71,270.72,146.59,270.94z"/>
						</g>
					</g>
				</g>
			</g>
		</g>
		<g>
			<g>
				<polygon class="st65" points="272.01,247.23 245.05,299.84 258.75,352.08 297.09,312.4 335.2,243.34 				"/>
			</g>
		</g>
		<g>
			<g>
				<g>
					<path class="st31" d="M247.09,251.93c0,0-37.68,12.96-37.71,15.44c0,0,0,0.01,0,0.01c-6.68,5.14-29.32,58.29-36.45,68.31
						l-20.39,29.38l0,0l0,0l17.53-65.57l-36.94-11.29c0,0-32.44,76.15-36.46,93.11c-4.02,16.97,0.28,30.51,0.28,30.51l0.21-0.17
						c2.61,8.26,7.75,14.92,13.69,18.82c15.61,10.24,30.26,12.29,45.38,1.35c8.58-6.2,18.37-13.68,27.34-20.67l1.76,55.23
						l20.46,0.21c0.03-3.1-0.19-40.93-0.19-40.93s4.49-14.22,6.48-27.22s33.37-98.14,33.37-98.14l24.14-45.33l0.73-16.86
						L247.09,251.93z"/>
				</g>
			</g>
			<g>
				<g>
					<g>
						<path class="st59" d="M184.92,465.91c-0.04,0-0.09-0.59-0.16-1.72c-0.06-1.22-0.15-2.87-0.26-4.95
							c-0.18-4.41-0.44-10.63-0.75-18.32c-0.54-15.61-1.29-37.13-2.12-61.23l0-0.06l0.01-0.07c0.46-2.28,0.96-4.7,1.46-7.15
							c5.22-25.27,9.95-48.14,13.4-64.81c1.75-8.21,3.17-14.89,4.18-19.61c0.5-2.24,0.9-4.01,1.19-5.32c0.13-0.55,0.25-1,0.34-1.38
							c0.08-0.31,0.13-0.47,0.15-0.46s0,0.17-0.04,0.49c-0.06,0.38-0.14,0.84-0.23,1.4c-0.24,1.32-0.57,3.11-0.99,5.36
							c-0.93,4.75-2.24,11.45-3.84,19.69c-3.37,16.69-7.99,39.58-13.09,64.88c-0.5,2.45-1,4.88-1.46,7.15l0.01-0.13
							c0.7,24.11,1.33,45.63,1.78,61.24c0.17,7.69,0.32,13.92,0.42,18.33c0.03,2.08,0.05,3.74,0.06,4.96
							C184.98,465.32,184.96,465.91,184.92,465.91z"/>
					</g>
				</g>
			</g>
			<g>
				<g>
					<g>
						<path class="st59" d="M206.42,417.13c-0.04-0.01,0.04-0.6,0.21-1.73c0.2-1.22,0.46-2.86,0.8-4.92
							c0.76-4.37,1.83-10.51,3.14-18.06c2.77-15.32,6.56-36.32,10.75-59.51c2.81-15.18,5.45-29.42,7.69-41.54l0.01-0.06l0.02-0.05
							c5.33-11.75,9.78-21.57,12.95-28.57c1.56-3.36,2.8-6.04,3.7-7.98c0.41-0.85,0.75-1.54,1.01-2.09c0.24-0.47,0.37-0.71,0.39-0.7
							c0.02,0.01-0.06,0.27-0.26,0.76c-0.23,0.56-0.52,1.27-0.88,2.15c-0.84,1.96-2,4.68-3.46,8.09
							c-3.09,7.04-7.42,16.92-12.6,28.73l0.03-0.11c-2.2,12.13-4.79,26.38-7.55,41.57c-4.31,23.17-8.21,44.14-11.06,59.45
							c-1.45,7.52-2.63,13.64-3.48,18c-0.42,2.04-0.75,3.67-1,4.88C206.6,416.56,206.46,417.14,206.42,417.13z"/>
					</g>
				</g>
			</g>
			<g>
				<g>
					<g>
						<path class="st59" d="M134.55,410.25c-0.14-0.11,1.49-2.39,3.78-6.28c2.3-3.88,5.16-9.44,7.7-15.84
							c2.52-6.41,4.26-12.41,5.34-16.8c1.09-4.39,1.6-7.15,1.77-7.12c0.07,0.01,0.03,0.71-0.13,1.98c-0.14,1.26-0.44,3.08-0.89,5.31
							c-0.89,4.46-2.53,10.56-5.08,17.03c-2.56,6.47-5.56,12.03-8.05,15.85c-1.24,1.91-2.31,3.41-3.11,4.4
							C135.08,409.77,134.61,410.3,134.55,410.25z"/>
					</g>
				</g>
			</g>
			<g class="st60">
				<g>
					<g>
						<path d="M137.42,407.23c-1.4,0.11-2.22,1.93-1.62,3.21c0.6,1.27,2.17,1.87,3.57,1.68s2.62-1.01,3.67-1.95
							c3.22-2.89,5.15-6.95,6.49-11.07c3.28-10.01,3.54-20.73,3.77-31.26c-3.09,13.68-8.44,26.85-15.79,38.8"/>
					</g>
				</g>
			</g>
			<g class="st60">
				<g>
					<g>
						<path d="M182.96,412.61c-6.25-10.16-8.17-21.98-7.22-33.87c1.29-16.03,9.24-30.63,15.22-45.56
							c-3.52,15.73-5.59,31.36-8.78,46.49c0,0,1.39,22.55,1.32,32.55"/>
					</g>
				</g>
			</g>
			<g class="st60">
				<g>
					<g>
						<path d="M208.95,402.82c1.88-24,3.76-48.05,8.26-71.7c4.5-23.65,13-48.11,24.9-69.03c-3.12,9.48-12.65,29.37-12.65,29.37
							s-14.2,70.79-20.4,106.46"/>
					</g>
				</g>
			</g>
		</g>
		<g>
			<g>
				<g>
					<g>
						<path class="st65" d="M205.64,430.4l2.98,37.27l-17.58-0.25c-0.47,0-7.64-0.2-15.56-0.41c-5.83,0.68-15.06,0.62-17.86,0.29
							c-0.5-0.06-0.79-0.12-0.83-0.2c0,0-1.33-0.18-2.7-0.68c-0.04,0-0.08,0-0.08,0l0.01-0.02c-1.59-0.6-3.21-1.64-2.94-3.39
							c0.83-5.33,4-5.73,4-5.73s0.6-0.04,1.59-0.09l0.13-0.46c-2.42-0.02-4.44-0.11-5.52-0.23c-0.5-0.06-0.79-0.12-0.83-0.19
							c0,0-6.23-0.8-5.72-4.1c0.83-5.33,4-5.73,4-5.73s2.16-0.13,5.13-0.29c-2.49-0.02-4.6-0.1-5.7-0.23
							c-0.5-0.06-0.79-0.12-0.83-0.19c0,0-6.23-0.8-5.72-4.1c0.83-5.33,4-5.73,4-5.73s1.74-0.11,4.25-0.24
							c-2.02-0.03-3.69-0.11-4.62-0.22c-0.5-0.06-0.79-0.12-0.83-0.19c0,0-6.23-0.8-5.72-4.1c0.83-5.33,4-5.73,4-5.73
							s9.82-0.6,16.55-0.81c0-0.01,7.71-6.81,10.72-6.46c4.49,0.52,30.54,10.45,30.54,10.45L205.64,430.4z"/>
					</g>
				</g>
			</g>
			<g>
				<g>
					<g>
						<g>
							<g>
								<g>
									<g>
										<g>
											<g>
												<g>
													<g>
														<path class="st66" d="M172.37,456.37c-0.03,0.31-3.94,0.64-8.72,0.75c-4.79,0.1-8.65-0.06-8.62-0.37
															c0.03-0.31,3.93-0.64,8.73-0.75C168.54,455.89,172.4,456.06,172.37,456.37z"/>
													</g>
												</g>
											</g>
										</g>
									</g>
								</g>
							</g>
							<g>
								<g>
									<g>
										<g>
											<g>
												<g>
													<g>
														<path class="st66" d="M172.54,445.81c0.01,0.31-5.55,0.7-12.4,0.87c-6.86,0.17-12.42,0.06-12.43-0.25
															c-0.01-0.31,5.54-0.7,12.4-0.87C166.97,445.38,172.53,445.5,172.54,445.81z"/>
													</g>
												</g>
											</g>
										</g>
									</g>
								</g>
							</g>
							<g class="st67">
								<g>
									<g>
										<g>
											<g>
												<g>
													<g>
														<path class="st66" d="M171.76,435.07c0.01,0.31-5.55,0.7-12.4,0.87c-6.86,0.17-12.42,0.06-12.43-0.25
															c-0.01-0.31,5.54-0.7,12.4-0.87C166.19,434.65,171.76,434.76,171.76,435.07z"/>
													</g>
												</g>
											</g>
										</g>
									</g>
								</g>
							</g>
						</g>
					</g>
				</g>
			</g>
			<g>
				<g>
					<g>
						<g>
							<path class="st66" d="M156.48,424.83c0,0.13,1.51,0.24,3.95,0.35c2.8,0.12,5.99,0.26,9.52,0.41
								c3.53,0.16,6.73,0.31,9.52,0.44c2.44,0.1,3.95,0.13,3.96,0c0.01-0.12-1.48-0.38-3.91-0.65c-2.43-0.27-5.8-0.54-9.53-0.71
								c-3.73-0.17-7.11-0.19-9.55-0.14C157.99,424.58,156.48,424.7,156.48,424.83z"/>
						</g>
					</g>
				</g>
			</g>
		</g>
		<g>
			<g>
				<path class="st59" d="M353.71,123.51c4.53-10.7,18.57-15.44,29.43-11.34s18.04,15.38,19.23,26.94
					c0.59,5.68-0.19,11.74-3.5,16.39c-3.48,4.9-9.4,7.66-15.36,8.43c-10.65,1.38-21.88-3.37-28.3-11.98
					c-6.42-8.61-7.78-20.73-3.43-30.54"/>
			</g>
		</g>
		<g>
			<g>
				<g>
					<path class="st61" d="M398.1,125.4c0.06,0.04-0.21,0.55-0.8,1.42c-0.59,0.86-1.53,2.05-2.84,3.39
						c-2.59,2.68-6.88,5.87-12.36,7.69c-5.48,1.82-10.82,1.82-14.51,1.23c-1.85-0.29-3.32-0.68-4.31-1.02
						c-0.99-0.34-1.51-0.59-1.49-0.66c0.05-0.18,2.24,0.54,5.89,0.92c3.62,0.39,8.78,0.26,14.07-1.5c5.29-1.75,9.5-4.73,12.17-7.21
						C396.62,127.18,397.95,125.29,398.1,125.4z"/>
				</g>
			</g>
		</g>
		<g>
			<g>
				<g>
					<path class="st61" d="M402.61,137.71c0.04,0.06-0.39,0.45-1.21,1.12c-0.81,0.68-2.06,1.56-3.65,2.58
						c-3.19,2-7.93,4.43-13.66,5.57c-2.86,0.55-5.64,0.7-8.16,0.56c-2.52-0.16-4.75-0.62-6.57-1.16c-1.81-0.55-3.25-1.11-4.18-1.61
						c-0.95-0.47-1.45-0.77-1.42-0.83c0.08-0.19,2.19,0.81,5.8,1.7c1.8,0.43,3.98,0.79,6.42,0.9c2.44,0.08,5.13-0.09,7.9-0.63
						c5.55-1.1,10.23-3.36,13.47-5.16C400.6,138.91,402.5,137.56,402.61,137.71z"/>
				</g>
			</g>
		</g>
		<g>
			<g>
				<path class="st59" d="M240.63,154.43C215.4,97.4,277.1,69.51,310.5,79.32c31.39,9.22,44.66,25.03,49.62,46.14
					c4.96,21.12,4.48,43.93-3.99,63.91c-4.17,9.85-11.61,19.83-22.25,20.95"/>
			</g>
		</g>
		<g>
			<g>
				<path class="st65" d="M270,295.06c-0.16-27.13-0.09-64.39-0.1-64.24c0,0-23.27-4.11-27.79-34.58
					c-2.25-15.15-1.23-39.95,0.26-60.21c1.34-18.24,13.66-40.5,31.83-38.39l56.63,14.94c5.52,0.64,9.63,5.4,9.46,10.95l0,0
					l-4.92,117.4"/>
			</g>
		</g>
		<g>
			<g>
				<path class="st66" d="M269.84,230.95c0,0,20.45,1.53,40.85-10.44c0,0-10.51,21.06-40.93,17.89L269.84,230.95z"/>
			</g>
		</g>
		<g>
			<g>
				<g>
					<g>
						<g>
							<g>
								<g>
									<path class="st65" d="M334.08,161.85c0.45-0.21,16.36-7.05,16.35,11.16c0,18.21-18.29,14.45-18.32,13.93
										C332.08,186.43,334.08,161.85,334.08,161.85z"/>
								</g>
							</g>
						</g>
					</g>
				</g>
			</g>
		</g>
		<g>
			<g>
				<g>
					<g>
						<g>
							<g>
								<g>
									<g>
										<path class="st66" d="M337.68,180.05c0.08-0.06,0.32,0.22,0.85,0.47c0.52,0.24,1.42,0.4,2.37,0.05
											c1.92-0.71,3.55-3.76,3.63-7.04c0.05-1.66-0.3-3.24-0.89-4.54c-0.56-1.33-1.42-2.26-2.39-2.44
											c-0.96-0.22-1.65,0.36-1.87,0.87c-0.24,0.51-0.13,0.87-0.22,0.9c-0.05,0.05-0.39-0.3-0.24-1.06
											c0.08-0.36,0.29-0.79,0.72-1.14c0.44-0.36,1.08-0.54,1.76-0.46c1.4,0.1,2.67,1.39,3.31,2.82c0.72,1.44,1.15,3.22,1.1,5.08
											c-0.12,3.67-2,7.1-4.63,7.86c-1.28,0.33-2.35-0.05-2.9-0.48C337.71,180.49,337.61,180.08,337.68,180.05z"/>
									</g>
								</g>
							</g>
						</g>
					</g>
				</g>
			</g>
		</g>
		<g>
			<g>
				<path class="st61" d="M354.63,149.6c-1.87-0.15-16.93,1.64-16.03,29.61c0.83,26.13,19.22,20.57,25.16,10.8
					C369.4,180.75,372.91,151.07,354.63,149.6z"/>
			</g>
		</g>
		<g>
			<g>
				<g>
					<path class="st61" d="M363.9,153c-0.02,0-0.04-0.25-0.06-0.74c-0.02-0.55-0.04-1.25-0.07-2.13c-0.03-1.93-0.08-4.62-0.14-7.97
						c-0.07-6.87-0.16-16.41-0.27-27.43l0.33,0.34c-2.48-0.02-5.09-0.05-7.75-0.07l0.35-0.35c0.04,2.08,0.07,4.28,0.11,6.51
						c0.15,10.5,0.29,20.27,0.41,28.45l0,0.24l-0.23,0.05c-3.5,0.78-6.28,2.78-8.04,5.06c-1.8,2.28-2.7,4.71-3.26,6.71
						c-0.56,2.02-0.76,3.66-0.87,4.77c-0.06,0.56-0.09,0.99-0.1,1.27c-0.02,0.29-0.03,0.44-0.05,0.44c-0.02,0-0.04-0.15-0.04-0.44
						c-0.01-0.29-0.01-0.72,0.02-1.29c0.06-1.12,0.2-2.78,0.72-4.84c0.52-2.04,1.39-4.54,3.21-6.92c1.78-2.38,4.67-4.5,8.29-5.34
						l-0.23,0.29c-0.15-8.18-0.33-17.95-0.52-28.45c-0.04-2.23-0.07-4.43-0.1-6.51l-0.01-0.36l0.36,0c2.67,0.03,5.27,0.06,7.75,0.09
						l0.33,0l0,0.33c0.01,11.02,0.01,20.56,0.02,27.43c-0.02,3.35-0.04,6.04-0.06,7.97c-0.02,0.88-0.03,1.59-0.04,2.13
						C363.93,152.75,363.92,153,363.9,153z"/>
				</g>
			</g>
		</g>
		<g>
			<g>
				<path class="st61" d="M354.99,114.65c0,0-7.67-18.49-26.32-27.77c-9.03-4.49-15.8-6.83-22.37-8.56c0,0,10.96-2.48,28.58,5.57
					c8,3.66,16.06,8.4,21.34,15.44c3.36,4.47,7.51,13.18,7.48,15.4L354.99,114.65z"/>
			</g>
		</g>
		<g>
			<g>
				<g>
					<path class="st59" d="M352.13,197.7c-0.01,0.02-0.19-0.03-0.53-0.16c-0.33-0.14-0.82-0.36-1.39-0.74
						c-1.15-0.73-2.67-2.1-3.9-4.25c-1.24-2.13-2.05-5.01-2.33-8.22c-0.28-3.21-0.24-6.75,0.1-10.45c0.35-3.69,1.01-7.18,1.84-10.28
						c0.81-3.1,1.78-5.88,3.09-7.97c1.29-2.1,2.84-3.44,4.01-4.14c0.59-0.36,1.07-0.57,1.41-0.69c0.34-0.12,0.52-0.16,0.53-0.14
						c0.03,0.06-0.69,0.3-1.79,1.06c-1.1,0.75-2.54,2.1-3.73,4.17c-1.21,2.06-2.11,4.79-2.89,7.87c-0.78,3.08-1.42,6.53-1.76,10.19
						c-0.33,3.65-0.39,7.17-0.15,10.33c0.25,3.15,0.98,5.95,2.12,8.04c1.13,2.1,2.55,3.48,3.62,4.26
						C351.44,197.37,352.16,197.63,352.13,197.7z"/>
				</g>
			</g>
		</g>
		<g>
			<g>
				<path class="st59" d="M316.78,96.63c-3.34,4.92-6.73,9.93-8.49,15.61c-1.76,5.68-1.69,12.23,1.61,17.18
					c3.15,4.74,8.63,7.26,13.59,10.05c4.97,2.78,10.05,6.58,11.24,12.15c0.37,1.74-0.44,7.81,0.86,9.03
					c1.77,1.68,4.93,0.69,6.31-1.33c1.38-2.02,2.33-8.68,2.39-11.13c0.19-7.58,0.37-15.16,0.56-22.73
					c0.16-6.42,0.14-13.07-2.58-18.89c-3.8-8.13-11.84-10.8-23.6-10.35"/>
			</g>
		</g>
		<g>
			<g>
				<path class="st59" d="M241.63,141.47c1.09-7.66,3.95-15.16,8.85-21.15c4.9-5.99,11.91-10.38,19.57-11.45
					c7.68-1.08,15.41,1.13,23.15,1.65c7.74,0.52,16.58-1.28,20.7-7.86c1.28-2.05,1.91-4.94,0.32-6.76c-0.6-0.69-1.44-1.12-2.26-1.52
					c-10.22-4.95-21.85-7.26-33.1-5.71c-11.25,1.55-22.06,7.12-29.21,15.94c-7.15,8.83-10.36,20.94-7.7,31.98"/>
			</g>
		</g>
		<g>
			<g>
				<g>
					<path class="st61" d="M237.11,130c-0.04,0.01-0.16-0.33-0.35-1c-0.21-0.66-0.42-1.66-0.58-2.97c-0.32-2.6-0.32-6.52,1.16-11.04
						c1.44-4.48,4.41-9.56,9.28-13.55c4.81-4.03,11.3-6.95,18.43-8.06c7.15-1.12,14.1-0.35,20.13,1.12
						c3.02,0.74,5.84,1.64,8.41,2.63c2.59,0.98,4.9,2.06,7.11,2.67c4.47,0.97,8.3,1.57,10.8,1.07c2.55-0.48,3.47-1.83,3.55-1.7
						c0.02,0.01-0.18,0.33-0.71,0.79c-0.52,0.48-1.45,1-2.75,1.32c-2.65,0.64-6.46,0.16-11.09-0.75c-2.31-0.59-4.66-1.65-7.22-2.57
						c-2.56-0.94-5.35-1.8-8.33-2.5c-5.95-1.39-12.76-2.1-19.73-1.02c-6.95,1.08-13.27,3.9-17.96,7.76
						c-4.75,3.82-7.69,8.69-9.19,13.02c-1.53,4.36-1.65,8.19-1.46,10.75C236.8,128.58,237.22,129.98,237.11,130z"/>
				</g>
			</g>
		</g>
		<g>
			<g>
				<g>
					<path class="st61" d="M271.25,82.51c-0.01-0.07,0.67-0.22,1.92-0.35c1.25-0.13,3.08-0.18,5.32,0.05
						c4.45,0.43,10.71,2.24,16.11,6.64c2.67,2.18,4.9,4.52,7.27,6.17c2.32,1.66,4.89,2.41,7,2.91c2.14,0.47,3.93,0.55,5.13,0.4
						c1.21-0.13,1.83-0.45,1.87-0.37c0.03,0.04-0.54,0.51-1.8,0.78c-1.25,0.29-3.12,0.32-5.35-0.07c-2.2-0.41-4.89-1.1-7.42-2.84
						c-2.51-1.68-4.79-4.04-7.39-6.15c-5.21-4.24-11.21-6.11-15.53-6.72C274.03,82.34,271.27,82.72,271.25,82.51z"/>
				</g>
			</g>
		</g>
		<g>
			<g>
				<g>
					<path class="st61" d="M362.76,139.32c-0.1,0.04-0.41-0.73-1.28-1.9c-0.89-1.14-2.43-2.67-4.8-3.77
						c-2.34-1.12-5.43-1.89-8.87-1.88c-3.46,0-7.25,0.74-11.25,1.44c-4,0.72-7.96,1.14-11.53,0.75c-3.56-0.35-6.68-1.26-9.16-2.31
						c-2.49-1.03-4.34-2.21-5.57-3.07c-1.22-0.87-1.81-1.46-1.78-1.5c0.12-0.18,2.7,1.97,7.63,3.86c2.46,0.93,5.51,1.74,8.97,2.03
						c3.46,0.32,7.27-0.11,11.25-0.83c3.99-0.69,7.85-1.42,11.44-1.37c3.6,0.04,6.8,0.92,9.21,2.19c2.44,1.25,3.98,2.95,4.8,4.21
						c0.38,0.66,0.66,1.18,0.78,1.56C362.74,139.11,362.8,139.31,362.76,139.32z"/>
				</g>
			</g>
		</g>
		<g>
			<g>
				<g>
					<path class="st61" d="M359.62,124.68c-0.09,0.04-0.4-0.72-1.28-1.84c-0.89-1.1-2.47-2.51-4.82-3.48
						c-2.34-0.99-5.41-1.37-8.78-1.03c-3.38,0.3-7.03,1.28-10.98,1.98c-3.93,0.7-7.93,0.84-11.33-0.3
						c-3.39-1.08-6.02-3.04-7.83-4.97c-1.83-1.94-2.85-3.86-3.41-5.22c-0.28-0.68-0.45-1.23-0.53-1.61
						c-0.09-0.38-0.13-0.58-0.09-0.59c0.23-0.12,0.93,3.23,4.59,6.88c1.8,1.79,4.36,3.58,7.58,4.55c3.2,1.02,6.99,0.86,10.85,0.18
						c3.87-0.68,7.58-1.65,11.07-1.9c3.48-0.3,6.74,0.17,9.17,1.32c2.45,1.11,4.04,2.7,4.86,3.93
						C359.49,123.84,359.66,124.67,359.62,124.68z"/>
				</g>
			</g>
		</g>
		<g>
			<g>
				<g>
					<path class="st59" d="M279.3,332.4c-0.01-0.01,0.13-0.12,0.39-0.32c0.26-0.21,0.67-0.49,1.17-0.9c1.02-0.81,2.5-2.05,4.28-3.81
						c1.78-1.75,3.84-4.05,6.06-6.88c2.22-2.83,4.6-6.2,7.2-9.97c5.21-7.55,11.31-16.73,17.79-27.34c3.25-5.3,6.59-10.95,9.97-16.92
						c0.84-1.5,1.69-3.01,2.55-4.53c0.85-1.53,1.73-3.1,2.9-4.51c1.16-1.41,2.7-2.57,4.46-3.16c0.88-0.3,1.83-0.48,2.82-0.28
						c0.49,0.12,0.97,0.37,1.33,0.75c0.38,0.38,0.56,0.88,0.7,1.37l0.03,0.1l-0.04,0.1c-0.23,0.6-0.52,1.21-1,1.71
						c-0.47,0.5-1.16,0.82-1.84,0.86c-1.37,0.07-2.57-0.56-3.6-1.28c-2.24-1.41-3.21-4.56-2.25-7.14c0.46-1.3,1.47-2.4,2.69-3
						c1.22-0.61,2.62-0.8,3.96-0.51c1.3,0.29,2.66,1.07,3.18,2.53c0.27,0.71,0.08,1.67-0.49,2.21c-0.54,0.55-1.21,0.82-1.89,1
						c-2.39,0.56-4.97-0.67-6.09-2.86c-0.56-1.09-0.65-2.42-0.32-3.58c0.31-1.18,0.99-2.23,1.89-3c0.9-0.78,2.06-1.26,3.26-1.23
						c1.18,0.06,2.36,0.59,3.06,1.65c0.35,0.52,0.48,1.21,0.36,1.85c-0.11,0.65-0.53,1.22-1.03,1.56c-1.02,0.69-2.29,0.8-3.4,0.39
						c-1.15-0.45-1.86-1.49-2.25-2.55c-0.4-1.08-0.49-2.21-0.48-3.31c0.07-2.17,0.45-4.42,1.71-6.26c0.66-0.88,1.5-1.67,2.63-1.94
						c1.1-0.26,2.23,0.03,3.14,0.6c0.88,0.58,1.69,1.61,1.55,2.84c-0.1,1.2-1.08,2.13-2.11,2.4c-1.03,0.32-2.2,0.15-3.06-0.53
						c-0.85-0.66-1.34-1.68-1.51-2.7c-0.2-1.01,0-2.12,0.29-3.02c0.27-0.94,0.59-1.87,1.06-2.74c0.45-0.86,1.14-1.68,1.99-2.16
						c0.84-0.49,1.75-0.8,2.71-0.88c0.46-0.03,0.99-0.04,1.47,0.21c0.46,0.24,0.81,0.59,1.09,0.99c0.28,0.4,0.49,0.85,0.59,1.33
						c0.11,0.48,0.09,1.05-0.19,1.52c-0.56,0.97-1.73,1.14-2.59,0.98c-0.91-0.13-1.73-0.64-2.36-1.25c-1.26-1.26-1.93-3.01-2-4.72
						c-0.1-1.71,0.36-3.43,1.33-4.78c0.5-0.66,1.07-1.25,1.79-1.64c0.71-0.39,1.49-0.58,2.27-0.61c0.78-0.01,1.58,0.17,2.21,0.68
						c0.62,0.5,1,1.32,0.92,2.13c-0.2,1.63-1.63,2.71-3.02,2.88c-1.49,0.16-2.74-0.85-3.4-1.97c-0.69-1.14-0.93-2.47-0.82-3.71
						c0.28-2.5,1.56-4.45,2.33-6.34c0.85-1.88,1.63-3.6,2.33-5.14c1.4-3.06,2.49-5.45,3.24-7.11c0.37-0.79,0.65-1.4,0.86-1.84
						c0.2-0.41,0.31-0.62,0.31-0.62s-0.07,0.22-0.25,0.65c-0.19,0.45-0.46,1.07-0.8,1.87c-0.73,1.67-1.78,4.08-3.12,7.16
						c-0.68,1.56-1.44,3.28-2.27,5.17c-0.77,1.91-2.01,3.87-2.25,6.23c-0.1,1.16,0.14,2.4,0.78,3.45c0.6,1.02,1.76,1.9,3,1.74
						c1.21-0.14,2.47-1.16,2.6-2.47c0.07-0.64-0.25-1.3-0.75-1.7c-0.51-0.41-1.21-0.57-1.91-0.56c-0.7,0.02-1.41,0.2-2.04,0.56
						c-0.63,0.34-1.17,0.9-1.61,1.5c-0.88,1.23-1.3,2.84-1.2,4.43c0.07,1.59,0.7,3.2,1.84,4.33c0.59,0.56,1.27,0.98,2.07,1.09
						c0.76,0.13,1.64-0.04,2-0.7c0.37-0.62,0.08-1.54-0.38-2.19c-0.24-0.33-0.54-0.62-0.88-0.8c-0.32-0.18-0.73-0.17-1.16-0.15
						c-1.69,0.18-3.42,1.07-4.2,2.73c-0.43,0.8-0.74,1.7-1,2.61c-0.29,0.93-0.44,1.8-0.27,2.72c0.15,0.89,0.58,1.75,1.28,2.29
						c0.67,0.54,1.64,0.68,2.48,0.41c0.85-0.24,1.56-0.95,1.64-1.83c0.11-0.87-0.5-1.7-1.26-2.2c-0.78-0.49-1.76-0.73-2.65-0.51
						c-0.87,0.2-1.67,0.9-2.23,1.68c-1.13,1.64-1.51,3.79-1.57,5.87c-0.02,1.04,0.09,2.09,0.44,3.04c0.35,0.93,0.99,1.81,1.86,2.14
						c0.88,0.34,1.98,0.23,2.76-0.31c0.82-0.51,1-1.65,0.48-2.44c-0.51-0.8-1.53-1.29-2.51-1.33c-0.99-0.03-2,0.38-2.78,1.06
						c-1.59,1.34-2.37,3.81-1.39,5.7c0.94,1.88,3.27,2.99,5.31,2.49c0.57-0.14,1.16-0.4,1.55-0.8c0.39-0.39,0.5-0.94,0.32-1.47
						c-0.38-1.09-1.52-1.81-2.67-2.06c-2.33-0.54-5.05,0.74-5.84,3.05c-0.84,2.27-0.01,5.06,1.99,6.31
						c0.96,0.68,2.08,1.23,3.16,1.16c1.11-0.03,1.87-1.01,2.24-2.09l-0.01,0.2c-0.19-0.82-0.74-1.44-1.53-1.61
						c-0.78-0.16-1.65-0.02-2.46,0.26c-1.64,0.55-3.06,1.61-4.16,2.95c-1.12,1.33-1.98,2.87-2.83,4.39
						c-0.86,1.53-1.72,3.04-2.56,4.53c-3.4,5.97-6.76,11.62-10.03,16.91c-6.53,10.59-12.68,19.76-17.94,27.28
						c-2.63,3.76-5.04,7.12-7.3,9.94c-2.26,2.82-4.34,5.11-6.16,6.84C281.67,331.02,279.3,332.4,279.3,332.4z"/>
				</g>
			</g>
		</g>
		<path class="st68" d="M297.3,193.13c-0.37,0.89-0.76,1.73-1.15,2.55c-1.08,2.24-2.24,4.24-3.44,6.01
			c-5.08,7.46-11.1,10.89-16.42,10.68c-0.91-0.03-1.75-0.2-2.51-0.49c0,0,0,0,0-0.01c-5.15-1.88-7.16-8.78-7.51-12.92
			c0.95,0.14,1.92,0.24,2.9,0.29C280.62,199.96,293.56,195.62,297.3,193.13z"/>
		<path class="st69" d="M292.71,201.69c-5.08,7.46-11.1,10.89-16.42,10.68c-0.91-0.03-1.75-0.2-2.51-0.49c0,0,0,0,0-0.01
			C272.55,209.53,279.08,204.57,292.71,201.69z"/>
		<path class="st6" d="M297.3,193.13c-0.37,0.89-0.76,1.73-1.15,2.55c-5.76,4.37-18.17,9.2-26.98,3.56
			C280.62,199.96,293.56,195.62,297.3,193.13z"/>
		<path class="st66" d="M274.79,152.61c-1.08,14.36-2.98,22.22-7.32,30.9c-1.63,3.25,4.98,5.42,8.23,6.23
			c-4.37-1.83-6-4.07-6.2-5.18C269.3,183.44,275.6,175.34,274.79,152.61z"/>
		<path class="st70" d="M307.4,159.97c-0.19,3.57-1.93,6.38-3.9,6.28c-1.97-0.1-3.41-3.08-3.23-6.64c0.19-3.57,1.93-6.38,3.9-6.28
			C306.14,153.42,307.59,156.4,307.4,159.97z"/>
		<path class="st70" d="M263.23,157.99c-0.19,3.57-1.93,6.38-3.9,6.28c-1.97-0.1-3.41-3.08-3.23-6.64c0.19-3.57,1.93-6.38,3.9-6.28
			C261.97,151.45,263.42,154.42,263.23,157.99z"/>
		<g>
			<path class="st59" d="M247.44,148.3c1.18-2.07,2.84-3.88,4.78-5.33c1.93-1.46,4.19-2.52,6.6-3.01c2.4-0.47,4.96-0.33,7.24,0.6
				c1.14,0.46,2.19,1.08,3.14,1.82c0.44,0.41,0.92,0.78,1.32,1.23c0.39,0.45,0.78,0.91,1.15,1.37c-1.71-1.65-3.68-3-5.87-3.7
				c-2.19-0.7-4.54-0.8-6.78-0.34c-2.26,0.44-4.4,1.41-6.35,2.66c-0.47,0.34-0.96,0.66-1.43,1.01l-1.34,1.13l-1.27,1.23
				C248.24,147.42,247.84,147.86,247.44,148.3z"/>
		</g>
		<g>
			<path class="st59" d="M292.79,149.26c0.35-0.46,0.7-0.92,1.07-1.37l1.27-1.21l1.45-1.01c0.52-0.27,1.04-0.55,1.58-0.81
				c2.18-0.95,4.61-1.27,6.98-1.03c2.36,0.26,4.68,1.08,6.61,2.45c0.46,0.37,0.96,0.69,1.38,1.11c0.41,0.43,0.86,0.8,1.23,1.26
				c0.34,0.48,0.72,0.93,1.03,1.42c0.29,0.51,0.56,1.02,0.83,1.53c-1.31-1.9-2.96-3.52-4.88-4.68c-1.92-1.15-4.08-1.88-6.3-2.1
				c-2.21-0.25-4.48,0.02-6.6,0.75C296.32,146.31,294.39,147.59,292.79,149.26z"/>
		</g>
		<g>
			<g>
				<g>
					<path class="st61" d="M295.19,200.57l-18.06,3.35c-0.92,0.17-1.81-0.44-1.98-1.36l-0.88-4.72c-0.17-0.92,0.44-1.81,1.36-1.98
						l18.06-3.35c0.92-0.17,1.81,0.44,1.98,1.36l0.88,4.72C296.72,199.51,296.11,200.39,295.19,200.57z"/>
				</g>
			</g>
			<g>
				<g>
					<path class="st61" d="M294.2,194.99l64.13-19.39c1.59-0.48,3.26,0.41,3.75,1.99l0,0c0.51,1.64-0.46,3.38-2.12,3.81
						l-65.54,16.98L294.2,194.99z"/>
				</g>
			</g>
			<g>
				<g>
					<g>
						<path class="st59" d="M341.54,186.67c-0.01-0.05,0.74-0.3,2.12-0.72c1.5-0.44,3.48-1.02,5.86-1.72
							c2.46-0.73,5.48-1.5,8.67-2.51c0.77-0.29,1.52-0.68,2.11-1.27c0.56-0.57,0.93-1.39,0.92-2.21c0.01-0.82-0.51-1.57-1.3-1.84
							c-0.8-0.28-1.76-0.17-2.67,0.05c-7.45,2.31-14.2,4.41-19.23,5.97c-2.38,0.71-4.36,1.3-5.86,1.74
							c-1.39,0.4-2.16,0.59-2.18,0.55c-0.01-0.05,0.73-0.33,2.09-0.81c1.48-0.5,3.43-1.16,5.79-1.95
							c4.91-1.61,11.64-3.84,19.21-6.18c0.98-0.23,2.04-0.38,3.08-0.03c1.05,0.35,1.78,1.44,1.75,2.49c0,1.04-0.45,2-1.14,2.7
							c-0.69,0.68-1.53,1.1-2.35,1.4c-3.31,1.01-6.27,1.7-8.77,2.38c-2.41,0.61-4.41,1.12-5.92,1.5
							C342.33,186.55,341.55,186.71,341.54,186.67z"/>
					</g>
				</g>
			</g>
		</g>
	</g>
</g>
</svg>
