<?xml version="1.0" encoding="utf-8"?>
<!-- Generator: Adobe Illustrator 24.0.0, SVG Export Plug-In . SVG Version: 6.00 Build 0)  -->
<svg version="1.1" id="Layer_1" xmlns="http://www.w3.org/2000/svg" xmlns:xlink="http://www.w3.org/1999/xlink" x="0px" y="0px"
	 viewBox="0 0 500 500" style="enable-background:new 0 0 500 500;" xml:space="preserve">
<style type="text/css">
	.st0{fill:#3C4657;}
	.st1{fill:#313945;}
	.st2{fill:#231F20;}
	.st3{opacity:0.3;}
	.st4{fill:#D1D2D2;}
	.st5{fill:#C9EAFB;}
	.st6{fill:#FFFFFF;}
	
		.st7{fill:none;stroke:#FDF5F9;stroke-width:2.1703;stroke-linecap:round;stroke-linejoin:round;stroke-miterlimit:10;stroke-dasharray:8.6811;}
	.st8{fill:#72256F;}
	.st9{fill:#3C2415;}
	.st10{fill:#B56A57;}
	.st11{opacity:0.4;fill:#B56A57;}
	.st12{fill:#BE1E2D;}
	.st13{fill:#4C3B4B;}
	.st14{fill:#392A38;}
	.st15{fill:#F0645C;}
	.st16{fill:#603913;}
	.st17{fill:#F1F2F2;}
	.st18{fill:#D8792B;}
	.st19{fill:#8AB5CF;}
	.st20{fill:#C6E1F5;}
	.st21{fill:#F79731;}
	.st22{fill:#84A5BA;}
	.st23{fill:#658CA2;}
	.st24{fill:#9CC3DB;}
	.st25{fill:#72A749;}
	.st26{fill:#87C557;}
	.st27{fill:#C1DA73;}
	.st28{fill:#D77A40;}
	.st29{fill:#BFE068;}
	.st30{fill:#F7FAFB;}
	.st31{fill:#FBB040;}
	.st32{fill:#F5F5F6;}
	.st33{fill:url(#SVGID_1_);}
	.st34{fill:none;stroke:#F7FAFB;stroke-width:3.0845;stroke-miterlimit:10;}
	.st35{fill:#D4F0F5;}
	.st36{opacity:0.57;}
	.st37{fill:#92D5E4;}
	.st38{fill:#FFFFFF;stroke:#852170;stroke-width:0.9103;stroke-miterlimit:10;}
	.st39{fill:#852170;}
	.st40{fill:none;stroke:#852170;stroke-width:0.4552;stroke-miterlimit:10;}
	.st41{opacity:0.5;fill:#852170;}
	.st42{opacity:0.4;}
	.st43{clip-path:url(#SVGID_3_);}
	.st44{opacity:0.63;}
	.st45{fill:#B9E5EE;}
	.st46{fill:#FF9F66;}
	.st47{fill:#73ADDB;}
	.st48{fill:#2E214C;}
	.st49{fill:#43305F;}
	.st50{fill:#FF8A31;}
	.st51{fill:#549CCB;}
	.st52{fill:#FF9B3A;}
	.st53{fill:#F2763F;}
	.st54{fill:#4489B4;}
	.st55{fill:#F17D24;}
	.st56{opacity:0.74;}
	.st57{clip-path:url(#SVGID_5_);}
	.st58{fill:#E8505B;}
	.st59{fill:#263238;}
	.st60{opacity:0.2;}
	.st61{fill:#455A64;}
	.st62{fill:#ADD337;}
	.st63{opacity:0.69;fill:#FFFFFF;}
	.st64{fill:#FAFAFA;}
	.st65{fill:#FFBE9D;}
	.st66{fill:#CC8F75;}
	.st67{opacity:0.78;}
	.st68{fill:#7C2639;}
	.st69{fill:#E28088;}
	.st70{fill:#222228;}
	.st71{fill:#F0A2F4;}
	.st72{fill:#684D34;}
	.st73{fill:#604966;}
	.st74{fill:#3F1E47;}
	.st75{fill:#936754;}
	.st76{fill:#EB996E;}
	.st77{fill:#7F584A;}
	.st78{fill:#0A0705;}
	.st79{fill:#60381A;}
	.st80{fill:#7C5142;}
	.st81{opacity:0.6;}
	.st82{fill:#3D3D3D;}
	.st83{fill:#6FB56B;}
	.st84{fill:#97F794;}
	.st85{fill:#754925;}
	.st86{fill:#5E3A1E;}
	.st87{fill:#AFA15B;}
	.st88{fill:#FFEE8D;}
	.st89{fill:#B78876;}
	.st90{fill:#F5F5F5;}
	.st91{fill:#BF594F;}
	.st92{fill:#FF725E;}
	.st93{fill:#C96565;}
	.st94{fill:#B57662;}
	.st95{fill:#EA9898;}
	.st96{fill:#7C4A4A;}
	.st97{fill:#EBEBEB;}
	.st98{fill:#E0E0E0;}
	.st99{opacity:0.5;}
	.st100{fill:#995037;}
	.st101{fill:#773C2C;}
	.st102{fill:none;}
	.st103{fill:#E5BAAB;}
	.st104{fill:#D78776;}
	.st105{fill:#BC93B4;}
	.st106{fill:#B77153;}
	.st107{fill:#724940;}
	.st108{fill:#A56B65;}
	.st109{fill:#492F1B;}
	.st110{fill:#4B6EBC;}
	.st111{fill:#3D5C91;}
	.st112{fill:#A4CC64;}
	.st113{fill:#0086BF;}
	.st114{fill:none;stroke:#4E585D;stroke-miterlimit:10;}
	.st115{fill:#AF5858;}
	.st116{fill:#71A5BC;}
	.st117{fill:#AF7127;}
	.st118{fill:#4C3D2D;}
	.st119{fill:#AA6550;}
	.st120{fill:#93584A;}
</style>
<g>
	<g>
		
			<ellipse transform="matrix(0.7071 -0.7071 0.7071 0.7071 -112.7635 244.7264)" class="st63" cx="239.03" cy="258.48" rx="183.98" ry="183.98"/>
		<g>
			<path class="st29" d="M449.92,140.45c0,0-15.36-5.57-23.87,30.02c-8.51,35.58-10.22,55.34-10.22,55.34s-2.67,7.67-8.28,4.43
				c-5.61-3.24-14.82-14.05-22.04-9.96c-7.49,4.24-7.97,13.85-3.26,26.66c4.71,12.82,14.01,41.27,14.84,43.85
				c0.82,2.53,0.26,6.68-3.92,5.08c-4.17-1.6-30.3-19.57-38.09-6.66c-7.79,12.91,11.21,46.46,13.21,50.16
				c2.01,3.71,1.64,5.59-0.01,7.02c-1.65,1.43-9.86-5.44-17.5-10.24c-7.64-4.81-17.34-9.04-21.21-1.22
				c-3.87,7.82,0.91,35.28,37.23,72.99l17.97,16.37l23.38-7.03c49.13-18.09,65.4-40.71,65.33-49.44
				c-0.07-8.73-10.65-9.15-19.62-8.16c-8.97,0.99-19.36,3.59-20.22,1.58c-0.85-2.01-0.37-3.86,3.06-6.32
				c3.42-2.46,35.15-24.36,33.77-39.38c-1.38-15.01-32.73-10.24-37.18-10.62c-4.45-0.38-3.15-4.36-1.31-6.28
				c1.87-1.96,22.65-23.51,32.48-32.99c9.83-9.48,13.59-18.34,8.7-25.42c-4.71-6.83-17.72-1.12-24.18-0.65
				c-6.46,0.47-5.51-7.59-5.51-7.59s7.07-18.52,14.94-54.25c7.86-35.73-8.81-37.39-8.81-37.39"/>
			<g>
				<path class="st25" d="M442.03,173.04c-0.13,0.54-0.31,1.27-0.54,2.19c-0.46,1.99-1.12,4.81-1.96,8.43
					c-1.7,7.38-4.13,17.96-7.13,31.01c-6.15,26.21-14.63,62.32-23.99,102.2c-9.43,39.91-17.84,76.07-23.69,102.3
					c-0.38,1.71-0.75,3.37-1.11,5c0.23,0.04,0.46,0.09,0.69,0.15c0.37-1.62,0.75-3.28,1.15-4.98
					c6.15-26.21,14.63-62.32,23.99-102.22c9.43-39.9,17.84-76.05,23.69-102.28c2.93-13.11,5.26-23.73,6.81-31.09
					c0.76-3.63,1.35-6.48,1.77-8.47c0.18-0.93,0.33-1.66,0.43-2.21c0.09-0.5,0.13-0.76,0.11-0.76
					C442.23,172.3,442.15,172.55,442.03,173.04z"/>
			</g>
			<g>
				<path class="st25" d="M397.79,235.91c0.12-0.07,1.47,2.04,3.48,5.55c2,3.51,4.63,8.44,7.42,13.93
					c2.68,5.37,5.1,10.22,7.04,14.11c1.79,3.61,2.95,5.82,2.82,5.9c-0.12,0.07-1.5-2.02-3.47-5.55c-1.97-3.53-4.53-8.49-7.32-13.98
					c-2.72-5.35-5.17-10.18-7.14-14.05C398.79,238.21,397.66,235.98,397.79,235.91z"/>
			</g>
			<g>
				<path class="st25" d="M420.82,275.29c-0.14-0.25,9.76-6.14,22.11-13.16c12.35-7.02,22.48-12.5,22.62-12.25
					c0.14,0.25-9.75,6.14-22.11,13.16C431.09,270.06,420.96,275.54,420.82,275.29z"/>
			</g>
			<g>
				<path class="st25" d="M403.57,335.91c-0.03-0.15,2.45-0.75,6.45-1.73c4-0.98,9.52-2.34,15.56-4.05
					c6.05-1.69,11.47-3.4,15.39-4.66c3.92-1.25,6.35-2.03,6.4-1.89c0.05,0.13-2.29,1.15-6.16,2.59c-3.87,1.44-9.28,3.26-15.35,4.96
					c-6.06,1.71-11.63,2.97-15.68,3.77C406.13,335.7,403.59,336.05,403.57,335.91z"/>
			</g>
			<g>
				<path class="st25" d="M374.9,304.88c0.1-0.1,1.82,1.52,4.51,4.22c2.69,2.7,6.35,6.48,10.34,10.69c4,4.22,7.57,8.08,10.12,10.91
					c2.55,2.83,4.08,4.63,3.97,4.73c-0.1,0.1-1.82-1.52-4.51-4.22c-2.69-2.7-6.35-6.48-10.35-10.7c-4-4.22-7.57-8.08-10.12-10.9
					C376.32,306.78,374.8,304.98,374.9,304.88z"/>
			</g>
		</g>
		<g>
			<g>
				<path class="st25" d="M47.81,229.73c0,0,0.29-0.13,0.9-0.2c0.61-0.07,1.56-0.03,2.7,0.4c1.14,0.42,2.43,1.26,3.66,2.55
					c1.25,1.29,2.34,3.06,3.41,5.13c2.07,4.2,3.45,9.8,5.03,16.3c1.54,6.53,3.24,14.03,4.4,22.58l-0.01-0.06
					c0.51,1.23,1.47,2.64,2.84,2.71c0.68,0.01,1.31-0.34,1.93-0.77c0.62-0.44,1.22-0.92,1.82-1.41c1.21-0.98,2.45-2,3.85-2.86
					c1.38-0.81,3.08-1.6,4.88-1.13c1.71,0.54,3.06,1.83,3.87,3.43c0.77,1.62,0.97,3.46,0.85,5.24c-0.19,3.62-1.62,7.04-2.66,10.58
					c-1.1,3.54-2.23,7.17-3.39,10.88c-0.58,1.86-1.16,3.73-1.75,5.63c-0.3,0.95-0.59,1.9-0.89,2.86c-0.15,0.5-0.32,0.94-0.34,1.39
					c-0.04,0.46,0.02,0.93,0.2,1.3c0.34,0.8,1.35,0.63,2.2,0.15c0.89-0.49,1.79-0.99,2.7-1.49c1.82-1,3.69-1.96,5.67-2.76
					c1.97-0.79,4.05-1.47,6.28-1.6c1.1-0.06,2.26,0.07,3.33,0.52c1.07,0.44,2,1.25,2.59,2.25c1.21,2.03,1.27,4.43,1.07,6.65
					c-0.23,2.24-0.71,4.46-1.39,6.63c-1.33,4.34-3.19,8.57-5.28,12.72c-0.5,1.05-1.15,2.06-1.45,3.08
					c-0.14,0.51-0.17,1.03,0.04,1.44c0.1,0.21,0.25,0.4,0.44,0.57c0.09,0.07,0.17,0.07,0.45,0c0.98-0.34,1.98-1.06,2.95-1.7
					c0.97-0.68,1.94-1.36,2.91-2.04c1.96-1.36,3.97-2.73,6.21-3.74c1.12-0.5,2.31-0.91,3.59-1.05c1.25-0.17,2.69,0.1,3.72,1
					c1.04,0.86,1.61,2.16,1.79,3.42c0.14,0.63,0.12,1.27,0.18,1.9c-0.03,0.63-0.03,1.26-0.1,1.89c-0.24,2.51-0.91,4.94-1.77,7.3
					c-1.69,4.74-4.17,9.2-7,13.44c-2.83,4.25-6.07,8.25-9.56,12.1c-1.68,2-3.66,3.68-5.54,5.48c-1.9,1.78-3.8,3.57-5.72,5.37
					l-0.18,0.17L87,385.89c-0.34-0.1-0.7-0.21-1.07-0.32c-2.53-0.77-5.05-1.53-7.56-2.29l-3.76-1.14c-1.24-0.42-2.44-0.95-3.67-1.42
					c-4.84-1.97-9.54-4.16-14-6.72c-4.45-2.56-8.66-5.5-12.35-8.97c-1.82-1.75-3.55-3.62-4.92-5.76c-0.65-1.09-1.29-2.19-1.63-3.46
					c-0.37-1.24-0.38-2.67,0.27-3.89c0.68-1.23,1.96-1.9,3.17-2.25c1.24-0.33,2.49-0.42,3.73-0.43c2.48,0.01,4.89,0.39,7.26,0.78
					c1.18,0.19,2.36,0.38,3.53,0.57c0.58,0.08,1.17,0.16,1.75,0.2c0.55,0.04,1.21,0.07,1.55-0.08c0.11-0.06,0.03,0.01,0.1-0.09
					c0.05-0.12,0.08-0.24,0.1-0.36c0.04-0.24,0.03-0.47-0.03-0.69c-0.14-0.45-0.49-0.88-0.89-1.25c-0.82-0.73-1.86-1.37-2.78-2.08
					c-3.77-2.79-7.36-5.73-10.56-9c-1.59-1.64-3.09-3.36-4.33-5.27c-1.2-1.89-2.3-4.05-2.14-6.43c0.09-1.17,0.58-2.32,1.38-3.18
					c0.8-0.87,1.83-1.42,2.86-1.83c2.09-0.8,4.28-1.04,6.41-1.16c2.14-0.11,4.26-0.03,6.35,0.09c1.04,0.06,2.09,0.15,3.09,0.17
					c0.47,0.01,0.97-0.06,1.27-0.29c0.31-0.21,0.41-0.59,0.32-1.02c-0.16-0.9-0.85-1.58-1.59-2.3c-0.71-0.72-1.42-1.43-2.12-2.14
					c-1.41-1.42-2.8-2.82-4.18-4.21c-2.75-2.78-5.45-5.5-8.08-8.15c-2.57-2.68-5.42-5.08-7.32-8.18c-0.96-1.52-1.69-3.22-1.82-5.02
					c-0.09-1.8,0.49-3.62,1.8-4.88c1.42-1.22,3.31-1.22,4.91-1.09c1.64,0.17,3.21,0.55,4.74,0.9c0.76,0.18,1.52,0.35,2.27,0.48
					c0.75,0.12,1.49,0.19,2.1-0.09c1.27-0.58,1.46-2.33,1.33-3.65l0.02,0.06c-3-8.03-5.04-15.4-6.76-21.85
					c-1.67-6.44-3.11-11.99-3.31-16.63c-0.28-4.62,0.79-8.28,2.45-10.08c0.8-0.91,1.64-1.37,2.21-1.58
					c0.58-0.21,0.89-0.22,0.89-0.22s-0.31,0.05-0.87,0.29c-0.55,0.23-1.36,0.69-2.13,1.6c-1.59,1.79-2.61,5.39-2.29,9.97
					c0.24,4.6,1.72,10.11,3.42,16.55c1.75,6.42,3.83,13.79,6.85,21.76l0.01,0.03l0,0.02c0.08,0.77,0.06,1.53-0.14,2.3
					c-0.21,0.74-0.66,1.56-1.47,1.89c-0.79,0.36-1.65,0.25-2.41,0.14c-0.78-0.13-1.54-0.3-2.31-0.48c-1.53-0.35-3.08-0.72-4.67-0.87
					c-1.55-0.13-3.29-0.08-4.48,0.96c-1.11,1.07-1.69,2.78-1.59,4.41c0.12,1.66,0.81,3.27,1.74,4.74c1.84,2.99,4.66,5.35,7.25,8.04
					c2.64,2.65,5.34,5.36,8.11,8.14c1.38,1.39,2.78,2.79,4.19,4.21c0.71,0.71,1.42,1.42,2.13,2.14c0.69,0.67,1.57,1.48,1.78,2.65
					c0.13,0.55-0.02,1.34-0.6,1.72c-0.54,0.38-1.14,0.42-1.68,0.42c-1.06-0.02-2.08-0.11-3.12-0.16c-2.07-0.12-4.17-0.18-6.27-0.07
					c-2.09,0.12-4.22,0.37-6.18,1.13c-0.97,0.38-1.9,0.9-2.58,1.65c-0.69,0.74-1.1,1.71-1.18,2.73c-0.15,2.08,0.86,4.14,2.03,5.96
					c1.2,1.84,2.67,3.54,4.24,5.15c3.16,3.22,6.73,6.14,10.48,8.9c0.93,0.71,1.91,1.3,2.85,2.13c0.45,0.42,0.9,0.92,1.12,1.61
					c0.1,0.34,0.12,0.72,0.05,1.06c-0.03,0.17-0.08,0.34-0.14,0.49c-0.04,0.16-0.32,0.5-0.49,0.52c-0.77,0.29-1.34,0.18-1.96,0.16
					c-0.61-0.04-1.2-0.13-1.8-0.21c-1.18-0.19-2.36-0.38-3.55-0.57c-2.36-0.38-4.74-0.76-7.13-0.76c-1.19,0-2.39,0.09-3.51,0.4
					c-1.11,0.32-2.15,0.9-2.68,1.86c-1.06,2.04,0.09,4.52,1.34,6.52c1.31,2.05,3,3.88,4.8,5.6c3.62,3.41,7.79,6.31,12.2,8.85
					c4.42,2.54,9.1,4.71,13.89,6.66c1.21,0.46,2.39,0.99,3.63,1.4l3.75,1.14c2.51,0.76,5.02,1.52,7.55,2.29
					c0.36,0.11,0.73,0.22,1.06,0.32l-0.41,0.1c1.91-1.79,3.81-3.58,5.7-5.36c1.87-1.8,3.86-3.48,5.51-5.45
					c3.44-3.8,6.68-7.78,9.48-11.99c2.8-4.2,5.26-8.6,6.92-13.25c0.84-2.31,1.49-4.7,1.73-7.11c0.07-0.6,0.06-1.2,0.09-1.8
					c-0.05-0.59-0.03-1.2-0.16-1.76c-0.15-1.15-0.66-2.23-1.51-2.95c-0.83-0.72-1.98-0.96-3.12-0.81c-1.14,0.12-2.26,0.51-3.34,0.99
					c-2.16,0.97-4.14,2.31-6.08,3.66c-0.98,0.68-1.95,1.36-2.92,2.04c-1,0.66-1.93,1.36-3.18,1.8c-0.17,0.04-0.33,0.1-0.56,0.08
					c-0.16,0.05-0.57-0.16-0.65-0.26c-0.24-0.22-0.47-0.49-0.62-0.81c-0.32-0.66-0.25-1.39-0.09-1.99c0.37-1.23,1.02-2.19,1.51-3.23
					c2.08-4.12,3.92-8.32,5.24-12.59c0.67-2.13,1.15-4.31,1.37-6.47c0.21-2.14,0.12-4.41-0.95-6.19c-1.04-1.83-3.19-2.57-5.25-2.42
					c-2.08,0.11-4.11,0.76-6.04,1.54c-1.93,0.78-3.79,1.73-5.6,2.72c-0.91,0.5-1.81,1-2.72,1.49c-0.46,0.24-1,0.48-1.61,0.49
					c-0.62,0.05-1.29-0.39-1.54-0.95c-0.51-1.08-0.22-2.31,0.11-3.2c0.3-0.96,0.6-1.91,0.9-2.86c0.6-1.9,1.19-3.77,1.77-5.63
					c1.17-3.71,2.31-7.34,3.42-10.88c1.05-3.56,2.47-6.93,2.65-10.41c0.12-1.72-0.07-3.45-0.78-4.94c-0.7-1.46-2.01-2.68-3.48-3.14
					c-1.52-0.41-3.1,0.27-4.44,1.06c-1.36,0.83-2.58,1.83-3.8,2.81c-0.61,0.49-1.22,0.98-1.86,1.43c-0.63,0.43-1.39,0.87-2.25,0.85
					c-0.86-0.02-1.6-0.53-2.12-1.1c-0.52-0.59-0.9-1.25-1.19-1.96l-0.01-0.02l0-0.04c-1.11-8.49-2.77-16.02-4.28-22.54
					c-1.54-6.51-2.87-12.1-4.89-16.27c-1.03-2.06-2.1-3.83-3.31-5.11c-1.2-1.29-2.45-2.13-3.56-2.56
					C49.09,229.2,47.78,229.8,47.81,229.73z"/>
			</g>
			<g>
				<path class="st25" d="M52.2,247.27c0.01,0,0.06,0.13,0.15,0.4c0.09,0.31,0.21,0.71,0.35,1.19c0.31,1.11,0.74,2.65,1.28,4.6
					c1.1,4,2.63,9.8,4.49,16.97c3.72,14.35,8.67,34.22,14.04,56.18c5.38,21.94,10.26,41.79,13.8,56.24
					c1.77,7.14,3.21,12.94,4.23,17.03c0.48,1.96,0.85,3.51,1.13,4.64c0.11,0.49,0.2,0.89,0.27,1.21c0.06,0.27,0.08,0.42,0.07,0.42
					c-0.01,0-0.06-0.13-0.15-0.4c-0.09-0.31-0.21-0.71-0.35-1.19c-0.31-1.11-0.74-2.65-1.28-4.6c-1.1-4-2.63-9.79-4.49-16.97
					c-3.72-14.35-8.67-34.22-14.04-56.19c-5.38-21.93-10.25-41.79-13.8-56.23c-1.77-7.14-3.21-12.95-4.23-17.03
					c-0.48-1.96-0.85-3.51-1.13-4.64c-0.11-0.49-0.2-0.89-0.27-1.21C52.21,247.41,52.19,247.27,52.2,247.27z"/>
			</g>
			<g>
				<path class="st25" d="M46.53,289.21c0.06-0.09,1.26,0.6,3.12,1.85c1.86,1.25,4.37,3.05,7.08,5.12c2.72,2.06,5.14,3.97,6.89,5.35
					c1.75,1.38,2.84,2.23,2.77,2.33c-0.06,0.09-1.27-0.59-3.12-1.86c-1.85-1.26-4.33-3.1-7.05-5.16c-2.57-1.97-4.89-3.75-6.92-5.3
					C47.54,290.17,46.46,289.3,46.53,289.21z"/>
			</g>
			<g>
				<path class="st25" d="M67.47,303.27c-0.19-0.13,3.08-5.4,7.31-11.78c4.23-6.38,7.81-11.45,8.01-11.32
					c0.19,0.13-3.08,5.4-7.31,11.78C71.25,298.33,67.66,303.4,67.47,303.27z"/>
			</g>
			<g>
				<path class="st25" d="M74.22,337.33c-0.15-0.2,4.13-3.61,9.12-8.13c5-4.52,8.82-8.44,9-8.27c0.08,0.08-0.77,1.15-2.27,2.79
					c-1.5,1.64-3.65,3.83-6.17,6.1c-2.51,2.28-4.9,4.2-6.68,5.53C75.44,336.68,74.28,337.42,74.22,337.33z"/>
			</g>
			<g>
				<path class="st25" d="M52.62,328.72c0.04-0.11,1.29,0.26,3.27,0.94c1.98,0.68,4.7,1.67,7.68,2.82c2.98,1.15,5.67,2.23,7.6,3.05
					c1.93,0.82,3.1,1.38,3.06,1.49c-0.04,0.11-1.29-0.26-3.27-0.94c-1.98-0.68-4.7-1.67-7.68-2.82c-2.98-1.15-5.67-2.23-7.6-3.05
					C53.75,329.39,52.58,328.83,52.62,328.72z"/>
			</g>
			<g>
				<path class="st25" d="M54.81,359.43c0.04-0.11,1.63,0.37,4.17,1.24c2.54,0.87,6.03,2.12,9.87,3.55
					c3.84,1.43,7.29,2.77,9.78,3.78c2.49,1.01,4.01,1.69,3.97,1.8c-0.04,0.11-1.63-0.37-4.17-1.24c-2.54-0.87-6.03-2.12-9.87-3.55
					c-3.84-1.43-7.29-2.77-9.78-3.78C56.29,360.22,54.77,359.54,54.81,359.43z"/>
			</g>
			<g>
				<path class="st25" d="M81.99,369.37c-0.08-0.09,1.19-1.28,3.26-3.18c2.06-1.9,4.92-4.52,8.01-7.48c3.09-2.96,5.84-5.7,7.82-7.68
					c1.99-1.98,3.23-3.2,3.32-3.12c0.08,0.08-1.01,1.43-2.89,3.52c-1.88,2.09-4.57,4.91-7.67,7.88c-3.1,2.97-6.03,5.53-8.2,7.33
					C83.47,368.43,82.06,369.46,81.99,369.37z"/>
			</g>
		</g>
		<g>
			<g>
				<g>
					<path class="st62" d="M89.42,447.71c0.4-0.2,0.8-0.41,1.2-0.64c11.16-10.83,11.37-27.61,8.49-42.2
						c-0.48-2.44-0.63-5.06-2.14-7.02c-1.51-1.96-4.47-2.99-6.49-1.6c-1.68,1.15-2.13,3.39-2.86,5.31c-0.98,2.55-2.68,4.8-4.85,6.42
						c-1.43,1.06-3.28,1.87-4.95,1.27c-2.3-0.82-3.02-3.7-3.4-6.14c-0.71-4.54-1.41-9.09-2.12-13.63c-0.38-2.44-0.78-4.93-1.91-7.11
						c-1.13-2.19-3.15-4.06-5.58-4.34c-2.42-0.27-5.07,1.53-5.17,3.99c-0.04,1.03,0.33,2.02,0.42,3.04c0.1,1.02-0.19,2.22-1.11,2.65
						c-0.93,0.44-2.01-0.09-2.86-0.68c-2.91-2.05-5.13-4.94-7.24-7.83c-2.1-2.89-4.17-5.87-6.89-8.18
						c-2.72-2.31-6.21-3.93-9.73-3.56c-3.52,0.37-6.89,3.12-7.21,6.69c-0.33,3.58,2.24,6.74,4.87,9.16c3.9,3.6,8.32,6.63,13.07,8.95
						c0.86,0.42,1.78,0.87,2.22,1.73c0.79,1.54-0.48,3.4-2,4.19c-1.72,0.9-3.72,1.03-5.58,1.56c-1.86,0.53-3.78,1.7-4.21,3.61
						c-0.59,2.65,1.91,4.92,4.24,6.3c4.66,2.76,9.78,4.7,15.07,5.72c1.9,0.37,3.88,0.63,5.53,1.66c1.65,1.03,2.88,3.07,2.28,4.93
						c-0.6,1.86-2.75,2.77-4.68,2.73c-1.93-0.04-3.78-0.79-5.68-1.17c-3.55-0.72-7.84,0.21-9.51,3.45c-1.1,2.13-0.8,4.8,0.28,6.95
						c1.08,2.15,2.84,3.87,4.67,5.42c6.38,5.42,14.07,9.38,22.27,10.81c7.63,1.33,14.49,1.04,21.25-2.28
						C89.2,447.81,89.31,447.76,89.42,447.71z"/>
				</g>
			</g>
			<g>
				<g>
					<g>
						<path class="st25" d="M89.32,447.76c-1.13-2.98-2.45-6.08-3.97-9.27c-3.36-7.05-7.68-14.48-12.47-22.09
							c-1.2-1.9-2.39-3.77-3.57-5.62c-1.17-1.84-2.34-3.67-3.59-5.39c-2.49-3.45-5.14-6.57-7.75-9.45
							c-2.61-2.89-5.19-5.53-7.62-7.99c-2.44-2.45-4.75-4.69-6.95-6.65c-4.39-3.93-8.29-6.67-11.05-8.44
							c-1.38-0.89-2.47-1.55-3.21-1.98c-0.36-0.21-0.64-0.37-0.85-0.49c-0.19-0.11-0.29-0.16-0.3-0.15c0,0.01,0.09,0.07,0.27,0.19
							c0.21,0.13,0.48,0.31,0.83,0.53c0.73,0.46,1.8,1.14,3.17,2.05c2.72,1.82,6.58,4.59,10.93,8.53c2.18,1.96,4.48,4.21,6.9,6.67
							c2.42,2.47,4.99,5.12,7.58,8.01c2.59,2.89,5.23,6,7.7,9.43c1.24,1.71,2.39,3.52,3.57,5.37c1.17,1.85,2.36,3.72,3.56,5.62
							c4.78,7.61,9.11,15.01,12.48,22.03c1.54,3.2,2.88,6.31,4.02,9.29C89.09,447.89,89.2,447.82,89.32,447.76z"/>
					</g>
				</g>
			</g>
			<g>
				<g>
					<g>
						<path class="st25" d="M65.59,405.4c0.03,0,0.05-0.38,0.07-1.08c0.02-0.69,0.01-1.7-0.01-2.94c-0.05-2.48-0.23-5.9-0.45-9.68
							c-0.22-3.78-0.35-7.19-0.36-9.67c-0.01-1.24-0.01-2.24,0-2.93c0.01-0.69,0-1.08-0.04-1.08c-0.03,0-0.08,0.38-0.14,1.07
							c-0.07,0.69-0.12,1.69-0.15,2.94c-0.07,2.48,0.01,5.92,0.23,9.69c0.22,3.72,0.43,7.09,0.58,9.67
							c0.06,1.16,0.11,2.14,0.16,2.93C65.52,405.02,65.55,405.4,65.59,405.4z"/>
					</g>
				</g>
			</g>
			<g>
				<g>
					<g>
						<path class="st25" d="M33.33,404.62c0,0.03,0.46,0.01,1.27-0.05c0.82-0.06,1.99-0.15,3.45-0.22
							c2.92-0.16,6.96-0.23,11.42-0.11c4.46,0.12,8.49,0.4,11.4,0.69c1.46,0.13,2.63,0.27,3.45,0.37c0.81,0.1,1.26,0.13,1.27,0.1
							c0-0.03-0.44-0.13-1.25-0.28c-0.81-0.15-1.98-0.34-3.44-0.51c-2.91-0.37-6.95-0.71-11.43-0.83
							c-4.47-0.11-8.52,0.01-11.45,0.25c-1.46,0.11-2.64,0.25-3.45,0.36C33.77,404.51,33.32,404.59,33.33,404.62z"/>
					</g>
				</g>
			</g>
			<g>
				<g>
					<g>
						<path class="st25" d="M84.87,437.98c0.02,0,0.07-0.14,0.15-0.42c0.1-0.33,0.21-0.73,0.35-1.22c0.3-1.06,0.7-2.61,1.16-4.52
							c0.93-3.83,2.05-9.17,3.2-15.07c1.15-5.9,2.22-11.24,3.07-15.09c0.42-1.87,0.76-3.41,1.02-4.55c0.11-0.5,0.2-0.9,0.27-1.24
							c0.06-0.28,0.08-0.44,0.06-0.44c-0.02,0-0.07,0.14-0.15,0.42c-0.1,0.33-0.21,0.73-0.35,1.22c-0.3,1.06-0.7,2.61-1.16,4.52
							c-0.93,3.83-2.05,9.17-3.2,15.07c-1.15,5.9-2.22,11.24-3.07,15.08c-0.42,1.87-0.76,3.41-1.02,4.55
							c-0.11,0.5-0.2,0.91-0.27,1.24C84.87,437.83,84.85,437.98,84.87,437.98z"/>
					</g>
				</g>
			</g>
			<g>
				<g>
					<g>
						<path class="st25" d="M41.08,431.32c0,0.02,0.15,0.05,0.44,0.1c0.34,0.06,0.76,0.13,1.27,0.21c1.17,0.18,2.76,0.43,4.69,0.72
							c3.96,0.61,9.42,1.52,15.45,2.52c6.03,1.01,11.51,1.87,15.48,2.39c1.99,0.26,3.6,0.46,4.71,0.58
							c0.52,0.05,0.94,0.09,1.28,0.12c0.29,0.02,0.45,0.03,0.45,0.01c0-0.02-0.15-0.05-0.44-0.1c-0.34-0.06-0.76-0.12-1.27-0.21
							c-1.17-0.18-2.76-0.42-4.69-0.72c-3.96-0.61-9.42-1.52-15.45-2.53c-6.03-1.01-11.5-1.87-15.48-2.39
							c-1.99-0.27-3.6-0.46-4.71-0.58c-0.51-0.05-0.94-0.09-1.28-0.12C41.24,431.3,41.09,431.3,41.08,431.32z"/>
					</g>
				</g>
			</g>
		</g>
		<g>
			<g>
				<g>
					<g>
						<g>
							<path class="st116" d="M378.01,389.18c12.44-1.31,52.31-2.17,64.61,0.07c12.3,2.24,26.44,13.69,31.71,23.91
								c5.91,11.45,4.91,33.39-4.46,42.71c-9.37,9.32-26.19,6.54-40.05,8.53c-13.86,1.98-28.02,1.27-42.08,0.9
								c-88.25-2.32-177.16,9.28-264.45-3.04c-11.14-1.57-22.96-3.88-30.83-11.14c-8.71-8.03-10.42-20.04-11.68-31.14
								c-1-8.78-1.75-18.42,3.96-25.57c3.74-4.69,9.79-7.47,16.17-8.64c-10.22-12.73-15.23-22.1-15.76-32.94
								c-0.93-19.18,3.99-33.38,5.1-52.33c1.11-18.96,1.16-38.33-4.27-56.49c-3.31-11.06-8.22-24.29-0.84-33.06
								c4.26-5.06,11.24-6.52,17.69-7.59c77.26-12.81,156.11-13.09,234.18-7.41c9.31,0.68,19.63,1.94,25.69,9.19
								c4.87,5.83,5.66,14.18,4.75,21.78c-0.91,7.6-3.3,14.97-3.94,22.6C360.47,285.77,410.82,347.71,378.01,389.18"/>
						</g>
					</g>
					<g>
						<g>
							<path class="st59" d="M362.05,204.41c0,0-1.32-0.78-3.96-2c-2.64-1.19-6.67-2.8-12.12-3.73c-5.44-0.99-12.19-1.19-19.99-1.61
								c-7.81-0.4-16.7-0.78-26.53-1.11c-19.67-0.68-43.1-1.06-69.12-0.82c-26.02,0.24-54.62,1.17-84.59,3.01
								c-3.75,0.25-7.47,0.49-11.17,0.73c-3.7,0.24-7.39,0.49-11.01,1.2c-3.6,0.7-7.18,1.9-10.16,4.1c-1.48,1.1-2.79,2.43-3.84,3.94
								c-1.04,1.52-1.83,3.2-2.41,4.93c-1.15,3.48-1.4,7.16-1.13,10.72c0.29,3.57,1.1,7.02,2.02,10.37c0.93,3.35,2,6.61,2.85,9.89
								c0.91,3.26,1.63,6.54,2.28,9.78c2.56,13,3.16,25.69,2.4,37.45c-0.38,5.88-1.11,11.54-2.11,16.91
								c-0.97,5.38-2.27,10.47-3.48,15.34c-2.47,9.71-4.59,18.58-5.26,26.57c-0.72,7.97-0.01,14.92,1.37,20.37
								c0.7,2.72,1.56,5.07,2.42,7.05c0.9,1.96,1.79,3.56,2.58,4.8c0.41,0.61,0.77,1.15,1.08,1.61c0.34,0.44,0.63,0.81,0.86,1.11
								c0.47,0.59,0.72,0.88,0.72,0.88s-0.22-0.32-0.67-0.92c-0.23-0.3-0.51-0.68-0.84-1.12c-0.31-0.47-0.66-1.01-1.06-1.62
								c-0.77-1.25-1.64-2.84-2.52-4.81c-0.85-1.98-1.68-4.32-2.36-7.04c-1.34-5.43-2.01-12.35-1.27-20.28
								c0.7-7.94,2.84-16.78,5.34-26.49c1.22-4.86,2.54-9.96,3.53-15.36c1.02-5.39,1.76-11.06,2.15-16.97
								c0.78-11.8,0.2-24.54-2.35-37.59c-0.65-3.26-1.37-6.55-2.28-9.83c-0.85-3.3-1.93-6.56-2.84-9.9c-0.92-3.33-1.72-6.75-2-10.26
								c-0.26-3.49-0.01-7.11,1.11-10.49c0.56-1.69,1.33-3.31,2.33-4.78c1.02-1.46,2.28-2.74,3.71-3.8c2.88-2.13,6.37-3.31,9.92-4
								c3.57-0.69,7.24-0.94,10.94-1.18c3.7-0.24,7.42-0.49,11.17-0.73c29.96-1.84,58.55-2.78,84.56-3.05
								c26.01-0.27,49.44,0.07,69.1,0.69c9.83,0.3,18.72,0.65,26.53,1.02c7.8,0.39,14.55,0.56,19.97,1.51
								c5.43,0.89,9.46,2.45,12.11,3.61c1.33,0.59,2.33,1.06,2.99,1.4C361.7,204.25,362.05,204.41,362.05,204.41z"/>
						</g>
					</g>
					<g>
						<g>
							<path class="st59" d="M80.12,427.2c0,0,0.34,0.11,1,0.28c0.68,0.18,1.66,0.44,2.95,0.78c2.61,0.67,6.44,1.66,11.36,2.93
								c2.47,0.63,5.21,1.33,8.21,2.1c3.01,0.72,6.31,1.41,9.83,2.2c7.07,1.52,15.08,3.47,24.05,5.02
								c4.47,0.83,9.16,1.71,14.04,2.62c2.44,0.49,4.95,0.82,7.5,1.22c2.55,0.39,5.15,0.79,7.79,1.2c2.64,0.41,5.33,0.82,8.07,1.24
								c1.37,0.2,2.74,0.43,4.13,0.62c1.39,0.17,2.8,0.34,4.21,0.51c5.66,0.68,11.48,1.38,17.45,2.1
								c23.93,2.48,50.33,4.26,78.09,4.57c27.77,0.15,54.21-1.18,78.18-3.26c5.98-0.62,11.82-1.22,17.49-1.81
								c1.42-0.15,2.82-0.29,4.22-0.44c1.39-0.16,2.77-0.37,4.14-0.55c2.74-0.37,5.44-0.74,8.09-1.1c2.65-0.36,5.26-0.72,7.81-1.06
								c2.56-0.36,5.07-0.65,7.52-1.1c4.9-0.83,9.6-1.63,14.08-2.38c8.99-1.4,17.03-3.21,24.12-4.62c3.54-0.73,6.85-1.37,9.87-2.04
								c3.01-0.72,5.77-1.37,8.24-1.96c4.94-1.19,8.78-2.11,11.4-2.74c1.29-0.32,2.28-0.56,2.96-0.73c0.67-0.17,1-0.27,1-0.27
								s-0.35,0.06-1.02,0.21c-0.69,0.15-1.68,0.38-2.97,0.67c-2.63,0.6-6.47,1.49-11.42,2.63c-2.48,0.57-5.24,1.21-8.25,1.91
								c-3.03,0.66-6.33,1.27-9.87,1.99c-7.1,1.37-15.14,3.15-24.13,4.53c-4.49,0.75-9.19,1.53-14.08,2.34
								c-2.44,0.45-4.96,0.72-7.52,1.08c-2.56,0.34-5.16,0.69-7.81,1.05c-2.65,0.36-5.34,0.72-8.08,1.08
								c-1.37,0.18-2.75,0.38-4.14,0.54c-1.4,0.14-2.8,0.29-4.22,0.43c-5.67,0.58-11.5,1.17-17.48,1.79
								c-23.95,2.05-50.37,3.36-78.12,3.21c-27.74-0.31-54.13-2.08-78.04-4.52c-5.97-0.71-11.79-1.4-17.44-2.08
								c-1.41-0.17-2.82-0.34-4.21-0.5c-1.39-0.18-2.76-0.41-4.13-0.61c-2.73-0.41-5.42-0.82-8.06-1.22
								c-2.64-0.4-5.24-0.79-7.79-1.18c-2.55-0.4-5.06-0.72-7.5-1.2c-4.88-0.9-9.57-1.76-14.04-2.58
								c-8.97-1.52-16.98-3.44-24.05-4.93c-3.53-0.78-6.83-1.45-9.84-2.15c-3-0.75-5.75-1.43-8.22-2.05
								c-4.93-1.22-8.76-2.17-11.38-2.82c-1.29-0.31-2.28-0.55-2.96-0.72C80.47,427.27,80.12,427.2,80.12,427.2z"/>
						</g>
					</g>
					<g>
						<g>
							<path class="st59" d="M378.01,389.18c0,0-0.24,0-0.71,0.02c-0.49,0.03-1.18,0.07-2.08,0.13c-1.85,0.13-4.54,0.32-7.99,0.56
								c-3.47,0.25-7.72,0.58-12.65,0.84c-4.94,0.26-10.55,0.68-16.77,0.91c-6.21,0.27-13.02,0.61-20.33,0.79
								c-3.66,0.1-7.44,0.25-11.33,0.31c-3.9,0.06-7.91,0.13-12.02,0.2c-16.45,0.18-34.53,0.11-53.51-0.33
								c-37.97-0.95-72.3-2.92-97.14-4.35c-12.41-0.73-22.45-1.31-29.42-1.72c-3.46-0.19-6.15-0.34-8-0.45
								c-0.9-0.04-1.59-0.08-2.08-0.1c-0.47-0.02-0.71-0.01-0.71-0.01s0.24,0.04,0.71,0.08c0.49,0.04,1.18,0.09,2.08,0.16
								c1.85,0.13,4.54,0.32,7.99,0.56c6.97,0.45,17.01,1.11,29.41,1.92c24.84,1.53,59.17,3.58,97.16,4.52
								c18.98,0.44,37.08,0.5,53.53,0.29c4.11-0.08,8.12-0.15,12.02-0.23c3.9-0.07,7.68-0.24,11.34-0.35
								c7.32-0.2,14.12-0.57,20.34-0.86c6.22-0.26,11.83-0.71,16.77-1c4.94-0.29,9.18-0.65,12.65-0.94
								c3.45-0.29,6.14-0.52,7.99-0.67c0.9-0.08,1.59-0.15,2.08-0.19C377.77,389.22,378.01,389.18,378.01,389.18z"/>
						</g>
					</g>
					<g>
						<g>
							<path class="st59" d="M156.07,458.81c0.18,0.02,0.51-3.45,1.71-7.55c1.17-4.1,2.75-7.2,2.58-7.28
								c-0.07-0.04-0.55,0.69-1.17,1.96c-0.63,1.26-1.38,3.08-1.98,5.15c-0.6,2.08-0.94,4.01-1.08,5.42
								C155.98,457.93,156,458.81,156.07,458.81z"/>
						</g>
					</g>
					<g>
						<g>
							<path class="st59" d="M145.96,454c0.19,0.01,0.24-2.94,1.47-6.29c1.19-3.36,3.03-5.65,2.88-5.76
								c-0.09-0.11-2.2,2.07-3.44,5.55C145.6,450.97,145.82,454.02,145.96,454z"/>
						</g>
					</g>
					<g>
						<g>
							<path class="st59" d="M120.63,332.78c-0.03-0.19-2.82,0.67-6.15-0.25c-3.34-0.86-5.36-3.01-5.48-2.85
								c-0.05,0.05,0.37,0.65,1.28,1.39c0.9,0.75,2.32,1.58,4.05,2.05c1.73,0.46,3.37,0.44,4.51,0.24
								C120,333.16,120.66,332.85,120.63,332.78z"/>
						</g>
					</g>
					<g>
						<g>
							<path class="st59" d="M121.33,318.77c-0.08-0.16-2.11,0.89-4.8,1.57c-2.68,0.7-4.96,0.75-4.96,0.93
								c-0.02,0.15,2.32,0.38,5.1-0.34C119.45,320.23,121.41,318.9,121.33,318.77z"/>
						</g>
					</g>
				</g>
				<g>
					<g>
						<g>
							<path class="st117" d="M271.84,350.96l31.31,10.88l2.53,8c0,0,87.38-32.11,93.58-35.48c6.2-3.38,38.13-10.87,48.68,15.94
								c8.87,22.55-8.75,45.14-36.86,57.8c-28.11,12.66-82.67,18.14-82.67,18.14l-35.9,6.34l-79.41,1.05
								c-23.48,0.31-45.85-10.05-61.14-28.23c-12.52-14.88-25.45-31.75-27.9-40.54c-4.77-17.09-0.45-39.24,24.51-41.38
								c24.96-2.14,65.43,26.98,65.43,26.98l15.37-4.3L271.84,350.96z"/>
						</g>
						<g>
							<g>
								<path class="st61" d="M274.29,402.95c0.01-0.01-0.03-0.19-0.12-0.55c-0.08-0.35-0.12-0.94,0.18-1.59
									c0.59-1.34,2.58-2.54,5.23-3.24l0.01,0l0.01,0c5.39-2.23,13.51-5.7,23.11-10.57c9.62-4.83,20.74-10.98,32.65-17.52
									c8.62-4.71,16.83-9.18,24.45-12.95c7.62-3.77,14.55-7.01,20.51-9.4c1.49-0.61,2.89-1.21,4.24-1.73
									c1.35-0.5,2.63-0.98,3.83-1.42c1.19-0.44,2.3-0.86,3.33-1.24c1.03-0.34,1.98-0.66,2.83-0.94c1.67-0.56,2.98-1,3.92-1.31
									c0.42-0.15,0.76-0.26,1.02-0.36c0.23-0.08,0.34-0.13,0.34-0.14s-0.12,0.02-0.36,0.08c-0.26,0.08-0.6,0.17-1.03,0.3
									c-0.94,0.29-2.27,0.69-3.95,1.2c-0.86,0.27-1.81,0.57-2.85,0.89c-1.03,0.37-2.15,0.77-3.35,1.2
									c-1.2,0.43-2.49,0.89-3.85,1.38c-1.35,0.51-2.77,1.1-4.26,1.7c-5.99,2.34-12.95,5.55-20.59,9.29
									c-7.64,3.75-15.87,8.21-24.49,12.92c-11.91,6.54-23.01,12.72-32.6,17.59c-9.57,4.91-17.64,8.45-22.99,10.77l0.02-0.01
									c-2.7,0.75-4.7,2.01-5.3,3.45c-0.29,0.7-0.22,1.31-0.12,1.67C274.22,402.78,274.28,402.96,274.29,402.95z"/>
							</g>
						</g>
						<g>
							<g>
								<path class="st61" d="M157.41,329.09c0,0.01,0.12,0.03,0.35,0.07c0.27,0.03,0.61,0.08,1.04,0.14
									c0.91,0.12,2.27,0.2,3.96,0.67c3.41,0.74,8.23,2.49,13.57,5.79c2.69,1.61,5.49,3.63,8.35,5.98c2.86,2.35,5.77,5.05,8.61,8.1
									c5.59,6.23,12.06,12.81,19.2,19.3c3.58,3.24,7.18,6.29,10.84,9c3.66,2.69,7.35,5.15,11.33,6.58
									c3.98,1.32,7.92,1.79,11.55,2.37c3.64,0.55,7.01,1.17,9.97,2.17c2.95,1.01,5.54,2.22,7.56,3.67
									c2.04,1.42,3.46,3.1,4.27,4.66c0.82,1.57,1.03,2.96,1.14,3.88c0.03,0.47,0.02,0.82,0.04,1.06c0.01,0.24,0.02,0.36,0.03,0.37
									c0.01,0,0.02-0.12,0.03-0.36c0.01-0.24,0.03-0.6,0.02-1.07c-0.07-0.94-0.24-2.36-1.05-3.98c-0.79-1.62-2.23-3.36-4.28-4.83
									c-2.04-1.5-4.64-2.76-7.61-3.8c-2.99-1.04-6.39-1.69-10.03-2.26c-3.63-0.6-7.55-1.1-11.46-2.41
									c-3.85-1.4-7.52-3.85-11.15-6.53c-3.63-2.71-7.21-5.75-10.79-8.98c-7.13-6.48-13.59-13.02-19.2-19.23
									c-2.87-3.07-5.81-5.76-8.7-8.11c-2.89-2.35-5.72-4.36-8.44-5.96c-5.41-3.27-10.3-4.98-13.74-5.65
									c-1.71-0.43-3.08-0.48-4-0.56c-0.43-0.03-0.78-0.06-1.05-0.08C157.54,329.08,157.42,329.08,157.41,329.09z"/>
							</g>
						</g>
						<g>
							<g>
								<path class="st61" d="M265.98,393.35c0.04,0.01,0.22-0.52,0.52-1.5c0.17-0.49,0.27-1.11,0.41-1.82
									c0.16-0.71,0.26-1.53,0.36-2.44c0.23-1.82,0.28-4,0.27-6.42c-0.09-2.42-0.23-5.08-0.63-7.84
									c-0.73-5.54-2.05-10.45-3.42-13.84c-0.38-0.83-0.69-1.6-1.03-2.24c-0.36-0.63-0.65-1.19-0.93-1.61
									c-0.61-0.82-0.96-1.26-0.99-1.23c-0.03,0.03,0.25,0.51,0.79,1.36c0.25,0.43,0.5,1,0.83,1.64c0.31,0.64,0.59,1.42,0.94,2.25
									c1.25,3.39,2.49,8.27,3.22,13.76c0.39,2.74,0.55,5.38,0.67,7.77c0.05,2.4,0.03,4.56-0.14,6.37
									C266.59,391.17,265.87,393.32,265.98,393.35z"/>
							</g>
						</g>
						<g>
							<g>
								<g>
									<g>
										<g>
											<g>
												<g>
													<path class="st118" d="M274.29,402.95c0,0-59.13,15.24-61.51,16.03c-3.57,1.19-3.27,14.44,2.25,14.36
														c2.61-0.04,45.1,2.66,50.48,2.44c5.38-0.22,19.97-5.72,19.97-5.72l-8.9-21.58L274.29,402.95z"/>
												</g>
											</g>
										</g>
									</g>
								</g>
								<g>
									<g>
										<g>
											<g>
												<g>
													<g>
														<path class="st59" d="M249.3,425.28c-0.3,0.03-0.62-3.15-2.45-6.5c-1.78-3.38-4.22-5.38-4.03-5.62
															c0.11-0.23,2.99,1.53,4.9,5.14C249.66,421.88,249.55,425.31,249.3,425.28z"/>
													</g>
												</g>
											</g>
										</g>
									</g>
								</g>
								<g>
									<g>
										<g>
											<g>
												<g>
													<g>
														<path class="st59" d="M255.49,422.58c-0.29,0.04-0.82-2.81-2.32-5.97c-1.46-3.19-3.29-5.41-3.08-5.61
															c0.17-0.19,2.42,1.82,3.97,5.18C255.64,419.52,255.74,422.57,255.49,422.58z"/>
													</g>
												</g>
											</g>
										</g>
									</g>
								</g>
								<g>
									<g>
										<g>
											<g>
												<g>
													<g>
														<path class="st59" d="M261.28,421.14c-0.3-0.03,0-3.02-1.23-6.37c-1.17-3.37-3.29-5.47-3.08-5.68
															c0.12-0.23,2.72,1.69,4,5.34C262.29,418.06,261.51,421.24,261.28,421.14z"/>
													</g>
												</g>
											</g>
										</g>
									</g>
								</g>
								<g>
									<g>
										<g>
											<g>
												<g>
													<g>
														<path class="st59" d="M260.4,413.37c-0.11,0.02-0.59-1.66-0.53-4.48c0.04-1.4,0.23-3.08,0.7-4.88
															c0.24-0.9,0.55-1.83,0.94-2.76c0.2-0.47,0.43-1.01,0.97-1.45c0.56-0.49,1.55-0.36,2.02,0.15
															c0.53,0.49,0.68,1.17,0.75,1.71c0.05,0.55,0.07,1.07,0.04,1.59c-0.04,1.03-0.19,2.02-0.43,2.93
															c-0.48,1.82-1.21,3.34-1.91,4.54c-1.42,2.4-2.64,3.62-2.72,3.55c-0.13-0.1,0.88-1.47,2.11-3.89
															c0.6-1.21,1.24-2.7,1.64-4.42c0.2-0.86,0.32-1.78,0.34-2.73c-0.01-0.92,0.03-2.07-0.49-2.53
															c-0.27-0.24-0.53-0.27-0.78-0.08c-0.26,0.2-0.49,0.6-0.67,1.03c-0.38,0.89-0.7,1.77-0.95,2.63
															c-0.5,1.71-0.76,3.31-0.88,4.67C260.34,411.65,260.57,413.35,260.4,413.37z"/>
													</g>
												</g>
											</g>
										</g>
									</g>
								</g>
								<g>
									<g>
										<g>
											<g>
												<g>
													<g>
														<path class="st59" d="M260.49,412.76c-0.02-0.11,1.4-0.58,3.8-0.54c1.19,0.03,2.62,0.19,4.16,0.62
															c0.76,0.23,1.57,0.45,2.38,0.96c0.8,0.44,1.61,1.6,1.27,2.77c-0.28,1.11-1.23,1.87-2.16,2.09
															c-0.94,0.25-1.85,0.13-2.64-0.07c-1.6-0.42-2.84-1.25-3.77-2c-1.85-1.55-2.74-2.73-2.67-2.81
															c0.11-0.12,1.2,0.89,3.08,2.24c0.95,0.65,2.14,1.36,3.57,1.68c0.71,0.16,1.48,0.22,2.18,0.02
															c0.7-0.18,1.28-0.7,1.46-1.39c0.18-0.67-0.2-1.29-0.84-1.69c-0.62-0.41-1.39-0.66-2.11-0.9
															c-1.44-0.46-2.8-0.68-3.94-0.8C261.96,412.72,260.51,412.92,260.49,412.76z"/>
													</g>
												</g>
											</g>
										</g>
									</g>
								</g>
								<g>
									<g>
										<g>
											<g>
												<g>
													<g>
														<path class="st59" d="M240.26,425.71c-0.29-0.04,0.05-2.6-1.04-5.44c-1.04-2.86-2.96-4.53-2.77-4.76
															c0.1-0.24,2.53,1.24,3.69,4.4C241.34,423.07,240.49,425.82,240.26,425.71z"/>
													</g>
												</g>
											</g>
										</g>
									</g>
								</g>
								<g>
									<g>
										<g>
											<g>
												<g>
													<g>
														<path class="st59" d="M281.2,429.43c0.02,0.06-0.79,0.43-2.3,1.04c-1.52,0.55-3.75,1.31-6.59,1.92
															c-5.65,1.32-13.68,1.95-22.48,1.65c-8.8-0.3-16.73-0.9-22.48-1.26c-2.72-0.21-5-0.39-6.8-0.53
															c-1.6-0.15-2.49-0.26-2.49-0.33c0-0.07,0.9-0.09,2.51-0.06c1.8,0.05,4.09,0.12,6.82,0.21
															c5.95,0.26,13.79,0.6,22.47,0.97c8.76,0.3,16.69-0.22,22.32-1.34C277.82,430.64,281.14,429.24,281.2,429.43z"/>
													</g>
												</g>
											</g>
										</g>
									</g>
								</g>
								<g>
									<g>
										<g>
											<g>
												<g>
													<g>
														<path class="st59" d="M282.91,430.84c-0.08,0.14-1.67-0.86-4.36-2.14c-2.66-1.24-6.65-2.74-11.08-2.14
															c-4.44,0.59-7.65,3.55-9.74,5.61c-2.11,2.14-3.35,3.56-3.47,3.45c-0.09-0.08,0.95-1.65,2.97-3.95
															c1.02-1.14,2.31-2.45,3.98-3.63c1.66-1.18,3.77-2.17,6.13-2.49c4.75-0.63,8.89,1.08,11.52,2.5
															C281.52,429.53,282.97,430.74,282.91,430.84z"/>
													</g>
												</g>
											</g>
										</g>
									</g>
								</g>
							</g>
							<g>
								<g>
									<g>
										<path class="st59" d="M223.9,432.06c-0.11-0.08,0.41-0.86,0.91-2.25c0.5-1.38,0.9-3.42,0.56-5.63
											c-0.35-2.2-1.36-4.02-2.26-5.16c-0.9-1.16-1.63-1.74-1.55-1.84c0.05-0.08,0.92,0.34,1.98,1.46
											c1.06,1.11,2.24,3.02,2.62,5.41c0.38,2.39-0.16,4.59-0.82,5.98C224.67,431.45,223.97,432.12,223.9,432.06z"/>
									</g>
								</g>
							</g>
						</g>
						<g>
							<g>
								<path class="st61" d="M135.2,378.51c-0.02,0.01,0.16,0.29,0.52,0.81c0.4,0.56,0.92,1.32,1.59,2.27
									c0.71,0.97,1.53,2.2,2.57,3.55c1.08,1.33,2.31,2.84,3.66,4.5c1.36,1.66,3.01,3.34,4.7,5.21c1.72,1.85,3.71,3.66,5.73,5.65
									c4.25,3.74,9.01,7.78,14.47,11.36c5.44,3.6,10.86,6.64,15.98,9c5.14,2.3,9.9,4.08,14,5.23c2.04,0.6,3.92,1.01,5.56,1.4
									c1.66,0.3,3.09,0.58,4.26,0.75c1.14,0.12,2.04,0.22,2.72,0.29c0.62,0.06,0.95,0.08,0.95,0.06c0-0.02-0.32-0.08-0.94-0.18
									c-0.67-0.1-1.57-0.24-2.7-0.41c-1.16-0.21-2.58-0.53-4.23-0.85c-1.63-0.43-3.49-0.86-5.52-1.48c-4.06-1.2-8.79-3-13.89-5.32
									c-5.08-2.37-10.47-5.41-15.88-9c-5.43-3.57-10.18-7.57-14.43-11.27c-2.02-1.97-4.02-3.77-5.74-5.59
									c-1.7-1.85-3.36-3.51-4.74-5.14c-1.37-1.63-2.61-3.12-3.71-4.43c-1.07-1.32-1.91-2.53-2.65-3.47
									c-0.7-0.92-1.26-1.65-1.68-2.2C135.43,378.75,135.21,378.5,135.2,378.51z"/>
							</g>
						</g>
						<g>
							<g>
								<path class="st61" d="M286.14,395.56c0.08,0.05,1.01-1.46,2.67-3.78c1.66-2.32,4.1-5.41,7.13-8.51
									c3.04-3.09,6.07-5.58,8.34-7.27c2.27-1.69,3.75-2.64,3.7-2.72c-0.02-0.04-0.41,0.17-1.1,0.56
									c-0.69,0.39-1.67,1.01-2.84,1.81c-2.35,1.61-5.46,4.07-8.52,7.19c-3.06,3.13-5.47,6.29-7.05,8.69
									c-0.79,1.2-1.4,2.19-1.78,2.9C286.3,395.14,286.1,395.53,286.14,395.56z"/>
							</g>
						</g>
						<g>
							<g>
								<path class="st61" d="M214.71,362.13c-0.05,0.09,1.3,0.95,3.33,2.55c2.03,1.59,4.7,3.97,7.27,6.97
									c2.56,3.01,4.5,6.04,5.77,8.31c1.27,2.27,1.92,3.75,2.01,3.71c0.04-0.02-0.09-0.4-0.36-1.09c-0.26-0.69-0.7-1.66-1.29-2.83
									c-1.18-2.35-3.09-5.46-5.69-8.5c-2.6-3.04-5.36-5.4-7.47-6.92c-1.06-0.76-1.94-1.33-2.57-1.69
									C215.09,362.28,214.73,362.1,214.71,362.13z"/>
							</g>
						</g>
					</g>
					<g>
						<g>
							<path class="st31" d="M199.75,343.63c-15.95-13.03-45.95-19.24-45.95-19.24s1.68-59.43,6.23-86.74
								c0.11-0.66,0.23-1.31,0.35-1.96c4.1-21.05,22.39-33.75,43.22-36.7l14.12-2l41.7,1.54l25.45,7.87c0,0,30.06,6.91,34.71,50.05
								c4.56,42.3,9.95,77.25,9.12,89.7c-0.59,8.79-8.55,15.05-12.96,16.08c-3.99,0.93-9.06,1.8-13.38-0.86
								c1.52,2.84,2.55,5.62,2.8,8.17h-25.45l-19.95-17.91l-18.23,13.34l-24.42-10.53l-16.77-11.69 M286.73,341.89
								c-0.01-0.05-0.03-0.11-0.04-0.16c-2.84-14.33-3.19-18.54-3.19-18.54s15-1.93,12.59-22.29l-2.33-17.63l-14.96,51.32
								C278.8,334.59,282.29,337.51,286.73,341.89z"/>
						</g>
						<g class="st60">
							<g>
								<path d="M233.83,322.17l-4.67-12.02c5.16-2.25,6.99-2.33,12.56-3.01c14.85-1.83,30.32,2.29,42.4,11.28l-3.08,9.04l0.04,0.01
									c-0.02,0.01-0.03,0.01-0.05,0.02l0,0l0,0c-0.03,0.01-0.07,0.02-0.1,0.04c-1.91,0.64-5.13,0.54-7.03,0.08
									c-1.95-0.48-3.99-1.01-5.94-0.52c-2.55,0.65-4.38,2.9-6.67,4.22c-4.61,2.65-11.18,0.72-13.71-4.02
									c-1.06-1.98-2.04-4.74-4.25-4.69c-1.09,0.02-2,0.8-2.82,1.53c-2.64,2.36-5.28,4.73-7.92,7.09
									c-3.17,2.84-6.35,5.69-9.75,8.25c-3.99,3-8.58,5.7-13.54,5.54c-4.95-0.15-5.18-5-5.18-5L233.83,322.17z"/>
							</g>
						</g>
						<g>
							<path class="st119" d="M261.35,197.12l0.73,12.26c0.25,4.23-0.39,8.47-1.88,12.43l-14.67,39c0,0,2.25-22.76-7.17-31.17
								c-9.42-8.41-21.23-7.55-21.39-20.54c-0.03-2.16,0.05-16.32,0.05-16.32l20.26-4.1L261.35,197.12z"/>
						</g>
						<g>
							<g>
								<path class="st59" d="M186.36,203.5c-0.01,0.02,0.26,0.17,0.77,0.43c0.52,0.24,1.24,0.68,2.16,1.27
									c1.8,1.21,4.16,3.41,6.23,6.74c2.03,3.33,3.75,7.84,4.04,13.04c0.14,2.59-0.17,5.34-0.38,8.18
									c-0.26,2.84-0.54,5.79-0.82,8.8c-1.2,12.06-2.48,22.96-3.5,30.83c-0.5,3.94-0.95,7.12-1.27,9.31
									c-0.15,1.05-0.28,1.89-0.37,2.53c-0.08,0.58-0.12,0.88-0.1,0.89c0.02,0,0.09-0.29,0.22-0.87c0.12-0.57,0.28-1.42,0.48-2.51
									c0.39-2.19,0.91-5.36,1.46-9.29c1.12-7.87,2.47-18.76,3.67-30.83c0.3-3.02,0.57-5.96,0.81-8.81c0.2-2.85,0.5-5.6,0.34-8.27
									c-0.33-5.31-2.12-9.88-4.23-13.24c-2.15-3.36-4.6-5.54-6.46-6.71c-0.94-0.57-1.69-0.98-2.23-1.19
									C186.65,203.59,186.37,203.48,186.36,203.5z"/>
							</g>
						</g>
						<g>
							<g>
								<path class="st59" d="M191.73,346.65c0,0.01,0.08-0.02,0.23-0.08c0.18-0.08,0.39-0.17,0.65-0.29
									c0.57-0.26,1.42-0.64,2.48-1.19c2.15-1.07,5.22-2.73,9.01-4.87c7.59-4.28,18.06-10.51,29.87-17.8l0.22-0.13l-0.1-0.24
									c-1.37-3.35-2.79-6.84-4.25-10.4c-1.44-3.58-2.82-7.08-4.12-10.49c-0.65-1.7-1.27-3.38-1.84-5.04
									c-0.29-0.83-0.56-1.65-0.81-2.47c-0.12-0.41-0.24-0.82-0.34-1.22c-0.05-0.2-0.09-0.4-0.12-0.6
									c-0.01-0.1-0.03-0.19-0.03-0.28c0-0.05,0.01-0.07,0-0.1c0,0,0,0.01-0.01,0.01c0,0-0.05,0.08-0.1,0.07l-0.2-0.53
									c-5.11,2.32-9.67,4.84-13.71,7.11c-4.04,2.28-7.59,4.31-10.55,5.93c-2.96,1.62-5.35,2.85-6.99,3.67
									c-0.79,0.39-1.42,0.7-1.88,0.93c-0.43,0.22-0.64,0.33-0.64,0.35c0.01,0.01,0.24-0.08,0.68-0.26
									c0.44-0.19,1.09-0.46,1.92-0.85c1.67-0.77,4.08-1.95,7.07-3.53c2.99-1.58,6.56-3.57,10.62-5.81
									c4.06-2.24,8.62-4.73,13.71-7.01l-0.2-0.53c-0.08,0.03-0.19,0.13-0.21,0.18c-0.02,0.05-0.04,0.11-0.06,0.16
									c-0.01,0.07-0.02,0.16-0.01,0.21c0,0.13,0.02,0.24,0.03,0.36c0.03,0.22,0.08,0.44,0.13,0.65c0.1,0.42,0.22,0.84,0.34,1.25
									c0.25,0.83,0.53,1.66,0.81,2.49c0.57,1.67,1.2,3.35,1.84,5.06c1.29,3.42,2.67,6.93,4.11,10.51
									c1.46,3.56,2.89,7.05,4.26,10.4l0.12-0.37c-11.79,7.31-22.22,13.6-29.75,17.97c-3.77,2.18-6.8,3.9-8.92,5.02
									c-1.05,0.58-1.88,0.99-2.43,1.28c-0.25,0.13-0.46,0.24-0.63,0.34C191.8,346.6,191.73,346.64,191.73,346.65z"/>
							</g>
						</g>
						<g>
							<g>
								<path class="st59" d="M294.26,283.27c0.04,0.01,0.18-0.59,0.41-1.68c0.23-1.09,0.51-2.68,0.81-4.65
									c0.6-3.94,1.19-9.43,1.37-15.51c0.17-6.09-0.12-11.6-0.5-15.57c-0.19-1.98-0.38-3.59-0.55-4.69
									c-0.16-1.1-0.27-1.71-0.31-1.7c-0.04,0.01-0.01,0.62,0.08,1.73c0.1,1.11,0.23,2.71,0.36,4.7c0.27,3.97,0.49,9.46,0.32,15.52
									c-0.17,6.06-0.69,11.53-1.19,15.47c-0.24,1.97-0.46,3.57-0.62,4.67C294.28,282.65,294.22,283.26,294.26,283.27z"/>
							</g>
						</g>
						<g>
							<g>
								<path class="st59" d="M296.72,293.06c-0.03,0.03,0.35,0.55,1.07,1.47c0.8,1,1.84,2.3,3.09,3.87
									c2.69,3.34,6.27,7.79,10.24,12.71c3.95,4.94,7.51,9.41,10.18,12.76c1.26,1.56,2.3,2.86,3.1,3.86
									c0.74,0.9,1.17,1.39,1.2,1.37c0.03-0.03-0.33-0.56-1.02-1.51c-0.68-0.95-1.69-2.31-2.95-3.98
									c-2.52-3.34-6.06-7.9-10.05-12.88c-3.99-4.98-7.67-9.42-10.38-12.6c-1.35-1.59-2.46-2.87-3.23-3.74
									C297.19,293.5,296.75,293.03,296.72,293.06z"/>
							</g>
						</g>
						<g>
							<g>
								<path class="st59" d="M285.22,330.87c-0.04,0-0.02,0.53,0.05,1.47c0.03,0.47,0.08,1.05,0.2,1.72
									c0.11,0.66,0.2,1.43,0.41,2.25c0.34,1.66,0.92,3.61,1.71,5.71c0.83,2.08,1.91,4.31,3.27,6.51c1.38,2.18,2.91,4.11,4.41,5.76
									c1.53,1.62,3.02,2.97,4.35,3.98c0.64,0.54,1.29,0.94,1.83,1.32c0.54,0.39,1.03,0.68,1.44,0.91c0.81,0.46,1.27,0.7,1.29,0.67
									c0.06-0.1-1.74-1.13-4.3-3.23c-1.29-1.04-2.73-2.41-4.21-4.03c-1.46-1.64-2.95-3.56-4.31-5.71
									c-1.34-2.16-2.41-4.35-3.26-6.39c-0.81-2.06-1.43-3.96-1.81-5.59C285.5,332.95,285.34,330.85,285.22,330.87z"/>
							</g>
						</g>
						<g>
							<g>
								<path class="st59" d="M214.6,195.6c-0.02-0.01-0.16,0.27-0.43,0.8c-0.25,0.54-0.66,1.32-1.09,2.37
									c-0.83,2.1-1.93,5.22-2.6,9.25c-0.67,4.01-0.88,8.92-0.11,14.26c0.72,5.34,2.57,11.07,5.65,16.46
									c0.57,0.89,1.11,1.79,1.68,2.65c0.61,0.83,1.22,1.64,1.81,2.44l0.15,0.21l0.23-0.14c4.52-2.82,9.99-2.9,14.14-1.29
									c2.12,0.76,3.87,2.06,5.37,3.37c1.49,1.34,2.69,2.79,3.55,4.26c1.73,2.95,2.18,5.76,2.39,7.64c0.18,1.9,0.13,2.95,0.19,2.95
									c0.02,0,0.04-0.26,0.06-0.76c0.03-0.5,0.02-1.25-0.03-2.21c-0.14-1.9-0.53-4.77-2.26-7.82c-0.86-1.52-2.08-3.02-3.58-4.41
									c-1.52-1.35-3.31-2.71-5.5-3.52c-4.28-1.69-9.92-1.64-14.64,1.28l0.38,0.07c-0.58-0.78-1.17-1.59-1.78-2.41
									c-0.56-0.85-1.1-1.74-1.65-2.62c-3.03-5.31-4.88-10.96-5.62-16.23c-0.79-5.27-0.63-10.12-0.02-14.11
									c0.61-3.99,1.64-7.11,2.4-9.23c0.4-1.05,0.77-1.85,0.99-2.4C214.51,195.91,214.62,195.61,214.6,195.6z"/>
							</g>
						</g>
						<g>
							<g>
								<path class="st59" d="M247.9,255.57c0.02,0.01,0.14-0.22,0.37-0.66c0.24-0.5,0.56-1.15,0.95-1.95
									c0.81-1.69,1.94-4.17,3.48-7.15c1.55-2.96,3.51-6.47,6.44-9.74c1.51-1.56,3.23-3.12,5.32-4.2c2.09-1.06,4.46-1.73,6.94-1.86
									c0.99-0.02,1.97,0.05,2.88,0.07l0.38,0.01l-0.05-0.35c-0.73-4.78-1.96-9.18-3.22-13.1c-1.28-3.92-2.63-7.35-3.9-10.16
									c-1.27-2.81-2.46-4.99-3.37-6.44c-0.44-0.73-0.83-1.27-1.1-1.63c-0.27-0.36-0.41-0.54-0.43-0.53
									c-0.05,0.04,0.51,0.79,1.34,2.27c0.85,1.47,1.98,3.67,3.19,6.49c1.21,2.82,2.52,6.25,3.76,10.16
									c1.22,3.91,2.42,8.3,3.14,13.02l0.32-0.35c-0.94-0.02-1.95-0.1-2.97-0.07c-2.57,0.13-5.02,0.83-7.18,1.94
									c-2.17,1.12-3.92,2.73-5.46,4.34c-2.97,3.35-4.9,6.92-6.41,9.92c-1.49,3.02-2.56,5.52-3.31,7.25
									c-0.35,0.82-0.63,1.48-0.84,2C247.97,255.32,247.88,255.56,247.9,255.57z"/>
							</g>
						</g>
						<g class="st60">
							<g>
								<path d="M245.55,260.03c-1.28-4.1-2.88-5.56-5.07-7.7c-2.19-2.14-5.13-3.69-8.16-3.51c-2.54,0.15-4.93,1.47-7.47,1.52
									c-2.96,0.06-5.7-1.61-7.94-3.59c-9.22-8.14-12.21-22.79-6.95-34.02c-0.51,11.09,3.1,22.32,9.95,30.95
									c5.33-3.12,12.36-2.95,17.55,0.42C242.64,247.48,245.89,253.91,245.55,260.03"/>
							</g>
						</g>
						<g>
							<g>
								<path class="st59" d="M193.34,284.38c-0.04,0-0.15,0.57-0.31,1.62c-0.16,1.17-0.37,2.66-0.62,4.45
									c-0.5,3.76-1.14,8.97-1.82,14.72c-0.13,1.09-0.25,2.15-0.37,3.17l0.23-0.26c-4.89,1.07-8.87,3.17-11.45,4.98
									c-1.3,0.9-2.28,1.72-2.92,2.31c-0.64,0.59-0.97,0.94-0.95,0.97c0.07,0.08,1.46-1.24,4.08-2.94c2.61-1.7,6.55-3.7,11.35-4.72
									l0.21-0.04l0.03-0.21c0.12-1.02,0.25-2.09,0.38-3.17c0.68-5.75,1.25-10.97,1.64-14.75c0.17-1.8,0.32-3.3,0.43-4.48
									C193.35,284.97,193.38,284.38,193.34,284.38z"/>
							</g>
						</g>
						<g>
							<g>
								<path class="st59" d="M229.24,337.33c0,0.02,0.2,0.09,0.59,0.19c0.46,0.12,1.03,0.26,1.73,0.44
									c1.51,0.35,3.71,0.79,6.46,1.17c5.48,0.74,13.21,1.09,21.6-0.12c4.19-0.59,8.14-1.5,11.65-2.57
									c1.75-0.56,3.42-1.05,4.94-1.71c1.53-0.65,2.8-1.72,3.58-2.92c0.82-1.19,1.23-2.44,1.54-3.52c0.3-1.09,0.45-2.05,0.55-2.84
									c0.11-0.78,0.16-1.4,0.19-1.81c0.03-0.42,0.03-0.63,0.01-0.64c-0.05-0.01-0.16,0.86-0.43,2.41
									c-0.14,0.77-0.32,1.72-0.64,2.78c-0.33,1.05-0.77,2.25-1.56,3.36c-0.77,1.14-1.95,2.09-3.43,2.71
									c-1.48,0.62-3.16,1.1-4.9,1.64c-3.5,1.03-7.42,1.91-11.58,2.5c-8.33,1.2-16,0.93-21.47,0.3c-2.74-0.32-4.94-0.69-6.46-0.97
									c-0.71-0.13-1.28-0.24-1.75-0.33C229.45,337.34,229.24,337.31,229.24,337.33z"/>
							</g>
						</g>
						<g>
							<g>
								<path class="st59" d="M253.13,339.2c-0.03,0.1,0.79,0.34,1.94,1.03c1.15,0.68,2.59,1.91,3.69,3.65
									c1.09,1.75,1.58,3.6,1.7,4.95c0.13,1.36-0.01,2.21,0.1,2.23c0.06,0.02,0.35-0.83,0.32-2.26c-0.01-1.42-0.47-3.4-1.62-5.25
									c-1.16-1.84-2.74-3.09-3.99-3.7C254.02,339.23,253.14,339.14,253.13,339.2z"/>
							</g>
						</g>
						<g>
							<g>
								<path class="st59" d="M247.48,259.78c-0.02,0-0.07,0.28-0.13,0.81c-0.07,0.6-0.16,1.37-0.27,2.34
									c-0.21,2.03-0.48,4.98-0.73,8.63c-0.51,7.3-0.9,17.41-0.63,28.58c0.13,5.58,0.4,10.9,0.74,15.72
									c0.33,4.83,0.9,9.18,1.89,12.73c0.97,3.55,2.37,6.22,3.53,7.89c0.6,0.83,1.08,1.45,1.46,1.83c0.36,0.39,0.56,0.59,0.57,0.58
									c0.05-0.05-0.73-0.85-1.84-2.55c-1.09-1.7-2.41-4.35-3.31-7.87c-0.93-3.51-1.45-7.84-1.75-12.65
									c-0.32-4.82-0.57-10.13-0.7-15.7c-0.27-11.14,0.05-21.24,0.45-28.54c0.19-3.65,0.4-6.6,0.54-8.64
									c0.06-0.97,0.12-1.75,0.16-2.35C247.5,260.07,247.51,259.78,247.48,259.78z"/>
							</g>
						</g>
						<g>
							<g>
								<path class="st6" d="M299.32,253.51c-0.01,0.17,4.28,0.65,9.6,1.08c5.31,0.43,9.63,0.64,9.64,0.47
									c0.01-0.17-4.28-0.65-9.6-1.08C303.65,253.55,299.34,253.34,299.32,253.51z"/>
							</g>
						</g>
						<g>
							<g>
								<path class="st6" d="M247.93,274.19c-0.01,0.04,0.66,0.17,1.87,0.36c1.21,0.21,2.97,0.41,5.16,0.58
									c2.19,0.18,4.8,0.25,7.7,0.18c2.9-0.09,6.08-0.33,9.4-0.8c3.32-0.49,6.44-1.17,9.25-1.91c2.8-0.77,5.29-1.58,7.35-2.37
									c2.05-0.78,3.69-1.48,4.8-2.02c1.11-0.53,1.71-0.84,1.7-0.88c-0.02-0.04-0.65,0.2-1.79,0.66c-1.13,0.47-2.79,1.11-4.85,1.84
									c-2.06,0.74-4.55,1.5-7.34,2.23c-2.8,0.7-5.9,1.36-9.2,1.85c-3.29,0.47-6.46,0.72-9.34,0.84c-2.88,0.09-5.48,0.07-7.66-0.05
									c-2.18-0.11-3.94-0.25-5.16-0.38C248.61,274.2,247.94,274.15,247.93,274.19z"/>
							</g>
						</g>
						<g>
							<g>
								<path class="st6" d="M199.74,256.64c-0.02,0.04,0.56,0.41,1.64,1.05c1.07,0.66,2.66,1.52,4.66,2.52c2,1,4.44,2.08,7.2,3.14
									c2.77,1.04,5.86,2.05,9.16,2.9c3.31,0.83,6.5,1.42,9.42,1.83c2.93,0.38,5.57,0.61,7.8,0.68c2.23,0.08,4.03,0.08,5.28,0.01
									c1.24-0.05,1.93-0.1,1.93-0.15c0-0.04-0.69-0.07-1.93-0.09c-1.24-0.01-3.04-0.07-5.25-0.2c-2.21-0.13-4.84-0.39-7.75-0.81
									c-2.9-0.44-6.07-1.04-9.35-1.87c-3.28-0.85-6.35-1.83-9.12-2.83c-2.75-1.03-5.2-2.05-7.21-3c-2.02-0.94-3.63-1.75-4.73-2.34
									C200.38,256.91,199.76,256.61,199.74,256.64z"/>
							</g>
						</g>
						<g>
							<g>
								<path class="st6" d="M161.47,232.39c0,0.04,0.54,0.1,1.52,0.18c0.98,0.07,2.39,0.19,4.13,0.39
									c3.48,0.39,8.27,1.18,13.41,2.64c5.14,1.48,9.63,3.34,12.8,4.86c1.59,0.76,2.86,1.4,3.73,1.86
									c0.87,0.46,1.37,0.69,1.39,0.66c0.02-0.04-0.43-0.34-1.28-0.86c-0.84-0.53-2.08-1.23-3.66-2.04
									c-3.14-1.63-7.64-3.57-12.83-5.06c-5.18-1.48-10.02-2.21-13.53-2.49c-1.76-0.14-3.18-0.2-4.16-0.2
									C162.02,232.33,161.47,232.35,161.47,232.39z"/>
							</g>
						</g>
						<g>
							<g>
								<path class="st6" d="M156.23,281.38c0.01,0.04,0.54,0.01,1.5-0.07c0.96-0.09,2.35-0.21,4.06-0.32
									c3.43-0.23,8.18-0.34,13.41,0.03c5.23,0.38,9.92,1.16,13.29,1.87c1.68,0.35,3.04,0.66,3.98,0.89
									c0.94,0.22,1.46,0.32,1.47,0.28c0.01-0.04-0.49-0.22-1.41-0.51c-0.92-0.3-2.27-0.67-3.95-1.08
									c-3.36-0.82-8.07-1.67-13.34-2.05c-5.26-0.37-10.05-0.19-13.49,0.15c-1.72,0.17-3.11,0.34-4.06,0.51
									C156.75,281.23,156.23,281.33,156.23,281.38z"/>
							</g>
						</g>
						<g>
							<g>
								<path class="st6" d="M192.38,339.29c0.1-0.03-0.45-1.71-1.03-4.47c-0.59-2.76-1.14-6.65-1.11-10.97
									c0.04-4.32,0.66-8.2,1.3-10.95c0.64-2.76,1.21-4.42,1.11-4.45c-0.04-0.01-0.21,0.39-0.5,1.13
									c-0.29,0.74-0.65,1.84-1.02,3.22c-0.75,2.75-1.44,6.67-1.48,11.05c-0.03,4.37,0.59,8.31,1.29,11.07
									c0.35,1.38,0.68,2.49,0.96,3.23C192.17,338.9,192.34,339.31,192.38,339.29z"/>
							</g>
						</g>
						<g>
							<g>
								<path class="st6" d="M302.54,298.62c0,0.09,1.27,0.13,3.3,0.28c2.03,0.14,4.84,0.43,7.9,0.99c3.06,0.56,5.79,1.29,7.74,1.87
									c1.96,0.58,3.16,0.99,3.19,0.91c0.03-0.07-1.12-0.62-3.06-1.32c-1.94-0.7-4.68-1.49-7.76-2.06
									c-3.09-0.56-5.93-0.78-7.98-0.82C303.8,298.43,302.53,298.55,302.54,298.62z"/>
							</g>
						</g>
						<g>
							<g>
								<path class="st6" d="M294.52,347.67c0,0.02,0.15,0.03,0.44,0.03c0.28-0.01,0.71,0.02,1.25-0.04
									c1.08-0.07,2.65-0.31,4.52-0.88c3.7-1.1,8.7-3.92,12.13-8.98c3.42-5.08,4.22-10.84,3.91-14.76
									c-0.14-1.98-0.48-3.56-0.8-4.62c-0.14-0.54-0.31-0.93-0.41-1.21c-0.1-0.27-0.17-0.41-0.19-0.4
									c-0.14,0.03,0.8,2.34,0.97,6.25c0.2,3.86-0.66,9.46-3.98,14.4c-3.34,4.92-8.16,7.73-11.77,8.91
									C296.94,347.6,294.5,347.53,294.52,347.67z"/>
							</g>
						</g>
						<g>
							<g>
								<path class="st6" d="M268.49,355.34c0.04,0.16,4.92-0.96,10.91-2.5c5.99-1.55,10.8-2.93,10.76-3.1
									c-0.04-0.16-4.92,0.96-10.91,2.51C273.27,353.79,268.45,355.18,268.49,355.34z"/>
							</g>
						</g>
						<g>
							<g>
								<path class="st6" d="M207.37,343.82c-0.02,0.04,0.51,0.33,1.47,0.83c0.96,0.5,2.38,1.18,4.15,1.97
									c3.54,1.59,8.52,3.57,14.18,5.29c5.66,1.72,10.89,2.85,14.71,3.49c1.91,0.32,3.45,0.55,4.53,0.66
									c1.07,0.12,1.67,0.17,1.68,0.13c0.01-0.04-0.58-0.17-1.64-0.36c-1.06-0.19-2.6-0.47-4.49-0.85
									c-3.78-0.75-8.98-1.94-14.61-3.65c-5.63-1.72-10.62-3.62-14.19-5.1c-1.78-0.74-3.22-1.36-4.21-1.79
									C207.94,344,207.39,343.78,207.37,343.82z"/>
							</g>
						</g>
						<g>
							<g>
								<path class="st6" d="M247.97,310.54c-0.01,0.04,0.46,0.19,1.32,0.43c0.86,0.24,2.12,0.53,3.69,0.83
									c3.14,0.6,7.54,1.13,12.42,1.11c4.88-0.04,9.28-0.63,12.41-1.27c1.57-0.32,2.82-0.63,3.68-0.88
									c0.86-0.25,1.33-0.4,1.32-0.44c-0.01-0.04-0.5,0.04-1.37,0.21c-0.87,0.18-2.14,0.42-3.7,0.69
									c-3.13,0.53-7.49,1.05-12.34,1.09c-4.84,0.03-9.21-0.43-12.35-0.92c-1.57-0.24-2.84-0.47-3.71-0.64
									C248.47,310.57,247.98,310.5,247.97,310.54z"/>
							</g>
						</g>
						<g>
							<g>
								<path class="st6" d="M229.99,310.72c-0.03,0.07,0.76,0.47,2.1,0.91c1.34,0.44,3.26,0.88,5.42,1.05
									c2.16,0.16,4.12,0,5.51-0.23c1.39-0.24,2.23-0.52,2.21-0.59c-0.03-0.19-3.44,0.55-7.67,0.22
									C233.32,311.78,230.04,310.54,229.99,310.72z"/>
							</g>
						</g>
						<g>
							<g>
								<path class="st6" d="M269.72,210.31c-0.01,0.1,1.63,0.28,4.26,0.73c2.62,0.45,6.22,1.21,10.1,2.43
									c3.87,1.23,7.27,2.67,9.68,3.82c2.41,1.14,3.87,1.94,3.91,1.86c0.02-0.04-0.32-0.27-0.96-0.67
									c-0.63-0.4-1.58-0.94-2.77-1.57c-2.38-1.25-5.78-2.77-9.69-4.01c-3.91-1.23-7.56-1.94-10.21-2.28
									c-1.33-0.17-2.41-0.27-3.15-0.3C270.14,210.27,269.73,210.27,269.72,210.31z"/>
							</g>
						</g>
						<g>
							<g>
								<path class="st6" d="M262,214.97c-0.15,0.04,0.53,3.21,1.91,6.94c1.37,3.74,2.91,6.57,3.05,6.5
									c0.15-0.08-1.13-3.01-2.49-6.72C263.1,217.99,262.17,214.92,262,214.97z"/>
							</g>
						</g>
						<g>
							<g>
								<path class="st6" d="M226.06,223.53c-0.17,0.04,0.6,3.93,1.12,8.78c0.53,4.85,0.6,8.82,0.78,8.82
									c0.08,0,0.16-0.99,0.17-2.61c0-1.61-0.09-3.84-0.35-6.28c-0.26-2.44-0.65-4.64-1-6.21
									C226.43,224.46,226.13,223.51,226.06,223.53z"/>
							</g>
						</g>
						<g>
							<g>
								<path class="st6" d="M212.37,223.95c0.17,0.05,0.8-2.01,2.13-4.26c1.31-2.26,2.8-3.79,2.68-3.92
									c-0.09-0.12-1.82,1.27-3.19,3.61C212.61,221.72,212.22,223.93,212.37,223.95z"/>
							</g>
						</g>
					</g>
					<g>
						<g>
							<path class="st119" d="M293.16,299.87c-0.66-3.8-0.62-7.72,0.12-11.51c0.44-2.28,0.86-4.64,0.53-6.94
								c-0.32-2.3-2.3-4.8-4.57-4.71l-4.12,16.58L293.16,299.87z"/>
						</g>
						<g>
							<g>
								<path class="st59" d="M293.25,260.53l-14.53,58.6l-28.4-3.03l10.93-58.12c0.29-1.53,1.63-2.61,3.16-2.54l26,1.19
									C292.36,256.71,293.73,258.6,293.25,260.53z"/>
							</g>
							<g>
								<g>
									<path class="st61" d="M260.58,274.47c0.04,0.01,0.22-0.6,0.51-1.72c0.3-1.23,0.69-2.82,1.16-4.74
										c0.48-2.04,1.04-4.42,1.65-7.05c0.08-0.33,0.14-0.69,0.25-0.95c0.12-0.28,0.3-0.53,0.54-0.72
										c0.23-0.19,0.52-0.33,0.82-0.38c0.29-0.06,0.65-0.01,1.02,0c1.45,0.06,2.96,0.12,4.5,0.18c6.17,0.24,11.75,0.42,15.79,0.52
										c1.94,0.04,3.55,0.07,4.79,0.09c1.13,0.01,1.76-0.01,1.76-0.05c0-0.04-0.62-0.11-1.75-0.19c-1.24-0.07-2.84-0.17-4.78-0.28
										c-4.04-0.21-9.62-0.46-15.78-0.7c-1.54-0.06-3.04-0.11-4.5-0.17c-0.36,0-0.72-0.06-1.14,0.02
										c-0.4,0.07-0.77,0.26-1.08,0.51c-0.31,0.26-0.54,0.59-0.69,0.96c-0.14,0.39-0.18,0.71-0.26,1.05
										c-0.57,2.64-1.08,5.03-1.53,7.08c-0.4,1.94-0.73,3.55-0.98,4.78C260.64,273.83,260.54,274.46,260.58,274.47z"/>
								</g>
							</g>
							<g>
								<path class="st64" d="M276.35,262.25c0.29-0.51,0.9-1.12,1.74-0.79c0.33,0.05,0.96,0.6,0.96,1.2c0,0.59-0.33,1.18-0.85,1.44
									c-0.52,0.26-1.19,0.18-1.61-0.23C276.17,263.46,276.06,262.76,276.35,262.25z"/>
							</g>
						</g>
						<g>
							<path class="st119" d="M276.38,280.13c0.65,0.2,15.38,8.81,15.38,8.81l7.5,8.81c0,0,2.63,5.03,0,12.56
								c-2.63,7.54-6.49,10.06-15.25,11.86l-16.26-3.37l-11.44-7.28l3.38-13.21l11.25,9.19l6.38,1.15l1.05-2.11l-9.19-5.4
								l-14.37-12.4l4.5-4.98l13.32,8.81l11.38,5.74l-1.63-4.79l-13.2-10.91C269.18,282.62,268.31,277.64,276.38,280.13z"/>
						</g>
						<g>
							<g>
								<path class="st119" d="M275.28,271.95c0,0-3.06-1.97-8.37,0c-5.31,1.97-12.1,5.01-12.1,5.01l-10.12,2.47l1.29-2.47
									c0,0,9.82,1.46,9.66-5.88h-5.96l-4.99-2.9l-10.47,9.53l-4.67,12l-6.44,5.01l7.85,20.48l16.63-2.81l14.17,1.48l7.42-5.59
									l1.11-7.48l7.33-6.98c0,0,1.05-3.62-2.17-4.11c-3.22-0.49-11.35,7.06-11.35,7.06l-7.81-0.15c0,0-1.29-1.31-0.16-1.97
									c1.13-0.66,24.64-11.18,25.76-13.73c1.13-2.55,2.25-4.19,0-5.01c-2.25-0.82-6.12,0.33-6.12,0.33
									S276.99,272.59,275.28,271.95z"/>
							</g>
							<g>
								<g>
									<path class="st120" d="M255.64,285.53c0.07,0.15,4.75-1.83,10.46-4.43c5.71-2.6,10.29-4.83,10.22-4.98
										c-0.07-0.15-4.75,1.83-10.46,4.43C260.15,283.15,255.58,285.38,255.64,285.53z"/>
								</g>
							</g>
							<g>
								<g>
									<path class="st120" d="M250.2,304.09c-0.01,0.04,0.4,0.2,1.16,0.44c0.76,0.24,1.86,0.57,3.24,0.88
										c1.39,0.31,3.07,0.6,4.97,0.58c1.9-0.02,4-0.46,5.99-1.41c4.01-1.9,6.76-4.95,8.59-7.12c0.92-1.1,1.62-2.03,2.1-2.67
										c0.47-0.65,0.72-1.02,0.69-1.04c-0.07-0.06-1.21,1.3-3.1,3.43c-1.9,2.08-4.65,5.02-8.53,6.85
										c-1.92,0.92-3.92,1.35-5.76,1.4c-1.84,0.05-3.5-0.19-4.88-0.44C251.92,304.45,250.23,303.99,250.2,304.09z"/>
								</g>
							</g>
							<g>
								<g>
									<path class="st120" d="M223.11,294.72c0,0,0.15-0.09,0.44-0.3c0.3-0.23,0.72-0.54,1.25-0.94c1.12-0.85,2.73-2.09,4.82-3.68
										l0.02-0.02l0.01-0.03c1.23-3.12,2.82-7.16,4.73-11.98l-0.04,0.07c3.09-2.8,6.61-5.98,10.49-9.5l-0.25,0.03
										c1.55,0.9,3.24,1.9,4.98,2.92l0.05,0.03l0.06,0c1.85,0,3.88,0.01,5.96,0.01l-0.24-0.24c-0.06,1-0.12,2.07-0.7,2.93
										c-0.52,0.87-1.34,1.54-2.29,1.98c-1.93,0.85-4.21,0.95-6.39,0.71l-0.19-0.02l-0.08,0.16c-0.4,0.76-0.84,1.61-1.29,2.47
										l-0.28,0.53l0.57-0.14c3.19-0.77,6.61-1.61,10.12-2.46l0.02-0.01l0.02-0.01c3.14-1.39,6.4-2.77,9.77-4.1
										c1.69-0.65,3.38-1.38,5.17-1.62c1.76-0.26,3.71-0.12,5.26,0.71l0.05,0.02l0.01,0c0.53,0.19,0.74,0.91,0.71,1.64
										c-0.02,0.74-0.18,1.52-0.41,2.25l-0.17,0.53l0.53-0.15c1.09-0.3,2.24-0.52,3.4-0.59c1.13-0.06,2.4-0.01,3.25,0.64
										c0.42,0.3,0.45,0.82,0.31,1.38c-0.15,0.56-0.41,1.12-0.67,1.68c-0.29,0.55-0.46,1.22-0.84,1.54
										c-0.42,0.4-0.92,0.76-1.43,1.1c-4.23,2.68-8.73,4.81-13.08,6.96c-2.19,1.04-4.36,2.08-6.5,3.1
										c-1.08,0.51-2.14,1.01-3.21,1.51l-0.8,0.38c-0.25,0.12-0.61,0.29-0.8,0.68c-0.19,0.39-0.08,0.81,0.05,1.11
										c0.15,0.31,0.33,0.56,0.55,0.81l0.08,0.08l0.12,0c2.65,0.05,5.25,0.1,7.81,0.15l0.11,0l0.09-0.08
										c2.45-2.2,4.97-4.28,7.65-5.85c1.33-0.72,2.81-1.52,4.15-0.96c0.66,0.24,1.14,0.78,1.31,1.46
										c0.17,0.67,0.14,1.44-0.03,2.11l0.07-0.12c-2.55,2.44-4.98,4.76-7.31,7l-0.06,0.06l-0.01,0.08
										c-0.38,2.58-0.75,5.08-1.1,7.48l0.09-0.15c-2.63,1.99-5.09,3.85-7.41,5.61l0.14-0.04c-5.45-0.55-10.15-1.02-14.17-1.43
										l-0.02,0l-0.02,0c-5.31,0.93-9.46,1.65-12.3,2.15c-1.39,0.25-2.46,0.45-3.21,0.58c-0.34,0.07-0.61,0.12-0.82,0.16
										c-0.18,0.04-0.27,0.06-0.27,0.07c0,0.01,0.1,0,0.28-0.03c0.21-0.03,0.48-0.07,0.82-0.12c0.75-0.12,1.83-0.29,3.22-0.5
										c2.85-0.46,7.01-1.14,12.33-2.01l-0.04,0c4.02,0.43,8.72,0.94,14.16,1.53l0.08,0.01l0.06-0.05
										c2.33-1.74,4.8-3.59,7.43-5.57l0.08-0.06l0.01-0.1c0.36-2.4,0.74-4.89,1.13-7.48l-0.07,0.14c2.34-2.23,4.78-4.54,7.34-6.97
										l0.06-0.05l0.02-0.07c0.2-0.79,0.24-1.59,0.04-2.41c-0.11-0.4-0.31-0.79-0.58-1.12c-0.3-0.31-0.65-0.57-1.04-0.71
										c-0.76-0.33-1.67-0.26-2.43-0.02c-0.76,0.26-1.49,0.59-2.18,1c-2.76,1.61-5.29,3.68-7.77,5.91l0.19-0.07
										c-2.56-0.05-5.16-0.1-7.81-0.16l0.2,0.09c-0.34-0.36-0.66-0.93-0.49-1.24c0.15-0.3,0.84-0.52,1.32-0.78
										c1.06-0.5,2.13-1,3.21-1.51c2.15-1.02,4.32-2.05,6.51-3.1c4.36-2.15,8.85-4.27,13.15-6.99c0.53-0.35,1.04-0.71,1.53-1.18
										c0.24-0.2,0.48-0.61,0.57-0.86l0.39-0.85c0.26-0.57,0.53-1.14,0.7-1.79c0.08-0.32,0.13-0.68,0.07-1.06
										c-0.06-0.38-0.3-0.73-0.57-0.95c-1.14-0.84-2.47-0.82-3.66-0.78c-1.22,0.08-2.38,0.3-3.53,0.62l0.36,0.39
										c0.25-0.8,0.42-1.6,0.44-2.44c0.01-0.41-0.03-0.84-0.19-1.26c-0.15-0.41-0.49-0.8-0.91-0.96l0.06,0.03
										c-1.8-0.96-3.79-1.05-5.66-0.79c-1.89,0.26-3.61,1.02-5.3,1.66c-3.38,1.34-6.64,2.73-9.79,4.13l0.05-0.02
										c-3.51,0.86-6.93,1.7-10.12,2.48l0.3,0.39c0.45-0.86,0.89-1.71,1.28-2.47l-0.27,0.14c2.29,0.24,4.6,0.14,6.67-0.77
										c1.02-0.47,1.94-1.21,2.51-2.19c0.63-0.97,0.7-2.13,0.76-3.2l0.01-0.24l-0.25,0c-2.08,0-4.11,0.01-5.96,0.01l0.11,0.03
										c-1.75-1.01-3.45-1.99-5-2.89l-0.13-0.08l-0.11,0.1c-3.86,3.54-7.37,6.75-10.44,9.57l-0.03,0.03l-0.01,0.04
										c-1.86,4.84-3.41,8.89-4.61,12.02l0.04-0.05c-2.06,1.63-3.65,2.9-4.75,3.77c-0.52,0.42-0.93,0.75-1.22,0.98
										C223.24,294.59,223.11,294.72,223.11,294.72z"/>
								</g>
							</g>
						</g>
					</g>
					<g>
						<path class="st59" d="M297.63,184.14c-0.41,3.66-3.27,6.54-6.86,6.91c0.49,0.98-0.46,2.1-1.44,2.57s-2.15,0.75-2.73,1.68
							c-0.49,0.77-0.44,1.84-1.07,2.51c-1.05,1.12-2.88,0.16-4.4,0.34c-0.76,0.18-1.51,0.42-2.24,0.72
							c-1.73,0.43-3.54-0.27-4.56-1.75c-2.1,1.83-5.11,2.06-7.45,0.58c-1.52,1.49-3.87,1.65-5.57,0.39
							c-1.97,1.25-4.51,0.77-6.72,0.26l-10.88-2.48l-2.81,0.98c0.14,3.79-2.76,6.98-6.47,7.12c-1.19,0.05-2.37-0.23-3.42-0.8
							c-1.55,1.31-3.81,1.27-5.32-0.08c-3.84,1.4-8.06,0.47-12.03-0.47c-1.26-0.3-2.67-0.73-3.22-1.96
							c-0.79,0.92-2.28,0.76-3.33,0.16c-0.98-0.71-1.99-1.37-3.04-1.96c-0.96-0.43-2.16-0.47-3.06-1.09
							c-0.9-0.62-1.23-2.28-0.24-2.73c-1.74-0.09-3.09-1.6-3-3.38c0.02-0.47,0.15-0.93,0.37-1.35c-1.92,0.57-3.07-2.01-3.84-3.92
							c-0.65-1.6-1.61-3.06-2.82-4.28c-2.14-2.17-5.28-4-5.39-7.07c0-1.38,0.58-2.79,0.15-4.1c-0.19-0.61-0.61-1.14-0.76-1.76
							c-0.54-2.24,2.25-3.66,4.45-4.18"/>
						<path class="st59" d="M316.99,140.53c1.12-0.79,2.2-1.96,2.12-3.35c-0.08-1.39-2.04-2.44-2.88-1.33
							c1.03-0.32,1.61-1.43,1.29-2.48c-0.31-1.05-1.4-1.64-2.43-1.32c1.74-2.04,0.15-5.88-2.49-6.01c2.16-2.33-0.4-6.98-3.48-6.31
							c1.13-0.95,1.29-2.66,0.36-3.81c-0.75-0.94-2.02-1.25-3.11-0.76c1.1-2.28-1.74-5.25-4-4.19c0.75-2.37-1.92-5.04-4.24-4.21
							c0.47-1.26-0.15-2.67-1.38-3.15c-1.1-0.43-2.35,0.03-2.93,1.07c0.63-1.59-0.11-3.39-1.67-4.04c-1.26-0.53-2.72-0.12-3.55,0.98
							c0.49-1.5-0.31-3.12-1.78-3.62c-1.18-0.4-2.47,0.04-3.18,1.07c0.25-2.35-1.42-4.47-3.72-4.72c-1.37-0.15-2.73,0.39-3.63,1.46
							c0.17-1.61-1.43-2.94-3.01-3.09c-1.6,0.01-3.16,0.46-4.52,1.3c-0.59-1.32-1.98-2.07-3.38-1.82c-1.36,0.26-2.64,0.84-3.75,1.7
							c-0.13-0.86-0.49-1.66-1.04-2.32l-2.52,0.98c1.97-1.14,2.66-3.7,1.55-5.71c-0.91-1.63-2.77-2.45-4.55-2
							c1.55-1.89,0-4.69-1.59-6.58l-1.36-1.67c-0.39-0.54-0.87-0.99-1.42-1.34c-1.22-0.62-2.69-0.19-3.42,0.98
							c0.35-1.5-0.55-3.01-2.02-3.37c-1.22-0.3-2.48,0.28-3.06,1.41c-1.37-2.66-5.76-2.81-7.3-0.26c0.06-1.36-1.92-1.76-3.09-1.17
							c-1.17,0.59-2.21,1.79-3.54,1.79c-0.8-0.12-1.59-0.31-2.35-0.57c-2.01-0.29-3.89,1.07-4.29,3.1
							c-2.57-1.06-5.51-0.13-7.04,2.22c-3.26-0.35-6.35,1.36-9.19,3.02c-1.35,0.79-2.88,2.52-1.83,3.68
							c-2.47-0.43-4.81,1.27-5.23,3.79c-0.04,0.23-0.06,0.47-0.06,0.7c-2.67-0.98-5.76,2.41-4.51,5.04
							c-1.92-0.69-3.96,1.96-2.88,3.66c-1.55-0.39-3.11,0.58-3.48,2.16c-0.13,0.54-0.11,1.1,0.06,1.63
							c-1.51-0.53-2.81,1.65-2.23,3.17c0.59,1.52,2.17,2.34,3.62,3.03c-1.15-0.29-2.37-0.11-3.39,0.5c-0.96,0.72-1.12,2.46-0.08,3
							c-2.51-0.09-4.61,1.91-4.7,4.47c-0.01,0.22,0,0.45,0.02,0.67c-2.07-0.45-3.72,2.77-2.18,4.24c-2.38,0.98-2.7,4.9-0.51,6.27
							c-3.07,2.03-3.94,6.23-1.95,9.36c0.05,0.08,0.1,0.15,0.15,0.23c-1.92,0.86-1.66,4.31,0.35,4.9c-1.92,2.76,0,7.3,3.31,7.75
							c-1.64-0.19-3.13,1.02-3.32,2.69c-0.19,1.68,0.99,3.19,2.64,3.39c0.11,0.01,0.23,0.02,0.34,0.02
							c-0.72,1.02-1.16,2.21-1.28,3.45c-0.07,1.29,0.86,2.42,2.12,2.56c0.7,2.98,2.04,5.76,3.94,8.14c0.63,0.79,1.56,1.62,2.54,1.35
							c-0.7,1.96,1.92,4.1,3.67,2.94c-1.1,2.16,1.18,5.15,3.51,4.58c-0.19,0.69-0.37,1.36-0.56,2.04c0.79,0.74,1.56,1.48,2.28,2.27
							c2.3,2.52,4.07,5.5,5.19,8.76c-0.69,0.45-0.51,1.63,0.13,2.16c0.7,0.45,1.52,0.68,2.34,0.64l13.45,0.69
							c0.64,1.94,2.71,2.99,4.62,2.33c0.42-0.14,0.81-0.37,1.15-0.65l2,1.52c0.68-0.59,1.2-1.35,1.52-2.2
							c1.42,1.04,3.37,0.09,4.8-0.85l4.61-2.94c2.51,0,4.89-0.98,7.19-1.96c1.51-0.65,3.3-2.29,2.28-3.58
							c6.12-0.98,12.37-0.76,18.41,0.64c1.15,0.37,2.36,0.47,3.55,0.31c1.32-0.31,2.46-1.33,3.84-1.29
							c2.09,0.07,3.91,2.69,5.82,1.81c0.61-0.28,1.05-0.88,1.67-1.12c0.96-0.37,2.05,0.28,3.08,0.51c1.04,0.23,2.48-0.6,2.03-1.58
							l8.28-0.28c2.6-0.08,5.34-0.21,7.56-1.59c2.22-1.38,3.65-4.48,2.35-6.79c3.19-1.34,5.4-4.35,5.76-7.85
							c1.13,0.15,2.05-0.98,2.38-2.12c0.17-1.15,0.49-2.27,0.96-3.33c0.58-0.91,1.6-1.51,1.97-2.53c0.17-0.72,0.17-1.47,0-2.19
							c-0.39-2.72-0.78-5.43-1.17-8.13c1.44-0.32,2.36-1.77,2.04-3.24c-0.08-0.35-0.22-0.69-0.42-0.99l2.88-1.69
							c-0.15-0.76-0.62-1.41-1.29-1.78l2.54-1.31c-0.75-0.77-1.02-1.9-0.71-2.94l-4.73-1.51"/>
						<path class="st119" d="M261.42,201.59l0.23,12.91c-10.04-0.39-20.12-1.15-30.14-1.73c-4.14-0.24-9.71-0.68-14.32,0.58
							l-1.03-86.75c0.01-3.88,2.75-7.19,6.49-7.85l33.26-5.82c12.25-1.1,25.25,11.64,25.79,24.17c0.62,13.93,0.84,30.95-0.96,41.3
							C277.13,199.23,261.42,201.59,261.42,201.59z"/>
						<path class="st119" d="M217.85,155.53c-0.3-0.14-12.06-4.2-12.17,8.22c-0.12,12.41,12.11,9.96,12.14,9.61
							C217.85,173.01,217.85,155.53,217.85,155.53z"/>
						<path class="st107" d="M214.15,168.62c-0.06,0-0.21,0.15-0.58,0.31c-0.51,0.21-1.08,0.21-1.59,0
							c-1.28-0.5-2.34-2.59-2.38-4.82c-0.02-1.06,0.2-2.12,0.62-3.09c0.24-0.79,0.84-1.4,1.61-1.65c0.5-0.13,1.03,0.12,1.24,0.61
							c0.16,0.34,0.08,0.59,0.14,0.62c0.07,0.03,0.26-0.21,0.17-0.73c-0.07-0.31-0.23-0.58-0.47-0.77
							c-0.33-0.26-0.75-0.38-1.17-0.33c-1.02,0.2-1.86,0.92-2.23,1.9c-0.52,1.07-0.79,2.25-0.77,3.45c0.06,2.5,1.29,4.85,3.05,5.39
							c0.65,0.2,1.36,0.08,1.92-0.31C214.12,168.92,214.19,168.64,214.15,168.62z"/>
						<path class="st59" d="M198.53,183.24c5.84,2.25,5.02-26.97,10.23-30.5c5.21-3.53,3.84,9.81,10.81,4.9
							c4.54-3.19,3.91-4.27,6.62-9.17c3.58-6.48,13.39-7.01,17.01-13.47c2.1-3.76,1.54-8.66,3.84-12.3
							c2.15-3.43,6.29-4.9,10.21-5.66c3.92-0.76,8.03-1.03,11.53-2.94s6.19-6.28,4.74-10.06c-16.75-0.72-33.52,0.59-49.96,3.92
							c-3.84,0.76-7.84,1.77-10.49,4.68c-2.8,3.07-3.4,7.53-3.84,11.7l-6.95,60.91"/>
						<path class="st59" d="M249.31,73.12c0,0,0.13-0.15,0.42-0.34c0.42-0.29,0.91-0.43,1.41-0.42c0.79,0,1.54,0.36,2.06,0.98
							c0.66,0.83,1.01,1.87,0.96,2.94v0.28l0.27-0.11c1.51-0.57,3.21-0.25,4.42,0.83c1.36,1.33,1.73,3.4,0.91,5.13l-0.68,1.38
							l1.08-1.09c0.88-0.77,2.14-0.9,3.15-0.32c1.27,0.68,1.9,2.17,1.52,3.58c-0.14,0.67-0.44,1.3-0.87,1.82
							c-0.34,0.52-0.88,0.87-1.48,0.98c-0.24-0.01-0.44-0.17-0.51-0.4c-0.05-0.2,0.09-0.36,0.33-0.39c0.53-0.01,1,0.35,1.14,0.87
							c0.25,1.05,0.13,2.15-0.35,3.11c-0.58,1.49-1.45,2.84-2.56,3.98c-0.78,0.8-1.29,1.17-1.27,1.21c0.14-0.06,0.27-0.14,0.39-0.24
							c0.36-0.26,0.7-0.54,1.02-0.83c1.18-1.12,2.12-2.47,2.75-3.98c0.53-1.04,0.67-2.25,0.4-3.39c-0.21-0.72-0.86-1.2-1.59-1.18
							c-0.21,0.03-0.41,0.13-0.56,0.28c-0.15,0.18-0.21,0.43-0.15,0.67c0.1,0.45,0.51,0.77,0.96,0.76c0.39,0,0.77-0.13,1.08-0.37
							c0.29-0.22,0.56-0.48,0.8-0.76c0.47-0.58,0.8-1.28,0.96-2.02c0.18-0.79,0.13-1.61-0.15-2.36c-0.73-1.79-2.73-2.63-4.48-1.89
							c-0.31,0.13-0.6,0.31-0.86,0.53l0.39,0.29c1.16-2.34,0.24-5.21-2.05-6.39c-1.2-0.62-2.61-0.68-3.86-0.16l0.26,0.19
							c0.01-1.15-0.39-2.26-1.13-3.13c-0.58-0.65-1.41-1.01-2.28-0.98c-0.54,0.01-1.06,0.2-1.48,0.55c-0.11,0.09-0.21,0.19-0.29,0.3
							C249.35,73.05,249.33,73.08,249.31,73.12z"/>
						<path class="st59" d="M291.23,100.45c0,0,0.07-0.08,0.14-0.27c0.08-0.29,0.08-0.59,0-0.88c-0.1-0.47-0.35-0.9-0.7-1.22
							c-0.48-0.48-1.16-0.68-1.82-0.51l0.19,0.18c0.1-0.73-0.12-1.48-0.61-2.02c-0.55-0.68-1.41-1.01-2.27-0.88l0.24,0.16
							c-0.11-0.77-0.39-1.5-0.82-2.15c-0.26-0.36-0.62-0.63-1.04-0.77c-0.45-0.17-0.95-0.14-1.36,0.1l0.36,0.18
							c-0.17-1.69-1.65-2.91-3.3-2.74c-1.05,0.11-1.97,0.78-2.41,1.76l-0.91,1.96l1.34-1.74c0.19-0.26,0.33-0.56,0.4-0.87
							c0.21-1.02-0.16-2.08-0.96-2.74c-0.79-0.56-1.78-0.73-2.7-0.46c-0.86,0.24-1.61,0.77-2.12,1.51
							c-0.48,0.67-0.81,1.43-0.96,2.25h0.43c-0.09-0.93-0.75-1.69-1.64-1.89c-0.75-0.17-1.54-0.07-2.22,0.29
							c-1.09,0.52-2.03,1.3-2.77,2.28c-0.49,0.62-0.78,1.38-0.84,2.17c-0.01,0.21,0.01,0.42,0.06,0.62
							c0.01,0.07,0.03,0.14,0.07,0.21c0,0,0-0.29,0-0.81c0.1-0.74,0.41-1.44,0.89-2.01c0.74-0.9,1.66-1.62,2.71-2.11
							c0.6-0.29,1.27-0.38,1.92-0.24c0.76,0.17,1.32,0.83,1.35,1.63v2.05l0.4-2.01c0.23-1.56,1.29-2.87,2.76-3.37
							c0.78-0.22,1.62-0.07,2.28,0.4c0.66,0.52,0.97,1.38,0.8,2.22c-0.05,0.24-0.16,0.47-0.31,0.67l0.42,0.26
							c0.5-1.07,1.65-1.67,2.8-1.46c1.06,0.25,1.86,1.14,2.01,2.25v0.36l0.31-0.19c0.65-0.29,1.41-0.07,1.82,0.53
							c0.39,0.59,0.65,1.26,0.77,1.96v0.2h0.19c0.72-0.11,1.44,0.16,1.92,0.72c0.44,0.46,0.65,1.1,0.58,1.74v0.25l0.23-0.08
							c0.56-0.14,1.15,0,1.58,0.39c0.33,0.28,0.58,0.66,0.7,1.08C291.26,99.71,291.29,100.08,291.23,100.45z"/>
						<path class="st59" d="M170.69,158.06c-0.24-0.08-0.48-0.14-0.73-0.17c-0.67-0.13-1.32-0.36-1.92-0.69
							c-0.93-0.46-1.62-1.29-1.92-2.29c-0.14-0.61-0.1-1.24,0.1-1.82c0.21-0.64,0.69-1.15,1.32-1.38l0.44-0.14l-0.38-0.27
							c-0.88-0.65-1.35-1.73-1.24-2.83c0.15-1.2,0.99-2.19,2.12-2.53c0.12-0.04,0.24-0.07,0.37-0.09l0.36-0.07l-0.17-0.3
							c-0.73-1.03-1.04-2.3-0.88-3.56c0.28-1.06,1.59-1.84,2.37-1.27l0.64,0.47l-0.31-0.75c-0.49-1.18-0.49-2.51,0-3.69
							c0.39-0.92,1.07-1.68,1.92-2.17c0.76-0.42,1.6-0.68,2.46-0.75c-0.23-0.04-0.46-0.04-0.69,0c-0.67,0.03-1.33,0.22-1.92,0.55
							c-0.92,0.5-1.66,1.29-2.1,2.26c-0.56,1.27-0.6,2.72-0.1,4.01l0.34-0.27c-0.57-0.36-1.29-0.36-1.86,0
							c-0.59,0.32-1.04,0.87-1.24,1.53c-0.19,1.38,0.13,2.78,0.91,3.92l0.18-0.38c-0.15,0.03-0.29,0.06-0.43,0.11
							c-1.32,0.4-2.28,1.55-2.47,2.94c-0.12,1.28,0.44,2.53,1.47,3.28l0.06-0.41c-0.75,0.28-1.32,0.9-1.57,1.68
							c-0.22,0.68-0.24,1.4-0.07,2.09c0.35,1.1,1.15,1.99,2.18,2.45c0.64,0.31,1.32,0.5,2.03,0.58
							C170.19,158.13,170.44,158.12,170.69,158.06z"/>
						<path class="st61" d="M207.27,130.61c-0.24-0.64-0.34-1.33-0.31-2.02c0.06-0.82,0.32-1.61,0.76-2.29
							c0.57-0.94,1.47-1.61,2.52-1.88h0.15l-0.05-0.16c-0.24-0.88,0.05-1.83,0.74-2.41c0.37-0.32,0.83-0.5,1.32-0.51
							c0.59,0.04,1.17-0.13,1.64-0.49c0.4-0.47,0.68-1.04,0.79-1.66c0.12-0.57,0.4-1.09,0.81-1.51c0.89-0.88,2.22-1.1,3.34-0.57
							l0.85,0.45l-0.58-0.77c-0.72-1.04-0.64-2.45,0.19-3.4c0.95-0.96,2.46-1.04,3.51-0.2l0.56,0.48l-0.17-0.73
							c-0.54-2.26,0.82-4.54,3.04-5.09c1.5-0.37,3.08,0.14,4.09,1.33l0.47,0.55V109c-0.04-1.33,0.32-2.65,1.03-3.77
							c0.65-1.03,1.56-1.87,2.64-2.41c1.05-0.53,2.24-0.71,3.4-0.53c2.27,0.33,4.2,1.84,5.1,3.99l0.24,0.61l0.21-0.62
							c0.4-1.04,1.24-1.85,2.29-2.2c1-0.37,2.08-0.39,3.09-0.06c1.86,0.73,3.39,2.13,4.32,3.92l0.12,0.2l0.18-0.14
							c1.93-1.51,4.4-2.11,6.79-1.67c1.82,0.35,3.47,1.3,4.7,2.72c0.79,0.89,1.4,1.94,1.8,3.08c0.26,0.78,0.32,1.23,0.36,1.23
							c-0.04-0.43-0.12-0.85-0.25-1.27c-0.35-1.17-0.94-2.26-1.73-3.19c-1.24-1.49-2.93-2.51-4.8-2.89
							c-2.49-0.49-5.07,0.11-7.1,1.67l0.3,0.06c-0.97-1.9-2.58-3.39-4.53-4.18c-1.1-0.38-2.29-0.38-3.38,0
							c-1.18,0.39-2.13,1.3-2.58,2.48h0.44c-0.95-2.32-3.03-3.96-5.47-4.31c-1.26-0.19-2.55,0.01-3.7,0.57
							c-1.17,0.58-2.17,1.48-2.88,2.6c-0.77,1.2-1.16,2.62-1.1,4.06l0.44-0.18c-1.66-1.97-4.58-2.19-6.5-0.49
							c-1.32,1.16-1.88,2.98-1.46,4.7l0.38-0.24c-1.27-1.1-3.17-0.94-4.25,0.35c-0.92,1.11-0.96,2.72-0.09,3.87l0.26-0.32
							c-1.29-0.63-2.83-0.37-3.84,0.67c-1.04,0.98-0.84,2.48-1.57,3.19c-0.42,0.3-0.92,0.44-1.43,0.4c-0.55,0.02-1.08,0.24-1.5,0.62
							c-0.77,0.68-1.08,1.76-0.8,2.76l0.11-0.19c-1.11,0.3-2.07,1.03-2.65,2.04c-0.43,0.73-0.68,1.55-0.72,2.4
							c-0.01,0.53,0.06,1.05,0.23,1.55C207.08,130.28,207.17,130.45,207.27,130.61z"/>
						<path class="st61" d="M304.16,137.22c0.18-0.21,0.33-0.45,0.45-0.71c0.41-0.7,0.77-1.42,1.07-2.18
							c0.51-1.19,0.66-2.52,0.42-3.8c-0.18-0.79-0.56-1.53-1.1-2.13c-0.6-0.71-1.47-1.12-2.39-1.14l0.2,0.25
							c0.27-1.4-0.17-2.85-1.15-3.86c-1.04-1.18-2.63-1.7-4.15-1.35l0.3,0.28c0.3-1.51-0.03-3.08-0.91-4.32
							c-0.96-1.32-2.45-2.12-4.05-2.18c-0.63-0.02-1.27,0.07-1.87,0.25c-0.57,0.16-1.16,0.28-1.52,0s-0.44-0.92-0.76-1.48
							c-0.31-0.53-0.73-0.99-1.21-1.36c-1.86-1.43-4.45-1.33-6.21,0.24l0.37,0.13c-0.14-1.13-0.43-2.23-0.85-3.28
							c-0.37-1-1.09-1.83-2.02-2.32c-0.85-0.36-1.79-0.42-2.67-0.16c-0.73,0.16-1.45,0.4-2.13,0.72c-0.96,0.43-1.86,1-2.66,1.7
							c-0.21,0.18-0.42,0.37-0.61,0.58c-0.12,0.14-0.19,0.22-0.18,0.23c1.07-0.93,2.26-1.69,3.55-2.26
							c0.67-0.29,1.38-0.51,2.09-0.65c0.81-0.23,1.68-0.16,2.45,0.19c0.83,0.47,1.47,1.23,1.8,2.15c0.39,1.02,0.66,2.09,0.8,3.18
							l0.06,0.44l0.32-0.31c1.6-1.38,3.93-1.45,5.6-0.16c0.43,0.33,0.8,0.74,1.08,1.22c0.13,0.25,0.23,0.51,0.33,0.77
							c0.1,0.34,0.29,0.64,0.56,0.86c0.29,0.21,0.65,0.31,1.01,0.26c0.32-0.02,0.65-0.08,0.96-0.17c0.56-0.18,1.14-0.27,1.73-0.25
							c1.45,0.05,2.81,0.77,3.68,1.96c0.8,1.13,1.11,2.55,0.84,3.92l-0.08,0.39l0.37-0.11c1.35-0.31,2.77,0.14,3.7,1.2
							c0.92,0.89,1.34,2.18,1.12,3.45l-0.06,0.26h0.19c0.81,0.01,1.57,0.37,2.11,0.98c0.51,0.55,0.87,1.23,1.06,1.96
							c0.24,1.22,0.13,2.48-0.33,3.63C304.74,136.19,304.1,137.19,304.16,137.22z"/>
						<path class="st61" d="M188.25,110.33c0.07-0.68,0.24-1.34,0.52-1.96c0.35-0.73,0.85-1.38,1.46-1.89
							c0.83-0.7,1.85-1.12,2.93-1.19h0.18l-0.07-0.18c-0.36-0.98-0.32-2.07,0.11-3.02c0.46-1.13,1.4-1.98,2.56-2.3h0.17l-0.05-0.18
							c-0.25-0.95-0.09-1.97,0.45-2.79c0.54-0.91,1.47-1.52,2.51-1.66c0.62,0.06,1.24-0.1,1.76-0.44c0.54-0.55,0.37-1.29,0.6-1.77
							c0.48-1.06,1.71-1.52,2.74-1.03c0.03,0.01,0.06,0.03,0.09,0.05l0.24,0.17l0.09-0.28c0.96-2.53,3.74-3.78,6.21-2.8
							c0.04,0.02,0.08,0.03,0.12,0.05l0.22,0.11l0.1-0.24c1.02-2.08,3.51-2.92,5.55-1.87c0.29,0.15,0.56,0.33,0.81,0.55l0.23,0.23
							l0.15-0.27c1.3-2.4,5.6-2.42,6.9,0.25l0.23,0.48l0.22-0.48c0.72-1.43,2.39-2.05,3.84-1.42c1.08,0.53,1.77,1.66,1.74,2.88v0.68
							l0.46-0.49c2.22-2.36,6.65-1.3,7.69,1.57l0.14,0.39l0.27-0.3c1.84-2.05,4.95-2.19,6.96-0.32c0.92,0.86,1.49,2.05,1.59,3.33
							v0.32l0.29-0.14c3.24-1.55,7.1-0.12,8.62,3.19c0.48,1.05,0.68,2.2,0.59,3.35v0.22h0.21c2.53-0.14,5.01,0.74,6.93,2.43
							c1.42,1.3,2.43,3.01,2.88,4.9c0.31,1.19,0.4,2.43,0.27,3.66c-0.1,0.84-0.22,1.27-0.19,1.28c0.14-0.41,0.24-0.83,0.3-1.27
							c0.17-1.24,0.11-2.51-0.17-3.73c-0.43-1.95-1.44-3.71-2.88-5.06c-1.96-1.78-4.52-2.71-7.14-2.59l0.19,0.2
							c0.34-3.86-2.44-7.27-6.22-7.62c-1.22-0.11-2.44,0.11-3.54,0.64l0.32,0.19c-0.22-3.04-2.82-5.31-5.79-5.08
							c-1.37,0.11-2.65,0.74-3.58,1.77l0.41,0.08c-0.65-1.61-2.06-2.77-3.74-3.08c-1.7-0.43-3.5,0.07-4.76,1.32l0.43,0.19
							c0.03-1.44-0.77-2.76-2.04-3.37c-1.69-0.72-3.64,0.01-4.47,1.68h0.45c-0.77-1.45-2.27-2.35-3.89-2.31
							c-1.55-0.08-3.02,0.7-3.84,2.04l0.38-0.06c-1.93-1.69-4.83-1.47-6.49,0.5c-0.26,0.31-0.48,0.64-0.65,1l0.32-0.12
							c-2.63-1.17-5.68,0.06-6.83,2.74c-0.04,0.1-0.08,0.2-0.12,0.31l0.32-0.12c-1.18-0.68-2.68-0.25-3.35,0.96
							c-0.03,0.06-0.06,0.12-0.09,0.18c-0.25,0.65-0.13,1.3-0.49,1.63c-0.36,0.32-0.96,0.29-1.53,0.34
							c-1.16,0.15-2.18,0.83-2.78,1.85c-0.58,0.91-0.75,2.03-0.46,3.08l0.12-0.21c-1.24,0.36-2.26,1.28-2.75,2.5
							c-0.45,1.03-0.47,2.2-0.07,3.26l-0.05-0.2c-1.13,0.07-2.2,0.52-3.05,1.28c-0.62,0.54-1.12,1.21-1.46,1.96
							c-0.2,0.47-0.33,0.97-0.38,1.48C188.24,110.15,188.25,110.33,188.25,110.33z"/>
						<path class="st98" d="M204.48,168c0,0-0.14,0-0.39,0.13c-0.37,0.16-0.72,0.35-1.06,0.58c-1.25,0.84-2.22,2.03-2.81,3.43
							c-0.86,2.1-0.98,4.43-0.34,6.61c0.43,1.28,1.18,2.42,2.17,3.3c1.03,0.99,2.29,1.69,3.66,2.05c1.4,0.27,2.84,0.15,4.18-0.34
							c1.26-0.4,2.4-1.14,3.28-2.15c1.48-1.72,2.2-3.99,1.98-6.28c-0.1-1.52-0.64-2.97-1.55-4.18c-0.26-0.32-0.56-0.59-0.9-0.81
							c-0.12-0.08-0.24-0.14-0.37-0.19c0.42,0.33,0.8,0.7,1.12,1.13c0.82,1.2,1.28,2.62,1.35,4.08c0.14,2.15-0.57,4.27-1.98,5.88
							c-0.84,0.92-1.9,1.6-3.08,1.96c-1.25,0.45-2.6,0.56-3.91,0.32c-1.29-0.35-2.48-1.03-3.45-1.96c-0.94-0.83-1.65-1.89-2.06-3.09
							c-0.64-2.07-0.56-4.3,0.22-6.32c0.54-1.36,1.43-2.54,2.58-3.41C203.97,168.25,204.5,168.04,204.48,168z"/>
						<path class="st61" d="M190.7,135.13c1.15-0.21,2.33-0.22,3.49-0.05c1.34,0.24,2.61,0.78,3.72,1.58
							c0.76,0.48,1.64,0.7,2.53,0.63c0.97-0.1,1.91-0.4,2.77-0.88h-0.22c1.34,1,2.94,1.55,4.59,1.59c1.85,0.07,3.66-0.5,5.16-1.61
							l-0.38-0.16c0.18,0.81,0.79,1.45,1.58,1.65c0.75,0.21,1.54,0.21,2.29,0c1.52-0.47,2.64-1.61,4.03-2.12
							c0.51-0.2,1.06-0.28,1.6-0.23c0.6,0.1,1.22,0.06,1.81-0.12c0.53-0.27,1-0.64,1.4-1.09c0.35-0.37,0.82-0.6,1.33-0.66
							c0.51-0.06,1.07,0,1.62-0.09c1.62-0.22,3.09-1.1,4.07-2.44c0.59-0.83,1.09-1.73,1.92-1.96c0.84-0.24,1.81,0.12,2.71-0.25
							c1.65-0.62,2.62-2.36,2.3-4.13l-0.15,0.21c2.13-0.1,4.14-1,5.66-2.53c0.56-0.53,1.02-1.15,1.34-1.85
							c-0.45,0.61-0.94,1.18-1.47,1.72c-1.51,1.43-3.48,2.25-5.54,2.31h-0.21l0.05,0.21c0.25,1.58-0.63,3.12-2.1,3.66
							c-0.77,0.31-1.65,0-2.68,0.21c-0.5,0.14-0.95,0.44-1.29,0.85c-0.34,0.39-0.61,0.82-0.89,1.22c-0.59,0.81-1.39,1.44-2.3,1.83
							c-0.47,0.2-0.96,0.33-1.47,0.4c-0.5,0.07-1.04,0-1.62,0.09c-0.61,0.06-1.17,0.33-1.6,0.77c-0.36,0.4-0.78,0.73-1.25,0.98
							c-0.52,0.14-1.06,0.17-1.59,0.08c-0.61-0.05-1.23,0.03-1.81,0.25c-1.51,0.57-2.66,1.72-4,2.11c-0.66,0.19-1.36,0.19-2.02,0
							c-0.62-0.14-1.1-0.63-1.24-1.26l-0.07-0.39l-0.31,0.25c-1.41,1.06-3.12,1.6-4.86,1.54c-1.57-0.02-3.09-0.53-4.36-1.46
							l-0.11-0.07l-0.11,0.06c-0.8,0.47-1.69,0.76-2.6,0.87c-0.82,0.08-1.64-0.11-2.33-0.55c-1.16-0.79-2.47-1.31-3.84-1.52
							c-0.87-0.13-1.76-0.13-2.63,0c-0.23,0.04-0.45,0.1-0.67,0.17C190.77,135.09,190.69,135.12,190.7,135.13z"/>
						<path class="st61" d="M184.64,137.4c0.39,0,0.77,0.03,1.15,0.11c1.01,0.39,1.96,0.92,2.83,1.57c0.67,0.45,1.45,0.68,2.25,0.68
							c0.44-0.07,0.87-0.2,1.28-0.39c0.36-0.14,0.77-0.04,1.04,0.25c0.31,0.29,0.53,0.73,0.87,1.13c0.35,0.42,0.78,0.75,1.27,0.98
							c1.03,0.51,2.22,0.55,3.28,0.12l-0.33-0.32c-0.16,0.53-0.05,1.12,0.31,1.54c0.33,0.43,0.8,0.72,1.33,0.82
							c1.09,0.07,2.18-0.24,3.07-0.88l-0.32-0.37c-0.26,0.35-0.36,0.79-0.3,1.22c0.06,0.4,0.22,0.77,0.47,1.08
							c0.46,0.61,1.17,0.98,1.92,0.98c1.25-0.11,2.45-0.59,3.44-1.38l-0.3-0.11c0.39,1.04,1.2,1.85,2.22,2.22
							c0.75,0.31,1.57,0.39,2.36,0.23c0.5-0.1,0.97-0.31,1.37-0.63c0.14-0.11,0.27-0.24,0.37-0.38c-0.53,0.39-1.14,0.66-1.79,0.77
							c-0.75,0.11-1.51,0.01-2.21-0.29c-0.89-0.37-1.59-1.11-1.92-2.04l-0.08-0.25l-0.22,0.14c-0.93,0.73-2.04,1.16-3.21,1.26
							c-0.61-0.02-1.18-0.32-1.54-0.82c-0.42-0.46-0.48-1.15-0.15-1.68l0.77-0.98l-1.09,0.6c-0.8,0.58-1.77,0.87-2.75,0.82
							c-0.8-0.14-1.52-0.98-1.25-1.69l0.2-0.55l-0.54,0.23c-0.93,0.38-1.97,0.35-2.88-0.08c-0.43-0.19-0.81-0.48-1.12-0.84
							c-0.31-0.34-0.54-0.78-0.96-1.15c-0.19-0.19-0.43-0.33-0.69-0.39c-0.25-0.05-0.51-0.03-0.76,0.06
							c-0.38,0.17-0.78,0.29-1.18,0.37c-0.73,0.01-1.44-0.19-2.06-0.58c-0.91-0.63-1.9-1.12-2.94-1.45c-0.3-0.06-0.6-0.06-0.9,0
							C184.86,137.31,184.74,137.35,184.64,137.4z"/>
					</g>
				</g>
			</g>
			<path class="st107" d="M261.05,158.31c0.64,7.58,1.75,11.73,4.29,16.31c0.95,1.72-2.92,2.86-4.83,3.29
				c2.56-0.97,3.52-2.15,3.63-2.74C264.27,174.58,260.58,170.3,261.05,158.31z"/>
			<path class="st70" d="M243.07,155.92c-0.33,2.56,0.52,4.79,1.9,4.97c1.38,0.19,2.77-1.74,3.1-4.29c0.33-2.56-0.52-4.79-1.9-4.97
				C244.79,151.44,243.4,153.37,243.07,155.92z"/>
			<path class="st70" d="M268.71,156.89c-0.33,2.56,0.52,4.79,1.9,4.97c1.38,0.19,2.77-1.74,3.1-4.29c0.33-2.56-0.52-4.79-1.9-4.97
				C270.43,152.41,269.04,154.34,268.71,156.89z"/>
			<g>
				<path class="st59" d="M279.98,150.79c-1.15-1.26-2.41-2.35-3.79-3.23c-1.38-0.87-2.87-1.54-4.44-1.85
					c-1.56-0.33-3.18-0.27-4.71,0.2c-1.53,0.47-2.93,1.37-4.22,2.5c0.9-1.44,2.25-2.67,3.9-3.37c1.64-0.72,3.52-0.84,5.27-0.49
					c1.75,0.38,3.37,1.18,4.74,2.27C278.09,147.89,279.23,149.25,279.98,150.79z"/>
			</g>
			<g>
				<path class="st59" d="M252.96,148.89c-1.2-1.14-2.58-1.99-4.06-2.49c-1.48-0.49-3.06-0.66-4.59-0.48
					c-1.54,0.16-3.03,0.67-4.38,1.46c-1.35,0.8-2.53,1.9-3.54,3.21c0.58-1.56,1.65-2.96,3.03-3.98c1.37-1.04,3.05-1.67,4.77-1.87
					c1.72-0.18,3.5,0.08,5.06,0.81C250.8,146.25,252.14,147.44,252.96,148.89z"/>
			</g>
			<g>
				<g>
					<g>
						<path class="st100" d="M262.78,185.63c-0.86-0.3-2.07,0.01-2.91,0.73c-0.21-0.82-1.24-1.18-2.26-0.93
							c-1.02,0.26-1.96,1.03-2.55,1.9c-1.14,1.68-0.11,3.08,1.21,4.04c1.32,0.96,3.61,1.24,5.43,0.14c1.82-1.1,2.24-2.83,2.38-4.59"
							/>
					</g>
				</g>
				<g>
					<g>
						<g>
							<g>
								<g>
									<g>
										<path class="st59" d="M253.56,185.86c0.44-0.27,1.52,2.1,4.86,2.35c3.33,0.26,6.41-1.79,6.58-1.47
											c0.11,0.13-0.5,0.86-1.84,1.64c-1.31,0.77-3.39,1.52-5.43,1.36c-2.04-0.16-3.34-1.16-3.88-2.08
											C253.28,186.73,253.34,185.96,253.56,185.86z"/>
									</g>
								</g>
							</g>
						</g>
					</g>
				</g>
			</g>
		</g>
	</g>
	<path class="st77" d="M261.6,201.59c-9.73,0.38-19.37-1.94-27.86-6.71c0,0,7.53,14.13,28.16,11.69L261.6,201.59z"/>
</g>
</svg>
