<?xml version="1.0" encoding="utf-8"?>
<!-- Generator: Adobe Illustrator 24.0.0, SVG Export Plug-In . SVG Version: 6.00 Build 0)  -->
<svg version="1.1" id="Layer_1" xmlns="http://www.w3.org/2000/svg" xmlns:xlink="http://www.w3.org/1999/xlink" x="0px" y="0px"
	 viewBox="0 0 500 500" style="enable-background:new 0 0 500 500;" xml:space="preserve">
<style type="text/css">
	.st0{fill:#3C4657;}
	.st1{fill:#313945;}
	.st2{fill:#231F20;}
	.st3{opacity:0.3;}
	.st4{fill:#D1D2D2;}
	.st5{fill:#C9EAFB;}
	.st6{fill:#FFFFFF;}
	
		.st7{fill:none;stroke:#FDF5F9;stroke-width:2.1703;stroke-linecap:round;stroke-linejoin:round;stroke-miterlimit:10;stroke-dasharray:8.6811;}
	.st8{fill:#72256F;}
	.st9{fill:#3C2415;}
	.st10{fill:#B56A57;}
	.st11{opacity:0.4;fill:#B56A57;}
	.st12{fill:#BE1E2D;}
	.st13{fill:#4C3B4B;}
	.st14{fill:#392A38;}
	.st15{fill:#F0645C;}
	.st16{fill:#603913;}
	.st17{fill:#F1F2F2;}
	.st18{fill:#D8792B;}
	.st19{fill:#8AB5CF;}
	.st20{fill:#C6E1F5;}
	.st21{fill:#F79731;}
	.st22{fill:#84A5BA;}
	.st23{fill:#658CA2;}
	.st24{fill:#9CC3DB;}
	.st25{fill:#72A749;}
	.st26{fill:#87C557;}
	.st27{fill:#C1DA73;}
	.st28{fill:#D77A40;}
	.st29{fill:#BFE068;}
	.st30{fill:#F7FAFB;}
	.st31{fill:#FBB040;}
	.st32{fill:#F5F5F6;}
	.st33{fill:url(#SVGID_1_);}
	.st34{fill:none;stroke:#F7FAFB;stroke-width:3.0845;stroke-miterlimit:10;}
	.st35{fill:#D4F0F5;}
	.st36{opacity:0.57;}
	.st37{fill:#92D5E4;}
	.st38{fill:#FFFFFF;stroke:#852170;stroke-width:0.9103;stroke-miterlimit:10;}
	.st39{fill:#852170;}
	.st40{fill:none;stroke:#852170;stroke-width:0.4552;stroke-miterlimit:10;}
	.st41{opacity:0.5;fill:#852170;}
	.st42{opacity:0.4;}
	.st43{clip-path:url(#SVGID_3_);}
	.st44{opacity:0.63;}
	.st45{fill:#B9E5EE;}
	.st46{fill:#FF9F66;}
	.st47{fill:#73ADDB;}
	.st48{fill:#2E214C;}
	.st49{fill:#43305F;}
	.st50{fill:#FF8A31;}
	.st51{fill:#549CCB;}
	.st52{fill:#FF9B3A;}
	.st53{fill:#F2763F;}
	.st54{fill:#4489B4;}
	.st55{fill:#F17D24;}
	.st56{opacity:0.74;}
	.st57{clip-path:url(#SVGID_5_);}
	.st58{fill:#E8505B;}
	.st59{fill:#263238;}
	.st60{opacity:0.2;}
	.st61{fill:#455A64;}
	.st62{fill:#ADD337;}
	.st63{opacity:0.69;fill:#FFFFFF;}
	.st64{fill:#FAFAFA;}
	.st65{fill:#FFBE9D;}
	.st66{fill:#CC8F75;}
	.st67{opacity:0.78;}
	.st68{fill:#7C2639;}
	.st69{fill:#E28088;}
	.st70{fill:#222228;}
	.st71{fill:#F0A2F4;}
	.st72{fill:#684D34;}
	.st73{fill:#604966;}
	.st74{fill:#3F1E47;}
	.st75{fill:#936754;}
	.st76{fill:#EB996E;}
	.st77{fill:#7F584A;}
	.st78{fill:#0A0705;}
	.st79{fill:#60381A;}
	.st80{fill:#7C5142;}
	.st81{opacity:0.6;}
	.st82{fill:#3D3D3D;}
	.st83{fill:#6FB56B;}
	.st84{fill:#97F794;}
	.st85{fill:#754925;}
	.st86{fill:#5E3A1E;}
	.st87{fill:#AFA15B;}
	.st88{fill:#FFEE8D;}
	.st89{fill:#B78876;}
	.st90{fill:#F5F5F5;}
	.st91{fill:#BF594F;}
	.st92{fill:#FF725E;}
	.st93{fill:#C96565;}
	.st94{fill:#B57662;}
	.st95{fill:#EA9898;}
	.st96{fill:#7C4A4A;}
	.st97{fill:#EBEBEB;}
	.st98{fill:#E0E0E0;}
	.st99{opacity:0.5;}
	.st100{fill:#995037;}
	.st101{fill:#773C2C;}
	.st102{fill:none;}
	.st103{fill:#E5BAAB;}
	.st104{fill:#D78776;}
	.st105{fill:#BC93B4;}
	.st106{fill:#B77153;}
	.st107{fill:#724940;}
	.st108{fill:#A56B65;}
	.st109{fill:#492F1B;}
	.st110{fill:#4B6EBC;}
	.st111{fill:#3D5C91;}
	.st112{fill:#A4CC64;}
	.st113{fill:#0086BF;}
	.st114{fill:none;stroke:#4E585D;stroke-miterlimit:10;}
	.st115{fill:#AF5858;}
	.st116{fill:#71A5BC;}
	.st117{fill:#AF7127;}
	.st118{fill:#4C3D2D;}
	.st119{fill:#AA6550;}
	.st120{fill:#93584A;}
</style>
<g>
	
		<ellipse transform="matrix(0.7071 -0.7071 0.7071 0.7071 -122.3928 262.5937)" class="st63" cx="255.78" cy="279.04" rx="199.15" ry="199.15"/>
	<g>
		<path class="st29" d="M478.32,189.47c0,0-13.75-8.64-29.5,24.13c-15.75,32.77-21.57,51.59-21.57,51.59s-4.2,6.89-8.97,2.56
			c-4.76-4.33-11.44-16.76-19.31-14.31c-8.16,2.54-10.65,11.77-8.77,25.21c1.88,13.44,4.92,43.03,5.18,45.71
			c0.26,2.63-1.16,6.54-4.88,4.11c-3.72-2.43-25.31-25.38-35.59-14.48c-10.28,10.9,1.11,47.47,2.28,51.5
			c1.17,4.02,0.42,5.77-1.48,6.82c-1.9,1.05-8.43-7.35-14.84-13.63c-6.41-6.28-14.94-12.43-20.34-5.65
			c-5.4,6.79-6.54,34.45,20.8,78.72l14.01,19.68l24.19-1.91c51.52-7.24,72.08-25.78,73.85-34.27c1.77-8.49-8.41-11.13-17.34-12.05
			c-8.92-0.92-19.56-0.58-19.97-2.71c-0.41-2.13,0.46-3.82,4.3-5.49c3.84-1.67,39.26-16.27,41.08-31.14
			c1.82-14.87-29.63-16.83-33.87-18.14c-4.24-1.31-2.14-4.9,0.05-6.38c2.23-1.51,26.94-18.07,38.48-25.2
			c11.54-7.14,17.05-14.95,13.79-22.85c-3.14-7.62-16.97-4.82-23.34-5.72c-6.37-0.9-3.76-8.54-3.76-8.54s10.77-16.5,25.92-49.55
			c15.15-33.05-0.69-38.16-0.69-38.16"/>
		<g>
			<path class="st25" d="M463.8,219.46c-0.24,0.5-0.57,1.16-0.98,2.01c-0.87,1.83-2.1,4.44-3.68,7.77
				c-3.2,6.81-7.79,16.57-13.45,28.62c-11.49,24.16-27.31,57.44-44.8,94.21c-17.56,36.77-33.33,70.12-44.53,94.36
				c-0.73,1.58-1.44,3.12-2.13,4.62c0.22,0.09,0.43,0.18,0.64,0.29c0.7-1.49,1.42-3.02,2.16-4.6c11.49-24.16,27.32-57.45,44.8-94.22
				c17.55-36.76,33.32-70.1,44.53-94.34c5.6-12.12,10.1-21.94,13.15-28.76c1.5-3.37,2.68-6,3.5-7.85c0.37-0.86,0.67-1.54,0.89-2.05
				c0.19-0.46,0.29-0.71,0.27-0.71C464.14,218.78,464.02,219.01,463.8,219.46z"/>
		</g>
		<g>
			<path class="st25" d="M407.61,271.21c0.13-0.04,1,2.29,2.21,6.12c1.21,3.83,2.72,9.17,4.27,15.09c1.47,5.78,2.8,11,3.87,15.18
				c0.98,3.88,1.64,6.27,1.49,6.32c-0.13,0.04-1.03-2.28-2.2-6.12c-1.17-3.84-2.62-9.2-4.16-15.12c-1.51-5.76-2.88-10.98-3.97-15.15
				C408.09,273.65,407.47,271.25,407.61,271.21z"/>
		</g>
		<g>
			<path class="st25" d="M421.68,314.29c-0.09-0.27,10.77-3.91,24.24-8.12c13.47-4.21,24.46-7.41,24.55-7.14
				c0.09,0.27-10.76,3.91-24.24,8.13C432.76,311.37,421.77,314.57,421.68,314.29z"/>
		</g>
		<g>
			<path class="st25" d="M392.18,369.54c0-0.15,2.54-0.22,6.63-0.32c4.09-0.11,9.74-0.27,15.96-0.66
				c6.23-0.37,11.85-0.89,15.92-1.28c4.07-0.39,6.6-0.63,6.62-0.49c0.02,0.14-2.47,0.63-6.53,1.22c-4.06,0.58-9.7,1.22-15.95,1.59
				c-6.25,0.39-11.92,0.43-16.02,0.36C394.71,369.87,392.18,369.68,392.18,369.54z"/>
		</g>
		<g>
			<path class="st25" d="M370.87,333.37c0.12-0.07,1.45,1.86,3.49,5.05c2.04,3.19,4.8,7.63,7.8,12.56
				c2.99,4.94,5.66,9.44,7.54,12.72c1.88,3.28,2.98,5.35,2.86,5.43c-0.12,0.07-1.45-1.86-3.49-5.05c-2.04-3.19-4.8-7.63-7.8-12.56
				c-2.99-4.94-5.65-9.44-7.54-12.72C371.85,335.51,370.75,333.44,370.87,333.37z"/>
		</g>
	</g>
	<g>
		<g>
			<path class="st25" d="M103.36,135.99c0,0,0.31-0.14,0.98-0.21c0.66-0.07,1.69-0.03,2.92,0.43c1.23,0.46,2.63,1.36,3.97,2.76
				c1.35,1.39,2.54,3.31,3.69,5.55c2.24,4.54,3.73,10.61,5.44,17.64c1.67,7.06,3.51,15.19,4.76,24.44l-0.02-0.06
				c0.55,1.34,1.59,2.86,3.08,2.93c0.73,0.01,1.42-0.37,2.09-0.83c0.67-0.47,1.32-0.99,1.97-1.52c1.31-1.06,2.65-2.17,4.17-3.1
				c1.5-0.88,3.34-1.73,5.28-1.23c1.86,0.58,3.32,1.98,4.18,3.72c0.84,1.75,1.05,3.74,0.92,5.67c-0.21,3.91-1.76,7.62-2.87,11.45
				c-1.19,3.83-2.42,7.76-3.67,11.78c-0.63,2.01-1.26,4.04-1.9,6.09c-0.32,1.03-0.64,2.06-0.96,3.09c-0.16,0.54-0.35,1.02-0.37,1.51
				c-0.04,0.49,0.02,1,0.21,1.41c0.36,0.87,1.47,0.68,2.38,0.16c0.97-0.53,1.94-1.07,2.92-1.61c1.97-1.08,4-2.12,6.13-2.99
				c2.13-0.86,4.39-1.59,6.79-1.73c1.2-0.06,2.45,0.07,3.6,0.56c1.15,0.48,2.17,1.36,2.8,2.44c1.31,2.2,1.38,4.79,1.15,7.19
				c-0.25,2.43-0.77,4.83-1.51,7.18c-1.44,4.7-3.45,9.27-5.71,13.77c-0.54,1.14-1.25,2.23-1.57,3.34c-0.15,0.56-0.18,1.11,0.04,1.56
				c0.11,0.23,0.27,0.43,0.48,0.62c0.1,0.08,0.18,0.08,0.49,0c1.06-0.37,2.15-1.14,3.19-1.84c1.05-0.73,2.1-1.47,3.15-2.21
				c2.12-1.47,4.29-2.96,6.73-4.05c1.22-0.54,2.5-0.99,3.88-1.14c1.36-0.18,2.91,0.11,4.03,1.08c1.12,0.93,1.75,2.33,1.94,3.7
				c0.16,0.68,0.13,1.37,0.19,2.06c-0.04,0.68-0.03,1.37-0.1,2.04c-0.26,2.71-0.99,5.35-1.91,7.91c-1.83,5.13-4.51,9.96-7.58,14.55
				c-3.06,4.6-6.57,8.93-10.34,13.1c-1.81,2.16-3.96,3.98-5.99,5.93c-2.05,1.93-4.12,3.87-6.19,5.81l-0.19,0.18l-0.25-0.08
				c-0.36-0.11-0.76-0.23-1.15-0.35c-2.74-0.83-5.47-1.66-8.19-2.48l-4.07-1.23c-1.34-0.45-2.65-1.03-3.97-1.53
				c-5.24-2.13-10.33-4.5-15.16-7.27c-4.82-2.78-9.38-5.95-13.37-9.71c-1.98-1.9-3.84-3.92-5.32-6.23c-0.7-1.18-1.4-2.37-1.77-3.74
				c-0.4-1.35-0.41-2.89,0.29-4.22c0.74-1.33,2.13-2.06,3.44-2.43c1.34-0.36,2.7-0.46,4.04-0.46c2.68,0.01,5.29,0.42,7.86,0.84
				c1.28,0.21,2.55,0.41,3.83,0.62c0.63,0.09,1.27,0.18,1.89,0.22c0.59,0.04,1.31,0.07,1.68-0.09c0.12-0.07,0.04,0.01,0.11-0.1
				c0.05-0.13,0.09-0.26,0.11-0.39c0.05-0.26,0.04-0.51-0.03-0.75c-0.15-0.49-0.53-0.95-0.97-1.35c-0.89-0.79-2.01-1.48-3.01-2.25
				c-4.08-3.02-7.97-6.2-11.43-9.74c-1.72-1.77-3.35-3.64-4.69-5.71c-1.3-2.05-2.49-4.38-2.32-6.96c0.09-1.26,0.63-2.52,1.49-3.44
				c0.86-0.94,1.98-1.53,3.09-1.98c2.26-0.86,4.63-1.13,6.94-1.26c2.32-0.11,4.61-0.04,6.87,0.09c1.13,0.06,2.26,0.16,3.34,0.18
				c0.51,0.01,1.04-0.07,1.37-0.31c0.34-0.23,0.44-0.64,0.35-1.1c-0.18-0.98-0.93-1.71-1.72-2.49c-0.77-0.78-1.54-1.55-2.3-2.32
				c-1.52-1.54-3.03-3.06-4.52-4.56c-2.98-3.01-5.9-5.95-8.74-8.82c-2.78-2.9-5.87-5.5-7.92-8.85c-1.04-1.65-1.83-3.48-1.97-5.44
				c-0.1-1.95,0.53-3.91,1.95-5.28c1.54-1.32,3.59-1.32,5.32-1.18c1.78,0.18,3.48,0.59,5.13,0.98c0.83,0.19,1.64,0.38,2.45,0.52
				c0.81,0.13,1.61,0.21,2.28-0.09c1.37-0.63,1.58-2.52,1.44-3.95l0.02,0.06c-3.25-8.69-5.46-16.67-7.31-23.65
				c-1.81-6.97-3.37-12.97-3.59-18c-0.31-5,0.86-8.97,2.66-10.91c0.87-0.99,1.77-1.48,2.39-1.71c0.62-0.23,0.97-0.24,0.97-0.24
				s-0.33,0.06-0.94,0.31c-0.6,0.25-1.47,0.75-2.3,1.74c-1.72,1.94-2.82,5.84-2.48,10.8c0.26,4.98,1.86,10.95,3.71,17.91
				c1.89,6.95,4.15,14.93,7.41,23.55l0.01,0.04l0,0.03c0.09,0.83,0.06,1.66-0.15,2.49c-0.22,0.8-0.71,1.69-1.59,2.05
				c-0.85,0.38-1.79,0.27-2.61,0.15c-0.84-0.14-1.66-0.33-2.5-0.52c-1.66-0.38-3.33-0.77-5.05-0.95c-1.68-0.14-3.57-0.08-4.85,1.04
				c-1.21,1.16-1.83,3.01-1.72,4.77c0.13,1.79,0.88,3.54,1.89,5.13c1.99,3.24,5.04,5.79,7.85,8.7c2.86,2.87,5.78,5.8,8.77,8.81
				c1.5,1.5,3.01,3.02,4.54,4.56c0.76,0.77,1.53,1.54,2.31,2.31c0.75,0.73,1.7,1.61,1.93,2.87c0.15,0.6-0.02,1.45-0.65,1.86
				c-0.59,0.41-1.23,0.46-1.82,0.46c-1.15-0.02-2.26-0.12-3.38-0.17c-2.24-0.12-4.51-0.2-6.79-0.08c-2.26,0.13-4.57,0.41-6.69,1.22
				c-1.04,0.42-2.06,0.97-2.8,1.78c-0.74,0.81-1.19,1.85-1.27,2.96c-0.17,2.25,0.94,4.48,2.2,6.45c1.3,2,2.89,3.83,4.59,5.57
				c3.42,3.49,7.28,6.64,11.34,9.63c1.01,0.77,2.06,1.41,3.09,2.3c0.49,0.45,0.98,1,1.21,1.74c0.11,0.37,0.13,0.78,0.06,1.15
				c-0.03,0.19-0.09,0.36-0.15,0.53c-0.05,0.18-0.35,0.54-0.54,0.56c-0.83,0.32-1.45,0.19-2.12,0.18c-0.66-0.04-1.3-0.14-1.95-0.22
				c-1.28-0.2-2.56-0.41-3.84-0.62c-2.56-0.41-5.13-0.82-7.72-0.82c-1.29,0-2.58,0.1-3.8,0.43c-1.2,0.35-2.33,0.98-2.9,2.02
				c-1.15,2.21,0.1,4.89,1.45,7.06c1.42,2.22,3.25,4.2,5.19,6.06c3.92,3.69,8.43,6.83,13.21,9.58c4.78,2.75,9.85,5.1,15.04,7.21
				c1.31,0.5,2.59,1.07,3.93,1.52l4.06,1.23c2.71,0.82,5.44,1.65,8.17,2.48c0.39,0.12,0.79,0.24,1.15,0.35l-0.44,0.1
				c2.07-1.94,4.12-3.87,6.17-5.8c2.03-1.95,4.18-3.77,5.96-5.9c3.73-4.12,7.23-8.43,10.26-12.98c3.04-4.54,5.69-9.31,7.49-14.35
				c0.91-2.5,1.62-5.09,1.87-7.69c0.07-0.65,0.06-1.3,0.1-1.95c-0.06-0.64-0.03-1.3-0.17-1.91c-0.17-1.25-0.72-2.42-1.64-3.19
				c-0.9-0.78-2.14-1.04-3.37-0.88c-1.23,0.13-2.45,0.55-3.62,1.07c-2.34,1.05-4.48,2.5-6.59,3.96c-1.06,0.74-2.11,1.48-3.16,2.21
				c-1.09,0.71-2.09,1.47-3.44,1.95c-0.19,0.05-0.35,0.11-0.61,0.09c-0.17,0.06-0.61-0.17-0.7-0.28c-0.26-0.24-0.51-0.53-0.67-0.88
				c-0.35-0.71-0.27-1.5-0.09-2.15c0.4-1.33,1.1-2.37,1.63-3.5c2.25-4.46,4.25-9,5.67-13.63c0.73-2.31,1.24-4.66,1.49-7.01
				c0.23-2.32,0.13-4.77-1.03-6.7c-1.13-1.98-3.46-2.78-5.68-2.62c-2.25,0.12-4.45,0.82-6.54,1.66c-2.09,0.85-4.1,1.87-6.06,2.94
				c-0.98,0.54-1.96,1.08-2.94,1.61c-0.5,0.26-1.09,0.52-1.74,0.53c-0.68,0.05-1.4-0.42-1.66-1.03c-0.55-1.17-0.24-2.5,0.12-3.46
				c0.33-1.04,0.65-2.07,0.97-3.1c0.65-2.05,1.28-4.08,1.91-6.09c1.26-4.02,2.5-7.95,3.7-11.78c1.14-3.85,2.67-7.5,2.87-11.27
				c0.13-1.86-0.08-3.74-0.84-5.35c-0.76-1.58-2.18-2.9-3.77-3.39c-1.64-0.44-3.35,0.29-4.8,1.14c-1.47,0.89-2.79,1.98-4.11,3.04
				c-0.66,0.53-1.32,1.06-2.01,1.54c-0.68,0.47-1.51,0.95-2.44,0.93c-0.93-0.02-1.73-0.57-2.29-1.19c-0.56-0.64-0.97-1.35-1.28-2.12
				l-0.01-0.03l-0.01-0.04c-1.2-9.19-3-17.34-4.63-24.4c-1.67-7.05-3.11-13.09-5.29-17.61c-1.12-2.23-2.27-4.14-3.59-5.53
				c-1.3-1.39-2.66-2.31-3.86-2.78C104.76,135.41,103.33,136.07,103.36,135.99z"/>
		</g>
		<g>
			<path class="st25" d="M108.12,154.98c0.02,0,0.07,0.14,0.16,0.43c0.1,0.34,0.23,0.76,0.38,1.29c0.34,1.21,0.8,2.87,1.38,4.98
				c1.19,4.33,2.85,10.6,4.86,18.37c4.03,15.53,9.38,37.04,15.2,60.81c5.83,23.75,11.1,45.24,14.94,60.88
				c1.92,7.73,3.48,14.01,4.58,18.44c0.52,2.13,0.92,3.8,1.22,5.02c0.12,0.53,0.22,0.96,0.29,1.31c0.06,0.3,0.09,0.45,0.07,0.45
				c-0.02,0-0.07-0.14-0.16-0.43c-0.1-0.34-0.23-0.76-0.38-1.29c-0.33-1.21-0.8-2.87-1.38-4.98c-1.19-4.33-2.84-10.6-4.86-18.37
				c-4.03-15.53-9.38-37.04-15.2-60.82c-5.83-23.74-11.1-45.23-14.94-60.87c-1.92-7.73-3.48-14.01-4.58-18.44
				c-0.52-2.13-0.92-3.8-1.22-5.02c-0.12-0.53-0.22-0.96-0.29-1.31C108.13,155.13,108.1,154.98,108.12,154.98z"/>
		</g>
		<g>
			<path class="st25" d="M101.98,200.37c0.07-0.1,1.37,0.65,3.38,2c2.01,1.35,4.73,3.31,7.67,5.54c2.94,2.23,5.56,4.3,7.46,5.8
				c1.89,1.5,3.07,2.42,3,2.52c-0.07,0.1-1.38-0.64-3.38-2.01c-2-1.37-4.69-3.36-7.63-5.59c-2.78-2.13-5.3-4.06-7.49-5.74
				C103.07,201.42,101.91,200.48,101.98,200.37z"/>
		</g>
		<g>
			<path class="st25" d="M124.65,215.6c-0.21-0.14,3.33-5.85,7.91-12.75c4.58-6.91,8.46-12.39,8.67-12.25
				c0.21,0.14-3.33,5.85-7.91,12.75C128.74,210.25,124.86,215.74,124.65,215.6z"/>
		</g>
		<g>
			<path class="st25" d="M131.95,252.46c-0.16-0.21,4.47-3.91,9.88-8.81c5.41-4.89,9.55-9.14,9.74-8.95
				c0.09,0.08-0.84,1.25-2.46,3.02c-1.62,1.77-3.95,4.14-6.68,6.6c-2.72,2.47-5.31,4.55-7.23,5.99
				C133.28,251.76,132.02,252.56,131.95,252.46z"/>
		</g>
		<g>
			<path class="st25" d="M108.58,243.15c0.04-0.12,1.39,0.28,3.54,1.02c2.15,0.74,5.09,1.81,8.32,3.05c3.23,1.24,6.14,2.41,8.22,3.3
				c2.09,0.89,3.36,1.5,3.31,1.61c-0.04,0.12-1.39-0.28-3.54-1.02c-2.15-0.74-5.09-1.81-8.32-3.05c-3.23-1.24-6.13-2.41-8.22-3.3
				C109.8,243.87,108.53,243.26,108.58,243.15z"/>
		</g>
		<g>
			<path class="st25" d="M110.94,276.39c0.04-0.12,1.77,0.41,4.52,1.35c2.75,0.94,6.53,2.3,10.68,3.85c4.15,1.55,7.9,3,10.59,4.1
				c2.69,1.09,4.34,1.83,4.29,1.94c-0.04,0.12-1.77-0.41-4.52-1.35c-2.75-0.94-6.53-2.3-10.68-3.85c-4.15-1.55-7.89-3-10.59-4.09
				C112.54,277.24,110.9,276.51,110.94,276.39z"/>
		</g>
		<g>
			<path class="st25" d="M140.37,287.15c-0.08-0.1,1.29-1.39,3.53-3.44c2.23-2.06,5.33-4.89,8.67-8.1c3.35-3.2,6.32-6.17,8.47-8.31
				c2.15-2.15,3.5-3.46,3.59-3.37c0.09,0.08-1.09,1.55-3.13,3.82c-2.04,2.26-4.95,5.31-8.31,8.52c-3.35,3.22-6.53,5.99-8.87,7.93
				C141.97,286.13,140.45,287.24,140.37,287.15z"/>
		</g>
	</g>
	<g>
		<g>
			<g>
				<path class="st62" d="M182.49,465.19c1.04-0.52,2.07-1.07,3.11-1.65c28.86-28.02,29.41-71.42,21.97-109.16
					c-1.24-6.3-1.63-13.09-5.54-18.16c-3.91-5.07-11.56-7.73-16.8-4.14c-4.34,2.98-5.51,8.78-7.41,13.73
					c-2.52,6.59-6.93,12.41-12.55,16.59c-3.69,2.75-8.48,4.83-12.81,3.28c-5.95-2.13-7.82-9.57-8.8-15.88
					c-1.83-11.75-3.66-23.51-5.49-35.26c-0.98-6.3-2.01-12.74-4.93-18.4c-2.93-5.66-8.16-10.51-14.42-11.22
					c-6.27-0.71-13.11,3.95-13.38,10.32c-0.11,2.65,0.84,5.23,1.09,7.87c0.25,2.64-0.5,5.73-2.87,6.87
					c-2.39,1.15-5.2-0.23-7.39-1.77c-7.53-5.31-13.27-12.78-18.72-20.26c-5.44-7.48-10.8-15.17-17.82-21.15
					c-7.02-5.98-16.07-10.16-25.18-9.2c-9.11,0.95-17.81,8.08-18.66,17.3c-0.85,9.25,5.79,17.42,12.6,23.7
					c10.09,9.31,21.52,17.14,33.8,23.16c2.21,1.09,4.61,2.26,5.75,4.47c2.05,3.98-1.25,8.79-5.18,10.85
					c-4.44,2.32-9.62,2.66-14.43,4.04c-4.82,1.37-9.79,4.4-10.89,9.35c-1.54,6.86,4.94,12.73,10.96,16.29
					c12.04,7.13,25.29,12.16,38.98,14.8c4.91,0.94,10.03,1.64,14.29,4.29c4.26,2.65,7.44,7.95,5.9,12.75
					c-1.54,4.81-7.1,7.17-12.1,7.05c-5-0.11-9.77-2.04-14.68-3.04c-9.19-1.86-20.27,0.54-24.6,8.92
					c-2.85,5.51-2.06,12.41,0.74,17.97c2.79,5.56,7.35,10.01,12.07,14.02c16.51,14.03,36.4,24.25,57.61,27.96
					c19.73,3.45,37.47,2.7,54.96-5.9C181.92,465.43,182.2,465.31,182.49,465.19z"/>
			</g>
		</g>
		<g>
			<g>
				<g>
					<path class="st25" d="M182.22,465.32c-2.92-7.7-6.33-15.73-10.28-23.97c-8.69-18.24-19.87-37.45-32.25-57.14
						c-3.11-4.91-6.19-9.76-9.22-14.54c-3.04-4.77-6.05-9.49-9.28-13.93c-6.43-8.91-13.29-16.99-20.04-24.45
						c-6.75-7.47-13.43-14.31-19.72-20.67c-6.31-6.34-12.3-12.14-17.98-17.2c-11.34-10.15-21.44-17.24-28.57-21.83
						c-3.56-2.3-6.38-4-8.31-5.13c-0.93-0.53-1.65-0.95-2.2-1.26c-0.5-0.28-0.76-0.41-0.77-0.4c-0.01,0.02,0.23,0.19,0.71,0.5
						c0.53,0.34,1.24,0.79,2.14,1.36c1.89,1.19,4.67,2.95,8.19,5.31c7.04,4.7,17.03,11.87,28.27,22.07
						c5.63,5.08,11.58,10.9,17.84,17.26c6.26,6.38,12.9,13.24,19.61,20.71c6.71,7.47,13.53,15.53,19.9,24.4
						c3.21,4.42,6.19,9.11,9.23,13.89c3.03,4.78,6.1,9.63,9.22,14.54c12.37,19.67,23.56,38.82,32.27,56.98
						c3.99,8.27,7.44,16.32,10.4,24.03C181.64,465.64,181.92,465.46,182.22,465.32z"/>
				</g>
			</g>
		</g>
		<g>
			<g>
				<g>
					<path class="st25" d="M120.84,355.74c0.08,0,0.14-0.99,0.18-2.79c0.05-1.79,0.03-4.39-0.03-7.6
						c-0.13-6.42-0.6-15.27-1.16-25.03c-0.56-9.77-0.91-18.6-0.94-25c-0.02-3.2-0.02-5.79,0.01-7.58c0.02-1.79-0.01-2.79-0.09-2.79
						c-0.08,0-0.21,0.98-0.36,2.77c-0.17,1.79-0.3,4.38-0.38,7.59c-0.19,6.42,0.03,15.3,0.6,25.07c0.58,9.63,1.1,18.34,1.51,25
						c0.16,3.01,0.3,5.54,0.4,7.58C120.67,354.75,120.76,355.74,120.84,355.74z"/>
				</g>
			</g>
		</g>
		<g>
			<g>
				<g>
					<path class="st25" d="M37.4,353.73c0.01,0.08,1.18,0.03,3.29-0.14c2.11-0.15,5.16-0.39,8.93-0.56
						c7.55-0.4,17.99-0.59,29.53-0.3c11.54,0.32,21.96,1.05,29.49,1.79c3.77,0.35,6.81,0.71,8.91,0.95c2.1,0.25,3.27,0.34,3.29,0.26
						c0.01-0.08-1.14-0.33-3.22-0.72c-2.09-0.38-5.12-0.87-8.89-1.32c-7.53-0.96-17.98-1.83-29.55-2.14
						c-11.57-0.29-22.05,0.03-29.61,0.65c-3.78,0.28-6.83,0.64-8.93,0.94C38.55,353.44,37.39,353.65,37.4,353.73z"/>
				</g>
			</g>
		</g>
		<g>
			<g>
				<g>
					<path class="st25" d="M170.71,440.02c0.04,0.01,0.17-0.36,0.4-1.08c0.25-0.85,0.55-1.89,0.91-3.15c0.78-2.74,1.8-6.74,3-11.7
						c2.4-9.91,5.29-23.71,8.28-38.97c2.99-15.27,5.74-29.07,7.94-39.02c1.08-4.84,1.97-8.82,2.63-11.77
						c0.28-1.28,0.51-2.34,0.7-3.21c0.15-0.74,0.21-1.13,0.17-1.14c-0.04-0.01-0.17,0.36-0.4,1.08c-0.25,0.85-0.55,1.89-0.91,3.15
						c-0.78,2.74-1.8,6.74-3,11.7c-2.4,9.91-5.29,23.71-8.28,38.98c-2.98,15.27-5.74,29.07-7.93,39.02
						c-1.08,4.84-1.97,8.82-2.63,11.77c-0.28,1.28-0.51,2.34-0.7,3.21C170.73,439.62,170.67,440.01,170.71,440.02z"/>
				</g>
			</g>
		</g>
		<g>
			<g>
				<g>
					<path class="st25" d="M57.47,422.78c0,0.04,0.39,0.13,1.14,0.27c0.89,0.15,1.98,0.32,3.3,0.54c3.04,0.47,7.14,1.1,12.13,1.87
						c10.24,1.58,24.36,3.92,39.96,6.53c15.6,2.61,29.76,4.83,40.04,6.19c5.14,0.69,9.3,1.2,12.19,1.49
						c1.33,0.13,2.43,0.23,3.32,0.32c0.76,0.06,1.16,0.07,1.17,0.03c0-0.04-0.39-0.13-1.14-0.27c-0.88-0.14-1.97-0.32-3.29-0.54
						c-3.04-0.47-7.14-1.1-12.13-1.87c-10.24-1.58-24.36-3.92-39.97-6.53c-15.6-2.61-29.75-4.83-40.03-6.19
						c-5.14-0.69-9.3-1.2-12.19-1.49c-1.33-0.13-2.43-0.24-3.32-0.32C57.87,422.75,57.47,422.74,57.47,422.78z"/>
				</g>
			</g>
		</g>
	</g>
	<g>
		<g id="freepik--character-3--inject-2">
			<path class="st65" d="M158.44,353.71l-4.32,30.67L102.3,344.5l-28.39,6.18c0,0,29.24,55.37,52.35,77.31s35.71,25.06,44.28,25.42
				c11.96,0.48,17.46-12.69,17.46-12.69l5.21-76.25L158.44,353.71z"/>
			<path class="st100" d="M154.33,383.54c1.74,2.32,2.95,4.92,3.57,7.67c1.03,2.64,1.44,5.45,1.21,8.25
				c-0.97-2.61-1.77-5.26-2.39-7.96C155.74,388.89,154.94,386.24,154.33,383.54z"/>
			<path class="st61" d="M97.27,266.77H58.24c-5.45,0.26-9.64,4.46-9.35,9.38c0.04,0.62,0.14,1.23,0.32,1.83l39.28,68.97
				c1.52,2.67,4.56,4.35,7.89,4.35h47.6c3.74-0.4,6.42-3.45,5.98-6.83c-0.1-0.79-0.38-1.56-0.8-2.26l-37.89-67.64
				C108.64,269.77,103.21,266.74,97.27,266.77z"/>
			<path class="st59" d="M94.63,270.93H55.6c-3.61,0-6.53,2.64-6.53,5.9c0,0.93,0.24,1.84,0.71,2.67l38.31,67.45
				c1.53,2.68,4.59,4.36,7.93,4.35h47.03c2.13,0.06,3.91-1.45,3.97-3.37c0.02-0.57-0.12-1.14-0.4-1.65l-37.85-67.64
				C106.07,273.84,100.58,270.85,94.63,270.93z"/>
			<path class="st65" d="M91.34,299.18l-23.75,8.54l-5.11,17.27l11.43,25.77l42.13,5.44l-12.32-11.34l1.61-9.86
				c0,0,11.71-3.22,12-4.93c0.29-1.71-1.46-7.02-3.25-7.31c-4.8,0.94-9.5,2.23-14.07,3.87c0,0,14.53-10.37,14.1-12.05
				c-0.43-1.67-1.96-5.93-4.86-6.44c-2.89-0.52-26.35,9.47-26.35,9.47l-3.82,7.86l-3.32-12.53
				C75.77,312.93,96.48,307.72,91.34,299.18z"/>
			<path class="st100" d="M94.31,339.64c0,0-0.57-0.74-0.79-2.13c-0.26-1.83-0.01-3.69,0.71-5.41c0.68-1.73,1.84-3.28,3.36-4.51
				c1.18-0.93,2.07-1.26,2.14-1.16c-1.78,1.81-3.25,3.85-4.36,6.06C94.62,334.81,94.26,337.22,94.31,339.64z"/>
			<path class="st100" d="M83.02,336c0.44-1.85,0.77-3.72,0.96-5.6c0.09-2.11,0.49-4.2,1.18-6.22c0.48-1.19,1.22-2.29,2.18-3.22
				c1.11-0.98,2.44-1.74,3.89-2.22c5.68-1.84,10.71-3.22,14.53-4.45c1.99-0.69,4.04-1.2,6.14-1.51c-1.87,0.91-3.83,1.67-5.86,2.25
				c-3.57,1.29-8.78,2.93-14.28,4.74c-1.33,0.41-2.54,1.07-3.57,1.93c-0.87,0.84-1.54,1.84-1.96,2.93
				c-0.72,1.93-1.19,3.93-1.39,5.96C84.76,332.5,84.14,334.36,83.02,336z"/>
			<path class="st100" d="M77.6,332.03c-0.36,0-0.29-1.93,0-4.22c0.08-1.43,0.55-2.82,1.36-4.06c0.32,2.83-0.2,5.69-1.5,8.28H77.6z"
				/>
			<ellipse class="st64" cx="81.92" cy="283.94" rx="4.96" ry="4.48"/>
			<path class="st100" d="M222.71,102.43c-13.14,32.21-27.71,66.39-58.31,86.97c4,0.87,8.21,0.33,11.78-1.51
				c-7.18,9.44-12.87,19.74-16.89,30.6c-3.57,11.02-3.11,23.48,3.75,33.08c0.82-1.22,1.64-2.45,2.43-3.67
				c-7.24,24.34,3.91,50.09,27.53,63.55c10.03,5.48,23.46,8.12,33.31,2.35c7.5-4.38,11.03-12.43,14.1-19.97l60.2-146.89
				c5.61-13.63,11.28-28.09,8.5-42.42c-4.53-22.76-28.65-37.91-53.88-33.83c-12.1,1.96-22.85,8.17-29.88,17.27"/>
			<path class="st101" d="M187.68,282.85c0,0-0.39-0.29-1-0.9c-0.91-0.91-1.76-1.87-2.54-2.87c-2.81-3.73-4.87-7.87-6.11-12.24
				c-1.77-6.48-2.17-13.2-1.18-19.81c1.31-8.08,3.87-15.95,7.61-23.39c3.82-7.92,8.11-15.2,11.78-21.87
				c3.32-5.88,6.28-11.93,8.86-18.1c1.7-4.2,3.04-8.5,4-12.88c0.64-3.22,0.86-4.86,0.96-4.83c0.04,0.42,0.04,0.84,0,1.26
				c0,0.84-0.21,2.06-0.46,3.64c-0.79,4.38-1.98,8.69-3.57,12.88c-2.49,6.24-5.38,12.34-8.68,18.26
				c-3.57,6.73-7.89,13.98-11.68,21.87c-3.68,7.35-6.25,15.12-7.64,23.1c-1,6.52-0.67,13.14,0.96,19.55
				c1.15,4.32,3.08,8.43,5.71,12.18C186.4,281.49,187.79,282.78,187.68,282.85z"/>
			<path class="st65" d="M262.81,84.23c-27.03,1.15-48.33,21.2-48.45,45.61c0,18.94,0.29,39.56,1.64,51.8
				c3.11,28.44,26.82,33.31,26.82,33.31s-0.75,17.68-1.82,34.43c-1,16.11,13.53,30.02,32.46,31.41l0,0
				c18.75,1.35,34.81-10.24,36.1-26.03l6.46-122.6c1.33-25.27-20.3-46.73-48.31-47.93c-1.58-0.07-3.17-0.07-4.75,0H262.81z"/>
			<path class="st100" d="M242.67,215.11c14.86,0.58,29.62-2.34,42.85-8.47c0,0-11.64,20.26-43.06,16.59L242.67,215.11z"/>
			<path class="st59" d="M280.77,129.84c-0.54,0.68-3.57-0.52-7.57-1.26c-4-0.74-7.32-1-7.46-1.8c-0.14-0.81,3.57-2,8.18-1.06
				C278.52,126.65,281.31,129.2,280.77,129.84z"/>
			<path class="st100" d="M360.36,257.08c0,0-11.1-19.87-4.18-37.72c6.93-17.85,4.28-31.25-5.71-38.27
				c-7.14-4.93-7.86-13.05-7.14-19.49c1.26-10.78,0.99-21.66-0.79-32.37c-2.79-15.43-7.78-31.83-18.07-43.94
				c-13.35-15.78-37.53-30.15-57.6-22.1c-9.32,3.74-14.07,3.51-23.82,11.4c0,0-8.96,0.52-13.68,1.19
				c-16.32,2.29-26.89,17.97-28.78,29.47c-4.43,26.64,11.85,34.21,13.53,52.31c0,0,2.93-37.72,6.61-47.38
				c3.01-7.07,8.69-12.95,16.03-16.62c12.07,1.03,16.64,7.47,20.53,17.78c3.89,10.31,6.03,18.52,15.6,25.22
				c9.03,6.44,15.53,16.88,32.14,11.53c3.03,5.56,4.18,11.8,3.32,17.94c-1.79,9.18-13.07,11.73-10.21,27.28
				c2.86,15.56,13.39,28.31,13.1,34.14"/>
			<path class="st100" d="M326.72,88.13c5.93,8.72,12.63,16.99,20.03,24.74c7.93,7.89,15.82,16.91,16.39,27.54
				c0.39,7.73-3.14,15.85,0.25,22.97c2.93,6.06,10,9.41,15.28,13.95c9.41,8.31,13.08,20.57,9.57,32.02
				c-2.29,7.12-7.36,14.11-5.57,21.36c1.57,6.44,8.07,10.86,10.03,17.1c1.96,6.25-0.61,12.24-3.57,17.81
				c-4.5,8.5-11.18,17.3-21.42,19.33c-7.09,1.17-14.39-0.47-20.03-4.51c-5.58-3.99-10.13-9.03-13.35-14.75
				c-6.64-10.83-10.75-22.76-12.07-35.08c-1.54-14.72,0.93-29.47,2.54-44.16c2.91-26.93,2.91-54.05,0-80.98
				c-0.68-6.44-3.57-12.88,1.86-17.33"/>
			<path class="st65" d="M298.16,152.39c0-1.87,5.5-5.31,7.57-5.28c4.78,0,12.53,2.13,12.64,14.08
				c0.18,17.07-17.85,12.08-17.85,11.56C299.14,166.03,298.35,159.22,298.16,152.39z"/>
			<path class="st100" d="M304.94,166.21c0,0,0.32,0.19,0.89,0.42c0.79,0.3,1.68,0.3,2.46,0c2.42-1.47,3.79-4.01,3.57-6.64
				c0.03-1.46-0.3-2.92-0.96-4.25c-0.39-1.07-1.32-1.9-2.5-2.25c-0.79-0.17-1.6,0.18-1.96,0.84c-0.21,0.48,0,0.81-0.21,0.84
				s-0.39-0.26-0.25-0.97c0.1-0.43,0.35-0.81,0.71-1.1c0.52-0.35,1.17-0.51,1.82-0.45c1.61,0.25,2.97,1.24,3.57,2.61
				c0.84,1.47,1.25,3.11,1.21,4.77c0.21,3.11-1.66,6.03-4.75,7.41c-1.02,0.27-2.12,0.12-3-0.42
				C304.98,166.63,304.87,166.24,304.94,166.21z"/>
			<path class="st101" d="M208.14,145.75c0.24-0.97,0.57-1.92,1-2.83c0.76-2.63,1.15-5.34,1.18-8.05c-0.08-4.04-0.5-8.07-1.25-12.05
				c-0.94-4.92-1.38-9.92-1.29-14.91c0.16-2.61,0.7-5.19,1.61-7.67c0.9-2.34,2.24-4.52,3.96-6.44c2.91-3.21,6.69-5.69,10.96-7.22
				c2.85-1.03,5.89-1.56,8.96-1.55c0.83-0.08,1.67-0.08,2.5,0c0.29,0.01,0.58,0.06,0.86,0.16c0,0-1.21,0-3.32,0
				c-7.52,0.37-14.5,3.63-19.17,8.95c-1.61,1.84-2.87,3.91-3.75,6.12c-0.87,2.41-1.37,4.91-1.5,7.44c-0.1,4.94,0.3,9.88,1.18,14.75
				c0.7,4.03,1.04,8.1,1,12.18c-0.07,2.76-0.59,5.49-1.54,8.12c-0.29,0.7-0.63,1.39-1,2.06
				C208.32,145.56,208.18,145.95,208.14,145.75z"/>
			<path class="st92" d="M316.01,171.72c0,0,0.57,0.45,1.21,1.45c0.94,1.47,1.42,3.14,1.39,4.83c-0.15,2.62-1.67,5.01-4.11,6.44
				c-2.87,1.84-6.59,2.23-9.86,1.03c-3.23-1.32-5.44-4.1-5.78-7.28c-0.14-1.37,0.14-2.76,0.82-3.99c0.59-1.06,1.43-2,2.46-2.74
				c1.46-1.08,3.26-1.7,5.14-1.77c0.69-0.07,1.38,0.04,2,0.32c0,0-0.71,0-1.96,0c-1.74,0.21-3.38,0.87-4.71,1.9
				c-1.98,1.51-3.01,3.8-2.75,6.12c0.39,2.81,2.36,5.25,5.21,6.44c2.94,1.06,6.28,0.72,8.89-0.9c2.18-1.25,3.61-3.32,3.89-5.64
				c0.08-1.59-0.28-3.17-1.04-4.61C316.3,172.14,316.01,171.72,316.01,171.72z"/>
			<path class="st101" d="M362.75,162.05c-0.01-0.5-0.1-1.01-0.29-1.48c-0.49-1.36-1.13-2.68-1.89-3.93
				c-2.98-4.57-7.05-8.48-11.93-11.44c-3.38-2.1-7.23-3.51-11.28-4.12c-4.57-0.63-9.2-0.84-13.82-0.61
				c-5.01,0.28-10.03,0.23-15.03-0.16c-5.26-0.61-10.29-2.29-14.71-4.93c-4.37-2.85-8.54-5.94-12.5-9.24
				c-3.99-2.76-7.59-5.95-10.71-9.5c-5.96-6.93-11.64-12.88-16-18.1c-3.54-4.06-6.71-8.37-9.5-12.88c-1.93-3.22-2.64-5.19-2.82-5.12
				c0.07,0.5,0.2,0.98,0.39,1.45c0.32,0.93,0.93,2.25,1.75,3.96c2.57,4.69,5.62,9.15,9.11,13.34c4.28,5.41,9.89,11.44,15.71,18.36
				c3.11,3.66,6.71,6.96,10.71,9.82c3.99,3.37,8.21,6.51,12.64,9.41c4.67,2.76,9.99,4.51,15.53,5.12c5.09,0.37,10.2,0.37,15.28,0
				c4.52-0.28,9.05-0.13,13.53,0.45c3.83,0.52,7.49,1.8,10.71,3.74c4.8,2.78,8.9,6.45,12.03,10.76
				C360.84,158.57,361.86,160.28,362.75,162.05z"/>
			<path class="st92" d="M260.99,279.47c-6.78-18.84-23.46-38.04-41.78-31.12c-20.35,7.7-26.03,17.46-37.21,32.6
				c-11.18,15.14-17.85,32.44-24.75,49.54c-2.64,6.7-16.43,37.4-12.35,43.52c3.57,5.25,38.1,44.61,44.67,46.19
				c16.96,4.06,17.85-52.67,35.17-49.77c6.93,1.16,14.53,2.13,20.64-1c7.78-3.96,10.14-12.88,11.78-20.81
				c5.67-27.75,11.35-55.58,17.07-83.49"/>
			<path class="st92" d="M242.17,240.96l-26.78,10.44c-13.57,9.66-17.39,26.09-16.93,41.62l-10.25,128.85l-0.91,45.34
				c0,0,78.93,37.86,167.09-12.19l-14.68-35.11l26.71-83.75c1.93-12.21,3.11-37.56-0.43-49.57c-9.07-30.86-33.35-40.07-58.24-46.26
				c0,0-25,18.84-49.24,14.88C258.52,255.17,243.7,253.91,242.17,240.96z"/>
			<g class="st60">
				<path d="M205.32,381.09l46.42,60.65c6.03,7.89,12.32,16.11,21.42,21.16c13.48,7.53,30.57,7.38,43.88-0.39
					c12.85-7.76,24.28-28.57,21.42-42.29c-0.32-1.64-6.43,1.35-6.43,1.35c-2.16-1.74-5.21-2.26-7.93-1.35
					c-2.65,0.91-5.2,2.05-7.61,3.41c-14.53,6.96-33.03,3.22-46.71-5.09c-13.68-8.31-23.71-20.55-34.17-32.05
					c-3.49-4.55-8.26-8.17-13.82-10.5c-5.71-1.9-13.32-0.35-15.75,4.7"/>
			</g>
			<path class="st65" d="M285.34,368.21l-4.07,14.21l-81.38-53.5l-25-31.95c-3.33-4.28-8.37-7.23-14.07-8.21l0,0
				c-6.02-1.11-12.28,0.06-17.32,3.22l-23.17,14.85c0,0,0.64,11.27,6.25,9.02c5.61-2.25,16.93-7.89,16.93-7.89l3.11,27.03
				l13.78,9.02l13.78,9.66l91.84,82.37c16.1,14.38,42.08,14.27,58.02-0.25c3.03-2.76,5.56-5.94,7.5-9.41l13.64-34.89L285.34,368.21z
				"/>
			<path class="st100" d="M279.23,380.45c0,0,1.57,0.32,3.39,1.9c2.34,2.09,4,4.72,4.78,7.6c0.75,2.82,1.04,5.73,0.86,8.63
				c0.07,1.21-0.09,2.42-0.46,3.58c-0.32-1.16-0.46-2.35-0.39-3.54c-0.08-2.82-0.49-5.63-1.21-8.38c-0.74-2.71-2.17-5.23-4.18-7.34
				C280.31,381.29,279.13,380.61,279.23,380.45z"/>
			<path class="st100" d="M143.44,309.52c0,0,0.25-0.93,1.21-2.19c1.26-1.7,3.07-3.02,5.18-3.77c2.25-0.7,4.75-0.26,6.53,1.16
				c1.36,1.16,1.29,2.29,1.18,2.25s-0.46-0.87-1.71-1.67c-1.66-0.99-3.72-1.23-5.61-0.68c-1.9,0.69-3.58,1.8-4.89,3.22
				C144.23,308.91,143.58,309.62,143.44,309.52z"/>
			<path class="st100" d="M158.01,316.67c0,0-0.79-0.39-1.89-0.93c-1.42-0.75-3.03-1.14-4.68-1.13c-1.64,0.02-3.25,0.42-4.68,1.16
				c-1.11,0.55-1.71,1.06-1.86,0.97s0.29-0.81,1.39-1.61c1.46-1.06,3.27-1.64,5.14-1.64c1.88,0,3.7,0.57,5.18,1.61
				C157.72,315.93,158.12,316.67,158.01,316.67z"/>
			<path class="st92" d="M317.01,241.84c18.28,6.89,37.35,14.27,49.99,28.06c12.64,13.79,17.35,33.02,16.43,51.15
				s-0.82,35.11-6.64,52.51c-2.25,6.8-7.14,23.39-11.14,30.89c-4.71,8.5-26.89,17.56-37.53,17.33
				c-17.53-0.39-25.92-30.18-41.74-37.04c-6.36-2.74-16.21-14.75-19.07-20.55c-3.57-7.34,7.14-21.26,11.03-28.51l41.03-76.31"/>
			<path class="st59" d="M283.13,382.77c-0.08-0.48-0.25-0.95-0.5-1.39c-0.59-1.25-0.96-2.58-1.11-3.93
				c-0.09-2.09,0.82-4.1,2.5-5.54c2.36-1.77,5.5-2.46,8.5-1.87h0.68v-0.64c1.01-5.92,3.24-11.63,6.57-16.81
				c3.95-6.22,9.44-11.55,16.03-15.56c7.3-4.21,15.38-7.2,23.85-8.83c6.94-1.42,14-2.36,21.1-2.8c6.07-0.39,11-0.32,14.28-0.29
				c1.77,0.13,3.55,0.13,5.32,0c-1.73-0.38-3.5-0.61-5.28-0.68c-4.82-0.36-9.66-0.44-14.5-0.23c-7.21,0.26-14.37,1.08-21.42,2.45
				c-8.72,1.58-17.04,4.62-24.53,8.95c-6.82,4.13-12.47,9.65-16.5,16.11c-3.4,5.37-5.58,11.29-6.43,17.43l0.79-0.55
				c-3.4-0.57-6.91,0.31-9.5,2.38c-1.85,1.71-2.77,4.07-2.5,6.44c0.25,1.41,0.77,2.78,1.54,4.03
				C282.77,382.38,283.05,382.8,283.13,382.77z"/>
			<path class="st59" d="M322.26,395.59c-7.89-10.51-18.31-19.26-30.49-25.61c-0.32,0.42,7.14,5.41,15.6,12.47
				C315.83,389.5,321.83,395.88,322.26,395.59z"/>
			<g class="st3">
				<path d="M292.62,368.92c7.37,2.43,14.34,5.76,20.71,9.89c6.43,4.19,10.85,10.43,12.35,17.46l-6.75-5.6
					c-8.78-7.59-18.17-14.58-28.1-20.91"/>
			</g>
			<path class="st59" d="M198.18,326.33c0-2.12-0.42-4.23-1.25-6.22c-1.69-4.85-3.88-9.55-6.53-14.04
				c-6.07-10.57-12.93-18.1-13.43-17.72c1.03,1.88,2.23,3.69,3.57,5.41c2.25,3.22,5.21,7.89,8.25,13.08c2.57,4.44,4.88,9,6.93,13.66
				C196.34,322.51,197.17,324.46,198.18,326.33z"/>
			<path class="st59" d="M187.47,456.02c0.35-1.12,0.53-2.28,0.54-3.45c0.25-2.25,0.5-5.48,0.71-9.47
				c0.46-8.02,0.82-19.07,0.89-31.28c0.07-12.21,0-23.29-0.43-31.28c0-4.03-0.29-7.25-0.46-9.47c0.04-1.17-0.11-2.34-0.43-3.48
				c-0.26,1.14-0.36,2.31-0.29,3.48c0,2.61,0,5.77,0,9.47c0,8.41,0,19.33,0,31.28c0,11.95-0.25,22.84-0.32,31.25
				c0,3.7,0,6.86,0,9.47C187.44,453.69,187.37,454.86,187.47,456.02z"/>
			<path class="st97" d="M220.1,317.51c0.9-2.76,1.6-5.57,2.07-8.41c0.69-2.81,1.18-5.67,1.46-8.54c-0.93,2.75-1.63,5.56-2.11,8.41
				C220.84,311.78,220.37,314.64,220.1,317.51z"/>
			<path class="st97" d="M214.32,306.1c2.26,1.12,4.66,2,7.14,2.64c2.39,0.82,4.87,1.42,7.39,1.8c-2.33-0.91-4.71-1.7-7.14-2.35
				C219.3,307.36,216.83,306.66,214.32,306.1z"/>
			<path class="st97" d="M225,315.48c-0.71-2.27-1.61-4.49-2.71-6.64c-0.88-2.23-1.98-4.39-3.29-6.44c0.68,2.28,1.58,4.5,2.68,6.64
				C222.58,311.26,223.69,313.42,225,315.48z"/>
			<path class="st97" d="M214.39,313.9c4.77-2.7,9.31-5.7,13.6-8.99c-2.5,1.25-4.89,2.67-7.14,4.25
				C218.56,310.58,216.4,312.17,214.39,313.9z"/>
			<path class="st97" d="M198.89,416.53c0.91-2.76,1.61-5.57,2.11-8.41c0.69-2.81,1.17-5.66,1.43-8.54c-0.9,2.76-1.6,5.57-2.07,8.41
				C199.64,410.8,199.16,413.65,198.89,416.53z"/>
			<path class="st97" d="M193.14,405.25c4.53,2.03,9.33,3.51,14.28,4.41c-2.32-0.91-4.71-1.68-7.14-2.32
				C197.96,406.51,195.57,405.81,193.14,405.25z"/>
			<path class="st97" d="M203.78,414.63c-0.68-2.28-1.58-4.5-2.68-6.64c-0.9-2.22-2-4.38-3.29-6.44c0.68,2.28,1.58,4.5,2.68,6.64
				C201.4,410.41,202.5,412.56,203.78,414.63z"/>
			<path class="st97" d="M193.22,413.02c2.44-1.26,4.76-2.68,6.96-4.25c2.35-1.4,4.56-2.99,6.61-4.74c-2.49,1.27-4.88,2.7-7.14,4.28
				C197.38,409.74,195.23,411.31,193.22,413.02z"/>
			<path class="st97" d="M168.47,377.49c0.92-2.77,1.62-5.59,2.11-8.44c0.69-2.81,1.17-5.66,1.43-8.54
				c-0.89,2.77-1.58,5.59-2.07,8.44C169.26,371.77,168.78,374.62,168.47,377.49z"/>
			<path class="st97" d="M162.72,366.08c2.27,1.1,4.67,1.99,7.14,2.64c2.38,0.84,4.86,1.43,7.39,1.77c-2.33-0.91-4.71-1.7-7.14-2.35
				C167.71,367.3,165.24,366.61,162.72,366.08z"/>
			<path class="st97" d="M173.4,375.42c-1.61-4.49-3.62-8.85-6-13.05c0.68,2.28,1.57,4.5,2.68,6.64
				C170.98,371.23,172.09,373.38,173.4,375.42z"/>
			<path class="st97" d="M162.79,373.85c2.5-1.25,4.89-2.67,7.14-4.25c2.28-1.39,4.44-2.93,6.46-4.61c-2.5,1.25-4.89,2.67-7.14,4.25
				C166.98,370.63,164.82,372.17,162.79,373.85z"/>
			<path class="st97" d="M210.46,280.37c0.91-2.77,1.6-5.59,2.07-8.44c0.69-2.8,1.18-5.64,1.46-8.5c-0.91,2.76-1.61,5.57-2.11,8.41
				C211.2,274.64,210.72,277.5,210.46,280.37z"/>
			<path class="st97" d="M204.68,268.96c2.27,1.1,4.67,1.99,7.14,2.64c2.38,0.83,4.86,1.43,7.39,1.77
				c-4.75-1.66-9.57-3.14-14.46-4.41H204.68z"/>
			<path class="st97" d="M215.35,278.34c-0.75-2.32-1.72-4.59-2.89-6.76c-0.88-2.23-1.98-4.39-3.29-6.44
				c0.68,2.28,1.58,4.5,2.68,6.64C212.83,274.04,214,276.23,215.35,278.34z"/>
			<path class="st97" d="M204.75,276.73c2.5-1.25,4.89-2.67,7.14-4.25c2.33-1.42,4.54-3.01,6.61-4.74c-2.5,1.25-4.89,2.67-7.14,4.25
				C209.02,273.42,206.81,275,204.75,276.73z"/>
			<path class="st97" d="M251.13,349.88c0.91-2.77,1.6-5.59,2.07-8.44c0.71-2.8,1.2-5.64,1.46-8.5c-0.91,2.76-1.61,5.57-2.11,8.41
				C251.87,344.16,251.39,347.01,251.13,349.88z"/>
			<path class="st97" d="M245.35,338.48c2.28,1.09,4.67,1.98,7.14,2.64c2.38,0.83,4.86,1.43,7.39,1.77
				c-2.32-0.92-4.71-1.7-7.14-2.35C250.33,339.71,247.86,339.02,245.35,338.48z"/>
			<path class="st97" d="M256.02,347.82c-1.59-4.44-3.59-8.75-6-12.88c0.71,2.27,1.61,4.49,2.71,6.64
				C253.64,343.73,254.74,345.82,256.02,347.82z"/>
			<path class="st97" d="M245.42,346.24c2.5-1.25,4.89-2.67,7.14-4.25c2.33-1.42,4.54-3.01,6.61-4.74
				c-2.49,1.25-4.88,2.68-7.14,4.25C249.69,342.93,247.48,344.51,245.42,346.24z"/>
			<path class="st97" d="M244.6,441.68c0.9-2.76,1.6-5.57,2.07-8.41c0.71-2.81,1.2-5.66,1.46-8.54c-0.91,2.77-1.61,5.59-2.11,8.44
				C245.34,435.98,244.86,438.82,244.6,441.68z"/>
			<path class="st97" d="M238.74,430.28c2.26,1.12,4.66,2,7.14,2.64c2.38,0.85,4.86,1.46,7.39,1.8c-2.32-0.92-4.71-1.7-7.14-2.35
				C243.72,431.55,241.25,430.85,238.74,430.28z"/>
			<path class="st97" d="M249.42,439.65c-1.61-4.49-3.62-8.85-6-13.05c0.71,2.27,1.61,4.49,2.71,6.64
				C247.02,435.46,248.12,437.61,249.42,439.65z"/>
			<path class="st97" d="M238.81,438.08c2.5-1.25,4.89-2.67,7.14-4.25c2.33-1.42,4.54-3.01,6.61-4.74c-2.5,1.25-4.89,2.67-7.14,4.25
				C243.09,434.76,240.88,436.35,238.81,438.08z"/>
			<path class="st97" d="M209.5,464.36c0.91-2.76,1.61-5.57,2.11-8.41c0.69-2.81,1.17-5.66,1.43-8.54c-0.91,2.77-1.6,5.59-2.07,8.44
				C210.27,458.66,209.78,461.5,209.5,464.36z"/>
			<path class="st97" d="M203.75,452.96c2.26,1.12,4.66,2,7.14,2.64c2.39,0.82,4.87,1.42,7.39,1.8c-2.33-0.91-4.71-1.7-7.14-2.35
				C208.72,454.23,206.25,453.53,203.75,452.96z"/>
			<path class="st97" d="M214.43,462.33c-0.73-2.27-1.63-4.49-2.71-6.64c-0.9-2.22-2-4.38-3.29-6.44c0.68,2.28,1.58,4.5,2.68,6.64
				C212.01,458.12,213.12,460.27,214.43,462.33z"/>
			<path class="st97" d="M203.82,460.75c2.49-1.25,4.88-2.68,7.14-4.25c2.33-1.42,4.54-3.01,6.61-4.74
				c-2.5,1.25-4.89,2.67-7.14,4.25C208.09,457.44,205.89,459.02,203.82,460.75z"/>
			<path class="st97" d="M276.73,476.28c0.93-2.76,1.63-5.58,2.11-8.44c0.69-2.81,1.17-5.66,1.43-8.54
				c-0.88,2.77-1.57,5.59-2.07,8.44C277.51,470.56,277.02,473.41,276.73,476.28z"/>
			<path class="st97" d="M270.84,464.84c2.27,1.1,4.67,1.99,7.14,2.64c2.38,0.84,4.86,1.43,7.39,1.77
				c-4.69-1.66-9.45-3.13-14.28-4.41H270.84z"/>
			<path class="st97" d="M281.52,474.22c-0.73-2.27-1.63-4.49-2.71-6.64c-0.9-2.22-2-4.38-3.29-6.44c0.68,2.27,1.58,4.48,2.68,6.6
				C279.1,469.98,280.21,472.15,281.52,474.22z"/>
			<path class="st97" d="M270.91,472.64c2.5-1.25,4.89-2.67,7.14-4.25c2.33-1.42,4.54-3.01,6.61-4.74c-2.5,1.25-4.89,2.67-7.14,4.25
				C275.19,469.33,272.98,470.91,270.91,472.64z"/>
			<path class="st97" d="M333.87,457.66c0.91-2.77,1.6-5.59,2.07-8.44c0.71-2.81,1.2-5.66,1.46-8.54c-0.9,2.77-1.6,5.59-2.11,8.44
				C334.6,451.94,334.13,454.79,333.87,457.66z"/>
			<path class="st97" d="M328.19,446.26c2.27,1.1,4.67,1.99,7.14,2.64c2.38,0.83,4.86,1.43,7.39,1.77c-2.32-0.92-4.71-1.7-7.14-2.35
				C333.17,447.5,330.7,446.81,328.19,446.26z"/>
			<path class="st97" d="M338.87,455.6c-0.69-2.28-1.59-4.5-2.71-6.64c-0.89-2.23-1.99-4.38-3.29-6.44c0.68,2.27,1.59,4.48,2.71,6.6
				C336.46,451.37,337.56,453.53,338.87,455.6z"/>
			<path class="st97" d="M328.26,454.02c2.5-1.25,4.89-2.67,7.14-4.25c2.33-1.42,4.54-3.01,6.61-4.74c-2.5,1.25-4.89,2.67-7.14,4.25
				C332.53,450.71,330.32,452.29,328.26,454.02z"/>
			<path class="st97" d="M255.13,287.07c0.9-2.76,1.6-5.57,2.07-8.41c0.71-2.81,1.2-5.66,1.46-8.54c-0.91,2.77-1.6,5.59-2.07,8.44
				C255.89,281.36,255.4,284.21,255.13,287.07z"/>
			<path class="st97" d="M249.38,275.7c2.28,1.09,4.67,1.96,7.14,2.61c2.38,0.85,4.86,1.46,7.39,1.8c-2.32-0.93-4.71-1.71-7.14-2.35
				C254.37,276.92,251.9,276.23,249.38,275.7z"/>
			<path class="st97" d="M260.02,285.04c-0.68-2.28-1.58-4.5-2.68-6.64c-0.91-2.22-2.02-4.38-3.32-6.44
				c0.72,2.27,1.63,4.49,2.71,6.64C257.64,280.82,258.74,282.97,260.02,285.04z"/>
			<path class="st97" d="M249.42,283.46c2.5-1.25,4.89-2.67,7.14-4.25c2.33-1.42,4.54-3.01,6.61-4.74
				c-2.49,1.25-4.88,2.68-7.14,4.25C253.69,280.15,251.48,281.73,249.42,283.46z"/>
			<path class="st97" d="M356.25,313.16c0.93-2.75,1.63-5.56,2.11-8.41c0.69-2.81,1.17-5.66,1.43-8.54
				c-0.91,2.77-1.6,5.59-2.07,8.44C357.03,307.46,356.54,310.3,356.25,313.16z"/>
			<path class="st97" d="M350.51,301.76c2.26,1.12,4.66,2,7.14,2.64c2.39,0.82,4.87,1.42,7.39,1.8c-2.33-0.91-4.71-1.7-7.14-2.35
				C355.48,303.03,353.01,302.33,350.51,301.76z"/>
			<path class="st97" d="M361.18,311.13c-0.73-2.27-1.63-4.49-2.71-6.64c-0.9-2.22-2-4.38-3.29-6.44c0.68,2.28,1.58,4.5,2.68,6.64
				C358.77,306.92,359.88,309.07,361.18,311.13z"/>
			<path class="st97" d="M350.58,309.55c2.5-1.25,4.89-2.67,7.14-4.25c2.33-1.42,4.54-3.01,6.61-4.74c-2.5,1.25-4.89,2.67-7.14,4.25
				C354.85,306.24,352.64,307.82,350.58,309.55z"/>
			<path class="st97" d="M294.09,335.51c0.9-2.77,1.59-5.59,2.07-8.44c0.71-2.81,1.2-5.66,1.46-8.54c-0.91,2.77-1.61,5.59-2.11,8.44
				C294.83,329.79,294.35,332.64,294.09,335.51z"/>
			<path class="st97" d="M288.3,324.11c2.28,1.08,4.67,1.96,7.14,2.61c2.38,0.85,4.86,1.46,7.39,1.8c-2.32-0.92-4.71-1.7-7.14-2.35
				C293.29,325.33,290.82,324.64,288.3,324.11z"/>
			<path class="st97" d="M298.98,333.45c-0.69-2.28-1.59-4.5-2.71-6.64c-0.9-2.22-2-4.38-3.29-6.44c0.68,2.28,1.59,4.5,2.71,6.64
				C296.58,329.24,297.68,331.4,298.98,333.45z"/>
			<path class="st97" d="M288.38,331.87c2.5-1.25,4.89-2.67,7.14-4.25c2.33-1.42,4.54-3.01,6.61-4.74c-2.5,1.25-4.89,2.67-7.14,4.25
				C292.65,328.56,290.44,330.15,288.38,331.87z"/>
			<path class="st97" d="M354.15,361.77c0.93-2.75,1.63-5.56,2.11-8.41c0.69-2.81,1.17-5.66,1.43-8.54c-0.9,2.76-1.6,5.57-2.07,8.41
				C354.92,356.04,354.43,358.9,354.15,361.77z"/>
			<path class="st97" d="M348.4,350.23c2.26,1.12,4.66,2,7.14,2.64c2.38,0.84,4.86,1.43,7.39,1.77c-2.33-0.89-4.71-1.67-7.14-2.32
				C353.38,351.49,350.91,350.79,348.4,350.23z"/>
			<path class="st97" d="M359.08,359.61c-0.73-2.27-1.63-4.49-2.71-6.64c-0.9-2.22-2-4.38-3.29-6.44c0.68,2.28,1.58,4.5,2.68,6.64
				C356.66,355.39,357.77,357.55,359.08,359.61z"/>
			<path class="st97" d="M348.47,358c2.49-1.25,4.88-2.68,7.14-4.25c2.3-1.46,4.46-3.09,6.46-4.86c-4.77,2.7-9.31,5.7-13.6,8.99V358
				z"/>
			<path class="st97" d="M316.69,372.75c0.9-2.77,1.59-5.59,2.07-8.44c0.71-2.81,1.2-5.66,1.46-8.54c-0.9,2.77-1.59,5.59-2.07,8.44
				C317.44,367.02,316.95,369.88,316.69,372.75z"/>
			<path class="st97" d="M310.91,361.35c2.28,1.09,4.67,1.98,7.14,2.64c2.38,0.83,4.86,1.43,7.39,1.77
				c-2.32-0.93-4.71-1.71-7.14-2.35C315.89,362.56,313.42,361.87,310.91,361.35z"/>
			<path class="st97" d="M321.58,370.69c-0.68-2.28-1.58-4.5-2.68-6.64c-0.91-2.23-2.02-4.38-3.32-6.44
				c0.72,2.21,1.63,4.36,2.71,6.44C319.17,366.35,320.27,368.57,321.58,370.69z"/>
			<path class="st97" d="M310.98,369.11c2.5-1.25,4.89-2.67,7.14-4.25c2.33-1.42,4.54-3.01,6.61-4.74
				c-2.49,1.25-4.88,2.68-7.14,4.25C315.25,365.8,313.04,367.38,310.98,369.11z"/>
			<path class="st97" d="M340.65,404.61c0.9-2.76,1.6-5.57,2.07-8.41c0.71-2.81,1.2-5.66,1.46-8.54c-0.91,2.76-1.61,5.57-2.11,8.41
				C341.39,398.89,340.91,401.74,340.65,404.61z"/>
			<path class="st97" d="M334.87,393.21c4.58,2.04,9.45,3.53,14.46,4.41c0,0-3.21-1.1-7.14-2.32
				C339.8,394.46,337.35,393.76,334.87,393.21z"/>
			<path class="st97" d="M345.54,402.58c-1.61-4.49-3.62-8.85-6-13.05C341.16,394.02,343.16,398.38,345.54,402.58z"/>
			<path class="st97" d="M334.94,400.97c2.5-1.25,4.89-2.67,7.14-4.25c2.33-1.42,4.54-2.99,6.61-4.7c-2.51,1.23-4.9,2.65-7.14,4.25
				C339.22,397.68,337.01,399.26,334.94,400.97z"/>
			<path class="st100" d="M298.16,192.53c5.68,9.23,5.46,20.49-0.57,29.54c-3.96,5.77-10.14,10.28-13.18,16.49
				c-3.57,7.6-2.04,16.3-0.93,24.55s1.29,17.39-4.57,23.8c-2.43,2.67-5.71,4.64-8.21,7.28c-2.8,2.54-3.66,6.34-2.18,9.66
				c1.53,2.02,3.79,3.49,6.39,4.16c19.27,6.18,40.76,1.15,54.28-12.69l1.46,8.79c25.39-19.84,32.02-52.96,15.93-79.56"/>
		</g>
		<g>
			<path class="st100" d="M240.19,158.64c0.36,2.05,0.43,4.13,0.23,6.21c-0.13,1.04-0.28,2.09-0.58,3.11
				c-0.28,1.02-0.66,2.03-1.17,2.98l-0.49-1.15c1.5,0.47,2.99,1.02,4.46,1.59c1.47,0.59,2.93,1.21,4.34,1.96
				c-1.6-0.17-3.15-0.48-4.7-0.81c-1.54-0.35-3.07-0.73-4.58-1.18l-0.9-0.27l0.42-0.88c0.41-0.87,0.77-1.78,1.07-2.71
				c0.28-0.94,0.56-1.89,0.76-2.87C239.48,162.69,239.77,160.68,240.19,158.64z"/>
		</g>
		<path class="st70" d="M225.69,148.7c0.26,3.02,1.81,5.36,3.47,5.22c1.65-0.13,2.78-2.69,2.52-5.7c-0.26-3.02-1.81-5.36-3.47-5.22
			C226.56,143.13,225.43,145.69,225.69,148.7z"/>
		<path class="st70" d="M257.99,147.35c0.26,3.02,1.81,5.36,3.47,5.22c1.65-0.13,2.78-2.69,2.52-5.7c-0.26-3.02-1.81-5.36-3.47-5.22
			C258.85,141.78,257.73,144.33,257.99,147.35z"/>
		<g>
			<path class="st93" d="M258.2,186.02c0,0-17.34-6.15-23.45-0.07L258.2,186.02z"/>
			<path class="st93" d="M258.2,186.02c0,0-5.79,9.98-14.69,9.34c-10.37-0.75-8.76-9.41-8.76-9.41L258.2,186.02z"/>
			<path class="st6" d="M258.2,186.02l-23.45-0.07C234.75,185.95,239.87,199.68,258.2,186.02z"/>
		</g>
		<g>
			<path class="st101" d="M273.28,140.26c-1.45-1.55-3.12-2.83-4.92-3.86c-1.8-1.01-3.74-1.76-5.76-2.09
				c-2.01-0.36-4.08-0.29-6.05,0.25c-1.97,0.55-3.81,1.58-5.43,2.97c1.31-1.67,3.1-3.04,5.17-3.77c2.06-0.76,4.33-0.88,6.49-0.51
				C267.11,134.01,271.03,136.64,273.28,140.26z"/>
		</g>
		<g>
			<path class="st101" d="M238.64,140.46c-1.52-1.4-3.33-2.37-5.23-2.96c-1.91-0.57-3.91-0.77-5.88-0.59
				c-3.95,0.33-7.76,2.2-10.3,5.48c0.91-1.86,2.39-3.47,4.2-4.58c1.8-1.13,3.89-1.78,6-1.97c2.12-0.18,4.28,0.09,6.26,0.87
				C235.66,137.47,237.44,138.78,238.64,140.46z"/>
		</g>
	</g>
</g>
</svg>
