<?xml version="1.0" encoding="utf-8"?>
<!-- Generator: Adobe Illustrator 24.0.0, SVG Export Plug-In . SVG Version: 6.00 Build 0)  -->
<svg version="1.1" id="Layer_1" xmlns="http://www.w3.org/2000/svg" xmlns:xlink="http://www.w3.org/1999/xlink" x="0px" y="0px"
	 viewBox="0 0 500 500" style="enable-background:new 0 0 500 500;" xml:space="preserve">
<style type="text/css">
	.st0{fill:#3C4657;}
	.st1{fill:#313945;}
	.st2{fill:#231F20;}
	.st3{opacity:0.3;}
	.st4{fill:#D1D2D2;}
	.st5{fill:#C9EAFB;}
	.st6{fill:#FFFFFF;}
	
		.st7{fill:none;stroke:#FDF5F9;stroke-width:2.1703;stroke-linecap:round;stroke-linejoin:round;stroke-miterlimit:10;stroke-dasharray:8.6811;}
	.st8{fill:#72256F;}
	.st9{fill:#3C2415;}
	.st10{fill:#B56A57;}
	.st11{opacity:0.4;fill:#B56A57;}
	.st12{fill:#BE1E2D;}
	.st13{fill:#4C3B4B;}
	.st14{fill:#392A38;}
	.st15{fill:#F0645C;}
	.st16{fill:#603913;}
	.st17{fill:#F1F2F2;}
	.st18{fill:#D8792B;}
	.st19{fill:#8AB5CF;}
	.st20{fill:#C6E1F5;}
	.st21{fill:#F79731;}
	.st22{fill:#84A5BA;}
	.st23{fill:#658CA2;}
	.st24{fill:#9CC3DB;}
	.st25{fill:#72A749;}
	.st26{fill:#87C557;}
	.st27{fill:#C1DA73;}
	.st28{fill:#D77A40;}
	.st29{fill:#BFE068;}
	.st30{fill:#F7FAFB;}
	.st31{fill:#FBB040;}
	.st32{fill:#F5F5F6;}
	.st33{fill:url(#SVGID_1_);}
	.st34{fill:none;stroke:#F7FAFB;stroke-width:3.0845;stroke-miterlimit:10;}
	.st35{fill:#D4F0F5;}
	.st36{opacity:0.57;}
	.st37{fill:#92D5E4;}
	.st38{fill:#FFFFFF;stroke:#852170;stroke-width:0.9103;stroke-miterlimit:10;}
	.st39{fill:#852170;}
	.st40{fill:none;stroke:#852170;stroke-width:0.4552;stroke-miterlimit:10;}
	.st41{opacity:0.5;fill:#852170;}
	.st42{opacity:0.4;}
	.st43{clip-path:url(#SVGID_3_);}
	.st44{opacity:0.63;}
	.st45{fill:#B9E5EE;}
	.st46{fill:#FF9F66;}
	.st47{fill:#73ADDB;}
	.st48{fill:#2E214C;}
	.st49{fill:#43305F;}
	.st50{fill:#FF8A31;}
	.st51{fill:#549CCB;}
	.st52{fill:#FF9B3A;}
	.st53{fill:#F2763F;}
	.st54{fill:#4489B4;}
	.st55{fill:#F17D24;}
	.st56{opacity:0.74;}
	.st57{clip-path:url(#SVGID_5_);}
	.st58{fill:#E8505B;}
	.st59{fill:#263238;}
	.st60{opacity:0.2;}
	.st61{fill:#455A64;}
	.st62{fill:#ADD337;}
	.st63{opacity:0.69;fill:#FFFFFF;}
	.st64{fill:#FAFAFA;}
	.st65{fill:#FFBE9D;}
	.st66{fill:#CC8F75;}
	.st67{opacity:0.78;}
	.st68{fill:#7C2639;}
	.st69{fill:#E28088;}
	.st70{fill:#222228;}
	.st71{fill:#F0A2F4;}
	.st72{fill:#684D34;}
	.st73{fill:#604966;}
	.st74{fill:#3F1E47;}
	.st75{fill:#936754;}
	.st76{fill:#EB996E;}
	.st77{fill:#7F584A;}
	.st78{fill:#0A0705;}
	.st79{fill:#60381A;}
	.st80{fill:#7C5142;}
	.st81{opacity:0.6;}
	.st82{fill:#3D3D3D;}
	.st83{fill:#6FB56B;}
	.st84{fill:#97F794;}
	.st85{fill:#754925;}
	.st86{fill:#5E3A1E;}
	.st87{fill:#AFA15B;}
	.st88{fill:#FFEE8D;}
	.st89{fill:#B78876;}
	.st90{fill:#F5F5F5;}
	.st91{fill:#BF594F;}
	.st92{fill:#FF725E;}
	.st93{fill:#C96565;}
	.st94{fill:#B57662;}
	.st95{fill:#EA9898;}
	.st96{fill:#7C4A4A;}
	.st97{fill:#EBEBEB;}
	.st98{fill:#E0E0E0;}
	.st99{opacity:0.5;}
	.st100{fill:#995037;}
	.st101{fill:#773C2C;}
	.st102{fill:none;}
	.st103{fill:#E5BAAB;}
	.st104{fill:#D78776;}
	.st105{fill:#BC93B4;}
	.st106{fill:#B77153;}
	.st107{fill:#724940;}
	.st108{fill:#A56B65;}
	.st109{fill:#492F1B;}
	.st110{fill:#4B6EBC;}
	.st111{fill:#3D5C91;}
	.st112{fill:#A4CC64;}
	.st113{fill:#0086BF;}
	.st114{fill:none;stroke:#4E585D;stroke-miterlimit:10;}
	.st115{fill:#AF5858;}
	.st116{fill:#71A5BC;}
	.st117{fill:#AF7127;}
	.st118{fill:#4C3D2D;}
	.st119{fill:#AA6550;}
	.st120{fill:#93584A;}
</style>
<g>
	
		<ellipse transform="matrix(0.7071 -0.7071 0.7071 0.7071 -116.4443 258.0373)" class="st63" cx="253.26" cy="269.58" rx="211.68" ry="211.68"/>
	<g>
		<path class="st29" d="M488.44,191.07c0,0-12.79-8.03-27.44,22.45c-14.65,30.48-20.06,47.99-20.06,47.99s-3.91,6.41-8.34,2.38
			c-4.43-4.02-10.64-15.59-17.96-13.31c-7.59,2.36-9.91,10.95-8.16,23.45c1.75,12.5,4.57,40.03,4.82,42.51
			c0.24,2.44-1.08,6.08-4.53,3.83c-3.46-2.26-23.55-23.61-33.11-13.47c-9.56,10.14,1.03,44.16,2.12,47.9
			c1.09,3.74,0.39,5.37-1.38,6.34c-1.77,0.97-7.84-6.84-13.8-12.68s-13.9-11.56-18.92-5.25c-5.03,6.31-6.08,32.05,19.34,73.22
			l13.03,18.31l22.5-1.77c47.92-6.73,67.05-23.98,68.7-31.88c1.65-7.9-7.83-10.35-16.13-11.21c-8.3-0.86-18.19-0.54-18.57-2.52
			c-0.38-1.98,0.42-3.56,4-5.11c3.57-1.55,36.52-15.13,38.21-28.96c1.69-13.83-27.56-15.65-31.51-16.87
			c-3.95-1.22-1.99-4.56,0.05-5.93c2.07-1.4,25.06-16.81,35.79-23.44c10.73-6.64,15.86-13.91,12.83-21.26
			c-2.92-7.09-15.79-4.48-21.71-5.32c-5.93-0.84-3.5-7.94-3.5-7.94s10.01-15.35,24.11-46.09c14.1-30.74-0.64-35.5-0.64-35.5"/>
		<g>
			<path class="st25" d="M474.93,218.97c-0.23,0.46-0.53,1.08-0.91,1.87c-0.81,1.7-1.95,4.13-3.42,7.23
				c-2.98,6.33-7.25,15.42-12.51,26.62c-10.68,22.47-25.41,53.43-41.67,87.63c-16.33,34.21-31,65.22-41.42,87.77
				c-0.68,1.47-1.34,2.9-1.99,4.3c0.2,0.08,0.4,0.17,0.59,0.27c0.65-1.39,1.32-2.81,2.01-4.28c10.68-22.47,25.41-53.43,41.68-87.64
				c16.33-34.19,31-65.21,41.42-87.76c5.21-11.27,9.39-20.41,12.23-26.75c1.4-3.13,2.49-5.58,3.25-7.31
				c0.35-0.8,0.62-1.44,0.82-1.91c0.18-0.43,0.27-0.66,0.25-0.66C475.25,218.34,475.14,218.55,474.93,218.97z"/>
		</g>
		<g>
			<path class="st25" d="M422.67,267.1c0.12-0.04,0.93,2.13,2.06,5.69c1.12,3.56,2.53,8.53,3.97,14.03
				c1.37,5.38,2.61,10.23,3.6,14.12c0.91,3.61,1.52,5.84,1.39,5.88c-0.12,0.04-0.96-2.12-2.05-5.7c-1.09-3.57-2.43-8.55-3.87-14.06
				c-1.41-5.36-2.68-10.21-3.7-14.09C423.11,269.38,422.53,267.14,422.67,267.1z"/>
		</g>
		<g>
			<path class="st25" d="M435.76,307.18c-0.08-0.25,10.02-3.64,22.54-7.56c12.53-3.92,22.76-6.89,22.83-6.64
				c0.08,0.25-10.01,3.64-22.55,7.56C446.06,304.46,435.84,307.43,435.76,307.18z"/>
		</g>
		<g>
			<path class="st25" d="M408.31,358.57c0-0.14,2.36-0.2,6.16-0.3c3.8-0.1,9.06-0.25,14.85-0.61c5.79-0.35,11.02-0.83,14.81-1.19
				c3.79-0.37,6.13-0.59,6.15-0.45c0.02,0.13-2.3,0.59-6.07,1.13c-3.78,0.54-9.02,1.13-14.83,1.48c-5.81,0.36-11.09,0.4-14.9,0.33
				C410.67,358.87,408.31,358.69,408.31,358.57z"/>
		</g>
		<g>
			<path class="st25" d="M388.49,324.92c0.11-0.07,1.35,1.73,3.25,4.69c1.9,2.96,4.47,7.09,7.25,11.68
				c2.79,4.59,5.26,8.78,7.01,11.83c1.75,3.05,2.78,4.98,2.66,5.05c-0.11,0.07-1.35-1.73-3.25-4.69c-1.9-2.96-4.47-7.09-7.25-11.69
				c-2.78-4.59-5.26-8.78-7.01-11.83C389.4,326.91,388.38,324.99,388.49,324.92z"/>
		</g>
	</g>
	<g>
		<g>
			<path class="st25" d="M104.84,189.53c0,0,0.29-0.13,0.91-0.2c0.61-0.07,1.57-0.03,2.72,0.4c1.15,0.42,2.45,1.27,3.69,2.57
				c1.26,1.29,2.36,3.08,3.43,5.16c2.09,4.23,3.47,9.87,5.06,16.41c1.56,6.57,3.27,14.13,4.43,22.73l-0.01-0.06
				c0.51,1.24,1.48,2.66,2.86,2.72c0.68,0.01,1.32-0.34,1.95-0.77c0.62-0.44,1.23-0.92,1.84-1.42c1.22-0.99,2.47-2.02,3.88-2.88
				c1.39-0.82,3.11-1.61,4.91-1.14c1.73,0.54,3.09,1.84,3.89,3.46c0.78,1.63,0.98,3.48,0.86,5.28c-0.19,3.64-1.63,7.09-2.67,10.65
				c-1.11,3.57-2.25,7.22-3.41,10.96c-0.58,1.87-1.17,3.76-1.77,5.67c-0.3,0.95-0.6,1.91-0.9,2.88c-0.15,0.5-0.32,0.95-0.35,1.4
				c-0.04,0.46,0.02,0.93,0.2,1.31c0.34,0.81,1.36,0.63,2.21,0.15c0.9-0.5,1.81-1,2.72-1.5c1.83-1.01,3.72-1.97,5.71-2.78
				c1.98-0.8,4.08-1.48,6.32-1.61c1.11-0.06,2.28,0.07,3.35,0.52c1.07,0.45,2.02,1.26,2.61,2.27c1.22,2.05,1.28,4.46,1.07,6.69
				c-0.23,2.26-0.72,4.49-1.4,6.68c-1.34,4.37-3.21,8.62-5.31,12.81c-0.5,1.06-1.16,2.07-1.46,3.1c-0.14,0.52-0.17,1.03,0.04,1.45
				c0.1,0.21,0.26,0.4,0.45,0.58c0.09,0.07,0.17,0.07,0.45,0c0.99-0.35,2-1.06,2.97-1.71c0.97-0.68,1.95-1.37,2.93-2.06
				c1.97-1.37,3.99-2.75,6.26-3.77c1.13-0.5,2.33-0.92,3.61-1.06c1.26-0.17,2.71,0.1,3.75,1.01c1.04,0.87,1.62,2.17,1.8,3.44
				c0.14,0.64,0.12,1.27,0.18,1.91c-0.03,0.63-0.03,1.27-0.1,1.9c-0.25,2.52-0.92,4.98-1.78,7.35c-1.7,4.78-4.2,9.26-7.05,13.53
				c-2.85,4.28-6.11,8.31-9.62,12.18c-1.69,2.01-3.68,3.7-5.57,5.52c-1.91,1.8-3.83,3.6-5.75,5.41l-0.18,0.17l-0.23-0.07
				c-0.34-0.1-0.71-0.21-1.07-0.33c-2.55-0.77-5.09-1.54-7.61-2.31l-3.79-1.15c-1.25-0.42-2.46-0.95-3.69-1.43
				c-4.88-1.98-9.61-4.18-14.1-6.77c-4.48-2.58-8.72-5.54-12.44-9.04c-1.84-1.76-3.58-3.64-4.95-5.8c-0.65-1.1-1.3-2.21-1.64-3.48
				c-0.37-1.25-0.38-2.69,0.27-3.92c0.68-1.23,1.98-1.91,3.2-2.26c1.25-0.34,2.51-0.43,3.75-0.43c2.49,0.01,4.92,0.39,7.31,0.78
				c1.19,0.19,2.38,0.38,3.56,0.57c0.59,0.08,1.18,0.16,1.76,0.2c0.55,0.04,1.22,0.07,1.56-0.08c0.12-0.07,0.03,0.01,0.11-0.09
				c0.05-0.12,0.08-0.24,0.1-0.36c0.04-0.24,0.03-0.47-0.03-0.7c-0.14-0.46-0.49-0.88-0.9-1.26c-0.83-0.73-1.87-1.38-2.8-2.09
				c-3.8-2.8-7.41-5.77-10.64-9.06c-1.6-1.65-3.11-3.39-4.36-5.31c-1.2-1.91-2.32-4.07-2.15-6.48c0.09-1.18,0.58-2.34,1.39-3.2
				c0.8-0.87,1.84-1.43,2.88-1.84c2.11-0.8,4.31-1.05,6.46-1.17c2.16-0.11,4.29-0.03,6.39,0.09c1.05,0.06,2.1,0.15,3.11,0.17
				c0.47,0.01,0.97-0.06,1.28-0.29c0.31-0.21,0.41-0.59,0.32-1.03c-0.16-0.91-0.86-1.59-1.6-2.31c-0.72-0.72-1.43-1.44-2.14-2.16
				c-1.42-1.43-2.82-2.84-4.21-4.24c-2.77-2.8-5.49-5.53-8.13-8.2c-2.58-2.7-5.46-5.11-7.37-8.23c-0.96-1.53-1.7-3.24-1.83-5.06
				c-0.09-1.81,0.49-3.64,1.81-4.91c1.43-1.22,3.33-1.23,4.95-1.09c1.66,0.17,3.23,0.55,4.77,0.91c0.77,0.18,1.53,0.36,2.28,0.48
				c0.75,0.12,1.5,0.19,2.12-0.09c1.28-0.58,1.47-2.34,1.34-3.67l0.02,0.06c-3.02-8.08-5.08-15.51-6.8-22
				c-1.68-6.49-3.13-12.07-3.34-16.75c-0.28-4.65,0.8-8.34,2.47-10.15c0.8-0.92,1.65-1.38,2.22-1.59c0.58-0.22,0.9-0.22,0.9-0.22
				s-0.31,0.05-0.87,0.29c-0.56,0.23-1.37,0.7-2.14,1.61c-1.6,1.8-2.63,5.43-2.3,10.04c0.24,4.63,1.73,10.18,3.45,16.66
				c1.76,6.46,3.86,13.89,6.89,21.91l0.01,0.04l0,0.02c0.08,0.77,0.06,1.54-0.14,2.32c-0.21,0.75-0.66,1.57-1.48,1.91
				c-0.79,0.36-1.66,0.25-2.42,0.14c-0.78-0.13-1.55-0.3-2.32-0.48c-1.54-0.35-3.1-0.72-4.7-0.88c-1.56-0.13-3.32-0.08-4.51,0.97
				c-1.12,1.08-1.7,2.8-1.6,4.44c0.12,1.67,0.81,3.29,1.75,4.77c1.85,3.01,4.69,5.38,7.3,8.09c2.66,2.67,5.38,5.4,8.16,8.19
				c1.39,1.4,2.8,2.81,4.22,4.24c0.71,0.71,1.43,1.43,2.14,2.15c0.69,0.68,1.58,1.49,1.79,2.67c0.14,0.55-0.02,1.35-0.6,1.73
				c-0.54,0.38-1.14,0.42-1.69,0.43c-1.07-0.02-2.1-0.11-3.15-0.16c-2.09-0.12-4.2-0.18-6.31-0.07c-2.11,0.12-4.25,0.38-6.22,1.13
				c-0.97,0.39-1.91,0.9-2.6,1.66c-0.69,0.75-1.11,1.72-1.18,2.75c-0.15,2.09,0.87,4.17,2.05,6c1.21,1.86,2.69,3.56,4.27,5.18
				c3.18,3.24,6.78,6.18,10.55,8.96c0.94,0.72,1.92,1.31,2.87,2.14c0.45,0.42,0.91,0.93,1.12,1.62c0.1,0.34,0.12,0.72,0.05,1.07
				c-0.03,0.17-0.08,0.34-0.14,0.5c-0.04,0.16-0.33,0.5-0.5,0.53c-0.77,0.3-1.35,0.18-1.98,0.16c-0.61-0.04-1.21-0.13-1.81-0.21
				c-1.19-0.19-2.38-0.38-3.57-0.57c-2.38-0.39-4.77-0.76-7.18-0.76c-1.2,0-2.4,0.09-3.53,0.4c-1.11,0.32-2.17,0.91-2.7,1.87
				c-1.07,2.06,0.09,4.55,1.35,6.56c1.32,2.07,3.02,3.91,4.83,5.64c3.65,3.43,7.84,6.36,12.28,8.91c4.45,2.55,9.16,4.75,13.99,6.71
				c1.22,0.47,2.41,0.99,3.65,1.41l3.78,1.14c2.52,0.76,5.06,1.53,7.6,2.3c0.37,0.11,0.73,0.22,1.07,0.32l-0.41,0.1
				c1.92-1.8,3.84-3.6,5.74-5.4c1.88-1.81,3.89-3.51,5.55-5.49c3.47-3.83,6.73-7.84,9.54-12.07c2.82-4.22,5.29-8.66,6.96-13.34
				c0.85-2.33,1.5-4.73,1.74-7.16c0.07-0.6,0.06-1.21,0.1-1.81c-0.05-0.59-0.03-1.21-0.16-1.77c-0.16-1.16-0.67-2.25-1.52-2.97
				c-0.84-0.72-1.99-0.96-3.14-0.82c-1.15,0.12-2.28,0.51-3.36,0.99c-2.17,0.97-4.16,2.32-6.13,3.69c-0.98,0.69-1.96,1.37-2.94,2.06
				c-1.01,0.66-1.95,1.37-3.2,1.81c-0.17,0.04-0.33,0.1-0.56,0.08c-0.16,0.05-0.57-0.16-0.65-0.26c-0.24-0.22-0.47-0.5-0.63-0.82
				c-0.32-0.66-0.25-1.4-0.09-2c0.37-1.24,1.02-2.2,1.52-3.25c2.1-4.15,3.95-8.37,5.28-12.68c0.68-2.15,1.16-4.34,1.38-6.52
				c0.22-2.16,0.12-4.44-0.95-6.23c-1.05-1.84-3.21-2.59-5.28-2.44c-2.09,0.11-4.14,0.77-6.08,1.55c-1.95,0.79-3.81,1.74-5.63,2.74
				c-0.92,0.5-1.83,1-2.73,1.5c-0.46,0.24-1.01,0.48-1.62,0.49c-0.63,0.05-1.3-0.39-1.55-0.96c-0.51-1.09-0.22-2.32,0.11-3.22
				c0.3-0.97,0.6-1.93,0.9-2.88c0.6-1.91,1.19-3.8,1.78-5.67c1.17-3.74,2.32-7.39,3.44-10.96c1.06-3.58,2.48-6.98,2.67-10.48
				c0.12-1.73-0.07-3.48-0.78-4.98c-0.71-1.47-2.03-2.7-3.5-3.16c-1.53-0.41-3.12,0.27-4.47,1.06c-1.36,0.83-2.6,1.84-3.82,2.83
				c-0.61,0.49-1.23,0.98-1.87,1.43c-0.63,0.44-1.4,0.88-2.27,0.86c-0.87-0.02-1.61-0.53-2.13-1.1c-0.52-0.6-0.91-1.25-1.19-1.97
				l-0.01-0.02l0-0.04c-1.12-8.55-2.79-16.13-4.31-22.69c-1.55-6.56-2.89-12.18-4.92-16.38c-1.04-2.07-2.11-3.85-3.34-5.14
				c-1.21-1.3-2.47-2.14-3.59-2.58C106.13,188.99,104.81,189.6,104.84,189.53z"/>
		</g>
		<g>
			<path class="st25" d="M109.26,207.19c0.01,0,0.06,0.13,0.15,0.4c0.09,0.32,0.21,0.71,0.35,1.2c0.31,1.12,0.74,2.67,1.29,4.63
				c1.1,4.02,2.65,9.86,4.52,17.09c3.75,14.45,8.73,34.45,14.14,56.57c5.42,22.09,10.33,42.08,13.9,56.63
				c1.79,7.19,3.24,13.03,4.26,17.15c0.48,1.98,0.86,3.54,1.13,4.67c0.11,0.5,0.2,0.9,0.27,1.22c0.06,0.28,0.08,0.42,0.07,0.42
				c-0.01,0-0.06-0.13-0.15-0.4c-0.09-0.32-0.21-0.71-0.35-1.2c-0.31-1.12-0.74-2.67-1.29-4.63c-1.1-4.02-2.65-9.86-4.52-17.09
				c-3.75-14.45-8.73-34.45-14.14-56.58c-5.42-22.08-10.32-42.07-13.89-56.62c-1.79-7.19-3.24-13.03-4.26-17.15
				c-0.48-1.98-0.86-3.54-1.13-4.67c-0.11-0.5-0.2-0.9-0.27-1.22C109.27,207.34,109.25,207.19,109.26,207.19z"/>
		</g>
		<g>
			<path class="st25" d="M103.55,249.42c0.06-0.09,1.27,0.61,3.15,1.86c1.87,1.25,4.4,3.07,7.13,5.15c2.73,2.08,5.17,4,6.94,5.39
				c1.76,1.39,2.86,2.25,2.79,2.35c-0.06,0.09-1.28-0.59-3.14-1.87c-1.86-1.27-4.36-3.12-7.09-5.2c-2.58-1.98-4.93-3.77-6.97-5.34
				C104.57,250.39,103.48,249.51,103.55,249.42z"/>
		</g>
		<g>
			<path class="st25" d="M124.64,263.58c-0.19-0.13,3.1-5.44,7.36-11.86c4.26-6.42,7.87-11.53,8.06-11.4
				c0.19,0.13-3.1,5.44-7.36,11.86C128.44,258.6,124.83,263.71,124.64,263.58z"/>
		</g>
		<g>
			<path class="st25" d="M131.43,297.87c-0.15-0.2,4.16-3.63,9.19-8.19c5.04-4.55,8.88-8.5,9.06-8.33c0.08,0.08-0.78,1.16-2.29,2.81
				c-1.51,1.65-3.68,3.85-6.21,6.14c-2.53,2.29-4.94,4.23-6.73,5.57C132.66,297.21,131.5,297.96,131.43,297.87z"/>
		</g>
		<g>
			<path class="st25" d="M109.69,289.2c0.04-0.11,1.3,0.26,3.29,0.95c2,0.69,4.73,1.69,7.74,2.84c3,1.15,5.71,2.24,7.65,3.07
				c1.94,0.83,3.12,1.39,3.08,1.5c-0.04,0.11-1.3-0.26-3.29-0.95c-2-0.69-4.73-1.69-7.74-2.84c-3-1.15-5.71-2.24-7.65-3.07
				C110.82,289.88,109.64,289.31,109.69,289.2z"/>
		</g>
		<g>
			<path class="st25" d="M111.89,320.13c0.04-0.11,1.64,0.38,4.2,1.25c2.56,0.87,6.07,2.14,9.93,3.58c3.86,1.44,7.34,2.79,9.85,3.81
				c2.5,1.02,4.03,1.7,3.99,1.81c-0.04,0.11-1.64-0.38-4.2-1.25c-2.56-0.87-6.07-2.14-9.94-3.58c-3.86-1.44-7.34-2.79-9.85-3.81
				C113.37,320.92,111.85,320.23,111.89,320.13z"/>
		</g>
		<g>
			<path class="st25" d="M139.26,330.13c-0.08-0.09,1.2-1.29,3.28-3.2c2.08-1.92,4.95-4.55,8.06-7.54c3.11-2.98,5.88-5.74,7.88-7.73
				c2-2,3.25-3.22,3.34-3.14c0.08,0.08-1.02,1.44-2.91,3.55c-1.9,2.11-4.6,4.94-7.73,7.93c-3.12,2.99-6.07,5.57-8.25,7.38
				C140.74,329.18,139.33,330.22,139.26,330.13z"/>
		</g>
	</g>
	<g>
		<g>
			<g>
				<path class="st62" d="M160.39,443.7c0.96-0.49,1.93-0.99,2.89-1.53c26.85-26.06,27.35-66.44,20.43-101.53
					c-1.15-5.86-1.51-12.17-5.15-16.89c-3.64-4.71-10.75-7.19-15.62-3.85c-4.04,2.77-5.12,8.17-6.89,12.77
					c-2.35,6.13-6.45,11.55-11.68,15.44c-3.44,2.55-7.88,4.5-11.92,3.06c-5.54-1.98-7.27-8.9-8.19-14.77
					c-1.7-10.93-3.4-21.86-5.11-32.79c-0.91-5.86-1.87-11.85-4.59-17.12c-2.72-5.27-7.59-9.78-13.41-10.44
					c-5.83-0.66-12.2,3.67-12.45,9.6c-0.1,2.47,0.78,4.86,1.02,7.32c0.23,2.46-0.47,5.33-2.67,6.39c-2.23,1.07-4.84-0.22-6.87-1.65
					c-7.01-4.94-12.35-11.89-17.41-18.85s-10.04-14.11-16.58-19.68c-6.53-5.56-14.95-9.45-23.42-8.56
					c-8.47,0.89-16.57,7.51-17.36,16.09c-0.79,8.61,5.39,16.21,11.72,22.04c9.39,8.66,20.01,15.94,31.44,21.54
					c2.06,1.01,4.29,2.1,5.35,4.16c1.91,3.7-1.17,8.18-4.82,10.09c-4.13,2.16-8.94,2.48-13.43,3.76c-4.48,1.28-9.1,4.1-10.13,8.69
					c-1.43,6.38,4.6,11.84,10.19,15.16c11.2,6.63,23.53,11.31,36.26,13.77c4.57,0.88,9.33,1.53,13.29,3.99
					c3.97,2.47,6.92,7.39,5.49,11.86c-1.43,4.47-6.61,6.67-11.26,6.56c-4.65-0.1-9.09-1.9-13.65-2.83
					c-8.54-1.73-18.85,0.51-22.88,8.3c-2.65,5.12-1.91,11.54,0.68,16.72c2.6,5.18,6.84,9.31,11.23,13.04
					c15.36,13.05,33.86,22.56,53.59,26.01c18.35,3.21,34.85,2.51,51.13-5.49C159.86,443.92,160.12,443.81,160.39,443.7z"/>
			</g>
		</g>
		<g>
			<g>
				<g>
					<path class="st25" d="M160.14,443.82c-2.71-7.16-5.89-14.63-9.56-22.3c-8.08-16.97-18.48-34.83-30-53.15
						c-2.9-4.57-5.76-9.08-8.58-13.53c-2.83-4.43-5.63-8.83-8.64-12.96c-5.98-8.29-12.36-15.8-18.64-22.75
						c-6.28-6.95-12.49-13.31-18.34-19.22c-5.87-5.9-11.44-11.29-16.73-15.99c-10.55-9.44-19.94-16.04-26.58-20.3
						c-3.31-2.14-5.94-3.72-7.73-4.77c-0.86-0.49-1.54-0.88-2.05-1.18c-0.46-0.26-0.71-0.38-0.72-0.37
						c-0.01,0.02,0.21,0.17,0.66,0.46c0.49,0.32,1.15,0.74,1.99,1.27c1.75,1.11,4.34,2.74,7.62,4.94
						c6.55,4.37,15.84,11.04,26.29,20.53c5.24,4.72,10.77,10.14,16.6,16.06c5.82,5.93,12,12.31,18.24,19.26
						c6.24,6.95,12.58,14.45,18.51,22.7c2.98,4.11,5.76,8.47,8.59,12.92c2.82,4.45,5.68,8.96,8.57,13.52
						c11.51,18.3,21.91,36.11,30.02,53c3.71,7.69,6.92,15.18,9.67,22.35C159.6,444.12,159.86,443.95,160.14,443.82z"/>
				</g>
			</g>
		</g>
		<g>
			<g>
				<g>
					<path class="st25" d="M103.05,341.89c0.07,0,0.13-0.92,0.17-2.59c0.05-1.67,0.03-4.08-0.03-7.07
						c-0.12-5.97-0.56-14.2-1.08-23.28c-0.52-9.08-0.85-17.3-0.87-23.26c-0.02-2.98-0.01-5.39,0.01-7.05
						c0.02-1.67-0.01-2.59-0.09-2.6c-0.08,0-0.19,0.91-0.34,2.58c-0.16,1.66-0.28,4.08-0.36,7.06c-0.17,5.97,0.03,14.23,0.56,23.32
						c0.54,8.96,1.03,17.06,1.4,23.25c0.15,2.8,0.28,5.16,0.38,7.05C102.88,340.97,102.97,341.89,103.05,341.89z"/>
				</g>
			</g>
		</g>
		<g>
			<g>
				<g>
					<path class="st25" d="M25.43,340.02c0.01,0.08,1.1,0.03,3.06-0.13c1.96-0.14,4.8-0.36,8.31-0.52
						c7.02-0.37,16.74-0.55,27.46-0.28c10.73,0.29,20.43,0.97,27.43,1.67c3.51,0.32,6.33,0.66,8.29,0.88
						c1.96,0.23,3.04,0.32,3.06,0.24c0.01-0.08-1.06-0.31-3-0.67c-1.94-0.35-4.76-0.81-8.27-1.23c-7-0.89-16.73-1.7-27.49-1.99
						c-10.76-0.27-20.51,0.03-27.54,0.6c-3.52,0.26-6.35,0.6-8.3,0.87C26.5,339.75,25.42,339.95,25.43,340.02z"/>
				</g>
			</g>
		</g>
		<g>
			<g>
				<g>
					<path class="st25" d="M149.43,420.28c0.04,0.01,0.16-0.33,0.37-1c0.23-0.79,0.51-1.76,0.85-2.93
						c0.72-2.55,1.67-6.27,2.79-10.88c2.24-9.22,4.92-22.05,7.7-36.25c2.78-14.21,5.34-27.04,7.38-36.3
						c1.01-4.5,1.83-8.2,2.45-10.95c0.26-1.19,0.47-2.18,0.65-2.98c0.14-0.68,0.19-1.05,0.15-1.06c-0.04-0.01-0.16,0.34-0.37,1
						c-0.23,0.79-0.51,1.76-0.85,2.93c-0.72,2.55-1.67,6.27-2.79,10.88c-2.24,9.22-4.92,22.05-7.7,36.26
						c-2.78,14.2-5.34,27.04-7.38,36.29c-1.01,4.5-1.83,8.2-2.45,10.95c-0.26,1.19-0.47,2.18-0.65,2.98
						C149.45,419.91,149.39,420.27,149.43,420.28z"/>
				</g>
			</g>
		</g>
		<g>
			<g>
				<g>
					<path class="st25" d="M44.1,404.25c0,0.04,0.36,0.12,1.06,0.25c0.83,0.14,1.84,0.3,3.07,0.5c2.83,0.44,6.64,1.02,11.28,1.74
						c9.53,1.47,22.66,3.65,37.17,6.07c14.51,2.43,27.68,4.49,37.24,5.76c4.78,0.64,8.65,1.11,11.33,1.39
						c1.24,0.12,2.26,0.22,3.09,0.3c0.71,0.06,1.08,0.07,1.09,0.03c0-0.04-0.36-0.12-1.06-0.25c-0.82-0.13-1.84-0.3-3.06-0.5
						c-2.83-0.44-6.64-1.02-11.28-1.74c-9.53-1.47-22.66-3.65-37.18-6.08c-14.51-2.43-27.68-4.49-37.24-5.76
						c-4.78-0.64-8.65-1.11-11.34-1.39c-1.24-0.12-2.26-0.22-3.09-0.3C44.47,404.22,44.1,404.21,44.1,404.25z"/>
				</g>
			</g>
		</g>
	</g>
	<g id="freepik--Character--inject-2_4_">
		<path class="st85" d="M320.72,139.63c-3.34,8.06-3.41,24.8,1.92,31.69c2.78,3.6,6.58,6.5,8.54,10.61c2.56,5.39,1.37,12.06-1.97,17
			c-3.34,4.95-8.56,8.38-14.03,10.77c-6.1,2.68-13.54,4.11-19.17,0.54c-4.3-2.71-6.53-7.74-7.87-12.65
			c-3.74-13.74-2.18-28.46,2-42.11c4.17-13.65,10.87-26.35,17.49-38.92"/>
		<path class="st31" d="M337.57,253.33l29.16-17.39c0,0-21.56-42.61-24.86-44.18c-3.3-1.57-47.64-8.57-47.64-8.57
			c-13.73,21.1-30.59,15.68-47.49,1.34c-1.52,0.29-28.41,6.12-35.43,6.96s-27.54,32.8-27.54,32.8l22.48,40.27l1.3,41.5
			c0,0,0.93,29.52-4.06,44.7l121.44,5.21c-1.26-6.34-2.13-12.75-2.59-19.2c-0.4-5.16-1.75-10.32-0.63-16.93
			C325.25,298.83,337.57,253.33,337.57,253.33z"/>
		<path class="st64" d="M198.21,203.89c1.77,6.13,17.15,15.33,22.62,12c1.73-1.06,3.23-2.65,5.22-3.01
			c2.48-0.47,4.85,1.14,7.25,1.97c5.64,1.93,12.92-0.09,16.95,4.29c1.99,2.16,3.23,5.81,6.12,5.75c1.04-0.16,2.06-0.43,3.05-0.81
			c3.28-0.78,6.43,1.76,9.81,2.03c1.77,0.03,3.53-0.24,5.2-0.82l24.3-6.84c1.76-0.5,3.72-1.2,4.49-2.85
			c-2.91,0.88-6.04,0.72-8.85-0.46c-1.49-0.84-3.06-1.53-4.69-2.06c-4.27-0.92-8.2,2.39-12.46,3.39c-4.49,1-9.08-0.71-13.35-2.41
			l-21.88-8.67c-6.03-2.39-12.21-4.87-16.98-9.26c-1.52-1.39-7.3,1.44-9.08,0.44c-2.07-1.43-4.04-3-5.91-4.68
			c-0.37-0.28-3.74,2.69-5.22,4.26C203.33,197.7,198.21,203.89,198.21,203.89z"/>
		<path class="st64" d="M207.61,306.06c5.41-2.22,14.7-5.71,20.46-6.72c4.24-0.88,8.6-1.05,12.9-0.51c2.14,0.33,4.34,0.94,6.42,0.34
			s3.5-2.09,5.33-2.97c5.28-2.53,11.53,0.75,17.31,0.06c1.46-0.08,2.84-0.71,3.86-1.75c1-1.11,0.99-2.81-0.03-3.91
			c-0.68-0.49-1.49-0.76-2.33-0.77c-2.77-0.22-5.54-0.21-8.31,0.01l-4.47,0.24c-1.85,0.2-3.73,0.1-5.55-0.3
			c-1.74-0.64-3.42-1.42-5.03-2.33c-5.93-2.68-12.78-1.58-19.23-0.74c-3.2,0.59-6.48,0.59-9.68,0c-1.06-0.36-2.17-0.57-3.29-0.6
			c-1.89,0.09-3.5,1.47-5.37,1.76c-1.87,0.29-1.94-3.28-3.67-3.75L207.61,306.06z"/>
		<path class="st64" d="M326.4,251.71c-0.67,0.43-1.4,0.73-2.17,0.9c-3.5,0.45-5.59-5.73-8.95-4.64c-1.24,0.42-2.16,1.91-3.53,2.05
			s-2.62-1.41-4.02-2.06c-2.46-1.14-5.28,0.84-8.02,1.03c-3.09,0.2-6.68-1.76-9.02,0.29c-0.91,0.79-1.44,2.14-2.62,2.45
			c-1.18,0.31-2.17-0.5-3.27-0.85c-3.35-1.04-6.46,2.17-9.92,2.73c-3.94,0.64-8.63-2.07-11.61,0.53c-1.07,0.92-1.73,2.45-3.09,2.8
			c-1.36,0.34-2.57-0.45-3.88-0.47c-3.02-0.03-5.83,3.92-8.36,2.26c0.42,1.45,1.71,2.47,3.21,2.57c1.46,0.08,2.93-0.03,4.37-0.33
			c8.55-0.96,17.17,4.69,25.48,2.44c2.29-0.62,4.44-1.83,6.81-1.98c4.43-0.28,8.4,3.2,12.82,3.09c3.45-0.1,6.68-2.4,10.11-1.95
			c3.43,0.46,6.05,3.56,9.24,5.12c3.83,1.87,8.33,1.38,12.56,0.86l1.24-0.27c2.05-5.42,3.53-11.03,4.41-16.75
			C334.44,249.75,330.09,249.82,326.4,251.71z"/>
		<path class="st64" d="M315.68,325.58c-1.68,0.16-3.29,0.79-4.63,1.82c-1.34,1.03-3,1.58-4.69,1.56c-3.04-0.35-5.72-4.11-8.39-2.63
			c-0.67,0.5-1.3,1.06-1.88,1.66c-1.87,1.5-4.82,1.05-6.6,2.65c-0.92,0.82-1.43,2.12-2.56,2.64c-2.12,0.97-4.1-1.5-6.23-2.48
			c-3.32-1.53-7.14,0.75-10.8,0.64c-1.85-0.02-3.81-0.72-5.5,0.03c-0.87,0.51-1.71,1.09-2.49,1.73c-2.81,1.84-6.56,0.93-9.68-0.35
			c-3.11-1.28-6.36-2.88-9.67-2.26c-0.92,0.18-1.96,0.73-1.95,1.67c0.02,0.36,0.15,0.71,0.36,1.01c1.92,3.23,5.64,4.93,9.25,6.02
			c3.96,1.19,8.14,1.9,11.65,4.09c2.22,1.37,4.55,3.41,7.08,2.74c2.01-0.52,3.25-2.59,5.19-3.31c2.73-1.02,5.94,0.91,8.66-0.18
			c0.91-0.36,1.67-1.05,2.59-1.37c2.39-0.84,5.03,0.93,7.51,0.4c0.85-0.33,1.73-0.55,2.63-0.66c2.36,0.02,3.86,3.29,6.15,3.01
			c1.44-0.18,2.43-1.69,3.86-1.94c1.89-0.34,4.01,1.6,5.56,0.45c0.35-0.26,0.63-0.67,1.07-0.71c0.45-0.03,0.97,0.62,1.32,1.11
			c1.65,2.22,6.75,0.85,9.33-0.13l-1.51-14.85C321.41,326.07,317.37,325.6,315.68,325.58z"/>
		<g class="st3">
			<path d="M212.77,204.56c-2.37,7.24-3.36,15.2-1.15,22.49c1.18,3.33,2.56,6.58,4.14,9.74c4.9,11.06,6.9,23.19,5.81,35.24
				c-0.1,0.42-0.05,0.85,0.14,1.24c0.47,0.81,1.7,0.52,2.56,0.15l5.5-2.42c2.35,1.95,2.67,5.78,5.28,7.36s6.27-0.12,8.91-2
				c5.79-4.16,11.29-8.99,14.7-15.26c2.16-4.39,3.77-9.04,4.8-13.82c1.07-4.18,2.15-8.36,2.84-12.62
				c2.68-16.88-0.81-34.17-9.83-48.69"/>
		</g>
		<path class="st59" d="M328.78,212.24c0.12,0.2,0.2,0.42,0.25,0.65c0.17,0.51,0.38,1.13,0.64,1.9c0.54,1.74,1.28,4.12,2.19,7.01
			c0.91,2.89,1.98,6.52,3.18,10.42c1.35,4.26,2.34,8.62,2.98,13.04c0.48,4.46,0.21,8.97-0.79,13.34c-0.8,3.56-1.88,7.05-3.22,10.44
			c-1.12,2.89-2.13,5.19-2.84,6.78c-0.34,0.72-0.62,1.32-0.83,1.81c-0.09,0.22-0.2,0.43-0.34,0.61c0.04-0.23,0.11-0.45,0.22-0.67
			l0.72-1.86c0.65-1.61,1.59-3.94,2.65-6.83c1.26-3.39,2.29-6.87,3.06-10.4c0.95-4.32,1.2-8.76,0.73-13.16
			c-0.63-4.38-1.6-8.71-2.91-12.94c-1.2-3.92-2.17-7.44-3.04-10.45c-0.87-3.01-1.5-5.31-1.99-7.07l-0.52-1.93
			C328.84,212.71,328.8,212.48,328.78,212.24z"/>
		<g class="st3">
			<path d="M339.1,248.94c1.8-5.95,1.66-12.33-0.42-18.19c-2.07-5.82-4.9-11.34-8.42-16.42c1.58,11.71,6.82,22.77,7.76,34.56"/>
		</g>
		<g class="st3">
			<path d="M239.63,322.81c5.3-6.94,12.36-12.32,20.45-15.59c8.06-3.24,16.53-5.37,25.16-6.33c3.4-0.46,7.1-0.77,10.07,0.98
				c2.96,1.75,4.32,6.42,1.7,8.67c-1.44,0.98-3.16,1.48-4.9,1.41c-11.9,0.74-24.46,0.65-34.81,6.6c-4.09,2.34-7.74,5.59-12.24,6.99
				c-2.05,0.63-5.06,0.23-5.25-1.9"/>
		</g>
		<path class="st59" d="M300.5,299.46c-0.24,0.02-0.48,0.02-0.72-0.01l-2.05-0.02l-1.5-0.02l-1.76,0.09
			c-1.24,0.09-2.71,0.12-4.29,0.34l-2.48,0.28c-0.87,0.11-1.75,0.29-2.67,0.44c-1.86,0.28-3.8,0.76-5.86,1.18
			c-4.43,1.15-8.77,2.6-12.99,4.35c-4.21,1.79-8.31,3.84-12.27,6.14c-1.82,1.08-3.55,2.1-5.09,3.16c-1.54,1.06-3.01,2.01-4.32,2.93
			c-1.31,0.93-2.49,1.8-3.46,2.56c-0.97,0.76-1.88,1.44-2.57,2l-1.62,1.22c-0.18,0.16-0.38,0.29-0.6,0.4
			c0.15-0.18,0.33-0.35,0.51-0.5l1.53-1.37c0.67-0.6,1.51-1.31,2.49-2.09c0.98-0.78,2.11-1.72,3.41-2.65c1.31-0.93,2.7-2,4.28-3.02
			c1.58-1.02,3.29-2.12,5.09-3.22c3.96-2.34,8.08-4.42,12.32-6.23c4.25-1.77,8.63-3.21,13.1-4.33c2.08-0.45,4.04-0.93,5.91-1.17
			c0.94-0.14,1.83-0.31,2.7-0.42l2.47-0.23c1.6-0.19,3.04-0.2,4.32-0.25c0.64,0.01,1.24-0.05,1.78-0.04l1.5,0.02l2.06,0.1
			C300.01,299.18,300.27,299.3,300.5,299.46z"/>
		<g class="st3">
			<path d="M200.92,232.59c-3.2,4.33-3.62,10.21-2.37,15.44c1.24,5.23,3.95,9.93,6.65,14.63c0.42-4.63,0.11-9.3-0.92-13.83
				c-1.24-5.43-3.51-10.72-3.44-16.29"/>
		</g>
		<path class="st85" d="M290.7,66.37c0.12-3.94,4.64-6.69,8.53-5.98c3.89,0.71,6.89,3.89,8.68,7.41c1.78,3.52,2.62,7.44,3.95,11.17
			c3.61,9.93,10.8,18.52,13.3,28.83c1.61,7.32,1.3,14.93-0.9,22.09c-2.19,7.12-5.18,13.96-8.9,20.4c-2.32,3.87-4.29,7.94-5.87,12.17
			c-1.59,4.26-1.78,8.92-0.55,13.3c0.27,0.55,0.33,1.19,0.15,1.78c-0.39,0.84-1.59,0.86-2.48,0.62c-4.52-1.21-7.62-5.7-8.35-10.34
			c-0.73-4.63,0.51-9.34,2.21-13.71s3.87-8.61,5.14-13.06c2.77-9.86,1.03-20.36,0.66-30.61c-0.2-5.78,0.05-11.61-1.06-17.32
			c-1.1-5.71-3.73-11.34-8.5-14.61c-1.85-1.26-3.99-2.19-5.55-3.77c-1.55-1.57-2.32-4.36-0.88-6.1"/>
		<path class="st65" d="M293.58,181.06c0,0-0.07-5.98-0.07-5.92s17.75-3.19,21.12-26.43c1.68-11.55,0.85-30.46-0.33-45.9
			c-1.09-13.91-10.51-30.87-24.36-29.22L246.78,85.1c-4.2,0.5-5.62,4.08-5.48,8.32l-0.33,1.99l2.89,66.4l1.12,11.14
			c0.5,12.63,11.32,26.08,24.84,26.57l0,0C282.88,200.3,293.61,195.03,293.58,181.06z"/>
		<path class="st76" d="M293.5,175.14c-10.92,0.31-21.71-2.42-31.17-7.88c0,0,8.05,16.28,31.24,13.8L293.5,175.14z"/>
		<path class="st85" d="M295.22,74.02c-0.28,2.36,0.62,4.71,2.41,6.28c1.79,1.52,3.73,2.86,5.78,3.99
			c6.14,3.92,9.11,12.38,11.93,19.1c5.19-9.65-2.5-22.28-8.9-29.95c-1.09-1.43-2.45-2.64-3.99-3.55c-1.58-0.91-3.5-1.05-5.19-0.36"
			/>
		<path class="st109" d="M314.9,151.62c0.07-0.29,0.16-0.58,0.28-0.86l0.91-2.39c0.73-2.11,1.8-5.15,2.76-9.01
			c2.52-10.09,3.2-20.55,2.01-30.88c-0.59-5.67-1.88-11.24-3.83-16.59c-1.58-4.37-4.19-8.31-7.61-11.46
			c-2.32-2.11-5.09-3.67-8.1-4.56c-2.13-0.58-3.38-0.59-3.38-0.67c0.3-0.03,0.6-0.03,0.9,0.01c0.86,0.07,1.71,0.22,2.54,0.42
			c3.09,0.81,5.95,2.33,8.34,4.45c3.52,3.17,6.22,7.15,7.87,11.59c2.01,5.39,3.33,11.02,3.92,16.74c1.2,10.38,0.45,20.9-2.21,31.01
			c-0.83,3.05-1.82,6.05-2.97,8.99c-0.43,1.02-0.79,1.82-1.03,2.35C315.2,151.06,315.07,151.35,314.9,151.62z"/>
		<path class="st109" d="M316.82,168.33c-0.05-0.08-0.09-0.18-0.11-0.27l-0.26-0.83c-0.28-1.07-0.45-2.16-0.5-3.27
			c-0.04-4.1,0.95-8.15,2.9-11.76c2.24-4.69,6.28-9.37,10.17-14.88c2.07-2.85,3.73-5.98,4.94-9.28c1.2-3.57,1.69-7.35,1.43-11.11
			c-0.25-3.77-1.25-7.46-2.94-10.84c-1.66-3.12-3.71-6.01-6.09-8.62c-4.47-4.99-8.98-9.27-11.91-13.54
			c-2.46-3.27-4.17-7.03-5.03-11.03c-0.31-1.46-0.39-2.97-0.24-4.45c0.05,1.48,0.21,2.95,0.49,4.41c0.94,3.93,2.69,7.62,5.15,10.82
			c2.95,4.18,7.44,8.34,11.99,13.4c2.42,2.63,4.49,5.56,6.18,8.72c1.73,3.45,2.76,7.22,3.01,11.07c0.26,3.85-0.23,7.72-1.47,11.38
			c-1.24,3.36-2.93,6.53-5.04,9.42c-3.95,5.53-7.99,10.15-10.25,14.73c-1.96,3.53-3.01,7.5-3.05,11.54
			C316.24,165.42,316.45,166.89,316.82,168.33z"/>
		<path class="st85" d="M291.62,61.82c-3.94-2.85-9.05-3.54-13.91-3.52c-13.1,0.05-26.46,4.92-35.32,14.57
			c-7.5,8.13-18.56,23.81-20.73,34.62c-5.31,26.34,11.29,33.9-2.72,74.96c-2.55,7.39-5.69,14.63-7.28,22.28
			c-0.57,2.73-0.85,5.51-0.84,8.3c-1.64,4.8-0.73,10.38,1.19,15.19c2.25,5.66,5.72,10.77,7.88,16.46c2.15,5.7,6.93,15.06,3.62,20.18
			c4.6-1.19,4.81-5.97,8.47-8.99c1.03,4.11,0.95,8.42-0.23,12.48c5.7-0.34,11.14-2.54,15.47-6.27c8.56-7.33,11.33-19.35,12.77-30.56
			c3.1-24.51,0.56-48.07-5.69-71.97l-0.09,0.11c-4.58-15.29-13.39-29.45-5.31-32.73c14.08-5.7,1.36-11.99,6.83-26.67
			c1.72-4.58,3.62-9.43,7.55-12.28c4.71-3.44,11.02-3.19,16.85-3.45c5.83-0.26,12.44-1.73,15.23-6.84l0.39-3.07
			C297.87,70.23,295.56,64.68,291.62,61.82z"/>
		<path class="st109" d="M227.39,158.73c0.39-0.29,0.74-0.64,1.04-1.03c0.72-1.21,1.01-2.64,0.82-4.03
			c-0.36-3.65-2.15-8.68-4.49-14.88c-1.33-3.36-2.34-6.84-3.02-10.39c-1.77-8.9,1.99-17.98,9.54-23.02c3.99-2.8,9.37-3.18,12.71-7
			c3.34-3.82,5.03-8.43,6.51-12.89c0.72-2.23,1.57-4.42,2.54-6.55c0.98-2.03,2.16-3.96,3.52-5.76c2.52-3.33,5.63-6.16,9.19-8.35
			c1.6-1.04,3.33-1.85,5.14-2.42c1.69-0.49,3.45-0.68,5.2-0.56c2.98,0.28,5.89,1.03,8.63,2.24c2.46,1.03,4.48,1.93,6.15,2.83
			c1.27,0.67,2.37,1.62,3.22,2.78c0.29,0.41,0.51,0.86,0.64,1.34c-0.23-0.43-0.48-0.84-0.75-1.24c-0.87-1.1-1.98-2-3.24-2.63
			c-1.62-0.86-3.69-1.73-6.15-2.72c-2.71-1.14-5.59-1.84-8.52-2.08c-1.7-0.11-3.41,0.09-5.04,0.58c-1.75,0.57-3.42,1.35-4.97,2.35
			c-5.38,3.36-9.68,8.18-12.42,13.9c-0.97,2.11-1.82,4.28-2.54,6.49c-1.5,4.45-3.08,9.34-6.64,13.12c-1.77,1.83-3.95,3.21-6.35,4.05
			c-2.27,0.77-4.44,1.79-6.47,3.05c-3.76,2.53-6.66,6.14-8.32,10.36c-1.46,3.84-1.84,8.01-1.1,12.05c0.66,3.53,1.64,6.98,2.93,10.33
			c2.28,6.2,4.02,11.28,4.31,15.02c0.17,1.44-0.17,2.9-0.97,4.12c-0.23,0.3-0.5,0.56-0.8,0.77L227.39,158.73z"/>
		<path class="st65" d="M248.17,128.96c-0.31-4.95-5.71-8.17-9.97-5.65c-2.34,1.38-4.1,4.14-3.81,9.38
			c0.73,13.96,14.6,10.35,14.61,9.94S248.47,134.76,248.17,128.96z"/>
		<path class="st76" d="M244.37,137.56c0,0-0.24,0.18-0.63,0.39c-0.57,0.28-1.22,0.33-1.82,0.14c-1.5-0.47-2.86-2.75-3.06-5.26
			c-0.1-1.19,0.07-2.4,0.49-3.52c0.22-0.9,0.87-1.64,1.74-1.96c0.57-0.18,1.18,0.06,1.47,0.58c0.21,0.39,0.13,0.67,0.22,0.69
			c0.09,0.03,0.29-0.26,0.14-0.83c-0.1-0.34-0.31-0.64-0.6-0.85c-0.4-0.27-0.89-0.37-1.37-0.29c-1.15,0.29-2.07,1.16-2.42,2.3
			c-0.54,1.24-0.76,2.59-0.65,3.94c0.24,2.81,1.82,5.37,3.87,5.85c0.77,0.18,1.58,0,2.21-0.48
			C244.37,137.91,244.43,137.59,244.37,137.56z"/>
		<path class="st6" d="M249.61,147.14c0,0,0.1,0.27-0.01,0.77c-0.21,0.7-0.65,1.3-1.25,1.71c-0.93,0.6-2.09,0.72-3.13,0.33
			c-1.26-0.47-2.26-1.47-2.73-2.74c-0.82-2.28-0.32-4.82,1.3-6.61c0.61-0.78,1.51-1.27,2.49-1.36c-0.81,0.42-1.54,0.98-2.14,1.66
			c-0.61,0.76-1.05,1.65-1.26,2.61c-0.26,1.15-0.18,2.36,0.22,3.46c0.39,1.1,1.24,1.98,2.32,2.42c0.87,0.36,1.86,0.31,2.68-0.16
			c0.55-0.33,0.98-0.82,1.25-1.4C249.52,147.41,249.55,147.14,249.61,147.14z"/>
		<path class="st109" d="M292.48,76.12c-0.89-0.93-1.87-1.77-2.93-2.5c-3.03-1.83-6.57-2.62-10.09-2.23c-2.42,0.21-4.77,0.9-6.93,2
			c-2.46,1.31-4.69,3.01-6.62,5.02c-2.13,2.25-4.02,4.72-5.65,7.36c-1.72,2.71-3.3,5.66-4.92,8.69c-1.53,2.97-3.21,5.86-5.03,8.66
			c-1.73,2.61-3.75,5.02-6.01,7.18c-2.15,2.07-4.29,3.91-6.13,5.8c-1.75,1.69-3.26,3.61-4.48,5.7c-1.81,3.04-2.48,6.64-1.89,10.13
			c0.3,1.26,0.81,2.46,1.5,3.55c-0.22-0.26-0.43-0.53-0.61-0.81c-0.51-0.83-0.89-1.73-1.12-2.68c-0.72-3.56-0.11-7.26,1.72-10.4
			c1.22-2.15,2.74-4.13,4.51-5.86c1.84-1.92,3.97-3.78,6.09-5.85c2.22-2.15,4.2-4.53,5.91-7.11c1.8-2.68,3.41-5.6,5.03-8.6
			c1.63-3,3.2-5.99,4.96-8.73c1.65-2.65,3.58-5.11,5.75-7.36c1.98-2.05,4.28-3.77,6.8-5.08c2.23-1.11,4.65-1.79,7.13-1.99
			c3.61-0.35,7.23,0.52,10.27,2.48c0.8,0.56,1.53,1.21,2.17,1.94C292.11,75.65,292.31,75.88,292.48,76.12z"/>
		<path class="st65" d="M185.73,226.12l2.73-12.51l-23.77-11.14l-0.64,2.03c-3.53,11.32-21.11,65.89-22.19,69.97
			c-3.99,15.15-3.45,45.22,2.55,50.91c4.8,4.55,14.07,7.96,20.23,7.34c6.16-0.62,23.36-22.28,23.36-22.28l16.08-49.7L185.73,226.12z
			"/>
		<path class="st76" d="M186.86,218.68c-0.01,0.32-0.05,0.65-0.12,0.96c-0.13,0.69-0.29,1.6-0.5,2.76
			c-0.46,2.47-1.12,5.89-1.92,10.1c-0.8,4.22-1.77,9.35-2.63,15.03c-0.94,6.13-1.48,12.32-1.63,18.53
			c-0.12,6.22,0.52,12.43,1.9,18.49c1.29,5.56,2.47,10.69,2.32,15.11c-0.02,3.46-0.94,6.86-2.67,9.86
			c-0.62,1.11-1.45,2.09-2.43,2.89c3.18-3.49,4.85-8.1,4.65-12.82c0.12-4.33-1.14-9.38-2.43-14.96c-1.41-6.1-2.07-12.36-1.96-18.63
			c0.14-6.24,0.7-12.47,1.69-18.64c0.86-5.69,1.87-10.77,2.74-15.03c0.87-4.26,1.61-7.62,2.12-10.07c0.26-1.15,0.47-2.05,0.61-2.74
			C186.67,219.25,186.75,218.96,186.86,218.68z"/>
		<path class="st65" d="M211.81,193.13l-4.57-5.17l0.06-6.08l-4.72-6.95l-9.58,1.43l-2.93,0.22l2.12-13.97
			c1.13-3.57,2.61-7.02,4.41-10.3c3.48-6.79-1.97-9.97-1.97-9.97l-10.45,17.84l-3.54,11.89l-1.36-9.74c0,0,1.83-9.45,1.63-14.32
			c-0.2-4.87-5.09-4.22-5.09-4.22l-4.13,21.38l-0.11,10.72l-3.33-6.36c0,0-0.67-5.37-1.13-10.25c-0.46-4.88-4.34-3.46-4.34-3.46
			l-0.16,15.83l4.22,14.66c0,0-3.08,18.82-3.57,19.54l22.37,16.03c0,0,4.98-3.66,5.94-3.91c0.95-0.25,13.25-9.12,13.25-9.12
			l8.61-8.92c0,0,1.47-0.95,1.48-1.93C214.94,197.03,211.81,193.13,211.81,193.13z M200.07,198.85l-4.85-2.25l-2.61-6.6l2.03-3.58
			l0.71-1.23l0.9-0.61l3.24,0.65c0,0,1.41,4.65,1.17,6.84s2.64,4.42,2.64,4.42L200.07,198.85z"/>
		<path class="st76" d="M196.24,184.55c0,0.07-0.45,0.12-1.11-0.1c-0.87-0.31-1.63-0.86-2.21-1.58c-0.59-0.71-0.95-1.57-1.06-2.48
			c-0.07-0.69,0.01-1.12,0.14-1.11c0.39,2.39,2,4.4,4.25,5.29L196.24,184.55z"/>
		<path class="st76" d="M208.64,197.3c-0.07-2.37,0.07-4.74,0.4-7.09c0.36,1.16,0.46,2.38,0.3,3.58
			C209.38,194.99,209.14,196.2,208.64,197.3z"/>
		<path class="st76" d="M201.03,206.43c0,0-0.61-0.4-1.3-1.35c-0.94-1.26-1.36-2.84-1.19-4.4c0.08-0.48,0.29-0.93,0.61-1.29
			c0.29-0.31,0.59-0.59,0.87-0.84c0.51-0.44,1.04-0.84,1.6-1.22c0.95-0.66,1.62-0.95,1.67-0.85c-0.43,0.44-0.9,0.85-1.38,1.22
			c-0.44,0.37-0.94,0.81-1.47,1.32c-0.26,0.26-0.54,0.54-0.8,0.83c-0.24,0.28-0.39,0.62-0.46,0.98c-0.11,0.76-0.03,1.54,0.21,2.26
			c0.18,0.62,0.43,1.22,0.76,1.78C200.68,205.8,201.12,206.37,201.03,206.43z"/>
		<path class="st76" d="M207.26,187.35c0.07,1.81-0.53,3.59-1.67,5c-0.43,0.59-1.01,1.06-1.67,1.38c-0.57,0.24-1.2,0.29-1.79,0.14
			c-1.05-0.27-1.31-0.99-1.23-1c0.09-0.01,0.45,0.45,1.32,0.56c0.5,0.07,1.01-0.02,1.46-0.24c0.56-0.29,1.04-0.71,1.41-1.22
			C205.99,190.51,206.72,188.96,207.26,187.35z"/>
		<path class="st76" d="M200.65,191.69c-0.15,0-0.48-2.16-1.19-4.8c-0.27-1.14-0.47-2.3-0.61-3.47c-0.08-0.9,0.02-1.47,0.02-1.47
			s0.19,0.53,0.38,1.4c0.27,1.24,0.52,2.27,0.78,3.4C200.8,189.4,200.86,191.69,200.65,191.69z"/>
		<path class="st76" d="M208.63,198.76c-1.98-0.18-3.87-0.87-5.49-2.01c-0.68-0.41-1.28-0.93-1.79-1.54
			c-0.4-0.52-0.67-1.13-0.8-1.78c-0.18-0.57-0.14-1.19,0.1-1.74c0.11,0-0.01,0.67,0.33,1.64c0.43,1.23,1.3,2.25,2.44,2.87
			C206.14,197.93,208.69,198.55,208.63,198.76z"/>
		<path class="st76" d="M188.5,203.96c-1.45-2.48-3.24-4.73-5.32-6.71c-2.24-1.81-4.72-3.3-7.37-4.42c0.86,0.07,1.69,0.29,2.47,0.67
			c3.89,1.59,7.13,4.43,9.2,8.08C187.96,202.31,188.31,203.11,188.5,203.96z"/>
		<path class="st76" d="M180.57,181.15c0,0.19-1.78,0.32-3.86,1.02s-3.58,1.64-3.72,1.49c2-1.94,4.78-2.86,7.54-2.52L180.57,181.15z
			"/>
		<path class="st72" d="M216.89,453.01c0,0-72.43,19.24-75.34,20.23c-4.37,1.49-3.8,17.44,2.97,17.26
			c3.2-0.09,55.44,2.52,62.06,2.18c6.62-0.34,24.45-7.16,24.45-7.16L216.89,453.01z"/>
		<path class="st59" d="M186.52,480.26c-0.37,0-0.81-3.78-3.11-7.78c-2.29-4-5.26-6.41-5.04-6.7s3.69,1.79,6.12,6.11
			S186.81,480.27,186.52,480.26z"/>
		<path class="st59" d="M194.08,476.92c-0.36,0-1.05-3.36-2.93-7.15c-1.88-3.79-4.14-6.46-3.87-6.7c0.26-0.24,3.01,2.16,4.95,6.17
			C194.18,473.25,194.39,476.9,194.08,476.92z"/>
		<path class="st59" d="M201.16,475.1c-0.36,0-0.05-3.64-1.6-7.64c-1.55-4.01-4.12-6.53-3.87-6.8c0.25-0.27,3.37,2,5,6.37
			S201.45,475.2,201.16,475.1z"/>
		<path class="st59" d="M199.98,465.75c-0.14,0-0.76-1.99-0.72-5.37c0.03-1.99,0.3-3.96,0.79-5.89c0.29-1.14,0.66-2.25,1.11-3.34
			c0.23-0.68,0.64-1.28,1.18-1.76c0.75-0.57,1.8-0.5,2.47,0.15c0.56,0.54,0.9,1.27,0.94,2.05c0.07,0.63,0.09,1.27,0.08,1.9
			c-0.04,1.19-0.2,2.37-0.48,3.53c-0.5,1.93-1.27,3.78-2.28,5.5c-1.71,2.91-3.19,4.39-3.3,4.32c-0.11-0.08,1.07-1.79,2.52-4.72
			c0.86-1.7,1.51-3.49,1.95-5.34c0.24-1.08,0.37-2.19,0.38-3.3c0.01-1.11,0.03-2.47-0.64-3.05c-0.24-0.28-0.66-0.31-0.95-0.08
			c-0.37,0.34-0.64,0.76-0.8,1.23c-0.44,1.03-0.82,2.1-1.13,3.18c-0.52,1.84-0.86,3.72-1.01,5.63
			C199.87,463.69,200.17,465.73,199.98,465.75z"/>
		<path class="st59" d="M200.07,465.03c0-0.14,1.71-0.71,4.67-0.71c1.73,0.02,3.44,0.24,5.11,0.68c1.03,0.23,2.02,0.61,2.94,1.12
			c1.22,0.62,1.87,1.98,1.6,3.32c-0.35,1.26-1.35,2.24-2.62,2.54c-1.07,0.26-2.19,0.24-3.25-0.03c-1.7-0.45-3.29-1.25-4.66-2.36
			c-1.3-0.9-2.43-2.03-3.33-3.34c0.14-0.16,1.49,1.04,3.82,2.64c1.33,0.94,2.83,1.6,4.42,1.96c0.88,0.23,1.8,0.24,2.68,0.03
			c0.85-0.21,1.52-0.85,1.77-1.69c0.16-0.84-0.28-1.67-1.05-2.03c-0.82-0.46-1.7-0.82-2.61-1.05c-1.59-0.46-3.22-0.76-4.86-0.9
			C201.88,464.95,200.1,465.22,200.07,465.03z"/>
		<path class="st59" d="M175.41,480.92c-0.36,0,0.03-3.13-1.35-6.53c-1.39-3.4-3.65-5.42-3.48-5.7c0.18-0.28,3.12,1.45,4.59,5.25
			C176.64,477.74,175.7,481.04,175.41,480.92z"/>
		<path class="st59" d="M225.77,484.78c-0.89,0.51-1.83,0.94-2.81,1.28c-2.63,0.98-5.32,1.78-8.06,2.39
			c-6.93,1.67-16.79,2.56-27.6,2.33s-20.57-0.83-27.64-1.19l-8.36-0.53c-1.03-0.01-2.06-0.13-3.06-0.35
			c1.02-0.15,2.05-0.19,3.08-0.12l8.38,0.09l27.62,0.83c9.2,0.35,18.4-0.28,27.46-1.88C221.64,486.28,225.68,484.54,225.77,484.78z"
			/>
		<path class="st59" d="M227.89,486.44c-0.1,0.16-2.07-1.01-5.39-2.53c-4.24-2.06-8.96-2.89-13.65-2.4
			c-5.45,0.77-9.34,4.39-11.88,6.9c-2.54,2.51-4.06,4.33-4.21,4.21c0.97-1.77,2.18-3.39,3.59-4.83c1.43-1.66,3.05-3.14,4.83-4.42
			c2.2-1.61,4.76-2.66,7.45-3.09c4.91-0.55,9.87,0.45,14.19,2.84C224.67,483.95,226.39,485.07,227.89,486.44z"/>
		<path class="st59" d="M155.42,488.8c-0.12-0.09,0.51-1.03,1.09-2.71c0.76-2.17,0.97-4.51,0.6-6.78c-0.41-2.28-1.4-4.42-2.87-6.21
			c-1.11-1.38-2.02-2.07-1.93-2.2c0.09-0.12,1.13,0.39,2.45,1.73c3.52,3.65,4.45,9.08,2.33,13.68
			C156.33,488.06,155.48,488.88,155.42,488.8z"/>
		<path class="st110" d="M210.92,350.92l-13.31,31.79c0,0-64.25-24.27-102.08-17.79c-14.38,2.47-30.03,34.88-9.38,56.01
			c20.2,20.62,56.35,49.85,124.76,59.89c1.7,0.25,29.69,6.56,27.96,6.34c-1.73-0.23,39.25,6.7,39.25,6.7l10.02-36.33l76.4,12.83
			c45.1-2.61,67.65-50.58,40.68-66.33c-25.16-14.74-72.77-16.38-72.77-16.38l-11.35-32L210.92,350.92z"/>
		<path class="st111" d="M279.62,495.25c0.22-1.23,0.79-4.54,1.98-11.33c0.64-3.7,1.44-8.06,2.46-13.14
			c0.51-2.54,1.08-5.26,1.75-8.1c0.34-1.43,0.71-2.89,1.15-4.38c0.22-0.74,0.45-1.49,0.73-2.24c0.25-0.81,0.66-1.57,1.19-2.24
			l0.11,0.56c-16.22-5.94-36.49-13.79-58.08-23.16c-13.27-5.81-25.84-11.67-36.8-17.75c-5.25-2.81-10.29-6-15.07-9.56
			c-4.46-3.37-8.44-6.73-12.16-9.66c-7.36-5.95-14.09-9.81-19.12-11.47c-1.1-0.41-2.22-0.76-3.36-1.04
			c-0.81-0.24-1.63-0.43-2.47-0.57l-1.57-0.3c-0.18-0.02-0.36-0.07-0.53-0.13c0.18-0.02,0.36-0.02,0.54,0.01l1.58,0.21
			c0.86,0.11,1.71,0.27,2.54,0.5c1.15,0.25,2.29,0.57,3.4,0.96c3.07,1.03,6.02,2.38,8.81,4.04c3.68,2.19,7.21,4.62,10.57,7.29
			c3.75,2.91,7.75,6.26,12.26,9.57c4.77,3.51,9.79,6.66,15.02,9.44c11,6.02,23.51,11.85,36.77,17.69
			c21.57,9.36,41.85,17.26,57.98,23.3l0.44,0.17l-0.34,0.38c-0.45,0.6-0.79,1.27-1.02,1.98c-0.28,0.73-0.51,1.47-0.73,2.19
			c-0.45,1.47-0.82,2.92-1.17,4.34c-0.7,2.84-1.29,5.54-1.81,8.07c-1.07,5.07-1.92,9.49-2.61,13.1c-0.69,3.61-1.3,6.39-1.64,8.35
			c-0.21,0.96-0.36,1.69-0.49,2.18C279.85,494.76,279.74,495.01,279.62,495.25z"/>
		<path class="st111" d="M390.28,408.21c-0.14,0.02-0.28,0.01-0.42,0l-1.23-0.21c-1.05-0.15-2.57-0.56-4.57-0.76
			c-5.61-0.8-11.29-1.06-16.95-0.78c-8.4,0.45-16.73,1.74-24.88,3.85c-4.6,1.19-9.38,2.57-14.29,4.22s-9.93,3.53-15.02,5.52
			c-5.01,1.92-10.12,3.55-15.32,4.87c-4.96,1.33-9.91,2.37-14.61,3.21c-9.38,1.73-17.89,2.77-25.05,3.56s-12.96,1.32-16.97,1.69
			l-4.62,0.41l-1.24,0.09c-0.27,0-0.41,0-0.41,0c0.13-0.04,0.26-0.07,0.4-0.08l1.24-0.16l4.59-0.56l16.93-1.95
			c7.14-0.88,15.65-1.96,24.97-3.73c4.67-0.87,9.55-1.92,14.55-3.25c5.16-1.33,10.24-2.95,15.22-4.86
			c5.11-1.97,10.14-3.88,15.07-5.52c4.92-1.64,9.74-3.01,14.36-4.19c8.2-2.08,16.59-3.32,25.03-3.68c5.7-0.23,11.4,0.12,17.02,1.04
			c2,0.27,3.5,0.73,4.55,0.93l1.23,0.28C390.03,408.13,390.15,408.16,390.28,408.21z"/>
		<path class="st111" d="M272.61,393.92c-0.01,0.54-3.44,1.37-9.18,1.85c-14.99,1.06-30.05-0.71-44.39-5.22
			c-5.46-1.79-8.62-3.42-8.49-3.93c0.38-1.15,13.88,2.62,30.92,4.55C258.52,393.09,272.5,392.72,272.61,393.92z"/>
		<path class="st111" d="M333.11,388.14c-0.81,0.29-1.64,0.51-2.48,0.65c-0.83,0.16-1.82,0.4-2.96,0.74
			c-1.14,0.33-2.48,0.65-3.87,1.2c-3.33,1.08-6.61,2.33-9.81,3.77c-3.6,1.66-7.46,3.63-11.42,5.95c-6.71,4-13.15,8.43-19.29,13.26
			c-2.36,1.84-4.25,3.37-5.55,4.44c-0.65,0.58-1.34,1.12-2.08,1.59c0.57-0.66,1.2-1.28,1.87-1.83c1.25-1.14,3.07-2.74,5.4-4.64
			c6.05-4.99,12.48-9.51,19.23-13.52c3.73-2.18,7.58-4.16,11.52-5.93c3.23-1.41,6.55-2.61,9.93-3.61c1.44-0.45,2.76-0.76,3.94-1.03
			c0.99-0.25,1.99-0.46,3-0.61C331.39,388.36,332.25,388.22,333.11,388.14z"/>
		<path class="st111" d="M261.09,419.54c-1.55-0.26-3.07-0.71-4.51-1.34c-3.53-1.39-6.97-2.99-10.31-4.78l-9.97-5.36
			c-1.42-0.66-2.79-1.43-4.11-2.28c1.51,0.43,2.97,1.02,4.36,1.76c2.63,1.26,6.15,3.09,10.1,5.15c3.95,2.06,7.5,3.79,10.15,4.98
			C258.25,418.21,259.69,418.84,261.09,419.54z"/>
		<path class="st111" d="M268.74,353.4c0.12,0-0.12,2.94-0.41,7.67s-0.57,11.27-0.54,18.54c0.04,7.27,0.39,13.76,0.74,18.48
			s0.61,7.63,0.49,7.66c-0.2-0.65-0.32-1.33-0.39-2.01c-0.21-1.31-0.44-3.21-0.68-5.57c-0.49-4.72-0.93-11.28-0.97-18.55
			c-0.04-7.27,0.33-13.84,0.77-18.54c0.22-2.37,0.44-4.27,0.63-5.58C268.43,354.79,268.55,354.09,268.74,353.4z"/>
		<path class="st111" d="M275.8,366.01c0,0.07-0.27,0.26-0.67,0.71c-0.56,0.66-0.92,1.47-1.04,2.33c-0.2,1.24,0.15,2.51,0.95,3.47
			c1.67,1.51,4.25,1.39,5.76-0.28c0.54-0.59,0.89-1.33,1.01-2.12c0-1.26-0.53-2.46-1.47-3.29c-0.63-0.59-1.42-0.98-2.28-1.14
			c-0.6-0.09-0.96-0.01-0.98-0.11c-0.01-0.1,0.34-0.21,1-0.21c0.96,0.05,1.88,0.41,2.62,1.02c1.15,0.9,1.83,2.27,1.85,3.73
			c-0.27,2.62-2.62,4.52-5.24,4.25c-1.07-0.11-2.08-0.59-2.85-1.34c-0.92-1.14-1.28-2.64-0.96-4.08c0.18-0.95,0.66-1.81,1.37-2.46
			C275.14,366.24,275.45,366.08,275.8,366.01z"/>
		<path class="st72" d="M288.59,456.6c0,0,73.18,11.89,76.14,12.6c4.44,1.04,5.44,16.8-1.26,17.29c-3.15,0.23-54.35,7.87-60.89,8.17
			c-6.54,0.3-26.97-5.23-26.97-5.23L288.59,456.6z"/>
		<path class="st59" d="M321.16,480.43c0.37,0,0.44-3.8,2.3-7.97c1.86-4.17,4.57-6.83,4.31-7.08c-0.26-0.25-3.46,2.12-5.41,6.59
			S320.84,480.52,321.16,480.43z"/>
		<path class="st59" d="M313.36,477.87c0.36,0,0.72-3.42,2.2-7.33c1.49-3.92,3.43-6.75,3.15-6.96s-2.75,2.44-4.27,6.54
			C312.92,474.22,313.07,477.93,313.36,477.87z"/>
		<path class="st59" d="M306.22,476.81c0.36-0.06-0.31-3.58,0.85-7.68c1.16-4.1,3.42-6.84,3.14-7.06c-0.28-0.23-3.11,2.28-4.3,6.74
			S305.94,476.94,306.22,476.81z"/>
		<path class="st59" d="M306.46,467.5c0.14,0,0.54-2.03,0.19-5.38c-0.23-1.95-0.69-3.87-1.36-5.71c-0.39-1.09-0.87-2.16-1.41-3.18
			c-0.29-0.65-0.75-1.21-1.33-1.62c-0.81-0.5-1.86-0.33-2.48,0.39c-0.49,0.59-0.75,1.34-0.73,2.11c0,0.63,0.04,1.26,0.12,1.89
			c0.14,1.17,0.42,2.32,0.82,3.42c0.69,1.85,1.62,3.6,2.78,5.2c0.97,1.53,2.21,2.86,3.67,3.93c0.15-0.13-1.22-1.66-2.96-4.41
			c-1.01-1.58-1.82-3.29-2.42-5.07c-0.34-1.04-0.57-2.12-0.7-3.21c-0.09-1.1-0.25-2.48,0.33-3.05c0.21-0.3,0.62-0.38,0.93-0.19
			c0.4,0.3,0.72,0.7,0.92,1.16c0.54,0.97,1.01,1.98,1.42,3.02c0.7,1.76,1.22,3.58,1.55,5.44
			C306.39,465.44,306.28,467.49,306.46,467.5z"/>
		<path class="st59" d="M306.31,466.79c0-0.14-1.76-0.54-4.66-0.23c-1.7,0.19-3.36,0.58-4.96,1.18c-0.99,0.33-1.93,0.8-2.78,1.39
			c-1.15,0.72-1.67,2.13-1.27,3.42c0.47,1.21,1.55,2.07,2.83,2.25c1.08,0.15,2.18,0.02,3.19-0.36c1.64-0.61,3.12-1.55,4.37-2.77
			c1.2-1.01,2.19-2.23,2.94-3.6c-0.15-0.14-1.36,1.22-3.5,2.97c-1.22,1.05-2.63,1.85-4.15,2.37c-0.85,0.29-1.75,0.37-2.64,0.24
			c-0.86-0.11-1.59-0.68-1.91-1.49c-0.23-0.81,0.11-1.68,0.84-2.11c0.77-0.53,1.61-0.96,2.49-1.28c1.52-0.61,3.09-1.07,4.7-1.36
			C304.53,466.89,306.3,466.98,306.31,466.79z"/>
		<path class="st59" d="M332.15,480.03c0.35-0.08-0.34-3.08,0.7-6.56c1.04-3.48,3.13-5.69,2.87-5.94c-0.26-0.25-2.94,1.72-4.03,5.61
			C330.59,477.03,331.87,480.19,332.15,480.03z"/>
		<path class="st59" d="M282.93,488.68c0.93,0.43,1.9,0.77,2.89,0.99c2.68,0.71,5.41,1.24,8.17,1.59c9.12,0.97,18.32,0.84,27.4-0.4
			c10.63-1.29,20.18-2.82,27.1-3.85l8.19-1.34c1.01-0.12,2.01-0.33,2.97-0.65c-1.02-0.04-2.04,0.02-3.04,0.19l-8.23,0.95l-27.12,3.5
			c-9.02,1.21-18.14,1.46-27.2,0.74C287.14,489.8,282.99,488.5,282.93,488.68z"/>
		<path class="st59" d="M281,490.57c0.12,0.16,1.94-1.22,5.06-2.99c3.97-2.44,8.55-3.71,13.2-3.67c5.44,0.24,9.62,3.43,12.37,5.65
			c1.43,1.35,2.95,2.61,4.55,3.76c-1.13-1.63-2.47-3.1-3.98-4.38c-1.58-1.49-3.33-2.79-5.2-3.89c-2.34-1.38-4.97-2.17-7.68-2.3
			c-4.87-0.05-9.63,1.41-13.64,4.17C283.94,487.89,282.37,489.12,281,490.57z"/>
		<path class="st65" d="M332.49,272.96c-0.3,1.8-1.76,50.67,1.11,55.13c4.51,7.09,19.17,19.86,28.4,16.5
			c14.98-5.44,18.68-36.97,18.35-31.11l-10.77-99.84l-22.73-0.24l-2.26,35.74l-6.67,3.99c-0.49,4.15-1.39,8.25-2.66,12.24
			L332.49,272.96z"/>
		<path class="st65" d="M346.85,213.41c0,0-8.98-9.07-8.96-11.06s-3.52-3.14-3.52-3.14l-5.73-2.93c0,0-3.67-3.59-2.81-5.57
			c0.49-1.15,1.38-2.08,2.5-2.63c0,0,0.33-4.87,3.97-6.14c0,0-3.36-3.74,0.07-6.42c3.43-2.67,4.23-1.51,4.23-1.51
			s-0.34-2.88,1.65-3.07s16.27-3.6,16.27-3.6c2.03,1.05,3.92,2.33,5.65,3.83c1.75,1.79,2.63,2.9,2.63,2.9
			c1.58-1.97,2.81-4.21,3.62-6.6c0.91-3.32,2.35-13.27,12.31-12.72l-0.03,2.47c-1.99,2.93-3.38,6.23-4.09,9.7
			c-1.39,6.17-3.92,19.87-3.92,19.87l-1.02,26.91L346.85,213.41z"/>
		<path class="st76" d="M337.06,312.79c-0.09-0.33-0.15-0.66-0.19-1c-0.09-0.67-0.27-1.63-0.35-2.91
			c-0.33-3.58-0.34-7.18-0.05-10.77c0.45-5.31,1.22-10.59,2.3-15.81c1.14-5.9,2.66-12.33,3.82-19.15
			c2.27-13.66,2.67-26.23,3.11-35.3c0.21-4.49,0.38-8.14,0.49-10.74l0.18-2.93c0-0.34,0.04-0.68,0.11-1.01
			c0.02,0.34,0.01,0.68-0.01,1.03c-0.01,0.73-0.02,1.69-0.03,2.92c-0.03,2.61-0.16,6.27-0.28,10.75
			c-0.21,11.85-1.2,23.67-2.96,35.39c-1.17,6.85-2.72,13.27-3.91,19.16c-1.11,5.19-1.92,10.44-2.43,15.72
			c-0.32,3.56-0.35,7.15-0.11,10.72c0.05,1.24,0.19,2.25,0.24,2.92C337.05,312.11,337.07,312.45,337.06,312.79z"/>
		<path class="st76" d="M354.38,172.73c0,0.09-0.99,0.05-2.57,0.25s-3.79,0.39-6.19,0.59c-2.95,0.36-5.93,0.51-8.91,0.44
			c2.9-0.56,5.84-0.91,8.79-1.03c2.47-0.2,4.64-0.34,6.19-0.41C352.58,172.41,353.5,172.46,354.38,172.73z"/>
		<path class="st76" d="M350.09,183.32c-0.86,0.05-1.72,0.01-2.57-0.11c-1.57-0.12-3.71-0.17-6.18-0.26
			c-2.07-0.04-4.13-0.21-6.18-0.52c-0.85-0.08-1.68-0.3-2.47-0.66c0.86-0.01,1.71,0.06,2.56,0.2c1.57,0.15,3.71,0.26,6.18,0.34
			c2.47,0.08,4.62,0.22,6.18,0.45C348.46,182.81,349.29,183.01,350.09,183.32z"/>
		<path class="st76" d="M346.72,191.87c-0.88,0-1.76-0.12-2.62-0.34c-1.6-0.29-3.8-0.73-6.23-1.3c-2.43-0.57-4.61-1.04-6.17-1.44
			c-0.87-0.16-1.72-0.42-2.53-0.78c0.89,0,1.77,0.12,2.63,0.34c1.59,0.29,3.8,0.73,6.17,1.3c2.37,0.57,4.6,1.04,6.17,1.45
			C345.03,191.25,345.9,191.51,346.72,191.87z"/>
		<g>
			<path class="st77" d="M292.51,120.99c0.54,2.47,1.03,4.94,1.75,7.33c0.69,2.4,1.58,4.72,2.8,6.87l0.3,0.52l-0.56,0.18
				c-1.67,0.55-3.35,1.07-5.04,1.55c-0.85,0.24-1.68,0.51-2.54,0.72c-0.85,0.22-1.7,0.46-2.56,0.65c0.8-0.37,1.62-0.7,2.43-1.04
				c0.81-0.35,1.64-0.64,2.45-0.97c1.64-0.64,3.29-1.25,4.94-1.83l-0.26,0.7c-1.33-2.21-2.21-4.66-2.79-7.14
				C292.88,126.05,292.58,123.52,292.51,120.99z"/>
		</g>
		<g>
			<path class="st78" d="M261.1,102.01c1.11-1.57,2.64-2.87,4.37-3.81c1.73-0.95,3.69-1.53,5.7-1.61c2.01-0.06,4.07,0.41,5.78,1.49
				c1.71,1.06,3.02,2.65,3.77,4.42c-1.25-1.46-2.67-2.69-4.3-3.47c-1.62-0.78-3.41-1.12-5.2-1.05c-1.79,0.05-3.58,0.51-5.28,1.2
				C264.24,99.89,262.63,100.85,261.1,102.01z"/>
		</g>
		<g>
			<path class="st78" d="M297.72,103.49c1.18-1.46,2.89-2.52,4.77-3.02c1.88-0.52,3.89-0.48,5.78,0.02c1.88,0.52,3.64,1.51,5,2.89
				c1.37,1.37,2.33,3.12,2.7,4.95c-0.92-1.63-2.06-3.04-3.43-4.14c-1.37-1.1-2.95-1.91-4.64-2.35c-1.68-0.47-3.45-0.57-5.19-0.31
				C300.98,101.8,299.29,102.46,297.72,103.49z"/>
		</g>
		<g>
			<path class="st70" d="M298.23,119.43c0.45-1.5,1.33-2.93,2.62-3.96c1.27-1.05,3.02-1.58,4.69-1.45c0.83,0.1,1.64,0.25,2.42,0.58
				c0.78,0.29,1.53,0.82,2.04,1.54c0.52,0.72,0.7,1.63,0.62,2.45c-0.1,0.82-0.37,1.59-0.82,2.25c0.46-1.48,0.42-3.15-0.5-4.16
				c-0.46-0.48-1.04-0.89-1.74-1.08c-0.67-0.25-1.4-0.38-2.12-0.45c-1.43-0.12-2.87,0.25-4.1,1.04
				C300.13,116.97,299.07,118.11,298.23,119.43z"/>
		</g>
		<g>
			<path class="st70" d="M265.33,115.66c0.2-1.54,0.89-3.08,2.11-4.22c0.61-0.56,1.36-0.97,2.16-1.25c0.81-0.22,1.65-0.33,2.47-0.26
				c0.41,0.03,0.82,0.07,1.22,0.18l0.6,0.13l0.59,0.21c0.77,0.3,1.53,0.74,2.07,1.42c0.56,0.66,0.87,1.49,0.93,2.31
				c0.04,0.82-0.09,1.62-0.42,2.33c0.21-1.53-0.15-3.11-1.15-4.05c-0.24-0.25-0.54-0.42-0.82-0.62c-0.33-0.14-0.62-0.32-0.97-0.4
				l-0.51-0.16l-0.53-0.1c-0.35-0.09-0.71-0.11-1.07-0.13c-1.43-0.14-2.84,0.22-4,1.06C266.86,112.99,265.95,114.24,265.33,115.66z"
				/>
		</g>
		<g>
			<path class="st68" d="M279.32,148.07c0.18,0.57,0.36,1.11,0.55,1.63c0.52,1.43,1.09,2.72,1.69,3.87c2.55,4.83,5.77,7.16,8.73,7.2
				c0.51,0.01,0.98-0.07,1.41-0.22c0,0,0,0,0-0.01c2.93-1.01,4.29-5.26,4.64-7.84c-0.53,0.06-1.07,0.09-1.62,0.09
				C288.34,152.87,281.31,149.75,279.32,148.07z"/>
			<path class="st69" d="M281.56,153.57c2.55,4.83,5.77,7.16,8.73,7.2c0.51,0.01,0.98-0.07,1.41-0.22c0,0,0,0,0-0.01
				C292.47,159.11,289.03,155.8,281.56,153.57z"/>
			<path class="st6" d="M279.32,148.07c0.18,0.57,0.36,1.11,0.55,1.63c3.04,2.91,9.76,6.34,14.85,3.09
				C288.34,152.87,281.31,149.75,279.32,148.07z"/>
		</g>
	</g>
</g>
</svg>
